<?xml version="1.0" encoding="UTF-8"?>
<!DOCTYPE svg PUBLIC "-//W3C//DTD SVG 1.0//EN" "http://www.w3.org/TR/2001/REC-SVG-20010904/DTD/svg10.dtd">
<!-- Creator: CorelDRAW -->
<svg xmlns="http://www.w3.org/2000/svg" xml:space="preserve" width="10.1498mm" height="7.9595mm" version="1.0" style="shape-rendering:geometricPrecision; text-rendering:geometricPrecision; image-rendering:optimizeQuality; fill-rule:evenodd; clip-rule:evenodd"
viewBox="0 0 27837 21830"
 xmlns:xlink="http://www.w3.org/1999/xlink"
 xmlns:xodm="http://www.corel.com/coreldraw/odm/2003">
 <defs>
  <style type="text/css">
   <![CDATA[
    .fil0 {fill:#00A0E3}
   ]]>
  </style>
 </defs>
 <g id="Layer_x0020_1">
  <metadata id="CorelCorpID_0Corel-Layer"/>
  <path class="fil0" d="M756 0l26325 0c416,0 756,340 756,756l0 16896c0,416 -340,756 -756,756l-11116 0 -168 27c81,224 187,453 305,666 179,324 381,606 557,772 474,448 936,434 1666,412 175,-5 366,-11 581,-12l239 -1 15 1554c-3498,4 -6995,1 -10493,1l49 -1555 618 5c1134,21 1994,37 2708,-1841 -67,-4 -136,-15 -205,-29l-11080 0c-416,0 -756,-340 -756,-756l0 -16896c0,-416 340,-756 756,-756zm14242 20230c-128,-197 -250,-386 -397,-665 -112,-213 -190,-431 -270,-652 -52,-145 -105,-292 -169,-439l-493 -20c-241,819 -438,1127 -679,1502l-186 298 2212 4 -18 -28zm-440 -4272l0 874 11702 0 0 -15255 -24683 0 0 15255 11702 0 0 -874 -10420 0c-358,0 -650,-292 -650,-650l0 -12208c0,-357 293,-650 650,-650l22118 0c358,0 650,292 650,650l0 12208c0,357 -293,650 -650,650l-10420 0zm-11058 -1290l0 -10927 20838 0 0 10927 -20838 0z"/>
 </g>
</svg>
