<?xml version="1.0" encoding="UTF-8"?>
<!DOCTYPE svg PUBLIC "-//W3C//DTD SVG 1.0//EN" "http://www.w3.org/TR/2001/REC-SVG-20010904/DTD/svg10.dtd">
<!-- Creator: CorelDRAW -->
<svg xmlns="http://www.w3.org/2000/svg" xml:space="preserve" width="10.2mm" height="7.5837mm" version="1.0" style="shape-rendering:geometricPrecision; text-rendering:geometricPrecision; image-rendering:optimizeQuality; fill-rule:evenodd; clip-rule:evenodd"
viewBox="0 0 31515 23431"
 xmlns:xlink="http://www.w3.org/1999/xlink"
 xmlns:xodm="http://www.corel.com/coreldraw/odm/2003">
 <defs>
  <style type="text/css">
   <![CDATA[
    .fil0 {fill:#00A0E3}
   ]]>
  </style>
 </defs>
 <g id="Layer_x0020_1">
  <metadata id="CorelCorpID_0Corel-Layer"/>
  <path class="fil0" d="M1641 0l28233 0c451,0 861,185 1158,482 298,298 483,709 483,1160l0 16920c0,450 -185,860 -482,1158 -299,298 -709,483 -1159,483l-12875 0 0 1354 7198 0 0 1876 -16879 0 0 -1876 7198 0 0 -1354 -12875 0c-450,0 -860,-185 -1158,-482 -298,-299 -483,-709 -483,-1159l0 -16920c0,-450 185,-860 482,-1158 299,-298 709,-483 1159,-483zm14740 18773c0,-172 -70,-329 -183,-441 -112,-113 -268,-183 -441,-183 -172,0 -329,70 -441,183 -112,112 -183,269 -183,441 0,172 70,328 183,441 112,113 268,183 441,183 172,0 329,-70 442,-182 112,-113 182,-269 182,-442zm12077 -15677l-25400 0 0 14116 25400 0 0 -14116z"/>
 </g>
</svg>
