<?xml version="1.0" encoding="UTF-8"?>
<!DOCTYPE svg PUBLIC "-//W3C//DTD SVG 1.0//EN" "http://www.w3.org/TR/2001/REC-SVG-20010904/DTD/svg10.dtd">
<!-- Creator: CorelDRAW -->
<svg xmlns="http://www.w3.org/2000/svg" xml:space="preserve" width="5.1897mm" height="9.1756mm" version="1.0" style="shape-rendering:geometricPrecision; text-rendering:geometricPrecision; image-rendering:optimizeQuality; fill-rule:evenodd; clip-rule:evenodd"
viewBox="0 0 9446 16701"
 xmlns:xlink="http://www.w3.org/1999/xlink"
 xmlns:xodm="http://www.corel.com/coreldraw/odm/2003">
 <defs>
  <style type="text/css">
   <![CDATA[
    .fil0 {fill:#00A0E3}
   ]]>
  </style>
 </defs>
 <g id="Layer_x0020_1">
  <metadata id="CorelCorpID_0Corel-Layer"/>
  <path class="fil0" d="M8768 15994l-8087 0 36 32c76,58 180,93 294,93l7425 0c115,0 220,-34 297,-93l36 -31zm-7433 -12334c-6,356 3,842 5,932l-4 147c-6,153 -14,356 10,380l42 1c12,-12 11,-53 10,-102l0 -1408 2 -89c3,-82 7,-173 -12,-189l-7 -5c-5,-2 -12,-3 -18,-1l-17 9c-5,12 -9,149 -12,325zm-461 -658c81,-122 202,-203 369,-239l3 -1c183,-39 346,5 471,95 124,88 210,223 242,367l1 3c26,122 19,1024 16,1516l-2 272c0,282 -108,472 -258,581l7157 3 -2 -1534c10,-231 7,-477 4,-719l-3 -348 2 -288c4,-581 13,-1738 -19,-1848 -13,-45 -37,-89 -66,-127 -30,-39 -65,-72 -100,-93 -98,-58 -208,-58 -351,-58l-6630 1c-68,0 -155,-4 -243,-7 -369,-15 -779,-31 -870,284 -23,79 -19,243 -17,374 7,520 3,1042 4,1563 2,932 5,1865 -2,2796l451 0c-123,-82 -219,-210 -254,-375 -24,-115 -18,-961 -15,-1463l2 -324c0,-173 35,-318 110,-432zm464 4956l-1 129c3,87 2,291 0,510 -3,321 -6,681 5,726l7 18 16 3c25,1 34,-46 38,-111 4,-70 1,-151 -2,-234 -3,-82 -6,-167 -3,-248 -5,-684 -1,-1371 -1,-2055 0,-48 -12,-76 -27,-83l-6 0c-14,8 -26,35 -26,83l2 454c3,277 5,559 -3,807zm635 133l0 490 4 154c9,299 23,724 -104,917 -38,58 -83,106 -133,145 -112,87 -244,125 -372,125 -126,0 -249,-38 -344,-101 -45,-30 -85,-66 -117,-107 -64,-81 -100,-157 -120,-246 -18,-80 -22,-165 -22,-274l-1 -369c-3,-722 -8,-2173 10,-2281 10,-58 29,-114 54,-165 37,-76 91,-144 156,-199l-404 0 -1 9240 8293 -1 -1 -9241 -7114 3c226,171 223,418 218,742l-1 461c1,237 1,474 -1,710zm-1496 -7948c97,-56 209,-98 335,-119 158,-27 409,-21 618,-17l189 2 5583 0 264 -3c437,-7 1107,-19 1337,61 123,42 225,105 310,179 84,75 153,162 208,256 128,217 126,440 124,685l-3 4861c-3,3185 -6,6373 3,9553 0,141 -10,269 -38,386 -31,126 -84,239 -168,339 -63,76 -140,150 -233,212 -96,63 -210,113 -347,139 -153,29 -419,24 -634,19l-184 -2 -5583 0 -257 3c-438,7 -1135,18 -1350,-57 -116,-41 -217,-99 -301,-170 -92,-77 -165,-168 -221,-266 -133,-235 -131,-417 -128,-664l0 -14440c0,-155 11,-281 41,-394 32,-121 86,-226 170,-333 72,-91 160,-169 264,-230z"/>
 </g>
</svg>
