<?xml version="1.0" encoding="UTF-8"?>
<!DOCTYPE svg PUBLIC "-//W3C//DTD SVG 1.0//EN" "http://www.w3.org/TR/2001/REC-SVG-20010904/DTD/svg10.dtd">
<!-- Creator: CorelDRAW -->
<svg xmlns="http://www.w3.org/2000/svg" xml:space="preserve" width="9.4mm" height="6.024mm" version="1.0" style="shape-rendering:geometricPrecision; text-rendering:geometricPrecision; image-rendering:optimizeQuality; fill-rule:evenodd; clip-rule:evenodd"
viewBox="0 0 42211 27051"
 xmlns:xlink="http://www.w3.org/1999/xlink"
 xmlns:xodm="http://www.corel.com/coreldraw/odm/2003">
 <defs>
  <style type="text/css">
   <![CDATA[
    .fil0 {fill:#00A0E3;fill-rule:nonzero}
   ]]>
  </style>
 </defs>
 <g id="Layer_x0020_1">
  <metadata id="CorelCorpID_0Corel-Layer"/>
  <path class="fil0" d="M4004 0l34204 0c1101,0 2103,451 2828,1176 725,725 1176,1727 1176,2828l0 9802c0,1101 -451,2103 -1176,2828 -725,725 -1727,1176 -2828,1176l-34204 0c-1101,0 -2103,-451 -2828,-1176 -725,-725 -1176,-1727 -1176,-2828l0 -9802c0,-1101 451,-2103 1176,-2828 725,-725 1727,-1176 2828,-1176zm5853 18708l33 35c783,888 1567,1777 1549,2685 -13,651 -378,1074 -762,1520 -157,182 -318,368 -419,550 -118,211 -180,450 -189,685 -9,248 36,486 128,675 89,183 237,340 385,466 175,149 354,258 473,330l285 172 -747 1225 -283 -172c-162,-100 -408,-250 -655,-459 -273,-233 -552,-538 -745,-932 -196,-400 -292,-878 -274,-1356 17,-458 137,-925 368,-1336 167,-298 380,-545 585,-783 212,-247 414,-483 417,-612 7,-344 -595,-1026 -1195,-1708l509 -448 537 -537zm21925 34c786,890 1573,1783 1555,2687 -13,651 -379,1074 -762,1520 -157,182 -318,368 -419,550 -119,211 -181,450 -189,685 -9,248 36,486 128,675 89,183 237,340 385,466 175,149 355,258 473,330l285 172 -748 1225 -282 -172c-162,-100 -408,-250 -655,-459 -273,-233 -552,-538 -745,-932 -195,-400 -292,-878 -274,-1356 17,-458 137,-925 368,-1336 167,-298 380,-545 586,-783 212,-247 414,-483 417,-612 7,-348 -595,-1029 -1195,-1710l1073 -949zm-10948 0c786,890 1572,1783 1554,2687 -13,650 -379,1075 -764,1522 -155,180 -315,366 -417,547 -118,211 -181,450 -189,685 -9,248 36,486 129,675 194,392 636,661 858,796l285 172 -748 1225 -282 -172c-344,-210 -1031,-630 -1402,-1391 -193,-401 -290,-878 -272,-1356 18,-458 137,-925 368,-1336 168,-298 380,-545 586,-783 212,-246 414,-481 416,-612 7,-348 -594,-1029 -1194,-1710l1073 -949zm-17652 -5192l35849 0 0 -639 -35849 0 0 639zm36303 906l-37209 0 0 -1545 0 -906 0 -1351 453 0 37209 0 0 1351 0 906 0 1545 -453 0zm-453 -2896l-35849 0 0 445 35849 0 0 -445zm-5978 -8022l4102 0 0 4556 -4555 0 0 -4556 453 0zm3196 906l-2743 0 0 2743 2743 0 0 -2743zm1959 -3005l-34204 0c-705,0 -1346,289 -1811,754 -465,465 -754,1106 -754,1811l0 9802c0,705 289,1347 754,1811 465,465 1106,754 1811,754l34204 0c705,0 1346,-289 1811,-754 465,-465 754,-1107 754,-1811l0 -9802c0,-705 -289,-1346 -754,-1811 -465,-465 -1106,-754 -1811,-754z"/>
 </g>
</svg>
