<?xml version="1.0" encoding="UTF-8"?>
<!DOCTYPE svg PUBLIC "-//W3C//DTD SVG 1.0//EN" "http://www.w3.org/TR/2001/REC-SVG-20010904/DTD/svg10.dtd">
<!-- Creator: CorelDRAW -->
<svg xmlns="http://www.w3.org/2000/svg" xml:space="preserve" width="9.5mm" height="4.8121mm" version="1.0" style="shape-rendering:geometricPrecision; text-rendering:geometricPrecision; image-rendering:optimizeQuality; fill-rule:evenodd; clip-rule:evenodd"
viewBox="0 0 53267 26982"
 xmlns:xlink="http://www.w3.org/1999/xlink"
 xmlns:xodm="http://www.corel.com/coreldraw/odm/2003">
 <defs>
  <style type="text/css">
   <![CDATA[
    .fil0 {fill:#00A0E3}
   ]]>
  </style>
 </defs>
 <g id="Layer_x0020_1">
  <metadata id="CorelCorpID_0Corel-Layer"/>
  <path class="fil0" d="M9800 18332c-2920,10 -4488,467 -4206,-1217l42072 51c300,1652 -1594,1171 -4405,1167l-33460 -1zm23497 6923c1225,433 2047,1251 3189,1726 436,-211 172,-55 534,-364l1223 -1706c-38,-11 -112,-41 -158,-53l-863 -119 -1141 -3360 -2873 -16c9,1043 934,2476 824,3017 -148,725 -487,357 -735,875zm9213 -621c-375,292 -706,126 -1068,410 708,489 2899,1804 3460,1910 617,-492 1295,-1296 1877,-1910 -47,-32 -129,-114 -157,-67l-1141 -283 -1128 -3295 -2885 -47c10,769 733,2708 1041,3281zm-26496 100c-200,50 -618,78 -669,90l-623 220c660,749 1300,1570 2057,1920 644,-218 2743,-1493 3290,-1920l-1026 -410 1134 -3202 -2987 -38 -1176 3340zm-8251 -47l-1268 357c587,584 1048,1292 1868,1920 782,-141 2673,-1361 3465,-1920l-1028 -410c296,-1008 983,-2369 1005,-3265l-2827 8 -1216 3311zm17371 -54c-475,316 -784,118 -1166,410 666,524 2025,1651 2664,1927 1044,-518 1663,-1214 2660,-1927 -338,-248 -717,-116 -1153,-410l33 -3222 -3118 -42 80 3264zm-25092 -19296l1 10469c-2,3823 107,4143 4219,3839 -655,-11755 -543,-7905 -19,-19573 -4961,340 -4200,13 -4200,5265zm48960 14326c5035,185 4213,390 4218,-9604 6,-11210 638,-9689 -4197,-9985 -4,3269 436,6575 430,9985 -6,3363 -436,6469 -451,9604zm-39202 -3621c-3177,-3 -4411,479 -4227,-1193l42115 32c135,1134 -468,1189 -1539,1186l-36349 -25zm-2894 -2197c-1013,-13 -1548,-50 -1289,-1186l42032 6c278,1281 -371,1172 -1500,1171 -12792,-9 -26667,179 -39242,10zm19727 -9755c2033,1 4159,-630 3905,1698 -1093,841 -2110,563 -3905,561 -1971,-3 -2381,265 -3941,-548 -89,-2129 677,-1713 3941,-1711zm-21739 15545l43485 48c1147,-6367 163,-13548 128,-19375 -783,-281 -40819,-462 -43675,-126 -341,4201 -939,15763 62,19453z"/>
 </g>
</svg>
