<?xml version="1.0" encoding="UTF-8"?>
<!DOCTYPE svg PUBLIC "-//W3C//DTD SVG 1.0//EN" "http://www.w3.org/TR/2001/REC-SVG-20010904/DTD/svg10.dtd">
<!-- Creator: CorelDRAW -->
<svg xmlns="http://www.w3.org/2000/svg" xml:space="preserve" width="5.2623mm" height="9.264mm" version="1.0" style="shape-rendering:geometricPrecision; text-rendering:geometricPrecision; image-rendering:optimizeQuality; fill-rule:evenodd; clip-rule:evenodd"
viewBox="0 0 22120 38941"
 xmlns:xlink="http://www.w3.org/1999/xlink"
 xmlns:xodm="http://www.corel.com/coreldraw/odm/2003">
 <defs>
  <style type="text/css">
   <![CDATA[
    .fil0 {fill:#00A0E3}
   ]]>
  </style>
 </defs>
 <g id="Layer_x0020_1">
  <metadata id="CorelCorpID_0Corel-Layer"/>
  <path class="fil0" d="M13867 33518l-16 296c-33,580 -78,1380 -21,2034 45,509 128,909 284,896 414,-36 326,-1633 267,-2717l-25 -501 -489 -8zm-5199 -7823c-457,-48 -933,-240 -1211,-453l-127 -98 -16 -161c-24,-250 -2,-461 56,-637 83,-252 237,-435 436,-560 180,-113 393,-174 617,-196 488,-47 1055,84 1459,218l208 69 40 217c67,366 44,661 -45,895 -119,314 -342,512 -619,620 -242,95 -521,115 -798,86zm2315 -1196c28,-590 287,-1162 817,-1509l-4881 0 -2 3259 4809 0c-59,-47 -115,-99 -168,-153 -200,-207 -352,-464 -449,-741 -95,-272 -139,-566 -126,-855zm3070 -1509c86,63 166,133 240,210 197,203 346,451 441,716 93,264 136,548 121,828 -31,577 -298,1143 -845,1504l1196 0 -5 -3259 -1148 0zm-1966 -8855c-377,-242 -847,-356 -1342,-248 -952,209 -1450,830 -1574,1509 -49,271 -42,552 18,821 59,266 172,523 332,746 396,553 1100,894 2035,680l9 -2c434,-103 845,-385 1113,-789 269,-406 396,-939 258,-1542l-3 -14c-108,-456 -420,-888 -846,-1161zm-2067 5424c-1356,-325 -2533,-1338 -2832,-3124 -314,-1879 481,-3219 1671,-3946 478,-291 1018,-482 1572,-565 551,-83 1125,-61 1670,70 1387,333 2587,1369 2844,3180 262,1843 -544,3171 -1730,3891 -474,288 -1006,477 -1551,560 -543,83 -1107,63 -1645,-66zm-889 1427c2480,-43 7033,-122 7609,249l80 51 340 618 12 55c60,282 70,1248 55,2312 -21,1533 -92,3306 -131,3514l-40 206 -200 72c-436,157 -3124,235 -5793,235 -2671,0 -5363,-79 -5800,-235l-199 -72 -40 -206c-159,-830 -135,-2165 -114,-3323 7,-406 14,-790 13,-1116 -10,-2069 40,-2371 1319,-2377 171,0 359,6 575,14 276,9 604,22 978,22l1335 -18zm-1367 12550l-25 494c-60,1077 -148,2677 266,2713 156,13 239,-386 284,-895 58,-655 13,-1456 -20,-2038l-16 -291 -489 17zm4101 -31183c-2806,-29 -5768,13 -6331,123 -3278,654 -3187,3683 -3101,6543 15,511 31,1019 31,1420l-13 2112c-30,4681 -98,14973 99,15860 145,655 469,1243 904,1714 454,488 1024,852 1641,1039 404,122 2708,195 5166,219 2800,26 5760,-15 6354,-121 3262,-586 3155,-3974 3070,-6667 -15,-464 -29,-910 -29,-1248l0 -12164c0,-554 18,-1205 35,-1834 87,-3182 159,-5837 -2639,-6770 -372,-124 -2704,-200 -5187,-225zm-6295 31659l16 -353c-878,-87 -1578,-308 -2177,-624 -716,-377 -1270,-879 -1807,-1442 -654,-686 -1033,-1449 -1247,-2324 -204,-831 -253,-1754 -251,-2808l0 -12016c-2,-650 -23,-1338 -46,-2089 -98,-3256 -231,-7645 1006,-9522 1936,-2937 4547,-2885 8188,-2813 526,10 1075,21 1807,21 736,0 1273,-11 1789,-20 3725,-70 6361,-119 8269,2910 1166,1852 1037,6207 941,9428 -22,751 -43,1437 -43,2084l-4 4055c-1,2703 -3,5407 2,8110 3,1104 -57,2010 -278,2817 -231,843 -629,1561 -1297,2246 -531,545 -1082,1028 -1791,1392 -586,301 -1268,512 -2116,594l15 332c27,577 55,1198 30,1799 -73,1731 -567,3231 -2570,3147 -2536,-108 -2430,-2559 -2333,-4811l18 -427 -1264 -1 17 411c21,502 43,1018 33,1525 -37,1808 -470,3347 -2545,3304 -2182,-45 -2438,-2007 -2399,-3952 7,-351 23,-670 37,-975z"/>
 </g>
</svg>
