<?xml version="1.0" encoding="UTF-8"?>
<!DOCTYPE svg PUBLIC "-//W3C//DTD SVG 1.0//EN" "http://www.w3.org/TR/2001/REC-SVG-20010904/DTD/svg10.dtd">
<!-- Creator: CorelDRAW -->
<svg xmlns="http://www.w3.org/2000/svg" xml:space="preserve" width="5.4097mm" height="9.265mm" version="1.0" style="shape-rendering:geometricPrecision; text-rendering:geometricPrecision; image-rendering:optimizeQuality; fill-rule:evenodd; clip-rule:evenodd"
viewBox="0 0 34293 58732"
 xmlns:xlink="http://www.w3.org/1999/xlink"
 xmlns:xodm="http://www.corel.com/coreldraw/odm/2003">
 <defs>
  <style type="text/css">
   <![CDATA[
    .fil0 {fill:#00A0E3}
   ]]>
  </style>
 </defs>
 <g id="Layer_x0020_1">
  <metadata id="CorelCorpID_0Corel-Layer"/>
  <path class="fil0" d="M23421 41418l-17277 -4 -2027 13409 21302 38 -1999 -13442zm-7166 4321c-685,-309 -1511,-417 -2361,-184 -1395,382 -2091,1205 -2239,2081 -61,364 -35,741 68,1100 107,369 295,723 553,1029 700,833 1929,1324 3487,917 105,-27 216,-64 326,-106 588,-229 1153,-648 1519,-1194 339,-506 500,-1130 323,-1809l-96 -295c-240,-618 -820,-1196 -1580,-1539zm-2735 8084c-2285,-369 -4346,-1803 -4964,-4446 -633,-2706 485,-4721 2292,-5903 749,-490 1620,-831 2527,-1010 895,-177 1838,-197 2742,-48 2337,384 4422,1871 4940,4629 497,2643 -625,4600 -2389,5745 -739,480 -1588,812 -2470,986 -874,172 -1793,190 -2679,48zm17024 -30991c53,-2472 121,-5631 -26,-7268l-2006 34 -2108 14123c1497,-25 2523,-181 3137,-651 689,-527 965,-1604 962,-3553 -1,-661 19,-1610 42,-2684zm-22358 14709l13228 -14c399,-2129 994,-6350 1478,-9798l562 -3934 1062 -7117c100,-672 231,-1469 366,-2281 226,-1369 460,-2782 611,-4114l-21363 2 4056 27256zm-2930 -31580c-243,103 -465,236 -654,410l20447 23c-197,-186 -441,-328 -711,-435 -756,-301 -1707,-369 -2470,-366l-14203 -1c-823,-3 -1708,71 -2409,368zm-5033 49153c108,-603 242,-1345 326,-2247l10 -99 34 -98c257,-742 601,-3338 968,-6105 461,-3486 959,-7240 1462,-8340l197 -430 1139 -135c-170,-1390 -608,-4446 -1140,-8058 -1166,-7917 -2763,-18301 -3044,-20047 -187,-1158 -141,-2148 104,-3043 248,-908 691,-1695 1294,-2441 2050,-2529 5945,-2408 9777,-2288l1506 41 44 -1781 3886 -44 -1 1819 1447 -45c4731,-172 9805,-358 11146,5005 326,1306 147,2317 -42,3385 -89,498 -180,1012 -210,1543 642,13 1590,-30 2193,49 3062,420 3014,2770 2960,5367l-10 929 -3 7647c3,2045 -333,3733 -1163,5033 -863,1352 -2217,2247 -4215,2642 -808,160 -1467,138 -2059,118 -252,-8 -490,-16 -711,-4l-810 4116c985,98 1382,364 1659,1862 907,3810 1370,9051 2003,13170 66,430 143,832 217,1227 353,1861 688,3635 -498,4419l-20 10c-884,553 -8255,430 -12190,363 -847,-14 -1504,-25 -2079,-25 -3051,0 -5235,38 -6962,67 -3470,59 -5241,90 -6207,-269 -1504,-560 -1343,-1466 -1010,-3312z"/>
 </g>
</svg>
