<?xml version="1.0" encoding="UTF-8"?>
<!DOCTYPE svg PUBLIC "-//W3C//DTD SVG 1.0//EN" "http://www.w3.org/TR/2001/REC-SVG-20010904/DTD/svg10.dtd">
<!-- Creator: CorelDRAW -->
<svg xmlns="http://www.w3.org/2000/svg" xml:space="preserve" width="10.1202mm" height="8.9998mm" version="1.0" style="shape-rendering:geometricPrecision; text-rendering:geometricPrecision; image-rendering:optimizeQuality; fill-rule:evenodd; clip-rule:evenodd"
viewBox="0 0 204639 181983"
 xmlns:xlink="http://www.w3.org/1999/xlink"
 xmlns:xodm="http://www.corel.com/coreldraw/odm/2003">
 <defs>
  <style type="text/css">
   <![CDATA[
    .fil0 {fill:#00A0E3}
   ]]>
  </style>
 </defs>
 <g id="Layer_x0020_1">
  <metadata id="CorelCorpID_0Corel-Layer"/>
  <path class="fil0" d="M57348 159089l-186 -6184 -32044 -10 20 -108586 154528 261 16 108305 -34802 47 368 6548 32129 103c-3529,15309 -14792,13030 -30936,13030l-87514 0c-17398,0 -24938,2966 -31209,-11382 1579,-1769 -2147,-944 3310,-1456l23956 142c4097,-421 892,93 2364,-817zm51110 -51143c1824,-704 2166,-1217 1003,-6580 -2716,-588 -11542,-1064 -14124,423l117 6169 13004 -12zm-17707 29854l23656 -59 18 -6321 -23666 -204 -8 6584zm8141 -52916c8212,-1937 14670,2596 17845,6833 4521,6034 3454,14419 3454,22805 0,44466 3500,39605 -12733,39588 -28760,-32 -22668,5352 -22668,-30042 0,-17990 -3547,-35016 14102,-39184zm-23165 68621c819,4206 4972,8386 8887,9340 3618,884 13040,398 17275,398 31866,0 27448,-795 27448,-43153 0,-11548 1316,-22356 -3719,-31674 -3666,-6780 -12434,-13148 -22926,-13269 -11706,-135 -18987,6273 -22953,12470 -5807,9073 -4299,18999 -4299,30881 0,8024 -1003,28382 287,35006zm113067 -118502c5983,-700 6523,-370 6582,5530 65,13067 2459,28924 -6578,31061l10 -25492 -14 -11099zm-172831 36759c-8005,-3059 -6564,-9544 -6560,-18500 0,-4238 -113,-8584 -67,-12798 65,-5727 1159,-5714 6626,-5682l0 36980zm9789 -37142c-1147,-10891 10695,-24229 25990,-25066l102617 91c12519,1098 24799,12096 24922,24971l-153529 4zm-6420 130467c3961,8434 8531,15200 19406,16506 6432,772 95796,154 106908,154 11718,0 22789,1654 30958,-4428 6382,-4750 12060,-16609 12228,-23776 552,-23654 -113,-47972 -20,-71719 6436,-3142 9662,-2954 13350,-9439 3270,-5747 2354,-12484 2354,-19918 0,-18753 2756,-26740 -17742,-26873 -2291,-9734 -10988,-17867 -18860,-21657 -10543,-5077 -24550,-3579 -37382,-3579 -26873,0 -55251,-878 -81939,109 -11544,2198 -20201,6790 -26380,16088 -1739,2619 -3357,7601 -5447,9059 -20130,-8 -16506,10311 -16510,28445 0,7587 -712,13625 2914,19161 3935,6006 11465,7197 12802,9480l-4 64440c-16,11388 85,8923 3367,17948z"/>
 </g>
</svg>
