<?xml version="1.0" encoding="UTF-8"?>
<!DOCTYPE svg PUBLIC "-//W3C//DTD SVG 1.0//EN" "http://www.w3.org/TR/2001/REC-SVG-20010904/DTD/svg10.dtd">
<!-- Creator: CorelDRAW -->
<svg xmlns="http://www.w3.org/2000/svg" xml:space="preserve" width="9.2799mm" height="8.1764mm" version="1.0" style="shape-rendering:geometricPrecision; text-rendering:geometricPrecision; image-rendering:optimizeQuality; fill-rule:evenodd; clip-rule:evenodd"
viewBox="0 0 935196 823989"
 xmlns:xlink="http://www.w3.org/1999/xlink"
 xmlns:xodm="http://www.corel.com/coreldraw/odm/2003">
 <defs>
  <style type="text/css">
   <![CDATA[
    .fil0 {fill:#00A0E3}
   ]]>
  </style>
 </defs>
 <g id="Layer_x0020_1">
  <metadata id="CorelCorpID_0Corel-Layer"/>
  <path class="fil0" d="M84491 103387l-43566 353 101 282114 43415 71 50 -282537zm606553 65757l-10 0c-10723,0 -19490,8757 -19490,19480l0 112456c0,10723 8768,19480 19490,19480l10 0c10723,0 19490,-8757 19490,-19480l0 -112456c0,-10723 -8768,-19480 -19490,-19480zm-116739 0l10 0c10723,0 19490,8757 19490,19480l0 112456c0,10723 -8768,19480 -19490,19480l-10 0c-10723,0 -19490,-8757 -19490,-19480l0 -112456c0,-10723 8768,-19480 19490,-19480zm58360 0l10 0c10723,0 19490,8757 19490,19480l0 112456c0,10723 -8768,19480 -19490,19480l-10 0c-10723,0 -19490,-8757 -19490,-19480l0 -112456c0,-10723 8768,-19480 19490,-19480zm25386 192715c42286,-7316 80410,-36552 92180,-91878 11912,-55981 -10269,-97673 -45208,-121214 -13867,-9352 -29769,-15913 -46317,-19410 -16578,-3517 -33841,-3971 -50439,-1139 -42377,7216 -80581,36128 -92362,90749 -12154,56384 10128,98509 45218,122272 13857,9382 29790,15993 46408,19520 16598,3517 33891,3981 50519,1098zm-181428 -149623c9564,-54994 47597,-104747 120821,-122252 73043,-17465 129226,11478 161907,57977 13040,18573 22322,39998 27351,62350 5029,22352 5845,45692 2005,68085 -9624,56203 -48161,106692 -122131,122363 -72337,15328 -128329,-13968 -160859,-60143 -12930,-18351 -22131,-39434 -27129,-61423 -4988,-21969 -5795,-44906 -1965,-66956zm-321185 -107911l-31392 -645 -393 282376c15247,-191 34123,-867 55246,-1612 139626,-4988 376209,-13444 387959,92069 3416,30777 2096,134819 1149,208758l-615 57604c-161,27058 -242,40190 25315,42044 9302,675 30273,1129 49622,1048 15509,-60 30031,-484 36612,-1381 20528,-2802 20095,-19702 19541,-41288l-212 -11609c-191,-39424 -141,-78898 -91,-118342l40 -56878c-30,-12113 -403,-22342 -736,-31775 -1834,-51325 -2943,-82123 48927,-107317 23229,-11277 64396,-19420 96816,-25819 21113,-4162 38366,-7588 42135,-9846 11871,-7115 10571,-30233 9453,-49995 -302,-5523 -605,-10864 -615,-16104l191 -175351c-191,-15308 -1733,-24549 -6329,-29386 -4565,-4807 -13554,-6702 -28741,-7397 -59367,-2761 -77517,-12254 -111167,-29830 -7236,-3779 -15247,-7971 -24227,-12375 -87686,-42991 -150107,-14552 -205272,10612 -20871,9513 -40794,18603 -61000,23632 -56536,14099 -209645,10793 -302219,8808zm-155417 154128c-141,-81367 1088,-167138 3426,-183030l847 -5674 5512 -1592c29134,-8375 110884,-6631 198137,-4767 96070,2046 198973,4243 241763,-6581 19148,-4837 37509,-13474 56636,-22443 48000,-22534 100696,-47264 185963,-26625 27905,6762 46246,16870 64305,26807 12426,6843 24741,13625 39746,18906 16094,5664 34657,7296 52222,8818 28782,2509 55226,4837 70785,23894 18674,22866 16447,74020 14703,113978 -433,10128 -847,19480 -847,27885 0,8687 202,18805 423,30727 796,41943 1995,103840 -2650,122212 -10027,39726 -39494,43021 -75582,47022 -10894,1209 -22524,2509 -34294,5099 -17203,3789 -38184,9009 -54933,17485 -15187,7689 -26958,18110 -28439,32601 -2802,27240 -1844,66563 -967,102278 403,16920 806,33135 806,45470 0,23582 181,40976 343,56132 645,62391 988,95153 -11216,114059 -14512,22483 -41520,22584 -98277,22775l-18563 91c-70614,494 -82989,-23924 -83493,-97189 -111,-15167 322,-32460 816,-52232 544,-22262 1179,-47718 1219,-76560l-32994 -6964 -736 -13222c-1310,-23370 -2751,-48746 2852,-71602l1038 -4243 3920 -1764c7054,-3174 13373,-3598 18865,-3950 3840,-252 6823,-464 7357,-2963 3729,-17344 -7246,-30142 -22513,-39464 -17233,-10531 -39887,-16971 -55457,-20901 -42497,-10733 -144161,-8445 -239777,-6299 -87293,1955 -169687,3809 -200454,-4626l-5109 -1411 -1209 -5119c-2711,-11509 -4031,-82637 -4172,-157020z"/>
 </g>
</svg>
