<?xml version="1.0" encoding="UTF-8"?>
<!DOCTYPE svg PUBLIC "-//W3C//DTD SVG 1.0//EN" "http://www.w3.org/TR/2001/REC-SVG-20010904/DTD/svg10.dtd">
<!-- Creator: CorelDRAW -->
<svg xmlns="http://www.w3.org/2000/svg" xml:space="preserve" width="10.0073mm" height="9.0876mm" version="1.0" style="shape-rendering:geometricPrecision; text-rendering:geometricPrecision; image-rendering:optimizeQuality; fill-rule:evenodd; clip-rule:evenodd"
viewBox="0 0 333107 302494"
 xmlns:xlink="http://www.w3.org/1999/xlink"
 xmlns:xodm="http://www.corel.com/coreldraw/odm/2003">
 <defs>
  <style type="text/css">
   <![CDATA[
    .fil0 {fill:#00A0E3}
   ]]>
  </style>
 </defs>
 <g id="Layer_x0020_1">
  <metadata id="CorelCorpID_0Corel-Layer"/>
  <path class="fil0" d="M225436 108900l-62202 290 10 10282 62202 20 -10 -10592zm61250 -64200l15651 1674 -123 2337 -1481 -3c1088,1824 1002,4111 869,7286 -57,1158 -133,2500 -103,3642 -63,9643 -113,16081 -3289,20305 -3146,4181 -9124,5885 -20837,5922l-2040 2643c-3681,4813 -7170,9370 -12226,13018 -4870,3515 -11138,6125 -20298,7173l80 8252c150,10156 223,15115 -3412,17808 -1684,1245 -4058,1847 -7486,2100 -3222,236 -7503,180 -13145,107l-14127 -87c-376,1768 -566,3592 -649,5436 -100,2210 -53,4464 -13,6721l33 2397 8781 -193c8235,-206 18347,-456 27421,-253 9170,203 17326,885 21533,2553l642 266 213 646c596,1877 1022,5442 1292,9933 300,4946 426,11111 399,17412 -27,6760 -233,13677 -569,19416 -320,5399 -776,9833 -1331,12226 -2104,9064 -5213,15651 -8525,20688 -3315,5046 -6814,8518 -9726,11411l-107 103c-1002,999 -1934,1927 -2749,2819l10771 -286c10595,-333 22319,-699 32974,120 10791,832 20554,2886 27128,7413l1308 742 1275 802c3562,2360 6611,5406 9137,8758 2846,3785 5033,7975 6547,12050 1428,3841 2273,7616 2523,10885 263,3435 -126,6381 -1175,8362l-503 786c-5010,5462 -27741,4540 -42037,3958l-586 -23c-3292,-133 -6095,-246 -8082,-246l-31835 110c-34655,140 -89647,373 -136984,346 -47407,-30 -87187,-320 -91311,-1218l-1265 -320 -1282 -406c-2783,-969 -5469,-2496 -7852,-4457 -2360,-1941 -4464,-4324 -6121,-7007 -1741,-2813 -3009,-5982 -3605,-9360 -553,-3132 -536,-6458 200,-9849l393 -1551 486 -1535c3002,-8651 8212,-13112 13974,-15448 5665,-2293 11797,-2500 16856,-2660l3419 -143 1634 -24346c1395,-20318 3319,-48315 4697,-71746 1321,-22482 2160,-40789 1601,-44078 -513,-306 -1681,-732 -3202,-1282 -3602,-1298 -9007,-3255 -14390,-7193 -5406,-3954 -10762,-9896 -14170,-19116 -712,-1927 -1618,-5729 -2543,-10409 -965,-4896 -1967,-10808 -2803,-16587 -752,-5219 -1375,-10345 -1718,-14533 -306,-3778 -393,-6864 -160,-8664 506,-3851 1661,-7559 3362,-10958 1718,-3435 4008,-6564 6741,-9227 2693,-2613 5835,-4797 9324,-6401 3342,-1541 7027,-2560 10945,-2926 11970,-1125 94620,-619 142386,-326l30747 156c5992,-3 11640,-170 17009,-323l696 -20c17186,-509 31732,-935 42454,3875 10878,4883 17665,14992 18983,35477l190 90 -153 945 -70 117 50 7 -639 3891zm-208832 209768l110 30 -17 659 186 263 -413 592 200 7 -310 9487 -1305 97c-8605,729 -17868,453 -27002,176l-316 -10c-6907,-203 -13767,-409 -20205,-166 -2586,97 -4810,749 -6591,1744 -1927,1075 -3365,2580 -4231,4244 -320,612 -566,1262 -726,1904 -160,646 -236,1305 -233,1947 3,642 100,1298 280,1927 180,622 446,1235 792,1801 942,1544 2543,2916 4853,3875 2144,885 4900,1425 8302,1425l190452 -57c8937,-3 18521,107 28167,213l1807 20c10762,120 21616,243 32351,233 10216,-10 20355,-150 30251,-533l-356 -1175c-250,-756 -556,-1505 -992,-2357 -639,-1248 -969,-1871 -1172,-2144l-123 -83 -746 509 -496 -942 -2177 -756 1268 -879c-842,-1388 -1814,-2646 -2919,-3765 -1335,-1355 -2883,-2523 -4640,-3488 -1814,-999 -3871,-1794 -6171,-2373 -2327,-589 -4930,-972 -7789,-1128l-177144 386 80 -1405c-1408,-326 -2650,-736 -3675,-1238 -1398,-686 -2420,-1574 -2933,-2680 -1851,-4011 -1268,-74528 -925,-116080l176 -26246c-3,-3488 -90,-6381 -160,-8874l-126 -5798c3,-5805 746,-8801 4297,-10435 3209,-1478 8681,-1544 18331,-1535 15541,7 31119,-70 46678,-140l8152 -40c13245,-63 26509,-136 39757,-136l6331 53c13624,173 23670,303 31572,-8774 1768,-2034 3195,-4447 4347,-7117 1175,-2713 2080,-5709 2793,-8858 712,-3142 1248,-6461 1678,-9826 379,-2966 682,-5958 965,-8914l-244739 20c2004,18640 4723,28433 8621,33906 3851,5402 9077,6624 16051,8245 1681,389 3468,806 5246,1275 1871,489 3851,1065 5915,1771l639 220 250 619c3362,8285 293,44467 -2713,79947l-17 183c-2280,26899 -4524,53405 -3924,66636l310 57 -656 11068c7266,-3 14952,-389 22162,156 1102,80 1548,113 1957,369 646,406 832,899 736,1488l-123 399zm139846 -177600l-18664 117c13,-4271 27,-8548 -20,-12815 6704,73 13411,220 20112,376 60,4101 43,8218 33,12323l-1461 0zm29242 91957l-102429 -3c-20,3189 -97,6298 -166,9330l-27 1052c-433,17459 -816,32864 8415,46701 1867,2796 3984,5332 6291,7583 2403,2343 5010,4400 7756,6148 4311,2746 9034,4807 13947,6165 5053,1398 10325,2064 15571,2004 5226,-60 10469,-855 15478,-2367 4893,-1475 9570,-3635 13811,-6464 2716,-1811 5279,-3918 7616,-6294 2257,-2297 4311,-4856 6091,-7653 4241,-6657 6284,-13950 7220,-21713 945,-7852 766,-16210 579,-24888l-153 -9600zm-101121 75377l-30 -30c-9550,-10122 -12755,-13524 -17905,-35676l-256 7c-1468,-11188 -2467,-29991 17,-41049 -83,-3432 -53,-6155 320,-8328 406,-2383 1228,-4151 2716,-5459 3708,-3262 11121,-3069 26865,-2653l246 7c7606,193 17216,446 29265,409l-13 -14550 -31679 -23c-10592,-1088 -10072,-10555 -9450,-21436l27 -486c110,-1964 226,-3988 266,-5955l-25634 -83 -20 135912c290,206 503,569 629,1148 73,666 -136,1272 -273,1931l28769 436 -3861 -4121zm138202 -185968l-2157 14639 586 17c1628,60 3032,113 3984,-286 832,-350 1468,-1168 1844,-2886 330,-1538 250,-5812 190,-9077l-30 -2147 -686 -260 -3731 0zm-244805 -40247c-5452,796 -10206,2347 -13328,5196 -2863,2610 -4387,6408 -3865,11860l247841 7c-589,-8232 -4247,-12792 -9696,-15239 -5908,-2653 -13987,-2949 -22611,-2729l-7593 283c-4034,166 -8102,340 -11970,340l-144952 0c-2560,0 -5512,-103 -8605,-206l-865 -30c-7922,-276 -16810,-586 -24356,519z"/>
 </g>
</svg>
