<?xml version="1.0" encoding="UTF-8"?>
<!DOCTYPE svg PUBLIC "-//W3C//DTD SVG 1.0//EN" "http://www.w3.org/TR/2001/REC-SVG-20010904/DTD/svg10.dtd">
<!-- Creator: CorelDRAW -->
<svg xmlns="http://www.w3.org/2000/svg" xml:space="preserve" width="10.5001mm" height="8.1167mm" version="1.0" style="shape-rendering:geometricPrecision; text-rendering:geometricPrecision; image-rendering:optimizeQuality; fill-rule:evenodd; clip-rule:evenodd"
viewBox="0 0 158473 122501"
 xmlns:xlink="http://www.w3.org/1999/xlink"
 xmlns:xodm="http://www.corel.com/coreldraw/odm/2003">
 <defs>
  <style type="text/css">
   <![CDATA[
    .fil0 {fill:#00A0E3}
   ]]>
  </style>
 </defs>
 <g id="Layer_x0020_1">
  <metadata id="CorelCorpID_0Corel-Layer"/>
  <path class="fil0" d="M65302 45462c509,-595 1213,-1001 2021,-1180 1954,-439 2976,590 3749,1381 306,251 687,669 987,960 1456,1373 2954,2789 2920,4562 -18,951 -444,1899 -1135,2561 -311,300 -681,549 -1090,718 -415,172 -878,266 -1370,257 -990,-20 -2080,-462 -3117,-1541 -365,-380 -687,-685 -1004,-983 -1459,-1372 -2899,-2735 -2807,-4567 44,-862 350,-1595 845,-2169zm12993 -12957c471,-617 1135,-1066 1878,-1278 2092,-602 3056,382 3950,1301l1041 1011c1426,1345 2899,2736 2913,4410 6,749 -210,1459 -586,2044 -385,601 -945,1084 -1610,1358 -670,275 -1440,352 -2244,145 -753,-187 -1539,-632 -2280,-1396l-907 -886c-1440,-1375 -2916,-2783 -2887,-4573 14,-823 288,-1555 733,-2136zm-9828 3231c439,-555 1034,-943 1725,-1186 2457,-869 4386,1268 5518,2523l377 411 7167 7172c685,684 1118,1385 1348,2054 244,720 263,1410 115,2025 -151,637 -475,1188 -904,1622 -394,392 -875,690 -1393,868 -2356,801 -3515,-447 -5041,-2089l-761 -801 -7468 -7463c-730,-687 -1535,-1459 -1413,-3174 57,-791 315,-1441 729,-1962zm53646 51031c919,-714 1666,-1604 2163,-2575l-14163 11c465,925 1203,1782 2107,2486 1414,1097 3212,1799 4999,1796 1835,-3 3545,-670 4895,-1718zm-11673 -10358l-300 515 14152 -3c-157,-303 -344,-605 -560,-901 -761,-1047 -1870,-1989 -3188,-2613 -1301,-613 -2810,-912 -4393,-682 -1269,184 -2603,711 -3933,1684 -578,424 -1254,1167 -1778,2000zm-5160 -5380c2537,-3111 6312,-5136 10458,-5599 3046,-343 5986,306 8506,1625 2671,1399 4881,3563 6256,6106 1016,1882 1603,3849 1805,5796 323,3073 -308,6109 -1684,8730 -1379,2623 -3512,4843 -6188,6289 -1659,896 -3533,1497 -5566,1710 -4338,454 -8215,-857 -11158,-3221 -3129,-2516 -5196,-6230 -5628,-10281 -469,-4402 827,-8250 3200,-11155zm-8739 -49778c-1130,104 -2240,391 -3257,854 3677,3569 7275,7204 10900,10829 4279,4326 8653,8656 13023,12981 5691,5637 11387,11279 16956,16975 349,355 724,638 1105,842 673,359 1396,506 2077,432 646,-71 1263,-349 1763,-836 252,-254 478,-549 657,-884 273,-509 392,-1132 368,-1745 -21,-587 -184,-1146 -472,-1555 -486,-687 -17550,-17697 -26901,-27017 -2184,-2179 -4392,-4341 -6541,-6555 -1459,-1518 -2972,-3091 -5670,-3921 -1278,-392 -2658,-524 -4007,-400zm-3974 -6623c969,-288 1983,-491 3174,-620 8535,-942 12948,3589 17624,8396l2041 2065 26684 26655c749,723 1488,1435 2207,2219 2555,2786 3423,5925 3091,8802 -146,1284 -534,2511 -1111,3624 -575,1103 -1351,2113 -2280,2966 -2142,1965 -5103,3088 -8348,2715 -4019,-462 -6553,-3139 -8518,-5217 -328,-352 -640,-685 -999,-1032l-10862 -10858 -1794 -1840 -1791 -1722c-8500,-8530 -16934,-17199 -25549,-25607 -1401,-1339 -3486,-3332 -1081,-6060 480,-545 1257,-1191 2086,-1782 863,-617 1826,-1206 2582,-1571 973,-469 1881,-844 2846,-1130zm-53559 96838c-943,925 -2205,2164 -3061,3046 1520,803 2875,1287 6125,-687 1053,-638 2019,-1470 2975,-2291l821 -756 1155 -1271c288,-317 580,-643 883,-1014 1680,-2056 4022,-5456 5500,-8865 564,-1299 999,-2594 1218,-3797 -4964,5290 -10430,10522 -15615,15636zm-8465 -2374l190 412c1532,-1473 4697,-4618 8108,-8034 3901,-3906 8094,-8130 10530,-10604 -1330,252 -2683,702 -4000,1265 -3529,1511 -6745,3823 -8577,5379l-134 112c-958,815 -2057,1749 -2795,2679l-712 872c-1422,1722 -3040,3683 -3000,6064 11,647 157,1292 391,1855zm-13746 -21256c-933,916 -2723,2667 -3823,3811 640,371 1331,666 2433,638 2483,-65 4760,-2021 6620,-3618l263 -226c2194,-1881 5113,-5639 7149,-9649 980,-1929 1745,-3898 2110,-5709 -4801,4934 -9804,9966 -14751,14753zm-9093 -5589c-557,1529 -652,3071 89,4380 6186,-6256 12358,-12663 18692,-18754 -1295,232 -2617,670 -3904,1224 -3637,1565 -6943,4036 -8680,5518l-299 281c-143,149 -275,284 -578,512 -574,439 -1177,967 -1760,1556 -1469,1479 -2863,3373 -3560,5284zm44613 -46363c-685,628 -1702,1555 -1559,2365 57,317 2232,2422 3966,4099 842,817 1591,1541 2003,1989 1953,2128 4369,4472 6761,6795 2166,2101 4316,4190 6075,6057 1037,1102 2068,2096 3086,3082 1082,1046 2160,2086 3307,3320l13132 13179c2225,2255 4632,4691 6115,6043 7824,7825 15705,15624 23476,23499 324,300 540,512 844,838 733,820 1402,518 2031,-47 388,-353 729,-717 1061,-1072l752 -788 18023 -17977c3284,-3195 6689,-6505 8610,-12373 1082,-3307 1354,-6858 963,-10243 -411,-3566 -1559,-6946 -3258,-9667 -687,-1097 -1743,-2459 -2880,-3773 -1232,-1423 -2567,-2804 -3640,-3758 -3892,-3892 -8461,-8079 -12100,-12101 -171,-193 -303,-309 -450,-433 -2173,-1555 -5731,-5732 -7866,-7866 -127,-148 -251,-293 -421,-442 -1728,-1547 -3767,-3610 -5364,-5359 -1763,-1669 -3482,-3446 -5199,-5165 -2108,-2391 -4587,-4406 -7352,-5895 -2632,-1419 -5536,-2374 -8643,-2742 -4762,-566 -8808,199 -12328,1793 -3557,1610 -6612,4076 -9342,6876 -6411,6446 -12856,12859 -19288,19285l-516 481zm-9819 15995c1933,-1879 3882,-3775 5732,-5708l-741 -690c-1536,-1395 -3559,-3231 -3981,-6330 -602,-4393 2004,-6857 3920,-8665l605 -580c6291,-6295 12607,-12568 18878,-18881 1970,-1980 3901,-3917 6580,-5700 4517,-3005 9703,-4808 15064,-5230 5190,-409 10556,475 15648,2810 3397,1555 4676,2594 6869,4378l845 684c960,774 1776,1604 2599,2443l6890 6944 3089 3050c4929,4792 9958,9867 14952,14910 3331,3361 6651,6713 9896,9938 999,993 1977,2172 2869,3399 986,1358 1891,2809 2625,4153 785,1438 1465,2996 2016,4635 536,1591 952,3274 1227,5011 596,3746 489,7430 -172,10889 -706,3699 -2053,7163 -3858,10189 -2416,4054 -6825,8340 -10459,11875l-1509 1473c-3028,2976 -5972,5939 -8936,8921l-3471 3491 -800 842c-1686,1811 -4069,4374 -7163,4808 -4433,623 -6855,-1923 -8739,-3903l-554 -580c-3384,-3441 -6943,-6949 -10503,-10458 -4902,-4830 -9816,-9673 -14326,-14400 -1814,-1902 -3686,-3720 -5571,-5554 -1951,-1897 -3846,-3870 -5759,-5809 -1253,1174 -3275,3224 -4965,4940 -3071,3089 -6137,6223 -9259,9252 -303,291 -622,593 -869,863 833,2680 1177,3936 617,7457 -177,1117 -483,2318 -851,3467 -404,1262 -892,2483 -1375,3483 -1817,3773 -4781,8373 -8378,12056 -2889,2955 -6208,5347 -9717,6310 -3091,850 -5877,362 -8230,-684 -2299,-1020 -4155,-2560 -5463,-3885 -650,-663 -1236,-1330 -1752,-1995 -3011,-3889 -3642,-7738 -2750,-11386 863,-3539 3177,-6823 6119,-9733 1245,-1236 2631,-2424 4080,-3544 2267,-1754 4973,-3524 7832,-4890 2425,-1153 4974,-2037 7480,-2398 3708,-536 5005,-94 6429,392l832 269c1585,-1506 4612,-4593 7608,-7643 2943,-3002 5863,-5975 7457,-7483 -598,-623 -1509,-1502 -2323,-2287 -700,-675 -1339,-1290 -1705,-1680l-12210 -12207 -1509 -1564 -9786 9706c-1874,1847 -4146,4087 -5296,5350 824,2597 1179,4022 598,7468 -184,1097 -495,2273 -857,3402 -407,1260 -893,2480 -1364,3486 -1730,3687 -4751,8316 -8381,12026 -2934,3002 -6292,5427 -9735,6346 -2167,578 -4399,474 -6532,-139 -2699,-777 -5234,-2380 -7263,-4448 -2033,-2074 -3581,-4635 -4298,-7318 -558,-2104 -614,-4292 -8,-6401 543,-1887 1562,-3788 2801,-5539 1431,-2028 3172,-3880 4799,-5276 1739,-1491 3314,-2783 5015,-3951 1725,-1188 3572,-2250 5826,-3272 1076,-487 2299,-970 3568,-1369 1091,-343 2243,-629 3391,-810 3417,-539 4725,-137 7133,604l145 45c3121,-3138 6217,-6295 9386,-9382z"/>
 </g>
</svg>
