<?xml version="1.0" encoding="UTF-8"?>
<!DOCTYPE svg PUBLIC "-//W3C//DTD SVG 1.0//EN" "http://www.w3.org/TR/2001/REC-SVG-20010904/DTD/svg10.dtd">
<!-- Creator: CorelDRAW -->
<svg xmlns="http://www.w3.org/2000/svg" xml:space="preserve" width="8.2283mm" height="8.205mm" version="1.0" style="shape-rendering:geometricPrecision; text-rendering:geometricPrecision; image-rendering:optimizeQuality; fill-rule:evenodd; clip-rule:evenodd"
viewBox="0 0 60535 60364"
 xmlns:xlink="http://www.w3.org/1999/xlink"
 xmlns:xodm="http://www.corel.com/coreldraw/odm/2003">
 <defs>
  <style type="text/css">
   <![CDATA[
    .fil0 {fill:#00A0E3}
   ]]>
  </style>
 </defs>
 <g id="Layer_x0020_1">
  <metadata id="CorelCorpID_0Corel-Layer"/>
  <path class="fil0" d="M48992 55596l-6340 51 -2 40c-21,374 -29,522 341,569 372,49 1221,24 1938,2l896 -22 1630 18c969,15 1471,24 1616,-50 58,-30 -67,-167 -78,-572l-1 -37zm-7056 -7842l-92 29c-529,162 -856,239 -1209,239 -352,0 -673,-78 -1199,-223l-154 -43 -136 0 0 -38 -184 -51 -51 -26487c558,-44 1713,-213 2164,-154 299,40 516,99 675,169l425 -15 -1 415 0 65c65,135 132,336 170,640 110,870 141,4257 133,8265 -13,7175 -151,16399 -178,16665l-45 426 -132 40 0 57 -188 0zm-7209 -26370l52 216c186,778 277,5869 291,11327 16,6281 -63,13090 -210,14355l-66 567 -3222 30 -52 -596c-19,-224 -182,-10704 -132,-18136 22,-3464 107,-6308 298,-7266l-1 -637 561 24 664 -213 68 -6c299,-24 677,8 995,35l695 58 55 230 3 0 0 13zm-2738 -12594c-7,953 -241,1868 -881,2589l-329 371 -2591 -1279 168 -529c424,-1338 188,-2401 -75,-3577 -330,-1477 -697,-3118 -83,-5643l172 -705 3036 1112 -96 536c-397,2203 -313,2497 224,4377l42 146c230,803 419,1716 413,2601zm-8313 77c-46,812 -258,1570 -636,2409l-276 612 -2810 -1393 168 -529c439,-1382 169,-2445 -124,-3591 -376,-1474 -784,-3074 -53,-5605l179 -619 2874 828 -7 491c-10,795 -49,1290 -79,1684 -68,903 -93,1241 416,3083 276,1000 394,1833 349,2632zm-8695 -3008c376,1450 733,2828 -177,5368l-249 695 -2787 -1434 98 -481c341,-1662 79,-2749 -185,-3851 -344,-1430 -694,-2887 -7,-5451l182 -676 3072 1084 -121 557c-415,1912 -113,3075 174,4188zm24850 139c361,1563 686,2970 -219,5222l-216 536 -555 -153c-396,-109 -762,-259 -1090,-440 -347,-191 -662,-421 -937,-678l-346 -324 204 -427c511,-1073 288,-1770 -3,-2678 -423,-1315 -962,-2998 -206,-6337l163 -720 3043 1116 -89 530c-317,1883 -21,3169 252,4352zm10287 19033c-339,-264 -824,-335 -1372,-13 -564,331 -786,808 -767,1254 9,202 66,403 159,581 94,180 227,341 386,464 355,274 867,369 1440,108 558,-255 774,-745 747,-1226 -13,-224 -79,-453 -183,-659 -102,-203 -242,-380 -409,-511zm-5340 273c296,-1594 1442,-3049 3641,-3595 1240,-309 2394,-60 3322,497 1054,633 1820,1677 2100,2763 19,46 37,142 48,194 286,1316 22,2556 -580,3535 -605,984 -1559,1708 -2645,1988l-150 38c-2172,470 -3870,-364 -4859,-1698 -394,-530 -675,-1140 -825,-1772 -150,-635 -173,-1303 -52,-1950zm5311 11327c-308,-244 -755,-303 -1285,4 -603,351 -837,811 -821,1235 7,193 63,383 155,556 94,177 230,338 394,466 374,293 908,402 1459,148 512,-236 706,-744 669,-1246 -17,-230 -81,-461 -183,-666 -98,-200 -230,-374 -388,-497zm-1967 5676c-1598,-385 -2984,-1576 -3333,-3653 -220,-1312 82,-2495 694,-3418 677,-1023 1736,-1728 2885,-1950l259 -43c1306,-184 2518,157 3458,817 947,664 1619,1658 1832,2768l34 203c313,2228 -644,3821 -2050,4685 -554,343 -1184,566 -1835,667 -644,100 -1310,76 -1942,-76zm-21403 5468l-2512 76c-29,-8912 -65,-17823 -85,-26735l3228 80c-10,8853 -2,17707 -2,26559l-629 19zm-7439 46l-2551 1c-30,-8897 -64,-17794 -84,-26691l3283 7c-10,8894 -1,17788 -1,26682l-647 1zm-7481 1l-2558 -1 -77 -26689 3289 3c-10,8895 -7,17792 -7,26687l-647 0zm6066 7776l-6291 51c72,584 273,714 656,714 198,0 489,-22 819,-46 463,-35 1012,-76 1650,-76l1647 18c965,14 1465,22 1605,-49 64,-32 -73,-154 -83,-536l-2 -74zm-13669 -22128c-99,5793 -271,15694 278,17829 2050,217 11810,293 22326,280 13536,-15 28243,-162 29301,-333 527,-805 347,-10316 265,-14637l-32 -1921c0,-631 21,-1862 44,-3321 75,-4533 188,-11411 -199,-13613 -3167,-505 -25841,-355 -39608,-263 -4224,28 -7614,51 -9354,46 -406,-1 -758,-18 -1079,-32 -1192,-54 -1869,-83 -1907,1257 -67,2366 -40,4823 -14,7258 15,1391 30,2780 30,3842 0,622 -24,1958 -51,3607zm-2851 20449c-510,-616 -864,-1371 -1055,-2195 -430,-1956 -282,-8971 -178,-13919 35,-1660 65,-3084 65,-4082 0,-657 -15,-1508 -35,-2546 -89,-4924 -253,-13922 677,-15458 1440,-2375 3763,-2348 6608,-2315l46360 6c5841,-20 6731,2074 6747,6573 3,809 -24,1688 -54,2648 -33,1065 -70,2239 -70,3612l0 18097c0,489 13,992 28,1544 63,2404 152,5757 -575,7152 -1203,2312 -2838,2359 -5020,2420 -548,15 -1137,33 -1764,95l-21 296c-125,1846 -290,4238 -3800,4457 -732,46 -2958,80 -4830,49 -1303,-22 -2456,-81 -2875,-198 -1382,-367 -2131,-988 -2540,-1919 -317,-722 -394,-1591 -405,-2665 -1660,-88 -5826,-133 -9656,-117 -3040,13 -5852,63 -6985,156 -147,4733 -2271,4722 -6409,4698l-1771 1c-4278,24 -6181,34 -6302,-4741 -397,-18 -804,-14 -1208,-10 -1044,10 -2083,21 -3036,-314 -772,-271 -1408,-733 -1898,-1326z"/>
 </g>
</svg>
