<?xml version="1.0" encoding="UTF-8"?>
<!DOCTYPE svg PUBLIC "-//W3C//DTD SVG 1.0//EN" "http://www.w3.org/TR/2001/REC-SVG-20010904/DTD/svg10.dtd">
<!-- Creator: CorelDRAW -->
<svg xmlns="http://www.w3.org/2000/svg" xml:space="preserve" width="9.176mm" height="9.2238mm" version="1.0" style="shape-rendering:geometricPrecision; text-rendering:geometricPrecision; image-rendering:optimizeQuality; fill-rule:evenodd; clip-rule:evenodd"
viewBox="0 0 55799 56090"
 xmlns:xlink="http://www.w3.org/1999/xlink"
 xmlns:xodm="http://www.corel.com/coreldraw/odm/2003">
 <defs>
  <style type="text/css">
   <![CDATA[
    .fil0 {fill:#00A0E3;fill-rule:nonzero}
   ]]>
  </style>
 </defs>
 <g id="Layer_x0020_1">
  <metadata id="CorelCorpID_0Corel-Layer"/>
  <path class="fil0" d="M18074 48763l59 74c507,723 1014,1447 1002,2193 -9,542 -249,895 -503,1264l-5 5c-94,139 -192,282 -247,406 -31,70 -57,151 -75,235 -20,93 -32,187 -35,274 -3,99 2,194 16,280 12,78 33,154 60,224 46,120 122,224 201,310 89,97 185,173 253,226l552 422 -640 1319 -698 -533c-109,-84 -275,-212 -450,-400 -183,-195 -369,-452 -497,-782 -64,-166 -113,-348 -143,-538 -29,-187 -41,-380 -36,-569 5,-187 29,-379 69,-566 38,-179 96,-358 172,-529 111,-249 245,-445 375,-634l9 -13c122,-179 240,-350 240,-423 1,-103 -74,-272 -185,-471 -137,-241 -325,-511 -514,-780l-336 -336 960 -1054 396 397zm27053 -10737c333,0 651,83 939,234 276,146 524,351 730,601l31 38c206,259 372,566 483,904 106,321 164,672 164,1037 0,365 -58,716 -164,1037 -111,338 -277,646 -483,904l-27 33c-209,253 -456,459 -734,604 -288,152 -606,235 -939,235 -330,0 -647,-83 -936,-234 -277,-143 -525,-350 -733,-601l-30 -37c-206,-260 -372,-567 -483,-905 -105,-324 -165,-674 -165,-1036 0,-362 60,-712 167,-1036 109,-338 275,-646 482,-905l32 -39c207,-251 454,-457 731,-600 289,-150 606,-234 936,-234zm195 2375c-33,-41 -71,-74 -108,-93 -26,-13 -56,-21 -87,-21 -31,0 -61,8 -87,21 -36,19 -74,52 -107,93 -40,50 -74,115 -97,185 -24,74 -38,160 -38,252 0,92 14,178 38,252 23,71 57,135 97,185 33,41 70,74 107,93 26,13 56,21 87,21 31,0 61,-8 87,-21 37,-19 75,-52 108,-93 40,-50 74,-115 97,-186 24,-74 38,-159 38,-252 0,-92 -14,-178 -38,-252 -23,-71 -58,-136 -97,-186zm-7419 2588l0 -5115 2018 0 0 5651 -2018 0 0 -536zm-4465 0l0 -5115 2018 0 0 5651 -2018 0 0 -536zm19440 -5919l-50080 21 102 6904 50039 -49 -61 -6877zm-34283 -10609c-690,1199 -1397,2428 -1910,3605l21507 -7c-482,-1038 -1419,-2855 -2338,-4528 -845,-1538 -1661,-2935 -2060,-3443l-13031 24c-427,1324 -1284,2814 -2168,4349zm22311 1387l-658 0c165,337 344,640 517,936 611,1040 1173,1998 1087,3816l-24 511 -28808 -120 -18 -515c-54,-1581 370,-2299 859,-3125 185,-313 382,-646 558,-1062 -846,-4 -1560,-17 -2170,-29 -1745,-33 -2609,-50 -3197,226 -562,263 -1030,882 -1952,2105 -461,611 -1033,1368 -1808,2331l-396 479c-203,241 -296,350 -409,588l46882 -1c-175,-416 -293,-525 -637,-838l-550 -514c-1767,-1707 -2415,-2849 -2845,-3608 -266,-471 -431,-759 -744,-898 -645,-286 -2058,-285 -5686,-283zm-7507 -24707l-11837 -40 -109 15556 11936 111 11 -15627zm-21850 21982c1135,75 2577,173 4540,-19 2782,-4155 2771,-5415 2738,-8842l-9 -1256c-1,-961 -22,-2175 -44,-3491 -64,-3813 -143,-8512 187,-10888l64 -456 16824 -170 78 449c360,2066 283,7089 227,10816 -16,1088 -32,2060 -32,2949l-2 833c-2,3039 -4,4369 225,5328 170,716 490,1277 1058,2272 300,527 670,1172 1127,2036 864,16 1888,-19 2936,-55 1892,-64 3869,-132 5258,89 1513,241 3127,2483 4279,4083 276,384 526,731 725,983 347,439 747,907 1141,1368 1368,1599 2688,3143 2817,4788 61,785 188,4327 56,7059 -81,1678 -282,3098 -690,3540l-17 17c-973,967 -26479,708 -38156,590 -2407,-24 -4173,-43 -5211,-43 -2215,-2 -4003,48 -5435,88 -2838,78 -4329,119 -5197,-369 -1101,-618 -1070,-1743 -1003,-4107 18,-645 40,-1399 40,-2364 0,-640 -20,-1184 -38,-1691 -72,-1977 -127,-3484 922,-4839 853,-1101 1703,-2137 2553,-3175 933,-1138 1869,-2279 2822,-3525 1710,-2234 2886,-2156 5215,-1999zm19240 23735l59 72c238,339 477,679 662,1023 209,390 347,781 341,1172 -9,542 -249,893 -500,1262l-153 227 -102 186c-31,70 -57,151 -75,235 -20,94 -32,188 -35,275 -3,99 2,194 16,280 12,78 33,154 60,224 102,265 354,459 480,555l525 402 -640 1320 -698 -533c-109,-83 -275,-211 -451,-400 -182,-196 -369,-454 -496,-781 -64,-168 -113,-350 -143,-540 -29,-187 -41,-380 -36,-569 5,-187 29,-379 69,-566 38,-179 95,-359 172,-530 111,-249 246,-445 375,-633l9 -13c122,-179 240,-350 240,-423 4,-248 -364,-773 -730,-1296l-241 -360 896 -986 398 398zm-19625 -95l59 74c507,723 1014,1447 1002,2193 -9,530 -239,879 -486,1240l-165 247 -105 189c-31,70 -57,151 -75,235 -20,94 -32,187 -35,274 -2,98 2,193 16,280 12,78 32,155 59,224 103,265 353,457 479,553l528 404 -640 1319 -698 -533c-109,-84 -275,-212 -450,-400 -183,-195 -369,-452 -497,-782 -64,-165 -113,-348 -143,-537 -29,-188 -41,-381 -36,-570 5,-187 29,-379 69,-566 38,-179 96,-358 172,-529 57,-127 122,-245 190,-356l190 -288c123,-180 242,-353 243,-426 4,-248 -364,-772 -731,-1296l-241 -361 898 -985 396 397zm33476 130l30 38c507,722 1014,1446 1002,2195 -9,539 -246,890 -498,1257l-153 230 -105 191c-32,69 -57,149 -75,233 -20,93 -32,187 -35,274 -3,99 2,194 16,280 12,78 33,154 60,224 46,120 122,224 201,310 89,97 185,174 253,226l552 421 -639 1320 -738 -562c-243,-187 -669,-539 -908,-1151 -64,-167 -113,-350 -143,-539 -29,-188 -41,-381 -36,-570 5,-187 29,-379 69,-566 38,-179 95,-359 172,-530 57,-127 123,-246 191,-355l190 -287c125,-183 242,-355 243,-427 4,-247 -364,-772 -731,-1295l-246 -350 924 -1048 403 484zm-19656 -133l62 75c507,722 1014,1446 1002,2195 -9,542 -249,893 -501,1262l-150 225 -104 189c-31,70 -57,151 -75,235 -20,93 -32,187 -35,274 -2,97 2,193 16,279 12,78 33,156 60,225 46,119 122,224 201,310 89,97 185,173 253,226l552 423 -640 1318 -724 -553c-238,-182 -677,-534 -920,-1160 -64,-164 -113,-347 -143,-539 -30,-185 -43,-378 -37,-570 5,-192 29,-385 68,-566 40,-180 98,-359 174,-529 57,-127 122,-245 190,-356l190 -287c125,-184 242,-355 243,-430 0,-103 -74,-271 -185,-468 -136,-241 -342,-534 -546,-825l-246 -351 891 -1007 406 406zm12716 99l59 72c238,339 477,679 662,1023 209,389 347,781 341,1172 -9,542 -249,893 -501,1262l-153 227 -102 186c-31,70 -57,151 -75,235 -20,94 -32,188 -35,275 -2,97 3,193 16,280 13,81 33,157 58,224 48,120 125,224 202,309 89,97 185,174 253,226l551 421 -640 1320 -737 -563c-243,-187 -668,-538 -907,-1151 -64,-164 -113,-347 -143,-539 -30,-185 -43,-378 -37,-570 5,-192 29,-385 68,-566 39,-179 98,-359 174,-530 57,-127 123,-246 191,-355l189 -287c125,-184 242,-355 243,-430 4,-246 -364,-770 -731,-1293l-241 -360 896 -986 398 398z"/>
 </g>
</svg>
