<?xml version="1.0" encoding="UTF-8"?>
<!DOCTYPE svg PUBLIC "-//W3C//DTD SVG 1.0//EN" "http://www.w3.org/TR/2001/REC-SVG-20010904/DTD/svg10.dtd">
<!-- Creator: CorelDRAW -->
<svg xmlns="http://www.w3.org/2000/svg" xml:space="preserve" width="10.8335mm" height="5.2mm" version="1.0" style="shape-rendering:geometricPrecision; text-rendering:geometricPrecision; image-rendering:optimizeQuality; fill-rule:evenodd; clip-rule:evenodd"
viewBox="0 0 62020 29769"
 xmlns:xlink="http://www.w3.org/1999/xlink"
 xmlns:xodm="http://www.corel.com/coreldraw/odm/2003">
 <defs>
  <style type="text/css">
   <![CDATA[
    .fil0 {fill:#00A0E3}
   ]]>
  </style>
 </defs>
 <g id="Layer_x0020_1">
  <metadata id="CorelCorpID_0Corel-Layer"/>
  <path class="fil0" d="M13430 27308c13,93 19,187 19,282l0 41c0,587 -242,1122 -629,1510 -386,388 -921,629 -1510,629l-4250 0c-587,0 -1121,-241 -1508,-628 -389,-390 -630,-924 -630,-1511l0 -41c0,-94 7,-189 19,-282l-649 0c-1178,0 -2252,-483 -3030,-1261 -780,-780 -1263,-1854 -1263,-3032l0 -18722c0,-1180 483,-2255 1261,-3032 779,-777 1853,-1261 3032,-1261l53434 0c1180,0 2255,483 3032,1261 777,777 1261,1852 1261,3032l0 18722c0,1168 -475,2233 -1239,3008 -593,601 -1361,1029 -2220,1200 17,109 26,220 26,334l0 40c0,589 -241,1124 -628,1511 -387,387 -922,628 -1511,628l-4250 0c-588,0 -1124,-241 -1511,-628 -387,-387 -628,-922 -628,-1511l15 -290 -36644 0zm35599 -18458c1259,0 2402,508 3230,1329 828,821 1341,1956 1341,3208 0,1251 -513,2386 -1341,3208 -828,821 -1970,1329 -3230,1329 -1259,0 -2402,-508 -3230,-1329 -828,-822 -1341,-1957 -1341,-3208 0,-1252 514,-2387 1341,-3208 828,-821 1970,-1329 3230,-1329zm5732 -1139c-1464,-1452 -3492,-2351 -5731,-2351 -2240,0 -4267,899 -5732,2351 -1464,1451 -2371,3458 -2371,5676 0,2217 906,4224 2371,5676 1466,1452 3492,2351 5732,2351 2240,0 4266,-899 5731,-2351 1464,-1451 2371,-3458 2371,-5676 0,-2217 -906,-4224 -2371,-5676zm-46880 -2291l-240 0c-165,0 -317,69 -425,177 -109,109 -177,260 -177,425l0 14941c0,165 69,316 177,425 109,109 260,177 425,177l240 0c165,0 317,-69 425,-177 109,-109 177,-260 177,-425l0 -14941c0,-165 -69,-317 -177,-425 -109,-109 -260,-177 -425,-177zm4533 0l-241 0c-165,0 -316,69 -425,177 -109,109 -177,260 -177,425l0 14941c0,165 69,316 177,425 109,109 260,177 425,177l241 0c165,0 316,-69 425,-177 109,-109 177,-260 177,-425l0 -14941c0,-165 -69,-317 -177,-425 -109,-109 -260,-177 -425,-177zm4533 0l-240 0c-165,0 -316,69 -425,177 -109,109 -177,260 -177,425l0 14941c0,165 69,316 177,425 109,109 260,177 425,177l240 0c165,0 317,-69 425,-177 109,-109 177,-260 177,-425l0 -14941c0,-165 -69,-317 -177,-425 -109,-109 -260,-177 -425,-177z"/>
 </g>
</svg>
