<?xml version="1.0" encoding="UTF-8"?>
<!DOCTYPE svg PUBLIC "-//W3C//DTD SVG 1.0//EN" "http://www.w3.org/TR/2001/REC-SVG-20010904/DTD/svg10.dtd">
<!-- Creator: CorelDRAW -->
<svg xmlns="http://www.w3.org/2000/svg" xml:space="preserve" width="10.0001mm" height="4.8563mm" version="1.0" style="shape-rendering:geometricPrecision; text-rendering:geometricPrecision; image-rendering:optimizeQuality; fill-rule:evenodd; clip-rule:evenodd"
viewBox="0 0 43466 21108"
 xmlns:xlink="http://www.w3.org/1999/xlink"
 xmlns:xodm="http://www.corel.com/coreldraw/odm/2003">
 <defs>
  <style type="text/css">
   <![CDATA[
    .fil0 {fill:#00A0E3}
   ]]>
  </style>
 </defs>
 <g id="Layer_x0020_1">
  <metadata id="CorelCorpID_0Corel-Layer"/>
  <path class="fil0" d="M28014 19820c271,1482 1936,1275 3364,1275l9104 0c998,0 2931,263 2979,-1602 33,-1339 -132,-3100 -204,-4477l-589 -13031c-63,-2120 -1373,-1979 -2600,-1984l-9106 3c-1717,-5 -2157,585 -2202,2301 -74,2913 -276,5882 -408,8828 -65,1433 -129,2859 -191,4300 -41,959 -291,3607 -148,4388zm4569 -5380c-711,-4311 5530,-5193 6279,-1207 369,1962 -977,3445 -2536,3750 -1933,378 -3491,-1015 -3743,-2543zm7697 -83c259,-2569 -1535,-4778 -4016,-5070 -2676,-314 -4836,1688 -5094,4018 -294,2665 1660,4844 4027,5094 2648,279 4845,-1673 5083,-4042zm-4885 -10521c1084,-266 1797,484 2010,1270 289,1061 -500,1914 -1251,2109 -2162,561 -3198,-2779 -759,-3379zm-314 -1366c-1526,309 -2804,1868 -2413,3730 818,3894 6933,2823 6114,-1319 -294,-1488 -1841,-2787 -3701,-2411zm-17267 16931c-136,-314 -101,-776 -115,-1196l8314 3c-14,410 23,877 -112,1188 -377,126 -7696,128 -8087,4zm-75 -2579c-150,-1068 -32,-3113 -32,-4286 0,-3552 -305,-3319 1008,-3320 1463,-1 6746,-101 7233,82 105,1386 104,6120 34,7531l-8244 -7zm-1407 2418c108,2142 2911,1605 4370,1605 1089,0 5119,180 5790,-192 308,-170 604,-479 749,-830 263,-635 141,-3515 141,-4308 -1,-7913 887,-7698 -4363,-7680 -1102,3 -5115,-186 -5810,218 -750,437 -880,1058 -882,2165 -3,2619 -112,6729 4,9022zm3664 -7573l3735 -30 -9 1865 -3742 43 17 -1879zm-858 -1399c-797,197 -535,1599 -539,2268 -4,752 -232,2148 485,2354 219,63 5330,65 5550,4 731,-203 472,-1580 472,-2275 0,-1044 203,-2175 -483,-2338 -179,-43 -5334,-49 -5485,-12zm-19094 9551c271,1482 1937,1275 3364,1275l9104 0c998,0 2931,263 2979,-1602 34,-1339 -132,-3100 -203,-4477l-589 -13031c-62,-2120 -1373,-1979 -2600,-1984l-9106 3c-1717,-5 -2157,585 -2201,2301 -75,2913 -276,5882 -409,8828 -64,1433 -129,2859 -191,4300 -41,959 -290,3607 -148,4388zm4569 -5380c-710,-4311 5530,-5193 6279,-1207 369,1962 -977,3445 -2536,3750 -1933,378 -3492,-1015 -3744,-2543zm7697 -83c259,-2569 -1535,-4778 -4016,-5070 -2676,-314 -4836,1688 -5093,4018 -295,2665 1660,4844 4026,5094 2649,279 4845,-1673 5083,-4042zm-4885 -10521c1083,-266 1797,484 2011,1270 289,1061 -500,1914 -1251,2109 -2162,561 -3199,-2779 -760,-3379zm-314 -1366c-1526,309 -2804,1868 -2413,3730 819,3894 6934,2823 6115,-1319 -295,-1488 -1841,-2787 -3701,-2411z"/>
 </g>
</svg>
