<?xml version="1.0" encoding="UTF-8"?>
<!DOCTYPE svg PUBLIC "-//W3C//DTD SVG 1.0//EN" "http://www.w3.org/TR/2001/REC-SVG-20010904/DTD/svg10.dtd">
<!-- Creator: CorelDRAW -->
<svg xmlns="http://www.w3.org/2000/svg" xml:space="preserve" width="6.0903mm" height="10.2429mm" version="1.0" style="shape-rendering:geometricPrecision; text-rendering:geometricPrecision; image-rendering:optimizeQuality; fill-rule:evenodd; clip-rule:evenodd"
viewBox="0 0 13697 23037"
 xmlns:xlink="http://www.w3.org/1999/xlink"
 xmlns:xodm="http://www.corel.com/coreldraw/odm/2003">
 <defs>
  <style type="text/css">
   <![CDATA[
    .fil0 {fill:#00A0E3}
   ]]>
  </style>
 </defs>
 <g id="Layer_x0020_1">
  <metadata id="CorelCorpID_0Corel-Layer"/>
  <path class="fil0" d="M10400 4098c-40,-93 -83,-187 -128,-280l-141 -280c-182,-354 -386,-617 -603,-898l-159 -207 -160 -217c-164,-184 -337,-345 -515,-483 -183,-141 -373,-260 -566,-353 -271,-131 -552,-216 -835,-256 -288,-40 -580,-34 -870,17 -291,51 -580,149 -860,290 -278,140 -549,325 -803,550 -237,210 -462,457 -670,739 -202,274 -388,583 -553,923 -349,721 -603,1514 -759,2337 -157,833 -214,1698 -165,2551 48,829 196,1647 448,2413 240,730 574,1414 1005,2014l151 200 164 201 148 168 123 124c298,274 597,488 894,646 307,163 613,266 913,315 355,58 706,39 1044,-45 353,-88 695,-250 1017,-473 324,-224 630,-513 910,-853 282,-344 540,-743 763,-1186 366,-726 642,-1569 796,-2485 146,-867 184,-1801 87,-2762 -15,-150 -49,-395 -94,-668 -37,-225 -83,-466 -131,-685 -37,-168 -78,-328 -119,-459 -34,-108 -66,-191 -95,-235l-16 -25 -15 -35 -6 -25c-26,-102 -56,-201 -89,-296 -32,-93 -69,-187 -110,-282zm-6655 17837l2551 0 -4 -4256c-307,-30 -620,-85 -931,-161 -349,-85 -695,-198 -1027,-335 -356,-146 -699,-321 -1016,-519 -308,-192 -593,-409 -841,-644 -289,-274 -561,-562 -813,-865 -251,-301 -481,-619 -687,-953 -206,-333 -389,-684 -544,-1051 -155,-367 -284,-752 -382,-1154 -23,-95 -40,-173 -46,-241 -7,-77 -3,-143 16,-208 22,-76 58,-136 109,-190 47,-49 105,-93 178,-143l48 -32 69 -19 58 4c246,16 380,55 478,161 93,101 130,243 191,477l61 225c24,83 54,179 93,294 78,227 177,463 292,699 120,245 256,490 403,726 148,238 307,465 469,672 159,202 321,386 481,541l96 91c555,516 1180,903 1837,1160 681,267 1396,394 2105,384 707,-10 1409,-158 2065,-442 632,-274 1223,-675 1736,-1203l84 -89c176,-189 345,-392 505,-606 159,-213 308,-434 442,-660 134,-227 257,-460 364,-695 105,-230 197,-465 274,-702l42 -146 65 -271 34 -123c60,-186 139,-332 278,-415 139,-82 326,-94 595,-8l145 46 41 145c54,192 47,384 11,573 -34,181 -95,358 -155,530l-4 14c-38,111 -76,220 -100,319l-10 40 -24 46 -23 27 3 1 -40 94c-118,257 -361,788 -724,1367 -366,583 -854,1218 -1461,1681 -255,194 -518,385 -798,564 -281,179 -578,345 -900,489 -304,136 -629,253 -981,341 -322,81 -668,139 -1041,169l-3 4254 2549 0c303,0 551,248 551,551l0 0c0,303 -248,551 -551,551l-6210 0c-303,0 -551,-248 -551,-551l0 0c0,-303 248,-551 551,-551zm6021 -18764l118 179 111 190c124,225 227,432 313,632 87,202 157,396 212,590 56,196 98,394 129,605 31,208 51,431 64,676l38 732 -211 60 -353 -643c-81,-147 -160,-300 -237,-454l-230 -471c-342,-707 -694,-1435 -1178,-1964 -188,-206 -379,-386 -559,-544 -175,-153 -347,-291 -496,-410l-14 -12c-176,-141 -321,-258 -422,-364l-327 -342 95 -189 469 58c235,29 457,91 667,177 208,85 405,195 591,321 181,123 352,261 513,407 162,146 314,300 457,453 41,44 83,92 125,145 42,52 84,108 125,166zm3588 9804l-3 2c-7,9 0,0 3,-2zm-9216 1679c-340,-293 -644,-628 -907,-980 -287,-385 -526,-791 -710,-1185l-5 -13c-123,-294 -234,-564 -331,-819 -98,-258 -187,-510 -266,-769 -78,-257 -146,-519 -204,-798 -58,-280 -105,-577 -143,-903 -52,-446 -77,-896 -77,-1346 0,-450 27,-897 79,-1337 52,-438 131,-874 236,-1302 104,-426 233,-842 387,-1245 201,-525 454,-1044 762,-1524 281,-437 610,-844 988,-1196 352,-327 747,-607 1186,-821 410,-199 858,-342 1347,-412l27 -2c327,-14 642,5 943,55 312,52 609,136 892,249 586,234 1109,594 1566,1049 482,479 892,1066 1225,1723 315,622 563,1310 742,2032 181,737 291,1511 325,2288 34,769 -7,1544 -123,2292 -113,728 -299,1430 -558,2078 -233,581 -559,1220 -981,1812 -351,493 -770,954 -1255,1321 -429,324 -911,577 -1445,716 -482,125 -1008,159 -1575,70 -389,-61 -756,-182 -1099,-349 -371,-181 -715,-415 -1027,-684z"/>
 </g>
</svg>
