<?xml version="1.0" encoding="UTF-8"?>
<!DOCTYPE svg PUBLIC "-//W3C//DTD SVG 1.0//EN" "http://www.w3.org/TR/2001/REC-SVG-20010904/DTD/svg10.dtd">
<!-- Creator: CorelDRAW -->
<svg xmlns="http://www.w3.org/2000/svg" xml:space="preserve" width="6.8191mm" height="9.0995mm" version="1.0" style="shape-rendering:geometricPrecision; text-rendering:geometricPrecision; image-rendering:optimizeQuality; fill-rule:evenodd; clip-rule:evenodd"
viewBox="0 0 14896 19878"
 xmlns:xlink="http://www.w3.org/1999/xlink"
 xmlns:xodm="http://www.corel.com/coreldraw/odm/2003">
 <defs>
  <style type="text/css">
   <![CDATA[
    .fil0 {fill:#00A0E3}
   ]]>
  </style>
 </defs>
 <g id="Layer_x0020_1">
  <metadata id="CorelCorpID_0Corel-Layer"/>
  <path class="fil0" d="M7659 727l-294 0c-1256,18 -2415,572 -3260,1444 -845,872 -1375,2063 -1375,3355l0 67c18,1309 563,2503 1433,3368 863,857 2047,1390 3356,1390 1338,0 2541,-538 3411,-1402 878,-872 1419,-2078 1423,-3401l0 -15c0,-1281 -530,-2481 -1380,-3362 -850,-880 -2020,-1441 -3300,-1445l-15 0zm-1358 1480c121,-144 230,-261 285,-284 94,-40 190,-39 273,-8 47,18 90,45 126,79 36,34 65,76 85,123 36,85 42,187 3,292l-6 16 -1073 1395c-111,144 -654,844 -1044,1331 -225,280 -408,497 -453,520 -94,47 -184,60 -263,48 -74,-12 -139,-45 -187,-95 -48,-49 -81,-112 -94,-184 -16,-83 -5,-178 38,-272 40,-85 163,-233 267,-357l110 -134 1437 -1838c67,-90 307,-404 497,-631zm1561 328c53,-83 74,-116 215,-181 117,-54 225,-57 312,-26 63,23 115,64 152,119 36,51 57,115 60,185 5,116 -39,253 -149,381 -191,222 -721,908 -1294,1649 -853,1106 -1803,2336 -1929,2391 -106,47 -207,52 -291,25 -67,-21 -123,-62 -162,-117 -38,-53 -62,-119 -66,-192 -6,-111 32,-243 131,-374l2941 -3747c40,-50 62,-86 80,-114zm-4216 16387c-44,25 -54,74 -15,160 469,52 3314,38 5398,28 955,-5 1751,-9 2087,-5 228,2 355,-23 416,-62 18,-10 26,-20 27,-27 2,-10 -2,-26 -9,-41 -19,-43 -45,-72 -50,-75 -91,-51 -3694,-35 -5516,-28l-907 3c-158,0 -334,-5 -503,-11 -415,-14 -783,-25 -929,57zm4037 -6779l-286 1 -1 5984 288 -5 -1 -5980zm-1574 -180c-447,-88 -940,-185 -1149,-363 -74,-20 -149,-44 -225,-74l-264 52 114 -114c-326,-147 -662,-365 -981,-617 -565,-444 -1084,-995 -1406,-1427 -900,-1209 -1034,-2081 -1236,-3408l-16 -102c-86,-4 -168,-3 -252,-2l-87 1c-230,2 -377,-40 -468,-101 -75,-52 -115,-116 -131,-183 -15,-65 -7,-132 14,-191 33,-95 104,-180 156,-211 143,-88 528,-74 937,-59 325,12 668,24 881,-10 28,-339 78,-659 152,-966 81,-332 190,-647 331,-951 251,-543 583,-1045 983,-1481 390,-426 848,-790 1359,-1070 638,-349 874,-404 1172,-474 152,-35 321,-75 570,-161l26 -5c1071,-96 1885,-42 2594,167 711,209 1315,572 1965,1092 487,389 996,998 1371,1760 300,610 515,1320 565,2094 294,45 592,22 851,2l252 -17c409,-19 688,39 708,470l2 35 -19 29c-162,249 -291,245 -554,237l-187 -3 -27 169c-227,1448 -325,2075 -1304,3440 -276,385 -812,938 -1422,1394 -469,351 -984,647 -1465,773 -195,137 -587,214 -934,281 -290,56 -545,106 -554,131 -12,34 -20,1972 -17,3662 2,1092 10,2075 25,2369 494,23 1030,15 1552,8 272,-4 541,-8 755,-8l218 -5c345,-11 726,-24 980,171 140,107 272,271 329,474 46,164 43,352 -42,555 -250,596 -971,568 -1690,539 -145,-5 -290,-11 -441,-11l-4978 0c-149,0 -294,6 -442,11 -710,27 -1476,57 -1747,-468 -99,-192 -118,-380 -86,-550 38,-203 150,-378 283,-502 254,-236 563,-228 914,-219l203 3 802 -1c534,-2 1070,-4 1602,2l-2 -6048c-144,-41 -337,-79 -541,-119zm-1269 -1231l114 50c678,298 1214,533 2075,595 221,16 462,21 700,14 225,-6 448,-24 650,-53 128,-19 346,-74 560,-129 243,-62 482,-123 607,-132 32,-24 67,-47 107,-72 28,-16 70,-34 100,-47l5 -2c501,-215 933,-458 1326,-756 393,-298 747,-651 1090,-1086 170,-216 318,-435 453,-674 135,-241 259,-504 379,-802 95,-236 215,-637 294,-1028 51,-254 85,-504 83,-699l-299 7c-107,721 -241,1350 -486,1930 -256,607 -633,1158 -1225,1701l-145 134c-191,178 -293,273 -595,481 -113,78 -268,171 -429,258 -156,85 -321,166 -459,224 -273,114 -548,206 -822,277 -1383,353 -2756,155 -3911,-434 -1154,-589 -2090,-1571 -2600,-2785 -101,-240 -185,-489 -251,-747 -104,-409 -121,-677 -132,-850 -6,-98 -10,-160 -24,-183 -13,-21 -96,-20 -310,-15 -21,395 71,849 216,1290 213,647 538,1262 788,1630 256,376 596,773 992,1126 344,307 732,580 1141,776l5 2z"/>
 </g>
</svg>
