<?xml version="1.0" encoding="UTF-8"?>
<!DOCTYPE svg PUBLIC "-//W3C//DTD SVG 1.0//EN" "http://www.w3.org/TR/2001/REC-SVG-20010904/DTD/svg10.dtd">
<!-- Creator: CorelDRAW -->
<svg xmlns="http://www.w3.org/2000/svg" xml:space="preserve" width="5.6196mm" height="9mm" version="1.0" style="shape-rendering:geometricPrecision; text-rendering:geometricPrecision; image-rendering:optimizeQuality; fill-rule:evenodd; clip-rule:evenodd"
viewBox="0 0 8902 14258"
 xmlns:xlink="http://www.w3.org/1999/xlink"
 xmlns:xodm="http://www.corel.com/coreldraw/odm/2003">
 <defs>
  <style type="text/css">
   <![CDATA[
    .fil0 {fill:#00A0E3;fill-rule:nonzero}
   ]]>
  </style>
 </defs>
 <g id="Layer_x0020_1">
  <metadata id="CorelCorpID_0Corel-Layer"/>
  <path class="fil0" d="M1584 5550l5734 0c435,0 831,173 1118,450l1 1c287,278 465,661 465,1082l0 4551c0,422 -178,805 -465,1082 -287,278 -683,450 -1119,450l-2140 0 0 -613 2140 0c261,0 499,-104 671,-270 172,-166 279,-397 279,-649l0 -4551c0,-253 -107,-483 -278,-649l-1 -1c-172,-166 -410,-269 -671,-269l-5734 0c-261,0 -499,104 -671,270 -172,167 -279,397 -279,649l0 4551c0,253 107,483 278,649l1 1c171,166 409,269 671,269l2140 0 0 613 -2140 0c-435,0 -830,-172 -1118,-450l-1 0 -1 -1 -1 -1c-286,-278 -464,-660 -464,-1080l0 -4551c0,-422 178,-805 465,-1083 287,-277 683,-450 1119,-450zm1803 -3945c78,264 114,946 79,1232 -41,335 -246,625 -552,724l75 1200c228,47 385,143 385,254 0,157 -312,284 -697,284 -385,0 -697,-127 -697,-284 0,-111 157,-207 385,-254l75 -1200c-309,-99 -523,-387 -548,-724 -31,-424 -24,-816 79,-1232l1414 0zm1973 515c31,-216 103,-312 183,-419 59,-79 124,-165 177,-321 36,-107 46,-372 51,-642l0 -432c0,-168 143,-306 317,-306l209 0c174,0 317,138 317,306l0 409c5,278 14,555 51,665 53,156 118,243 177,321 80,107 152,203 183,419l0 0 0 3 0 3046c-84,48 -458,130 -829,129 -371,0 -663,-60 -837,-129l0 -3046 0 -3 0 0zm-2010 11272l2204 0c124,0 224,98 224,217l0 430c0,120 -101,217 -224,217l-2204 0c-124,0 -224,-98 -224,-217l0 -430c0,-120 101,-217 224,-217zm325 -2143l349 0 0 -1738c0,-84 71,-153 158,-153l541 0c87,0 158,69 158,153l0 1738 348 0c87,0 158,69 158,153l0 303c0,84 -71,153 -158,153l-348 0 0 1307 -858 0 0 -1307 -349 0c-87,0 -158,-69 -158,-153l0 -303c0,-84 71,-153 158,-153zm-446 -3511l2447 0c87,0 158,69 158,153l0 1000c0,84 -71,153 -158,153l-2447 0c-87,0 -158,-69 -158,-153l0 -1000c0,-84 71,-153 158,-153z"/>
 </g>
</svg>
