<?xml version="1.0" encoding="UTF-8"?>
<!DOCTYPE svg PUBLIC "-//W3C//DTD SVG 1.0//EN" "http://www.w3.org/TR/2001/REC-SVG-20010904/DTD/svg10.dtd">
<!-- Creator: CorelDRAW -->
<svg xmlns="http://www.w3.org/2000/svg" xml:space="preserve" width="7.6334mm" height="8.1278mm" version="1.0" style="shape-rendering:geometricPrecision; text-rendering:geometricPrecision; image-rendering:optimizeQuality; fill-rule:evenodd; clip-rule:evenodd"
viewBox="0 0 14848 15810"
 xmlns:xlink="http://www.w3.org/1999/xlink"
 xmlns:xodm="http://www.corel.com/coreldraw/odm/2003">
 <defs>
  <style type="text/css">
   <![CDATA[
    .fil0 {fill:#00A0E3}
   ]]>
  </style>
 </defs>
 <g id="Layer_x0020_1">
  <metadata id="CorelCorpID_0Corel-Layer"/>
  <path class="fil0" d="M806 2824l793 4c0,-380 -94,-1091 528,-1222 307,-65 1347,-19 1726,-17l8816 5c754,86 590,900 634,1207l765 25 0 -2812 -13262 -12 0 2824zm2622 12733c-24,61 -76,118 -140,152 -73,38 -165,59 -239,25l-2015 0c-122,-8 -170,-4 -189,-2 -44,5 -73,5 -120,-19 -159,-80 -164,-139 -106,-235l-5 -13 -23 -4149 -162 -4 -56 -66c-36,-43 -74,-73 -108,-101 -123,-99 -221,-178 -257,-454 -28,-218 38,-364 102,-504 18,-40 36,-79 47,-114l38 -112 117 -18 52 -5 58 -81 9048 -18c61,-513 32,-1008 6,-1445 -64,-1071 -110,-1840 1017,-1977l15 -1375 -20 0 5 -280c7,-503 13,-845 454,-1029l125 -89 49 -6c74,-9 147,-15 217,-16 208,-3 401,34 552,121 171,99 286,254 315,478 1,8 25,33 28,44 15,28 17,39 25,68l15 55c5,19 12,66 18,109 6,48 11,105 10,125l-3 104c-1,81 -2,117 -21,163 -15,34 -29,59 -45,77l46 0 -2 1454c1102,98 1072,830 1024,1988 -17,417 -37,898 3,1424 82,1 172,-2 264,-5 307,-10 627,-20 812,98 197,75 335,215 408,378 52,114 71,239 56,362 -15,123 -63,244 -147,348 -98,123 -245,222 -440,274l3 4444c-1773,2 -4574,173 -6217,0 -189,-19 -231,-65 -268,-124l-85 -62c-25,-12 -38,-14 -53,-15 -39,-4 -84,-10 -162,-38l-130 -46 2 -708 -192 2c1,370 0,525 -24,610 -52,187 -129,186 -257,186 -9,0 -22,0 -36,5l-224 193 -1378 0c-374,2 -544,2 -630,-7 -180,-18 -201,-69 -239,-161 -1,-3 2,4 -13,-5l-28 -17c-22,-11 -30,-12 -39,-12 -46,-3 -94,-6 -185,-46l-115 -50 -5 -702 -195 -1 -5 703 -115 51c-90,40 -140,43 -186,47 -11,1 -20,1 -53,22zm178 -12873l-4 1870c-596,297 -783,376 -1059,1027 -209,494 -251,1301 24,1782l2630 20c615,-924 -156,-2787 -1006,-2769l-19 -2118 442 -333c126,-129 59,-34 140,-195l-1134 7 -590 -1c86,131 171,211 305,277 112,163 225,187 271,433zm3404 4696l1592 6 -25 -84c325,-294 383,-2298 -1042,-2729 0,-533 8,-1066 0,-1599 -6,-416 -53,-366 178,-581 164,-152 241,-271 400,-405l-1714 -17 167 223c384,371 411,217 407,780 -4,486 46,1118 -26,1580 -435,218 -490,215 -780,559 -214,254 -291,524 -390,902 -60,457 -74,983 158,1367l1075 -4z"/>
 </g>
</svg>
