<?xml version="1.0" encoding="UTF-8"?>
<!DOCTYPE svg PUBLIC "-//W3C//DTD SVG 1.0//EN" "http://www.w3.org/TR/2001/REC-SVG-20010904/DTD/svg10.dtd">
<!-- Creator: CorelDRAW -->
<svg xmlns="http://www.w3.org/2000/svg" xml:space="preserve" width="4.9245mm" height="9mm" version="1.0" style="shape-rendering:geometricPrecision; text-rendering:geometricPrecision; image-rendering:optimizeQuality; fill-rule:evenodd; clip-rule:evenodd"
viewBox="0 0 6647 12148"
 xmlns:xlink="http://www.w3.org/1999/xlink"
 xmlns:xodm="http://www.corel.com/coreldraw/odm/2003">
 <defs>
  <style type="text/css">
   <![CDATA[
    .fil0 {fill:#00A0E3}
   ]]>
  </style>
 </defs>
 <g id="Layer_x0020_1">
  <metadata id="CorelCorpID_0Corel-Layer"/>
  <path class="fil0" d="M870 12148l4907 0c478,0 870,-391 870,-870l0 -6797 -6647 0 0 6797c0,478 391,870 870,870zm73 -7269c95,0 173,78 173,173l0 1666c0,95 -78,173 -173,173 -95,0 -173,-78 -173,-173l0 -1666c0,-95 78,-173 173,-173zm0 -2785c95,0 173,78 173,173l0 911c0,95 -78,173 -173,173 -95,0 -173,-78 -173,-173l0 -911c0,-95 78,-173 173,-173zm5704 1770l0 -2994c0,-478 -391,-870 -870,-870l-4907 0c-478,0 -870,391 -870,870l0 2994 6647 0z"/>
 </g>
</svg>
