<?xml version="1.0" encoding="UTF-8"?>
<!DOCTYPE svg PUBLIC "-//W3C//DTD SVG 1.0//EN" "http://www.w3.org/TR/2001/REC-SVG-20010904/DTD/svg10.dtd">
<!-- Creator: CorelDRAW -->
<svg xmlns="http://www.w3.org/2000/svg" xml:space="preserve" width="6.2502mm" height="9mm" version="1.0" style="shape-rendering:geometricPrecision; text-rendering:geometricPrecision; image-rendering:optimizeQuality; fill-rule:evenodd; clip-rule:evenodd"
viewBox="0 0 11977 17246"
 xmlns:xlink="http://www.w3.org/1999/xlink"
 xmlns:xodm="http://www.corel.com/coreldraw/odm/2003">
 <defs>
  <style type="text/css">
   <![CDATA[
    .fil0 {fill:#00A0E3}
   ]]>
  </style>
 </defs>
 <g id="Layer_x0020_1">
  <metadata id="CorelCorpID_0Corel-Layer"/>
  <path class="fil0" d="M6183 10304c142,258 257,649 86,1067 -410,1015 -429,2105 -306,3180 157,1400 1090,2128 2329,2549 145,48 299,142 514,90 -50,-206 -212,-303 -313,-447 -537,-773 -563,-1705 -64,-2482 500,-773 1433,-1172 2333,-952 284,71 392,30 392,-265 0,-1049 -41,-2098 -276,-3120 -310,-1347 -780,-1717 -2463,-1150 -373,123 -702,358 -944,661 -209,265 -482,261 -694,149 -205,-105 -101,-373 -52,-575 183,-773 638,-1403 1071,-2049 720,-1064 1609,-2004 2236,-3131 362,-649 582,-1351 444,-2105 -149,-814 -608,-1392 -1418,-1631 -795,-231 -1500,-19 -2119,515 -530,459 -795,1075 -974,1728 -889,3266 -1762,6531 -2642,9797 -239,892 -463,1791 -732,2672 -138,455 -545,757 -810,1146 -108,160 -366,60 -556,67 -515,19 -937,186 -1153,694 -157,370 -52,534 343,534 1661,0 3318,0 4979,0 429,0 496,-112 336,-523 -179,-455 -582,-698 -1187,-702 -675,-7 -1257,-750 -1086,-1399 888,-3340 1776,-6680 2669,-10021 213,-791 440,-1579 683,-2359 149,-478 396,-903 825,-1194 470,-317 967,-388 1474,-90 493,291 642,762 605,1306 -60,914 -582,1609 -1101,2303 -814,1086 -1698,2127 -2306,3352 -381,769 -594,1530 -120,2385zm4038 3471c-896,59 -1650,776 -1650,1668 0,944 761,1694 1713,1683 959,-11 1720,-765 1691,-1702 -30,-1019 -926,-1706 -1754,-1650z"/>
 </g>
</svg>
