<?xml version="1.0" encoding="UTF-8"?>
<!DOCTYPE svg PUBLIC "-//W3C//DTD SVG 1.0//EN" "http://www.w3.org/TR/2001/REC-SVG-20010904/DTD/svg10.dtd">
<!-- Creator: CorelDRAW -->
<svg xmlns="http://www.w3.org/2000/svg" xml:space="preserve" width="5.2232mm" height="9mm" version="1.0" style="shape-rendering:geometricPrecision; text-rendering:geometricPrecision; image-rendering:optimizeQuality; fill-rule:evenodd; clip-rule:evenodd"
viewBox="0 0 9567 16486"
 xmlns:xlink="http://www.w3.org/1999/xlink"
 xmlns:xodm="http://www.corel.com/coreldraw/odm/2003">
 <defs>
  <style type="text/css">
   <![CDATA[
    .fil0 {fill:#00A0E3}
   ]]>
  </style>
 </defs>
 <g id="Layer_x0020_1">
  <metadata id="CorelCorpID_0Corel-Layer"/>
  <path class="fil0" d="M526 11778c-161,922 -368,1841 -498,2767 -98,691 235,1014 936,1014 926,0 1852,0 2777,0l0 3c912,0 1824,0 2736,0 680,0 1035,-361 933,-1024 -147,-968 -326,-1932 -526,-2890 -81,-389 -372,-624 -793,-624 -1571,0 -3142,-7 -4717,0 -491,0 -765,277 -849,754zm2363 673c4,-456 368,-793 849,-786 463,7 820,376 807,828 -14,428 -389,782 -824,779 -456,-4 -831,-379 -831,-821zm-1305 2154c-10,-165 81,-253 249,-284l0 3c151,7 252,88 274,246 21,175 -63,302 -242,319 -186,14 -274,-105 -281,-284zm3742 -32c0,-168 123,-231 263,-252 165,28 270,102 270,270 0,179 -95,295 -274,295 -186,-3 -260,-147 -260,-312zm-2234 -249c168,-4 288,91 291,323 -32,119 -109,252 -291,242 -179,-11 -274,-137 -274,-306 0,-161 126,-259 274,-259zm1241 7c175,0 277,116 295,305 -35,144 -133,253 -288,246 -172,-7 -284,-116 -284,-302 0,-175 130,-249 277,-249zm-1157 -1855c25,323 204,519 544,508 333,-7 512,-189 540,-533l3 4c-35,-309 -200,-509 -530,-530 -305,-21 -578,249 -558,550zm3339 3406c-1866,-3 -3735,-3 -5601,-3 -217,0 -470,7 -480,288 -11,305 238,323 480,319 926,-3 1852,0 2781,0 940,0 1880,0 2823,0 246,0 491,-28 480,-326 -10,-284 -274,-273 -484,-277zm-992 -5212c582,0 1035,-389 1105,-954 186,-1519 358,-3037 537,-4556 42,-347 88,-694 130,-1045 10,-105 56,-179 144,-239 281,-186 972,-207 1214,-28 274,200 358,694 210,1129 -221,646 -649,1175 -979,1761 -235,414 -484,824 -519,1315 -17,228 0,456 274,484 263,25 284,-204 319,-403 102,-565 417,-1035 719,-1508 263,-414 533,-824 712,-1283 21,-53 49,-102 67,-154 414,-1291 -365,-2241 -1705,-2048 -315,46 -351,-28 -333,-302 63,-954 -361,-1389 -1329,-1392 -407,0 -814,0 -1221,0 -393,0 -786,0 -1178,0l0 3c-813,0 -1631,-7 -2444,0 -870,7 -1322,466 -1235,1323 179,1743 396,3483 596,5226 60,530 123,1059 175,1589 63,659 495,1077 1161,1084 1193,7 2388,7 3581,0zm810 -3654c-91,792 -172,1588 -274,2381 -70,540 -238,687 -761,687 -985,7 -1967,7 -2949,7 -807,0 -915,-126 -1006,-940 -232,-2090 -477,-4181 -726,-6268 -70,-603 74,-793 698,-793 816,0 1629,0 2441,0 1,0 2,0 3,0 788,0 1572,0 2357,0 631,0 775,190 698,831 -169,1364 -323,2729 -481,4093zm-2634 -5843c800,0 1603,0 2402,0 112,0 228,0 337,-18 165,-31 302,-122 298,-302 -3,-200 -151,-301 -337,-305 -449,-10 -898,-10 -1347,0 -199,3 -340,-21 -406,-253 -60,-207 -235,-298 -460,-295 -295,7 -589,10 -884,0 -256,-10 -456,84 -526,326 -63,224 -211,221 -382,221 -421,0 -842,0 -1266,0 -221,0 -421,70 -421,308 0,235 204,316 421,316 856,0 1715,0 2571,0z"/>
 </g>
</svg>
