<?xml version="1.0" encoding="UTF-8"?>
<!DOCTYPE svg PUBLIC "-//W3C//DTD SVG 1.0//EN" "http://www.w3.org/TR/2001/REC-SVG-20010904/DTD/svg10.dtd">
<!-- Creator: CorelDRAW -->
<svg xmlns="http://www.w3.org/2000/svg" xml:space="preserve" width="7.6057mm" height="9.0001mm" version="1.0" style="shape-rendering:geometricPrecision; text-rendering:geometricPrecision; image-rendering:optimizeQuality; fill-rule:evenodd; clip-rule:evenodd"
viewBox="0 0 23369 27654"
 xmlns:xlink="http://www.w3.org/1999/xlink"
 xmlns:xodm="http://www.corel.com/coreldraw/odm/2003">
 <defs>
  <style type="text/css">
   <![CDATA[
    .fil0 {fill:#00A0E3}
   ]]>
  </style>
 </defs>
 <g id="Layer_x0020_1">
  <metadata id="CorelCorpID_0Corel-Layer"/>
  <path class="fil0" d="M11532 13091c-143,3697 -367,7387 -564,11085 -75,1400 149,1781 1400,2324 245,108 374,265 523,469 435,591 1141,625 1556,27 265,-381 564,-442 958,-435 1006,7 2012,0 3018,0 605,0 1176,-108 1617,598 279,442 945,414 1325,-102 204,-279 408,-469 734,-598 979,-380 1312,-849 1264,-1930 -102,-2528 -258,-5056 -381,-7578 -54,-1115 -143,-2229 -122,-3344 61,-3011 -2073,-4227 -4105,-4526 -829,-122 -1121,-394 -1264,-1189 -408,-2188 -1162,-4248 -2684,-5933 -2447,-2725 -6008,-2590 -8298,292 -1502,1889 -2114,4098 -2195,6443 -82,2284 -20,4574 -20,6856l-7 0c0,2365 -6,4737 7,7102 0,455 -68,693 -611,686 -680,0 -1115,476 -1291,1074 -177,598 -462,822 -1081,850 -904,41 -1400,727 -1298,1624 41,340 197,571 496,680 333,122 659,61 863,-265 320,-510 571,-673 992,-41 367,550 877,503 1264,-48 326,-469 558,-503 911,0 421,591 904,584 1305,-6 353,-523 564,-428 897,6 455,598 931,584 1359,-54 265,-394 489,-428 727,-82 320,469 686,775 1203,394 537,-394 428,-965 177,-1475 -245,-503 -686,-775 -1258,-748 -469,20 -720,-108 -883,-611 -231,-727 -680,-1298 -1563,-1325 -544,-14 -367,-449 -367,-734 -14,-2997 -27,-5988 0,-8985 20,-2120 -170,-4248 218,-6355 285,-1550 815,-2983 1923,-4152 1502,-1590 3398,-1631 4941,-95 1318,1318 1910,3004 2358,4757 54,210 61,435 143,632 183,455 0,625 -442,721 -550,122 -1094,306 -1597,598 -1312,755 -2087,1794 -2148,3392zm6287 3547c-1087,312 -2358,-191 -2963,-1176 -666,-1094 -537,-2386 340,-3296 238,-238 537,-652 843,-387 245,210 218,707 -7,1067 -47,68 -102,129 -149,197 -524,816 -449,1611 210,2195 584,517 1590,517 2168,-7 619,-557 707,-1468 143,-2209 -231,-306 -354,-598 -340,-965 6,-156 -68,-347 122,-435 170,-81 312,34 442,129 741,537 1217,1230 1217,2182l-7 6c27,1339 -700,2311 -2018,2698z"/>
 </g>
</svg>
