<?xml version="1.0" encoding="UTF-8"?>
<!DOCTYPE svg PUBLIC "-//W3C//DTD SVG 1.0//EN" "http://www.w3.org/TR/2001/REC-SVG-20010904/DTD/svg10.dtd">
<!-- Creator: CorelDRAW -->
<svg xmlns="http://www.w3.org/2000/svg" xml:space="preserve" width="5.1762mm" height="8.7496mm" version="1.0" style="shape-rendering:geometricPrecision; text-rendering:geometricPrecision; image-rendering:optimizeQuality; fill-rule:evenodd; clip-rule:evenodd"
viewBox="0 0 13063 22081"
 xmlns:xlink="http://www.w3.org/1999/xlink"
 xmlns:xodm="http://www.corel.com/coreldraw/odm/2003">
 <defs>
  <style type="text/css">
   <![CDATA[
    .fil0 {fill:#00A0E3}
   ]]>
  </style>
 </defs>
 <g id="Layer_x0020_1">
  <metadata id="CorelCorpID_0Corel-Layer"/>
  <path class="fil0" d="M1670 15218c-30,758 -10,1516 0,2275 10,753 434,1177 1192,1187 2393,30 4803,15 7197,15 633,0 1077,-259 1242,-893 80,-304 319,-444 519,-633 883,-843 1457,-1796 1167,-3083 -144,-653 -539,-1062 -1227,-1117 -369,-30 -603,-170 -788,-514 -399,-759 -972,-1142 -1925,-1098l-2829 37c-958,12 -1947,-22 -2922,-12 -808,10 -1536,384 -2304,593 -199,55 -295,204 -100,399 793,803 818,1805 778,2843zm9666 1002c-10,-379 0,-753 0,-1132l-10 10c0,-319 -10,-634 0,-953 5,-170 -70,-389 135,-478 209,-95 384,60 539,174 180,130 305,325 330,544 84,758 -205,1391 -704,1945 -170,190 -279,115 -289,-110zm-6968 -5736c1636,0 3277,-35 4913,0 644,40 938,-224 1157,-768 544,-1362 803,-2798 1027,-4230 250,-1596 404,-3207 669,-4798 100,-598 -120,-683 -619,-678 -1656,15 -3317,5 -4973,5l0 -5c-1616,0 -3237,20 -4853,-10 -579,-10 -818,99 -743,753 300,2738 658,5462 1356,8135 10,40 30,75 40,115 469,1477 479,1486 2025,1481zm6334 8948c-2793,0 -5586,0 -8380,0 -294,0 -543,70 -763,269 -574,509 -1063,1073 -1402,1771 -264,549 -235,608 364,608 2015,0 4030,0 6046,0l5 -5c1975,0 3950,0 5925,0 653,0 663,-25 384,-629 -344,-743 -918,-1292 -1506,-1835 -200,-185 -434,-180 -673,-180z"/>
 </g>
</svg>
