<?xml version="1.0" encoding="UTF-8"?>
<!DOCTYPE svg PUBLIC "-//W3C//DTD SVG 1.0//EN" "http://www.w3.org/TR/2001/REC-SVG-20010904/DTD/svg10.dtd">
<!-- Creator: CorelDRAW -->
<svg xmlns="http://www.w3.org/2000/svg" xml:space="preserve" width="7.6823mm" height="8.4996mm" version="1.0" style="shape-rendering:geometricPrecision; text-rendering:geometricPrecision; image-rendering:optimizeQuality; fill-rule:evenodd; clip-rule:evenodd"
viewBox="0 0 35211 38957"
 xmlns:xlink="http://www.w3.org/1999/xlink"
 xmlns:xodm="http://www.corel.com/coreldraw/odm/2003">
 <defs>
  <style type="text/css">
   <![CDATA[
    .fil0 {fill:#00A0E3}
   ]]>
  </style>
 </defs>
 <g id="Layer_x0020_1">
  <metadata id="CorelCorpID_0Corel-Layer"/>
  <path class="fil0" d="M25873 19564c-270,0 -599,-24 -599,-412 12,-365 329,-424 611,-424 847,0 1681,0 2527,0 893,0 1775,-11 2668,0 306,0 564,129 517,494 -35,282 -294,341 -529,341 -1739,0 -3468,0 -5195,0zm-17401 16968c-2,-2 -4,-5 -6,-8l11 0c-2,3 -4,6 -6,8zm26334 -15840c929,-5853 435,-11448 -3350,-16326 -2351,-3032 -5853,-3832 -9380,-4196 -4690,-494 -9285,35 -13552,2292 -435,235 -811,259 -1316,35 -1282,-552 -1904,-164 -2080,1270 -71,600 -306,1046 -682,1493 -3456,4161 -4596,9050 -4431,14328 71,1986 623,2480 2633,2797 470,71 928,153 1399,224 270,47 552,23 717,341 424,787 -118,4091 -787,4737 -2363,2268 -2433,8075 -142,10425 1081,1105 2386,1140 3456,35 444,-468 772,-1052 1181,-1614 350,526 608,982 935,1368 1128,1375 2692,1387 3844,35 2233,-2609 1998,-7993 -458,-10425 -529,-529 -964,-3479 -564,-4102 352,-552 941,-306 1422,-306 5172,-23 10355,0 15526,-11 1128,0 2245,-211 3361,-306 1387,-117 2080,-893 2268,-2092zm-26010 2151c587,23 1257,-94 1704,446 341,412 165,3620 -247,3926 -776,576 -1223,1399 -1822,2245l-11 12c-576,-1563 -2410,-2257 -2186,-4349 294,-2786 -329,-2410 2563,-2280zm16525 -5912c-46,-376 247,-494 529,-494 893,-11 1787,0 2680,0l12 -23c846,0 1693,-11 2539,0 306,11 564,164 517,517 -35,282 -282,364 -529,364 -1739,0 -3479,0 -5219,0 -236,0 -494,-82 -529,-364zm-59 -2386c-23,-482 376,-482 693,-482 847,0 1681,0 2527,0l-12 -24c846,0 1681,0 2527,0 306,0 576,106 623,435 47,376 -270,482 -541,482 -1728,23 -3468,23 -5195,0 -259,0 -599,-35 -623,-412zm388 -4466c-2033,635 -4126,893 -6076,787l-12 -12c-835,0 -1504,59 -2151,0 -2338,-223 -4689,-411 -6794,-1622 -1363,-788 -1575,-2128 -470,-3256 424,-423 917,-834 1458,-1081 3279,-1492 6746,-2010 10308,-1598 1704,188 3420,552 4949,1492 2268,1387 2268,3467 -59,4796 -364,200 -752,376 -1152,494zm-21897 20745l0 4161c-470,-1375 -470,-2750 0,-4161zm9356 4243l0 -4325c506,1469 506,2904 0,4325zm-7640 -6030c893,1351 858,6688 -35,7828 -647,-2621 -682,-5171 35,-7828zm1975 2198c400,1199 458,2398 0,3573l0 -3573zm2057 3526c-424,-1175 -412,-2362 0,-3549l0 3549zm1786 2092c-564,-2574 -635,-5148 71,-7722 576,2586 741,5160 -71,7722z"/>
 </g>
</svg>
