<?xml version="1.0" encoding="UTF-8"?>
<!DOCTYPE svg PUBLIC "-//W3C//DTD SVG 1.0//EN" "http://www.w3.org/TR/2001/REC-SVG-20010904/DTD/svg10.dtd">
<!-- Creator: CorelDRAW -->
<svg xmlns="http://www.w3.org/2000/svg" xml:space="preserve" width="10.1339mm" height="5.0076mm" version="1.0" style="shape-rendering:geometricPrecision; text-rendering:geometricPrecision; image-rendering:optimizeQuality; fill-rule:evenodd; clip-rule:evenodd"
viewBox="0 0 78959 39017"
 xmlns:xlink="http://www.w3.org/1999/xlink"
 xmlns:xodm="http://www.corel.com/coreldraw/odm/2003">
 <defs>
  <style type="text/css">
   <![CDATA[
    .fil0 {fill:#00A0E3}
   ]]>
  </style>
 </defs>
 <g id="Layer_x0020_1">
  <metadata id="CorelCorpID_0Corel-Layer"/>
  <path class="fil0" d="M62012 33486c2500,-3802 7092,-5298 11471,-4144 4507,1197 5873,42 5382,-4635 -213,-2137 -639,-4207 -1750,-6109 -2008,-3460 -5662,-5148 -9400,-3866 -6815,2328 -13820,3845 -20891,4998 -3268,534 -6644,833 -9826,-619 -2479,-1153 -3332,-3182 -2244,-5703 1540,-3588 4616,-4869 8247,-5041 3587,-171 7177,194 10765,493 4786,427 9549,363 14206,-1155 1282,-405 2265,-1025 2393,-2307 129,-1304 -833,-2200 -1923,-2777 -2391,-1261 -5040,-1581 -7668,-1902 -6558,-770 -13180,-1152 -19673,65 -8716,1645 -15444,6984 -21619,13009 -5830,5703 -10272,12517 -14738,19310 -1240,1879 -342,2114 1324,2114 8900,0 17780,0 26681,0 8,0 14,0 21,2 8559,0 17096,0 25655,0 1538,0 2606,-236 3589,-1731zm-4144 2990c-17794,0 -35565,0 -53360,-42 -1858,0 -3290,405 -4507,2583 1261,0 2030,0 2800,0 18391,0 36761,0 55154,0 598,0 1195,0 1794,-20 940,0 1411,-492 1367,-1452 -42,-920 -726,-1047 -1452,-1069 -599,0 -1197,0 -1795,0z"/>
 </g>
</svg>
