<?xml version="1.0" encoding="UTF-8"?>
<!DOCTYPE svg PUBLIC "-//W3C//DTD SVG 1.0//EN" "http://www.w3.org/TR/2001/REC-SVG-20010904/DTD/svg10.dtd">
<!-- Creator: CorelDRAW -->
<svg xmlns="http://www.w3.org/2000/svg" xml:space="preserve" width="8.9999mm" height="6.8409mm" version="1.0" style="shape-rendering:geometricPrecision; text-rendering:geometricPrecision; image-rendering:optimizeQuality; fill-rule:evenodd; clip-rule:evenodd"
viewBox="0 0 91083 69233"
 xmlns:xlink="http://www.w3.org/1999/xlink"
 xmlns:xodm="http://www.corel.com/coreldraw/odm/2003">
 <defs>
  <style type="text/css">
   <![CDATA[
    .fil0 {fill:#00A0E3}
   ]]>
  </style>
 </defs>
 <g id="Layer_x0020_1">
  <metadata id="CorelCorpID_0Corel-Layer"/>
  <path class="fil0" d="M91062 62986c26,-18948 26,-37872 0,-56818 0,-4103 -1803,-6012 -5880,-6039 -26267,-77 -52531,-130 -78768,-130 -4653,0 -6402,1883 -6402,6586 0,18843 -26,37663 0,56504 0,4365 1647,6038 6061,6064 13173,52 26370,0 39541,0l0 52 -27 26c13068,0 26161,0 39229,0 4549,0 6221,-1648 6246,-6246zm-9554 1507c1879,0 3403,-1524 3403,-3402 0,-1705 -1255,-3118 -2890,-3365l-77 -206 -436 -1181 -438 1181 -75 206c-1634,247 -2889,1660 -2889,3365 0,1878 1523,3402 3402,3402zm0 -9959c1879,0 3403,-1524 3403,-3402 0,-1705 -1255,-3117 -2890,-3365l-77 -207 -436 -1181 -438 1181 -75 207c-1634,248 -2889,1660 -2889,3365 0,1878 1523,3402 3402,3402zm0 -9957c1879,0 3403,-1525 3403,-3405 0,-1705 -1255,-3117 -2890,-3364l-77 -206 -436 -1181 -438 1181 -75 206c-1634,247 -2889,1659 -2889,3364 0,1879 1523,3405 3402,3405zm0 -9961c1879,0 3403,-1523 3403,-3402 0,-1704 -1255,-3117 -2890,-3364l-77 -207 -436 -1181 -438 1181 -75 207c-1634,247 -2889,1660 -2889,3364 0,1879 1523,3402 3402,3402zm-27036 -5684c-6716,52 -12439,-5515 -12309,-11997 132,-6560 5595,-11786 12233,-11708 6507,81 11708,5332 11682,11786 -26,6587 -5175,11866 -11605,11919zm-24120 -11709c-78,6586 -5514,11840 -12179,11736 -6402,-104 -11683,-5486 -11683,-11919l26 0c27,-6613 5410,-11918 12022,-11838 6693,78 11891,5358 11814,12021zm11811 35310c-52,-6535 5671,-12180 12309,-12128 6196,27 11631,5672 11631,12049 -26,6481 -5305,11736 -11762,11736l26 26c-6743,0 -12179,-5201 -12205,-11683zm-23806 -12206c6402,-105 11918,5464 11969,12075l-26 25c53,6456 -5252,11815 -11682,11815 -6743,24 -12049,-5099 -12127,-11708 -77,-6483 5384,-12101 11866,-12206zm131 -16490c3971,-27 7003,-3007 6952,-6875 -53,-3763 -3293,-6901 -7056,-6847 -3869,54 -7058,3216 -6953,6925 78,3843 3189,6822 7057,6797zm-131 -2118c-2615,0 -4730,-2169 -4730,-4783 26,-2614 2169,-4677 4835,-4677 2640,23 4731,2168 4731,4808 -28,2639 -2091,4651 -4836,4651zm6978 30501c-81,-3764 -3112,-6717 -6796,-6638 -4182,105 -7240,3135 -7109,7030 157,3763 3449,6925 7160,6822 3738,-106 6823,-3397 6744,-7214zm-6822 -4548c2640,25 4730,2144 4705,4810 -26,2588 -2327,4832 -4835,4757 -2535,-106 -4809,-2431 -4731,-4888 78,-2666 2168,-4679 4861,-4679zm28693 -30551c132,3946 3084,6771 7110,6717 3921,-53 6953,-3082 6926,-6952 -26,-3739 -3321,-6846 -7136,-6795l-25 24c-3869,54 -6978,3242 -6875,7005zm6980 4575c-2797,-28 -4757,-1962 -4810,-4705 -24,-2509 2250,-4707 4838,-4707 2560,27 4835,2222 4834,4760 26,2507 -2247,4678 -4861,4652zm7057 30838c131,-3659 -3136,-6899 -6977,-6952l-1 -27c-3973,-79 -6926,2825 -6978,6821 -80,3816 3005,7004 6848,7082 3605,79 7003,-3214 7108,-6924zm-7006 -4784c2746,27 4862,2145 4733,4730 -106,2587 -2353,4783 -4863,4757l-26 2c-2534,-54 -4677,-2275 -4677,-4888 25,-2692 2063,-4653 4832,-4601z"/>
 </g>
</svg>
