<?xml version="1.0" encoding="UTF-8"?>
<!DOCTYPE svg PUBLIC "-//W3C//DTD SVG 1.0//EN" "http://www.w3.org/TR/2001/REC-SVG-20010904/DTD/svg10.dtd">
<!-- Creator: CorelDRAW -->
<svg xmlns="http://www.w3.org/2000/svg" xml:space="preserve" width="9mm" height="5.6009mm" version="1.0" style="shape-rendering:geometricPrecision; text-rendering:geometricPrecision; image-rendering:optimizeQuality; fill-rule:evenodd; clip-rule:evenodd"
viewBox="0 0 165549 103025"
 xmlns:xlink="http://www.w3.org/1999/xlink"
 xmlns:xodm="http://www.corel.com/coreldraw/odm/2003">
 <defs>
  <style type="text/css">
   <![CDATA[
    .fil0 {fill:#00A0E3}
   ]]>
  </style>
 </defs>
 <g id="Layer_x0020_1">
  <metadata id="CorelCorpID_0Corel-Layer"/>
  <path class="fil0" d="M113822 77946c-191,-17579 -239,-35159 0,-52740 97,-4829 -1784,-5745 -6085,-5697 -13523,191 -27043,96 -40565,96l46 -96c-13908,0 -27818,50 -41726,0 -3475,0 -5309,675 -5261,4781 239,17773 337,35547 143,53318 -50,4878 1643,6230 6372,6230 27051,-193 54092,-193 81137,0 4637,0 5989,-1402 5938,-5892zm6856 -54236c96,12172 96,24292 0,36463 0,3282 1209,4538 4396,4442 5408,-97 10821,-46 16226,0 3088,46 4494,-1060 4398,-4442 -241,-5989 -52,-11978 -52,-17916l-92 46c0,-5987 -97,-11977 0,-17916 92,-3431 -1256,-4926 -4737,-4829 -5406,142 -10818,142 -16178,0 -2991,0 -4010,1201 -3962,4152zm20478 48199c-5360,0 -10764,0 -16128,0 -4783,-46 -4251,3236 -4350,6375 -94,3333 436,5746 4593,5459 2652,-195 5360,0 8062,0l50 -52c1736,0 3475,0 5165,0 6664,0 7630,-1256 7051,-7775 -237,-2993 -1689,-4008 -4442,-4008zm-120444 -60368c41385,-92 82776,-46 124163,0 6326,0 9175,2899 9175,9322 52,20087 97,40228 0,60319 -46,7921 -2172,10097 -9948,10097 -20285,44 -40613,0 -60898,0l0 -50c-20672,0 -41389,50 -62061,0 -7435,0 -9173,-1644 -9173,-8741 -50,-20672 -50,-41389 44,-62062 50,-6372 2318,-8884 8697,-8884zm62057 -11445c-20861,0 -41775,0 -62636,0 -11927,0 -19801,7440 -19943,19316 -243,21253 -243,42550 -48,63797 99,12462 8114,19752 21490,19752 38488,50 76932,50 115421,0 4249,0 8452,337 12701,-530 9179,-1836 15600,-8743 15650,-18157 193,-22025 193,-44091 0,-66118 -96,-10621 -8743,-18155 -19996,-18155 -20863,0 -41772,0 -62638,0l0 96z"/>
 </g>
</svg>
