<?xml version="1.0" encoding="UTF-8"?>
<!DOCTYPE svg PUBLIC "-//W3C//DTD SVG 1.0//EN" "http://www.w3.org/TR/2001/REC-SVG-20010904/DTD/svg10.dtd">
<!-- Creator: CorelDRAW -->
<svg xmlns="http://www.w3.org/2000/svg" xml:space="preserve" width="6.0652mm" height="8.5mm" version="1.0" style="shape-rendering:geometricPrecision; text-rendering:geometricPrecision; image-rendering:optimizeQuality; fill-rule:evenodd; clip-rule:evenodd"
viewBox="0 0 613786 860183"
 xmlns:xlink="http://www.w3.org/1999/xlink"
 xmlns:xodm="http://www.corel.com/coreldraw/odm/2003">
 <defs>
  <style type="text/css">
   <![CDATA[
    .fil0 {fill:#00A0E3}
   ]]>
  </style>
 </defs>
 <g id="Layer_x0020_1">
  <metadata id="CorelCorpID_0Corel-Layer"/>
  <path class="fil0" d="M89621 0l434544 0c49294,0 89621,40327 89621,89621l0 81343 -613786 0 0 -81343c0,-49294 40327,-89621 89621,-89621zm405682 135271c13844,0 25067,-11223 25067,-25067 0,-13834 -11223,-25057 -25067,-25057 -13834,0 -25057,11223 -25057,25057 0,13844 11223,25067 25057,25067zm-231055 0c13834,0 25057,-11223 25057,-25067 0,-13834 -11223,-25057 -25057,-25057 -13844,0 -25067,11223 -25067,25057 0,13844 11223,25067 25067,25067zm-72893 0c13844,0 25057,-11223 25057,-25067 0,-13834 -11213,-25057 -25057,-25057 -13844,0 -25057,11223 -25057,25057 0,13844 11213,25067 25057,25067zm-72893 0c13844,0 25067,-11223 25067,-25067 0,-13834 -11223,-25057 -25067,-25057 -13834,0 -25057,11223 -25057,25057 0,13844 11223,25067 25057,25067zm495324 65495l0 569795c0,49294 -40327,89621 -89621,89621l-434544 0c-49294,0 -89621,-40327 -89621,-89621l0 -569795 613786 0zm-306893 467980c62257,0 115781,-37322 139471,-90785 -8986,-2469 -15635,-10717 -15635,-20462l0 -82486c0,-9745 6649,-17993 15635,-20462 -23690,-53463 -77214,-90785 -139471,-90785 -84217,0 -152485,68278 -152485,152485 0,84217 68268,152495 152485,152495zm0 43819c108424,0 196304,-87890 196304,-196314 0,-108413 -87880,-196304 -196304,-196304 -108413,0 -196304,87890 -196304,196304 0,108424 87890,196314 196304,196314z"/>
 </g>
</svg>
