<?xml version="1.0" encoding="UTF-8"?>
<!DOCTYPE svg PUBLIC "-//W3C//DTD SVG 1.0//EN" "http://www.w3.org/TR/2001/REC-SVG-20010904/DTD/svg10.dtd">
<!-- Creator: CorelDRAW -->
<svg xmlns="http://www.w3.org/2000/svg" xml:space="preserve" width="7.9999mm" height="7.5562mm" version="1.0" style="shape-rendering:geometricPrecision; text-rendering:geometricPrecision; image-rendering:optimizeQuality; fill-rule:evenodd; clip-rule:evenodd"
viewBox="0 0 88798 83873"
 xmlns:xlink="http://www.w3.org/1999/xlink"
 xmlns:xodm="http://www.corel.com/coreldraw/odm/2003">
 <defs>
  <style type="text/css">
   <![CDATA[
    .fil0 {fill:#00A0E3}
   ]]>
  </style>
 </defs>
 <g id="Layer_x0020_1">
  <metadata id="CorelCorpID_0Corel-Layer"/>
  <path class="fil0" d="M9811 64467c-471,3741 -3187,6263 -5430,9005 -1386,1719 -4381,3235 -4381,6656l0 3745 78504 0 0 -1784c0,-3230 -1163,-5791 -3963,-6399 -971,-224 -1998,-194 -2965,-194 -5762,0 -11557,0 -17318,0 -4740,0 -8453,-2438 -11805,-5403 -8313,-7343 -11583,-17098 -12746,-27710 -581,-5291 -220,-10612 609,-15933 388,-2438 1330,-3048 3631,-3048 11665,81 23301,28 34969,0 6370,0 7758,-1412 7758,-7841 0,-3437 82,-6873 0,-10336 -113,-3353 -1913,-5155 -5209,-5184 -21421,-54 -42839,-54 -64258,0 -3631,0 -5513,1915 -5598,5544 -84,3877 -28,7757 0,11665 57,4046 1967,5986 6153,6208 5069,275 5819,998 5597,5931 -497,11746 -2050,23412 -3548,35078zm34500 -48133c0,1635 -583,2494 -2355,2355 -1717,250 -2244,-638 -2244,-2273 0,-1441 442,-2243 2051,-2243 1523,0 2549,333 2549,2161zm-8092 223c0,1774 -858,2325 -2492,2160 -1775,222 -2273,-693 -2273,-2328 -27,-1773 831,-2243 2439,-2243 1718,0 2327,746 2327,2411zm16349 -168c-28,1746 -747,2439 -2466,2328l0 -29c-1635,277 -2328,-444 -2271,-2188 54,-1358 165,-2410 1913,-2354 1551,55 2825,109 2825,2243zm-19505 13135c-1249,14464 1744,27544 12605,37991 3324,3185 7151,5209 11972,4653 997,-110 2020,-139 2993,0 10889,1470 17124,-4847 22057,-13217 5320,-9006 6594,-18898 5957,-29178 -166,-2550 -1634,-2743 -3602,-2716 -8092,28 -16183,0 -24302,0l0 -54c-8083,0 -16164,28 -24274,-27 -1911,0 -3212,305 -3405,2549z"/>
 </g>
</svg>
