<?xml version="1.0" encoding="UTF-8"?>
<!DOCTYPE svg PUBLIC "-//W3C//DTD SVG 1.0//EN" "http://www.w3.org/TR/2001/REC-SVG-20010904/DTD/svg10.dtd">
<!-- Creator: CorelDRAW -->
<svg xmlns="http://www.w3.org/2000/svg" xml:space="preserve" width="5.9863mm" height="9mm" version="1.0" style="shape-rendering:geometricPrecision; text-rendering:geometricPrecision; image-rendering:optimizeQuality; fill-rule:evenodd; clip-rule:evenodd"
viewBox="0 0 31411 47225"
 xmlns:xlink="http://www.w3.org/1999/xlink"
 xmlns:xodm="http://www.corel.com/coreldraw/odm/2003">
 <defs>
  <style type="text/css">
   <![CDATA[
    .fil0 {fill:#00A0E3}
   ]]>
  </style>
 </defs>
 <g id="Layer_x0020_1">
  <metadata id="CorelCorpID_0Corel-Layer"/>
  <path class="fil0" d="M6089 1507c1576,27 3152,40 4728,0 467,0 850,-289 850,-809 0,-563 -452,-672 -918,-672 -809,0 -1632,0 -2440,0l-13 0c-712,0 -1413,0 -2124,0 -467,0 -905,96 -918,672 0,520 341,794 836,809zm14172 -1481c-410,0 -780,110 -809,618 -27,439 206,809 631,809 1742,40 3495,55 5236,0 343,0 713,-330 671,-795 -40,-466 -412,-631 -809,-644 -876,-27 -1754,0 -2632,0l15 14c-768,0 -1535,0 -2304,0zm-17375 2140l25639 0c1588,0 2886,1298 2886,2886l0 4764 -31411 0 0 -4764c0,-1588 1299,-2886 2886,-2886zm28525 9172l0 26786 -31411 0 0 -26786 31411 0zm0 28307l0 4694c0,1588 -1298,2886 -2886,2886l-25639 0c-1587,0 -2886,-1298 -2886,-2886l0 -4694 31411 0zm-27183 -21327l22955 0 0 15776 -22955 0 0 -15776zm1773 -10423c825,0 1495,-669 1495,-1496 0,-826 -671,-1495 -1495,-1495 -826,0 -1497,670 -1497,1495 0,827 670,1496 1497,1496zm5343 0c827,0 1496,-669 1496,-1496 0,-826 -669,-1495 -1496,-1495 -826,0 -1496,670 -1496,1495 0,827 670,1496 1496,1496zm8722 0c825,0 1496,-669 1496,-1496 0,-826 -671,-1495 -1496,-1495 -826,0 -1497,670 -1497,1495 0,827 671,1496 1497,1496zm5343 0c826,0 1496,-669 1496,-1496 0,-826 -670,-1495 -1496,-1495 -826,0 -1495,670 -1495,1495 0,827 669,1496 1495,1496z"/>
 </g>
</svg>
