<?xml version="1.0" encoding="UTF-8"?>
<!DOCTYPE svg PUBLIC "-//W3C//DTD SVG 1.0//EN" "http://www.w3.org/TR/2001/REC-SVG-20010904/DTD/svg10.dtd">
<!-- Creator: CorelDRAW -->
<svg xmlns="http://www.w3.org/2000/svg" xml:space="preserve" width="5.6634mm" height="9mm" version="1.0" style="shape-rendering:geometricPrecision; text-rendering:geometricPrecision; image-rendering:optimizeQuality; fill-rule:evenodd; clip-rule:evenodd"
viewBox="0 0 20772 33010"
 xmlns:xlink="http://www.w3.org/1999/xlink"
 xmlns:xodm="http://www.corel.com/coreldraw/odm/2003">
 <defs>
  <style type="text/css">
   <![CDATA[
    .fil0 {fill:#00A0E3}
   ]]>
  </style>
 </defs>
 <g id="Layer_x0020_1">
  <metadata id="CorelCorpID_0Corel-Layer"/>
  <path class="fil0" d="M9276 12680c-1940,2906 -3862,5820 -5802,8726 -392,584 -602,1057 -301,1859 756,2013 182,3771 -1448,5201 -1258,1093 -1194,1703 200,2605 683,437 1402,765 2203,920 2306,446 3918,-583 4519,-2851 884,-3316 2103,-6504 3790,-9501 428,-765 993,-1439 1758,-1903 929,-565 1831,-410 2468,492 857,1193 820,2441 137,3699 -1048,1930 -2505,3571 -3799,5328 -893,1212 -1630,2515 -2049,3954 -156,529 -374,1230 236,1612 611,374 1249,156 1813,-282 1503,-1139 2651,-2605 3735,-4117 1785,-2496 3543,-5010 3834,-8207 73,-838 128,-1667 182,-2505l19 17c-28,-4308 -1294,-8316 -2897,-12251 -346,-838 -711,-1676 -1048,-2514 -282,-701 -547,-774 -1001,-91 -2168,3280 -4364,6540 -6550,9811zm-6467 8881c1275,-1904 2551,-3808 3817,-5720 2943,-4427 5894,-8845 8836,-13272 491,-747 1084,-1485 401,-2568 -1475,2195 -2897,4299 -4309,6403 -3088,4636 -6167,9273 -9246,13910 -137,209 -282,418 -419,637 -191,319 -410,639 45,939 446,291 665,-19 874,-328zm56 -11204c1120,182 1967,911 2887,1494 428,273 847,556 1239,73 437,-556 -55,-866 -446,-1120 -1275,-838 -2487,-1804 -4126,-1822 -1549,18 -2715,1375 -2351,2742 110,409 264,801 793,719 483,-73 474,-455 483,-837 37,-1038 492,-1412 1522,-1249zm391 -3835c1430,1002 2897,1949 4345,2915 337,227 729,483 1038,0 292,-446 100,-819 -319,-1102 -1303,-865 -2605,-1730 -3907,-2596 -520,-346 -1002,-738 -1367,-1239 -683,-947 -564,-1412 501,-1940 356,-173 683,-355 602,-793 -82,-446 -456,-510 -856,-492l-8 9c-1139,10 -2168,1367 -1940,2551 219,1194 974,2022 1913,2687zm3234 -1758c783,947 1849,1521 2842,2186 346,228 765,364 1048,-100 264,-437 0,-765 -346,-1011 -738,-528 -1531,-993 -2205,-1593 -1202,-1075 -1111,-1750 255,-2515 337,-191 501,-437 374,-793 -127,-355 -446,-437 -801,-418 -1030,55 -1977,1129 -1977,2332l-18 10c73,665 346,1320 829,1904z"/>
 </g>
</svg>
