<?xml version="1.0" encoding="UTF-8"?>
<!DOCTYPE svg PUBLIC "-//W3C//DTD SVG 1.0//EN" "http://www.w3.org/TR/2001/REC-SVG-20010904/DTD/svg10.dtd">
<!-- Creator: CorelDRAW -->
<svg xmlns="http://www.w3.org/2000/svg" xml:space="preserve" width="10mm" height="7.5718mm" version="1.0" style="shape-rendering:geometricPrecision; text-rendering:geometricPrecision; image-rendering:optimizeQuality; fill-rule:evenodd; clip-rule:evenodd"
viewBox="0 0 52612 39837"
 xmlns:xlink="http://www.w3.org/1999/xlink"
 xmlns:xodm="http://www.corel.com/coreldraw/odm/2003">
 <defs>
  <style type="text/css">
   <![CDATA[
    .fil0 {fill:#00A0E3;fill-rule:nonzero}
   ]]>
  </style>
 </defs>
 <g id="Layer_x0020_1">
  <metadata id="CorelCorpID_0Corel-Layer"/>
  <path class="fil0" d="M51619 34863l-626 0 0 3981c0,274 -112,522 -291,702 -179,179 -429,291 -702,291l-5172 0c-216,0 -421,-72 -587,-193 -166,-122 -295,-296 -359,-502l-1344 -4279 -32465 0 -1344 4278c-65,206 -194,381 -359,502 -166,122 -371,193 -587,193l-5173 0c-274,0 -522,-112 -702,-291 -179,-179 -291,-428 -291,-702l0 -3981 -626 0c-273,0 -522,-112 -701,-291 -180,-178 -291,-428 -291,-701l0 -15454c0,-274 112,-522 291,-702 179,-179 428,-291 701,-291l28455 0c92,-821 297,-1617 609,-2369 436,-1052 1080,-2019 1908,-2847 828,-829 1795,-1473 2847,-1908 1052,-436 2190,-664 3362,-664 1172,0 2311,229 3362,665 1051,435 2018,1079 2847,1908 829,828 1472,1796 1908,2847 311,752 516,1548 608,2369l4720 0c274,0 522,112 701,291 180,179 291,428 291,701l0 15454c0,274 -112,523 -291,702 -179,179 -428,291 -701,291zm-35126 -5041l-10965 0c-273,0 -522,-112 -701,-291 -180,-179 -292,-428 -292,-702 0,-274 112,-522 291,-702 179,-179 428,-291 701,-291l10965 0c274,0 522,112 701,291 179,179 291,428 291,701 0,274 -112,523 -291,702 -179,180 -428,291 -701,291zm0 -5372l-10965 0c-274,0 -523,-112 -702,-291 -179,-178 -291,-428 -291,-701 0,-273 112,-522 291,-701 179,-179 428,-291 701,-291l10965 0c274,0 522,112 701,291 179,179 291,428 291,701 0,274 -112,523 -290,701 -179,179 -428,291 -702,291zm29063 13401l3451 0 0 -2988 -4389 0 939 2988zm-41952 0l3451 0 939 -2988 -4389 0 0 2988zm26039 -26973c-129,0 -259,-26 -380,-76 -117,-48 -227,-120 -322,-215l-3788 -3789c-194,-194 -291,-448 -291,-702 0,-253 97,-507 290,-701 194,-194 450,-291 702,-291 254,0 509,97 701,290l3789 3789c194,195 291,449 291,702 0,254 -97,508 -291,702 -94,94 -205,167 -322,215 -121,51 -251,76 -380,76zm17062 0c-128,0 -259,-26 -380,-76 -116,-47 -227,-121 -322,-215 -194,-194 -291,-448 -291,-702 0,-253 97,-508 290,-702l3790 -3789c194,-193 448,-290 702,-290 253,0 508,98 701,290 194,194 291,449 291,702 0,254 -98,509 -291,702l-3789 3789c-94,94 -205,167 -322,215 -121,51 -251,76 -380,76zm-8531 -3533c-274,0 -522,-112 -702,-291 -179,-179 -291,-428 -291,-702l0 -5359c0,-274 112,-522 291,-702 179,-179 429,-291 702,-291 274,0 523,112 702,291 179,179 291,428 291,702l0 5359c0,273 -112,522 -291,702 -179,179 -428,291 -702,291zm0 19854c-1172,0 -2310,-228 -3362,-664 -1052,-436 -2020,-1079 -2848,-1907 -829,-829 -1473,-1796 -1908,-2848 -311,-752 -517,-1548 -609,-2370l-27461 0 0 13469 612 0 12 0 6735 0 7 0 7 0 7 0 33876 0 7 0 7 0 7 0 6735 0 12 0 613 0 0 -13469 -3726 0c-92,821 -297,1618 -608,2369 -436,1052 -1079,2019 -1908,2848 -830,830 -1797,1473 -2848,1908 -1052,436 -2190,664 -3362,664zm0 -15578c-1874,0 -3574,763 -4804,1992 -1230,1230 -1992,2930 -1992,4803 0,1874 763,3574 1992,4804 1230,1230 2930,1992 4804,1992 1874,0 3573,-762 4803,-1992 1226,-1226 1987,-2919 1992,-4785l0 -6 0 -6 0 -7 0 -7 0 -6 0 -6c-5,-1866 -767,-3559 -1992,-4784 -1231,-1230 -2930,-1992 -4804,-1992zm0 11491c-1294,0 -2469,-528 -3319,-1377 -851,-850 -1377,-2025 -1377,-3319 0,-1294 527,-2468 1377,-3319 851,-849 2025,-1376 3319,-1376 1294,0 2468,527 3318,1376 850,851 1377,2025 1377,3319 0,1294 -527,2469 -1377,3319 -849,849 -2024,1377 -3318,1377zm0 -7405c-747,0 -1425,304 -1915,794 -490,490 -794,1168 -794,1915 0,747 304,1426 794,1916 490,490 1168,794 1915,794 747,0 1426,-305 1915,-794 490,-490 795,-1169 795,-1916 0,-747 -304,-1425 -794,-1915 -490,-490 -1168,-794 -1915,-794z"/>
 </g>
</svg>
