<?xml version="1.0" encoding="UTF-8"?>
<!DOCTYPE svg PUBLIC "-//W3C//DTD SVG 1.0//EN" "http://www.w3.org/TR/2001/REC-SVG-20010904/DTD/svg10.dtd">
<!-- Creator: CorelDRAW -->
<svg xmlns="http://www.w3.org/2000/svg" xml:space="preserve" width="10.2958mm" height="6.2898mm" version="1.0" style="shape-rendering:geometricPrecision; text-rendering:geometricPrecision; image-rendering:optimizeQuality; fill-rule:evenodd; clip-rule:evenodd"
viewBox="0 0 46133 28183"
 xmlns:xlink="http://www.w3.org/1999/xlink"
 xmlns:xodm="http://www.corel.com/coreldraw/odm/2003">
 <defs>
  <style type="text/css">
   <![CDATA[
    .fil0 {fill:#00A0E3;fill-rule:nonzero}
   ]]>
  </style>
 </defs>
 <g id="Layer_x0020_1">
  <metadata id="CorelCorpID_0Corel-Layer"/>
  <path class="fil0" d="M45914 18424c-135,135 -324,220 -530,220 -206,0 -394,-84 -529,-220 -135,-135 -220,-323 -220,-529l0 -6262c0,-289 -118,-552 -307,-741 -189,-190 -451,-307 -740,-307l-5679 0c817,894 1450,1914 1886,3006 461,1156 700,2393 700,3645 0,1275 -246,2506 -699,3642 -443,1109 -1084,2128 -1887,3008l5679 0c289,0 551,-117 740,-307 190,-189 307,-451 307,-740l0 -1800c0,-206 84,-394 220,-529 135,-136 324,-220 529,-220 206,0 394,84 529,220 135,135 219,323 219,529l0 1800c0,701 -285,1338 -746,1799 -460,460 -1097,746 -1798,746l-399 0 0 1243c0,429 -175,819 -457,1100 -282,282 -672,457 -1100,457l-3772 0c-429,0 -819,-174 -1100,-457 -281,-282 -457,-671 -457,-1100l0 -1243 -129 0c-799,544 -1683,975 -2626,1267 -919,284 -1896,438 -2905,438 -1010,0 -1986,-154 -2906,-438 -943,-292 -1827,-723 -2627,-1267l-15283 0 0 1243c0,429 -174,819 -457,1100 -282,282 -671,457 -1100,457l-3772 0c-429,0 -818,-174 -1100,-457 -281,-282 -457,-671 -457,-1100l0 -1243 -398 0c-700,0 -1338,-286 -1798,-746 -461,-461 -747,-1097 -747,-1799l0 -11206c0,-701 286,-1338 747,-1799 460,-461 1098,-746 1798,-746l2245 0c206,0 394,84 529,220 135,134 219,323 219,529 0,205 -84,393 -219,529 -136,135 -324,220 -529,220l-2245 0c-289,0 -551,117 -740,307 -190,189 -307,452 -307,741l0 797 6151 0c207,0 395,84 530,220 135,135 220,323 220,529 0,206 -84,393 -220,529 -135,135 -323,220 -530,220l-6151 0 0 1287 6151 0c207,0 395,85 530,220 135,134 220,323 220,528 0,206 -84,394 -220,529 -135,135 -323,220 -530,220l-6151 0 0 1287 6151 0c207,0 395,84 530,219 135,135 220,324 220,529 0,206 -84,394 -220,529 -135,134 -323,219 -530,219l-6151 0 0 1049 6151 0c207,0 395,85 530,220 135,135 220,324 220,530 0,206 -84,393 -220,529 -135,135 -323,220 -530,220l-6151 0 0 798c0,289 118,551 307,740 189,190 452,307 740,307l20833 0c-796,-872 -1442,-1891 -1888,-3010 -450,-1127 -699,-2357 -699,-3640 0,-1279 247,-2510 699,-3641 444,-1114 1088,-2133 1888,-3009l-15444 0c-206,0 -394,-85 -528,-219 -136,-135 -220,-324 -220,-530 0,-206 84,-394 220,-529 135,-135 323,-219 529,-219l17178 0c800,-544 1684,-976 2627,-1267 919,-284 1896,-438 2906,-438 1009,0 1986,154 2905,438 943,291 1827,723 2626,1267l7414 0c701,0 1338,285 1798,746 461,460 746,1098 746,1799l0 6262c0,207 -84,394 -219,529zm-37599 8246c10,-10 17,-26 17,-43l0 -1243 -3891 0 0 1243c0,17 7,33 17,43 10,10 26,17 43,17l3772 0c17,0 33,-7 43,-17zm14392 -6829c278,844 688,1639 1211,2347 773,1053 1790,1914 2961,2507 1134,574 2416,897 3765,897 2308,0 4393,-938 5902,-2447 1516,-1516 2452,-3610 2452,-5908 0,-2305 -938,-4393 -2449,-5904 -1514,-1514 -3604,-2451 -5905,-2451 -2310,0 -4394,939 -5902,2447 -1518,1518 -2454,3613 -2454,5908 0,895 146,1775 419,2606zm18986 6786l0 -1243 -3891 0 0 1243c0,17 7,33 17,43 10,10 26,17 43,17l3772 0c16,0 32,-7 43,-17 10,-10 17,-26 17,-43zm-7914 -13045c434,434 703,1034 703,1695 0,147 -14,292 -40,434 -24,135 -62,268 -108,395 54,176 95,356 122,538 28,191 43,384 43,575 0,1062 -433,2028 -1131,2725 -698,698 -1662,1131 -2725,1131 -1062,0 -2027,-433 -2725,-1131 -699,-699 -1131,-1664 -1131,-2725 0,-1062 433,-2027 1131,-2725 699,-699 1663,-1131 2725,-1131 200,-151 426,-273 668,-355 242,-82 502,-128 772,-128 661,0 1261,269 1696,703zm-1058 2330c162,-162 264,-386 264,-636 0,-249 -101,-474 -264,-637 -163,-163 -389,-264 -638,-264 -249,0 -474,102 -637,264 -163,163 -264,389 -264,637 0,249 102,475 264,637 163,164 388,264 637,264 246,0 474,-102 638,-266zm-3745 2972c427,427 1017,692 1667,692 622,0 1189,-242 1610,-636 396,-370 666,-876 733,-1442 -414,170 -838,215 -1237,157 -399,-58 -775,-218 -1092,-453 -318,-236 -578,-549 -749,-915 -172,-366 -254,-785 -212,-1230 -402,177 -747,465 -994,822 -263,379 -417,841 -417,1338 0,651 264,1240 691,1667zm8592 -10944c-188,33 -389,-5 -559,-124l-8 -5c-164,-119 -268,-293 -301,-479 -32,-187 6,-389 124,-558l2473 -3532c118,-169 295,-275 483,-308 187,-33 389,6 558,125 169,118 275,294 308,483 33,188 -6,390 -125,559l-2473 3531c-118,169 -295,275 -483,308zm-13849 0c-189,-33 -366,-139 -483,-308l-2473 -3531c-118,-169 -157,-371 -124,-559 33,-188 139,-364 308,-483 169,-119 371,-157 559,-125 188,33 365,139 483,308l2473 3531c119,169 157,371 124,559 -33,188 -139,365 -307,483 -169,118 -371,156 -559,124zm7453 -2351c-135,135 -323,220 -529,220 -206,0 -395,-84 -530,-220 -135,-135 -219,-322 -219,-529l0 -4311c0,-206 84,-394 220,-529 134,-135 324,-220 529,-220 206,0 394,84 529,220 135,135 220,323 220,529l0 4311c0,206 -85,394 -220,529zm10833 13410l898 0c206,0 394,84 529,220 135,135 220,323 220,528 0,206 -84,394 -219,530 -135,135 -324,220 -529,220l-898 0c-206,0 -394,-84 -529,-220 -135,-135 -220,-324 -220,-530 0,-206 85,-393 220,-529 135,-135 323,-220 529,-220zm0 -2546l898 0c206,0 394,84 529,220 135,135 219,323 219,529 0,205 -84,393 -219,528 -136,135 -324,220 -529,220l-898 0c-206,0 -394,-85 -529,-220 -135,-135 -220,-323 -220,-529 0,-206 85,-394 220,-530 135,-135 323,-220 529,-220zm0 -2546l898 0c206,0 394,84 529,220 135,134 220,323 220,529 0,205 -84,393 -219,529 -136,135 -324,220 -529,220l-898 0c-206,0 -394,-84 -529,-219 -135,-135 -220,-324 -220,-529 0,-206 85,-395 220,-530 135,-135 323,-219 529,-219zm-16484 -1794c1312,-1313 3125,-2126 5122,-2126 1997,0 3810,813 5122,2126 1312,1312 2126,3124 2126,5122 0,1997 -813,3810 -2125,5122 -1312,1313 -3125,2126 -5122,2126 -1997,0 -3810,-813 -5122,-2126 -1312,-1312 -2126,-3125 -2126,-5122 0,-1998 813,-3810 2126,-5122zm1057 9187c1041,1041 2479,1686 4065,1686 1585,0 3024,-646 4064,-1686 1041,-1041 1686,-2479 1686,-4065 0,-1585 -645,-3023 -1686,-4065 -1040,-1040 -2479,-1686 -4064,-1686 -1586,0 -3024,645 -4065,1686 -1041,1041 -1686,2479 -1686,4065 0,1586 645,3024 1686,4065z"/>
 </g>
</svg>
