<?xml version="1.0" encoding="UTF-8"?>
<!DOCTYPE svg PUBLIC "-//W3C//DTD SVG 1.0//EN" "http://www.w3.org/TR/2001/REC-SVG-20010904/DTD/svg10.dtd">
<!-- Creator: CorelDRAW -->
<svg xmlns="http://www.w3.org/2000/svg" xml:space="preserve" width="9mm" height="9.0235mm" version="1.0" style="shape-rendering:geometricPrecision; text-rendering:geometricPrecision; image-rendering:optimizeQuality; fill-rule:evenodd; clip-rule:evenodd"
viewBox="0 0 29881 29959"
 xmlns:xlink="http://www.w3.org/1999/xlink"
 xmlns:xodm="http://www.corel.com/coreldraw/odm/2003">
 <defs>
  <style type="text/css">
   <![CDATA[
    .fil0 {fill:#00A0E3}
   ]]>
  </style>
 </defs>
 <g id="Layer_x0020_1">
  <metadata id="CorelCorpID_0Corel-Layer"/>
  <path class="fil0" d="M7259 1597c0,520 396,984 717,1309l4517 4599 -10383 0c-1038,-4 -2110,200 -2110,1435l0 19752c0,538 729,1266 1266,1266l27349 0c538,0 1266,-729 1266,-1266l0 -19836c0,-382 -364,-890 -623,-1065 -443,-299 -787,-289 -1487,-286l-10467 0c1613,-1629 3306,-3256 4877,-4914 1365,-1442 -737,-3438 -2001,-2208l-5280 5138 -4555 -4563c-432,-433 -627,-787 -1370,-881 -983,-150 -1717,500 -1717,1519zm18077 13419c832,0 1506,-674 1506,-1505 0,-832 -674,-1506 -1506,-1506 -831,0 -1505,674 -1505,1506 0,831 674,1505 1505,1505zm0 5994c832,0 1506,-674 1506,-1505 0,-832 -674,-1506 -1506,-1506 -831,0 -1505,674 -1505,1506 0,831 674,1505 1505,1505zm-22330 -10499l17785 0 0 16442 -17785 0 0 -16442z"/>
 </g>
</svg>
