<?xml version="1.0" encoding="UTF-8"?>
<!DOCTYPE svg PUBLIC "-//W3C//DTD SVG 1.0//EN" "http://www.w3.org/TR/2001/REC-SVG-20010904/DTD/svg10.dtd">
<!-- Creator: CorelDRAW -->
<svg xmlns="http://www.w3.org/2000/svg" xml:space="preserve" width="9.2mm" height="9.1987mm" version="1.0" style="shape-rendering:geometricPrecision; text-rendering:geometricPrecision; image-rendering:optimizeQuality; fill-rule:evenodd; clip-rule:evenodd"
viewBox="0 0 27227 27223"
 xmlns:xlink="http://www.w3.org/1999/xlink"
 xmlns:xodm="http://www.corel.com/coreldraw/odm/2003">
 <defs>
  <style type="text/css">
   <![CDATA[
    .fil0 {fill:#00A0E3;fill-rule:nonzero}
   ]]>
  </style>
 </defs>
 <g id="Layer_x0020_1">
  <metadata id="CorelCorpID_0Corel-Layer"/>
  <path class="fil0" d="M26364 14674c-583,-5947 -24919,-5944 -25502,0 -226,510 -862,2117 -862,4040 0,2150 796,3907 924,4175 1086,2634 6059,4334 12690,4334 6835,0 11631,-2215 12674,-4302 38,-77 940,-1919 940,-4207 0,-1923 -636,-3530 -862,-4040zm-17272 -11108c2494,-2494 6530,-2494 9024,0 332,333 871,333 1203,0 332,-332 332,-871 0,-1203 -3151,-3151 -8279,-3151 -11431,0 -332,332 -332,871 0,1203 332,333 871,333 1203,0zm7220 2656c751,0 1139,-915 602,-1453 -1829,-1829 -4789,-1829 -6618,0 -332,333 -332,871 0,1204 332,332 871,332 1203,0 1164,-1164 3048,-1164 4211,0 166,166 384,249 602,249zm-1431 1856c0,-705 -571,-1276 -1276,-1276 -705,0 -1276,571 -1276,1276 0,705 571,1276 1276,1276 705,0 1276,-571 1276,-1276zm4263 7658l212 0c470,0 851,-381 851,-851 0,-470 -381,-851 -851,-851l-212 0c-470,0 -851,381 -851,851 0,470 381,851 851,851zm-11274 0l212 0c470,0 851,-381 851,-851 0,-470 -381,-851 -851,-851l-212 0c-470,0 -851,381 -851,851 0,470 381,851 851,851zm5637 1702l213 0c470,0 851,-381 851,-851 0,-470 -381,-851 -851,-851l-213 0c-470,0 -851,381 -851,851 0,470 381,851 851,851zm0 -3403l213 0c470,0 851,-381 851,-851 0,-470 -381,-851 -851,-851l-213 0c-470,0 -851,381 -851,851 0,470 381,851 851,851zm2659 8508l-5105 0c-470,0 -851,381 -851,851 0,470 381,851 851,851l5105 0c470,0 851,-381 851,-851 0,-470 -381,-851 -851,-851zm-10715 -9554c4486,-1442 11838,-1442 16325,0 2288,735 2898,1539 2898,1897 0,359 -610,1162 -2898,1897 -4486,1442 -11838,1442 -16325,0 -2288,-735 -2898,-1538 -2898,-1897 0,-359 610,-1162 2898,-1897zm19313 9174c-586,1171 -4457,3358 -11150,3358 -3045,0 -5753,-371 -7832,-1072 -1764,-595 -2963,-1405 -3290,-2222 -8,-20 -18,-41 -27,-61 -8,-16 -763,-1577 -763,-3452 0,-668 96,-1296 220,-1829 4213,3566 19167,3570 23384,0 124,533 220,1160 220,1829 0,1875 -755,3436 -761,3448z"/>
 </g>
</svg>
