<?xml version="1.0" encoding="UTF-8"?>
<!DOCTYPE svg PUBLIC "-//W3C//DTD SVG 1.0//EN" "http://www.w3.org/TR/2001/REC-SVG-20010904/DTD/svg10.dtd">
<!-- Creator: CorelDRAW -->
<svg xmlns="http://www.w3.org/2000/svg" xml:space="preserve" width="6.6975mm" height="10mm" version="1.0" style="shape-rendering:geometricPrecision; text-rendering:geometricPrecision; image-rendering:optimizeQuality; fill-rule:evenodd; clip-rule:evenodd"
viewBox="0 0 12694 18953"
 xmlns:xlink="http://www.w3.org/1999/xlink"
 xmlns:xodm="http://www.corel.com/coreldraw/odm/2003">
 <defs>
  <style type="text/css">
   <![CDATA[
    .fil0 {fill:#00A0E3}
   ]]>
  </style>
 </defs>
 <g id="Layer_x0020_1">
  <metadata id="CorelCorpID_0Corel-Layer"/>
  <path class="fil0" d="M850 10622l-56 -45 -1 5132c-5,575 -7,817 577,1258 411,310 1087,578 1804,780 874,245 1807,392 2400,399l181 -2c76,-2 153,-3 227,-1 95,3 145,13 193,23 44,9 86,18 172,18 84,0 131,-9 180,-18 56,-10 116,-21 222,-23l185 2c74,1 149,3 221,1 145,-4 311,-25 476,-45 93,-12 187,-23 287,-33 404,-37 885,-129 1354,-250 478,-124 946,-278 1311,-438 130,-57 271,-124 407,-199 135,-74 265,-157 373,-245 117,-94 227,-185 317,-292 88,-104 159,-225 201,-381 54,-202 31,-3897 22,-5294l-2 -392 -58 46c-27,23 -59,50 -117,90l-134 92 -133 86c-96,60 -187,114 -280,165 -94,52 -191,101 -298,150 -184,86 -397,170 -618,247 -244,85 -495,161 -727,223 -541,144 -975,225 -1405,274 -429,49 -854,66 -1378,82 -74,2 -127,11 -179,20 -65,11 -129,21 -226,21 -107,0 -169,-11 -232,-21 -55,-9 -112,-19 -208,-20 -714,-9 -1492,-81 -2246,-234 -662,-134 -1306,-331 -1873,-603l-151 -75 -143 -81 -549 -341c-45,-33 -72,-56 -96,-76zm6679 4650l0 -330c0,-150 101,-277 231,-335 51,-23 107,-35 162,-35 57,0 115,14 168,44 130,73 233,242 233,547 0,236 -115,387 -257,454 -52,24 -108,38 -163,39 -55,2 -111,-9 -161,-30 -121,-53 -213,-171 -213,-353zm-2 -1853l2 -93c0,-69 47,-151 109,-213 63,-63 144,-110 214,-110 246,0 389,139 450,319 23,68 34,142 33,216 0,73 -12,147 -33,215 -59,188 -192,338 -377,338 -357,0 -401,-288 -401,-552l2 -119zm-2913 3757c-135,-70 -244,-230 -244,-508 0,-154 34,-294 111,-394 71,-93 177,-150 323,-150 326,0 362,327 363,569l-3 159c0,159 -97,279 -223,334 -50,21 -106,33 -161,32 -56,-1 -113,-14 -165,-41zm-1 -1559c-135,-69 -243,-226 -243,-492 0,-120 25,-270 84,-380 52,-97 130,-164 240,-164 478,0 476,168 471,567l-1 124c0,172 -97,297 -224,353 -50,22 -106,34 -162,33 -56,-1 -113,-14 -165,-41zm-1787 -2597l2 -98c0,-109 45,-208 117,-280 72,-72 171,-117 280,-117 196,0 320,145 372,330 20,67 29,141 29,213 0,72 -10,146 -29,213 -52,186 -176,331 -372,331 -356,0 -401,-237 -401,-481l2 -111zm1 1506l1 -62c0,-107 36,-197 100,-260 64,-63 154,-100 261,-100 218,0 354,142 412,324 22,68 33,142 32,215 0,73 -12,147 -33,215 -60,187 -198,334 -411,334 -326,0 -363,-327 -363,-569l2 -97zm6478 2185c-131,-70 -234,-233 -234,-521 0,-266 107,-423 243,-492 52,-27 109,-40 165,-41 55,-1 111,11 162,33 127,56 224,180 224,353l0 331c0,159 -102,286 -232,344 -51,23 -107,35 -162,35 -57,0 -114,-13 -167,-42zm-3355 -1531l0 -55c0,-109 45,-208 117,-280 72,-72 171,-117 280,-117 202,0 328,142 382,324 20,67 30,141 29,213 0,73 -11,147 -30,214 -55,188 -183,336 -381,336 -403,0 -400,-369 -397,-635zm4701 312l0 -36c0,-111 47,-219 119,-299 73,-81 173,-135 278,-135 205,0 327,152 378,343 18,67 27,141 27,213 0,72 -8,144 -24,210 -45,182 -150,322 -308,322 -471,0 -470,-203 -470,-618zm-9402 0l0 -36c0,-111 47,-219 119,-299 73,-81 173,-135 278,-135 205,0 326,152 377,343 18,67 27,141 27,213 0,72 -8,144 -24,210 -44,182 -150,322 -308,322 -471,0 -470,-203 -470,-618zm6279 1146l2 -117c0,-109 45,-209 117,-281 72,-72 172,-117 280,-117 196,0 320,145 372,330 19,67 29,141 29,213 0,72 -10,146 -29,213 -52,186 -177,331 -373,331 -358,0 -400,-200 -400,-465l2 -108zm-6279 -4227l0 -40c0,-135 34,-255 103,-340 67,-82 165,-131 294,-131 198,0 326,148 381,336 20,67 30,141 30,214 0,73 -9,146 -29,213 -53,183 -180,324 -382,324 -404,0 -400,-361 -397,-577zm9402 0l0 -40c0,-135 34,-255 103,-340 67,-82 165,-131 293,-131 198,0 327,148 381,336 20,67 30,141 30,214 0,73 -9,146 -29,213 -53,183 -180,324 -382,324 -404,0 -399,-361 -397,-577zm-1345 1166c-131,-67 -234,-222 -234,-508 0,-157 32,-297 108,-396 71,-92 177,-147 326,-147 324,0 363,324 363,577l-3 187c0,129 -103,244 -235,296 -50,20 -105,31 -159,31 -56,0 -113,-12 -165,-39zm-6478 2797l0 -331c0,-46 8,-91 22,-132 27,-78 78,-142 141,-186 62,-44 138,-69 215,-69 39,0 80,6 120,20 115,40 190,112 236,210 43,92 60,206 60,339 0,264 -105,418 -238,485 -53,26 -109,39 -165,39 -56,0 -111,-11 -161,-33 -129,-56 -230,-180 -230,-344zm6477 -1225c-131,-69 -233,-227 -233,-501 0,-146 28,-290 99,-392 64,-93 161,-152 298,-152 358,0 400,200 400,465l-3 226c0,171 -102,300 -232,360 -51,23 -107,35 -162,35 -57,0 -114,-13 -166,-41zm-4707 -1098c-128,-69 -227,-227 -227,-505 0,-146 28,-290 99,-392 64,-93 160,-152 298,-152 356,0 401,237 401,481l-4 209c0,168 -104,301 -237,362 -51,24 -107,37 -163,37 -57,0 -114,-13 -167,-41zm1352 2910l0 -257c0,-196 104,-322 236,-378 51,-21 106,-32 161,-32 55,0 110,11 161,33 132,55 236,182 236,378l0 257c0,196 -104,322 -236,378 -51,21 -106,32 -161,32 -55,0 -110,-11 -161,-32 -133,-56 -236,-182 -236,-378zm63 -2898c-60,-107 -63,-253 -63,-444 0,-66 7,-128 23,-184 16,-56 40,-105 73,-145 15,-17 31,-34 49,-49 72,-59 162,-89 252,-89 89,0 180,30 251,89 18,15 35,32 49,49 65,79 102,236 102,397 0,92 -12,189 -37,272 -27,89 -69,167 -129,217 -45,37 -99,59 -163,59 -225,0 -343,-59 -407,-174zm4638 -154l0 -33c0,-166 65,-267 160,-327 89,-55 202,-71 310,-71 155,0 262,147 308,333 16,67 25,140 25,211 0,72 -9,146 -27,212 -50,186 -171,331 -380,331 -398,0 -397,-378 -397,-658zm-9402 0l0 -33c0,-166 65,-267 160,-327 89,-55 202,-71 310,-71 155,0 263,147 308,333 16,67 25,140 25,211 0,72 -9,146 -27,212 -50,186 -171,331 -380,331 -399,0 -398,-378 -397,-658zm5129 -11866c-353,3 -722,6 -722,-434 0,-318 236,-371 557,-371l218 5c78,3 159,5 246,5 154,0 278,98 334,225 22,51 34,107 34,162 -1,57 -15,114 -44,167 -73,134 -243,240 -544,240l-79 0zm3954 1253c-348,0 -599,-47 -599,-437 0,-318 257,-372 563,-372l422 12c186,0 313,99 369,227 22,51 33,107 33,162 -1,56 -13,112 -37,164 -63,135 -207,241 -438,241l-312 4zm-8170 0c-353,0 -583,-51 -583,-475 0,-285 341,-333 668,-333 82,0 162,3 234,5l157 4c139,0 250,105 300,239 19,50 29,104 29,158 0,55 -11,110 -34,162 -59,132 -197,234 -442,234l-328 4zm4072 1251c-373,0 -578,-55 -578,-476 0,-286 336,-331 645,-331l340 8c194,0 317,101 370,232 21,50 31,106 31,160 0,55 -11,110 -31,160 -56,135 -180,241 -369,241l-407 6zm-410 -4546l1049 0c643,24 1281,92 1892,205 596,110 1165,261 1687,455 506,187 1175,522 1648,982 349,339 593,747 593,1216l0 13222c0,571 -349,1037 -806,1403 -449,359 -1006,622 -1434,795 -481,193 -1012,343 -1572,451 -588,114 -1209,183 -1837,209 -292,21 -917,21 -1209,0 -495,-20 -986,-66 -1458,-134 -472,-68 -928,-160 -1353,-272 -631,-167 -1560,-518 -2220,-1047 -470,-377 -805,-845 -805,-1404l0 -13222c0,-135 33,-286 81,-428 57,-171 138,-331 209,-434 38,-56 60,-80 85,-108l87 -108c24,-32 47,-62 78,-97 175,-190 429,-378 706,-544 328,-197 691,-367 996,-479 522,-193 1092,-345 1688,-455 611,-112 1249,-181 1892,-205l2 0zm-4847 4430l-183 -125 0 4687c-1,167 2,277 20,367 18,87 52,161 115,259 52,80 103,149 159,212 56,62 118,118 193,175 1096,833 3088,1259 5084,1259 1968,0 3936,-414 5048,-1259 73,-56 139,-115 200,-181 60,-67 114,-141 161,-227 128,-229 128,-286 126,-617l0 -4680 -1019 626c-985,472 -2341,749 -3724,833 -1443,87 -2920,-35 -4037,-362l-354 -108 -347 -112c-691,-228 -992,-435 -1443,-745zm42 -2144c-141,178 -225,394 -225,682 0,384 356,713 788,971 445,266 969,456 1282,560 1216,404 2841,574 4414,467 1445,-98 2846,-430 3845,-1027 218,-130 414,-277 555,-458 138,-178 223,-391 223,-660 0,-411 -377,-752 -835,-1016 -471,-272 -1028,-462 -1363,-569 -434,-139 -921,-248 -1419,-323 -504,-76 -1017,-118 -1496,-118 -116,0 -185,-12 -251,-22 -54,-9 -106,-18 -189,-18 -80,0 -139,9 -200,18 -74,11 -152,23 -277,22 -463,-2 -623,20 -880,55 -114,15 -247,34 -436,54 -480,51 -1055,173 -1604,343 -502,155 -981,351 -1343,568 -239,144 -445,290 -589,472z"/>
 </g>
</svg>
