<?xml version="1.0" encoding="UTF-8"?>
<!DOCTYPE svg PUBLIC "-//W3C//DTD SVG 1.0//EN" "http://www.w3.org/TR/2001/REC-SVG-20010904/DTD/svg10.dtd">
<!-- Creator: CorelDRAW -->
<svg xmlns="http://www.w3.org/2000/svg" xml:space="preserve" width="9mm" height="8.9528mm" version="1.0" style="shape-rendering:geometricPrecision; text-rendering:geometricPrecision; image-rendering:optimizeQuality; fill-rule:evenodd; clip-rule:evenodd"
viewBox="0 0 20712 20604"
 xmlns:xlink="http://www.w3.org/1999/xlink"
 xmlns:xodm="http://www.corel.com/coreldraw/odm/2003">
 <defs>
  <style type="text/css">
   <![CDATA[
    .fil0 {fill:#00A0E3;fill-rule:nonzero}
   ]]>
  </style>
 </defs>
 <g id="Layer_x0020_1">
  <metadata id="CorelCorpID_0Corel-Layer"/>
  <path class="fil0" d="M6490 18885c-73,0 -144,-15 -208,-42 -67,-28 -127,-69 -177,-118 -50,-50 -91,-110 -118,-177 -27,-64 -42,-135 -42,-208 0,-73 15,-143 41,-208 28,-67 68,-127 118,-177 50,-50 111,-91 177,-118 64,-27 135,-42 208,-42l7732 0c73,0 144,15 208,41 66,28 127,68 177,118 49,50 90,110 118,177 27,64 42,135 42,209 0,73 -15,144 -42,208 -28,67 -69,127 -118,177 -99,99 -235,160 -385,160l-7732 0zm-1753 -5027c-73,0 -144,-15 -208,-41 -67,-28 -127,-69 -176,-118l-7 -6 0 885c28,7 55,17 81,28 62,28 119,67 166,114 51,51 92,111 119,177 17,41 29,84 35,128l130 -1166 -140 0zm-391 -923l6 -6c50,-51 111,-91 177,-119 64,-27 135,-42 208,-42l11238 0c73,0 143,15 207,41 67,27 128,68 177,118l6 7 0 -483 -12020 0 0 483zm12020 757l-6 6c-50,50 -111,91 -177,119 -64,27 -135,42 -208,42l-141 0 130 1168c6,-45 19,-89 36,-130 27,-67 68,-127 118,-176 48,-48 105,-87 167,-114 26,-12 53,-21 81,-28l0 -886zm-371 1607l529 4760c0,72 -15,142 -41,207 -27,67 -68,127 -118,177 -49,50 -110,91 -177,119 -64,27 -135,42 -208,42l-11315 -5c-70,-9 -137,-31 -197,-65 -61,-34 -116,-81 -159,-134 -44,-55 -78,-119 -98,-189 -20,-67 -27,-139 -19,-211l524 -4699 -5 11c-27,67 -68,127 -118,177 -49,50 -110,91 -177,119 -64,27 -135,42 -208,42l-407 0c-73,0 -144,-15 -208,-42 -67,-28 -127,-69 -177,-118 -50,-50 -91,-110 -118,-177 -27,-64 -42,-135 -42,-208l0 -3197c0,-72 15,-143 41,-207 27,-67 68,-128 118,-177 49,-49 110,-90 177,-118 64,-27 135,-42 208,-42l13109 0c73,0 143,15 208,41 67,27 127,68 177,118 50,49 91,110 119,177 27,64 42,135 42,208l0 3197c0,72 -15,143 -41,207 -27,67 -68,127 -118,177 -99,99 -235,160 -385,160l-407 0c-72,0 -143,-15 -207,-41 -67,-28 -128,-68 -177,-118 -50,-50 -91,-110 -118,-177l-6 -14zm-1254 -1441l-8770 0 -631 5656 10031 0 -631 -5656zm-7917 1824c-72,0 -143,-15 -207,-41 -67,-27 -127,-68 -177,-118 -51,-50 -91,-111 -119,-177 -27,-64 -42,-135 -42,-208 0,-73 15,-144 41,-208 28,-67 69,-127 118,-176 51,-51 111,-92 177,-119 65,-26 136,-42 208,-42l7065 0c73,0 144,15 208,41 66,27 126,68 176,118 50,49 91,110 119,177 27,64 42,135 42,208 0,72 -15,143 -41,207 -27,67 -68,127 -118,177 -50,50 -110,91 -177,119 -64,27 -135,42 -208,42l-7065 0zm-163 1601c-72,0 -143,-15 -208,-41 -67,-28 -127,-68 -177,-118 -50,-50 -91,-111 -118,-177 -27,-64 -41,-135 -41,-208 0,-73 15,-144 41,-208 28,-67 69,-127 118,-176 51,-50 112,-91 177,-119 65,-26 136,-42 208,-42l7391 0c73,0 144,15 208,41 66,28 126,68 176,118 50,49 91,110 119,177 27,64 42,135 42,208 0,73 -15,143 -41,208 -27,66 -68,127 -118,177 -50,50 -110,91 -177,119 -64,27 -135,42 -209,42l-7391 0zm9485 -11075c0,72 -15,143 -42,207 -27,67 -68,127 -118,177 -51,51 -111,91 -177,119l-46 17 2675 0c151,0 299,15 442,44 146,29 289,73 425,130 137,57 269,128 393,211 125,84 241,179 345,283l9 8c104,105 198,221 281,344 81,122 152,252 208,388 56,135 100,277 129,425 29,143 44,291 44,441l0 6574c0,150 -15,298 -43,441 -30,148 -74,291 -130,426 -57,137 -128,269 -211,392 -84,125 -179,241 -284,346l-8 8c-105,104 -220,198 -344,280 -123,82 -253,152 -389,209 -132,55 -272,98 -417,127 -138,28 -281,44 -428,45 -486,42 -1169,1 -1677,1 -72,0 -143,-15 -208,-41 -67,-28 -127,-68 -177,-118 -50,-51 -91,-111 -118,-177 -26,-65 -41,-136 -41,-208 0,-72 15,-143 41,-207 27,-67 68,-127 118,-177 51,-51 112,-91 177,-119 65,-26 136,-42 208,-42l1663 0c75,0 152,-9 226,-23 75,-14 149,-38 218,-66l3 -1c71,-30 139,-67 202,-109 63,-42 124,-92 180,-148l7 -6c53,-54 102,-114 145,-177 42,-64 79,-131 108,-202 29,-70 52,-145 67,-221 15,-75 23,-153 23,-232l0 -6574c0,-79 -8,-157 -23,-232 -15,-76 -38,-150 -67,-220l-1 -3c-30,-72 -67,-140 -109,-202 -42,-63 -92,-123 -148,-179l-6 -7c-54,-52 -114,-101 -178,-144 -63,-42 -131,-79 -201,-108 -71,-29 -145,-52 -221,-67 -75,-15 -152,-23 -232,-23l-16163 0c-79,0 -156,8 -231,23 -77,15 -152,38 -221,67l-3 1c-72,30 -140,67 -203,109 -63,42 -124,93 -178,147l-4 4c-55,56 -105,116 -147,180 -42,63 -79,132 -108,202 -29,71 -52,145 -67,221 -15,75 -23,153 -23,232l0 6574c0,79 8,157 23,232 15,76 38,151 67,220l1 3c29,71 66,139 109,202 42,63 92,124 148,179l6 7c54,53 114,102 178,145 63,42 131,79 202,108 70,29 144,52 217,67 74,15 151,23 227,24 440,-46 1189,0 1663,0 73,0 144,15 208,41 66,27 126,68 177,118 51,51 91,111 119,177 27,64 42,135 42,209 0,73 -15,144 -41,208 -28,66 -69,127 -118,176 -50,50 -110,91 -177,119 -64,27 -135,42 -209,42 -508,0 -1191,41 -1677,-1 -147,-1 -290,-17 -428,-45 -145,-29 -286,-73 -417,-128 -138,-57 -269,-128 -392,-210 -125,-84 -241,-179 -346,-284l-9 -8c-104,-105 -198,-220 -280,-344 -82,-123 -152,-253 -209,-389 -56,-134 -100,-277 -129,-425 -29,-143 -44,-291 -44,-441l0 -6574c0,-151 15,-299 44,-441 29,-147 73,-290 130,-426 56,-137 127,-268 210,-392 84,-125 179,-241 284,-347l8 -8c105,-104 221,-198 345,-281 122,-81 252,-151 388,-208 136,-57 279,-101 425,-130 143,-28 291,-44 442,-44l2676 0 -47 -17c-67,-27 -127,-68 -177,-118 -51,-51 -92,-111 -119,-177 -26,-65 -42,-136 -42,-208l0 -5665c0,-73 15,-144 41,-208 27,-66 68,-126 118,-176 50,-50 110,-91 177,-119 64,-27 135,-42 208,-42l10489 0c73,0 143,15 208,41 67,27 127,68 177,118 50,51 91,111 118,177 27,64 42,135 42,208l0 5665zm-706 520l-47 -17c-67,-27 -127,-68 -176,-118 -50,-50 -91,-110 -119,-177 -27,-64 -42,-135 -42,-208l0 -5120 -9400 0 0 5120c0,73 -15,144 -42,208 -28,67 -68,127 -118,177 -51,50 -111,91 -177,118l-47 17 10167 0zm-8430 3878c-137,137 -301,248 -483,323 -175,73 -368,113 -568,113 -200,0 -393,-40 -569,-113 -182,-75 -347,-186 -484,-323 -137,-137 -248,-301 -323,-483 -72,-176 -113,-369 -113,-569 0,-200 40,-392 113,-567 74,-179 183,-341 318,-478l7 -7c137,-137 302,-248 483,-323 175,-72 367,-113 567,-113 200,0 393,40 568,113 182,75 347,186 484,323 137,137 247,301 323,483 73,176 113,369 113,569 0,201 -40,393 -113,568 -76,182 -186,346 -323,483zm-1051 -483c78,0 152,-15 218,-43 69,-28 132,-71 185,-123 52,-52 94,-116 123,-185 27,-67 43,-141 43,-218 0,-77 -16,-151 -43,-217 -29,-70 -72,-133 -124,-185 -103,-102 -245,-166 -402,-166 -78,0 -152,15 -219,43 -70,29 -132,70 -183,122 -52,52 -95,116 -124,185 -28,67 -43,140 -43,218 0,77 15,151 43,217 28,69 71,132 124,185 52,52 115,95 185,123 66,27 140,43 217,43zm-2065 483c-137,137 -301,248 -483,323 -175,73 -368,113 -568,113 -200,0 -393,-40 -569,-113 -182,-75 -347,-186 -483,-323 -137,-137 -248,-301 -323,-483 -72,-176 -113,-368 -113,-569 0,-200 40,-392 113,-567 75,-182 186,-345 322,-482l2 -3c137,-137 302,-248 483,-323 175,-72 367,-113 568,-113 200,0 393,40 568,113 182,75 347,186 484,323 137,137 247,301 323,483 72,176 113,369 113,569 0,201 -40,393 -113,568 -75,181 -186,345 -324,483zm-1051 -483c77,0 151,-15 217,-43 70,-28 133,-70 185,-122 52,-52 94,-115 123,-185 27,-67 43,-141 43,-218 0,-77 -15,-151 -43,-217 -29,-69 -71,-132 -124,-185 -52,-52 -116,-95 -185,-124 -66,-27 -140,-43 -217,-43 -78,0 -152,15 -219,43 -69,28 -131,70 -183,123 -53,52 -95,115 -124,184 -28,67 -43,141 -43,219 0,77 15,151 43,217 29,69 71,132 124,185 52,52 115,95 185,123 66,27 140,43 217,43z"/>
 </g>
</svg>
