<?xml version="1.0" encoding="UTF-8"?>
<!DOCTYPE svg PUBLIC "-//W3C//DTD SVG 1.0//EN" "http://www.w3.org/TR/2001/REC-SVG-20010904/DTD/svg10.dtd">
<!-- Creator: CorelDRAW -->
<svg xmlns="http://www.w3.org/2000/svg" xml:space="preserve" width="8.75mm" height="8.75mm" version="1.0" style="shape-rendering:geometricPrecision; text-rendering:geometricPrecision; image-rendering:optimizeQuality; fill-rule:evenodd; clip-rule:evenodd"
viewBox="0 0 5.78 5.78"
 xmlns:xlink="http://www.w3.org/1999/xlink"
 xmlns:xodm="http://www.corel.com/coreldraw/odm/2003">
 <defs>
  <style type="text/css">
   <![CDATA[
    .fil0 {fill:#00AFEF;fill-rule:nonzero}
   ]]>
  </style>
 </defs>
 <g id="Layer_x0020_1">
  <metadata id="CorelCorpID_0Corel-Layer"/>
  <path class="fil0" d="M2.89 0c0.8,0 1.52,0.32 2.04,0.85 0.52,0.52 0.85,1.24 0.85,2.04 0,0.8 -0.32,1.52 -0.85,2.04 -0.52,0.52 -1.24,0.85 -2.04,0.85 -0.8,0 -1.52,-0.32 -2.04,-0.85 -0.52,-0.52 -0.85,-1.24 -0.85,-2.04 0,-0.8 0.32,-1.52 0.85,-2.04 0.52,-0.52 1.24,-0.85 2.04,-0.85zm1.69 1.2c-0.43,-0.43 -1.03,-0.7 -1.69,-0.7 -0.66,0 -1.26,0.27 -1.69,0.7 -0.43,0.43 -0.7,1.03 -0.7,1.69 0,0.66 0.27,1.26 0.7,1.69 0.43,0.43 1.03,0.7 1.69,0.7 0.66,0 1.26,-0.27 1.69,-0.7 0.43,-0.43 0.7,-1.03 0.7,-1.69 0,-0.66 -0.27,-1.26 -0.7,-1.69z"/>
 </g>
</svg>
