<?xml version="1.0" encoding="UTF-8"?>
<!DOCTYPE svg PUBLIC "-//W3C//DTD SVG 1.0//EN" "http://www.w3.org/TR/2001/REC-SVG-20010904/DTD/svg10.dtd">
<!-- Creator: CorelDRAW -->
<svg xmlns="http://www.w3.org/2000/svg" xml:space="preserve" width="8mm" height="8mm" version="1.0" style="shape-rendering:geometricPrecision; text-rendering:geometricPrecision; image-rendering:optimizeQuality; fill-rule:evenodd; clip-rule:evenodd"
viewBox="0 0 17395 17395"
 xmlns:xlink="http://www.w3.org/1999/xlink"
 xmlns:xodm="http://www.corel.com/coreldraw/odm/2003">
 <defs>
  <style type="text/css">
   <![CDATA[
    .fil0 {fill:#00A0E3}
   ]]>
  </style>
 </defs>
 <g id="Layer_x0020_1">
  <metadata id="CorelCorpID_0Corel-Layer"/>
  <path class="fil0" d="M1087 7610c600,0 1087,487 1087,1087 0,600 -487,1087 -1087,1087 -600,0 -1087,-487 -1087,-1087 0,-600 487,-1087 1087,-1087zm6515 -810c-175,101 -398,41 -499,-134 -101,-174 -41,-398 134,-499 175,-101 398,-41 499,134 101,175 41,398 -134,499zm2555 4426c-175,101 -398,41 -499,-134 -101,-175 -41,-398 134,-499 175,-101 398,-41 499,134 101,174 41,398 -134,499zm-3357 -3624c-101,175 -324,234 -499,134 -175,-101 -234,-324 -134,-499 101,-175 324,-234 499,-134 175,101 235,324 134,499zm4426 2555c-101,175 -324,234 -499,134 -175,-101 -235,-324 -134,-499 101,-175 324,-234 499,-134 175,101 234,324 134,499zm-4426 -365c101,175 41,398 -134,499 -174,101 -398,41 -499,-134 -101,-175 -41,-398 134,-499 175,-101 398,-41 499,134zm4426 -2555c101,175 41,398 -134,499 -175,101 -398,41 -499,-134 -101,-175 -41,-398 134,-499 174,-101 398,-41 499,134zm-3624 3357c175,101 234,324 134,499 -101,175 -324,234 -499,134 -175,-101 -234,-324 -134,-499 101,-175 324,-235 499,-134zm2555 -4426c175,101 234,324 134,499 -101,175 -324,235 -499,134 -175,-101 -234,-324 -134,-499 101,-175 324,-234 499,-134zm-1460 4719c202,0 365,164 365,365 0,202 -164,365 -365,365 -202,0 -365,-164 -365,-365 0,-202 164,-365 365,-365zm0 -5110c202,0 365,164 365,365 0,202 -164,365 -365,365 -202,0 -365,-163 -365,-365 0,-202 164,-365 365,-365zm2555 2555c202,0 365,164 365,365 0,202 -164,365 -365,365 -202,0 -365,-164 -365,-365 0,-202 164,-365 365,-365zm-5110 0c202,0 365,164 365,365 0,202 -163,365 -365,365 -202,0 -365,-164 -365,-365 0,-202 164,-365 365,-365zm377 -3408c-347,200 -791,82 -992,-266 -200,-347 -82,-791 266,-992 347,-200 791,-82 992,266 200,347 82,791 -266,992zm5083 8803c-347,200 -791,82 -992,-266 -200,-347 -82,-791 266,-992 347,-200 791,-82 992,266 200,347 82,791 -266,992zm-6677 -7209c-200,347 -644,466 -992,266 -347,-200 -466,-644 -266,-992 200,-347 645,-466 992,-266 347,200 466,645 266,992zm8803 5083c-200,347 -645,466 -992,266 -347,-200 -466,-645 -266,-992 200,-347 644,-466 992,-266 347,200 466,644 266,992zm-8803 -726c200,347 82,791 -266,992 -347,200 -791,82 -992,-266 -200,-347 -82,-791 266,-992 347,-200 791,-82 992,266zm8803 -5083c200,347 82,791 -266,992 -347,200 -791,82 -992,-266 -200,-347 -82,-791 266,-992 347,-200 791,-82 992,266zm-7209 6677c347,200 466,644 266,992 -200,347 -644,466 -992,266 -347,-200 -466,-645 -266,-992 200,-347 645,-466 992,-266zm5083 -8803c347,200 466,645 266,992 -200,347 -645,466 -992,266 -347,-200 -466,-644 -266,-992 200,-347 644,-466 992,-266zm-2904 9387c401,0 726,325 726,726 0,401 -325,726 -726,726 -401,0 -726,-325 -726,-726 0,-401 325,-726 726,-726zm0 -10165c401,0 726,325 726,726 0,401 -325,726 -726,726 -401,0 -726,-325 -726,-726 0,-401 325,-726 726,-726zm5083 5083c401,0 726,325 726,726 0,401 -325,726 -726,726 -401,0 -726,-325 -726,-726 0,-401 325,-726 726,-726zm-10165 0c401,0 726,325 726,726 0,401 -325,726 -726,726 -401,0 -726,-325 -726,-726 0,-401 325,-726 726,-726zm1821 -4923c-520,300 -1185,122 -1485,-398 -300,-520 -122,-1185 398,-1485 520,-300 1185,-122 1485,398 300,520 122,1185 -398,1485zm7610 13181c-520,300 -1185,122 -1485,-398 -300,-520 -122,-1185 398,-1485 520,-300 1185,-122 1485,398 300,520 122,1185 -398,1485zm-9998 -10794c-300,520 -965,698 -1485,398 -520,-300 -698,-965 -398,-1485 300,-520 965,-698 1485,-398 520,300 698,965 398,1485zm13181 7610c-300,520 -965,698 -1485,398 -520,-300 -698,-965 -398,-1485 300,-520 965,-698 1485,-398 520,300 698,965 398,1485zm-13181 -1087c300,520 122,1185 -398,1485 -520,300 -1185,122 -1485,-398 -300,-520 -122,-1185 398,-1485 520,-300 1185,-122 1485,398zm13181 -7610c300,520 122,1185 -398,1485 -520,300 -1185,122 -1485,-398 -300,-520 -122,-1185 398,-1485 520,-300 1185,-122 1485,398zm-10794 9998c520,300 698,965 398,1485 -300,520 -965,698 -1485,398 -520,-300 -698,-965 -398,-1485 300,-520 965,-698 1485,-398zm7610 -13181c520,300 698,965 398,1485 -300,520 -965,698 -1485,398 -520,-300 -698,-965 -398,-1485 300,-520 965,-698 1485,-398zm-4349 14055c600,0 1087,487 1087,1087 0,600 -487,1087 -1087,1087 -600,0 -1087,-487 -1087,-1087 0,-600 487,-1087 1087,-1087zm0 -15220c600,0 1087,487 1087,1087 0,600 -487,1087 -1087,1087 -600,0 -1087,-487 -1087,-1087 0,-600 487,-1087 1087,-1087zm7610 7610c600,0 1087,487 1087,1087 0,600 -487,1087 -1087,1087 -600,0 -1087,-487 -1087,-1087 0,-600 487,-1087 1087,-1087z"/>
 </g>
</svg>
