<?xml version="1.0" encoding="UTF-8"?>
<!DOCTYPE svg PUBLIC "-//W3C//DTD SVG 1.0//EN" "http://www.w3.org/TR/2001/REC-SVG-20010904/DTD/svg10.dtd">
<!-- Creator: CorelDRAW -->
<svg xmlns="http://www.w3.org/2000/svg" xml:space="preserve" width="7.948mm" height="9.0353mm" version="1.0" style="shape-rendering:geometricPrecision; text-rendering:geometricPrecision; image-rendering:optimizeQuality; fill-rule:evenodd; clip-rule:evenodd"
viewBox="0 0 19267 21902"
 xmlns:xlink="http://www.w3.org/1999/xlink"
 xmlns:xodm="http://www.corel.com/coreldraw/odm/2003">
 <defs>
  <style type="text/css">
   <![CDATA[
    .fil0 {fill:#00A0E3}
   ]]>
  </style>
 </defs>
 <g id="Layer_x0020_1">
  <metadata id="CorelCorpID_0Corel-Layer"/>
  <path class="fil0" d="M5091 8507c-66,307 -110,634 -110,938 0,154 16,337 41,515 30,222 72,441 110,597 266,1100 757,1639 1246,2176 726,797 1450,1592 1458,4165l3527 0c125,0 120,-177 114,-493 -9,-401 -22,-1006 226,-1749 56,-169 118,-329 187,-481 69,-153 145,-300 230,-440 263,-436 525,-725 780,-1006 302,-333 596,-658 874,-1212 315,-629 484,-1325 495,-2021 11,-682 -128,-1366 -428,-1988 -249,-517 -570,-966 -943,-1340 -688,-692 -1554,-1135 -2469,-1298 -915,-163 -1881,-46 -2768,381 -471,227 -921,542 -1329,947 -206,204 -380,411 -534,634 -154,224 -288,466 -412,743 -109,244 -218,576 -295,931zm10609 -2198c-127,-117 -197,-279 -197,-434 0,-355 408,-575 714,-739l153 -85 146 -89c273,-169 737,-456 917,-456 263,0 415,101 501,249 84,144 103,329 103,507 0,136 -255,345 -579,552 -515,329 -1216,664 -1300,664 -192,0 -347,-68 -458,-170zm-12331 123c-82,30 -174,47 -266,47 -167,0 -255,-59 -355,-126l-67 -43 -1038 -590c-234,-144 -361,-300 -415,-449 -42,-118 -39,-232 -5,-335 33,-101 96,-191 172,-262 112,-104 256,-168 383,-168 240,0 638,249 931,433l261 158c177,101 413,235 581,399 227,222 333,494 29,804 -55,56 -128,101 -210,132zm12216 7224c-50,-85 -82,-183 -82,-284 0,-159 80,-309 200,-419 122,-112 288,-184 455,-184 57,0 268,104 519,240 391,212 886,503 1025,591 173,109 275,253 319,399 33,111 33,226 4,330 -29,104 -86,199 -165,271 -96,87 -225,142 -376,142 -111,0 -354,-104 -624,-241 -402,-205 -873,-487 -1055,-609 -82,-55 -163,-138 -219,-234zm-13892 1079c-272,0 -470,-163 -470,-649 0,-141 48,-242 120,-321 69,-76 158,-132 247,-185 142,-86 642,-381 1027,-588 235,-127 431,-223 485,-223 167,0 332,72 454,184 120,110 200,261 200,419 0,383 -359,573 -665,734 -68,36 -134,70 -188,103l-93 56c-305,186 -771,471 -1118,471zm4774 -11493c0,280 -177,483 -713,483 -277,0 -655,-699 -862,-1083 -97,-176 -197,-349 -296,-523 -62,-114 -89,-225 -89,-326 0,-117 36,-222 95,-311 58,-88 140,-160 232,-210 96,-52 204,-81 309,-81 336,0 553,395 730,716l158 275c189,319 437,739 437,1059zm11190 7030c-631,0 -1135,-93 -1135,-674 0,-140 69,-279 172,-382 103,-103 241,-171 381,-171l1632 0c252,0 431,155 511,353 31,77 47,161 47,245 0,84 -17,170 -52,247 -91,203 -302,362 -659,362 -159,0 -311,5 -460,9 -153,5 -304,9 -437,9zm-16618 0c-606,0 -1040,-92 -1040,-674 0,-154 61,-293 160,-392 100,-100 238,-160 393,-160l1632 0c235,0 420,156 505,356 32,77 51,162 50,246 0,85 -18,170 -57,249 -100,200 -335,357 -753,357 -170,0 -327,5 -478,10 -147,4 -289,9 -412,9zm11879 -6745c-73,-105 -119,-254 -119,-457 0,-88 102,-308 236,-558 213,-397 511,-880 608,-1026 90,-134 197,-218 309,-261 115,-43 234,-44 345,-12 109,32 210,96 289,181 90,97 153,224 167,362 11,112 -102,376 -254,667 -230,439 -550,950 -653,1082 -75,96 -203,174 -342,209 -103,26 -214,30 -316,2 -104,-28 -200,-89 -270,-190zm-3893 -1375l0 -1581c0,-274 158,-450 359,-527 77,-29 161,-44 245,-44 83,0 168,15 245,44 201,77 359,253 359,527l0 1581c0,281 -158,462 -359,541 -77,30 -161,46 -245,46 -83,0 -168,-16 -245,-46 -201,-79 -359,-260 -359,-541zm-1214 19558c-135,-108 -214,-267 -214,-485 0,-135 70,-276 175,-382 102,-102 238,-171 378,-171l2958 0c131,0 246,47 335,122 85,71 149,169 183,276 34,107 40,225 12,338 -31,124 -105,243 -227,333 -268,197 -1663,166 -2515,147l-491 -8c-240,0 -449,-54 -594,-170zm-990 -1838c-107,-128 -143,-310 -143,-483 0,-167 72,-302 186,-397 120,-100 289,-156 469,-156l4590 0c326,0 526,162 612,366 33,78 49,163 50,247 0,83 -15,168 -46,245 -78,197 -254,350 -515,350l-4794 0c-193,0 -324,-68 -410,-172zm-2572 -8174c-306,-703 -478,-1466 -478,-2254 0,-173 18,-384 45,-596 34,-265 80,-532 122,-727 36,-170 88,-355 150,-535 64,-188 139,-375 215,-540 387,-830 966,-1578 1677,-2160 682,-557 1489,-962 2368,-1142 977,-200 1901,-167 2739,46 1111,282 2072,881 2810,1673 737,792 1251,1780 1468,2841 165,810 158,1663 -56,2504 -365,1437 -974,2119 -1518,2728 -525,588 -990,1107 -1104,2189l-57 1470 4 146c8,230 12,368 -125,534 -62,76 -131,133 -217,172 -85,38 -187,57 -316,57l-4692 0c-135,0 -244,-22 -334,-65 -91,-44 -163,-109 -224,-194 -104,-146 -109,-632 -114,-1154 -3,-355 -7,-728 -41,-1013 -46,-379 -164,-755 -326,-1093 -174,-364 -398,-684 -635,-918 -571,-564 -1039,-1235 -1359,-1971z"/>
 </g>
</svg>
