<?xml version="1.0" encoding="UTF-8"?>
<!DOCTYPE svg PUBLIC "-//W3C//DTD SVG 1.0//EN" "http://www.w3.org/TR/2001/REC-SVG-20010904/DTD/svg10.dtd">
<!-- Creator: CorelDRAW -->
<svg xmlns="http://www.w3.org/2000/svg" xml:space="preserve" width="7.1363mm" height="9mm" version="1.0" style="shape-rendering:geometricPrecision; text-rendering:geometricPrecision; image-rendering:optimizeQuality; fill-rule:evenodd; clip-rule:evenodd"
viewBox="0 0 17741 22374"
 xmlns:xlink="http://www.w3.org/1999/xlink"
 xmlns:xodm="http://www.corel.com/coreldraw/odm/2003">
 <defs>
  <style type="text/css">
   <![CDATA[
    .fil0 {fill:#00A0E3}
   ]]>
  </style>
 </defs>
 <g id="Layer_x0020_1">
  <metadata id="CorelCorpID_0Corel-Layer"/>
  <path class="fil0" d="M3714 8783c0,295 51,714 99,993 189,1094 561,1526 1056,2352 574,958 1063,2164 1161,3340 581,-135 1273,-88 1879,-88l-133 -2095c-53,-671 -117,-1428 -172,-2100 -650,0 -945,17 -1371,-247 -818,-506 -842,-1947 198,-2412 881,-394 1762,166 1936,978 29,134 67,628 67,763l874 0c43,-517 52,-1161 497,-1513 991,-781 2299,-224 2299,1119 0,394 -227,765 -449,949 -485,404 -895,361 -1518,361 0,378 -17,677 -46,1046 -60,761 -216,2480 -216,3149 877,0 1022,16 1879,88 0,-464 263,-1374 399,-1742 202,-544 431,-965 693,-1448 765,-1413 1180,-1787 1180,-3627 0,-694 -256,-1519 -495,-1996 -184,-368 -449,-815 -718,-1117 -106,-119 -213,-213 -328,-328 -1278,-1278 -3042,-1774 -4829,-1355 -1903,446 -3312,1948 -3786,3817 -42,166 -84,363 -102,510 -22,179 -55,453 -55,600zm6555 961l0 525c333,0 901,85 942,-448 50,-643 -942,-671 -942,-77zm-3277 525l481 0c0,-371 96,-962 -481,-962 -603,0 -603,962 0,962zm1835 5156l263 -2097c14,-297 81,-749 88,-1048 7,-303 29,-845 87,-1093l-787 0c81,349 165,2631 244,3165 26,177 18,348 43,525 23,158 60,423 63,549zm5637 -10182c0,308 90,618 475,598 199,-10 968,-501 1200,-627 432,-234 466,-261 466,-670 0,-179 -351,-506 -753,-273l-1052 608c-126,68 -336,211 -336,364zm-6074 -4720l0 1355c0,603 961,603 961,0l0 -1355c0,-316 -192,-491 -405,-524l-151 0c-213,33 -405,208 -405,524zm-7254 12498c0,347 225,524 475,511 220,-11 958,-496 1200,-627 432,-234 466,-263 466,-670 0,-180 -350,-506 -753,-273l-1109 639c-151,88 -279,201 -279,420zm0 -8390c0,373 142,389 439,566 193,115 374,224 581,337 149,81 448,280 613,304 394,56 508,-279 508,-595 0,-258 -814,-632 -1139,-828 -236,-142 -286,-221 -566,-221 -246,0 -437,191 -437,437zm10750 -1879c0,576 649,708 917,262 87,-145 160,-290 249,-450 142,-256 494,-735 494,-992 0,-319 -536,-849 -987,-69 -103,178 -674,1126 -674,1249zm-7691 -1180c0,224 540,1080 728,1413 292,520 932,286 932,-190 0,-196 -541,-1060 -658,-1265 -474,-836 -1003,-264 -1003,42zm10269 10663c0,565 216,508 1019,991 134,81 451,279 614,303 479,69 735,-619 257,-911 -189,-116 -1177,-732 -1365,-732 -302,0 -525,169 -525,350zm918 -3365c0,648 1067,481 1704,481 942,0 730,-961 219,-961l-1486 0c-249,0 -437,230 -437,481zm-15382 0c0,648 1067,481 1704,481 174,0 318,-24 430,-94 421,-265 191,-867 -212,-867l-1486 0c-249,0 -437,230 -437,481zm8740 13503c454,0 771,-46 1127,-402 262,-262 402,-577 402,-996l-2797 0c0,442 141,716 359,952 179,194 556,447 908,447zm-3146 -5419c0,499 337,787 830,787l4894 0c1099,0 1072,-1442 88,-1442l-5069 0c-188,0 -410,93 -514,185 -87,77 -228,321 -228,471zm0 2360c0,430 313,743 743,743l5069 0c968,0 1035,-1442 -88,-1442l-4894 0c-259,0 -419,52 -559,183 -131,123 -271,277 -271,516z"/>
 </g>
</svg>
