<?xml version="1.0" encoding="UTF-8"?>
<!DOCTYPE svg PUBLIC "-//W3C//DTD SVG 1.0//EN" "http://www.w3.org/TR/2001/REC-SVG-20010904/DTD/svg10.dtd">
<!-- Creator: CorelDRAW -->
<svg xmlns="http://www.w3.org/2000/svg" xml:space="preserve" width="9.6327mm" height="9.0001mm" version="1.0" style="shape-rendering:geometricPrecision; text-rendering:geometricPrecision; image-rendering:optimizeQuality; fill-rule:evenodd; clip-rule:evenodd"
viewBox="0 0 37181 34739"
 xmlns:xlink="http://www.w3.org/1999/xlink"
 xmlns:xodm="http://www.corel.com/coreldraw/odm/2003">
 <defs>
  <style type="text/css">
   <![CDATA[
    .fil0 {fill:#00A0E3}
   ]]>
  </style>
 </defs>
 <g id="Layer_x0020_1">
  <metadata id="CorelCorpID_0Corel-Layer"/>
  <path class="fil0" d="M16467 31429l4753 0c-440,831 -1557,1352 -2376,1351 -891,-1 -2199,-684 -2377,-1351zm1188 -18080c0,1710 1782,476 3784,1987 729,550 656,729 1308,729 641,0 2150,-1120 -906,-2828 -694,-388 -4186,-1713 -4186,112zm12732 5432c0,522 404,1019 934,1019l5008 0c1121,0 1179,-1952 -85,-1952l-4753 0c-359,0 -559,83 -749,269 -122,119 -354,460 -354,664zm-3649 8743c0,712 495,962 870,1337l2292 2292c318,317 784,955 1337,955 750,0 1224,-832 848,-1527l-2695 -2739c-306,-305 -1087,-1252 -1549,-1252 -580,0 -1103,390 -1103,934zm-8912 -26398l0 4499c0,1558 2037,1558 2037,0l0 -4499c0,-1491 -2037,-1513 -2037,0zm-12477 5008c0,726 1328,1795 2058,2526 389,388 715,715 1104,1103 390,390 1192,1498 2041,641 755,-761 -66,-1467 -599,-1999l-2249 -2250c-305,-305 -819,-955 -1337,-955 -512,0 -1018,429 -1018,934zm21390 3650c0,457 491,934 934,934 687,0 1205,-738 1591,-1124 438,-439 2581,-2515 2777,-2826 541,-857 -225,-1567 -803,-1567 -547,0 -983,601 -1295,912l-2292 2292c-384,384 -912,652 -912,1379zm-21390 21390c0,440 525,934 934,934 712,0 1796,-1330 2483,-2016 1186,-1186 2729,-2238 1787,-3187 -945,-953 -1967,567 -3145,1744 -403,403 -743,743 -1146,1146 -384,384 -912,652 -912,1380zm-5347 -12393c0,548 318,1019 849,1019l5517 0c1207,0 1272,-1952 -169,-1952l-5263 0c-496,0 -933,438 -933,934zm15957 10186l5772 0 0 509 -5772 0 0 -509zm6026 -1952l-6366 0c-113,-1364 -1840,-2976 -2451,-3746 -4572,-5759 685,-13355 7184,-11937 5742,1253 7743,8222 3817,12265 -183,188 -185,235 -342,422 -723,860 -1566,1810 -1842,2996zm-12477 -9082c0,2405 193,3780 1595,5875 1660,2480 2903,2062 2901,6351 -2,4195 6115,6593 8901,2359 1386,-2107 344,-3523 1092,-5274 982,-2297 4185,-3665 4185,-8801 0,-5045 -4182,-9252 -9506,-9252 -3438,0 -6196,1943 -7793,4430 -143,223 -339,527 -441,748 -398,858 -934,2333 -934,3565z"/>
 </g>
</svg>
