<?xml version="1.0" encoding="UTF-8"?>
<!DOCTYPE svg PUBLIC "-//W3C//DTD SVG 1.0//EN" "http://www.w3.org/TR/2001/REC-SVG-20010904/DTD/svg10.dtd">
<!-- Creator: CorelDRAW -->
<svg xmlns="http://www.w3.org/2000/svg" xml:space="preserve" width="7.313mm" height="9.106mm" version="1.0" style="shape-rendering:geometricPrecision; text-rendering:geometricPrecision; image-rendering:optimizeQuality; fill-rule:evenodd; clip-rule:evenodd"
viewBox="0 0 25806 32133"
 xmlns:xlink="http://www.w3.org/1999/xlink"
 xmlns:xodm="http://www.corel.com/coreldraw/odm/2003">
 <defs>
  <style type="text/css">
   <![CDATA[
    .fil0 {fill:#00A0E3}
   ]]>
  </style>
 </defs>
 <g id="Layer_x0020_1">
  <metadata id="CorelCorpID_0Corel-Layer"/>
  <path class="fil0" d="M4803 16019c-193,-490 -340,-1003 -439,-1538 -97,-527 -147,-1075 -147,-1640 0,-130 6,-271 17,-417 12,-157 29,-324 49,-487 22,-177 49,-356 78,-525 31,-180 64,-347 96,-487 88,-387 206,-769 348,-1139 144,-375 316,-741 511,-1092 197,-354 418,-693 660,-1014 243,-322 509,-627 793,-911 377,-375 820,-745 1320,-1080 456,-305 959,-583 1502,-811 498,-209 1033,-379 1597,-494 525,-107 1078,-166 1651,-166 488,0 941,35 1371,101 429,66 830,164 1214,290 385,126 755,282 1121,462 361,179 722,384 1090,612l206 122 118 85c264,207 521,424 763,648 244,226 479,465 700,715 221,250 430,513 623,789 194,278 372,568 528,868 264,507 476,1045 633,1601 159,564 264,1146 311,1730 47,585 37,1176 -30,1757 -66,571 -188,1134 -368,1673 -78,234 -166,460 -261,676 -102,231 -214,457 -333,674 -125,227 -259,448 -400,661 -148,223 -305,440 -466,647l-131 156 -238 253 -126 150c-101,129 -205,212 -313,299l-10 8c-68,55 -141,114 -210,183l-203 197c-133,125 -243,230 -329,361 -85,130 -153,295 -206,547 -55,263 -45,578 -35,887l0 8c11,377 23,750 -76,1063 -45,142 -106,271 -180,386 -73,114 -159,216 -254,306 -89,84 -186,158 -288,225 -80,52 -164,101 -252,146 -1,165 -4,304 -11,426 -8,146 -25,273 -50,397 -26,125 -64,244 -116,372 -47,113 -102,230 -170,362l40 71c71,123 147,253 205,403 60,154 102,324 102,521 0,495 -163,760 -284,957 -37,60 -69,112 -83,151 29,85 73,163 119,241l8 12c117,200 241,413 241,810 0,467 -124,784 -295,1014 -170,229 -381,366 -564,485 -72,46 -139,90 -194,135 -43,36 -77,71 -92,106 -33,75 -60,159 -87,244l-64 195c-24,66 -53,134 -88,204 -128,251 -283,472 -462,662 -181,192 -388,353 -616,481 -229,128 -482,225 -755,289 -272,64 -566,96 -878,96 -280,0 -591,-83 -886,-215 -315,-142 -614,-340 -835,-552 -76,-72 -143,-148 -200,-224 -56,-75 -104,-152 -138,-228 -40,-88 -64,-176 -70,-263 -5,-86 7,-171 41,-251 36,-86 95,-164 179,-231 74,-60 170,-112 287,-152 177,-62 338,-40 494,29 141,61 274,159 413,261 97,72 200,148 307,210 102,59 210,107 323,129 164,32 320,34 465,13 152,-23 295,-73 425,-145 129,-71 248,-165 354,-274 62,-64 121,-134 175,-209l-102 3c-301,9 -682,21 -1022,19 -348,-2 -656,-19 -801,-69 -72,-24 -137,-61 -192,-106 -59,-47 -109,-105 -149,-167 -41,-64 -72,-135 -93,-207 -21,-74 -32,-152 -32,-227 0,-329 182,-528 470,-643 258,-103 605,-135 979,-135 275,0 577,18 864,35l11 1c537,31 1027,61 1202,-30 30,-16 58,-39 81,-68 24,-30 44,-67 55,-105 7,-25 12,-52 13,-79l-7 -75c-5,-24 -16,-49 -31,-73 -13,-21 -31,-43 -54,-63 -43,-38 -104,-71 -185,-93 -80,-22 -178,-35 -296,-35 -77,0 -170,-3 -271,-14 -101,-11 -207,-31 -303,-66 -113,-41 -215,-101 -290,-186 -80,-91 -128,-208 -128,-355 0,-405 154,-619 375,-735 206,-108 460,-121 699,-132 146,-7 286,-14 378,-48 60,-22 99,-62 99,-139 0,-212 -68,-319 -169,-373 -115,-60 -286,-70 -455,-78l-6 0c-466,-23 -921,-46 -921,-728 0,-345 134,-526 333,-622 181,-88 404,-94 625,-100l241 -12c69,-6 133,-18 185,-38 199,-76 185,-346 173,-585l-422 12c-263,0 -533,-25 -745,-126 -233,-110 -391,-305 -391,-638 0,-334 143,-526 368,-635 203,-98 469,-120 750,-120l762 14c124,4 251,7 366,-1 101,-7 189,-24 246,-58 65,-39 97,-85 110,-140 18,-71 13,-170 9,-291l-5 -193c-8,-1035 101,-1653 294,-2082 198,-440 474,-678 799,-955 236,-202 500,-428 771,-777l218 -275c144,-181 293,-367 431,-560 135,-188 260,-384 360,-586 207,-419 380,-847 513,-1280 129,-420 223,-850 277,-1285 52,-421 66,-848 39,-1278 -26,-419 -91,-842 -198,-1265 -56,-222 -123,-444 -199,-661 -75,-215 -161,-428 -256,-634 -90,-196 -191,-392 -302,-582 -105,-180 -220,-356 -344,-522 -203,-272 -421,-538 -653,-788 -219,-236 -452,-461 -698,-669 -232,-195 -477,-378 -734,-541 -243,-156 -500,-295 -766,-414 -600,-267 -1231,-455 -1872,-559 -644,-104 -1298,-125 -1942,-61 -633,63 -1258,210 -1854,440 -579,224 -1132,527 -1641,910 -764,576 -1388,1285 -1857,2073 -485,814 -807,1716 -951,2644 -143,918 -112,1864 106,2783 208,877 587,1729 1146,2505l234 312c79,101 161,201 246,297 85,96 173,188 263,274 90,87 186,170 285,247 669,517 1003,1085 1170,1632 165,543 163,1058 162,1482 -1,245 -2,457 32,608 26,119 77,200 174,228 329,92 1031,60 1723,29l5 0c294,-13 585,-27 856,-31 270,-4 516,2 710,27 90,12 175,37 250,73 82,40 155,91 217,150 52,50 98,107 134,166 37,61 66,126 85,191 19,71 29,144 26,215 -3,71 -17,142 -44,209 -25,64 -61,126 -109,182 -46,52 -101,101 -165,143 -348,225 -1743,187 -2560,164l-271 -7 0 430c0,71 88,121 226,156 183,47 439,60 714,60 214,0 415,-8 606,-14l24 -1c408,-14 776,-28 985,25 83,21 164,55 238,98 74,43 141,97 195,158 55,61 100,132 131,210 29,74 46,154 46,238 0,320 -144,514 -376,630 -210,104 -492,134 -801,134l-313 -8 -633 -36 -295 -7c-229,0 -431,18 -568,79 -110,48 -178,130 -178,264 0,73 12,129 32,170 17,35 43,61 74,79 41,24 95,40 156,50 68,11 146,14 230,14l994 -4 511 -13c263,0 541,22 759,121 241,109 409,301 409,637 0,320 -131,521 -345,642 -197,110 -461,146 -754,146 -228,0 -476,-22 -722,-43l-18 -1c-232,-20 -464,-40 -668,-40 -205,0 -383,20 -501,80 -97,49 -156,134 -156,271 0,111 33,175 83,216 60,49 154,78 251,108 93,29 188,59 281,105 98,50 192,118 266,217 51,68 90,140 115,213 26,78 40,157 40,233 0,54 -7,109 -19,161 -12,53 -31,104 -55,152 -25,49 -55,95 -90,137 -34,41 -73,79 -117,111 -62,46 -133,84 -209,109 -73,24 -153,37 -235,37 -239,0 -473,-49 -687,-139 -219,-91 -420,-227 -588,-393 -164,-163 -298,-360 -390,-582 -86,-210 -136,-441 -136,-685 0,-333 198,-728 314,-959l53 -104 -22 -53 -80 -138c-222,-367 -539,-889 94,-1880 -20,-72 -40,-124 -59,-163 -22,-45 -45,-77 -66,-106l-4 -5c-120,-166 -221,-305 -228,-1315 -86,-44 -168,-90 -246,-139 -98,-62 -191,-132 -276,-212 -90,-85 -172,-181 -242,-291 -70,-110 -132,-235 -182,-377 -66,-186 -96,-377 -107,-571 -11,-188 -5,-381 1,-577l7 -359c0,-121 -5,-241 -16,-355 -17,-164 -51,-309 -99,-437 -48,-127 -110,-238 -182,-339 -75,-103 -164,-199 -263,-290 -101,-93 -214,-184 -333,-275 -100,-80 -245,-240 -368,-377l-138 -151c-383,-412 -723,-848 -1017,-1308 -289,-453 -534,-929 -730,-1426zm16122 -7986l-16 -106 -6 -111c0,-199 58,-332 149,-434 86,-96 193,-154 306,-216l380 -224c534,-323 1429,-864 1709,-864 77,0 175,23 272,65 86,38 175,91 249,157 47,41 90,89 127,143 34,50 62,106 80,164 21,67 30,139 24,213 -6,68 -24,139 -58,211 -48,105 -132,215 -257,326 -108,95 -251,193 -433,291 -93,49 -266,151 -462,266l-44 26c-455,267 -1017,597 -1179,631l-85 13 -83 5c-74,0 -150,-11 -222,-35 -70,-22 -137,-57 -196,-102 -64,-48 -120,-110 -165,-184 -41,-68 -73,-148 -92,-238zm-18294 -217c-530,-279 -1019,-537 -1019,-1054 0,-89 24,-176 65,-258 42,-82 102,-158 174,-222 70,-62 152,-114 240,-149 85,-34 176,-54 267,-54 279,0 1168,537 1716,867l390 231c112,61 215,119 298,214 86,100 140,229 140,425 0,71 -6,138 -18,201 -12,67 -31,128 -53,181 -30,69 -68,129 -113,178 -48,54 -105,97 -164,128 -52,27 -108,47 -162,60 -61,14 -122,21 -179,21 -60,0 -120,-7 -175,-18 -62,-13 -121,-31 -168,-52 -103,-44 -214,-103 -324,-167l-489 -300 -208 -119 -217 -115zm-837 11625c-54,-61 -102,-133 -135,-215 -30,-73 -48,-155 -48,-243 0,-41 7,-87 18,-133 11,-47 28,-95 47,-140 20,-46 44,-92 69,-133 28,-43 58,-83 86,-113 42,-44 246,-175 515,-336 258,-154 579,-338 875,-498 238,-129 464,-246 634,-324 165,-76 294,-122 361,-122 89,0 178,19 261,55 82,35 159,87 223,151 61,61 112,135 147,218 33,79 52,166 52,259 0,230 -12,354 -100,473 -80,109 -212,188 -455,332l-246 149c-500,305 -1493,909 -1805,909 -43,0 -162,-36 -279,-106 -74,-44 -154,-105 -221,-180zm20033 -542c-637,-339 -925,-494 -925,-1033 0,-100 20,-192 55,-273 38,-87 94,-163 161,-223 70,-61 152,-108 241,-140 92,-31 189,-48 288,-48 102,0 461,183 854,402 379,211 797,457 1035,596l134 78c125,73 225,151 302,231 88,90 147,184 181,276 26,70 40,140 41,210 1,73 -11,145 -33,211 -20,60 -49,118 -83,169 -35,53 -79,103 -125,147 -72,68 -156,124 -240,163 -90,41 -183,64 -266,64 -204,0 -734,-318 -1091,-531l-259 -153 -269 -145zm-15499 -15913c-61,-99 -121,-197 -168,-299 -50,-108 -84,-218 -84,-329 0,-100 21,-196 57,-284 38,-92 94,-175 162,-242 68,-68 150,-124 242,-162 88,-36 185,-57 284,-57 458,0 640,342 886,806l3 6c66,124 137,256 213,383l68 112c100,163 252,411 384,658 136,253 246,500 246,641 0,72 -22,154 -61,235 -36,73 -88,149 -150,214 -44,45 -94,88 -149,124 -52,34 -110,62 -169,82 -67,23 -140,35 -215,35 -70,-1 -142,-13 -214,-39 -94,-34 -190,-92 -282,-178 -81,-76 -161,-174 -237,-299l-817 -1407zm12078 1737c-60,53 -129,99 -207,130 -79,32 -170,50 -273,50l-111 -8 -111 -24c-76,-23 -146,-58 -206,-101 -63,-45 -118,-101 -162,-163 -43,-60 -76,-128 -98,-199 -22,-71 -34,-145 -34,-219l8 -107 24 -109c31,-104 85,-216 147,-327 61,-108 128,-214 191,-311l125 -203 216 -403c142,-273 281,-539 441,-745 175,-224 374,-371 624,-371 100,0 196,21 284,57 92,38 175,94 242,162 67,67 124,151 162,242 36,88 57,185 57,284 0,296 -733,1487 -1001,1924l-176 278c-42,59 -89,115 -142,162zm-16946 8957c-374,0 -723,-28 -984,-128 -293,-113 -477,-311 -477,-648 0,-100 21,-196 57,-284 38,-92 94,-175 162,-242 68,-68 150,-124 242,-162 88,-36 184,-57 284,-57l2109 0c152,0 284,43 393,115 119,79 208,192 261,318 20,47 35,97 45,147 9,50 14,103 14,154 0,53 -7,106 -18,156 -12,52 -30,103 -52,151 -64,135 -172,255 -328,338 -132,69 -299,112 -501,112l-599 15c-211,7 -425,16 -608,16zm22256 -16l-579 -14c-203,0 -369,-42 -502,-112 -156,-82 -264,-203 -328,-337 -22,-48 -40,-99 -51,-149 -12,-53 -18,-106 -18,-158 0,-51 5,-103 14,-153 10,-51 25,-101 45,-148 53,-126 142,-239 261,-318 108,-72 241,-115 393,-115l2109 0c100,0 196,21 284,57 92,38 175,94 242,162 68,68 124,150 162,242 36,88 57,184 57,284 0,336 -185,535 -478,648 -261,101 -610,128 -983,128 -183,0 -398,-8 -609,-16l-18 -1zm-11570 -12359l11 -433c0,-197 30,-350 81,-468 56,-128 136,-217 227,-278 89,-60 187,-91 284,-107 94,-16 182,-17 263,-17l14 0c289,0 456,214 547,534 80,281 102,649 102,1016 -1,228 -10,452 -16,652l-12 465c0,199 -31,354 -84,473 -57,129 -139,218 -234,278 -91,59 -191,89 -289,103 -92,14 -181,14 -263,14 -289,0 -456,-213 -547,-535 -79,-280 -102,-648 -102,-1016 1,-228 10,-452 16,-652l1 -32zm2552 12467l499 0c233,0 428,-20 585,-61 148,-39 264,-98 349,-177 83,-78 144,-181 183,-308 42,-137 61,-306 61,-507 0,-77 -17,-151 -47,-218 -32,-73 -82,-141 -143,-200 -40,-39 -85,-75 -133,-106 -49,-30 -102,-58 -158,-80 -55,-22 -115,-40 -176,-51 -59,-11 -120,-17 -182,-17 -114,0 -230,22 -339,67 -101,42 -198,106 -283,194 -246,254 -231,832 -219,1332l3 132zm-4796 -1667c-138,63 -261,174 -347,336 -79,150 -126,345 -126,588 0,685 861,747 1470,747l203 -2 0 -870c0,-188 -51,-349 -135,-478 -93,-144 -228,-252 -379,-317 -55,-24 -113,-42 -171,-55 -59,-12 -119,-20 -176,-20 -59,0 -120,6 -177,17 -56,11 -111,29 -162,52zm-1348 2356c-190,-215 -349,-471 -457,-755 -100,-264 -158,-555 -158,-863 0,-351 76,-670 208,-950 143,-302 351,-559 602,-763 107,-86 223,-165 344,-232 122,-68 252,-126 383,-172 133,-46 270,-82 407,-105 137,-23 276,-36 413,-36 328,0 658,68 963,210 284,133 546,330 764,598 294,361 439,717 511,1092 70,368 66,750 62,1175l-1 112 618 0 0 -95c-4,-438 -6,-836 67,-1214 74,-387 228,-751 537,-1108 97,-112 204,-212 318,-299 117,-89 245,-167 378,-231 134,-65 277,-118 426,-159 149,-41 305,-70 463,-85 315,-30 620,11 899,108 295,103 565,270 793,481 105,97 203,206 290,322 88,117 165,242 230,370 66,131 121,270 163,413 40,138 68,282 83,428 30,312 -4,636 -115,952 -102,291 -270,576 -513,838 -345,373 -712,556 -1104,644 -384,85 -784,78 -1212,70l-210 -3 0 5580c0,165 -43,309 -115,426 -80,131 -195,229 -324,289 -46,21 -97,38 -150,50 -53,12 -106,18 -157,18 -53,0 -107,-6 -160,-19 -51,-12 -102,-30 -150,-54 -132,-65 -248,-174 -327,-331 -67,-133 -108,-301 -108,-503l0 -5458 -618 0 0 5458c0,116 -14,228 -43,332 -28,102 -71,197 -130,277 -58,82 -132,151 -221,202 -83,47 -179,79 -287,91l-76 5c-91,0 -182,-19 -264,-53 -85,-35 -162,-86 -227,-149 -65,-62 -120,-138 -161,-222 -39,-81 -66,-171 -76,-266 -166,-1497 -6,-4060 -6,-5674l-1054 0c-265,0 -538,-70 -795,-198 -255,-127 -495,-312 -699,-542z"/>
 </g>
</svg>
