<?xml version="1.0" encoding="UTF-8"?>
<!DOCTYPE svg PUBLIC "-//W3C//DTD SVG 1.0//EN" "http://www.w3.org/TR/2001/REC-SVG-20010904/DTD/svg10.dtd">
<!-- Creator: CorelDRAW -->
<svg xmlns="http://www.w3.org/2000/svg" xml:space="preserve" width="7.3836mm" height="9.1764mm" version="1.0" style="shape-rendering:geometricPrecision; text-rendering:geometricPrecision; image-rendering:optimizeQuality; fill-rule:evenodd; clip-rule:evenodd"
viewBox="0 0 32584 40496"
 xmlns:xlink="http://www.w3.org/1999/xlink"
 xmlns:xodm="http://www.corel.com/coreldraw/odm/2003">
 <defs>
  <style type="text/css">
   <![CDATA[
    .fil0 {fill:#00A0E3}
   ]]>
  </style>
 </defs>
 <g id="Layer_x0020_1">
  <metadata id="CorelCorpID_0Corel-Layer"/>
  <path class="fil0" d="M13705 32705c841,248 1759,341 2975,341 820,0 1614,-160 2357,-421 873,-305 1685,-754 2400,-1249l1254 -1105c1225,-1286 2028,-2937 2324,-4669 290,-1699 94,-3475 -668,-5057 -156,-324 -366,-714 -592,-1081 -186,-302 -383,-588 -568,-805 -399,-471 -630,-684 -924,-957 -176,-162 -374,-346 -602,-572 -1247,-1240 -1204,-2583 -1173,-3552 16,-508 27,-853 -241,-853l-7913 0c-269,0 -256,316 -237,795 38,966 93,2343 -1252,3688l-1073 1002c-804,965 -1386,1874 -1764,2869 -379,996 -559,2094 -559,3437 0,1289 390,2660 1045,3886 658,1232 1581,2315 2643,3021 944,628 1727,1037 2568,1284zm13620 -863c-1030,-565 -1183,-650 -1183,-1510 0,-104 22,-205 63,-300 83,-194 241,-345 434,-443 168,-85 368,-133 563,-133 153,0 308,28 449,89 561,243 1447,824 2017,1150 462,263 716,540 830,801 100,228 99,444 37,636 -58,179 -172,332 -308,451 -222,195 -528,309 -747,309 -354,0 -1119,-453 -1589,-731l-565 -320zm-4831 5271c-420,-696 -1006,-1669 -1006,-2049 0,-269 141,-530 350,-716 199,-175 467,-294 737,-294 689,0 990,564 1303,1149 58,108 116,217 198,353l684 1186c278,465 238,936 29,1268 -90,142 -213,261 -357,344 -146,85 -315,132 -493,130 -387,-4 -811,-234 -1115,-807 -71,-132 -191,-331 -331,-566zm-20158 -4539c-197,-197 -319,-470 -319,-768 0,-625 496,-893 883,-1103l174 -95c320,-176 587,-323 870,-495l165 -102c288,-177 669,-411 898,-495 118,-42 243,-63 366,-63 199,0 408,53 582,144 200,105 363,269 440,479 30,83 46,169 46,256 0,807 -64,844 -649,1179l-468 278c-681,412 -1827,1105 -2221,1105 -299,0 -571,-122 -768,-319zm5586 5586c-197,-197 -319,-470 -319,-768 0,-383 527,-1226 800,-1662 194,-316 375,-641 559,-962 280,-459 620,-670 944,-714 190,-27 372,5 534,79 155,71 291,181 395,316 201,262 290,623 186,971 -82,274 -274,576 -440,836l-152 248c-106,186 -188,343 -269,498 -394,759 -770,1478 -1469,1478 -299,0 -571,-122 -768,-319zm19166 -19185c-575,0 -945,-325 -945,-1210 0,-318 425,-692 982,-1044 907,-573 2310,-1207 2355,-1207 294,0 552,117 741,299 107,103 193,226 249,358 58,134 90,282 90,432 0,262 -95,530 -312,756 -129,135 -229,188 -351,251l-109 59 -559 342c-744,467 -1540,964 -2142,964zm-23859 -1045c-601,-318 -1211,-641 -1211,-1329 0,-145 46,-308 113,-449 71,-149 174,-291 279,-377 620,-510 1114,-205 1867,262 188,117 399,247 642,378l88 48c429,226 1436,759 1436,1302 0,263 -20,538 -161,779 -162,277 -440,464 -927,464 -261,0 -1305,-611 -1707,-846l-419 -232zm28268 7361l-2715 0c-155,0 -315,-68 -450,-158 -143,-96 -281,-235 -345,-334 -67,-104 -125,-239 -156,-381 -29,-133 -35,-277 -5,-412 221,-1000 1472,-954 2709,-908 234,9 471,18 730,18 650,0 1037,273 1213,622 73,145 108,304 107,461 0,150 -34,303 -96,441 -162,365 -519,650 -992,650zm-31177 -319c-197,-197 -319,-470 -319,-768 0,-951 910,-1125 1983,-1125 231,0 512,11 789,21 234,8 466,17 720,17 646,0 1013,273 1178,625 68,143 98,299 96,451 -1,145 -31,290 -82,423 -147,377 -481,675 -882,675l-2715 0c-300,0 -571,-122 -768,-319zm14872 12566l13 -535c0,-583 197,-897 469,-1071 262,-169 538,-172 774,-172 812,0 967,1041 967,2094 -2,306 -13,601 -22,862l-13 536c0,572 -191,885 -455,1061 -257,172 -533,180 -771,180l-17 1c-813,0 -967,-1043 -967,-2096 0,-271 11,-583 22,-861zm-1041 -27501c-359,-11 -685,-20 -729,203l-16 83 -44 63c-30,43 -44,104 -45,172l0 46 5953 22 1 -67c-2,-71 -15,-132 -45,-175l-47 -68 -15 -77c-43,-218 -342,-210 -684,-201 -1345,25 -2701,6 -4048,6l-280 -7zm2785 -2664c-1488,-10 -3173,12 -3307,46 -94,24 -160,65 -199,113 -31,38 -49,87 -53,136 -4,51 6,101 27,142 19,38 46,67 80,83 101,46 998,69 2044,76 1560,11 3385,-21 3511,-56 68,-19 117,-66 143,-124 12,-27 21,-61 23,-96 3,-35 0,-70 -8,-101 -18,-64 -64,-123 -141,-158 -76,-35 -1030,-55 -2120,-62zm360 -2664c-1560,-22 -3490,19 -3669,53 -108,20 -179,71 -214,132 -16,26 -27,57 -32,89 -5,33 -4,68 2,102 12,64 46,121 98,152 84,46 874,73 1827,86 1582,23 3526,-14 3683,-48 84,-18 146,-68 181,-130 18,-32 30,-65 35,-96 5,-31 4,-65 -3,-98 -13,-59 -52,-117 -119,-155 -85,-46 -856,-74 -1790,-86zm-1876 -2349c-127,74 -243,168 -341,280l2425 6c-99,-114 -215,-210 -344,-285 -257,-151 -563,-227 -869,-227 -308,1 -615,76 -871,226zm-3846 3778c-158,-269 -325,-555 -325,-1094 0,-434 105,-799 271,-1109 163,-305 382,-550 617,-755 308,-269 485,-319 600,-350 51,-15 -59,16 71,-395l91 -243 98 -199c253,-490 737,-1039 1337,-1432 507,-332 1104,-560 1726,-560 2807,0 3453,1797 3748,2618l83 220c8,10 83,50 165,94 139,74 292,155 440,292 1415,1313 733,2546 429,3096 -19,32 -41,-14 -52,-26l-5 -3 0 28c2,20 51,99 108,191 295,477 727,1180 -71,2473 31,81 64,126 95,169 165,226 318,434 335,1692 241,105 410,190 699,515 687,775 651,1496 614,2255 -18,355 -36,722 40,1084 135,642 567,1032 1078,1493 347,313 727,656 1101,1136 1352,1735 2161,3756 2363,5842 198,2040 -184,4144 -1207,6104 -150,287 -318,568 -496,838 -179,272 -364,528 -548,770 -372,486 -691,806 -1098,1217l-119 120c-1475,1489 -3571,2486 -5790,2842 -2146,345 -4414,93 -6354,-888 -1286,-650 -1416,-756 -2115,-1326l-347 -282c-879,-708 -1629,-1591 -2227,-2570 -621,-1019 -1080,-2141 -1350,-3278 -325,-1372 -360,-2862 -130,-4288 229,-1428 724,-2797 1455,-3928 583,-901 734,-1061 937,-1276 95,-101 204,-216 398,-462 257,-323 526,-557 780,-778 436,-379 830,-721 903,-1445 41,-409 36,-776 31,-1105 -15,-1108 -26,-1868 1294,-2576l0 -109c-2,-453 -3,-685 49,-917 54,-248 153,-432 352,-803l13 -24 -8 -13c-194,-334 -406,-700 -406,-1233 0,-804 269,-1190 432,-1424 -30,-66 -69,-131 -107,-197zm9298 155l-5 -3 5 3z"/>
 </g>
</svg>
