<?xml version="1.0" encoding="UTF-8"?>
<!DOCTYPE svg PUBLIC "-//W3C//DTD SVG 1.0//EN" "http://www.w3.org/TR/2001/REC-SVG-20010904/DTD/svg10.dtd">
<!-- Creator: CorelDRAW -->
<svg xmlns="http://www.w3.org/2000/svg" xml:space="preserve" width="6.2036mm" height="9.1054mm" version="1.0" style="shape-rendering:geometricPrecision; text-rendering:geometricPrecision; image-rendering:optimizeQuality; fill-rule:evenodd; clip-rule:evenodd"
viewBox="0 0 30511 44784"
 xmlns:xlink="http://www.w3.org/1999/xlink"
 xmlns:xodm="http://www.corel.com/coreldraw/odm/2003">
 <defs>
  <style type="text/css">
   <![CDATA[
    .fil0 {fill:#00A0E3;fill-rule:nonzero}
   ]]>
  </style>
 </defs>
 <g id="Layer_x0020_1">
  <metadata id="CorelCorpID_0Corel-Layer"/>
  <path class="fil0" d="M13697 21310l18 837c562,69 1050,119 1533,122 484,3 974,-39 1547,-152 15,-341 20,-651 23,-943 16,-1237 28,-2192 780,-3389 175,-278 431,-569 755,-791 273,-187 598,-329 968,-381 561,-79 1148,44 1648,304 510,265 936,678 1159,1166 368,806 308,1704 -52,2515 -370,838 -1065,1585 -1934,2037l-172 90c-378,201 -1007,536 -1439,652l-32 9014 2412 -16c51,-1300 332,-2552 818,-3675 513,-1185 1256,-2231 2200,-3047 1488,-1285 2733,-3042 3534,-5070 746,-1889 1105,-4015 917,-6212 -293,-3413 -1857,-6520 -4247,-8750 -2317,-2161 -5411,-3500 -8881,-3500 -3450,0 -6560,1354 -8888,3527 -2395,2235 -3967,5338 -4239,8725 -148,1838 79,3597 555,5177 532,1765 1376,3307 2354,4486 280,337 521,608 769,866 248,258 502,502 811,787 893,824 1684,1960 2226,3225 470,1096 755,2295 762,3477l2424 -4 10 -8952c-2073,-552 -3257,-1862 -3672,-3181 -155,-495 -204,-994 -150,-1454 55,-470 216,-905 475,-1262 506,-697 1376,-1100 2556,-915 358,56 673,203 940,392 320,229 573,524 751,805 730,1159 744,2219 759,3493zm-5085 14661l13129 -20 174 0 -6 -1633c-4437,0 -8876,4 -13313,17l16 1637zm3439 3419l3952 6 3184 -15c806,-7 1427,-17 1722,-28l167 -6 -3 -1599 -166 -8c-565,-25 -1671,-50 -2982,-66 -1279,-16 -2756,-27 -4119,-27 -1016,1 -1969,8 -2726,22 -673,13 -1196,31 -1477,58l-156 15 -7 1616 169 4c447,12 1342,22 2443,28zm3295 3567c299,-5 600,-33 890,-85 284,-50 560,-123 814,-218 357,-134 675,-314 925,-537 239,-212 418,-466 510,-758l71 -225 -6599 21 81 230c109,309 309,573 571,790 275,228 623,407 1009,535 262,87 542,151 831,192 292,42 597,60 899,56zm1448 -10591l0 -8474c-439,58 -967,85 -1484,86 -585,1 -1164,-30 -1594,-83l0 8493 3078 -22zm1740 -12003c-42,450 -50,893 -53,1238 433,-153 911,-432 1312,-781 420,-367 751,-809 839,-1253l29 -187c27,-293 -30,-533 -156,-708 -124,-171 -322,-289 -577,-340l-152 -23c-863,-80 -1143,1019 -1240,2054zm-8165 60c473,502 1121,930 1658,1154l-4 -255c-10,-798 -21,-1514 -327,-2227 -98,-228 -210,-401 -327,-526 -150,-159 -313,-243 -472,-270 -160,-27 -326,2 -477,67 -125,54 -242,133 -341,225 -154,145 -246,296 -288,447 -55,207 -22,431 73,655 105,247 284,495 504,729zm12761 16995l-147 148 16 459c54,1321 111,2715 -1245,3182 -325,112 -634,104 -945,98 -123,-2 -248,-5 -373,2 -82,627 -257,1131 -499,1550 -270,469 -624,829 -1027,1138 -686,524 -2187,789 -3671,788 -1473,0 -2957,-263 -3640,-792 -400,-310 -753,-670 -1024,-1137 -242,-418 -418,-920 -499,-1546l-341 0c-313,5 -630,10 -925,-85 -1408,-452 -1349,-1878 -1296,-3171l17 -484c-2108,-1846 -322,-4681 -4,-5174 -33,-841 -210,-1661 -504,-2425 -313,-810 -758,-1558 -1305,-2199 -766,-839 -2137,-2166 -2753,-3013 -268,-357 -524,-748 -766,-1159 -241,-409 -474,-846 -696,-1295 -443,-897 -810,-1941 -1069,-3044 -252,-1074 -405,-2210 -429,-3325 -55,-2525 447,-4707 1257,-6575 810,-1867 1927,-3420 3103,-4686 559,-602 1294,-1226 2076,-1786 804,-576 1669,-1093 2453,-1459 2267,-1059 4608,-1499 6872,-1416 2834,103 5552,1024 7865,2569 2312,1544 4219,3714 5435,6314 998,2136 1530,4563 1435,7171 -58,1606 -349,3143 -841,4584 -509,1490 -1233,2879 -2138,4141 -648,902 -1424,1677 -2203,2455l-571 573c-139,141 -269,303 -392,477 -128,180 -250,372 -370,569 -243,398 -460,853 -629,1337 -157,452 -272,932 -329,1418 -56,479 -86,760 -61,937 18,133 85,221 222,343 68,62 133,131 192,207 405,513 575,1336 527,2154 -48,813 -314,1637 -779,2159z"/>
 </g>
</svg>
