<?xml version="1.0" encoding="UTF-8"?>
<!DOCTYPE svg PUBLIC "-//W3C//DTD SVG 1.0//EN" "http://www.w3.org/TR/2001/REC-SVG-20010904/DTD/svg10.dtd">
<!-- Creator: CorelDRAW -->
<svg xmlns="http://www.w3.org/2000/svg" xml:space="preserve" width="6.2721mm" height="9mm" version="1.0" style="shape-rendering:geometricPrecision; text-rendering:geometricPrecision; image-rendering:optimizeQuality; fill-rule:evenodd; clip-rule:evenodd"
viewBox="0 0 45637 65486"
 xmlns:xlink="http://www.w3.org/1999/xlink"
 xmlns:xodm="http://www.corel.com/coreldraw/odm/2003">
 <defs>
  <style type="text/css">
   <![CDATA[
    .fil0 {fill:#00A0E3}
   ]]>
  </style>
 </defs>
 <g id="Layer_x0020_1">
  <metadata id="CorelCorpID_0Corel-Layer"/>
  <path class="fil0" d="M22976 0c23557,0 30548,28347 12351,42017 -1380,1038 -2808,2109 -3567,3720 -449,951 -444,2181 -444,3215l-16804 0c0,-1388 71,-2195 -604,-3492 -770,-1482 -2075,-2519 -3456,-3617 -6110,-4863 -10438,-10798 -10451,-18902 -19,-12727 10211,-22941 22975,-22941zm-6586 25992c-592,593 -592,1562 0,2155l5220 5219c-5,46 -7,92 -7,139l0 8005c0,838 685,1524 1524,1524 838,0 1524,-685 1524,-1524l0 -8005c0,-47 -2,-93 -7,-139l5219 -5219c592,-593 592,-1562 0,-2155 -592,-592 -1562,-592 -2154,0l-4582 4582 -4582 -4582c-593,-592 -1562,-592 -2155,0zm78 30521l12756 -1222c727,-70 1353,471 1390,1201 37,731 -527,1384 -1254,1454l-12756 1222c-727,70 -1353,-470 -1390,-1201 -37,-731 527,-1384 1254,-1454zm-455 -4615l13658 -1235c729,-66 1356,477 1396,1208 39,731 -523,1380 -1252,1447l-13659 1235c-728,65 -1356,-477 -1396,-1208 -39,-731 523,-1381 1252,-1447zm1201 8094l11670 0c238,0 433,191 438,429 25,1247 -405,2361 -1249,3223 -1147,1171 -2996,1843 -5072,1843 -2133,0 -4069,-726 -5181,-1942 -789,-863 -1150,-1954 -1041,-3154 20,-226 209,-399 435,-399zm10770 -14942c1479,-3527 1892,-3643 4717,-5825 4230,-3282 9797,-8658 9313,-17427 -559,-10104 -8969,-17971 -19077,-17971 -154,0 -306,2 -459,5 -9877,240 -17878,7991 -18538,17826 -495,7372 3036,12285 8385,16673 2203,1806 4469,3665 5667,6720l9992 0z"/>
 </g>
</svg>
