<?xml version="1.0" encoding="UTF-8"?>
<!DOCTYPE svg PUBLIC "-//W3C//DTD SVG 1.0//EN" "http://www.w3.org/TR/2001/REC-SVG-20010904/DTD/svg10.dtd">
<!-- Creator: CorelDRAW -->
<svg xmlns="http://www.w3.org/2000/svg" xml:space="preserve" width="5.7699mm" height="9.0721mm" version="1.0" style="shape-rendering:geometricPrecision; text-rendering:geometricPrecision; image-rendering:optimizeQuality; fill-rule:evenodd; clip-rule:evenodd"
viewBox="0 0 72852 114546"
 xmlns:xlink="http://www.w3.org/1999/xlink"
 xmlns:xodm="http://www.corel.com/coreldraw/odm/2003">
 <defs>
  <style type="text/css">
   <![CDATA[
    .fil0 {fill:#00A0E3}
   ]]>
  </style>
 </defs>
 <g id="Layer_x0020_1">
  <metadata id="CorelCorpID_0Corel-Layer"/>
  <path class="fil0" d="M37437 109683c234,-172 390,-410 389,-693 -332,-43 -688,-64 -1042,-71 -472,-9 -958,6 -1398,28l-490 25c-96,15 121,-14 135,1 105,616 535,931 1023,1014 241,42 499,30 740,-23 239,-53 463,-152 643,-282zm-8521 -73267c-104,-2037 168,-3900 -833,-4888 -929,-918 -3338,-985 -4189,10 -966,1129 -1029,3261 69,4225 1067,937 3330,649 4953,653zm13069 -1c2423,18 5914,659 5785,-2789 -145,-3923 -4278,-2841 -4960,-2067 -927,1050 -814,3205 -826,4856zm-2227 39738l14 -35509 -6735 -10 -19 8409c-29,8247 -85,24375 39,26790 826,49 2745,33 4332,20l2050 -8c143,1 226,174 270,311 16,-1 33,-3 48,-4zm5202 28086c2197,29 3874,51 4265,-1715 125,-567 82,-1053 -63,-1467 -148,-419 -408,-782 -706,-1090 -457,-475 -778,-462 -1745,-422 -384,15 -861,37 -1481,35 -6668,-11 -13918,312 -20449,-23l-172 144c-205,163 -410,405 -577,677 -169,274 -306,581 -374,869 -135,558 -104,1074 32,1505 153,473 431,847 750,1062 578,388 1799,393 2789,395l614 5c2441,54 5181,71 7918,69 2740,-3 5495,-29 7958,-52l1241 6zm3617 -10006c331,-378 561,-898 652,-1328 105,-500 62,-989 -76,-1408 -150,-458 -410,-833 -701,-1044 -543,-393 -1640,-394 -2596,-394l-630 -6c-1331,-29 -2667,-44 -3996,-45l-6258 5c-3222,-14 -8222,-38 -9655,144 -456,57 -841,245 -1129,518 -236,220 -414,504 -520,819 -107,323 -145,686 -97,1059 77,604 370,1246 923,1832 317,338 376,336 798,319l443 -14c3816,-59 7875,-39 11870,-19l7552 35c886,13 1797,28 2615,-6 297,-13 576,-203 806,-467zm33 -9432c250,-191 408,-516 523,-1057 130,-620 129,-1148 10,-1590 -114,-423 -342,-779 -664,-1073 -549,-499 -1617,-513 -2624,-523l-516 -9c-1929,-48 -7453,-96 -12292,-87 -3413,6 -6495,45 -7727,131 -548,38 -956,311 -1230,696 -183,259 -316,574 -393,905 -80,340 -106,706 -82,1056 47,689 284,1311 679,1591 542,384 2025,417 3004,436l318 8c2446,64 5183,92 7918,92 2737,0 5489,-23 7954,-51l446 -5c1106,-10 2332,-24 3377,-148 612,-71 1032,-169 1298,-372zm-20177 -9021l-9 -35102 -191 -4c-1510,-30 -3557,-72 -4694,-532 -1432,-578 -2712,-1694 -3539,-3078 -774,-1295 -1159,-2836 -915,-4398 225,-1447 1024,-2871 2129,-3961 1082,-1067 2470,-1828 3914,-1994 1495,-170 2651,48 3651,542 979,482 1795,1229 2633,2124 211,223 437,534 640,879 189,319 362,677 486,1023 497,1386 552,3072 600,4634l3 58 4843 3 -5 -438c-25,-1472 -54,-3034 471,-4276 376,-893 874,-1655 1449,-2284 1038,-1131 2338,-1845 3686,-2139 1350,-297 2756,-174 4004,352 636,269 1237,648 1766,1131 1220,1116 2139,2521 2490,4034 316,1365 176,2814 -611,4212 -294,519 -715,1064 -1169,1554 -496,535 -1049,1023 -1530,1357 -1415,985 -2258,1062 -4098,1154l47 35154 2855 1c96,-835 76,-2593 57,-4218 -15,-1270 -29,-2468 14,-3122 131,-1984 860,-2347 2691,-3259 452,-222 981,-486 1581,-818 2030,-1124 3576,-2165 4978,-3326 1400,-1160 2662,-2446 4126,-4058l383 -477 2442 -3442c489,-777 933,-1598 1343,-2449 410,-852 799,-1755 1177,-2687 899,-2222 1424,-4245 1703,-6361 280,-2128 319,-4366 250,-7004 -92,-3532 -865,-7030 -2174,-10273 -1341,-3318 -3252,-6369 -5583,-8910l-588 -667c-380,-438 -736,-851 -1226,-1285 -2759,-2453 -5688,-4591 -9221,-6131 -3530,-1542 -7680,-2495 -12879,-2585 -8427,-145 -16158,3182 -21870,8568 -5792,5463 -9514,13049 -9788,21288 -87,2628 -16,4876 290,7021 307,2139 852,4183 1715,6410 721,1861 1576,3572 2523,5121 1003,1641 2115,3105 3285,4377 823,895 1592,1703 2403,2461 813,758 1674,1472 2683,2178 1715,1201 2731,1745 3809,2322 686,366 1398,749 2284,1287l128 77c1097,667 1468,893 1586,2602 143,2082 114,4429 86,6639l-9 713 2898 1zm8686 38766l-1399 0 -95 -45c-234,-112 -492,-193 -764,-277 -795,-242 -1711,-525 -2807,-1696 -1181,-1260 -1347,-2061 -1516,-2874l-153 -640 -847 -19c-1616,-29 -3418,-64 -4865,-279 -797,-117 -1582,-436 -2297,-900 -1080,-699 -2015,-1744 -2628,-2946 -616,-1212 -912,-2597 -708,-3970 119,-795 405,-1591 893,-2342 159,-246 365,-513 566,-774 186,-242 374,-486 508,-689l-112 -111c-162,-157 -324,-316 -513,-569l-124 -167c-186,-250 -359,-484 -558,-856 -1699,-3178 -138,-5626 1081,-7543l121 -194 -159 -222c-933,-1298 -3162,-4410 -564,-8236l316 -437c242,-318 292,-381 336,-1376 29,-667 30,-1384 30,-2091l5 -5899 -951 -499c-1330,-689 -2616,-1359 -3806,-2226 -1686,-1227 -3085,-2341 -4370,-3537 -1292,-1201 -2479,-2494 -3730,-4068 -4755,-5985 -7482,-13090 -7939,-20389 -446,-7114 1263,-14422 5341,-21065l807 -1259 792 -1136 443 -587c1000,-1229 2172,-2356 3140,-3566 1660,-1725 3451,-3240 5376,-4564 1927,-1327 3996,-2470 6212,-3452 1461,-645 2938,-1181 4446,-1615 1509,-434 3057,-773 4660,-1027 374,-58 915,-105 1477,-153 784,-66 1612,-138 1851,-211 179,-54 2972,-53 3143,1 287,91 797,133 1495,188 2048,164 5669,456 11235,2736 4350,1783 5879,3033 8686,5327 1136,927 1865,1672 2960,2746 753,759 1333,1362 1890,2000 558,638 1098,1314 1764,2217 4360,5910 6644,12415 7011,19009 380,6821 -1288,13739 -4817,20197 -864,1582 -1985,3215 -3162,4694 -1282,1614 -2639,3063 -3813,4088l-404 374c-193,186 -384,369 -648,577 -357,314 -694,593 -1067,889 -1932,1597 -3778,2615 -5819,3740 -312,172 -790,393 -1067,619l44 8231c40,780 136,885 313,1078 116,126 259,283 433,556 405,631 739,1489 905,2399 149,814 168,1684 -10,2489 -331,1490 -980,2374 -1449,3013l-303 432 253 369c790,1154 1663,2431 1652,4410 -13,2107 -766,3105 -1429,3985 -188,249 -369,487 -513,735l359 484c742,986 1431,1898 1583,3741 76,908 -62,1780 -321,2556 -307,915 -790,1711 -1299,2288 -2247,2554 -3883,2590 -6585,2641 -895,16 -1918,38 -3131,163l-169 573c-354,1217 -564,1942 -1553,2956 -1255,1287 -1813,1436 -2500,1619 -275,73 -580,154 -968,342l-93 45 -100 0z"/>
 </g>
</svg>
