<?xml version="1.0" encoding="UTF-8"?>
<!DOCTYPE svg PUBLIC "-//W3C//DTD SVG 1.0//EN" "http://www.w3.org/TR/2001/REC-SVG-20010904/DTD/svg10.dtd">
<!-- Creator: CorelDRAW -->
<svg xmlns="http://www.w3.org/2000/svg" xml:space="preserve" width="4.8448mm" height="9.2041mm" version="1.0" style="shape-rendering:geometricPrecision; text-rendering:geometricPrecision; image-rendering:optimizeQuality; fill-rule:evenodd; clip-rule:evenodd"
viewBox="0 0 491768 934256"
 xmlns:xlink="http://www.w3.org/1999/xlink"
 xmlns:xodm="http://www.corel.com/coreldraw/odm/2003">
 <defs>
  <style type="text/css">
   <![CDATA[
    .fil0 {fill:#00A0E3}
   ]]>
  </style>
 </defs>
 <g id="Layer_x0020_1">
  <metadata id="CorelCorpID_0Corel-Layer"/>
  <path class="fil0" d="M211829 285115c-1005,-6740 -223,-70911 -223,-83650 0,-39749 -4456,-49737 34248,-49747 15550,0 25620,-1279 32106,10506 4578,8293 2720,28421 2720,39242 0,12008 1340,77742 -558,83751l-68292 -102zm153211 641487c-771,680 -1695,1492 -2416,2456l-3136 4162 -5187 -122 -3126 162c-6070,538 -10597,944 -17672,-5562 -5755,-5288 -10546,-20585 -14312,-32664l-3065 -9460c-4852,-13602 -9541,-27975 -14170,-42175l-30086 -90146c-1228,-3624 -1939,-7227 -1746,-11013 223,-4273 1583,-8364 4547,-12312 5004,-6649 8039,-7318 13987,-8618l7542 -1939 3806 2426c1492,944 3015,1695 4162,2253 7968,3949 8232,4080 14180,22443l49869 149140c7237,21763 3827,24767 -3177,30969zm105737 -79721c-2335,254 -4791,244 -7237,-41l-2446 -294 -2467 -1644c-1360,-599 -2599,-1157 -4882,-3136 -3776,-3299 -18545,-26158 -23194,-33364 -18179,-28482 -37120,-56913 -55939,-85020 -7115,-11338 -12627,-26117 4537,-36836 6080,-3756 10709,-3319 15642,-2873l7765 274 2832 4080c954,680 2050,1512 3705,3512 3299,4020 6760,10150 9704,14637 3015,4263 5593,8313 8171,12343 17509,27193 35405,54701 53503,81488 3888,5725 10435,15388 11135,21549 223,2010 203,3949 10,5735 -680,5847 -3329,10556 -7329,13977 -3624,3106 -8334,5045 -13510,5613zm-394994 -145324c4750,-7745 8597,-13957 17347,-16961 2923,-995 5887,-1401 8709,-1320 4862,183 9247,1807 12779,4466 3553,2741 6263,6446 7735,10749 914,2659 1370,5654 1249,8790 -305,7765 -8313,19215 -11825,24270 -17459,25376 -34948,52559 -51544,78585 -6709,10749 -20220,32278 -28543,35587 -3279,1299 -6598,1817 -9734,1655 -4649,-233 -8943,-1898 -12455,-4507 -3461,-2599 -6212,-6141 -7836,-10201 -1218,-2974 -1807,-6303 -1634,-9734 376,-7065 6588,-16099 10627,-21986 21823,-32471 44428,-66272 65125,-99393zm63927 231349c-10993,-2081 -23082,-7258 -19387,-26909 5512,-29365 23549,-78615 39028,-120871 5786,-15814 11237,-30675 15449,-42926l508 -1452c2274,-6659 3421,-10059 7024,-13500 3634,-3492 7288,-4517 14657,-6547l4588 -1370 3847 2385 2061 1066c9105,4486 19570,9643 11906,31751l-15094 45464c-3025,9186 -6111,18474 -10150,30106 -3877,11155 -8567,25356 -13196,39363l-16261 48753c-711,1939 -1431,3431 -2436,4943 -1035,1594 -2162,2812 -3674,4192 -2091,1949 -6902,5106 -9409,6902l-9460 -1350zm16078 -325839c-9328,903 -31324,3644 -49747,7278 28807,7390 72423,10658 118537,10699 54721,41 112477,-4527 153363,-12221 -12292,-2304 -25620,-4131 -39211,-5542 -33233,-3461 -67795,-4527 -92876,-4486 -14941,20 -30035,365 -45210,1066 -15043,700 -30015,1766 -44855,3208zm154479 -268174l-23508 -15743 -80290 51c-3451,-20 -5491,1441 -9166,4111l-3471 2467c-16261,11318 -29254,23874 -40348,37892 -11196,14150 -20575,29954 -29416,47616 -8151,16281 -16525,43363 -23701,72200 -7349,29487 -13388,60588 -16697,83944 48377,-8953 96084,-15165 144095,-17073 52620,-2091 105534,985 159940,11226 7390,1391 13876,3126 20169,4862 -3431,-23996 -8141,-49392 -13987,-73986 -6273,-26401 -13855,-51787 -22554,-73398 -2314,-5765 -4893,-11165 -7593,-16322 -2812,-5309 -5806,-10506 -8811,-15581 -6182,-10455 -12932,-19682 -20382,-28249 -7329,-8476 -15378,-16291 -24280,-24016zm12221 329513l-19672 1756c-31446,985 -62425,1594 -93282,741 -30969,-863 -61836,-3208 -92917,-8120 -12668,-2000 -27985,-4781 -41698,-8983 -14952,-4588 -28391,-11044 -35861,-20423 -9826,-12323 -7907,-28563 -6100,-43809l670 -5796c771,-7329 1675,-14475 2670,-21417 1025,-7268 2172,-14332 3370,-21123 6192,-35212 13632,-71276 24858,-105351 11368,-34481 26685,-66983 48570,-94622 7227,-9135 16017,-19022 25254,-28035 8232,-8029 17002,-15550 25569,-21478l9623 -6344c548,-22280 345,-45159 152,-67825l-254 -34999c0,-10069 660,-18667 2700,-26554 2172,-8374 5857,-15642 11835,-22463 12749,-14556 23722,-16657 34004,-18474l173 -115086 47849 0 102 114608 3421 629c4212,964 8029,2304 12434,4446 8323,4070 11318,7146 15662,11582l2142 2172c6588,6557 10374,14200 12485,22920 1959,8039 2416,16687 2416,26219l0 54325 -213 16829c-162,10496 -335,21296 61,31355 3725,2233 7978,5248 12312,8567 9470,7288 19732,16241 25315,21478 9156,9998 15479,17063 23539,27406 5786,7268 9866,12384 18372,26807 13317,22564 24716,52051 33953,83203 11084,37374 19134,77356 23711,110558l2324 18717c680,6334 1259,12637 1675,18900 650,9552 447,16555 -1502,22717 -2253,6994 -6273,12140 -13074,17185 -26036,19326 -81792,24209 -122648,27782z"/>
 </g>
</svg>
