<?xml version="1.0" encoding="UTF-8"?>
<!DOCTYPE svg PUBLIC "-//W3C//DTD SVG 1.0//EN" "http://www.w3.org/TR/2001/REC-SVG-20010904/DTD/svg10.dtd">
<!-- Creator: CorelDRAW -->
<svg xmlns="http://www.w3.org/2000/svg" xml:space="preserve" width="3.5214mm" height="8.9999mm" version="1.0" style="shape-rendering:geometricPrecision; text-rendering:geometricPrecision; image-rendering:optimizeQuality; fill-rule:evenodd; clip-rule:evenodd"
viewBox="0 0 33926 86708"
 xmlns:xlink="http://www.w3.org/1999/xlink"
 xmlns:xodm="http://www.corel.com/coreldraw/odm/2003">
 <defs>
  <style type="text/css">
   <![CDATA[
    .fil0 {fill:#00A0E3}
   ]]>
  </style>
 </defs>
 <g id="Layer_x0020_1">
  <metadata id="CorelCorpID_0Corel-Layer"/>
  <path class="fil0" d="M18055 63236c-4629,286 -12600,-888 -13531,1355 -404,972 -382,6153 -236,7381 350,2945 2468,2445 5238,2422 4888,-41 9779,-36 14670,-5 3011,18 4763,465 4978,-2750 690,-10301 -1475,-7893 -4756,-8412 499,-7722 9121,-5771 9484,-9695 540,-5809 -8267,-3088 -11729,1049 -3037,3630 -2313,3964 -4119,8655zm-4435 23448l6482 -3c1502,-1 1340,254 1736,-813 1104,-2979 -3281,-2163 -4807,-2162 -819,0 -4066,-160 -4574,116 -720,389 -1532,2863 1163,2862zm-6446 -10978c-1589,3738 2179,2754 9517,2754 2159,0 4327,-17 6485,5 3165,32 4121,663 3547,-2873 -2131,-221 -18216,-356 -19549,114zm19 4094c-1599,3825 2196,2770 9498,2770 6971,0 11743,1110 9867,-2770 -1168,-378 -18140,-373 -19364,0zm12918 -79619c-4082,1382 -7963,2780 -11886,4264 -1852,700 -4840,1096 -5126,3094 -334,2334 1173,4551 3785,3820 3565,-997 8179,-3000 11748,-4301 1915,-698 4882,-1199 5205,-3050 378,-2158 -1109,-4712 -3727,-3827zm8378 18239c-7710,2895 -19497,6641 -26736,9610 -1931,792 -2035,1803 -1331,3893 690,2048 1682,2426 4018,1534 5824,-2225 11897,-4372 17765,-6469 2848,-1018 5979,-2027 8767,-3166 2992,-1221 1821,-7019 -2483,-5402zm815 9702l-26890 9758c-1653,605 -2734,1302 -2213,3465 1192,4944 5934,1567 12150,-670l18000 -6570c4540,-1695 1481,-6624 -1047,-5984zm-243 -20003c-5994,1700 -11878,4389 -17919,6425 -2982,1005 -6140,2088 -9025,3262 -3931,1601 -1812,6676 1673,5787 2379,-606 6293,-2239 8780,-3164l18006 -6548c3925,-1551 1623,-6653 -1515,-5763zm-23287 45416c2274,2116 2872,4403 3013,8197l5967 -12c315,-4808 -1192,-7178 -2977,-10575 1144,-768 14695,-5516 15975,-5983 2935,-1070 6068,-1495 4396,-5364 -1351,-3129 -5052,-775 -7836,202 -5481,1923 -10700,3977 -16236,5937 -1812,642 -7027,2016 -7696,3297 -678,1298 16,3532 974,4315 1516,1240 2500,-182 4420,-14z"/>
 </g>
</svg>
