<?xml version="1.0" encoding="UTF-8"?>
<!DOCTYPE svg PUBLIC "-//W3C//DTD SVG 1.0//EN" "http://www.w3.org/TR/2001/REC-SVG-20010904/DTD/svg10.dtd">
<!-- Creator: CorelDRAW -->
<svg xmlns="http://www.w3.org/2000/svg" xml:space="preserve" width="3.2688mm" height="9mm" version="1.0" style="shape-rendering:geometricPrecision; text-rendering:geometricPrecision; image-rendering:optimizeQuality; fill-rule:evenodd; clip-rule:evenodd"
viewBox="0 0 13912 38305"
 xmlns:xlink="http://www.w3.org/1999/xlink"
 xmlns:xodm="http://www.corel.com/coreldraw/odm/2003">
 <defs>
  <style type="text/css">
   <![CDATA[
    .fil0 {fill:#00A0E3;fill-rule:nonzero}
   ]]>
  </style>
 </defs>
 <g id="Layer_x0020_1">
  <metadata id="CorelCorpID_0Corel-Layer"/>
  <path class="fil0" d="M1340 24143l0 -18526c0,-1545 629,-2949 1646,-3967l3 -3c1019,-1017 2422,-1646 3966,-1646 1549,0 2954,630 3970,1646l46 50c989,1013 1600,2397 1600,3920l0 18526 -1659 0 0 -18526c0,-1072 -428,-2046 -1120,-2759l-41 -38c-716,-716 -1706,-1161 -2797,-1161 -1093,0 -2083,443 -2796,1157l-3 3c-714,714 -1157,1704 -1157,2797l0 18526 -1659 0zm2873 12169l5486 0c549,0 997,448 997,997 0,549 -448,997 -997,997l-5486 0c-549,0 -997,-448 -997,-997 0,-549 448,-997 997,-997zm0 -2703l5486 0c549,0 997,448 997,997 0,549 -448,997 -997,997l-5486 0c-549,0 -997,-448 -997,-997 0,-549 448,-997 997,-997zm-3573 -8341l4945 0 0 1 1291 0 159 0 1291 0 0 -1 4945 0c247,0 459,130 570,350 111,220 89,469 -57,667l-2671 3605c-283,382 -418,790 -418,1266l0 1744 -3660 0 -159 0 -3660 0 0 -1744c0,-475 -135,-884 -418,-1266l-2671 -3605c-146,-199 -168,-447 -57,-667 111,-220 323,-350 570,-350zm5515 -1130l0 6 -1659 0 0 -6 0 -18520c0,-676 276,-1290 721,-1736l3 -3c445,-445 1060,-721 1735,-721 675,0 1292,277 1739,725 445,445 721,1060 721,1736l0 18520 0 6 -1659 0 0 -6 0 -18520c0,-222 -91,-424 -236,-569 -143,-143 -343,-232 -565,-232 -221,0 -422,90 -567,234 -144,145 -234,346 -234,567l0 18520z"/>
 </g>
</svg>
