<?xml version="1.0" encoding="UTF-8"?>
<!DOCTYPE svg PUBLIC "-//W3C//DTD SVG 1.0//EN" "http://www.w3.org/TR/2001/REC-SVG-20010904/DTD/svg10.dtd">
<!-- Creator: CorelDRAW -->
<svg xmlns="http://www.w3.org/2000/svg" xml:space="preserve" width="9.372mm" height="9.0996mm" version="1.0" style="shape-rendering:geometricPrecision; text-rendering:geometricPrecision; image-rendering:optimizeQuality; fill-rule:evenodd; clip-rule:evenodd"
viewBox="0 0 79345 77038"
 xmlns:xlink="http://www.w3.org/1999/xlink"
 xmlns:xodm="http://www.corel.com/coreldraw/odm/2003">
 <defs>
  <style type="text/css">
   <![CDATA[
    .fil0 {fill:#00A0E3}
   ]]>
  </style>
 </defs>
 <g id="Layer_x0020_1">
  <metadata id="CorelCorpID_0Corel-Layer"/>
  <path class="fil0" d="M31221 25585l-1493 581c-573,217 -1200,516 -1752,775 -53,25 -91,39 -136,63l-706 345c-190,95 -378,190 -567,284 -1147,575 -2253,1218 -3356,1870l-393 232c-417,249 -1949,1203 -2305,1472l-2964 2064c-86,70 -148,122 -240,185 -177,120 -311,220 -473,350 -85,68 -152,114 -248,178l-5619 4436c-79,62 -158,129 -232,194 -81,73 -132,109 -213,185l-917 759c-545,432 -1057,917 -1596,1359l-776 672c-50,41 -69,66 -116,111 -73,69 -148,111 -225,174 -384,310 -727,677 -1118,983 -158,123 -295,283 -450,402l-1996 1753c-40,37 -58,63 -98,100l-529 465c-4,4 -10,10 -14,14l-245 210c-261,201 -692,644 -990,886 -469,379 -877,829 -1355,1200 -52,41 -81,91 -96,154l0 575 79330 0c0,-974 128,-596 -390,-1116l-1888 -1748c-79,-75 -135,-136 -212,-214l-1061 -984c-328,-262 -747,-738 -1042,-974l-2963 -2747c-86,-86 -119,-108 -212,-185l-1476 -1364c-81,-79 -131,-100 -213,-184 -444,-451 -1462,-1271 -1958,-1736l-1538 -1302c-99,-74 -132,-118 -231,-195 -74,-58 -147,-120 -217,-181l-2950 -2333c-604,-483 -1253,-930 -1881,-1385 -164,-119 -313,-213 -471,-325l-1447 -995c-573,-406 -1422,-876 -2004,-1263 -281,-186 -592,-338 -880,-511l-2254 -1239 -2211 -1056c-91,-41 -176,-70 -278,-119l-558 -237c-103,-48 -204,-83 -303,-123 -94,-38 -194,-75 -286,-112l-590 -233c-83,-30 -233,-91 -316,-110 0,-2010 0,-4019 0,-6028 0,-927 25,-1278 -59,-2187 -87,-937 -493,-2014 -996,-2812l-287 -451c-104,-167 -219,-290 -332,-436l-912 -963c-40,-31 -50,-47 -91,-80 -52,-44 -59,-41 -111,-87 -141,-125 -273,-236 -419,-348l-1164 -739c-788,-391 -1320,-585 -2163,-847 -102,-31 -222,-62 -355,-91l-3 -10574 -4216 0 3 10523c-301,59 -580,134 -884,209 -519,128 -1145,375 -1616,627l-738 398c-476,257 -875,619 -1291,952 -466,373 -1096,1070 -1422,1617 -55,92 -93,149 -155,243 -358,543 -621,1186 -802,1812 -35,117 -45,201 -79,320 -257,897 -186,1896 -186,2827 0,2019 0,4037 0,6056zm-2920 50789c-302,-367 -500,-864 -500,-1325l23 -189c606,-2626 1204,-5255 1819,-7879 244,-1126 481,-2205 2120,-2205 184,0 366,25 540,71 440,118 811,373 1069,715 257,340 405,763 405,1217 0,180 -25,369 -76,562l-873 3646 -167 835c-270,984 -484,1971 -717,2967 -146,702 -251,1175 -568,1576 -375,477 -875,669 -1741,674l-52 0c-508,-7 -962,-279 -1282,-665zm-17923 -9634c-322,-401 -444,-912 -444,-1499 0,-321 99,-593 245,-832 115,-189 241,-330 360,-455l2942 -3154 430 -431c205,-198 416,-403 522,-543 408,-498 903,-1007 1356,-1482 609,-660 1146,-1241 2188,-1102 478,62 914,275 1226,606 310,330 500,767 500,1280 0,1118 -348,1427 -881,1901 -133,118 -288,256 -443,441 -262,315 -489,545 -704,763 -196,199 -385,390 -564,615 -122,152 -213,237 -305,323 -888,898 -1784,1849 -2624,2796 -560,654 -1248,1460 -2192,1460 -746,0 -1261,-249 -1611,-686zm49630 -7196c-615,-608 -799,-789 -799,-1753 0,-452 205,-897 532,-1240 183,-193 412,-361 666,-478 266,-122 556,-195 852,-195 459,0 927,162 1337,550l6308 5969 102 116c285,391 405,807 405,1201 0,350 -95,680 -245,963 -151,284 -365,529 -602,702 -282,207 -611,327 -942,327l-37 0c-475,0 -702,2 -1005,-124 -283,-119 -428,-262 -698,-527 -305,-298 -624,-582 -938,-869 -699,-643 -1380,-1266 -2082,-1977 -946,-880 -1939,-1757 -2853,-2665zm-14076 7978c-124,-373 -266,-801 -266,-1261 0,-530 240,-1029 600,-1389 367,-365 873,-604 1390,-604 1599,0 1926,1222 2188,2205 568,2161 1309,4509 1989,6648 128,379 294,871 294,1357 0,548 -227,1042 -585,1402 -363,365 -865,591 -1405,591 -1592,0 -1912,-1200 -2155,-2110l-278 -984c-130,-510 -345,-1194 -566,-1888 -202,-638 -410,-1291 -566,-1875l-641 -2090zm-20911 -17158c0,113 -40,111 -102,202l642 877c243,298 464,566 695,874l1431 1708c521,540 989,1037 1518,1570l2094 1803c1018,767 1333,941 2349,1548 350,210 658,354 1047,522 389,168 685,310 1117,451 1250,411 1191,356 2545,592 999,175 1876,62 2845,-69 1182,-159 2553,-612 3576,-1129 1118,-564 1899,-1035 2900,-1756l538 -423c495,-378 803,-701 1151,-974 1290,-1005 3390,-3422 4530,-4884 791,-1014 455,-477 455,-1064l-29331 0 0 152z"/>
 </g>
</svg>
