<?xml version="1.0" encoding="UTF-8"?>
<!DOCTYPE svg PUBLIC "-//W3C//DTD SVG 1.0//EN" "http://www.w3.org/TR/2001/REC-SVG-20010904/DTD/svg10.dtd">
<!-- Creator: CorelDRAW -->
<svg xmlns="http://www.w3.org/2000/svg" xml:space="preserve" width="9.0761mm" height="9.0762mm" version="1.0" style="shape-rendering:geometricPrecision; text-rendering:geometricPrecision; image-rendering:optimizeQuality; fill-rule:evenodd; clip-rule:evenodd"
viewBox="0 0 54555 54555"
 xmlns:xlink="http://www.w3.org/1999/xlink"
 xmlns:xodm="http://www.corel.com/coreldraw/odm/2003">
 <defs>
  <style type="text/css">
   <![CDATA[
    .fil0 {fill:#00A0E3}
   ]]>
  </style>
 </defs>
 <g id="Layer_x0020_1">
  <metadata id="CorelCorpID_0Corel-Layer"/>
  <path class="fil0" d="M32889 32551c-1437,1346 -3421,2179 -5611,2179 -2189,0 -4174,-833 -5611,-2178 -1441,-1349 -2332,-3215 -2332,-5274 0,-2059 891,-3925 2332,-5273 1437,-1346 3421,-2179 5611,-2179 2189,0 4174,833 5611,2178 1441,1349 2332,3215 2332,5274 0,2059 -891,3925 -2332,5273zm-15252 2055c667,2 1333,250 1838,741l59 58c468,489 700,1112 697,1733 -2,622 -239,1244 -708,1725l-8345 8010c-508,487 -1177,730 -1842,729 -667,-2 -1333,-250 -1838,-741l-70 -68c-460,-487 -689,-1107 -687,-1723 2,-621 239,-1244 707,-1725l8346 -8011c509,-488 1177,-730 1842,-728zm28218 11807l-67 63c-515,433 -1161,640 -1797,622 -666,-18 -1327,-283 -1818,-787l-8064 -8268c-456,-499 -670,-1129 -652,-1749 19,-622 272,-1238 753,-1708l61 -58c524,-477 1198,-703 1863,-685 665,19 1327,284 1818,787l8063 8267c456,500 671,1129 653,1750 -18,622 -272,1238 -754,1708l-61 57zm-16853 7404c-472,456 -1123,739 -1838,739 -714,0 -1365,-284 -1837,-739 -474,-459 -769,-1092 -769,-1788l0 -11283c0,-695 295,-1329 769,-1788 472,-456 1122,-739 1837,-739 715,0 1366,284 1838,739 474,459 769,1092 769,1788l0 11283c0,695 -295,1329 -769,1788zm-9388 -34678l-70 71c-505,491 -1172,739 -1838,741 -665,2 -1334,-241 -1842,-729l-8344 -8008c-471,-483 -707,-1106 -710,-1726 -2,-621 230,-1245 694,-1729l60 -60c507,-493 1174,-742 1840,-744 665,-2 1334,241 1842,729l8344 8008c471,483 707,1106 710,1726 2,618 -227,1238 -687,1722zm-2739 8734c-24,696 -342,1319 -831,1761 -487,439 -1148,701 -1862,677 -3784,-126 -7940,-101 -11671,-388 -712,-25 -1352,-331 -1805,-801 -454,-470 -726,-1108 -704,-1798l0 -13c25,-696 341,-1319 832,-1761 487,-439 1147,-700 1862,-677 3784,126 7940,101 11672,388 712,25 1351,331 1804,801 454,470 725,1108 704,1797l0 14zm37678 -67c-25,696 -341,1319 -832,1761 -487,439 -1147,701 -1862,677 -3784,-126 -7940,-102 -11672,-389 -712,-25 -1351,-331 -1805,-801 -453,-470 -724,-1108 -703,-1797l0 -14c24,-696 342,-1319 831,-1761 487,-439 1148,-701 1862,-677 3784,126 7940,101 11672,388 712,25 1351,331 1804,801 454,470 726,1108 704,1798l0 14zm-8629 -19664l60 57c484,472 738,1088 756,1709 19,621 -197,1250 -649,1747l-8067 8272c-491,504 -1152,768 -1817,787 -665,19 -1340,-207 -1861,-682l-61 -57c-484,-473 -738,-1089 -756,-1711 -18,-620 197,-1250 649,-1746l8067 -8272c491,-504 1152,-768 1817,-787 665,-19 1340,207 1863,683zm-18689 -8142c715,0 1366,284 1838,739 474,459 769,1092 769,1788l0 11282c0,695 -295,1329 -769,1788 -472,456 -1123,739 -1838,739 -715,0 -1365,-284 -1837,-739 -474,-459 -769,-1092 -769,-1788l0 -11282c0,-695 295,-1329 769,-1788 472,-456 1122,-739 1837,-739z"/>
 </g>
</svg>
