<?xml version="1.0" encoding="UTF-8"?>
<!DOCTYPE svg PUBLIC "-//W3C//DTD SVG 1.0//EN" "http://www.w3.org/TR/2001/REC-SVG-20010904/DTD/svg10.dtd">
<!-- Creator: CorelDRAW -->
<svg xmlns="http://www.w3.org/2000/svg" xml:space="preserve" width="8.9866mm" height="4.7137mm" version="1.0" style="shape-rendering:geometricPrecision; text-rendering:geometricPrecision; image-rendering:optimizeQuality; fill-rule:evenodd; clip-rule:evenodd"
viewBox="0 0 42263 22168"
 xmlns:xlink="http://www.w3.org/1999/xlink"
 xmlns:xodm="http://www.corel.com/coreldraw/odm/2003">
 <defs>
  <style type="text/css">
   <![CDATA[
    .fil0 {fill:#00A0E3}
   ]]>
  </style>
 </defs>
 <g id="Layer_x0020_1">
  <metadata id="CorelCorpID_0Corel-Layer"/>
  <path class="fil0" d="M21132 0l7140 0c0,3608 -3197,6533 -7140,6533 -3943,0 -7140,-2925 -7140,-6533l7140 0zm-10098 3612l-9228 0c-993,0 -1805,-812 -1805,-1805l0 0c0,-993 812,-1805 1805,-1805l9228 0c993,0 1805,812 1805,1805l0 0c0,993 -812,1805 -1805,1805zm4235 6611l-6525 6525c-702,703 -1851,703 -2553,0l0 0c-703,-702 -703,-1851 0,-2553l6525 -6525c703,-702 1851,-702 2554,0l0 0c703,703 703,1851 0,2553zm7670 1681l0 8459c0,993 -812,1805 -1805,1805l0 0c-993,0 -1805,-812 -1805,-1805l0 -8459c0,-993 812,-1805 1805,-1805l0 0c993,0 1805,812 1805,1805zm6611 -4235l6525 6525c703,702 703,1851 0,2553l0 0c-702,703 -1851,703 -2553,0l-6525 -6525c-702,-703 -702,-1851 0,-2554l0 0c703,-703 1851,-703 2553,0zm1681 -7670l9228 0c993,0 1805,812 1805,1805l0 0c0,993 -812,1805 -1805,1805l-9228 0c-993,0 -1805,-812 -1805,-1805l0 0c0,-993 812,-1805 1805,-1805z"/>
 </g>
</svg>
