<?xml version="1.0" encoding="UTF-8"?>
<!DOCTYPE svg PUBLIC "-//W3C//DTD SVG 1.0//EN" "http://www.w3.org/TR/2001/REC-SVG-20010904/DTD/svg10.dtd">
<!-- Creator: CorelDRAW -->
<svg xmlns="http://www.w3.org/2000/svg" xml:space="preserve" width="9.2mm" height="7.5111mm" version="1.0" style="shape-rendering:geometricPrecision; text-rendering:geometricPrecision; image-rendering:optimizeQuality; fill-rule:evenodd; clip-rule:evenodd"
viewBox="0 0 36660 29930"
 xmlns:xlink="http://www.w3.org/1999/xlink"
 xmlns:xodm="http://www.corel.com/coreldraw/odm/2003">
 <defs>
  <style type="text/css">
   <![CDATA[
    .fil0 {fill:#00A0E3}
   ]]>
  </style>
 </defs>
 <g id="Layer_x0020_1">
  <metadata id="CorelCorpID_0Corel-Layer"/>
  <path class="fil0" d="M26276 24130c-140,473 -296,877 -481,1247 -196,391 -403,765 -659,1142 -255,376 -563,757 -960,1162 -338,343 -753,647 -1215,917 -460,269 -969,507 -1495,721 -479,194 -993,350 -1536,455 -511,98 -1050,154 -1611,156 -3412,10 -5474,-1586 -6706,-3320 -1189,-1674 -1605,-3478 -1721,-4088l-9893 0 0 -1502 17265 -11089 0 -8327c-4,-307 -8,-559 25,-770 38,-247 148,-455 309,-601 160,-146 371,-231 610,-233 222,-2 420,43 576,153 157,111 270,288 316,547l12 68c31,174 69,380 69,609l0 8412 17477 11325 0 1408 -10005 0c-122,624 -243,1150 -379,1607zm-7715 -10103l-8737 5549c-345,219 -785,384 -1063,0 -246,-340 -17,-720 270,-928l8672 -5597c264,-170 785,-320 1038,37 213,302 232,671 -179,938zm13746 6514l-14096 -9010 -14034 9043 28130 -33zm-9860 1981l-10556 0c46,652 218,1268 487,1833 296,622 713,1185 1215,1671 316,305 665,581 1040,822 379,244 785,453 1206,622 422,170 864,302 1313,391 442,87 891,131 1337,131 811,-1 1648,-131 2429,-436 688,-267 1337,-672 1889,-1243 212,-220 424,-492 630,-794 208,-304 413,-641 611,-985 174,-302 328,-628 444,-976 108,-325 184,-671 213,-1035l-916 0c-155,691 -377,1328 -665,1901 -293,584 -592,1050 -1020,1495 -442,459 -960,735 -1548,983 -630,287 -1297,344 -2016,411 -353,33 -578,-28 -720,-134 -148,-110 -206,-268 -221,-421l-3 -38c-14,-230 63,-402 196,-520 129,-116 313,-179 515,-200l59 -4c244,-14 490,-32 729,-66 1073,-160 1842,-544 2441,-1337 189,-237 362,-587 514,-877 102,-193 191,-396 261,-607 62,-188 109,-384 136,-586z"/>
 </g>
</svg>
