<?xml version="1.0" encoding="UTF-8"?>
<!DOCTYPE svg PUBLIC "-//W3C//DTD SVG 1.0//EN" "http://www.w3.org/TR/2001/REC-SVG-20010904/DTD/svg10.dtd">
<!-- Creator: CorelDRAW -->
<svg xmlns="http://www.w3.org/2000/svg" xml:space="preserve" width="9mm" height="4.4378mm" version="1.0" style="shape-rendering:geometricPrecision; text-rendering:geometricPrecision; image-rendering:optimizeQuality; fill-rule:evenodd; clip-rule:evenodd"
viewBox="0 0 29881 14734"
 xmlns:xlink="http://www.w3.org/1999/xlink"
 xmlns:xodm="http://www.corel.com/coreldraw/odm/2003">
 <defs>
  <style type="text/css">
   <![CDATA[
    .fil0 {fill:#00A0E3}
   ]]>
  </style>
 </defs>
 <g id="Layer_x0020_1">
  <metadata id="CorelCorpID_0Corel-Layer"/>
  <path class="fil0" d="M9709 4394c409,3241 2611,5717 5268,5717 2658,0 4861,-2478 5268,-5722 379,-22 750,-46 1113,-72 -17,12 -33,25 -48,39 -122,109 -206,265 -222,444l-2 8c-15,179 42,350 146,479 107,135 264,227 446,244l2334 217 10 2c180,14 349,-48 477,-163 121,-108 206,-265 222,-444l2 -8c14,-178 -42,-348 -145,-478 -107,-135 -265,-228 -447,-245 -543,-51 -1344,-83 -1956,-159 4594,-387 7705,-1130 7705,-1984 0,-1253 -6689,-2269 -14941,-2269 -8251,0 -14941,1016 -14941,2269 0,861 3162,1610 7818,1994 -601,70 -1358,101 -1879,149 -181,17 -339,110 -446,245 -103,130 -160,301 -144,478l1 8c17,179 101,336 222,445 128,114 298,176 477,162 615,-123 1677,-157 2345,-219 182,-17 339,-110 446,-244 104,-130 160,-301 145,-480l-1 -8c-16,-179 -101,-335 -223,-445l-26 -22c319,22 644,42 975,61zm7754 9125l-408 -2460c-29,-177 13,-352 104,-489 95,-143 243,-249 422,-282l11 -1c178,-31 350,17 485,116 131,96 228,243 261,419 126,822 274,1651 411,2474 29,177 -13,352 -104,489 -94,142 -242,248 -418,282l-46 7c-166,20 -325,-27 -453,-121 -131,-97 -227,-243 -260,-416l-3 -17zm2473 -1264l-1175 -2162c-85,-157 -103,-336 -63,-496 43,-166 146,-316 298,-409l28 -16c152,-83 322,-98 476,-54 152,43 290,142 379,288 277,645 838,1544 1191,2193 86,157 103,336 63,496 -42,165 -145,315 -298,409l-30 17c-150,81 -320,96 -475,53 -152,-43 -290,-143 -379,-288l-17 -31zm1993 -1972l-1798 -1604c-133,-120 -210,-285 -223,-451 -13,-167 34,-341 143,-480l27 -33c113,-126 265,-198 421,-212 157,-14 320,30 454,135 601,476 1246,1109 1829,1628 133,120 210,284 223,451 10,124 -13,252 -72,367l0 27 -98 118c-113,126 -265,200 -422,214 -158,14 -320,-31 -454,-136l-30 -24zm1354 -2251l-2205 -853c-168,-65 -296,-196 -365,-352 -59,-133 -76,-288 -40,-438 0,-19 20,-65 28,-88 63,-163 183,-288 326,-358 147,-71 319,-87 483,-31 740,291 1487,575 2229,862 168,65 295,195 365,352 59,133 76,288 40,438l0 12 -28 76c-63,162 -182,286 -324,356 -147,73 -321,89 -487,32l-24 -9zm-8959 6032l0 -2498c0,-180 71,-346 185,-466 119,-126 285,-204 467,-204 184,0 350,78 468,204 114,121 185,286 185,466l0 2498c0,180 -71,345 -185,466 -118,126 -284,205 -467,205 -183,0 -349,-78 -468,-204 -114,-122 -185,-287 -185,-467zm-1307 -3004l-411 2477c-33,173 -129,319 -259,415 -128,95 -288,141 -454,122l-46 -7c-176,-35 -325,-140 -418,-282 -91,-137 -133,-312 -104,-489 136,-821 262,-1655 411,-2473 33,-177 130,-324 260,-420 135,-99 307,-146 483,-117l13 2c179,33 327,140 422,282 91,138 133,312 104,489zm-1706 -966c-335,616 -946,1591 -1191,2193 -89,145 -226,245 -379,288 -154,43 -325,29 -475,-53l-30 -17c-153,-94 -257,-244 -298,-409 -41,-160 -23,-339 63,-496 353,-649 914,-1548 1191,-2193 89,-145 227,-245 379,-288 154,-43 324,-28 476,54l28 16c152,93 255,243 297,408 42,162 24,341 -61,498zm-1370 -1414c-419,374 -1433,1381 -1828,1628 -134,106 -296,150 -454,136 -157,-14 -309,-87 -422,-214l-98 -118 0 -26c-59,-116 -82,-244 -72,-367 14,-167 90,-331 224,-451 582,-520 1228,-1153 1828,-1629 134,-106 297,-150 454,-135 157,14 309,87 421,212l27 33c110,140 157,313 143,479 -14,168 -90,332 -224,452zm-947 -1500c-521,202 -1823,626 -2228,862 -166,57 -339,41 -487,-32 -142,-70 -261,-195 -324,-356l-28 -76 0 -12c-36,-150 -19,-305 40,-438 70,-157 197,-287 365,-352 742,-287 1489,-571 2229,-862 165,-55 336,-40 483,32 144,70 263,194 326,357 8,23 28,69 28,88 36,150 19,305 -40,438 -69,156 -196,286 -365,352zm5992 -5873c6721,0 12169,388 12169,866 0,478 -5448,866 -12169,866 -6720,0 -12169,-388 -12169,-866 0,-478 5448,-866 12169,-866zm51 3765l3202 0c0,1879 -1434,3403 -3202,3403 -1768,0 -3202,-1524 -3202,-3403l3202 0z"/>
 </g>
</svg>
