<?xml version="1.0" encoding="UTF-8"?>
<!DOCTYPE svg PUBLIC "-//W3C//DTD SVG 1.0//EN" "http://www.w3.org/TR/2001/REC-SVG-20010904/DTD/svg10.dtd">
<!-- Creator: CorelDRAW -->
<svg xmlns="http://www.w3.org/2000/svg" xml:space="preserve" width="4.3017mm" height="8.0001mm" version="1.0" style="shape-rendering:geometricPrecision; text-rendering:geometricPrecision; image-rendering:optimizeQuality; fill-rule:evenodd; clip-rule:evenodd"
viewBox="0 0 5860 10898"
 xmlns:xlink="http://www.w3.org/1999/xlink"
 xmlns:xodm="http://www.corel.com/coreldraw/odm/2003">
 <defs>
  <style type="text/css">
   <![CDATA[
    .fil0 {fill:#00A0E3}
   ]]>
  </style>
 </defs>
 <g id="Layer_x0020_1">
  <metadata id="CorelCorpID_0Corel-Layer"/>
  <path class="fil0" d="M3817 9279c14,6 18,-13 21,61l-7 245c-90,20 -1832,20 -1944,1 -14,-69 -20,-253 4,-316l1901 -1c26,5 17,5 25,10zm-3683 -7039c6,2 9,1 17,10 17,18 11,13 16,26 42,20 340,244 440,-141 131,-507 -427,-943 -578,-475 -83,257 35,425 105,580zm613 -759c17,83 75,186 120,245 31,40 58,66 90,90 38,29 81,39 114,70 112,-5 147,12 229,-50 63,-48 71,-86 113,-153 48,-200 61,-323 -11,-518 -47,-128 -137,-262 -256,-324 -352,-181 -509,321 -400,641zm1080 -36l42 39c88,100 75,66 143,124l10 10c162,35 314,87 444,-152 12,-22 24,-47 32,-69l21 -57c17,-30 -1,-7 16,-21 -19,-177 56,-353 -108,-651 -158,-287 -296,-274 -483,-301 -11,15 -1,6 -27,22 -33,21 -43,15 -88,54 -32,28 -61,64 -86,107 -46,80 -74,183 -80,297 -18,326 116,459 164,597zm984 -713c-13,297 37,555 202,728 74,77 179,153 340,124 160,-28 191,-127 285,-196l-6 4c25,-73 67,-126 95,-210 25,-78 45,-167 49,-257 11,-212 -21,-342 -88,-509 -96,-180 -297,-410 -560,-261 -200,113 -266,323 -317,576zm1828 1396c52,9 66,41 145,75 651,288 1324,-881 985,-1747 -74,-190 -134,-216 -175,-297l-132 -93c-189,-110 -402,-75 -567,26 -166,102 -329,303 -427,540 -169,404 -214,1056 116,1421 31,35 45,39 55,74zm-1167 8264c-35,23 -60,72 -94,105 -34,32 -70,61 -117,89 -84,48 -195,84 -317,92 -434,28 -548,-158 -618,-185 -26,-59 -64,-65 -77,-133 300,5 899,-14 1160,-2 70,3 52,-10 64,33zm-1295 236c34,89 240,191 370,228 164,47 369,54 540,20 154,-31 298,-95 410,-196 221,-200 171,-285 257,-348 45,-11 62,-16 101,-40 10,-6 32,-22 38,-27 29,-27 13,-8 32,-41 164,-58 120,-564 120,-678 0,-232 -21,-596 4,-812 120,-86 181,-89 278,-278 188,-365 130,-904 280,-1382 96,-308 233,-467 383,-724 113,-193 196,-362 272,-566 17,-47 57,-177 83,-205l-5 -2c28,-134 77,-258 108,-408 29,-137 51,-295 57,-442 76,-1820 -1379,-3012 -3192,-2708 -434,73 -485,157 -763,246 -15,16 -266,170 -294,175l-42 43c-110,88 -183,142 -288,253 -563,595 -822,1454 -685,2281 48,294 165,704 285,937 26,86 117,215 119,276 22,16 6,2 24,22l68 114c59,92 228,347 247,417 64,56 151,360 176,486 76,377 87,846 197,1117 92,224 173,255 311,349 37,335 -21,1040 7,1273 14,115 62,165 121,235l19 26c2,1 166,78 169,81 24,21 67,129 87,161 16,25 22,34 42,59 30,39 32,40 64,59zm1534 -490c-214,21 -1574,28 -1721,-10l-35 -40c-38,-14 -22,0 -25,-35 -61,-44 -48,-179 -35,-253l1931 -2c44,277 -73,293 -114,341zm-1822 -1387l1939 -5 1 306 -1938 5 -2 -305z"/>
 </g>
</svg>
