<?xml version="1.0" encoding="UTF-8"?>
<!DOCTYPE svg PUBLIC "-//W3C//DTD SVG 1.0//EN" "http://www.w3.org/TR/2001/REC-SVG-20010904/DTD/svg10.dtd">
<!-- Creator: CorelDRAW -->
<svg xmlns="http://www.w3.org/2000/svg" xml:space="preserve" width="5.9689mm" height="9.402mm" version="1.0" style="shape-rendering:geometricPrecision; text-rendering:geometricPrecision; image-rendering:optimizeQuality; fill-rule:evenodd; clip-rule:evenodd"
viewBox="0 0 10061 15848"
 xmlns:xlink="http://www.w3.org/1999/xlink"
 xmlns:xodm="http://www.corel.com/coreldraw/odm/2003">
 <defs>
  <style type="text/css">
   <![CDATA[
    .fil0 {fill:#00A0E3}
   ]]>
  </style>
 </defs>
 <g id="Layer_x0020_1">
  <metadata id="CorelCorpID_0Corel-Layer"/>
  <path class="fil0" d="M2598 13601l488 894 6214 -3557 -5 -1209 -6698 3873zm3965 -11820c186,0 337,151 337,337 0,186 -151,337 -337,337 -186,0 -337,-151 -337,-337 0,-186 151,-337 337,-337zm-4060 2356c186,0 337,151 337,337 0,186 -151,337 -337,337 -186,0 -337,-151 -337,-337 0,-186 151,-337 337,-337zm2595 5879c186,0 337,151 337,337 0,186 -151,337 -337,337 -186,0 -337,-151 -337,-337 0,-186 151,-337 337,-337zm0 -4911c186,0 337,151 337,337 0,186 -151,337 -337,337 -186,0 -337,-151 -337,-337 0,-186 151,-337 337,-337zm578 2098c186,0 337,151 337,337 0,186 -151,337 -337,337 -186,0 -337,-151 -337,-337 0,-186 151,-337 337,-337zm2870 -1680c186,0 337,151 337,337 0,186 -151,337 -337,337 -186,0 -337,-151 -337,-337 0,-186 151,-337 337,-337zm-6218 3607c186,0 337,151 337,337 0,186 -151,337 -337,337 -186,0 -337,-151 -337,-337 0,-186 151,-337 337,-337zm6178 1294c186,0 337,151 337,337 0,186 -151,337 -337,337 -186,0 -337,-151 -337,-337 0,-186 151,-337 337,-337zm-4612 2722c186,0 337,151 337,337 0,186 -151,337 -337,337 -186,0 -337,-151 -337,-337 0,-186 151,-337 337,-337zm903 -3520l-2526 1389 -253 156 3341 -64 2626 -1601 -3189 120zm4494 -4786l-8468 4902 -7 1187 8467 -4899 7 -1190zm-4630 -87l-2615 1514 3416 -152c533,-298 1353,-783 1899,-1108l683 -405 -3382 150zm-3850 1274l6711 -3861 -485 -899 -6231 3567 4 1192zm6345 -5807l166 304 958 -525 345 632 -953 534 244 447 939 -560 380 696 -943 551 156 285 -1694 942c-221,129 -437,257 -625,373l3931 -193 0 2823 -3849 2270 3849 -191 0 2771 -6333 3725 -972 551 -184 -336 -918 531 -352 -645 914 -537 -193 -354 -926 516 -325 -603 914 -528 -214 -391 2385 -1427 -3859 189 0 -2859 3633 -2045 305 -190 -3938 193 0 -2800 7157 -4147z"/>
 </g>
</svg>
