<?xml version="1.0" encoding="UTF-8"?>
<!DOCTYPE svg PUBLIC "-//W3C//DTD SVG 1.0//EN" "http://www.w3.org/TR/2001/REC-SVG-20010904/DTD/svg10.dtd">
<!-- Creator: CorelDRAW -->
<svg xmlns="http://www.w3.org/2000/svg" xml:space="preserve" width="8.6764mm" height="6.0894mm" version="1.0" style="shape-rendering:geometricPrecision; text-rendering:geometricPrecision; image-rendering:optimizeQuality; fill-rule:evenodd; clip-rule:evenodd"
viewBox="0 0 19234 13499"
 xmlns:xlink="http://www.w3.org/1999/xlink"
 xmlns:xodm="http://www.corel.com/coreldraw/odm/2003">
 <defs>
  <style type="text/css">
   <![CDATA[
    .fil0 {fill:#00A0E3;fill-rule:nonzero}
   ]]>
  </style>
 </defs>
 <g id="Layer_x0020_1">
  <metadata id="CorelCorpID_0Corel-Layer"/>
  <path class="fil0" d="M10222 10846l0 2048c0,167 -68,319 -177,428 -110,110 -261,177 -428,177 -167,0 -319,-68 -428,-177 -109,-110 -177,-262 -177,-428l0 -2048c0,-166 68,-318 177,-427 109,-110 261,-178 428,-178 166,0 318,68 427,177 110,110 178,262 178,428zm-2947 -1004c37,7 74,18 109,32 114,46 210,125 276,222 67,98 105,216 105,339 0,37 -4,76 -11,114 -7,37 -18,75 -33,111l-819 2048c-46,115 -125,210 -223,276 -99,66 -216,104 -339,104 -166,0 -318,-68 -427,-177 -110,-110 -178,-262 -178,-428 0,-37 4,-76 11,-114 7,-37 18,-75 33,-111l819 -2047c45,-114 123,-210 222,-277 98,-67 216,-105 339,-105 39,0 78,4 116,12zm5139 93c98,66 176,161 223,276l820 2048c14,36 25,73 33,111 7,38 11,77 11,114 0,166 -68,318 -177,427 -110,110 -262,178 -428,178 -123,0 -240,-38 -339,-105 -98,-66 -177,-161 -223,-276l-820 -2048c-14,-36 -25,-73 -33,-111 -7,-38 -11,-77 -11,-114 0,-167 68,-319 177,-428 109,-109 261,-177 428,-177 123,0 240,38 339,105zm6820 -4415l0 2458c-1,393 -160,750 -417,1007 -257,257 -613,417 -1007,417l-16385 1c-393,-1 -750,-161 -1007,-418 -257,-257 -417,-613 -417,-1007l-1 -2458c1,-393 160,-750 418,-1007 257,-257 613,-417 1007,-417l16385 -1c393,1 750,161 1007,418 257,257 417,613 417,1007zm-15565 -214l0 2886 11898 0 0 -2886 -11898 0zm-2244 2886l1033 0 0 -2886 -1033 0c-58,-1 -112,24 -151,63 -39,39 -63,92 -63,151l0 2458c-1,58 24,112 63,151 39,39 93,64 151,63zm16599 -2672c0,-59 -24,-113 -62,-151 -39,-39 -94,-64 -152,-64l-1033 0 0 2887 1033 0c58,1 112,-24 151,-63 39,-38 63,-92 63,-151l0 -2458zm-7979 -2439c-110,109 -261,177 -428,177 -167,0 -319,-68 -428,-177 -109,-109 -177,-261 -177,-428l0 -2048c0,-166 68,-318 177,-427 109,-110 261,-178 428,-178 166,0 318,68 427,177 110,110 178,262 178,428l0 2048c0,167 -68,319 -178,428zm-3224 482c-97,-67 -177,-162 -222,-276l-819 -2048c-14,-36 -25,-73 -33,-111 -7,-38 -11,-77 -11,-114 0,-166 68,-318 177,-427 110,-110 262,-178 428,-178 123,0 241,38 339,104 98,67 177,162 223,277l819 2048c14,36 25,73 33,111 7,38 11,77 11,114 0,166 -68,318 -177,427 -109,110 -261,178 -428,178 -123,0 -241,-38 -339,-104zm5254 104c-30,0 -61,-2 -93,-7l-12 12 -120 -48c-114,-46 -209,-125 -276,-223 -67,-98 -105,-216 -105,-339 0,-39 4,-78 11,-116 7,-37 18,-74 33,-109l819 -2048c46,-115 125,-211 223,-277 99,-66 216,-104 339,-104 166,0 318,68 427,177 110,110 178,262 178,428 0,37 -4,76 -11,114 -7,37 -18,75 -33,111l-819 2048c-46,114 -125,209 -223,276 -98,67 -216,105 -339,105z"/>
 </g>
</svg>
