<?xml version="1.0" encoding="UTF-8"?>
<!DOCTYPE svg PUBLIC "-//W3C//DTD SVG 1.0//EN" "http://www.w3.org/TR/2001/REC-SVG-20010904/DTD/svg10.dtd">
<!-- Creator: CorelDRAW -->
<svg xmlns="http://www.w3.org/2000/svg" xml:space="preserve" width="6.5911mm" height="9mm" version="1.0" style="shape-rendering:geometricPrecision; text-rendering:geometricPrecision; image-rendering:optimizeQuality; fill-rule:evenodd; clip-rule:evenodd"
viewBox="0 0 20633 28174"
 xmlns:xlink="http://www.w3.org/1999/xlink"
 xmlns:xodm="http://www.corel.com/coreldraw/odm/2003">
 <defs>
  <style type="text/css">
   <![CDATA[
    .fil0 {fill:#00AFEF;fill-rule:nonzero}
   ]]>
  </style>
 </defs>
 <g id="Layer_x0020_1">
  <metadata id="CorelCorpID_0Corel-Layer"/>
  <path class="fil0" d="M6673 24203c397,0 790,9 1174,27 391,18 773,45 1139,79 369,35 722,78 1052,128 336,51 649,110 933,174l334 83c111,30 217,61 316,93l214 75 137 53 66 -1052c0,-583 -28,-1154 -81,-1712 -55,-570 -137,-1129 -244,-1674 -109,-554 -244,-1092 -403,-1611 -160,-526 -347,-1035 -555,-1522 -202,-473 -426,-928 -669,-1359 -244,-434 -508,-846 -789,-1229 -276,-378 -570,-734 -880,-1063 -304,-323 -623,-620 -954,-888l-1576 0c-331,268 -650,565 -954,889 -310,329 -605,685 -880,1063 -280,384 -543,795 -788,1230 -243,431 -467,886 -669,1358 -208,488 -395,997 -555,1523 -158,518 -294,1057 -402,1610 -107,544 -189,1103 -244,1673 -53,557 -81,1128 -81,1711l66 1055 136 -53c182,-63 344,-114 530,-168l334 -83c284,-64 597,-122 933,-174 329,-50 682,-93 1051,-128 366,-34 748,-61 1139,-79 384,-17 777,-27 1173,-27zm-1001 -22907l2002 0c41,0 80,18 107,45 27,27 45,65 45,107l0 10059 96 28c36,14 71,31 104,51 34,21 67,45 95,69 396,308 777,651 1139,1025 363,376 709,785 1032,1221 323,436 625,901 904,1391 277,488 532,1002 761,1537 226,528 427,1079 602,1650 172,563 319,1144 436,1739 116,585 205,1187 264,1802 58,604 89,1219 89,1840l-146 2330c-1,180 -55,350 -157,508 -104,160 -258,308 -456,443 -191,129 -424,247 -694,351 -273,105 -583,197 -924,274 -283,64 -595,122 -931,173 -330,50 -683,94 -1053,129 -365,34 -747,61 -1138,79 -384,17 -778,27 -1175,27 -397,0 -790,-10 -1175,-27 -391,-18 -773,-45 -1138,-79 -370,-35 -723,-78 -1053,-129 -335,-51 -647,-109 -931,-173 -341,-77 -651,-169 -924,-274 -271,-105 -505,-222 -695,-350 -198,-134 -352,-282 -456,-442 -102,-157 -157,-328 -157,-507l-145 -2337c0,-620 30,-1233 88,-1837 59,-614 148,-1215 263,-1799 117,-594 264,-1175 436,-1738 175,-571 377,-1124 603,-1652 229,-535 483,-1049 760,-1536 278,-490 581,-955 904,-1391 324,-436 669,-845 1032,-1221 361,-374 742,-717 1139,-1026 28,-25 60,-49 93,-69 33,-21 69,-39 106,-53l96 -28 0 -10059c0,-41 18,-80 45,-107 27,-27 65,-45 107,-45zm9644 -1296l2002 0c41,0 80,17 107,44 27,27 45,65 45,107l0 5632c230,187 451,393 661,615 217,229 423,476 616,740 198,269 383,557 554,859 170,300 326,616 466,944 140,329 266,673 375,1029 108,351 199,713 272,1083 72,364 127,739 164,1122 37,376 55,759 55,1144l-89 1417c-1,143 -39,278 -111,402 -74,126 -183,242 -322,345 -132,98 -295,187 -483,263 -189,77 -405,143 -641,196 -177,40 -374,77 -584,109 -205,31 -424,58 -654,80 -228,22 -465,39 -707,49 -239,11 -482,17 -725,17 -243,0 -486,-6 -725,-17 -242,-11 -479,-28 -707,-49 -230,-21 -449,-49 -654,-80 -210,-32 -407,-69 -584,-109 -237,-53 -452,-119 -641,-196 -188,-77 -351,-165 -484,-263l-5 -4c-138,-103 -246,-218 -318,-343 -71,-123 -110,-258 -111,-399l-88 -1425c0,-384 18,-764 55,-1140 36,-382 92,-756 163,-1119 73,-369 164,-732 272,-1082 109,-356 235,-700 375,-1029 128,-301 271,-593 425,-871 155,-280 323,-548 501,-801 177,-251 364,-488 561,-709 194,-217 399,-421 611,-609l43 -77c58,-75 81,-105 156,-165l0 -5558c0,-42 18,-80 45,-107 27,-27 65,-44 107,-44zm1437 6890l-874 0c-178,153 -350,321 -513,501 -169,186 -330,387 -482,600 -155,218 -303,452 -439,697 -135,243 -261,499 -374,765 -123,289 -234,591 -329,902 -93,306 -173,625 -238,954 -63,323 -112,654 -144,991 -31,329 -48,669 -48,1016l18 290 316 -83c178,-40 374,-77 584,-109 204,-31 424,-58 654,-80 228,-21 465,-39 707,-49 239,-11 482,-17 725,-17 243,0 486,6 725,17 242,11 480,28 707,49 230,22 449,49 654,80 210,32 406,69 583,109l317 83 18 -288c0,-347 -17,-687 -48,-1016 -32,-338 -81,-670 -144,-993 -64,-329 -145,-648 -238,-955 -95,-311 -205,-613 -328,-902 -114,-266 -239,-523 -375,-766 -136,-245 -284,-478 -440,-697 -152,-213 -313,-414 -481,-600 -163,-180 -335,-348 -513,-501zm1610 7843l-212 -33c-168,-24 -347,-46 -534,-63 -199,-18 -411,-33 -635,-43 -210,-9 -433,-14 -666,-14 -233,0 -456,5 -667,14 -222,10 -434,24 -632,43 -187,17 -366,38 -534,63l-212 33 214 34c167,24 346,45 533,62 198,18 411,33 635,43 210,9 432,14 664,14 234,0 457,-5 667,-14 222,-10 434,-24 631,-43 187,-17 366,-38 533,-62l214 -34zm-7681 11153c-261,-59 -548,-112 -855,-158 -305,-46 -632,-85 -974,-117 -336,-31 -692,-55 -1064,-72 -355,-16 -729,-24 -1115,-24 -386,0 -760,8 -1115,24 -372,16 -729,40 -1064,72 -342,32 -669,71 -974,117 -307,46 -594,100 -855,158 -208,47 -395,93 -555,135 -159,42 -298,84 -412,122l-134 45 133 45c114,39 254,80 413,122 160,42 347,88 555,135 260,59 547,112 854,158 305,46 632,85 975,117 336,31 692,55 1064,72 356,16 729,24 1115,24 387,0 760,-8 1116,-24 372,-16 728,-41 1064,-72 343,-32 670,-72 975,-117 307,-46 594,-100 854,-158 208,-47 395,-93 555,-135 159,-42 298,-84 412,-122l133 -45 -133 -45c-114,-39 -253,-80 -412,-122 -160,-42 -347,-88 -555,-135z"/>
 </g>
</svg>
