<?xml version="1.0" encoding="UTF-8"?>
<!DOCTYPE svg PUBLIC "-//W3C//DTD SVG 1.0//EN" "http://www.w3.org/TR/2001/REC-SVG-20010904/DTD/svg10.dtd">
<!-- Creator: CorelDRAW — Indian 16A Socket (IS:1293) exact paths -->
<svg xmlns="http://www.w3.org/2000/svg" xml:space="preserve" width="48mm" height="51mm" version="1.0"
 style="shape-rendering:geometricPrecision; text-rendering:geometricPrecision; image-rendering:optimizeQuality; fill-rule:evenodd; clip-rule:evenodd"
 viewBox="0 0 58.73 62.4"
 xmlns:xlink="http://www.w3.org/1999/xlink"
 xmlns:xodm="http://www.corel.com/coreldraw/odm/2003">
 <defs>
  <style type="text/css">
   <![CDATA[
    .str0 {stroke:#D2D3D5;stroke-width:0;stroke-miterlimit:22.9256}
    .fil1 {fill:none}
    .fil0 {fill:#D2D3D5}
   ]]>
  </style>
 </defs>
 <g id="Layer_x0020_1">
  <metadata id="CorelCorpID_0Corel-Layer"/>
  <g id="_2442094244864">
   <path class="fil0 str0" d="M44.84 39.66c2.75,0 4.98,2.3 4.98,5.15 0,2.84 -2.23,5.15 -4.98,5.15 -0.26,0 -0.51,-0.02 -0.76,-0.06 -0.65,1.25 -1.92,2.09 -3.38,2.09 -2.12,0 -3.83,-1.77 -3.83,-3.96 0,-1.91 1.3,-3.5 3.04,-3.88 0.31,-2.53 2.4,-4.48 4.94,-4.48z"/>
   <path class="fil0 str0" d="M13.54 39.66c-2.75,0 -4.98,2.3 -4.98,5.15 0,2.84 2.23,5.15 4.98,5.15 0.26,0 0.51,-0.02 0.76,-0.06 0.65,1.25 1.92,2.09 3.38,2.09 2.12,0 3.83,-1.77 3.83,-3.96 0,-1.91 -1.3,-3.5 -3.04,-3.88 -0.31,-2.53 -2.4,-4.48 -4.94,-4.48z"/>
   <path class="fil0 str0" d="M32.67 19.97c0.1,0.25 0.3,0.48 0.54,0.61 0.62,0.84 0.99,1.88 0.99,3 0,2.78 -2.25,5.03 -5.03,5.03 -0.06,0 -0.13,-0 -0.19,-0 -0.06,0 -0.13,0 -0.19,0 -2.78,0 -5.03,-2.25 -5.03,-5.03 0,-1.13 0.37,-2.16 0.99,-3 0.24,-0.14 0.43,-0.36 0.54,-0.61l0.04 -0.1 0.03 -0.12 0.02 -0.13 0 -0.11c-0.01,-0.19 -0.04,-0.34 -0.15,-0.56 -0.68,-0.54 -1.25,-1.23 -1.67,-2.02l-0 -0c-0.08,-0.16 -0.16,-0.32 -0.23,-0.48l-0 -0.01 -0.03 -0.06 -0.03 -0.08 -0.02 -0.04 -0.02 -0.04 -0.02 -0.05 -0.01 -0.02 -0.04 -0.1 -0.01 -0.03 -0.02 -0.05 -0.01 -0.04 -0.03 -0.09 -0.01 -0.05 -0.01 -0.03 -0.02 -0.06 -0.01 -0.04 -0.02 -0.06 -0.01 -0.04 -0.02 -0.09 -0.01 -0.02 -0.02 -0.07 -0.01 -0.03 -0.02 -0.09 -0.01 -0.03 -0.01 -0.07 -0.01 -0.03 -0.01 -0.08 -0.01 -0.04 -0.01 -0.08 -0.01 -0.04 -0.01 -0.07 -0 -0.02 -0.01 -0.1 -0 -0.01 -0.01 -0.09 -0 -0.03 -0.01 -0.08 -0 -0.03 -0.01 -0.1 -0 -0.01 -0.01 -0.1 -0 -0.02 -0 -0.11 0 -0 -0 -0.09 -0 -0.03 -0 -0.1c0,-3.53 2.77,-6.39 6.19,-6.39 3.42,0 6.19,2.86 6.19,6.39l-0 0.1 -0 0.03 -0 0.09 0 0 -0 0.11 -0 0.02 -0.01 0.1 -0 0.01 -0.01 0.1 -0 0.03 -0.01 0.08 -0 0.03 -0.01 0.09 -0 0.01 -0.01 0.1 -0 0.02 -0.01 0.07 -0.01 0.04 -0.01 0.08 -0.01 0.04 -0.01 0.08 -0.01 0.03 -0.01 0.07 -0.01 0.03 -0.02 0.09 -0.01 0.03 -0.02 0.07 -0.01 0.02 -0.02 0.09 -0.01 0.04 -0.02 0.06 -0.01 0.04 -0.02 0.06 -0.01 0.03 -0.01 0.05 -0.03 0.09 -0.01 0.04 -0.02 0.05 -0.01 0.03 -0.04 0.1 -0.01 0.02 -0.02 0.05 -0.02 0.04 -0.02 0.04 -0.03 0.08 -0.03 0.06 -0 0.01c-0.07,0.16 -0.15,0.33 -0.23,0.48l-0 0c-0.42,0.79 -0.99,1.47 -1.67,2.02 -0.11,0.22 -0.14,0.37 -0.15,0.56l0 0.11 0.02 0.13 0.03 0.12 0.04 0.1z"/>
   <rect class="fil1" width="58.73" height="62.4"/>
  </g>
 </g>
</svg>
