<?xml version="1.0" encoding="UTF-8"?>
<!DOCTYPE svg PUBLIC "-//W3C//DTD SVG 1.0//EN" "http://www.w3.org/TR/2001/REC-SVG-20010904/DTD/svg10.dtd">
<!-- Creator: CorelDRAW -->
<svg xmlns="http://www.w3.org/2000/svg" xml:space="preserve" width="45.641mm" height="47.122mm" version="1.0" style="shape-rendering:geometricPrecision; text-rendering:geometricPrecision; image-rendering:optimizeQuality; fill-rule:evenodd; clip-rule:evenodd"
viewBox="0 0 91.76 94.74"
 xmlns:xlink="http://www.w3.org/1999/xlink"
 xmlns:xodm="http://www.corel.com/coreldraw/odm/2003">
 <defs>
  <style type="text/css">
   <![CDATA[
    .fil0 {fill:none}
    .fil1 {fill:#00AFEF}
    .fil2 {fill:#00AFEF;fill-rule:nonzero}
   ]]>
  </style>
 </defs>
 <g id="Layer_x0020_1">
  <metadata id="CorelCorpID_0Corel-Layer"/>
  <g id="_2198291946304">
   <polygon class="fil0" points="-0,0 91.76,0 91.76,94.74 -0,94.74 "/>
   <g>
    <polygon class="fil1" points="24.01,71.71 26.26,67.2 21.75,67.2 "/>
    <g>
     <path class="fil2" d="M24 63.43c1.67,0 3.17,0.68 4.26,1.77 1.09,1.09 1.77,2.6 1.77,4.27 0,1.67 -0.68,3.17 -1.77,4.26 -1.09,1.09 -2.6,1.77 -4.26,1.77 -1.67,0 -3.17,-0.68 -4.27,-1.77 -1.09,-1.09 -1.77,-2.6 -1.77,-4.26 0,-1.67 0.68,-3.17 1.77,-4.27 1.09,-1.09 2.6,-1.77 4.27,-1.77zm3.55 2.48c-0.91,-0.91 -2.17,-1.47 -3.55,-1.47 -1.39,0 -2.64,0.56 -3.55,1.47 -0.91,0.91 -1.47,2.17 -1.47,3.55 0,1.39 0.56,2.64 1.47,3.55 0.91,0.91 2.17,1.47 3.55,1.47 1.39,0 2.64,-0.56 3.55,-1.47 0.91,-0.91 1.47,-2.17 1.47,-3.55 0,-1.39 -0.56,-2.64 -1.47,-3.55z"/>
     <path class="fil2" d="M20.6 61.62c-0.66,0.28 -1.27,0.65 -1.83,1.09l0.62 0.79c0.5,-0.39 1.04,-0.71 1.62,-0.96l-0.4 -0.92zm3.4 -0.7c-0.1,0 -0.2,0 -0.29,0.01l0.04 1c0.71,-0.03 1.43,0.06 2.12,0.23l0.24 -0.98c-0.7,-0.18 -1.39,-0.26 -2.11,-0.26zm-7.34 4.18c-0.36,0.61 -0.65,1.27 -0.85,1.95l0.97 0.28c0.19,-0.62 0.43,-1.17 0.75,-1.72l-0.87 -0.51zm-1.17 5.12c0.05,0.69 0.22,1.43 0.45,2.08l0.95 -0.33c-0.2,-0.57 -0.35,-1.23 -0.4,-1.84l-1 0.09zm2.05 4.84c0.46,0.54 1.01,1.02 1.58,1.43l0.57 -0.83c-0.51,-0.36 -0.99,-0.78 -1.4,-1.26l-0.76 0.66zm4.49 2.73c0.7,0.16 1.4,0.24 2.12,0.23l-0.02 -1.01c-0.63,0.01 -1.26,-0.06 -1.87,-0.2l-0.23 0.98zm5.24 -0.42c0.66,-0.28 1.28,-0.63 1.85,-1.06l-0.61 -0.8c-0.55,0.39 -1.01,0.67 -1.63,0.93l0.39 0.93zm4 -3.4c0.38,-0.61 0.67,-1.26 0.89,-1.94l-0.96 -0.3c-0.19,0.6 -0.45,1.17 -0.78,1.71l0.86 0.53zm1.25 -5.1c-0.05,-0.74 -0.19,-1.39 -0.41,-2.09l-0.95 0.32c0.2,0.53 0.32,1.28 0.36,1.84l1 -0.08zm-1.97 -4.87c-0.46,-0.55 -0.98,-1.03 -1.56,-1.45l-0.59 0.82c0.52,0.38 0.96,0.79 1.38,1.28l0.77 -0.65z"/>
    </g>
   </g>
   <g>
    <polygon class="fil1" points="67.84,22.99 70.1,27.5 65.58,27.5 "/>
    <g>
     <path class="fil2" d="M67.84 19.21c1.67,0 3.17,0.68 4.26,1.77 1.09,1.09 1.77,2.6 1.77,4.27 0,1.67 -0.68,3.17 -1.77,4.26 -1.09,1.09 -2.6,1.77 -4.26,1.77 -1.67,0 -3.17,-0.68 -4.27,-1.77 -1.09,-1.09 -1.77,-2.6 -1.77,-4.26 0,-1.67 0.68,-3.17 1.77,-4.27 1.09,-1.09 2.6,-1.77 4.27,-1.77zm3.55 2.48c-0.91,-0.91 -2.17,-1.47 -3.55,-1.47 -1.39,0 -2.64,0.56 -3.55,1.47 -0.91,0.91 -1.47,2.17 -1.47,3.55 0,1.39 0.56,2.64 1.47,3.55 0.91,0.91 2.17,1.47 3.55,1.47 1.39,0 2.64,-0.56 3.55,-1.47 0.91,-0.91 1.47,-2.17 1.47,-3.55 0,-1.39 -0.56,-2.64 -1.47,-3.55z"/>
     <path class="fil2" d="M67.54 16.7c-0.7,0.02 -1.43,0.14 -2.1,0.34l0.29 0.96c0.46,-0.18 1.36,-0.28 1.86,-0.3l-0.04 -1zm-3.11 0.7c-0.66,0.28 -1.27,0.65 -1.83,1.09l0.62 0.79c0.5,-0.39 1.04,-0.71 1.62,-0.96l-0.4 -0.92zm-2.63 1.79c-0.49,0.49 -0.96,1.08 -1.31,1.68l0.87 0.51c0.32,-0.54 0.71,-1.04 1.16,-1.48l-0.71 -0.71zm-1.8 2.63c-0.29,0.67 -0.48,1.32 -0.6,2.05l0.99 0.16c0.1,-0.62 0.28,-1.22 0.53,-1.8l-0.92 -0.4zm-0.71 3.11c-0.02,0.71 0.03,1.42 0.19,2.12l0.98 -0.21c-0.14,-0.61 -0.18,-1.25 -0.16,-1.88l-1 -0.03zm0.48 3.15c0.2,0.61 0.59,1.38 0.95,1.91l0.83 -0.56c-0.32,-0.49 -0.66,-1.12 -0.84,-1.68l-0.95 0.33zm1.6 2.75c0.46,0.54 1.01,1.02 1.58,1.43l0.57 -0.83c-0.51,-0.36 -0.99,-0.78 -1.4,-1.26l-0.76 0.66zm2.5 1.98c0.67,0.35 1.27,0.56 2,0.75l0.23 -0.98c-0.63,-0.16 -1.18,-0.36 -1.76,-0.66l-0.46 0.89zm3.05 0.93c0.72,0.07 1.41,0.06 2.13,-0.04l-0.15 -0.99c-0.62,0.09 -1.26,0.09 -1.88,0.03l-0.1 1zm3.17 -0.25c0.68,-0.18 1.36,-0.47 1.97,-0.82l-0.5 -0.87c-0.55,0.31 -1.13,0.56 -1.74,0.72l0.27 0.97zm2.86 -1.4c0.57,-0.43 1.08,-0.92 1.53,-1.48l-0.78 -0.63c-0.39,0.49 -0.86,0.93 -1.36,1.31l0.61 0.8zm2.15 -2.35c0.38,-0.61 0.67,-1.26 0.89,-1.94l-0.96 -0.3c-0.19,0.6 -0.45,1.17 -0.78,1.71l0.86 0.53zm1.14 -2.97c0.11,-0.67 0.18,-1.45 0.11,-2.13l-1 0.08c0.05,0.64 0.01,1.25 -0.1,1.88l0.99 0.18zm-0.03 -3.18c-0.1,-0.63 -0.39,-1.44 -0.67,-2.02l-0.91 0.44c0.25,0.51 0.5,1.22 0.59,1.78l0.99 -0.2zm-1.19 -2.96c-0.38,-0.6 -0.85,-1.15 -1.37,-1.63l-0.69 0.74c0.46,0.43 0.87,0.91 1.21,1.44l0.84 -0.55zm-2.19 -2.31c-0.65,-0.46 -1.15,-0.71 -1.87,-1.02l-0.36 0.94c0.6,0.24 1.12,0.53 1.65,0.9l0.59 -0.82zm-2.89 -1.35c-0.7,-0.18 -1.39,-0.26 -2.11,-0.26l0 1.01c0.64,0 1.25,0.08 1.87,0.23l0.24 -0.98z"/>
    </g>
   </g>
   <g>
    <polygon class="fil1" points="24.01,22.99 26.26,27.5 21.75,27.5 "/>
    <g>
     <path class="fil2" d="M24 19.21c1.67,0 3.17,0.68 4.26,1.77 1.09,1.09 1.77,2.6 1.77,4.27 0,1.67 -0.68,3.17 -1.77,4.26 -1.09,1.09 -2.6,1.77 -4.26,1.77 -1.67,0 -3.17,-0.68 -4.27,-1.77 -1.09,-1.09 -1.77,-2.6 -1.77,-4.26 0,-1.67 0.68,-3.17 1.77,-4.27 1.09,-1.09 2.6,-1.77 4.27,-1.77zm3.55 2.48c-0.91,-0.91 -2.17,-1.47 -3.55,-1.47 -1.39,0 -2.64,0.56 -3.55,1.47 -0.91,0.91 -1.47,2.17 -1.47,3.55 0,1.39 0.56,2.64 1.47,3.55 0.91,0.91 2.17,1.47 3.55,1.47 1.39,0 2.64,-0.56 3.55,-1.47 0.91,-0.91 1.47,-2.17 1.47,-3.55 0,-1.39 -0.56,-2.64 -1.47,-3.55z"/>
     <path class="fil2" d="M23.71 16.7c-0.7,0.02 -1.43,0.14 -2.1,0.34l0.29 0.96c0.46,-0.18 1.36,-0.28 1.86,-0.3l-0.04 -1zm-3.11 0.7c-0.66,0.28 -1.27,0.65 -1.83,1.09l0.62 0.79c0.5,-0.39 1.04,-0.71 1.62,-0.96l-0.4 -0.92zm-2.63 1.79c-0.49,0.49 -0.96,1.08 -1.31,1.68l0.87 0.51c0.32,-0.54 0.71,-1.04 1.16,-1.48l-0.71 -0.71zm-1.8 2.63c-0.29,0.67 -0.48,1.32 -0.6,2.05l0.99 0.16c0.1,-0.62 0.28,-1.22 0.53,-1.8l-0.92 -0.4zm-0.71 3.11c-0.02,0.71 0.03,1.42 0.19,2.12l0.98 -0.21c-0.14,-0.61 -0.18,-1.25 -0.16,-1.88l-1 -0.03zm0.48 3.15c0.2,0.61 0.59,1.38 0.95,1.91l0.83 -0.56c-0.32,-0.49 -0.66,-1.12 -0.84,-1.68l-0.95 0.33zm1.6 2.75c0.46,0.54 1.01,1.02 1.58,1.43l0.57 -0.83c-0.51,-0.36 -0.99,-0.78 -1.4,-1.26l-0.76 0.66zm2.5 1.98c0.67,0.35 1.27,0.56 2,0.75l0.23 -0.98c-0.63,-0.16 -1.18,-0.36 -1.76,-0.66l-0.46 0.89zm3.05 0.93c0.72,0.07 1.41,0.06 2.13,-0.04l-0.15 -0.99c-0.62,0.09 -1.26,0.09 -1.88,0.03l-0.1 1zm3.17 -0.25c0.68,-0.18 1.36,-0.47 1.97,-0.82l-0.5 -0.87c-0.55,0.31 -1.13,0.56 -1.74,0.72l0.27 0.97zm2.86 -1.4c0.57,-0.43 1.08,-0.92 1.53,-1.48l-0.78 -0.63c-0.39,0.49 -0.86,0.93 -1.36,1.31l0.61 0.8zm2.15 -2.35c0.38,-0.61 0.67,-1.26 0.89,-1.94l-0.96 -0.3c-0.19,0.6 -0.45,1.17 -0.78,1.71l0.86 0.53zm1.14 -2.97c0.11,-0.67 0.18,-1.45 0.11,-2.13l-1 0.08c0.05,0.64 0.01,1.25 -0.1,1.88l0.99 0.18zm-0.03 -3.18c-0.1,-0.63 -0.39,-1.44 -0.67,-2.02l-0.91 0.44c0.25,0.51 0.5,1.22 0.59,1.78l0.99 -0.2zm-1.19 -2.96c-0.38,-0.6 -0.85,-1.15 -1.37,-1.63l-0.69 0.74c0.46,0.43 0.87,0.91 1.21,1.44l0.84 -0.55zm-2.19 -2.31c-0.65,-0.46 -1.15,-0.71 -1.87,-1.02l-0.36 0.94c0.6,0.24 1.12,0.53 1.65,0.9l0.59 -0.82zm-2.89 -1.35c-0.7,-0.18 -1.39,-0.26 -2.11,-0.26l0 1.01c0.64,0 1.25,0.08 1.87,0.23l0.24 -0.98z"/>
    </g>
   </g>
   <g>
    <polygon class="fil1" points="67.84,71.71 70.1,67.2 65.58,67.2 "/>
    <g>
     <path class="fil2" d="M67.83 63.43c1.67,0 3.17,0.68 4.26,1.77 1.09,1.09 1.77,2.6 1.77,4.27 0,1.67 -0.68,3.17 -1.77,4.26 -1.09,1.09 -2.6,1.77 -4.26,1.77 -1.67,0 -3.17,-0.68 -4.27,-1.77 -1.09,-1.09 -1.77,-2.6 -1.77,-4.26 0,-1.67 0.68,-3.17 1.77,-4.27 1.09,-1.09 2.6,-1.77 4.27,-1.77zm3.55 2.48c-0.91,-0.91 -2.17,-1.47 -3.55,-1.47 -1.39,0 -2.64,0.56 -3.55,1.47 -0.91,0.91 -1.47,2.17 -1.47,3.55 0,1.39 0.56,2.64 1.47,3.55 0.91,0.91 2.17,1.47 3.55,1.47 1.39,0 2.64,-0.56 3.55,-1.47 0.91,-0.91 1.47,-2.17 1.47,-3.55 0,-1.39 -0.56,-2.64 -1.47,-3.55z"/>
     <path class="fil2" d="M64.43 61.62c-0.66,0.28 -1.27,0.65 -1.83,1.09l0.62 0.79c0.5,-0.39 1.04,-0.71 1.62,-0.96l-0.4 -0.92zm3.4 -0.7c-0.1,0 -0.2,0 -0.29,0.01l0.04 1c0.71,-0.03 1.43,0.06 2.12,0.23l0.24 -0.98c-0.7,-0.18 -1.39,-0.26 -2.11,-0.26zm-7.34 4.18c-0.36,0.61 -0.65,1.27 -0.85,1.95l0.97 0.28c0.19,-0.62 0.43,-1.17 0.75,-1.72l-0.87 -0.51zm-1.17 5.12c0.05,0.69 0.22,1.43 0.45,2.08l0.95 -0.33c-0.2,-0.57 -0.35,-1.23 -0.4,-1.84l-1 0.09zm2.05 4.84c0.46,0.54 1.01,1.02 1.58,1.43l0.57 -0.83c-0.51,-0.36 -0.99,-0.78 -1.4,-1.26l-0.76 0.66zm4.49 2.73c0.7,0.16 1.4,0.24 2.12,0.23l-0.02 -1.01c-0.63,0.01 -1.26,-0.06 -1.87,-0.2l-0.23 0.98zm5.24 -0.42c0.66,-0.28 1.28,-0.63 1.85,-1.06l-0.61 -0.8c-0.55,0.39 -1.01,0.67 -1.63,0.93l0.39 0.93zm4 -3.4c0.38,-0.61 0.67,-1.26 0.89,-1.94l-0.96 -0.3c-0.19,0.6 -0.45,1.17 -0.78,1.71l0.86 0.53zm1.25 -5.1c-0.05,-0.74 -0.19,-1.39 -0.41,-2.09l-0.95 0.32c0.2,0.53 0.32,1.28 0.36,1.84l1 -0.08zm-1.97 -4.87c-0.46,-0.55 -0.98,-1.03 -1.56,-1.45l-0.59 0.82c0.52,0.38 0.96,0.79 1.38,1.28l0.77 -0.65z"/>
    </g>
   </g>
  </g>
 </g>
</svg>
