<?xml version="1.0" encoding="UTF-8"?>
<!DOCTYPE svg PUBLIC "-//W3C//DTD SVG 1.0//EN" "http://www.w3.org/TR/2001/REC-SVG-20010904/DTD/svg10.dtd">
<!-- Creator: CorelDRAW -->
<svg xmlns="http://www.w3.org/2000/svg" xml:space="preserve" width="45.3627mm" height="46.99mm" version="1.0" style="shape-rendering:geometricPrecision; text-rendering:geometricPrecision; image-rendering:optimizeQuality; fill-rule:evenodd; clip-rule:evenodd"
viewBox="0 0 142.61 147.73"
 xmlns:xlink="http://www.w3.org/1999/xlink"
 xmlns:xodm="http://www.corel.com/coreldraw/odm/2003">
 <defs>
  <style type="text/css">
   <![CDATA[
    .str0 {stroke:#00AFEF;stroke-width:1.57;stroke-miterlimit:22.9256;stroke-dasharray:1.571878 1.571878}
    .str1 {stroke:#00AFEF;stroke-width:1.26;stroke-miterlimit:22.9256;stroke-dasharray:1.257503 1.257503}
    .fil1 {fill:none}
    .fil0 {fill:#00AFEF}
   ]]>
  </style>
 </defs>
 <g id="Layer_x0020_1">
  <metadata id="CorelCorpID_0Corel-Layer"/>
  <g id="_2198204656768">
   <g>
    <g>
     <path class="fil0" d="M70.45 85.87l0 -0.18 4.24 0c0,0.97 -0.24,1.49 -0.9,2.01 -0.1,0.08 -0.21,0.15 -0.34,0.21 -0.63,0.27 -1.14,0.26 -1.76,-0.01 -0.17,-0.07 -0.22,-0.1 -0.35,-0.2 -0.05,-0.04 -0.07,-0.06 -0.13,-0.11l-0.16 -0.15c-0.36,-0.37 -0.61,-0.86 -0.61,-1.57zm2.12 -22.61c0.44,0 1.07,0.1 1.45,0.19 0.44,0.1 0.88,0.25 1.26,0.44 0.57,0.29 1.54,0.91 1.92,1.41 0.54,0.69 0.93,1.06 1.28,2.05 0.35,0.98 0.45,1.64 0.45,2.95 0,2.01 -0.16,4.81 0.18,6.49 0.32,1.63 0.85,2.84 1.73,4.15 0.14,0.21 0.23,0.3 0.34,0.51l-17.21 0c0.26,-0.49 0.86,-1.15 1.25,-2.09 1.39,-3.36 1,-5.2 1,-9.07 -0,-1.14 0.1,-2.1 0.42,-2.91 0.25,-0.64 0.5,-1.06 0.89,-1.59 0.16,-0.22 0.23,-0.27 0.4,-0.45l0.85 -0.79c1.08,-0.8 2.43,-1.29 3.8,-1.29zm-2.12 -0.91c0,-1.01 0.04,-1.33 0.49,-1.93 0.77,-1.03 2.47,-1.05 3.26,0 0.45,0.6 0.49,0.92 0.49,1.93 -0.85,-0.41 -3.39,-0.41 -4.24,0zm-1.21 0.48c-0.62,0.14 -1.56,0.99 -2.05,1.46l-0.95 1.17c-0.92,1.38 -1.24,2.62 -1.24,4.46 0,2.14 0.14,5.38 -0.33,7.25 -0.14,0.57 -0.51,1.56 -0.78,2.06 -0.27,0.5 -0.79,1.3 -1.15,1.7 -0.71,0.79 -0.19,0.38 -1.37,0.51 -1.03,0.11 -1.82,0.98 -1.82,2.24 0,1.03 0.97,2 2,2l7.7 0 0 0.48c0,1.61 1.54,3.15 3.15,3.15l0.36 0c1.62,0 3.15,-1.54 3.15,-3.15l0 -0.48 7.7 0c1.09,0 2,-0.92 2,-2.24 0,-1.02 -0.89,-1.86 -1.77,-1.99 -0.27,-0.04 -0.65,0.02 -0.89,-0.02 -0.26,-0.05 -0.21,-0.15 -0.5,-0.47 -0.28,-0.29 -0.6,-0.76 -0.81,-1.13 -1.09,-1.83 -1.47,-3.22 -1.47,-6.1 0,-1.25 0,-2.51 0,-3.76 0,-2.59 -0.58,-3.81 -2.04,-5.53 -0.44,-0.52 -1.63,-1.48 -2.2,-1.62 0,-1.16 0.09,-2.18 -0.66,-3.1 -0.29,-0.36 -0.58,-0.64 -1,-0.88 -1.94,-1.13 -4.42,-0.04 -4.94,2.12 -0.13,0.53 -0.07,1.24 -0.07,1.86z"/>
     <path class="fil0" d="M78.51 58.96c0,0.69 0.69,0.73 1.79,1.6 1.08,0.85 1.89,1.87 2.6,3.04 0.89,1.47 1.43,3.4 1.43,5.24 -0,0.98 -0.17,1.7 0.67,1.7 0.73,0 0.61,-1.09 0.61,-1.7 0,-3.63 -1.66,-6.5 -3.89,-8.71l-1.18 -0.94c-0.35,-0.26 -1.05,-0.77 -1.47,-0.77 -0.3,0 -0.55,0.25 -0.55,0.55z"/>
     <path class="fil0" d="M59.54 68.6c0,0.92 -0.19,1.94 0.67,1.94 0.87,0 0.55,-1.17 0.55,-1.45 0,-1.2 0.25,-2.48 0.55,-3.39 0.35,-1.05 0.72,-1.83 1.3,-2.7 0.54,-0.81 1.12,-1.48 1.83,-2.11 0.18,-0.16 0.35,-0.28 0.54,-0.43l1.2 -0.8c0.37,-0.22 0.46,-0.25 0.46,-0.69 0,-0.39 -0.3,-0.55 -0.67,-0.55 -0.42,0 -2.17,1.35 -2.47,1.65 -0.31,0.31 -0.76,0.71 -1.02,1.04 -0.17,0.22 -0.29,0.35 -0.46,0.57 -1.43,1.92 -2.48,4.43 -2.48,6.92z"/>
     <path class="fil0" d="M82.75 68.72c0,-2.53 -0.76,-4.27 -2.5,-5.99 -0.31,-0.31 -1.29,-1.11 -1.8,-1.11 -0.5,0 -0.75,0.58 -0.44,0.98 0.31,0.4 1.36,0.48 2.72,2.74 0.37,0.61 0.76,1.86 0.75,2.82 -0,0.7 -0.11,1.21 0.43,1.39 0.22,0.08 0.46,0.02 0.63,-0.15 0.16,-0.16 0.21,-0.41 0.21,-0.7z"/>
     <path class="fil0" d="M62.39 68.17l0 0.79c0,0.81 1.27,0.9 1.27,-0.06 0,-0.3 -0.07,-0.28 -0.04,-0.53 0.11,-1.32 0.26,-2.28 1.06,-3.48 0.6,-0.89 1.05,-1.33 1.91,-1.9 0.42,-0.28 0.64,-0.26 0.64,-0.81 0,-0.39 -0.3,-0.55 -0.67,-0.55 -0.34,0 -1.4,0.82 -1.62,1.04 -1.49,1.47 -2.56,3.27 -2.56,5.5z"/>
    </g>
    <rect class="fil1 str0" x="45.06" y="46.35" width="55.02" height="55.02" rx="14.48" ry="14.48"/>
    <rect class="fil1 str1" x="49.58" y="50.87" width="45.98" height="45.98" rx="11.58" ry="11.58"/>
   </g>
   <rect class="fil1" width="142.61" height="147.73"/>
  </g>
 </g>
</svg>
