<?xml version="1.0" encoding="UTF-8"?>
<!DOCTYPE svg PUBLIC "-//W3C//DTD SVG 1.0//EN" "http://www.w3.org/TR/2001/REC-SVG-20010904/DTD/svg10.dtd">
<!-- Creator: CorelDRAW -->
<svg xmlns="http://www.w3.org/2000/svg" xml:space="preserve" width="45.3mm" height="45.3mm" version="1.0" style="shape-rendering:geometricPrecision; text-rendering:geometricPrecision; image-rendering:optimizeQuality; fill-rule:evenodd; clip-rule:evenodd"
viewBox="0 0 557.46 557.46"
 xmlns:xlink="http://www.w3.org/1999/xlink"
 xmlns:xodm="http://www.corel.com/coreldraw/odm/2003">
 <defs>
  <style type="text/css">
   <![CDATA[
    .str2 {stroke:#00AFEF;stroke-width:3.25;stroke-miterlimit:22.9256}
    .str1 {stroke:#00AFEF;stroke-width:4.34;stroke-miterlimit:22.9256}
    .str0 {stroke:#00AFEF;stroke-width:0.94;stroke-miterlimit:22.9256}
    .str3 {stroke:#00AFEF;stroke-width:3.69;stroke-miterlimit:22.9256;stroke-dasharray:3.691755 3.691755}
    .fil0 {fill:none}
    .fil3 {fill:none;fill-rule:nonzero}
    .fil1 {fill:#00AFEF}
    .fil2 {fill:#00AFEF;fill-rule:nonzero}
   ]]>
  </style>
 </defs>
 <g id="Layer_x0020_1">
  <metadata id="CorelCorpID_0Corel-Layer"/>
  <g id="_2198111549904">
   <rect class="fil0" x="0" y="-0" width="557.46" height="557.46"/>
   <g>
    <path class="fil1 str0" d="M292.03 316c-0.58,6.92 -6.31,12.36 -13.38,12.36 -7.06,0 -12.79,-5.48 -13.37,-12.4 4.47,0.25 9.01,0.43 13.4,0.43 4.36,0 8.9,-0.18 13.34,-0.4z"/>
    <path class="fil0 str1" d="M238.77 307.85c13.31,-8.87 16.18,-33.61 17.75,-44.69 2.39,-16.96 14.46,-21.82 22.18,-21.82 7.7,0 19.74,4.86 22.15,21.82 1.58,11.08 4.44,35.82 17.84,44.69 0,0 -21.85,3.29 -39.99,3.29 -18.13,0 -39.92,-3.29 -39.92,-3.29z"/>
    <path class="fil1 str0" d="M278.72 235.77c-2.6,0 -4.7,-0.3 -4.7,-0.69l-2.36 -7.01c0,-0.57 3.17,-1.05 7.06,-1.05 3.89,0 7.03,0.48 7.03,1.05l-2.32 7.01c0,0.39 -2.12,0.69 -4.71,0.69z"/>
    <path class="fil1 str0" d="M288.73 278.54c3.64,12.5 8.05,19.57 13.27,23.08 -4.44,-7.05 -5.84,-13.19 -6.82,-23.08 -1.49,-15.21 -5.62,-27.68 -10.52,-27.67 -4.85,0 -0.01,13.71 4.07,27.67z"/>
    <path class="fil1 str2" d="M227.81 296.59c-0.48,0.49 -1.13,0.73 -1.76,0.73 -0.65,0 -1.28,-0.25 -1.77,-0.73 -4.13,-4.13 -6.4,-9.63 -6.4,-15.47 0,-5.84 2.27,-11.33 6.4,-15.46 0.98,-0.98 2.55,-0.98 3.53,0 0.99,0.98 0.99,2.56 0,3.53 -3.18,3.19 -4.94,7.43 -4.94,11.93 0,4.51 1.76,8.74 4.94,11.93 0.99,0.98 0.99,2.57 0,3.55z"/>
    <path class="fil1 str2" d="M211.22 246.44c0.98,-0.98 2.56,-0.98 3.53,0 0.98,0.98 0.98,2.55 0,3.53 -17.17,17.17 -17.17,45.11 0,62.29 0.98,0.98 0.98,2.57 0,3.55 -0.49,0.49 -1.12,0.73 -1.76,0.73 -0.65,0 -1.28,-0.24 -1.77,-0.73 -19.13,-19.13 -19.13,-50.25 0,-69.37z"/>
    <path class="fil1 str2" d="M329.63 296.59c0.48,0.49 1.13,0.73 1.76,0.73 0.65,0 1.28,-0.25 1.77,-0.73 4.13,-4.13 6.4,-9.63 6.4,-15.47 0,-5.84 -2.27,-11.33 -6.4,-15.46 -0.98,-0.98 -2.55,-0.98 -3.53,0 -0.99,0.98 -0.99,2.56 0,3.53 3.18,3.19 4.94,7.43 4.94,11.93 0,4.51 -1.76,8.74 -4.94,11.93 -0.99,0.98 -0.99,2.57 0,3.55z"/>
    <path class="fil1 str2" d="M346.23 246.44c-0.98,-0.98 -2.56,-0.98 -3.53,0 -0.98,0.98 -0.98,2.55 0,3.53 17.17,17.17 17.17,45.11 0,62.29 -0.98,0.98 -0.98,2.57 0,3.55 0.49,0.49 1.12,0.73 1.76,0.73 0.65,0 1.28,-0.24 1.77,-0.73 19.13,-19.13 19.13,-50.25 0,-69.37z"/>
    <path class="fil2" d="M259.87 156.78c2.1,-0.33 4.17,-0.56 6.28,-0.8l0.59 6.13c-1.98,0.21 -3.96,0.45 -5.93,0.75l-0.93 -6.08z"/>
    <path class="fil2" d="M247.52 159.33c2.04,-0.52 4.08,-1 6.14,-1.43l1.23 6.03c-1.96,0.41 -3.9,0.86 -5.84,1.36l-1.53 -5.96z"/>
    <path class="fil2" d="M235.48 163.13c1.95,-0.74 3.99,-1.45 5.98,-2.06l1.83 5.87c-1.9,0.6 -3.8,1.25 -5.65,1.95l-2.15 -5.76z"/>
    <path class="fil2" d="M223.92 168.15c1.89,-0.93 3.78,-1.81 5.71,-2.66l2.43 5.65c-1.84,0.8 -3.65,1.64 -5.44,2.53l-2.7 -5.53z"/>
    <path class="fil2" d="M212.92 174.33c1.78,-1.12 3.58,-2.19 5.41,-3.23l3 5.37c-1.75,0.99 -3.46,2.01 -5.16,3.08l-3.26 -5.22z"/>
    <path class="fil2" d="M202.61 181.6c1.66,-1.3 3.34,-2.54 5.05,-3.76l3.54 5.03c-1.64,1.17 -3.23,2.35 -4.82,3.58l-3.78 -4.86z"/>
    <path class="fil2" d="M193.09 189.87c1.52,-1.46 3.06,-2.87 4.65,-4.25l4.03 4.65c-1.51,1.32 -2.98,2.67 -4.43,4.06l-4.25 -4.45z"/>
    <path class="fil2" d="M184.47 199.07c1.36,-1.61 2.76,-3.17 4.19,-4.7l4.48 4.22c-1.37,1.46 -2.7,2.95 -3.99,4.48l-4.68 -4z"/>
    <path class="fil2" d="M176.82 209.1c1.19,-1.73 2.42,-3.43 3.69,-5.1l4.88 3.74c-1.21,1.6 -2.38,3.21 -3.52,4.87l-5.06 -3.5z"/>
    <path class="fil2" d="M170.23 219.86c1.01,-1.85 2.06,-3.66 3.15,-5.46l5.24 3.23c-1.05,1.71 -2.05,3.44 -3,5.2l-5.39 -2.97z"/>
    <path class="fil2" d="M164.77 231.23c0.81,-1.94 1.67,-3.86 2.58,-5.75l5.54 2.67c-0.87,1.81 -1.68,3.63 -2.45,5.48l-5.67 -2.39z"/>
    <path class="fil2" d="M160.51 243.11c0.61,-2.01 1.27,-4 1.97,-5.99l5.79 2.08c-0.67,1.89 -1.3,3.78 -1.88,5.7l-5.88 -1.79z"/>
    <path class="fil2" d="M157.49 255.36c0.4,-2.07 0.85,-4.11 1.35,-6.16l5.97 1.5c-0.49,1.93 -0.9,3.9 -1.28,5.86l-6.03 -1.2z"/>
    <path class="fil2" d="M155.75 267.87c0.17,-2.09 0.43,-4.19 0.71,-6.27l6.09 0.85c-0.27,1.98 -0.51,3.97 -0.68,5.96l-6.13 -0.54z"/>
    <path class="fil2" d="M155.28 280.47c0,-2.12 0,-4.19 0.08,-6.31l6.15 0.24c-0.07,2.01 -0.07,3.98 -0.07,5.99l-6.15 0.08z"/>
    <path class="fil2" d="M156.08 293.05c-0.24,-2.1 -0.42,-4.18 -0.56,-6.28l6.14 -0.39c0.14,2 0.31,3.98 0.53,5.97l-6.11 0.7z"/>
    <path class="fil2" d="M158.16 305.49c-0.45,-2.06 -0.85,-4.12 -1.2,-6.19l6.07 -1c0.34,1.98 0.71,3.93 1.14,5.89l-6.01 1.31z"/>
    <path class="fil2" d="M161.5 317.65c-0.65,-2 -1.27,-4 -1.83,-6.03l5.94 -1.61c0.54,1.93 1.12,3.83 1.74,5.74l-5.85 1.9z"/>
    <path class="fil2" d="M166.08 329.41c-0.86,-1.92 -1.67,-3.85 -2.44,-5.81l5.74 -2.22c0.73,1.87 1.5,3.7 2.32,5.53l-5.62 2.5z"/>
    <path class="fil2" d="M171.84 340.63c-1.05,-1.82 -2.05,-3.66 -3.02,-5.53l5.48 -2.81c0.92,1.78 1.87,3.53 2.88,5.27l-5.33 3.07z"/>
    <path class="fil2" d="M178.72 351.21c-1.23,-1.71 -2.41,-3.43 -3.57,-5.19l5.16 -3.35c1.1,1.68 2.22,3.32 3.4,4.95l-4.99 3.59z"/>
    <path class="fil2" d="M186.63 361.03c-1.4,-1.57 -2.75,-3.17 -4.08,-4.8l4.79 -3.86c1.27,1.56 2.55,3.08 3.89,4.58l-4.6 4.08z"/>
    <path class="fil2" d="M195.5 370c-1.55,-1.42 -3.07,-2.87 -4.54,-4.36l4.38 -4.32c1.42,1.42 2.85,2.81 4.33,4.16l-4.17 4.53z"/>
    <path class="fil2" d="M205.24 378.02c-1.69,-1.26 -3.34,-2.54 -4.96,-3.88l3.92 -4.75c1.55,1.27 3.12,2.5 4.73,3.7l-3.69 4.93z"/>
    <path class="fil2" d="M215.74 385.01c-1.81,-1.08 -3.58,-2.19 -5.33,-3.36l3.41 -5.12c1.68,1.11 3.36,2.17 5.08,3.2l-3.17 5.28z"/>
    <path class="fil2" d="M226.91 390.89c-1.91,-0.88 -3.79,-1.82 -5.65,-2.79l2.87 -5.44c1.77,0.93 3.56,1.82 5.38,2.66l-2.6 5.58z"/>
    <path class="fil2" d="M238.61 395.6c-1.97,-0.67 -4,-1.41 -5.93,-2.21l2.33 -5.7c1.85,0.74 3.72,1.44 5.61,2.09l-2.01 5.82z"/>
    <path class="fil2" d="M250.73 399.07c-2.05,-0.48 -4.08,-1 -6.1,-1.58l1.72 -5.91c1.92,0.56 3.86,1.05 5.81,1.51l-1.42 5.99z"/>
    <path class="fil2" d="M263.16 401.29c-2.08,-0.25 -4.17,-0.58 -6.23,-0.95l1.08 -6.06c1.97,0.35 3.95,0.66 5.93,0.9l-0.78 6.1z"/>
    <path class="fil2" d="M275.74 402.22c-2.1,-0.04 -4.21,-0.15 -6.3,-0.31l0.47 -6.14c1.99,0.15 4,0.26 5.99,0.29l-0.16 6.15z"/>
    <path class="fil2" d="M288.35 401.89c-2.1,0.16 -4.19,0.27 -6.3,0.32l-0.16 -6.15c2,-0.06 3.99,-0.16 5.99,-0.31l0.47 6.14z"/>
    <path class="fil2" d="M300.85 400.28c-2.08,0.37 -4.14,0.69 -6.23,0.96l-0.78 -6.1c1.99,-0.26 3.95,-0.56 5.93,-0.92l1.08 6.06z"/>
    <path class="fil2" d="M313.13 397.4c-2.03,0.58 -4.05,1.11 -6.1,1.6l-1.38 -6c1.95,-0.46 3.88,-0.97 5.8,-1.52l1.68 5.92z"/>
    <path class="fil2" d="M325.06 393.27c-1.95,0.79 -3.91,1.52 -5.9,2.22l-2.01 -5.82c1.89,-0.66 3.76,-1.36 5.62,-2.11l2.29 5.71z"/>
    <path class="fil2" d="M336.5 387.93c-1.84,0.98 -3.76,1.96 -5.66,2.82l-2.57 -5.59c1.79,-0.9 3.58,-1.72 5.35,-2.67l2.87 5.44z"/>
    <path class="fil2" d="M347.32 381.46c-1.75,1.17 -3.53,2.3 -5.34,3.38l-3.13 -5.3c1.71,-1.01 3.41,-2.1 5.06,-3.2l3.41 5.12z"/>
    <path class="fil2" d="M357.43 373.92c-1.62,1.35 -3.28,2.64 -4.97,3.91l-3.66 -4.95c1.6,-1.2 3.17,-2.43 4.7,-3.7l3.92 4.75z"/>
    <path class="fil2" d="M366.72 365.39c-1.47,1.5 -2.99,2.98 -4.54,4.39l-4.14 -4.56c1.47,-1.34 2.91,-2.74 4.3,-4.16l4.38 4.32z"/>
    <path class="fil2" d="M375.1 355.96c-1.3,1.63 -2.68,3.28 -4.08,4.83l-4.58 -4.11c1.32,-1.47 2.63,-3.03 3.86,-4.58l4.79 3.86z"/>
    <path class="fil2" d="M382.48 345.73c-1.13,1.75 -2.33,3.54 -3.56,5.22l-4.97 -3.62c1.17,-1.61 2.3,-3.27 3.38,-4.94l5.16 3.35z"/>
    <path class="fil2" d="M388.78 334.8c-0.95,1.86 -1.95,3.75 -3.01,5.55l-5.31 -3.1c1.01,-1.68 1.96,-3.51 2.85,-5.26l5.48 2.81z"/>
    <path class="fil2" d="M393.93 323.27c-0.76,1.96 -1.57,3.92 -2.43,5.84l-5.61 -2.54c0.82,-1.81 1.58,-3.67 2.3,-5.52l5.74 2.22z"/>
    <path class="fil2" d="M397.85 311.3c-0.55,2.03 -1.15,4.04 -1.81,6.04l-5.84 -1.94c0.63,-1.9 1.19,-3.82 1.72,-5.75l5.93 1.65z"/>
    <path class="fil2" d="M400.54 298.96c-0.33,2.07 -0.74,4.15 -1.18,6.2l-6.01 -1.31c0.42,-1.95 0.81,-3.92 1.12,-5.89l6.07 1z"/>
    <path class="fil2" d="M401.94 286.43c-0.12,2.09 -0.31,4.2 -0.54,6.28l-6.11 -0.7c0.22,-1.98 0.4,-3.98 0.52,-5.98l6.14 0.39z"/>
    <path class="fil2" d="M402.08 273.82c0.08,2.1 0.11,4.2 0.09,6.31l-6.15 -0.08c0.02,-2 -0.01,-4 -0.09,-5.99l6.15 -0.24z"/>
    <path class="fil2" d="M400.94 261.26c0.3,2.08 0.54,4.17 0.73,6.26l-6.13 0.54c-0.19,-1.99 -0.41,-3.97 -0.7,-5.96l6.09 -0.85z"/>
    <path class="fil2" d="M398.52 248.88c0.51,2.05 0.96,4.09 1.37,6.16l-6.04 1.16c-0.39,-1.97 -0.82,-3.91 -1.3,-5.86l5.98 -1.46z"/>
    <path class="fil2" d="M394.85 236.81c0.72,1.98 1.37,3.97 1.99,5.98l-5.88 1.79c-0.59,-1.92 -1.22,-3.81 -1.9,-5.69l5.79 -2.08z"/>
    <path class="fil2" d="M389.95 225.17c0.91,1.9 1.79,3.82 2.6,5.76l-5.68 2.36c-0.78,-1.84 -1.6,-3.65 -2.46,-5.45l5.54 -2.67z"/>
    <path class="fil2" d="M383.89 214.11c1.11,1.77 2.17,3.63 3.18,5.46l-5.41 2.93c-0.94,-1.73 -1.96,-3.5 -3.01,-5.17l5.24 -3.23z"/>
    <path class="fil2" d="M376.73 203.72c1.27,1.69 2.51,3.37 3.72,5.11l-5.08 3.48c-1.14,-1.65 -2.32,-3.24 -3.52,-4.84l4.88 -3.74z"/>
    <path class="fil2" d="M368.55 194.12c1.44,1.52 2.85,3.1 4.22,4.7l-4.7 3.97c-1.28,-1.52 -2.63,-3.02 -3.99,-4.46l4.48 -4.22z"/>
    <path class="fil2" d="M359.45 185.4c1.59,1.37 3.16,2.8 4.67,4.25l-4.27 4.43c-1.45,-1.38 -2.92,-2.72 -4.43,-4.03l4.03 -4.65z"/>
    <path class="fil2" d="M349.5 177.64c1.72,1.19 3.43,2.46 5.08,3.76l-3.8 4.84c-1.55,-1.23 -3.19,-2.43 -4.81,-3.56l3.54 -5.03z"/>
    <path class="fil2" d="M338.81 170.93c1.84,1.02 3.65,2.11 5.44,3.22l-3.29 5.2c-1.69,-1.06 -3.41,-2.09 -5.15,-3.05l3 -5.37z"/>
    <path class="fil2" d="M327.51 165.37c1.93,0.84 3.83,1.71 5.72,2.64l-2.74 5.51c-1.79,-0.89 -3.62,-1.72 -5.45,-2.51l2.47 -5.64z"/>
    <path class="fil2" d="M315.67 160.98c2.01,0.63 4,1.31 5.97,2.04l-2.15 5.76c-1.88,-0.69 -3.77,-1.34 -5.68,-1.94l1.86 -5.86z"/>
    <path class="fil2" d="M303.45 157.83c2.07,0.41 4.11,0.91 6.16,1.42l-1.57 5.95c-1.93,-0.49 -3.87,-0.95 -5.83,-1.34l1.23 -6.03z"/>
    <path class="fil3" d="M278.72 155.35c1.99,0.01 3.97,0.05 5.96,0.14l-0.31 6.15c-3.91,-0.19 -7.76,-0.16 -11.67,0.02l-0.27 -6.15c1.5,-0.07 2.99,-0.12 4.49,-0.14"/>
    <path class="fil2" d="M290.98 155.95c2.09,0.2 4.18,0.46 6.26,0.78l-0.93 6.08c-1.98,-0.3 -3.96,-0.55 -5.95,-0.74l0.63 -6.12z"/>
    <path class="fil2" d="M280.36 155.25c2.1,-0 4.21,0.05 6.31,0.16l-0.33 6.14c-2,-0.1 -4,-0.15 -6,-0.15l0.02 -6.15z"/>
    <path class="fil2" d="M270.42 155.5c2.09,-0.14 4.2,-0.23 6.3,-0.26l0.08 6.15c-2,0.03 -4,0.12 -5.99,0.25l-0.39 -6.14z"/>
    <circle class="fil0 str3" cx="278.72" cy="278.81" r="102.59"/>
   </g>
  </g>
 </g>
</svg>
