<?xml version="1.0" encoding="UTF-8"?>
<!DOCTYPE svg PUBLIC "-//W3C//DTD SVG 1.0//EN" "http://www.w3.org/TR/2001/REC-SVG-20010904/DTD/svg10.dtd">
<!-- Creator: CorelDRAW -->
<svg xmlns="http://www.w3.org/2000/svg" xml:space="preserve" width="7mm" height="7mm" version="1.0" style="shape-rendering:geometricPrecision; text-rendering:geometricPrecision; image-rendering:optimizeQuality; fill-rule:evenodd; clip-rule:evenodd"
viewBox="0 0 14.74 14.74"
 xmlns:xlink="http://www.w3.org/1999/xlink"
 xmlns:xodm="http://www.corel.com/coreldraw/odm/2003">
 <defs>
  <style type="text/css">
   <![CDATA[
    .fil1 {fill:#00AFEF}
    .fil0 {fill:#00AFEF;fill-rule:nonzero}
   ]]>
  </style>
 </defs>
 <g id="Layer_x0020_1">
  <metadata id="CorelCorpID_0Corel-Layer"/>
  <g id="_2198121788416">
   <path class="fil0" d="M3.66 0l7.42 0c1,0 1.92,0.41 2.58,1.08l0 0 0 0c0.66,0.66 1.08,1.58 1.08,2.58l0 7.42c0,1.01 -0.41,1.92 -1.08,2.59l0 0c-0.66,0.66 -1.58,1.08 -2.59,1.08l-7.42 0c-1.01,0 -1.92,-0.41 -2.59,-1.08l0 -0c-0.66,-0.66 -1.08,-1.58 -1.08,-2.59l0 -7.42c0,-1 0.41,-1.92 1.08,-2.58l0 -0 0 -0c0.66,-0.66 1.58,-1.08 2.58,-1.08zm7.42 1.24l-7.42 0c-0.67,0 -1.27,0.27 -1.71,0.71l-0 0c-0.44,0.44 -0.71,1.04 -0.71,1.71l0 7.42c0,0.67 0.27,1.27 0.71,1.71l0 0c0.44,0.44 1.05,0.71 1.71,0.71l7.42 0c0.67,0 1.27,-0.27 1.71,-0.71l0 0c0.44,-0.44 0.71,-1.04 0.71,-1.71l0 -7.42c0,-0.67 -0.27,-1.27 -0.71,-1.71l-0 -0c-0.44,-0.44 -1.04,-0.71 -1.71,-0.71z"/>
   <path class="fil1" d="M9.92 3.86l-2.21 2.66c-0.02,0.02 -0.01,0.05 0.02,0.06l2.1 0 -4.5 4.31 0.69 -1.65 0.66 -1.56c0.03,-0.06 -0.01,-0.09 -0.06,-0.09l-1.79 0 2.39 -3.73 2.7 0z"/>
  </g>
 </g>
</svg>
