<?xml version="1.0" encoding="UTF-8"?>
<!DOCTYPE svg PUBLIC "-//W3C//DTD SVG 1.0//EN" "http://www.w3.org/TR/2001/REC-SVG-20010904/DTD/svg10.dtd">
<!-- Creator: CorelDRAW -->
<svg xmlns="http://www.w3.org/2000/svg" xml:space="preserve" width="7mm" height="7mm" version="1.0" style="shape-rendering:geometricPrecision; text-rendering:geometricPrecision; image-rendering:optimizeQuality; fill-rule:evenodd; clip-rule:evenodd"
viewBox="0 0 26.88 26.88"
 xmlns:xlink="http://www.w3.org/1999/xlink"
 xmlns:xodm="http://www.corel.com/coreldraw/odm/2003">
 <defs>
  <style type="text/css">
   <![CDATA[
    .fil1 {fill:#00AFEF}
    .fil0 {fill:#00AFEF;fill-rule:nonzero}
   ]]>
  </style>
 </defs>
 <g id="Layer_x0020_1">
  <metadata id="CorelCorpID_0Corel-Layer"/>
  <g id="_2198128041616">
   <path class="fil0" d="M6.68 0l13.52 0c1.83,0 3.5,0.75 4.71,1.96l0 0 0 0c1.21,1.21 1.96,2.88 1.96,4.71l0 13.52c0,1.83 -0.75,3.5 -1.96,4.72l0 0c-1.21,1.21 -2.88,1.96 -4.72,1.96l-13.52 0c-1.84,0 -3.51,-0.75 -4.72,-1.96l0 -0c-1.21,-1.21 -1.96,-2.88 -1.96,-4.72l0 -13.52c0,-1.83 0.75,-3.5 1.96,-4.71l0 -0 0 -0c1.21,-1.21 2.88,-1.96 4.71,-1.96zm13.52 2.26l-13.52 0c-1.22,0 -2.32,0.5 -3.12,1.29l-0 0c-0.8,0.8 -1.29,1.9 -1.29,3.12l0 13.52c0,1.22 0.5,2.32 1.29,3.12l0 0c0.8,0.8 1.91,1.3 3.12,1.3l13.52 0c1.21,0 2.32,-0.5 3.12,-1.3l0 0c0.8,-0.8 1.29,-1.9 1.29,-3.12l0 -13.52c0,-1.22 -0.5,-2.32 -1.29,-3.12l-0 -0c-0.8,-0.8 -1.9,-1.29 -3.12,-1.29z"/>
   <polygon class="fil0" points="17.98,9.49 17.98,11.87 13.44,7.6 8.9,11.87 8.9,9.49 13.44,5.21 "/>
   <polygon class="fil0" points="17.98,17.4 17.98,15.01 13.44,19.28 8.9,15.01 8.9,17.4 13.44,21.67 "/>
   <polygon class="fil1" points="10.23,13.44 13.44,10.23 16.65,13.44 13.44,16.65 "/>
  </g>
 </g>
</svg>
