<?xml version="1.0" encoding="UTF-8"?>
<!DOCTYPE svg PUBLIC "-//W3C//DTD SVG 1.0//EN" "http://www.w3.org/TR/2001/REC-SVG-20010904/DTD/svg10.dtd">
<!-- Creator: CorelDRAW -->
<svg xmlns="http://www.w3.org/2000/svg" xml:space="preserve" width="7mm" height="7mm" version="1.0" style="shape-rendering:geometricPrecision; text-rendering:geometricPrecision; image-rendering:optimizeQuality; fill-rule:evenodd; clip-rule:evenodd"
viewBox="0 0 19.65 19.65"
 xmlns:xlink="http://www.w3.org/1999/xlink"
 xmlns:xodm="http://www.corel.com/coreldraw/odm/2003">
 <defs>
  <style type="text/css">
   <![CDATA[
    .fil0 {fill:#00AFEF;fill-rule:nonzero}
   ]]>
  </style>
 </defs>
 <g id="Layer_x0020_1">
  <metadata id="CorelCorpID_0Corel-Layer"/>
  <g id="_2198115206704">
   <path class="fil0" d="M4.88 0l9.88 0c1.34,0 2.56,0.55 3.44,1.43l0 0 0 0c0.88,0.89 1.43,2.11 1.43,3.44l0 9.88c0,1.34 -0.55,2.56 -1.44,3.45l0 0c-0.88,0.88 -2.11,1.43 -3.45,1.43l-9.88 0c-1.34,0 -2.56,-0.55 -3.45,-1.43l0 -0c-0.89,-0.89 -1.44,-2.11 -1.44,-3.45l0 -9.88c0,-1.34 0.55,-2.56 1.43,-3.44l0 -0 0 -0c0.89,-0.88 2.11,-1.43 3.44,-1.43zm9.88 1.65l-9.88 0c-0.89,0 -1.7,0.36 -2.28,0.95l-0 0c-0.58,0.58 -0.95,1.39 -0.95,2.28l0 9.88c0,0.89 0.36,1.7 0.95,2.28l0 0c0.59,0.59 1.39,0.95 2.28,0.95l9.88 0c0.89,0 1.7,-0.36 2.28,-0.95l0 0c0.58,-0.58 0.95,-1.39 0.95,-2.28l0 -9.88c0,-0.89 -0.36,-1.7 -0.95,-2.28l-0 -0c-0.58,-0.58 -1.39,-0.95 -2.28,-0.95z"/>
   <path class="fil0" d="M11.63 12.88l-3.62 0c-0.34,0 -0.65,-0.14 -0.88,-0.37l-0 0c-0.23,-0.23 -0.37,-0.54 -0.37,-0.88l0 -3.62c0,-0.34 0.14,-0.66 0.37,-0.88 0.23,-0.23 0.54,-0.37 0.88,-0.37l3.62 0c0.34,0 0.66,0.14 0.88,0.37l0 0c0.22,0.23 0.37,0.54 0.37,0.88l0 3.62c0,0.34 -0.14,0.65 -0.37,0.88l-0 0c-0.23,0.22 -0.54,0.37 -0.88,0.37z"/>
  </g>
 </g>
</svg>
