<?xml version="1.0" encoding="UTF-8"?>
<!DOCTYPE svg PUBLIC "-//W3C//DTD SVG 1.0//EN" "http://www.w3.org/TR/2001/REC-SVG-20010904/DTD/svg10.dtd">
<!-- Creator: CorelDRAW -->
<svg xmlns="http://www.w3.org/2000/svg" xml:space="preserve" width="48mm" height="51mm" version="1.0" style="shape-rendering:geometricPrecision; text-rendering:geometricPrecision; image-rendering:optimizeQuality; fill-rule:evenodd; clip-rule:evenodd"
viewBox="0 0 164542 174826"
 xmlns:xlink="http://www.w3.org/1999/xlink"
 xmlns:xodm="http://www.corel.com/coreldraw/odm/2003">
 <defs>
  <style type="text/css">
   <![CDATA[
    .str0 {stroke:#C5C6C6;stroke-width:3;stroke-miterlimit:22.9256}
    .fil1 {fill:none}
    .fil0 {fill:#C5C6C6}
   ]]>
  </style>
 </defs>
 <g id="Layer_x0020_1">
  <metadata id="CorelCorpID_0Corel-Layer"/>
  <path class="fil0 str0" d="M91491 83170c189,5273 -4208,10467 -9878,9878 -5670,-589 -9273,-4790 -9273,-9613l247 -8732 5819 36 2 -6304c-6171,-1524 -9946,-6284 -10248,-12718 -302,-6434 1791,-7959 4862,-10869l132 -12184 17978 -85 -189 12008c-85,0 4740,3850 4740,10601 0,6752 -4402,12348 -10200,13245l-2 6301 5984 58 25 8378z"/>
  <path class="fil0 str0" d="M50262 114682l2007 272 2796 880 0 -2008 10190 0 0 2046 0 7932 0 10922 0 5482 -10066 0 38 -5898 -4720 907c-2124,408 -5260,-702 -6965,-2037l-10764 38 75 -16445 10732 189c1062,-1273 4367,-2593 6676,-2280z"/>
  <path class="fil0 str0" d="M113529 114682l-2007 272 -2796 880 0 -2008 -10190 0 0 2046 0 7932 0 10922 0 5482 10066 0 -38 -5898 4720 907c2124,408 5260,-702 6965,-2037l10764 38 -75 -16445 -10732 189c-1062,-1273 -4367,-2593 -6676,-2280z"/>
  <rect class="fil1" width="164542" height="174826"/>
 </g>
</svg>
