<?xml version="1.0" encoding="UTF-8"?>
<!DOCTYPE svg PUBLIC "-//W3C//DTD SVG 1.0//EN" "http://www.w3.org/TR/2001/REC-SVG-20010904/DTD/svg10.dtd">
<!-- Creator: CorelDRAW -->
<svg xmlns="http://www.w3.org/2000/svg" xml:space="preserve" width="8.9471mm" height="9.1408mm" version="1.0" style="shape-rendering:geometricPrecision; text-rendering:geometricPrecision; image-rendering:optimizeQuality; fill-rule:evenodd; clip-rule:evenodd"
viewBox="0 0 21701 22171"
 xmlns:xlink="http://www.w3.org/1999/xlink"
 xmlns:xodm="http://www.corel.com/coreldraw/odm/2003">
 <defs>
  <style type="text/css">
   <![CDATA[
    .fil0 {fill:#00A0E3;fill-rule:nonzero}
   ]]>
  </style>
 </defs>
 <g id="Layer_x0020_1">
  <metadata id="CorelCorpID_0Corel-Layer"/>
  <g>
   <path class="fil0" d="M21325 10676l-1 0 1 0zm-549 4176l596 352c81,48 108,153 60,234l-120 203c-262,447 -557,872 -879,1270 -318,393 -666,764 -1039,1108l-24 24c-376,344 -779,662 -1204,948 -423,285 -867,540 -1331,762l-22 11c-138,65 -283,130 -435,194 -143,60 -295,120 -453,177l-386 133 1140 1634c54,77 35,183 -42,237 -45,32 -100,38 -149,23l-5900 -1863c-90,-28 -140,-124 -112,-214 15,-49 51,-86 94,-105l5508 -2795c84,-42 187,-8 229,75 25,49 24,104 2,150l-709 1489 298 -119c126,-53 251,-109 373,-167l12 -5c407,-195 799,-420 1171,-671 377,-254 733,-534 1064,-838 333,-305 643,-635 926,-986 283,-350 542,-723 772,-1115l121 -205c48,-81 152,-108 233,-61l205 121zm-6838 -4234c0,847 -687,1528 -1535,1528 -841,0 -1528,-681 -1528,-1528 0,-847 686,-1528 1528,-1528 848,0 1535,681 1535,1528zm-145 2168c2808,2813 6031,2145 7259,-548 576,-1270 -266,-3362 -2099,-3432 -1712,-64 -2428,1460 -4180,1039 329,743 490,1937 -980,2940zm-3961 -2053c-3839,1026 -4873,4152 -3153,6561 806,1136 3043,1454 4018,-98 910,-1453 -46,-2837 1194,-4146 -807,-85 -1926,-542 -2059,-2317zm3759 -2404c1032,-3839 -1159,-6289 -4105,-6007 -1390,133 -2779,1908 -1926,3529 802,1516 2480,1377 2993,3101 478,-651 1435,-1389 3038,-623zm5488 -5917l809 -1845c38,-86 138,-126 225,-88 51,22 86,67 98,118l1486 6001c22,91 -33,184 -125,206 -49,12 -97,2 -136,-24l-5258 -3240c-80,-49 -105,-155 -56,-235 29,-47 77,-75 128,-80l1600 -169c-187,-141 -380,-276 -577,-402 -314,-202 -641,-385 -976,-547 -415,-201 -845,-371 -1284,-506 -434,-135 -882,-238 -1338,-307l-234 -35c-93,-14 -157,-101 -144,-195 53,-302 92,-615 138,-919 14,-93 101,-157 195,-144l233 35c524,78 1041,197 1546,355 508,159 1005,357 1484,591 425,207 840,446 1237,712 331,221 649,461 951,718zm-14143 2042l-399 5591c-7,94 -89,165 -183,158 -57,-4 -105,-35 -133,-81l-902 -1360c-58,325 -99,653 -122,981 -16,231 -24,463 -22,695l0 0c2,232 12,464 31,695 45,545 140,1086 285,1618 141,521 331,1034 567,1530l120 243 119 226c124,218 248,425 381,638 50,80 25,186 -55,235l-796 486c-80,49 -186,24 -235,-57 -82,-147 -184,-301 -272,-447l-141 -251 -138 -259 -126 -253c-276,-577 -496,-1173 -659,-1781 -165,-612 -273,-1236 -323,-1864 -46,-573 -43,-1150 7,-1724 43,-494 122,-989 237,-1481l-1995 134c-94,6 -176,-65 -182,-159 -4,-59 23,-114 67,-147l4626 -4085c70,-62 178,-56 241,15 32,36 46,81 42,125l-41 578z"/>
  </g>
 </g>
</svg>
