<?xml version="1.0" encoding="UTF-8"?>
<!DOCTYPE svg PUBLIC "-//W3C//DTD SVG 1.0//EN" "http://www.w3.org/TR/2001/REC-SVG-20010904/DTD/svg10.dtd">
<!-- Creator: CorelDRAW -->
<svg xmlns="http://www.w3.org/2000/svg" xml:space="preserve" width="7.4572mm" height="7.5069mm" version="1.0" style="shape-rendering:geometricPrecision; text-rendering:geometricPrecision; image-rendering:optimizeQuality; fill-rule:evenodd; clip-rule:evenodd"
viewBox="0 0 19350 19479"
 xmlns:xlink="http://www.w3.org/1999/xlink"
 xmlns:xodm="http://www.corel.com/coreldraw/odm/2003">
 <defs>
  <style type="text/css">
   <![CDATA[
    .fil0 {fill:#00A0E3;fill-rule:nonzero}
   ]]>
  </style>
 </defs>
 <g id="Layer_x0020_1">
  <metadata id="CorelCorpID_0Corel-Layer"/>
  <path class="fil0" d="M1389 14735c-321,-535 -590,-1099 -803,-1682 -212,-582 -368,-1187 -466,-1805 -267,-1686 -82,-3381 496,-4928 579,-1550 1552,-2951 2859,-4047l831 993c-1135,952 -1978,2166 -2479,3505 -501,1342 -662,2812 -430,4274 85,533 221,1058 406,1567 184,507 418,996 696,1460l-1110 664zm8289 -10835c1609,0 3068,653 4126,1710l3 3c1057,1058 1710,2517 1710,4126 0,1609 -653,3068 -1710,4126l-3 3c-1058,1057 -2517,1710 -4126,1710 -1610,0 -3069,-654 -4127,-1711 -1057,-1055 -1711,-2515 -1711,-4127 0,-1612 654,-3072 1710,-4128 1059,-1056 2519,-1710 4128,-1710zm3211 2625c-820,-820 -1955,-1328 -3211,-1328 -1256,0 -2391,507 -3211,1328 -822,824 -1330,1960 -1330,3213 0,1254 509,2389 1330,3211 820,823 1955,1330 3211,1330 1256,0 2391,-507 3211,-1328l3 -3c820,-820 1328,-1955 1328,-3211 0,-1256 -507,-2391 -1328,-3211l-3 -3zm5154 8291c-732,1200 -1709,2214 -2850,2987 -1141,773 -2446,1304 -3833,1539 -814,138 -1638,171 -2450,102 -813,-70 -1620,-243 -2400,-517l426 -1222c672,236 1372,386 2081,447 710,60 1427,32 2131,-87 1205,-204 2335,-664 3321,-1331 986,-668 1833,-1548 2469,-2592l1105 674zm-8374 -14816c2425,-14 4669,866 6394,2348 1728,1485 2937,3572 3288,5971l-1282 187c-305,-2081 -1352,-3890 -2847,-5175 -1498,-1287 -3446,-2051 -5548,-2039l-5 -1292z"/>
 </g>
</svg>
