<?xml version="1.0" encoding="UTF-8"?>
<!DOCTYPE svg PUBLIC "-//W3C//DTD SVG 1.0//EN" "http://www.w3.org/TR/2001/REC-SVG-20010904/DTD/svg10.dtd">
<!-- Creator: CorelDRAW -->
<svg xmlns="http://www.w3.org/2000/svg" xml:space="preserve" width="8.9998mm" height="9mm" version="1.0" style="shape-rendering:geometricPrecision; text-rendering:geometricPrecision; image-rendering:optimizeQuality; fill-rule:evenodd; clip-rule:evenodd"
viewBox="0 0 32538 32539"
 xmlns:xlink="http://www.w3.org/1999/xlink"
 xmlns:xodm="http://www.corel.com/coreldraw/odm/2003">
 <defs>
  <style type="text/css">
   <![CDATA[
    .fil0 {fill:#00A0E3}
   ]]>
  </style>
 </defs>
 <g id="Layer_x0020_1">
  <metadata id="CorelCorpID_0Corel-Layer"/>
  <path class="fil0" d="M18941 21038c170,-255 1003,-978 1080,-1907 1191,26 7559,2440 9069,3261l665 479c70,78 54,79 138,180 67,80 89,89 152,166 941,1152 676,3103 -644,4023 -267,186 -480,275 -821,386 -386,125 -578,140 -941,99 -1139,-127 -1452,-409 -2424,-1140l-3859 -3196c-226,-173 -377,-350 -587,-557 -139,-137 -171,-146 -312,-259l-1516 -1535zm-18941 4121l0 -567c46,-781 284,-1556 736,-2246 304,-465 931,-1286 1488,-1435 0,-407 -80,-692 -116,-1028 -77,-715 -74,-1478 -74,-2214 0,-2182 652,-4246 1588,-6039 291,-558 616,-1060 966,-1576 178,-262 349,-470 542,-729 540,-728 1225,-1315 1877,-1936 222,-212 451,-383 701,-570 207,-154 540,-427 746,-526 650,-311 1397,148 1397,889 0,572 -606,923 -979,1182 -218,151 -401,316 -595,485 -217,189 -329,267 -539,478 -914,920 -1632,1913 -2300,3039 -712,1199 -1081,2533 -1336,3940 -336,1862 -35,2210 -35,3652 609,-142 1172,-558 1780,-699 0,-1035 -4,-1930 163,-2951 257,-1568 969,-3092 1898,-4331 387,-516 957,-1425 1689,-1425 622,0 1460,840 492,1827l-547 661c-1179,1585 -1788,3192 -1788,5457 292,-25 939,-281 1216,-373 778,-260 2952,-959 3742,-1025 46,-553 763,-1398 763,-1398 0,-322 -234,-967 -326,-1263 -650,-2081 -996,-4352 -1300,-6518 -153,-1095 -281,-2267 -281,-3405 0,-2404 2183,-4513 4576,-4513 1330,0 2330,389 3297,1152 522,412 971,1008 1235,1625 228,533 426,1127 426,1862 569,133 1091,455 1616,672 1119,462 2673,1610 3549,2490 1456,1463 2505,3055 3351,4975 381,864 1270,4033 894,4832 -314,667 -1283,735 -1695,100 -218,-335 -248,-2796 -1359,-4997 -409,-810 -888,-1589 -1453,-2297l-882 -1025c-1085,-993 -2796,-2401 -4148,-2716 -67,288 -91,618 -138,942 -35,246 -116,691 -116,965 1498,793 2469,1477 3638,2781 797,889 2146,3244 2146,4274 0,516 -478,953 -1017,953 -884,0 -932,-1009 -1188,-1609 -281,-657 -589,-1270 -991,-1806 -110,-148 -183,-275 -289,-410 -561,-708 -1899,-1968 -2680,-2150 0,349 -170,1045 -242,1347 -106,450 -178,842 -292,1297l-674 2440c349,234 715,919 826,1398 703,164 1360,310 2026,516 315,98 645,172 986,285 348,116 605,202 953,319 1257,419 2512,853 3661,1360 1733,765 3543,1362 4452,3175 921,1840 553,4153 -905,5580 -1179,1154 -3081,1672 -4698,1166 -296,-93 -646,-185 -881,-390 -311,208 -590,483 -889,700 -4136,2986 -9395,3545 -14147,1562 -444,-185 -1107,-420 -1107,-990 0,-417 81,-783 467,-994 585,-319 1142,82 1676,313 1435,620 3060,935 4657,935 2506,0 4863,-765 6903,-2122 171,-114 636,-427 724,-547 -417,-279 -1134,-1038 -1589,-1144l-1186 721c-236,118 -397,204 -635,319 -226,110 -441,174 -685,269 -771,298 -2184,599 -3215,599 -800,0 -2693,-71 -3281,-469 -640,-434 -514,-1756 421,-1756 453,0 855,120 1270,192 1194,205 2698,82 3791,-278 416,-137 678,-240 1059,-403 317,-136 601,-386 935,-463 -106,-397 -603,-631 -874,-906 -191,-193 -262,-253 -470,-419 -538,-429 -1840,-1768 -2152,-2234 -322,0 -346,63 -699,63 -993,0 -870,-301 -1574,460 -127,137 -134,183 -254,318 -677,768 -2208,2049 -3083,2828l-619 525c-1544,1196 -3914,3495 -5912,3495 -1169,0 -2184,-239 -3077,-863 -1209,-845 -1923,-2229 -2007,-3660zm12585 -6028c177,368 195,654 432,1030 221,351 430,550 649,877 -156,233 -362,362 -545,599l-5033 4373c-838,688 -1954,1612 -3003,1701 -470,40 -590,72 -1025,-53 -346,-99 -557,-195 -839,-369 -150,-93 -540,-431 -641,-567 -217,-292 -273,-385 -421,-723 -364,-833 -253,-2001 311,-2746 687,-907 1966,-1345 3006,-1761 1746,-697 4312,-1679 6131,-2132 302,-75 696,-205 979,-228zm1843 -890c0,-922 806,-1890 1907,-1890 2469,0 2469,3780 0,3780 -512,0 -1062,-274 -1339,-551 -299,-299 -568,-926 -568,-1339zm3051 -3686c-332,-7 -544,-127 -1462,-127 -378,0 -478,120 -826,127l-821 -3437c-249,-1239 -416,-2383 -604,-3718 -164,-1169 -484,-2778 -38,-3778 1230,-2754 5199,-1867 5408,827 29,376 1,494 -3,955 -12,1417 -888,5817 -1225,7419l-429 1732z"/>
 </g>
</svg>
