<?xml version="1.0" encoding="UTF-8"?>
<!DOCTYPE svg PUBLIC "-//W3C//DTD SVG 1.0//EN" "http://www.w3.org/TR/2001/REC-SVG-20010904/DTD/svg10.dtd">
<!-- Creator: CorelDRAW -->
<svg xmlns="http://www.w3.org/2000/svg" xml:space="preserve" width="9.5mm" height="9.5mm" version="1.0" style="shape-rendering:geometricPrecision; text-rendering:geometricPrecision; image-rendering:optimizeQuality; fill-rule:evenodd; clip-rule:evenodd"
viewBox="0 0 43094 43094"
 xmlns:xlink="http://www.w3.org/1999/xlink"
 xmlns:xodm="http://www.corel.com/coreldraw/odm/2003">
 <defs>
  <style type="text/css">
   <![CDATA[
    .fil0 {fill:#00A0E3}
   ]]>
  </style>
 </defs>
 <g id="Layer_x0020_1">
  <metadata id="CorelCorpID_0Corel-Layer"/>
  <path class="fil0" d="M14087 23889l429 817c397,1116 753,1594 1603,2344 -413,533 -2914,1832 -3717,2288 -1300,738 -2994,1951 -4085,181 -1619,-2626 3196,-3574 5770,-5631zm7460 -23889c5950,0 11338,2412 15236,6311 3898,3898 6311,9286 6311,15236 0,5950 -2412,11338 -6311,15236 -3898,3898 -9286,6311 -15236,6311 -5950,0 -11338,-2412 -15236,-6311 -3898,-3898 -6311,-9286 -6311,-15236 0,-5950 2412,-11338 6311,-15236 3898,-3898 9286,-6311 15236,-6311zm13632 7915c-3488,-3488 -8308,-5647 -13632,-5647 -5324,0 -10144,2158 -13632,5647 -3488,3488 -5647,8308 -5647,13632 0,5324 2158,10144 5647,13632 3488,3488 8308,5647 13632,5647 5324,0 10144,-2158 13632,-5647 3488,-3488 5647,-8308 5647,-13632 0,-5324 -2158,-10144 -5647,-13632zm-15472 14418c-627,-2547 3136,-3349 3710,-1011 643,2621 -3133,3351 -3710,1011zm925 -4163c-5025,1350 -2862,8613 1901,7352 1770,-469 3346,-2247 2727,-4665 -458,-1793 -2337,-3302 -4628,-2687zm-949 -3695c-92,-1614 -16,-3381 -24,-5014 -8,-1670 186,-2999 1981,-2945 1729,52 1855,1529 1851,3099 -4,1496 107,3419 -36,4860 -1557,-397 -2221,-386 -3772,0zm-1887 3373c924,-649 1972,-1737 3695,-1768 1895,-34 2728,1052 3887,1755 0,-2842 -8,-5686 2,-8527 20,-5618 -4966,-5409 -6687,-3403 -797,929 -946,1885 -940,3403 9,2512 -219,6175 43,8540zm9229 9220c846,-724 1472,-1676 1849,-3172 1000,377 2835,1568 3877,2186 1041,617 3259,1558 2072,3452 -1070,1705 -2812,578 -4106,-189 -826,-490 -3286,-1774 -3692,-2277zm6253 -2887l-6429 -3678c678,4045 -469,5456 -3712,6511 369,476 2770,1748 3280,2036 1114,630 2150,1233 3215,1846 1130,651 2156,1539 3816,1451 1458,-77 2586,-1004 3099,-2011 675,-1325 485,-3038 -289,-4080 -681,-917 -1941,-1478 -2979,-2075zm-13266 2820c-3966,-992 -4172,-3429 -3730,-6498 -997,453 -2305,1287 -3315,1887 -1480,879 -5477,2812 -6206,4067 -771,1326 -849,2637 -125,3988 537,1002 1713,1930 3360,1909 1702,-21 5215,-2447 6821,-3353l3195 -1999z"/>
 </g>
</svg>
