<?xml version="1.0" encoding="UTF-8"?>
<!DOCTYPE svg PUBLIC "-//W3C//DTD SVG 1.0//EN" "http://www.w3.org/TR/2001/REC-SVG-20010904/DTD/svg10.dtd">
<!-- Creator: CorelDRAW -->
<svg xmlns="http://www.w3.org/2000/svg" xml:space="preserve" width="9.9508mm" height="9.1251mm" version="1.0" style="shape-rendering:geometricPrecision; text-rendering:geometricPrecision; image-rendering:optimizeQuality; fill-rule:evenodd; clip-rule:evenodd"
viewBox="0 0 58143 53318"
 xmlns:xlink="http://www.w3.org/1999/xlink"
 xmlns:xodm="http://www.corel.com/coreldraw/odm/2003">
 <defs>
  <style type="text/css">
   <![CDATA[
    .fil0 {fill:#00A0E3}
   ]]>
  </style>
 </defs>
 <g id="Layer_x0020_1">
  <metadata id="CorelCorpID_0Corel-Layer"/>
  <path class="fil0" d="M32758 29064c27,-674 357,-1183 408,-2056 60,-1032 -206,-1497 -273,-2333 418,-366 615,-670 1010,-1010 962,-830 2726,-2482 4085,-2360 2369,212 5131,639 7491,1018 2919,469 7968,1281 10686,2224 886,308 2745,937 1635,1947 -1827,1662 -9867,3547 -12889,4367 -1093,296 -6068,1581 -6929,1579 -1242,-3 -4174,-2331 -5223,-3376zm13044 6162c-2306,4737 -6079,8255 -10994,10152 121,-1179 472,-2454 903,-3557l-12911 6920 13916 4577c-892,-1487 -1526,-2982 -1822,-4695 6145,-2061 10882,-6256 13700,-12069l-2792 -1329zm-19889 -28622c302,-26 601,-42 903,-59 508,-23 1010,-26 1510,-10 490,23 1012,43 1496,108 387,43 772,97 1153,164 2056,337 4158,1097 5991,2078 307,165 611,337 910,518l179 109c333,205 661,420 983,644l413 294c-1124,615 -2276,1035 -3520,1334l13058 6639 -4198 -14034c-680,1534 -1574,2938 -2764,4128 -610,-483 -1238,-935 -1884,-1353 -4363,-2802 -9333,-4085 -14497,-3640l266 3080zm-14353 32009c-2260,-3013 -3559,-6514 -3904,-10258 -137,-1687 -78,-3295 179,-4965 950,698 1824,1554 2614,2567l491 -14641 -10940 9742c1790,-41 3454,220 4977,787 -474,2258 -585,4480 -401,6778 383,4351 1914,8331 4507,11840l2477 -1851zm16685 -16361c6054,855 4531,9853 -1284,8879 -5805,-972 -4468,-9692 1284,-8879zm-5137 1477c-1489,-202 -3559,-1514 -4714,-2407 -626,-483 -534,-848 -758,-1652 -1270,-4563 -2982,-10703 -3642,-15401 -718,-5109 210,-5253 3068,-2427 1234,1219 3185,3706 4345,5105 686,827 1382,1796 2049,2678 687,910 1375,1809 2049,2803 683,1007 2705,3213 2669,4355 -25,810 -314,3440 -649,4090 -240,469 -1235,469 -1772,658 -1074,379 -2285,1330 -2646,2198zm-11157 28812c-1610,-2227 4346,-20516 4670,-20870 833,-908 4184,-2638 6083,-2641 311,987 1618,2215 2590,2633 924,398 762,389 972,1566 133,748 217,1672 242,2451 57,1779 -241,1456 -1727,3513 -1488,2060 -3221,3990 -4676,5918 -323,428 -841,1017 -1179,1377 -1262,1343 -2339,2734 -3766,4151 -583,579 -2288,2240 -3210,1900z"/>
 </g>
</svg>
