<?xml version="1.0" encoding="UTF-8"?>
<!DOCTYPE svg PUBLIC "-//W3C//DTD SVG 1.0//EN" "http://www.w3.org/TR/2001/REC-SVG-20010904/DTD/svg10.dtd">
<!-- Creator: CorelDRAW -->
<svg xmlns="http://www.w3.org/2000/svg" xml:space="preserve" width="9.9505mm" height="9.0001mm" version="1.0" style="shape-rendering:geometricPrecision; text-rendering:geometricPrecision; image-rendering:optimizeQuality; fill-rule:evenodd; clip-rule:evenodd"
viewBox="0 0 76235 68953"
 xmlns:xlink="http://www.w3.org/1999/xlink"
 xmlns:xodm="http://www.corel.com/coreldraw/odm/2003">
 <defs>
  <style type="text/css">
   <![CDATA[
    .fil0 {fill:#00A0E3}
   ]]>
  </style>
 </defs>
 <g id="Layer_x0020_1">
  <metadata id="CorelCorpID_0Corel-Layer"/>
  <path class="fil0" d="M23041 4477c-1401,-5931 29667,-5891 28562,-347l-4509 22606c-6756,-4350 -12960,-3821 -18790,1l-5262 -22260zm-7349 64035c-4435,4179 -19935,-22747 -14581,-24562l21832 -7397c-388,8026 3171,13135 9396,16273l-16647 15687zm59249 -25761c5837,1751 -9731,28638 -13980,24909l-17322 -15209c7145,-3676 9789,-9313 9394,-16274l21908 6573zm-36988 -12906c4827,0 8741,3913 8741,8741 0,4827 -3913,8741 -8741,8741 -4827,0 -8741,-3913 -8741,-8741 0,-4827 3913,-8741 8741,-8741z"/>
 </g>
</svg>
