<?xml version="1.0" encoding="UTF-8"?>
<!DOCTYPE svg PUBLIC "-//W3C//DTD SVG 1.0//EN" "http://www.w3.org/TR/2001/REC-SVG-20010904/DTD/svg10.dtd">
<!-- Creator: CorelDRAW -->
<svg xmlns="http://www.w3.org/2000/svg" xml:space="preserve" width="9.9984mm" height="9mm" version="1.0" style="shape-rendering:geometricPrecision; text-rendering:geometricPrecision; image-rendering:optimizeQuality; fill-rule:evenodd; clip-rule:evenodd"
viewBox="0 0 111166 100066"
 xmlns:xlink="http://www.w3.org/1999/xlink"
 xmlns:xodm="http://www.corel.com/coreldraw/odm/2003">
 <defs>
  <style type="text/css">
   <![CDATA[
    .fil0 {fill:#00A0E3}
   ]]>
  </style>
 </defs>
 <g id="Layer_x0020_1">
  <metadata id="CorelCorpID_0Corel-Layer"/>
  <path class="fil0" d="M35817 14174c0,6853 1411,20406 3659,26139 4284,-3818 9931,-6140 16121,-6140 6173,0 11806,2309 16085,6108 2125,-5959 5577,-25721 2378,-33161 -784,-1825 -2387,-3641 -4074,-4560 -4862,-2651 -7964,-2054 -12449,-2312 -1174,-68 -994,-250 -1947,-250l-7800 526c-4448,476 -8700,2326 -10586,6403 -836,1809 -1388,4574 -1388,7245zm19780 24447c10929,0 19791,8861 19791,19791 0,10929 -8861,19791 -19791,19791 -10929,0 -19791,-8861 -19791,-19791 0,-10929 8861,-19791 19791,-19791zm7613 42808c1786,2485 6444,5902 8325,7587 2056,1842 8231,6028 10566,7537 11456,7400 17737,2231 23703,-8493 8399,-15094 8142,-20550 -9550,-28496 -3217,-1445 -11909,-5266 -16904,-5998 318,1565 485,3187 485,4847 0,10727 -6969,19825 -16625,23017zm-31366 -27860c-3886,587 -10008,3075 -12657,4129 -1130,449 -2100,851 -3138,1318 -6628,2983 -17266,7452 -15934,16475 686,4652 3516,9666 5569,13096 5255,8776 10571,15659 22526,8490 1030,-618 1769,-1027 2765,-1691 4314,-2876 6748,-4921 10654,-8004 1243,-982 4725,-4000 6271,-5979 -9613,-3217 -16541,-12295 -16541,-22991 0,-1659 168,-3279 485,-4843z"/>
 </g>
</svg>
