<?xml version="1.0" encoding="UTF-8"?>
<!DOCTYPE svg PUBLIC "-//W3C//DTD SVG 1.0//EN" "http://www.w3.org/TR/2001/REC-SVG-20010904/DTD/svg10.dtd">
<!-- Creator: CorelDRAW -->
<svg xmlns="http://www.w3.org/2000/svg" xml:space="preserve" width="9.8674mm" height="9.0001mm" version="1.0" style="shape-rendering:geometricPrecision; text-rendering:geometricPrecision; image-rendering:optimizeQuality; fill-rule:evenodd; clip-rule:evenodd"
viewBox="0 0 195530 178344"
 xmlns:xlink="http://www.w3.org/1999/xlink"
 xmlns:xodm="http://www.corel.com/coreldraw/odm/2003">
 <defs>
  <style type="text/css">
   <![CDATA[
    .fil0 {fill:#00A0E3}
   ]]>
  </style>
 </defs>
 <g id="Layer_x0020_1">
  <metadata id="CorelCorpID_0Corel-Layer"/>
  <path class="fil0" d="M97785 71521c20339,0 36828,16489 36828,36828 0,20339 -16489,36828 -36828,36828 -20339,0 -36828,-16489 -36828,-36828 0,-20339 16489,-36828 36828,-36828zm13172 79610c3583,7391 15863,17050 23010,20595 5903,2927 10548,4787 17376,5969 3054,527 10407,816 14349,418 20040,-2027 34489,-19433 28450,-39741 -1294,-4352 -2705,-7449 -4700,-11194 -3432,-6436 -9056,-12062 -14880,-16411 -3066,-2289 -6321,-4421 -9783,-6111 -7926,-3872 -14590,-5632 -23276,-5911 678,3095 1036,6307 1036,9605 0,20131 -13294,37157 -31582,42782zm-56889 -52383c-12508,432 -22455,4245 -32643,11590 -1799,1298 -2729,2251 -4393,3553 -1670,1306 -2780,2243 -4112,3834 -4875,5826 -9002,11572 -11410,19885 -5269,18197 3632,33261 20880,38898 4011,1310 9153,1978 13514,1807 16752,-656 32294,-7710 43052,-19885 1286,-1454 3943,-4772 5398,-7379 -18153,-5705 -31323,-22669 -31323,-42703 0,-3297 361,-6508 1036,-9601zm6886 -53192c0,13463 1357,19848 6476,29912 7978,-7369 18641,-11874 30356,-11874 11666,0 22289,4466 30255,11780 5063,-9993 6428,-16475 6428,-29819 0,-11456 -5277,-24405 -10358,-30869 -26117,-33229 -63157,-4492 -63157,30869z"/>
 </g>
</svg>
