<?xml version="1.0" encoding="UTF-8"?>
<!DOCTYPE svg PUBLIC "-//W3C//DTD SVG 1.0//EN" "http://www.w3.org/TR/2001/REC-SVG-20010904/DTD/svg10.dtd">
<!-- Creator: CorelDRAW -->
<svg xmlns="http://www.w3.org/2000/svg" xml:space="preserve" width="9mm" height="9mm" version="1.0" style="shape-rendering:geometricPrecision; text-rendering:geometricPrecision; image-rendering:optimizeQuality; fill-rule:evenodd; clip-rule:evenodd"
viewBox="0 0 907238 907238"
 xmlns:xlink="http://www.w3.org/1999/xlink"
 xmlns:xodm="http://www.corel.com/coreldraw/odm/2003">
 <defs>
  <style type="text/css">
   <![CDATA[
    .fil0 {fill:#00A0E3}
   ]]>
  </style>
 </defs>
 <g id="Layer_x0020_1">
  <metadata id="CorelCorpID_0Corel-Layer"/>
  <path class="fil0" d="M611327 506773c0,31290 -12752,65664 -28679,90058 -11441,17520 -45160,50563 -65240,55241 1915,7167 38074,39535 43275,43557 6068,4687 9496,11159 16975,13155l0 3538c-21935,5111 -42096,33669 -134674,33669 -31804,0 -38578,-7087 -58466,-7087 -20000,0 -37338,33255 -10665,49636 15423,9466 64162,12379 88627,12379 52620,0 106742,-20866 149593,-48860l8105 -6068 38084 29253c4365,3710 2903,413 4445,6189 -4566,1220 -27348,19123 -42529,26572 -29122,14304 -41259,21602 -75160,31148 -77276,21774 -151015,16018 -223291,-12651 -16683,-6623 -29374,-17106 -46420,-5443 -12500,8558 -15534,28104 -2087,41541 7318,7318 52277,23800 63224,27147 35574,10867 73668,16814 111903,17490l14627 0c51450,-907 102629,-11441 147769,-32479 34021,-15846 59364,-30745 89181,-54354 2560,-2026 4425,-4072 6804,-5786 11391,-8175 13639,12883 72932,12883 66672,0 127578,-60916 127578,-127578 0,-51592 -16683,-86057 -51914,-114645 -5937,-4818 -12349,-8790 -19536,-12369 -42207,-21028 -86450,-39132 -131670,-54384 -15846,-5343 -29717,-10514 -46057,-15957l-48507 -15282c0,9677 1774,12207 1774,19485zm-262252 -5312c0,35765 5574,57045 29173,82458 6502,6996 19576,16532 28659,20957 46874,22832 101802,6078 130733,-35332 4093,-5847 6915,-10484 9929,-16653 18709,-38265 13286,-85613 -15494,-117487l-5081 -5544c-262,-252 -645,-615 -907,-867 -9597,-9193 -15756,-14385 -29173,-20443 -29778,-13447 -60160,-13790 -89393,746 -13165,6552 -17883,11814 -27882,21723 -4808,4768 -7782,7460 -11451,13367 -10474,16844 -19112,35029 -19112,57075zm-26582 -375657c0,33911 1250,43850 6099,77186l25776 146106c1734,7046 4536,22963 7107,28326 44737,-29949 90724,-42691 144079,-21814 20534,8034 23981,10947 40211,21814 2994,-6240 17500,-71883 17711,-81510 19919,1663 66783,47690 83637,72307 3377,4919 4949,6159 7923,11562 24001,43517 20141,49203 29445,68013 11764,23790 50876,17187 50876,-13669 0,-19909 -26884,-72841 -40483,-92407 -21834,-31431 -36642,-44636 -64585,-68315 -12107,-10262 -27399,-18387 -41420,-25907 -5605,-3014 -9274,-5383 -14758,-8286 0,-16723 6724,-36743 7087,-53154 32157,17016 54384,23296 88063,51924 23659,20121 49787,46652 67176,72811 32237,48487 50342,93093 57731,153132 1613,13115 2137,42852 28024,42852 33709,0 28175,-34505 25604,-52176 -12601,-86540 -47408,-163646 -109332,-225570 -7339,-7339 -13719,-14324 -21239,-21290 -29697,-27469 -66188,-48184 -102326,-66007 -9486,-4677 -20665,-7822 -30151,-12379 0,-67972 -56712,-129352 -124040,-129352 -42146,0 -73033,11865 -99685,38527 -18064,18064 -38527,51934 -38527,87276zm-265790 373883c0,29163 1069,55694 7087,81510l-18286 13609c-30695,25594 -45503,62247 -45503,105119 0,66662 60906,127578 127578,127578 42902,0 57983,-7953 88597,-28356 41078,-27358 80855,-63023 118989,-93647l41814 -37912c4899,-4899 10947,-8377 12853,-15514 -23457,-5464 -50412,-34284 -64313,-52640 -16189,-21381 -29606,-59424 -29606,-87337 0,-8881 1774,-10907 1774,-21270l-59495 18467c-7701,2187 -12943,4647 -20241,6341 0,-55100 5111,-69716 22782,-113657 5554,-13810 16411,-30140 25292,-42035 8790,-11774 28124,-28467 28124,-40987 0,-15161 -21169,-46783 -51874,-14657 -51551,53930 -79252,129029 -79252,206024 0,11784 1774,15342 1774,26582 -10524,877 -39918,16814 -51390,19485 0,-37207 -4597,-43689 -161,-90532 2450,-25937 9929,-56743 19123,-80099 25211,-64111 58345,-110562 110925,-153101 10887,-8810 31360,-18004 31360,-35967 0,-20655 -20826,-33457 -38931,-24788 -8024,3841 -34021,24697 -41249,31431 -4083,3780 -5716,4204 -9768,7953 -3357,3105 -5554,5595 -8841,8881 -17066,17076 -36562,40352 -49707,60150 -41713,62851 -69454,138223 -69454,219370z"/>
 </g>
</svg>
