<?xml version="1.0" encoding="UTF-8"?>
<!DOCTYPE svg PUBLIC "-//W3C//DTD SVG 1.0//EN" "http://www.w3.org/TR/2001/REC-SVG-20010904/DTD/svg10.dtd">
<!-- Creator: CorelDRAW -->
<svg xmlns="http://www.w3.org/2000/svg" xml:space="preserve" width="6.2869mm" height="9.035mm" version="1.0" style="shape-rendering:geometricPrecision; text-rendering:geometricPrecision; image-rendering:optimizeQuality; fill-rule:evenodd; clip-rule:evenodd"
viewBox="0 0 116991 168129"
 xmlns:xlink="http://www.w3.org/1999/xlink"
 xmlns:xodm="http://www.corel.com/coreldraw/odm/2003">
 <defs>
  <style type="text/css">
   <![CDATA[
    .fil0 {fill:#00A0E3}
   ]]>
  </style>
 </defs>
 <g id="Layer_x0020_1">
  <metadata id="CorelCorpID_0Corel-Layer"/>
  <path class="fil0" d="M34095 160699l48731 -74c-566,-2203 -1489,-4051 -2687,-5571 -1368,-1736 -3108,-3059 -5089,-4023 -2322,-1130 -9753,-1712 -17127,-1682 -7040,30 -14012,622 -16428,1826 -1865,930 -3567,2319 -4892,4077 -1165,1545 -2047,3381 -2507,5449zm26471 -25408l-4574 -41 153 -4483 4769 9 -20 4516 -328 -2zm153 -12799l28 4395 -4689 -9 -4 -4667 4661 -48 4 329zm-6496 -50178l-685 -724c-2821,-1373 -4474,-2564 -5659,-4245 -1157,-1638 -1844,-3716 -2734,-6870 -2533,-11 -4766,-221 -6774,-722 -2088,-521 -3947,-1364 -5663,-2629 -482,-355 -1016,-850 -1600,-1390 -2049,-1893 -4771,-4407 -8151,-3400 -1483,443 -2600,1641 -3405,3180 -1033,1969 -1563,4498 -1721,6753 -110,1559 -73,3121 95,4658 612,5627 2966,10988 6215,15013 3230,4001 7347,6681 11498,6973 629,43 1262,33 1883,-33 2440,-264 5201,-2086 7745,-4444 3320,-3076 6256,-7055 7663,-9721l-9 -4 207 -380 100 -205 9 4 984 -1814zm2138 -7280c1384,-11 2778,-15 4159,-45 2051,-871 3268,-2360 3761,-3984 305,-1003 335,-2066 123,-3067 -212,-1003 -672,-1952 -1345,-2730 -1076,-1243 -2719,-2064 -4808,-2002 -1567,45 -2936,609 -3949,1528 -1022,929 -1693,2227 -1852,3725 -203,1935 184,3230 914,4209 724,970 1812,1665 2998,2365zm5609 8709l-2108 -1118 -1386 3493 177 184 -305 138 -138 346 -121 -125c-179,242 -510,733 -949,1390 -2806,4185 -9905,14766 -18704,15992 -5836,815 -10957,-1357 -15075,-5153 -3632,-3351 -6489,-7978 -8361,-12926 -1870,-4944 -2765,-10225 -2486,-14893 314,-5240 2114,-9730 5670,-12146 2144,-1455 4686,-2012 7162,-1831 2624,192 5192,1217 7142,2873l1366 1185c3119,2748 4955,4364 12066,4103 767,-2769 581,-3082 -309,-4563 -283,-469 -635,-1053 -1020,-1794 -1840,-3532 -3580,-8625 -4312,-13636 -597,-4088 -530,-8138 689,-11268 1706,-4380 5560,-7507 10449,-9280 5160,-1874 11491,-2244 17654,-994 8061,1634 14375,6020 17857,10966 1615,2294 2629,4715 2931,7045 305,2348 -114,4613 -1355,6558 -1580,2471 -4492,4433 -8940,5419 -2706,599 -5488,1967 -7468,3586 -1688,1381 -2782,2938 -2709,4325 426,45 1193,67 2196,97 6163,182 21193,636 26696,8482 2840,4046 3627,8633 3141,13100 -595,5506 -3136,10851 -6135,14805 -2159,2840 -6757,7676 -12524,10469 -3837,1861 -8199,2827 -12715,1725 -9855,-2401 -7881,-12282 -6880,-17289 212,-1051 378,-1883 372,-2345 -19,-1446 -447,-2741 -849,-3958 -331,-1010 -648,-1973 -720,-2964zm8359 -8526c-992,2270 -2533,3984 -4455,4898 3804,7306 2864,12687 2149,16761 -599,3409 -1027,5864 1837,7693 2508,1602 5966,1282 9557,-309 3242,-1437 6591,-3913 9459,-6943 2869,-3033 5263,-6627 6593,-10298 1651,-4552 1673,-9237 -1046,-13132 -1550,-2220 -5410,-4200 -9801,-5486 -4433,-1299 -9399,-1889 -13100,-1323 234,3108 -214,5899 -1193,8139zm-24761 -29612c830,5177 2886,10372 4915,12846 3750,-1628 5376,-2322 6945,-2408 1185,-65 2291,212 4204,692 999,249 2224,558 3757,893 2235,-5501 7416,-7222 11882,-8703 3005,-996 5683,-1885 6775,-3738 1706,-2897 653,-6007 -1999,-8754 -1517,-1569 -3554,-3026 -5897,-4261 -2348,-1241 -5009,-2265 -7764,-2962 -8316,-2112 -17500,-1295 -21666,5244 -1688,2648 -1837,6887 -1152,11152zm15175 81121c-3156,89 -6150,173 -10030,-229l4 25821 1902 15 13489 -154 -2 -25526c-1941,-22 -3681,26 -5363,73zm-38918 -94139c-9075,9386 -14641,22461 -14641,37428l6 856c249,13348 6303,25607 15665,34527 9366,8919 22049,14504 35559,14504l914 -7c13733,-255 26582,-6217 35874,-15611 9109,-9206 14803,-21716 14576,-35379 -242,-14565 -5994,-27572 -15294,-36890 -9228,-9243 -21962,-14861 -36285,-14785 -14312,78 -27156,5823 -36372,15358zm63915 128091c3089,3818 5019,8672 4658,13720 -69,577 -504,1865 -685,2507l-138 65c-3134,1455 -27738,1195 -43838,1025 -4937,-50 -9081,-95 -11541,-80l-1736 52c-2423,102 -3964,167 -5268,-1811 -363,-551 -605,-1245 -722,-2043 -359,-2417 393,-5854 2118,-9258 1721,-3392 4420,-6772 7955,-9098 2079,-1364 4449,-2373 7079,-2806l17 -27051c-184,-363 -259,-631 -277,-826 -277,-67 -756,-216 -1559,-545 -1911,-782 -3351,-1252 -4645,-1673 -3152,-1023 -5449,-1773 -11656,-6091 -9202,-6401 -16498,-15123 -20888,-25352 -4135,-9637 -5692,-20620 -3835,-32264 2404,-15080 10799,-28071 22094,-36901 11493,-8984 26002,-13664 40267,-11863 10077,201 19926,3818 28382,9825 7577,5382 14044,12691 18562,21182 4520,8495 7097,18183 6898,28313 -218,11085 -3763,22714 -11716,33911 -3149,4436 -8407,9576 -14706,13774 -5194,3459 -11111,6295 -17161,7585l-76 28017c4548,742 9142,3638 12419,7685z"/>
 </g>
</svg>
