<?xml version="1.0" encoding="UTF-8"?>
<!DOCTYPE svg PUBLIC "-//W3C//DTD SVG 1.0//EN" "http://www.w3.org/TR/2001/REC-SVG-20010904/DTD/svg10.dtd">
<!-- Creator: CorelDRAW -->
<svg xmlns="http://www.w3.org/2000/svg" xml:space="preserve" width="10.2287mm" height="9mm" version="1.0" style="shape-rendering:geometricPrecision; text-rendering:geometricPrecision; image-rendering:optimizeQuality; fill-rule:evenodd; clip-rule:evenodd"
viewBox="0 0 95251 83809"
 xmlns:xlink="http://www.w3.org/1999/xlink"
 xmlns:xodm="http://www.corel.com/coreldraw/odm/2003">
 <defs>
  <style type="text/css">
   <![CDATA[
    .fil0 {fill:#00A0E3}
   ]]>
  </style>
 </defs>
 <g id="Layer_x0020_1">
  <metadata id="CorelCorpID_0Corel-Layer"/>
  <path class="fil0" d="M44143 42676c-1569,366 -1545,1208 -1545,3090 -555,-148 -1787,-1116 -2474,-1581 -3873,-2622 -8325,-6029 -12125,-8536l-4876 -3429c-3617,-2675 -8477,-5791 -12031,-8439 -865,-644 -1577,-1283 -2864,-1289 -3350,-12 -7535,4454 -8179,8160 -111,643 -47,1538 399,2229 223,346 276,366 551,608l30244 19577c754,472 1834,1388 2666,1583 1059,-2001 2345,-3381 4604,-4280 5424,-2157 16296,-2606 20841,1621 724,673 1704,1636 1977,2659 798,-186 1790,-1022 2572,-1483l17589 -11378c2389,-1595 12786,-7780 13442,-9154 1190,-2497 -1248,-5701 -2542,-7115l-376 -397c-28,-27 -71,-65 -101,-92 -221,-206 -291,-258 -505,-461 -1998,-1905 -4440,-2917 -6937,-1041l-30509 21436c-455,344 -713,639 -1323,801 0,-2538 -14,-2370 -1738,-3283l0 -31283c-1049,-504 -6153,-1212 -6663,482 -292,970 -96,29266 -96,30993zm-3669 -38042c0,2607 1778,3828 2317,4635 2965,-691 4934,-1203 8116,-386 1053,270 1239,536 1977,-129 3367,-3036 2304,-8754 -4685,-8754 -2726,0 -5431,144 -6990,2473 -234,348 -735,1701 -735,2161zm14097 63339c396,591 2059,1502 2935,2086 6017,4015 12683,8044 18655,12050 1394,935 2037,1699 3900,1699 3395,0 8182,-5349 5325,-7834l-13936 -9818c-1284,-888 -8819,-6318 -9541,-6487 -72,3230 -5156,7795 -7338,8304zm-19118 -10234c0,3416 1436,5192 4363,7223 1762,1224 5514,3011 7610,3011 2789,0 6287,-1759 8001,-3006 1120,-815 2015,-1544 2953,-2647 2635,-3104 2038,-7685 -2259,-9800 -5110,-2513 -20667,-2732 -20667,5219zm-26456 19890c0,3177 3448,6180 6566,6180 1395,0 2435,-995 3396,-1625 589,-386 960,-568 1548,-962l6219 -4016c1412,-904 13470,-8527 13941,-9232 -689,-183 -1816,-990 -2430,-1432 -1979,-1429 -4686,-4200 -4908,-6871 -721,169 -2480,1540 -3172,2043 -1077,784 -2006,1359 -3062,2151l-17136 12024c-410,323 -962,1011 -962,1741z"/>
 </g>
</svg>
