<?xml version="1.0" encoding="UTF-8"?>
<!DOCTYPE svg PUBLIC "-//W3C//DTD SVG 1.0//EN" "http://www.w3.org/TR/2001/REC-SVG-20010904/DTD/svg10.dtd">
<!-- Creator: CorelDRAW -->
<svg xmlns="http://www.w3.org/2000/svg" xml:space="preserve" width="8.7126mm" height="9mm" version="1.0" style="shape-rendering:geometricPrecision; text-rendering:geometricPrecision; image-rendering:optimizeQuality; fill-rule:evenodd; clip-rule:evenodd"
viewBox="0 0 50152 51806"
 xmlns:xlink="http://www.w3.org/1999/xlink"
 xmlns:xodm="http://www.corel.com/coreldraw/odm/2003">
 <defs>
  <style type="text/css">
   <![CDATA[
    .fil0 {fill:#00A0E3}
   ]]>
  </style>
 </defs>
 <g id="Layer_x0020_1">
  <metadata id="CorelCorpID_0Corel-Layer"/>
  <path class="fil0" d="M16007 7561c0,2882 157,4271 1179,6943 551,1441 2156,4431 2182,4539 740,-62 943,-635 2218,-1143 1981,-788 2233,-678 4363,-678 0,-4127 62,-6342 1561,-10341l2033 -4687c219,-439 647,-1118 747,-1494 -527,-12 -900,-159 -1294,-246 -3019,-669 -7123,-589 -10113,181 -723,186 -756,383 -1051,909 -850,1518 -1824,3678 -1824,6017zm6021 18622c0,-4816 6160,-3980 6160,-560 0,4816 -6160,3980 -6160,560zm-4481 -420c0,4333 3374,7701 7701,7701 3953,0 7421,-3375 7421,-7701 0,-3949 -3364,-7420 -7701,-7420 -3928,0 -7421,3492 -7421,7420zm8261 8821l-1540 0c0,5697 -531,8341 -2802,13440 -223,501 -478,960 -745,1495 -217,435 -697,1226 -793,1587 527,12 900,159 1293,246 2607,578 5809,584 8468,134 1619,-274 2068,-105 2696,-1224 2343,-4173 2347,-8509 645,-12959 -551,-1442 -2156,-4431 -2182,-4539 -815,68 -2293,1820 -5041,1820zm2380 -16801c2179,508 3899,2587 4901,4480 458,-122 351,-184 796,-464 2369,-1486 3497,-1894 6361,-2740 2996,-885 5057,-984 7965,-1136 549,-29 672,-140 1259,-140 -625,-1303 -404,-2301 -2494,-5767 -462,-767 -3002,-4594 -3807,-4594 -4035,0 -5849,653 -8879,2742 -1197,825 -2884,2616 -3763,3798 -569,766 -2141,2967 -2340,3821zm-27443 16241c622,1297 409,2311 2494,5767 577,957 1062,1654 1706,2495 1775,2320 1742,2099 3222,2099 4699,0 8845,-2938 11522,-6540 569,-766 2141,-2967 2340,-3821 -2165,-504 -3915,-2618 -4901,-4480l-1565 954c-3123,1894 -8621,3194 -12296,3386 -408,21 -853,-22 -1261,-1 -549,29 -673,140 -1259,140zm15682 -6720c0,-2101 -107,-3759 984,-5596 201,-339 440,-549 556,-984 -2585,-1368 -3889,-2075 -6058,-4163 -935,-899 -832,-938 -1396,-1544 -1722,-1850 -3255,-3801 -4447,-6054 -1205,322 -3761,4578 -4387,5833 -627,1258 -1033,2282 -1519,3674 -310,888 -148,830 303,1696 303,582 653,1057 1060,1600 2227,2971 6381,4915 10166,5376l3478 312c688,1 628,-135 1260,-149zm17362 -2800c0,2098 81,3766 -983,5598 -205,355 -438,536 -557,983 1795,950 1691,666 3701,2180l2358 1982c291,280 488,484 770,770l2693 3187c454,633 2222,3054 2380,3641 1205,-322 3761,-4579 4387,-5834 627,-1258 1033,-2282 1519,-3673 377,-1081 -423,-2042 -1364,-3297 -2227,-2970 -6381,-4915 -10166,-5376l-3477 -312c-687,-1 -627,134 -1260,149z"/>
 </g>
</svg>
