<?xml version="1.0" encoding="UTF-8"?>
<!DOCTYPE svg PUBLIC "-//W3C//DTD SVG 1.0//EN" "http://www.w3.org/TR/2001/REC-SVG-20010904/DTD/svg10.dtd">
<!-- Creator: CorelDRAW -->
<svg xmlns="http://www.w3.org/2000/svg" xml:space="preserve" width="9mm" height="9mm" version="1.0" style="shape-rendering:geometricPrecision; text-rendering:geometricPrecision; image-rendering:optimizeQuality; fill-rule:evenodd; clip-rule:evenodd"
viewBox="0 0 42392 42392"
 xmlns:xlink="http://www.w3.org/1999/xlink"
 xmlns:xodm="http://www.corel.com/coreldraw/odm/2003">
 <defs>
  <style type="text/css">
   <![CDATA[
    .fil0 {fill:#00A0E3}
   ]]>
  </style>
 </defs>
 <g id="Layer_x0020_1">
  <metadata id="CorelCorpID_0Corel-Layer"/>
  <path class="fil0" d="M10846 34278c477,-548 620,-240 1446,-375 1530,-251 2663,-625 3913,-1551 701,-520 1294,-1121 1810,-1834 366,-506 1134,-1818 1194,-2532 374,0 651,106 933,144 2068,276 2153,-139 3207,-227 346,654 738,1787 945,2616 582,2327 854,5958 -1133,7628 -1048,881 -3113,1308 -4885,958 -2720,-538 -5072,-1860 -6791,-3890 -262,-310 -535,-495 -638,-936zm11482 -34278l942 0c1361,56 2712,353 3948,851 1253,505 2105,954 3153,1649 1023,679 1749,1353 2604,2198l1090 1310c1095,1600 770,3735 -850,4934 -1882,1393 -3752,-66 -5912,2368 -909,1024 -959,1841 -1370,2735l231 266c447,-236 1081,-467 1572,-663 2219,-887 3929,-1158 6376,-1158 3308,0 6446,1657 7584,4504 410,1025 632,2069 696,3111l0 1307c-149,2462 -1114,4870 -2500,6958 -679,1023 -1353,1749 -2198,2604 -256,259 -401,347 -662,580 -225,201 -393,330 -650,510 -1581,1107 -3742,761 -4933,-849 -1393,-1882 66,-3752 -2368,-5912 -1024,-909 -1841,-959 -2735,-1370l-266 231c1980,3743 2973,10595 -352,13890 -1880,1863 -3754,2339 -6520,2339 -3840,0 -7403,-2338 -9791,-4698 -259,-256 -347,-401 -580,-662 -1643,-1840 -1520,-4349 334,-5587 2048,-1366 3788,37 5917,-2363 909,-1024 959,-1841 1370,-2735l-231 -266c-694,367 -2457,1011 -3245,1226 -2864,778 -5380,870 -8192,-55 -520,-171 -918,-355 -1348,-639 -971,-642 -888,-654 -1602,-1379 -451,-458 -902,-1227 -1146,-1835 -410,-1025 -632,-2069 -696,-3112l0 -1305c148,-2463 1114,-4871 2500,-6959 892,-1344 1721,-2166 2860,-3184 1840,-1643 4349,-1520 5587,334 1366,2048 -37,3788 2363,5917 1024,909 1841,959 2735,1370l266 -231c-249,-470 -457,-1057 -663,-1572 -933,-2335 -1158,-4000 -1158,-6542 0,-1238 349,-2403 651,-3323 580,-1764 2159,-3418 3853,-4096 1061,-424 2193,-648 3334,-696zm-4941 21279c0,-3691 4251,-5061 6524,-2798 2247,2237 920,6524 -2798,6524 -1996,0 -3726,-1730 -3726,-3726zm-3229 -166c0,1086 287,1708 331,2235 -370,196 -805,353 -1232,507 -2246,812 -4795,1260 -7121,476 -820,-276 -1366,-547 -1891,-1172 -2081,-2476 -771,-6845 821,-9234l1333 -1731c277,-332 1323,-1258 1715,-1349l318 263c16,3045 1346,5454 3539,6974 503,349 1738,1067 2435,1125 0,598 -248,1244 -248,1904zm13744 -2070c2599,-1375 8034,-2307 10205,145 2244,2536 750,7538 -1364,10103 -609,739 -1560,1819 -2382,2254 -185,-98 -249,-138 -414,-249 0,-3052 -1333,-5467 -3526,-6989 -503,-349 -1738,-1067 -2435,-1125 0,-449 248,-1187 248,-1987 0,-823 -244,-1469 -331,-2153zm3395 -10598c-3062,0 -5464,1328 -6989,3526 -349,503 -1067,1738 -1125,2435 -1162,0 -841,-403 -3052,-154 -368,41 -701,204 -1088,236 -1376,-2600 -2301,-8036 145,-10205 1802,-1598 4986,-1228 7237,-323 1670,672 2448,1384 3725,2402 322,257 1205,1310 1395,1668 -97,183 -135,250 -249,414z"/>
 </g>
</svg>
