<?xml version="1.0" encoding="UTF-8"?>
<!DOCTYPE svg PUBLIC "-//W3C//DTD SVG 1.0//EN" "http://www.w3.org/TR/2001/REC-SVG-20010904/DTD/svg10.dtd">
<!-- Creator: CorelDRAW -->
<svg xmlns="http://www.w3.org/2000/svg" xml:space="preserve" width="9.5mm" height="8.555mm" version="1.0" style="shape-rendering:geometricPrecision; text-rendering:geometricPrecision; image-rendering:optimizeQuality; fill-rule:evenodd; clip-rule:evenodd"
viewBox="0 0 39142 35248"
 xmlns:xlink="http://www.w3.org/1999/xlink"
 xmlns:xodm="http://www.corel.com/coreldraw/odm/2003">
 <defs>
  <style type="text/css">
   <![CDATA[
    .fil0 {fill:#00A0E3}
   ]]>
  </style>
 </defs>
 <g id="Layer_x0020_1">
  <metadata id="CorelCorpID_0Corel-Layer"/>
  <path class="fil0" d="M19496 16772c570,0 1119,115 1621,323 520,215 988,530 1379,920 395,393 712,863 928,1383 210,503 325,1055 325,1630 0,575 -115,1126 -325,1629 -216,521 -534,990 -928,1383 -391,390 -859,705 -1379,920 -502,208 -1051,323 -1621,323 -571,0 -1119,-115 -1622,-323 -520,-215 -989,-530 -1380,-920 -393,-393 -712,-863 -928,-1383 -209,-503 -325,-1054 -325,-1629 0,-575 116,-1126 325,-1630 216,-520 534,-990 928,-1383 391,-389 860,-705 1380,-920 503,-208 1051,-323 1622,-323zm-16820 17846l-2676 -3597 12283 -8389 3142 4226c-4095,2796 -8191,5589 -12282,8390l-468 -630zm35987 -3394l-2501 3636 -12591 -7954 2983 -4333 12588 7952 -480 699zm-17343 -16654l-4539 -38 75 -14532 5355 46 -75 14532 -817 -7z"/>
 </g>
</svg>
