<?xml version="1.0" encoding="UTF-8"?>
<!DOCTYPE svg PUBLIC "-//W3C//DTD SVG 1.0//EN" "http://www.w3.org/TR/2001/REC-SVG-20010904/DTD/svg10.dtd">
<!-- Creator: CorelDRAW -->
<svg xmlns="http://www.w3.org/2000/svg" xml:space="preserve" width="8.0128mm" height="8mm" version="1.0" style="shape-rendering:geometricPrecision; text-rendering:geometricPrecision; image-rendering:optimizeQuality; fill-rule:evenodd; clip-rule:evenodd"
viewBox="0 0 23600 23562"
 xmlns:xlink="http://www.w3.org/1999/xlink"
 xmlns:xodm="http://www.corel.com/coreldraw/odm/2003">
 <defs>
  <style type="text/css">
   <![CDATA[
    .fil0 {fill:#00A0E3}
   ]]>
  </style>
 </defs>
 <g id="Layer_x0020_1">
  <metadata id="CorelCorpID_0Corel-Layer"/>
  <path class="fil0" d="M14667 6490c234,-668 1946,-3593 2388,-4070 1291,-1393 3318,-1210 4418,113 1415,1700 363,3171 -453,4626l-4707 8192c-540,931 -645,1333 -1446,1782 -2725,1527 -5507,-1226 -4085,-3955l2349 -4099 1668 909 -2098 2913c-311,441 -810,992 -651,1768 121,592 656,1114 1339,1155 1439,88 1840,-1629 2314,-2761 263,-627 481,-1165 737,-1843 273,-722 25,-374 618,-670 816,-408 796,-798 787,-1561 -13,-1154 3581,-3652 2868,-5435 -357,-894 -1976,-1581 -2870,296 -414,870 -1284,2708 -1499,3655l-1678 -1014zm-636 -2057c-2826,-1167 -4925,-3826 -7256,-2363 -927,582 -1881,1972 -1210,3595 643,1556 1800,1361 2802,2373 -290,785 -803,1539 -1189,2306l-2351 4355c-548,966 -496,1729 -1834,1433 0,-2105 500,-2142 -1473,-2142 0,-3961 -8,-7923 0,-11884 1,-790 253,-2274 -879,-2083 -866,145 -596,1636 -596,2470 1,2809 -155,20201 110,20703 183,349 707,516 1104,199 775,-619 -453,-2257 846,-3551 712,-710 889,-761 889,-2099 1674,-389 1805,86 2606,-1372l2712 -5026c359,-628 1117,-1920 1332,-2531 571,214 913,536 1441,724 -634,1770 -2288,2972 -2165,5327 110,2088 1524,3568 3275,4034 2418,643 4230,-777 5063,-2215 906,-1562 1766,-3051 2679,-4676 893,-1591 1814,-3209 2730,-4751 3006,-5057 -1928,-8457 -5308,-6859 -2206,1043 -2394,3063 -3328,4035z"/>
 </g>
</svg>
