<?xml version="1.0" encoding="UTF-8"?>
<!DOCTYPE svg PUBLIC "-//W3C//DTD SVG 1.0//EN" "http://www.w3.org/TR/2001/REC-SVG-20010904/DTD/svg10.dtd">
<!-- Creator: CorelDRAW -->
<svg xmlns="http://www.w3.org/2000/svg" xml:space="preserve" width="9.8499mm" height="8.6053mm" version="1.0" style="shape-rendering:geometricPrecision; text-rendering:geometricPrecision; image-rendering:optimizeQuality; fill-rule:evenodd; clip-rule:evenodd"
viewBox="0 0 31275 27323"
 xmlns:xlink="http://www.w3.org/1999/xlink"
 xmlns:xodm="http://www.corel.com/coreldraw/odm/2003">
 <defs>
  <style type="text/css">
   <![CDATA[
    .fil0 {fill:#00A0E3;fill-rule:nonzero}
   ]]>
  </style>
 </defs>
 <g id="Layer_x0020_1">
  <metadata id="CorelCorpID_0Corel-Layer"/>
  <path class="fil0" d="M13698 610c275,-276 674,-465 1184,-550l15 -3c519,-83 1049,-74 1511,12 479,89 891,264 1151,507 148,140 264,313 342,508 77,190 117,402 117,627 0,325 -78,622 -235,891 -155,265 -386,501 -692,709l-233 158 -6 5112c1,2555 1,3864 15,4505 12,554 -34,565 -15,571 47,14 110,43 176,79 71,40 150,87 217,132l3 3c48,34 101,63 147,83 11,4 11,11 10,15 2801,-1953 5594,-3916 8390,-5875 871,-607 1451,-1008 1541,-1062 157,-93 265,-149 387,-183 122,-34 243,-43 424,-43 121,0 257,13 386,35 132,22 261,55 365,92 403,153 824,445 1197,810 367,359 691,793 904,1239 206,425 296,832 273,1193 -23,376 -168,703 -428,950 -58,59 -426,313 -969,674 -538,357 -1254,824 -2017,1313 -2542,1643 -5083,3290 -7629,4927 -89,53 -142,90 -166,121 -12,16 -16,40 -16,79 0,30 49,82 508,425 518,389 1504,1082 3361,2385 1024,717 1968,1385 2689,1901 841,601 1404,1014 1468,1074 67,64 133,152 188,243 58,97 107,204 133,291l2 5c67,251 57,515 -14,776 -115,425 -391,846 -749,1189 -358,341 -798,609 -1243,728 -306,82 -616,95 -906,17 -104,-29 -580,-309 -1385,-812 -777,-485 -1876,-1186 -3254,-2076l-4265 -2757 -292 59c-132,30 -277,47 -433,52 -151,4 -315,-2 -489,-18l-400 -33 -253 -15c-17,-1 -347,199 -1034,625 -718,446 -1791,1131 -3262,2081 -1173,758 -2289,1474 -3130,2010 -767,489 -1266,801 -1319,822l-4 1c-63,23 -165,44 -279,58 -108,13 -231,21 -344,21 -291,-4 -582,-74 -867,-210 -278,-132 -554,-329 -821,-586 -411,-394 -671,-834 -766,-1251 -99,-438 -18,-852 258,-1171 50,-58 579,-450 1382,-1025 719,-515 1698,-1208 2786,-1968 1864,-1306 2858,-2004 3397,-2407 468,-349 521,-404 521,-433l1 -7c1,-35 -2,-58 -17,-75 -35,-42 -113,-96 -249,-182 -737,-462 -3262,-2093 -5649,-3642 -2458,-1595 -4774,-3108 -4851,-3174l-57 -54c-362,-363 -479,-871 -370,-1434 104,-538 418,-1129 921,-1688l196 -207c320,-316 616,-546 914,-701 304,-158 611,-240 945,-256 177,-10 310,-10 421,4 123,14 221,45 316,94 64,34 303,191 639,419 341,232 775,531 1216,839 2746,1929 5508,3845 8242,5791l580 -309 -5 -10186 -233 -159c-307,-208 -538,-444 -692,-709 -157,-269 -236,-566 -236,-891 4,-446 153,-818 435,-1101zm3039 696c-54,-39 -117,-74 -188,-103 -137,-55 -430,-96 -736,-113 -305,-17 -616,-10 -793,29 -242,53 -422,129 -536,230 -98,87 -149,197 -149,331 0,99 30,218 78,330 46,107 107,203 171,263l73 -90c143,-171 279,-288 436,-364 159,-77 333,-110 548,-110 215,0 392,33 550,108 158,75 291,192 418,358l78 96 108 -137c50,-68 88,-136 114,-201 50,-125 59,-245 30,-350 -29,-104 -97,-199 -203,-276zm-46 1017c13,0 10,-1 2,-3 -10,2 -15,3 -2,3zm-2137 -12l6 -7c-18,10 -31,16 -6,7zm1210 1603c-10,-805 -5,-1104 -9,-1108l-29 -11c-26,-9 -57,-14 -85,-14 -28,0 -59,5 -84,13l-30 11c-4,4 2,304 -9,1108 -11,821 -16,2190 -16,4298l0 5283 278 0 0 -5283c0,-2107 -4,-3477 -16,-4298zm-3607 10167l-3304 -2318c-1538,-1079 -2962,-2069 -4009,-2789 -993,-683 -1618,-1108 -1639,-1113 -164,-25 -365,23 -585,137 -241,124 -504,326 -770,596l-86 90c-299,329 -518,697 -621,1017 -91,282 -96,516 14,624l11 10c27,27 159,120 351,251 224,152 562,375 924,612l5137 3321c1124,726 2122,1367 2823,1814 575,366 944,619 1068,699l32 -58c132,-327 447,-641 872,-900 413,-252 934,-454 1491,-565l252 -50 -1960 -1376zm17241 -5510c-234,-238 -486,-443 -686,-545 -203,-99 -382,-149 -540,-149 -101,2 -199,34 -704,366 -532,350 -1521,1043 -3411,2372l-6879 4842 39 6c605,101 1136,283 1564,528 440,251 775,571 974,940l58 99c128,-82 510,-345 1113,-731 781,-498 1936,-1241 3238,-2082l21 -14c5721,-3692 5910,-3815 5991,-3916 37,-49 38,-180 10,-348 -32,-195 -107,-423 -217,-629 -122,-229 -337,-499 -572,-739zm-13326 6349l379 -264c-140,-40 -439,-65 -747,-70 -350,-6 -700,14 -832,64l-19 7c277,221 740,559 788,559l431 -295zm2523 2267c-264,-267 -671,-465 -1225,-598 -281,-69 -826,-121 -1383,-145 -548,-23 -1104,-19 -1429,25 -758,97 -1330,291 -1709,575 -357,267 -539,619 -539,1052 0,81 7,177 17,267 10,96 25,184 38,240 65,232 278,524 570,808 300,292 680,572 1069,770 464,232 876,382 1245,451 358,66 674,56 957,-31 817,-250 1517,-637 2010,-1079 476,-426 756,-900 756,-1346 0,-405 -124,-733 -377,-989zm-6268 3112c-286,-260 -547,-542 -676,-744l-110 -168c-75,57 -236,193 -507,380l-5298 3720c-485,342 -934,669 -1269,921 -312,235 -516,392 -541,420 -27,70 -15,170 34,289 61,148 175,318 337,497 172,188 358,338 543,441 181,100 360,156 524,161l76 5c62,6 94,10 493,-232 438,-264 1283,-812 2970,-1903l1048 -679c1454,-939 2388,-1548 2940,-1923 254,-172 498,-216 631,-239l74 -57 -139 -86 -298 -171c-239,-134 -550,-376 -832,-632zm-738 -942l-10 4c19,-3 33,-4 10,-4zm14959 4879c-611,-449 -1589,-1142 -3054,-2171l-2757 -1933c-556,-389 -891,-659 -1013,-745l-170 234c-162,239 -370,471 -616,691 -248,222 -534,432 -853,628 -118,70 -220,137 -296,191l3897 2528c1967,1272 2968,1919 3531,2257 510,306 585,315 703,312 171,-2 337,-44 503,-128 172,-88 346,-222 522,-404 147,-149 266,-324 341,-486 67,-144 97,-272 77,-350l-2 -9c-3,-15 -236,-193 -813,-617zm-6854 -4869l3 3 -3 -3zm-20 -9c-28,0 -1,4 23,12l-23 -12z"/>
 </g>
</svg>
