<?xml version="1.0" encoding="UTF-8"?>
<!DOCTYPE svg PUBLIC "-//W3C//DTD SVG 1.0//EN" "http://www.w3.org/TR/2001/REC-SVG-20010904/DTD/svg10.dtd">
<!-- Creator: CorelDRAW -->
<svg xmlns="http://www.w3.org/2000/svg" xml:space="preserve" width="9.1001mm" height="9.0942mm" version="1.0" style="shape-rendering:geometricPrecision; text-rendering:geometricPrecision; image-rendering:optimizeQuality; fill-rule:evenodd; clip-rule:evenodd"
viewBox="0 0 23595 23580"
 xmlns:xlink="http://www.w3.org/1999/xlink"
 xmlns:xodm="http://www.corel.com/coreldraw/odm/2003">
 <defs>
  <style type="text/css">
   <![CDATA[
    .fil0 {fill:#00A0E3}
   ]]>
  </style>
 </defs>
 <g id="Layer_x0020_1">
  <metadata id="CorelCorpID_0Corel-Layer"/>
  <path class="fil0" d="M9670 21305c190,92 353,233 471,406 130,192 207,424 207,673 0,330 -134,630 -350,846 -216,216 -516,350 -846,350 -330,0 -629,-134 -846,-350 -217,-217 -351,-516 -351,-846 0,-261 84,-503 227,-700 128,-176 303,-317 506,-402 -6,-612 -9,-1322 -9,-2020 1,-871 5,-1753 11,-2426 2,-402 -209,-727 -419,-1051 -81,-125 -162,-250 -233,-380 -56,-101 -232,-99 -392,-96 -1094,11 -2193,1 -3288,1l0 -8 -785 -2c-705,-2 -1412,-5 -2118,6 -298,4 -556,-65 -773,-195 -228,-137 -413,-340 -553,-596 -145,-263 -158,-514 -91,-752 64,-226 203,-436 370,-632 375,-441 795,-793 1269,-1037 477,-245 1009,-381 1605,-389 803,-11 1605,-5 2404,38 802,43 1602,122 2399,254 125,21 241,17 345,-14 103,-31 200,-89 290,-177 221,-215 466,-388 728,-524 262,-135 542,-235 835,-303 112,-27 185,-72 227,-132 44,-62 61,-151 61,-262l0 -5114c0,-82 -8,-159 -29,-229 -19,-68 -52,-134 -101,-195 -302,-386 -578,-787 -837,-1198 -257,-409 -499,-830 -730,-1255 -147,-269 -275,-552 -369,-846 -95,-296 -157,-605 -171,-923 -11,-283 37,-483 161,-618 127,-137 319,-196 598,-196 958,-5 1863,-9 2713,-9 850,0 1756,3 2717,9 287,2 488,65 616,210 127,143 170,354 142,652 -39,418 -139,816 -287,1195 -147,376 -342,735 -571,1079 -140,211 -272,431 -403,650 -257,430 -515,861 -848,1249 -48,56 -79,120 -97,187 -19,72 -26,152 -26,235l1 1687c2,1126 3,2254 -2,3381 1,253 150,341 373,474l31 19c443,262 795,276 1108,154 327,-128 628,-406 944,-709 976,-938 1997,-1827 3016,-2716l218 -190c413,-359 862,-585 1340,-691 497,-110 1024,-91 1571,40l749 169c321,72 602,213 810,402 211,191 348,431 378,695 38,330 -42,603 -195,832 -148,222 -363,400 -602,547 -1501,917 -3028,1835 -4554,2754l-1977 1191 -84 55 -80 64c-46,39 -95,71 -144,103 -105,68 -211,137 -183,279 36,185 198,246 368,310l1733 695c530,215 1077,439 1648,680 126,53 259,98 390,142 228,76 457,153 674,281 263,157 469,356 598,580 129,224 181,473 139,726 -43,251 -165,468 -354,637 -183,164 -428,282 -722,341l-432 91c-285,61 -570,122 -859,170 -577,98 -1106,32 -1603,-139 -491,-170 -949,-443 -1392,-763 -201,-145 -416,-291 -630,-437l-481 -331c-84,-59 -164,-85 -241,-84 -80,1 -165,31 -254,82 -696,409 -1414,595 -2142,629 -722,34 -1456,-80 -2191,-269 -137,-36 -230,-38 -280,-4 -43,29 -64,101 -64,219 -5,466 -8,1074 -8,1699l4 2048zm-1964 -7179c149,-141 233,-360 252,-656l14 -215c2,-134 -11,-219 -49,-269 -56,-71 -197,-104 -458,-142 -939,-137 -1883,-146 -2826,-154 -424,-4 -848,-8 -1268,-22 -433,-14 -813,66 -1153,225 -342,160 -648,403 -932,711l-30 32c-146,160 -291,320 -190,534 89,185 288,183 475,180 946,-9 1897,0 2844,-1l0 -12 2661 0c291,0 512,-71 660,-211zm1665 -13018c-62,94 -24,276 102,563 279,632 655,1212 1030,1790l335 521c21,33 53,69 88,97 22,17 44,30 60,32 275,40 549,60 821,61 268,1 537,-18 805,-57 25,-4 56,-19 86,-39 31,-21 59,-48 75,-74 124,-196 253,-391 381,-585 408,-616 817,-1233 1068,-1928 72,-199 85,-330 35,-401 -51,-72 -180,-106 -394,-108 -451,-5 -903,-3 -1353,-2l-2578 2c-316,-3 -499,33 -561,127zm2722 9416l0 -2340 -4 0 0 -2622c0,-126 -6,-247 -49,-322 -34,-60 -105,-98 -243,-93 -249,10 -249,219 -249,418l-1 4962c1,118 3,236 40,312 29,60 92,101 217,106 138,5 208,-34 241,-96 42,-78 47,-201 47,-326zm-2403 1702c-266,189 -479,463 -650,798l-35 68c-23,56 -40,112 -44,166 -5,67 6,132 46,190 35,48 83,65 133,65 68,1 153,-24 227,-46 310,-92 627,-164 964,-211 335,-46 689,-65 1073,-51 403,15 745,-19 1052,-132 304,-112 578,-304 847,-606l21 -24c105,-116 208,-230 173,-362 -38,-141 -218,-142 -362,-142 -770,-8 -1625,-8 -2479,-8 -386,1 -704,107 -966,294zm4241 3890c325,-267 577,-627 697,-1025l-3 -3 19 -72c39,-152 42,-269 -1,-356 -44,-87 -140,-156 -300,-216 -404,-150 -818,-224 -1238,-259 -429,-36 -863,-31 -1303,-23l-303 4c-730,7 -1486,15 -2212,286 -172,64 -272,141 -313,233 -41,94 -31,218 18,373 132,419 424,825 792,1115 339,267 743,434 1147,421 303,-11 606,-8 910,-4 300,3 600,7 901,-4 431,-16 850,-193 1189,-471zm4429 101c-768,-303 -1534,-605 -2330,-924l-9 -6c-142,-56 -257,-59 -347,-19 -101,45 -181,146 -243,288 -64,149 -122,297 -118,424 4,111 63,218 227,316 184,110 357,241 529,370 118,89 237,179 360,261l163 109c562,382 1127,764 1847,700l315 -28c424,-35 851,-70 1247,-221l60 -22c124,-45 260,-95 260,-223 0,-91 -33,-163 -84,-220 -58,-64 -143,-115 -238,-155l-1639 -649zm-343 -4879c1410,-861 2866,-1746 4358,-2649l73 -44c43,-34 78,-70 103,-110 36,-57 56,-125 56,-207 0,-78 -29,-129 -71,-165 -54,-46 -137,-79 -219,-111 -247,-94 -502,-156 -780,-198 -285,-44 -594,-69 -943,-92l-9 -1c-174,-24 -367,15 -562,97 -223,93 -450,245 -656,427 -1223,1076 -2427,2157 -3629,3236l-1698 1521c-50,44 -93,87 -113,129 -16,33 -19,72 -2,121 17,49 46,80 82,100 45,25 106,39 169,48 348,52 639,-128 925,-305 974,-596 1945,-1199 2917,-1798zm-8719 10899c-37,-37 -89,-61 -146,-61 -57,0 -109,23 -146,61 -37,37 -61,89 -61,146 0,57 23,109 61,146 37,37 89,61 146,61 57,0 109,-23 146,-61 37,-37 61,-89 61,-146 0,-57 -23,-109 -61,-146z"/>
 </g>
</svg>
