<?xml version="1.0" encoding="UTF-8"?>
<!DOCTYPE svg PUBLIC "-//W3C//DTD SVG 1.0//EN" "http://www.w3.org/TR/2001/REC-SVG-20010904/DTD/svg10.dtd">
<!-- Creator: CorelDRAW -->
<svg xmlns="http://www.w3.org/2000/svg" xml:space="preserve" width="8.5mm" height="8.5mm" version="1.0" style="shape-rendering:geometricPrecision; text-rendering:geometricPrecision; image-rendering:optimizeQuality; fill-rule:evenodd; clip-rule:evenodd"
viewBox="0 0 18451 18451"
 xmlns:xlink="http://www.w3.org/1999/xlink"
 xmlns:xodm="http://www.corel.com/coreldraw/odm/2003">
 <defs>
  <style type="text/css">
   <![CDATA[
    .fil0 {fill:#00A0E3}
   ]]>
  </style>
 </defs>
 <g id="Layer_x0020_1">
  <metadata id="CorelCorpID_0Corel-Layer"/>
  <path class="fil0" d="M12619 3580c-1049,-1242 -4348,-1943 -5835,-1280 -1320,590 -1675,2043 -1315,3479 155,629 471,1208 865,1720 305,401 311,836 22,1158 -283,318 -687,145 -1032,-50 -211,-122 -422,-250 -643,-345 -1020,-451 -1969,-22 -2102,1075 -233,1865 205,3613 1453,5039 1109,1269 2895,1119 4143,-245 438,-479 794,-1036 1032,-1631 194,-490 610,-562 954,-557 371,6 410,473 476,791 45,217 17,445 22,668 39,1353 915,2038 2135,1465 1814,-857 3156,-2233 3600,-4281 250,-1152 -787,-2472 -2130,-2839 -560,-150 -1126,-267 -1747,-189l-11 16c-205,0 -449,-11 -693,0 -383,17 -555,-273 -699,-534 -133,-251 61,-485 244,-635 327,-262 699,-468 1032,-724 738,-562 821,-1398 227,-2099zm-3500 4376c766,-33 1353,485 1376,1203 22,734 -521,1336 -1242,1380 -676,44 -1337,-574 -1365,-1269 -27,-674 549,-1292 1231,-1314zm84 -6982c4562,-3 8231,3654 8242,8201 12,4576 -3632,8312 -8147,8329 -4682,16 -8259,-3619 -8348,-8129 -89,-4692 3613,-8393 8248,-8401 2,0 4,0 6,0zm-22 17466c2640,0 5286,0 7926,0 959,0 1337,-362 1337,-1325 11,-5239 11,-10478 5,-15717 0,-1047 -382,-1398 -1419,-1398 -5197,0 -10394,0 -15586,0 -1171,0 -1448,290 -1442,1470 0,5173 0,10345 0,15517 0,1152 305,1459 1453,1465 2573,0 5152,0 7726,0l0 -11z"/>
 </g>
</svg>
