<?xml version="1.0" encoding="UTF-8"?>
<!DOCTYPE svg PUBLIC "-//W3C//DTD SVG 1.0//EN" "http://www.w3.org/TR/2001/REC-SVG-20010904/DTD/svg10.dtd">
<!-- Creator: CorelDRAW -->
<svg xmlns="http://www.w3.org/2000/svg" xml:space="preserve" width="1.5mm" height="24.487mm" version="1.0" style="shape-rendering:geometricPrecision; text-rendering:geometricPrecision; image-rendering:optimizeQuality; fill-rule:evenodd; clip-rule:evenodd"
viewBox="0 0 0.16 2.62"
 xmlns:xlink="http://www.w3.org/1999/xlink"
 xmlns:xodm="http://www.corel.com/coreldraw/odm/2003">
 <defs>
  <style type="text/css">
   <![CDATA[
    .fil0 {fill:#00AFEF}
   ]]>
  </style>
 </defs>
 <g id="Layer_x0020_1">
  <metadata id="CorelCorpID_0Corel-Layer"/>
  <path class="fil0" d="M0.08 2.46c0.04,0 0.08,0.04 0.08,0.08 0,0.04 -0.04,0.08 -0.08,0.08 -0.04,0 -0.08,-0.04 -0.08,-0.08 0,-0.04 0.04,-0.08 0.08,-0.08z"/>
  <path class="fil0" d="M0.08 1.64c0.04,0 0.08,0.04 0.08,0.08 0,0.04 -0.04,0.08 -0.08,0.08 -0.04,0 -0.08,-0.04 -0.08,-0.08 0,-0.04 0.04,-0.08 0.08,-0.08z"/>
  <path class="fil0" d="M0.08 0.82c0.04,0 0.08,0.04 0.08,0.08 0,0.04 -0.04,0.08 -0.08,0.08 -0.04,0 -0.08,-0.04 -0.08,-0.08 0,-0.04 0.04,-0.08 0.08,-0.08z"/>
  <path class="fil0" d="M0.08 0c0.04,0 0.08,0.04 0.08,0.08 0,0.04 -0.04,0.08 -0.08,0.08 -0.04,0 -0.08,-0.04 -0.08,-0.08 0,-0.04 0.04,-0.08 0.08,-0.08z"/>
 </g>
</svg>
