<?xml version="1.0" encoding="UTF-8"?>
<!DOCTYPE svg PUBLIC "-//W3C//DTD SVG 1.0//EN" "http://www.w3.org/TR/2001/REC-SVG-20010904/DTD/svg10.dtd">
<!-- Creator: CorelDRAW -->
<svg xmlns="http://www.w3.org/2000/svg" xml:space="preserve" width="2mm" height="35.02mm" version="1.0" style="shape-rendering:geometricPrecision; text-rendering:geometricPrecision; image-rendering:optimizeQuality; fill-rule:evenodd; clip-rule:evenodd"
viewBox="0 0 0.79 13.78"
 xmlns:xlink="http://www.w3.org/1999/xlink"
 xmlns:xodm="http://www.corel.com/coreldraw/odm/2003">
 <defs>
  <style type="text/css">
   <![CDATA[
    .fil0 {fill:#00AFEF}
   ]]>
  </style>
 </defs>
 <g id="Layer_x0020_1">
  <metadata id="CorelCorpID_0Corel-Layer"/>
  <path class="fil0" d="M0.39 13c0.22,0 0.39,0.18 0.39,0.39 0,0.22 -0.18,0.39 -0.39,0.39 -0.22,0 -0.39,-0.18 -0.39,-0.39 0,-0.22 0.18,-0.39 0.39,-0.39z"/>
  <path class="fil0" d="M0.39 8.66c0.22,0 0.39,0.18 0.39,0.39 0,0.22 -0.18,0.39 -0.39,0.39 -0.22,0 -0.39,-0.18 -0.39,-0.39 0,-0.22 0.18,-0.39 0.39,-0.39z"/>
  <path class="fil0" d="M0.39 4.33c0.22,0 0.39,0.18 0.39,0.39 0,0.22 -0.18,0.39 -0.39,0.39 -0.22,0 -0.39,-0.18 -0.39,-0.39 0,-0.22 0.18,-0.39 0.39,-0.39z"/>
  <path class="fil0" d="M0.39 0c0.22,0 0.39,0.18 0.39,0.39 0,0.22 -0.18,0.39 -0.39,0.39 -0.22,0 -0.39,-0.18 -0.39,-0.39 0,-0.22 0.18,-0.39 0.39,-0.39z"/>
 </g>
</svg>
