<?xml version="1.0" encoding="UTF-8"?>
<!DOCTYPE svg PUBLIC "-//W3C//DTD SVG 1.0//EN" "http://www.w3.org/TR/2001/REC-SVG-20010904/DTD/svg10.dtd">
<!-- Creator: CorelDRAW -->
<svg xmlns="http://www.w3.org/2000/svg" xml:space="preserve" width="2.2586mm" height="24.9956mm" version="1.0" style="shape-rendering:geometricPrecision; text-rendering:geometricPrecision; image-rendering:optimizeQuality; fill-rule:evenodd; clip-rule:evenodd"
viewBox="0 0 0.16 1.8"
 xmlns:xlink="http://www.w3.org/1999/xlink"
 xmlns:xodm="http://www.corel.com/coreldraw/odm/2003">
 <defs>
  <style type="text/css">
   <![CDATA[
    .fil0 {fill:#00AFEF;fill-rule:nonzero}
   ]]>
  </style>
 </defs>
 <g id="Layer_x0020_1">
  <metadata id="CorelCorpID_0Corel-Layer"/>
  <g id="_2658894334208">
   <path class="fil0" d="M0.12 1.8l-0.07 0c-0.01,0 -0.01,-0 -0.02,-0.01 -0,-0 -0.01,-0.01 -0.01,-0.02l0 -0.07c0,-0.01 0,-0.01 0.01,-0.02l0 -0c0,-0 0.01,-0.01 0.02,-0.01l0.07 0c0.01,0 0.01,0 0.02,0.01 0,0 0.01,0.01 0.01,0.02l0 0.07c0,0.01 -0,0.01 -0.01,0.02l-0 0c-0,0 -0.01,0.01 -0.02,0.01z"/>
   <path class="fil0" d="M0.12 1.25l-0.08 0c-0.01,0 -0.01,-0 -0.02,-0.01l0 -0c-0.01,-0.01 -0.01,-0.01 -0.01,-0.02l0 -0.08c0,-0.01 0,-0.01 0.01,-0.02 0.01,-0.01 0.01,-0.01 0.02,-0.01l0.08 0c0.01,0 0.01,0 0.02,0.01l0 0c0.01,0.01 0.01,0.01 0.01,0.02l0 0.08c0,0.01 -0,0.01 -0.01,0.02l-0 0c-0.01,0.01 -0.01,0.01 -0.02,0.01z"/>
   <path class="fil0" d="M0.12 0.71l-0.09 0c-0.01,0 -0.02,-0 -0.02,-0.01 -0.01,-0.01 -0.01,-0.01 -0.01,-0.02l0 -0.09c0,-0.01 0,-0.02 0.01,-0.02 0.01,-0.01 0.01,-0.01 0.02,-0.01l0.09 0c0.01,0 0.02,0 0.02,0.01 0.01,0.01 0.01,0.01 0.01,0.02l0 0.09c0,0.01 -0,0.02 -0.01,0.02 -0.01,0.01 -0.01,0.01 -0.02,0.01z"/>
   <path class="fil0" d="M0.13 0.16l-0.1 0c-0.01,0 -0.02,-0 -0.02,-0.01l0 -0c-0.01,-0.01 -0.01,-0.01 -0.01,-0.02l0 -0.1c0,-0.01 0,-0.02 0.01,-0.02 0.01,-0.01 0.01,-0.01 0.02,-0.01l0.1 0c0.01,0 0.02,0 0.02,0.01l0 0c0.01,0.01 0.01,0.01 0.01,0.02l0 0.1c0,0.01 -0,0.02 -0.01,0.02l-0 0c-0.01,0.01 -0.01,0.01 -0.02,0.01z"/>
  </g>
 </g>
</svg>
