<?xml version="1.0" encoding="UTF-8"?>
<!DOCTYPE svg PUBLIC "-//W3C//DTD SVG 1.0//EN" "http://www.w3.org/TR/2001/REC-SVG-20010904/DTD/svg10.dtd">
<!-- Creator: CorelDRAW -->
<svg xmlns="http://www.w3.org/2000/svg" xml:space="preserve" width="4.3773mm" height="5.4441mm" version="1.0" style="shape-rendering:geometricPrecision; text-rendering:geometricPrecision; image-rendering:optimizeQuality; fill-rule:evenodd; clip-rule:evenodd"
viewBox="0 0 5908 7348"
 xmlns:xlink="http://www.w3.org/1999/xlink"
 xmlns:xodm="http://www.corel.com/coreldraw/odm/2003">
 <defs>
  <style type="text/css">
   <![CDATA[
    .fil0 {fill:#00A0E3;fill-rule:nonzero}
   ]]>
  </style>
 </defs>
 <g id="Layer_x0020_1">
  <metadata id="CorelCorpID_0Corel-Layer"/>
  <path class="fil0" d="M11 7198c-4,-38 -8,-76 -10,-118 -2,-40 -2,-103 -2,-189 0,-600 130,-1112 390,-1541 261,-429 672,-802 1234,-1122 234,-139 535,-293 903,-467 368,-171 608,-288 720,-349 234,-126 417,-303 552,-531 133,-229 200,-484 200,-766 0,-383 -147,-699 -440,-945 -295,-248 -670,-371 -1128,-371 -335,0 -625,74 -870,225 -246,150 -436,370 -570,655 59,-17 122,-32 185,-42 63,-9 131,-13 206,-13 240,0 430,69 573,204 143,135 215,318 215,549 0,267 -84,486 -253,651 -170,168 -390,251 -663,251 -316,0 -579,-112 -785,-337 -208,-225 -310,-512 -310,-863 0,-571 257,-1063 773,-1469 516,-408 1148,-611 1901,-611 878,0 1579,206 2105,619 524,413 787,960 787,1642 0,571 -162,1019 -486,1341 -324,322 -903,588 -1735,802l-34 6c-1343,333 -2173,827 -2489,1478 152,-99 310,-175 472,-225 162,-50 335,-74 522,-74 305,0 720,61 1244,183 526,122 888,183 1090,183 312,0 541,-97 686,-293 145,-196 232,-528 263,-998l651 0 0 156c0,802 -156,1423 -467,1865 -310,444 -747,665 -1308,665 -204,0 -438,-38 -699,-112 -263,-74 -554,-185 -874,-333 -67,-34 -164,-84 -290,-150 -417,-219 -735,-330 -954,-330 -194,0 -341,63 -444,187 -103,124 -168,320 -198,589l-663 0z"/>
 </g>
</svg>
