<?xml version="1.0" encoding="UTF-8"?>
<!DOCTYPE svg PUBLIC "-//W3C//DTD SVG 1.0//EN" "http://www.w3.org/TR/2001/REC-SVG-20010904/DTD/svg10.dtd">
<!-- Creator: CorelDRAW -->
<svg xmlns="http://www.w3.org/2000/svg" xml:space="preserve" width="4.3773mm" height="5.4441mm" version="1.0" style="shape-rendering:geometricPrecision; text-rendering:geometricPrecision; image-rendering:optimizeQuality; fill-rule:evenodd; clip-rule:evenodd"
viewBox="0 0 6739 8382"
 xmlns:xlink="http://www.w3.org/1999/xlink"
 xmlns:xodm="http://www.corel.com/coreldraw/odm/2003">
 <defs>
  <style type="text/css">
   <![CDATA[
    .fil0 {fill:#00A0E3;fill-rule:nonzero}
   ]]>
  </style>
 </defs>
 <g id="Layer_x0020_1">
  <metadata id="CorelCorpID_0Corel-Layer"/>
  <path class="fil0" d="M1134 6853c224,213 480,372 767,474 285,104 608,156 969,156 580,0 1041,-139 1380,-419 339,-280 508,-656 508,-1132 0,-513 -159,-895 -474,-1147 -315,-252 -795,-378 -1440,-378l-248 0 0 -952 126 0c658,0 1143,-104 1453,-311 311,-208 465,-530 465,-967 0,-404 -143,-728 -432,-973 -289,-246 -676,-369 -1158,-369 -280,0 -539,39 -778,117 -237,78 -465,202 -680,367 250,26 443,113 584,265 139,150 208,348 208,595 0,267 -95,489 -287,663 -191,174 -439,261 -743,261 -311,0 -565,-100 -767,-300 -202,-200 -302,-456 -302,-771 0,-569 298,-1049 891,-1442 595,-393 1349,-589 2266,-589 925,0 1669,187 2231,561 563,374 843,858 843,1458 0,500 -161,904 -480,1208 -321,306 -812,523 -1473,656 708,124 1247,361 1619,713 372,352 556,802 556,1349 0,739 -324,1330 -973,1773 -650,443 -1523,665 -2622,665 -921,0 -1675,-208 -2262,-626 -589,-419 -882,-943 -882,-1575 0,-378 111,-684 335,-917 222,-232 513,-350 869,-350 302,0 545,91 732,274 187,182 280,421 280,717 0,285 -91,513 -272,687 -180,174 -417,261 -715,261l-96 0z"/>
 </g>
</svg>
