<?xml version="1.0" encoding="UTF-8"?>
<!DOCTYPE svg PUBLIC "-//W3C//DTD SVG 1.0//EN" "http://www.w3.org/TR/2001/REC-SVG-20010904/DTD/svg10.dtd">
<!-- Creator: CorelDRAW -->
<svg xmlns="http://www.w3.org/2000/svg" xml:space="preserve" width="4.6313mm" height="5.207mm" version="1.0" style="shape-rendering:geometricPrecision; text-rendering:geometricPrecision; image-rendering:optimizeQuality; fill-rule:evenodd; clip-rule:evenodd"
viewBox="0 0 8759 9847"
 xmlns:xlink="http://www.w3.org/1999/xlink"
 xmlns:xodm="http://www.corel.com/coreldraw/odm/2003">
 <defs>
  <style type="text/css">
   <![CDATA[
    .fil0 {fill:#00A0E3;fill-rule:nonzero}
   ]]>
  </style>
 </defs>
 <g id="Layer_x0020_1">
  <metadata id="CorelCorpID_0Corel-Layer"/>
  <path class="fil0" d="M4868 5764l48 -3507 -3170 3507 3122 0zm-1777 4083l0 -1153 579 0c534,0 865,-51 998,-149 134,-99 200,-336 200,-718l0 -686 -4868 0 0 -1220 5337 -5922 1548 0 0 5764 1873 0 0 1377 -1873 0 0 686c0,339 69,568 211,689 141,120 395,179 766,179l897 0 0 1153 -5668 0z"/>
 </g>
</svg>
