<?xml version="1.0" encoding="UTF-8"?>
<!DOCTYPE svg PUBLIC "-//W3C//DTD SVG 1.0//EN" "http://www.w3.org/TR/2001/REC-SVG-20010904/DTD/svg10.dtd">
<!-- Creator: CorelDRAW -->
<svg xmlns="http://www.w3.org/2000/svg" xml:space="preserve" width="4.3519mm" height="5.4271mm" version="1.0" style="shape-rendering:geometricPrecision; text-rendering:geometricPrecision; image-rendering:optimizeQuality; fill-rule:evenodd; clip-rule:evenodd"
viewBox="0 0 9253 11539"
 xmlns:xlink="http://www.w3.org/1999/xlink"
 xmlns:xodm="http://www.corel.com/coreldraw/odm/2003">
 <defs>
  <style type="text/css">
   <![CDATA[
    .fil0 {fill:#00A0E3;fill-rule:nonzero}
   ]]>
  </style>
 </defs>
 <g id="Layer_x0020_1">
  <metadata id="CorelCorpID_0Corel-Layer"/>
  <path class="fil0" d="M1602 9535c324,255 675,447 1056,573 381,126 792,189 1230,189 858,0 1524,-240 2001,-720 477,-480 717,-1155 717,-2022 0,-891 -231,-1584 -690,-2079 -462,-495 -1101,-741 -1923,-741 -450,0 -861,93 -1233,282 -375,186 -723,477 -1053,870l-1221 -54 555 -5832c591,192 1197,336 1815,432 618,96 1269,144 1950,144 702,0 1380,-48 2028,-141 648,-93 1269,-231 1860,-417 -240,873 -732,1521 -1479,1941 -744,423 -1758,633 -3045,633 -234,0 -504,-12 -813,-39 -309,-27 -696,-72 -1167,-138l-138 1653c468,-216 933,-378 1392,-486 462,-108 918,-162 1377,-162 1290,0 2349,369 3183,1104 831,735 1248,1662 1248,2787 0,1308 -420,2337 -1260,3093 -840,756 -1995,1134 -3459,1134 -1347,0 -2439,-282 -3276,-846 -837,-567 -1257,-1290 -1257,-2175 0,-462 156,-846 465,-1158 309,-309 696,-465 1158,-465 438,0 798,120 1074,360 279,240 417,552 417,939 0,414 -135,741 -408,981 -273,240 -642,360 -1104,360z"/>
 </g>
</svg>
