<?xml version="1.0" encoding="UTF-8"?>
<!DOCTYPE svg PUBLIC "-//W3C//DTD SVG 1.0//EN" "http://www.w3.org/TR/2001/REC-SVG-20010904/DTD/svg10.dtd">
<!-- Creator: CorelDRAW -->
<svg xmlns="http://www.w3.org/2000/svg" xml:space="preserve" width="4.4281mm" height="5.4611mm" version="1.0" style="shape-rendering:geometricPrecision; text-rendering:geometricPrecision; image-rendering:optimizeQuality; fill-rule:evenodd; clip-rule:evenodd"
viewBox="0 0 11914 14693"
 xmlns:xlink="http://www.w3.org/1999/xlink"
 xmlns:xodm="http://www.corel.com/coreldraw/odm/2003">
 <defs>
  <style type="text/css">
   <![CDATA[
    .fil0 {fill:#00A0E3;fill-rule:nonzero}
   ]]>
  </style>
 </defs>
 <g id="Layer_x0020_1">
  <metadata id="CorelCorpID_0Corel-Layer"/>
  <path class="fil0" d="M3576 10183c0,911 216,1610 645,2096 429,486 1044,729 1837,729 756,0 1348,-239 1773,-721 429,-482 642,-1150 642,-2005 0,-964 -209,-1689 -630,-2183 -418,-494 -1044,-740 -1876,-740 -755,0 -1344,247 -1762,740 -421,493 -630,1188 -630,2084zm5175 -8223c-288,-194 -577,-338 -866,-429 -292,-95 -581,-140 -870,-140 -1150,0 -2008,414 -2570,1245 -566,831 -885,2156 -957,3967 554,-402 1120,-702 1693,-904 573,-201 1177,-300 1807,-300 1431,0 2608,433 3534,1294 926,866 1390,1959 1390,3284 0,1408 -532,2547 -1595,3413 -1067,869 -2471,1302 -4222,1302 -1944,0 -3447,-608 -4507,-1823 -1059,-1219 -1591,-2942 -1591,-5175 0,-2373 592,-4249 1777,-5627 1181,-1378 2802,-2069 4856,-2069 1352,0 2460,289 3322,862 866,577 1299,1291 1299,2141 0,520 -175,945 -524,1280 -349,334 -797,501 -1348,501 -505,0 -915,-141 -1230,-418 -315,-277 -475,-638 -475,-1086 0,-327 91,-596 270,-816 178,-220 448,-387 805,-505z"/>
 </g>
</svg>
