<?xml version="1.0" encoding="UTF-8"?>
<!DOCTYPE svg PUBLIC "-//W3C//DTD SVG 1.0//EN" "http://www.w3.org/TR/2001/REC-SVG-20010904/DTD/svg10.dtd">
<!-- Creator: CorelDRAW -->
<svg xmlns="http://www.w3.org/2000/svg" xml:space="preserve" width="4.4111mm" height="5.2494mm" version="1.0" style="shape-rendering:geometricPrecision; text-rendering:geometricPrecision; image-rendering:optimizeQuality; fill-rule:evenodd; clip-rule:evenodd"
viewBox="0 0 15684 18665"
 xmlns:xlink="http://www.w3.org/1999/xlink"
 xmlns:xodm="http://www.corel.com/coreldraw/odm/2003">
 <defs>
  <style type="text/css">
   <![CDATA[
    .fil0 {fill:#00A0E3;fill-rule:nonzero}
   ]]>
  </style>
 </defs>
 <g id="Layer_x0020_1">
  <metadata id="CorelCorpID_0Corel-Layer"/>
  <path class="fil0" d="M4907 18665c0,-135 -5,-346 -15,-627 -10,-276 -15,-482 -15,-607 0,-1400 85,-2604 256,-3602 176,-999 452,-1887 833,-2659 617,-1305 2022,-3141 4209,-5514 813,-878 1425,-1560 1836,-2042 -462,216 -918,377 -1365,477 -452,105 -888,155 -1310,155 -602,0 -1380,-100 -2348,-301 -964,-201 -1631,-301 -1992,-301 -1039,0 -1786,361 -2243,1079 -457,723 -682,1926 -682,3622l0 176 -2072 0 0 -8369 2202 0 0 2138c567,-813 1169,-1395 1801,-1751 632,-356 1385,-537 2258,-537 833,0 1897,246 3196,737 1300,492 2163,738 2584,738 412,0 758,-106 1044,-311 281,-206 507,-522 672,-953l1926 0c-90,1305 -958,3156 -2614,5559 -773,1124 -1345,2002 -1721,2629 -813,1385 -1405,2780 -1781,4185 -377,1405 -567,2965 -567,4671 0,382 0,667 5,858 5,191 15,377 25,552l-4125 0z"/>
 </g>
</svg>
