<?xml version="1.0" encoding="UTF-8"?>
<!DOCTYPE svg PUBLIC "-//W3C//DTD SVG 1.0//EN" "http://www.w3.org/TR/2001/REC-SVG-20010904/DTD/svg10.dtd">
<!-- Creator: CorelDRAW -->
<svg xmlns="http://www.w3.org/2000/svg" xml:space="preserve" width="4.5636mm" height="5.4441mm" version="1.0" style="shape-rendering:geometricPrecision; text-rendering:geometricPrecision; image-rendering:optimizeQuality; fill-rule:evenodd; clip-rule:evenodd"
viewBox="0 0 24548 29285"
 xmlns:xlink="http://www.w3.org/1999/xlink"
 xmlns:xodm="http://www.corel.com/coreldraw/odm/2003">
 <defs>
  <style type="text/css">
   <![CDATA[
    .fil0 {fill:#00A0E3;fill-rule:nonzero}
   ]]>
  </style>
 </defs>
 <g id="Layer_x0020_1">
  <metadata id="CorelCorpID_0Corel-Layer"/>
  <path class="fil0" d="M15356 11705c1047,-501 1845,-1139 2376,-1905 539,-759 804,-1647 804,-2657 0,-1230 -538,-2201 -1616,-2922 -1070,-721 -2535,-1078 -4395,-1078 -1821,0 -3248,319 -4281,964 -1032,645 -1549,1526 -1549,2641 0,827 296,1549 888,2163 592,615 1457,1078 2581,1389l5192 1404zm-6187 4828c-1321,501 -2323,1161 -2998,1981 -683,812 -1025,1746 -1025,2793 0,1366 615,2436 1845,3211 1230,782 2938,1169 5132,1169 2269,0 3954,-304 5063,-911 1116,-607 1670,-1533 1670,-2778 0,-827 -273,-1519 -827,-2065 -554,-547 -1465,-1032 -2718,-1442l-6141 -1958zm-3385 -1359c-1571,-964 -2733,-2027 -3500,-3181 -767,-1154 -1146,-2429 -1146,-3826 0,-2406 1032,-4365 3089,-5890 2057,-1518 4752,-2278 8069,-2278 3332,0 6027,645 8076,1928 2058,1282 3082,2945 3082,4995 0,1321 -402,2467 -1200,3446 -797,980 -2034,1837 -3720,2581 2027,842 3537,1890 4524,3135 994,1245 1488,2718 1488,4425 0,2710 -1086,4850 -3257,6422 -2171,1571 -5154,2353 -8949,2353 -3750,0 -6748,-698 -8987,-2102 -2239,-1397 -3355,-3241 -3355,-5542 0,-1480 478,-2755 1435,-3833 956,-1070 2406,-1950 4350,-2634z"/>
 </g>
</svg>
