<?xml version="1.0" encoding="UTF-8"?>
<!DOCTYPE svg PUBLIC "-//W3C//DTD SVG 1.0//EN" "http://www.w3.org/TR/2001/REC-SVG-20010904/DTD/svg10.dtd">
<!-- Creator: CorelDRAW -->
<svg xmlns="http://www.w3.org/2000/svg" xml:space="preserve" width="4.445mm" height="5.4611mm" version="1.0" style="shape-rendering:geometricPrecision; text-rendering:geometricPrecision; image-rendering:optimizeQuality; fill-rule:evenodd; clip-rule:evenodd"
viewBox="0 0 44131 54219"
 xmlns:xlink="http://www.w3.org/1999/xlink"
 xmlns:xodm="http://www.corel.com/coreldraw/odm/2003">
 <defs>
  <style type="text/css">
   <![CDATA[
    .fil0 {fill:#00A0E3;fill-rule:nonzero}
   ]]>
  </style>
 </defs>
 <g id="Layer_x0020_1">
  <metadata id="CorelCorpID_0Corel-Layer"/>
  <path class="fil0" d="M12524 47158c1037,658 2074,1149 3111,1456 1050,323 2171,477 3362,477 4161,0 7244,-1597 9247,-4777 2004,-3194 3040,-8125 3096,-14794 -2101,1610 -4258,2802 -6444,3586 -2185,798 -4525,1191 -7004,1191 -5114,0 -9373,-1570 -12778,-4694 -3404,-3138 -5113,-7018 -5113,-11628 0,-5422 1961,-9764 5870,-13058 3909,-3278 9135,-4917 15635,-4917 7201,0 12778,2298 16714,6879 3937,4581 5912,11026 5912,19348 0,8700 -2185,15537 -6571,20524 -4385,4974 -10396,7468 -18073,7468 -4763,0 -8671,-1038 -11754,-3124 -3082,-2074 -4624,-4651 -4624,-7705 0,-1919 659,-3475 1976,-4679 1316,-1205 3012,-1808 5099,-1808 1808,0 3279,518 4414,1541 1135,1024 1709,2326 1709,3924 0,1149 -308,2115 -924,2914 -617,784 -1570,1415 -2858,1877zm18157 -30164c0,-3488 -784,-6150 -2354,-7999 -1569,-1850 -3824,-2774 -6738,-2774 -2900,0 -5128,883 -6669,2648 -1541,1765 -2311,4329 -2311,7678 0,3418 826,6038 2465,7831 1639,1793 4007,2690 7118,2690 2605,0 4665,-910 6192,-2717 1527,-1808 2297,-4259 2297,-7356z"/>
 </g>
</svg>
