<?xml version="1.0" encoding="UTF-8"?>
<!DOCTYPE svg PUBLIC "-//W3C//DTD SVG 1.0//EN" "http://www.w3.org/TR/2001/REC-SVG-20010904/DTD/svg10.dtd">
<!-- Creator: CorelDRAW -->
<svg xmlns="http://www.w3.org/2000/svg" xml:space="preserve" width="4.7667mm" height="5.4441mm" version="1.0" style="shape-rendering:geometricPrecision; text-rendering:geometricPrecision; image-rendering:optimizeQuality; fill-rule:evenodd; clip-rule:evenodd"
viewBox="0 0 456767 521679"
 xmlns:xlink="http://www.w3.org/1999/xlink"
 xmlns:xodm="http://www.corel.com/coreldraw/odm/2003">
 <defs>
  <style type="text/css">
   <![CDATA[
    .fil0 {fill:#00A0E3;fill-rule:nonzero}
   ]]>
  </style>
 </defs>
 <g id="Layer_x0020_1">
  <metadata id="CorelCorpID_0Corel-Layer"/>
  <path class="fil0" d="M125751 260978c0,68285 8250,118181 24608,149822 16367,31775 42192,47596 77618,47596 35426,0 61395,-15955 78020,-47730 16635,-31910 25020,-81671 25020,-149688 0,-67882 -8385,-117778 -25020,-149688 -16626,-32044 -42594,-48008 -78020,-48008 -35158,0 -60983,16099 -77484,48142 -16491,32187 -24742,81940 -24742,149553zm-125751 0c0,-77350 21225,-140220 63551,-188497 42326,-48276 97090,-72482 164425,-72482 67336,0 122243,24205 164838,72750 42594,48411 63953,111157 63953,188228 0,77484 -21359,140220 -63953,188362 -42594,48276 -97502,72338 -164838,72338 -67336,0 -122100,-24062 -164425,-72338 -42326,-48142 -63551,-110879 -63551,-188362z"/>
 </g>
</svg>
