<?xml version="1.0" encoding="UTF-8"?>
<!DOCTYPE svg PUBLIC "-//W3C//DTD SVG 1.0//EN" "http://www.w3.org/TR/2001/REC-SVG-20010904/DTD/svg10.dtd">
<!-- Creator: CorelDRAW -->
<svg xmlns="http://www.w3.org/2000/svg" xml:space="preserve" width="3.827mm" height="6.8242mm" version="1.0" style="shape-rendering:geometricPrecision; text-rendering:geometricPrecision; image-rendering:optimizeQuality; fill-rule:evenodd; clip-rule:evenodd"
viewBox="0 0 19427 34642"
 xmlns:xlink="http://www.w3.org/1999/xlink"
 xmlns:xodm="http://www.corel.com/coreldraw/odm/2003">
 <defs>
  <style type="text/css">
   <![CDATA[
    .fil0 {fill:#00A0E3;fill-rule:nonzero}
   ]]>
  </style>
 </defs>
 <g id="Layer_x0020_1">
  <metadata id="CorelCorpID_0Corel-Layer"/>
  <path class="fil0" d="M18653 28839l0 5802 -18653 0 15 -4856c5530,-9033 8818,-14620 9864,-16770 1046,-2149 1569,-3825 1569,-5021 0,-924 -165,-1612 -480,-2070 -315,-451 -795,-680 -1440,-680 -645,0 -1132,251 -1447,752 -315,502 -473,1498 -473,2987l0 3223 -7607 0 0 -1239c0,-1899 101,-3403 294,-4499 193,-1096 680,-2178 1447,-3238 774,-1060 1777,-1870 3009,-2414 1232,-544 2708,-817 4427,-817 3374,0 5924,838 7658,2507 1726,1676 2593,3789 2593,6347 0,1948 -487,4004 -1461,6175 -974,2170 -3847,6769 -8610,13811l9298 0z"/>
 </g>
</svg>
