<?xml version="1.0" encoding="UTF-8"?>
<!DOCTYPE svg PUBLIC "-//W3C//DTD SVG 1.0//EN" "http://www.w3.org/TR/2001/REC-SVG-20010904/DTD/svg10.dtd">
<!-- Creator: CorelDRAW -->
<svg xmlns="http://www.w3.org/2000/svg" xml:space="preserve" width="3.937mm" height="6.9597mm" version="1.0" style="shape-rendering:geometricPrecision; text-rendering:geometricPrecision; image-rendering:optimizeQuality; fill-rule:evenodd; clip-rule:evenodd"
viewBox="0 0 13433 23746"
 xmlns:xlink="http://www.w3.org/1999/xlink"
 xmlns:xodm="http://www.corel.com/coreldraw/odm/2003">
 <defs>
  <style type="text/css">
   <![CDATA[
    .fil0 {fill:#00A0E3;fill-rule:nonzero}
   ]]>
  </style>
 </defs>
 <g id="Layer_x0020_1">
  <metadata id="CorelCorpID_0Corel-Layer"/>
  <path class="fil0" d="M10876 10357c862,293 1502,770 1926,1430 419,664 631,2219 631,4665 0,1815 -207,3226 -621,4227 -414,1001 -1127,1762 -2142,2282 -1016,525 -2316,785 -3905,785 -1801,0 -3221,-303 -4247,-910 -1030,-607 -1709,-1353 -2031,-2234 -323,-876 -487,-2407 -487,-4584l0 -1805 5691 0 0 3717c0,992 58,1623 178,1887 116,270 380,404 785,404 443,0 737,-169 876,-510 140,-337 212,-1223 212,-2653l0 -1584c0,-877 -96,-1517 -294,-1921 -197,-404 -491,-669 -876,-794 -385,-130 -1131,-202 -2239,-221l0 -3322c1353,0 2186,-53 2508,-154 318,-106 549,-328 689,-679 140,-347 212,-891 212,-1632l0 -1266c0,-799 -82,-1324 -246,-1579 -168,-255 -423,-380 -770,-380 -400,0 -669,135 -814,400 -149,270 -221,838 -221,1714l0 1873 -5691 0 0 -1945c0,-2181 501,-3649 1497,-4415 997,-766 2581,-1151 4752,-1151 2715,0 4559,530 5527,1594 968,1064 1454,2542 1454,4429 0,1281 -173,2205 -520,2773 -351,568 -963,1088 -1835,1560z"/>
 </g>
</svg>
