<?xml version="1.0" encoding="UTF-8"?>
<!DOCTYPE svg PUBLIC "-//W3C//DTD SVG 1.0//EN" "http://www.w3.org/TR/2001/REC-SVG-20010904/DTD/svg10.dtd">
<!-- Creator: CorelDRAW -->
<svg xmlns="http://www.w3.org/2000/svg" xml:space="preserve" width="4.0048mm" height="6.8242mm" version="1.0" style="shape-rendering:geometricPrecision; text-rendering:geometricPrecision; image-rendering:optimizeQuality; fill-rule:evenodd; clip-rule:evenodd"
viewBox="0 0 8223 14012"
 xmlns:xlink="http://www.w3.org/1999/xlink"
 xmlns:xodm="http://www.corel.com/coreldraw/odm/2003">
 <defs>
  <style type="text/css">
   <![CDATA[
    .fil0 {fill:#00A0E3;fill-rule:nonzero}
   ]]>
  </style>
 </defs>
 <g id="Layer_x0020_1">
  <metadata id="CorelCorpID_0Corel-Layer"/>
  <path class="fil0" d="M7545 0l0 2190 -4259 0 0 2350c533,-629 1220,-942 2060,-942 948,0 1663,264 2150,794 484,527 727,1544 727,3051l0 1962c0,971 -46,1686 -139,2141 -95,455 -295,878 -600,1266 -307,385 -733,684 -1281,889 -548,206 -1214,310 -2002,310 -884,0 -1663,-154 -2338,-464 -675,-307 -1153,-768 -1437,-1379 -284,-611 -426,-1556 -426,-2834l0 -748 3425 0 0 855c0,887 32,1515 95,1889 64,374 281,559 655,559 174,0 313,-55 420,-162 107,-107 165,-220 174,-345 9,-125 17,-663 29,-1617l0 -2718c0,-516 -55,-863 -165,-1052 -107,-186 -290,-278 -542,-278 -162,0 -298,49 -408,145 -107,96 -180,197 -211,307 -32,110 -46,365 -46,765l-3390 0 139 -6937 7371 0z"/>
 </g>
</svg>
