<?xml version="1.0" encoding="UTF-8"?>
<!DOCTYPE svg PUBLIC "-//W3C//DTD SVG 1.0//EN" "http://www.w3.org/TR/2001/REC-SVG-20010904/DTD/svg10.dtd">
<!-- Creator: CorelDRAW -->
<svg xmlns="http://www.w3.org/2000/svg" xml:space="preserve" width="4.0133mm" height="6.9512mm" version="1.0" style="shape-rendering:geometricPrecision; text-rendering:geometricPrecision; image-rendering:optimizeQuality; fill-rule:evenodd; clip-rule:evenodd"
viewBox="0 0 6851 11866"
 xmlns:xlink="http://www.w3.org/1999/xlink"
 xmlns:xodm="http://www.corel.com/coreldraw/odm/2003">
 <defs>
  <style type="text/css">
   <![CDATA[
    .fil0 {fill:#00A0E3;fill-rule:nonzero}
   ]]>
  </style>
 </defs>
 <g id="Layer_x0020_1">
  <metadata id="CorelCorpID_0Corel-Layer"/>
  <path class="fil0" d="M6851 3267l-2847 0c0,-535 -5,-872 -17,-1009 -12,-140 -70,-258 -173,-352 -101,-94 -241,-142 -417,-142 -147,0 -267,46 -364,135 -94,89 -149,202 -164,344 -15,142 -22,426 -22,853l0 1819c147,-304 361,-532 643,-684 284,-152 634,-227 1048,-227 523,0 985,142 1385,424 402,282 655,619 764,1014 108,395 164,930 164,1602l0 908c0,800 -31,1395 -92,1785 -63,390 -224,751 -491,1082 -265,332 -631,590 -1094,773 -465,183 -1004,275 -1621,275 -768,0 -1397,-106 -1886,-318 -489,-212 -867,-515 -1135,-913 -265,-397 -422,-814 -465,-1253 -46,-436 -67,-1286 -67,-2546l0 -1580c0,-1359 19,-2269 60,-2727 41,-458 202,-894 491,-1301 287,-410 679,-718 1176,-923 496,-205 1070,-306 1720,-306 800,0 1458,130 1971,388 513,260 879,626 1101,1096 222,472 333,1067 333,1783zm-2847 3556c0,-402 -46,-679 -135,-829 -92,-152 -238,-226 -443,-226 -200,0 -347,72 -438,214 -94,145 -140,424 -140,841l0 2062c0,504 43,831 132,988 87,154 234,231 438,231 123,0 253,-60 385,-181 132,-118 200,-441 200,-966l0 -2134z"/>
 </g>
</svg>
