<?xml version="1.0" encoding="UTF-8"?>
<!DOCTYPE svg PUBLIC "-//W3C//DTD SVG 1.0//EN" "http://www.w3.org/TR/2001/REC-SVG-20010904/DTD/svg10.dtd">
<!-- Creator: CorelDRAW -->
<svg xmlns="http://www.w3.org/2000/svg" xml:space="preserve" width="3.9794mm" height="6.9512mm" version="1.0" style="shape-rendering:geometricPrecision; text-rendering:geometricPrecision; image-rendering:optimizeQuality; fill-rule:evenodd; clip-rule:evenodd"
viewBox="0 0 5027 8780"
 xmlns:xlink="http://www.w3.org/1999/xlink"
 xmlns:xodm="http://www.corel.com/coreldraw/odm/2003">
 <defs>
  <style type="text/css">
   <![CDATA[
    .fil0 {fill:#00A0E3;fill-rule:nonzero}
   ]]>
  </style>
 </defs>
 <g id="Layer_x0020_1">
  <metadata id="CorelCorpID_0Corel-Layer"/>
  <path class="fil0" d="M4060 3823c310,125 549,312 715,561 168,249 251,841 251,1779 0,683 -66,1185 -198,1510 -134,323 -390,588 -774,797 -383,207 -897,310 -1542,310 -627,0 -1123,-100 -1488,-298 -367,-198 -629,-462 -788,-790 -159,-326 -237,-872 -237,-1634 0,-512 39,-955 118,-1331 78,-376 324,-677 738,-904 -260,-125 -455,-324 -585,-599 -130,-273 -196,-620 -196,-1041 0,-727 201,-1274 606,-1638 403,-364 1007,-545 1811,-545 930,0 1572,193 1927,579 355,387 533,939 533,1656 0,456 -59,786 -175,987 -116,201 -355,403 -716,601zm-1184 -1813c0,-287 -25,-476 -77,-567 -50,-93 -148,-139 -292,-139 -141,0 -235,50 -285,150 -48,98 -73,283 -73,556l0 642c0,255 29,430 84,528 57,98 151,146 285,146 141,0 235,-48 285,-144 48,-94 73,-292 73,-592l0 -579zm43 3510c0,-324 -34,-538 -100,-645 -68,-105 -173,-159 -317,-159 -141,0 -242,52 -303,153 -62,103 -93,319 -93,651l0 1094c0,365 34,601 103,704 68,105 176,157 324,157 152,0 253,-54 307,-159 52,-107 78,-346 78,-718l0 -1078z"/>
 </g>
</svg>
