<?xml version="1.0" encoding="UTF-8"?>
<!DOCTYPE svg PUBLIC "-//W3C//DTD SVG 1.0//EN" "http://www.w3.org/TR/2001/REC-SVG-20010904/DTD/svg10.dtd">
<!-- Creator: CorelDRAW -->
<svg xmlns="http://www.w3.org/2000/svg" xml:space="preserve" width="4.0133mm" height="6.9597mm" version="1.0" style="shape-rendering:geometricPrecision; text-rendering:geometricPrecision; image-rendering:optimizeQuality; fill-rule:evenodd; clip-rule:evenodd"
viewBox="0 0 4536 7866"
 xmlns:xlink="http://www.w3.org/1999/xlink"
 xmlns:xodm="http://www.corel.com/coreldraw/odm/2003">
 <defs>
  <style type="text/css">
   <![CDATA[
    .fil0 {fill:#00A0E3;fill-rule:nonzero}
   ]]>
  </style>
 </defs>
 <g id="Layer_x0020_1">
  <metadata id="CorelCorpID_0Corel-Layer"/>
  <path class="fil0" d="M0 5703l1885 0c0,354 5,577 14,668 9,92 48,171 116,233 67,62 159,94 276,94 97,0 177,-30 241,-89 62,-59 99,-134 107,-228 8,-94 11,-282 11,-565l0 -1204c-94,201 -234,351 -421,451 -188,100 -421,152 -699,152 -346,0 -652,-94 -917,-281 -266,-187 -434,-411 -506,-673 -72,-262 -109,-616 -109,-1062l0 -603c0,-531 21,-925 64,-1183 41,-260 150,-499 324,-718 176,-220 416,-391 726,-514 308,-121 667,-182 1075,-182 506,0 920,70 1244,211 324,140 576,341 753,606 179,263 281,539 309,829 27,290 41,852 41,1684l0 1053c0,900 -13,1502 -37,1807 -26,303 -134,592 -325,863 -191,271 -451,474 -778,609 -329,136 -706,204 -1137,204 -533,0 -968,-86 -1306,-257 -338,-172 -582,-415 -730,-726 -148,-313 -222,-706 -222,-1180zm1885 -2357c0,319 41,515 126,590 83,75 169,112 257,112 132,0 230,-48 290,-142 62,-96 92,-282 92,-560l0 -1370c0,-333 -29,-552 -88,-654 -57,-104 -155,-155 -290,-155 -81,0 -167,40 -255,120 -88,80 -132,294 -132,643l0 1416z"/>
 </g>
</svg>
