<?xml version="1.0" encoding="UTF-8"?>
<!DOCTYPE svg PUBLIC "-//W3C//DTD SVG 1.0//EN" "http://www.w3.org/TR/2001/REC-SVG-20010904/DTD/svg10.dtd">
<!-- Creator: CorelDRAW -->
<svg xmlns="http://www.w3.org/2000/svg" xml:space="preserve" width="3.9371mm" height="6.9512mm" version="1.0" style="shape-rendering:geometricPrecision; text-rendering:geometricPrecision; image-rendering:optimizeQuality; fill-rule:evenodd; clip-rule:evenodd"
viewBox="0 0 3923 6927"
 xmlns:xlink="http://www.w3.org/1999/xlink"
 xmlns:xodm="http://www.corel.com/coreldraw/odm/2003">
 <defs>
  <style type="text/css">
   <![CDATA[
    .fil0 {fill:#00A0E3;fill-rule:nonzero}
   ]]>
  </style>
 </defs>
 <g id="Layer_x0020_1">
  <metadata id="CorelCorpID_0Corel-Layer"/>
  <path class="fil0" d="M3923 2386l0 2225c0,506 -28,873 -83,1104 -55,232 -169,447 -342,648 -173,200 -381,345 -626,432 -243,89 -516,132 -818,132 -398,0 -728,-46 -993,-138 -263,-93 -472,-236 -630,-430 -156,-195 -267,-401 -333,-616 -66,-217 -98,-560 -98,-1029l0 -2327c0,-613 54,-1072 159,-1377 105,-305 315,-550 630,-734 313,-184 695,-276 1142,-276 366,0 692,63 980,191 288,128 503,284 645,468 143,184 240,391 291,622 51,231 76,599 76,1105zm-1662 -558c0,-354 -17,-575 -52,-665 -34,-89 -114,-134 -242,-134 -124,0 -205,48 -245,142 -41,94 -60,314 -60,657l0 3251c0,387 18,620 56,699 37,80 117,120 242,120 124,0 204,-46 243,-141 38,-93 58,-302 58,-629l0 -3300z"/>
 </g>
</svg>
