<?xml version="1.0" encoding="UTF-8"?>
<!DOCTYPE svg PUBLIC "-//W3C//DTD SVG 1.0//EN" "http://www.w3.org/TR/2001/REC-SVG-20010904/DTD/svg10.dtd">
<!-- Creator: CorelDRAW -->
<svg xmlns="http://www.w3.org/2000/svg" xml:space="preserve" width="8.75mm" height="8.75mm" version="1.0" style="shape-rendering:geometricPrecision; text-rendering:geometricPrecision; image-rendering:optimizeQuality; fill-rule:evenodd; clip-rule:evenodd"
viewBox="0 0 20767 20767"
 xmlns:xlink="http://www.w3.org/1999/xlink"
 xmlns:xodm="http://www.corel.com/coreldraw/odm/2003">
 <defs>
  <style type="text/css">
   <![CDATA[
    .fil0 {fill:#00A0E3;fill-rule:nonzero}
   ]]>
  </style>
 </defs>
 <g id="Layer_x0020_1">
  <metadata id="CorelCorpID_0Corel-Layer"/>
  <path class="fil0" d="M6605 16562l0 -1447 901 0c687,0 1122,-74 1299,-221 181,-147 271,-469 271,-965l0 -6430 -2472 0 0 -1427c968,-40 1721,-204 2257,-496 536,-288 948,-747 1236,-1373l1631 0 0 9766c0,496 74,810 225,944 151,134 543,201 1179,201l1028 0 0 1447 -7556 0zm3778 -16562c2867,0 5463,1162 7342,3041 1879,1879 3041,4475 3041,7342 0,2867 -1162,5463 -3041,7342 -1879,1879 -4475,3041 -7342,3041 -2867,0 -5463,-1162 -7342,-3041 -1879,-1879 -3041,-4475 -3041,-7342 0,-2867 1162,-5463 3041,-7342 1879,-1879 4475,-3041 7342,-3041zm6084 4300c-1557,-1557 -3708,-2520 -6084,-2520 -2376,0 -4527,963 -6084,2520 -1557,1556 -2520,3708 -2520,6084 0,2376 963,4527 2520,6084 1556,1557 3708,2520 6084,2520 2376,0 4527,-963 6084,-2520 1557,-1557 2520,-3708 2520,-6084 0,-2376 -963,-4527 -2520,-6084z"/>
 </g>
</svg>
