<?xml version="1.0" encoding="UTF-8"?>
<!DOCTYPE svg PUBLIC "-//W3C//DTD SVG 1.0//EN" "http://www.w3.org/TR/2001/REC-SVG-20010904/DTD/svg10.dtd">
<!-- Creator: CorelDRAW -->
<svg xmlns="http://www.w3.org/2000/svg" xml:space="preserve" width="8.75mm" height="8.75mm" version="1.0" style="shape-rendering:geometricPrecision; text-rendering:geometricPrecision; image-rendering:optimizeQuality; fill-rule:evenodd; clip-rule:evenodd"
viewBox="0 0 23294 23294"
 xmlns:xlink="http://www.w3.org/1999/xlink"
 xmlns:xodm="http://www.corel.com/coreldraw/odm/2003">
 <defs>
  <style type="text/css">
   <![CDATA[
    .fil0 {fill:#00A0E3;fill-rule:nonzero}
   ]]>
  </style>
 </defs>
 <g id="Layer_x0020_1">
  <metadata id="CorelCorpID_0Corel-Layer"/>
  <path class="fil0" d="M5843 18597c-7,-75 -15,-150 -19,-233 -4,-79 -4,-203 -4,-372 0,-1183 256,-2194 770,-3039 515,-845 1326,-1582 2434,-2213 462,-274 1056,-578 1781,-920 725,-338 1198,-567 1420,-687 462,-248 823,-597 1089,-1048 263,-451 395,-954 395,-1510 0,-755 -289,-1379 -868,-1863 -582,-489 -1322,-733 -2224,-733 -661,0 -1232,146 -1717,443 -485,297 -860,729 -1123,1292 117,-34 240,-64 364,-83 124,-19 259,-26 406,-26 473,0 849,135 1131,402 282,267 424,627 424,1082 0,526 -165,958 -500,1285 -334,331 -770,496 -1307,496 -624,0 -1142,-222 -1548,-665 -409,-443 -612,-1011 -612,-1702 0,-1127 507,-2096 1525,-2896 1018,-804 2265,-1206 3749,-1206 1732,0 3114,406 4151,1221 1033,815 1552,1893 1552,3238 0,1127 -319,2010 -958,2645 -639,635 -1781,1161 -3422,1581l-68 11c-2648,657 -4286,1630 -4910,2915 300,-195 612,-346 931,-443 319,-98 661,-146 1029,-146 601,0 1420,120 2453,360 1037,240 1751,361 2149,361 616,0 1067,-192 1352,-578 285,-387 458,-1041 518,-1968l1285 0 0 308c0,1582 -308,2806 -920,3678 -612,875 -1473,1311 -2581,1311 -402,0 -864,-75 -1379,-221 -519,-147 -1093,-364 -1724,-658 -132,-68 -323,-165 -571,-297 -823,-432 -1450,-650 -1882,-650 -383,0 -672,124 -875,368 -203,244 -331,631 -391,1161l-1307 0zm5804 -18597c3215,0 6128,1304 8235,3412 2108,2107 3412,5020 3412,8235 0,3215 -1304,6128 -3412,8235 -2108,2108 -5020,3412 -8235,3412 -3216,0 -6128,-1304 -8235,-3412 -2108,-2108 -3412,-5020 -3412,-8235 0,-3216 1304,-6128 3412,-8235 2107,-2108 5020,-3412 8235,-3412zm6824 4823c-1746,-1746 -4159,-2826 -6824,-2826 -2665,0 -5078,1080 -6824,2826 -1746,1746 -2826,4159 -2826,6824 0,2665 1080,5078 2826,6824 1746,1746 4159,2826 6824,2826 2665,0 5078,-1080 6824,-2826 1746,-1746 2826,-4159 2826,-6824 0,-2665 -1080,-5078 -2826,-6824z"/>
 </g>
</svg>
