<?xml version="1.0" encoding="UTF-8"?>
<!DOCTYPE svg PUBLIC "-//W3C//DTD SVG 1.0//EN" "http://www.w3.org/TR/2001/REC-SVG-20010904/DTD/svg10.dtd">
<!-- Creator: CorelDRAW -->
<svg xmlns="http://www.w3.org/2000/svg" xml:space="preserve" width="8.75mm" height="8.75mm" version="1.0" style="shape-rendering:geometricPrecision; text-rendering:geometricPrecision; image-rendering:optimizeQuality; fill-rule:evenodd; clip-rule:evenodd"
viewBox="0 0 26522 26522"
 xmlns:xlink="http://www.w3.org/1999/xlink"
 xmlns:xodm="http://www.corel.com/coreldraw/odm/2003">
 <defs>
  <style type="text/css">
   <![CDATA[
    .fil0 {fill:#00A0E3;fill-rule:nonzero}
   ]]>
  </style>
 </defs>
 <g id="Layer_x0020_1">
  <metadata id="CorelCorpID_0Corel-Layer"/>
  <path class="fil0" d="M8859 18500c441,419 945,731 1510,932 560,206 1198,308 1907,308 1142,0 2049,-274 2716,-825 667,-552 1001,-1292 1001,-2228 0,-1009 -312,-1762 -932,-2258 -620,-496 -1566,-744 -2836,-744l-488 0 0 -1873 248 0c1296,0 2250,-205 2861,-612 612,-410 915,-1044 915,-1903 0,-796 -282,-1433 -851,-1916 -569,-483 -1330,-727 -2280,-727 -552,0 -1061,77 -1531,231 -466,154 -915,398 -1339,723 492,51 873,222 1151,522 274,295 410,684 410,1172 0,526 -188,962 -564,1305 -376,342 -864,513 -1463,513 -612,0 -1112,-197 -1510,-590 -398,-393 -594,-898 -594,-1519 0,-1121 586,-2066 1754,-2840 1172,-774 2656,-1159 4461,-1159 1822,0 3285,368 4393,1104 1108,736 1660,1690 1660,2870 0,984 -316,1779 -945,2378 -633,603 -1599,1031 -2900,1292 1394,244 2455,710 3187,1403 731,693 1095,1578 1095,2656 0,1454 -637,2618 -1916,3490 -1279,873 -2998,1309 -5162,1309 -1813,0 -3298,-410 -4453,-1232 -1159,-825 -1736,-1856 -1736,-3101 0,-744 218,-1347 659,-1805 436,-458 1010,-689 1711,-689 594,0 1074,180 1441,539 368,359 552,830 552,1412 0,560 -180,1009 -535,1352 -355,342 -821,513 -1407,513l-188 0zm4401 -18500c3661,0 6977,1485 9377,3884 2400,2399 3884,5715 3884,9377 0,3661 -1485,6977 -3884,9377 -2400,2400 -5716,3884 -9377,3884 -3661,0 -6977,-1484 -9377,-3884 -2400,-2400 -3884,-5716 -3884,-9377 0,-3661 1484,-6977 3884,-9377 2399,-2400 5715,-3884 9377,-3884zm7770 5491c-1988,-1988 -4735,-3218 -7770,-3218 -3034,0 -5782,1230 -7770,3218 -1988,1988 -3218,4735 -3218,7770 0,3034 1230,5781 3218,7770 1988,1988 4735,3218 7770,3218 3034,0 5781,-1230 7770,-3218 1988,-1988 3218,-4735 3218,-7770 0,-3034 -1230,-5782 -3218,-7770z"/>
 </g>
</svg>
