<?xml version="1.0" encoding="UTF-8"?>
<!DOCTYPE svg PUBLIC "-//W3C//DTD SVG 1.0//EN" "http://www.w3.org/TR/2001/REC-SVG-20010904/DTD/svg10.dtd">
<!-- Creator: CorelDRAW -->
<svg xmlns="http://www.w3.org/2000/svg" xml:space="preserve" width="8.75mm" height="8.75mm" version="1.0" style="shape-rendering:geometricPrecision; text-rendering:geometricPrecision; image-rendering:optimizeQuality; fill-rule:evenodd; clip-rule:evenodd"
viewBox="0 0 30788 30788"
 xmlns:xlink="http://www.w3.org/1999/xlink"
 xmlns:xodm="http://www.corel.com/coreldraw/odm/2003">
 <defs>
  <style type="text/css">
   <![CDATA[
    .fil0 {fill:#00A0E3;fill-rule:nonzero}
   ]]>
  </style>
 </defs>
 <g id="Layer_x0020_1">
  <metadata id="CorelCorpID_0Corel-Layer"/>
  <path class="fil0" d="M14902 16958l89 -6524 -5899 6524 5809 0zm492 -16958c4250,0 8099,1723 10885,4509 2786,2785 4509,6635 4509,10885 0,4250 -1723,8099 -4509,10885 -2786,2786 -6635,4509 -10885,4509 -4250,0 -8099,-1723 -10885,-4509 -2786,-2786 -4509,-6635 -4509,-10885 0,-4250 1723,-8099 4509,-10885 2785,-2786 6635,-4509 10885,-4509zm9019 6375c-2308,-2308 -5497,-3736 -9019,-3736 -3522,0 -6712,1428 -9019,3736 -2308,2308 -3736,5497 -3736,9019 0,3522 1428,6711 3736,9019 2308,2308 5497,3736 9019,3736 3522,0 6711,-1428 9019,-3736 2308,-2308 3736,-5497 3736,-9019 0,-3522 -1428,-6712 -3736,-9019zm-12818 18180l0 -2145 1077 0c993,0 1609,-94 1857,-278 248,-184 373,-626 373,-1336l0 -1276 -9057 0 0 -2269 9930 -11017 2880 0 0 10725 3486 0 0 2562 -3486 0 0 1276c0,631 129,1058 392,1281 263,223 735,333 1425,333l1668 0 0 2145 -10546 0z"/>
 </g>
</svg>
