<?xml version="1.0" encoding="UTF-8"?>
<!DOCTYPE svg PUBLIC "-//W3C//DTD SVG 1.0//EN" "http://www.w3.org/TR/2001/REC-SVG-20010904/DTD/svg10.dtd">
<!-- Creator: CorelDRAW -->
<svg xmlns="http://www.w3.org/2000/svg" xml:space="preserve" width="8.75mm" height="8.75mm" version="1.0" style="shape-rendering:geometricPrecision; text-rendering:geometricPrecision; image-rendering:optimizeQuality; fill-rule:evenodd; clip-rule:evenodd"
viewBox="0 0 36689 36689"
 xmlns:xlink="http://www.w3.org/1999/xlink"
 xmlns:xodm="http://www.corel.com/coreldraw/odm/2003">
 <defs>
  <style type="text/css">
   <![CDATA[
    .fil0 {fill:#00A0E3;fill-rule:nonzero}
   ]]>
  </style>
 </defs>
 <g id="Layer_x0020_1">
  <metadata id="CorelCorpID_0Corel-Layer"/>
  <path class="fil0" d="M12380 25770c639,503 1331,882 2083,1130 751,249 1562,373 2426,373 1692,0 3006,-473 3947,-1420 941,-947 1414,-2278 1414,-3988 0,-1757 -456,-3124 -1361,-4100 -911,-977 -2172,-1462 -3793,-1462 -888,0 -1698,184 -2432,556 -740,367 -1426,941 -2077,1716l-2408 -107 1095 -11502c1165,379 2361,663 3580,852 1219,189 2503,284 3846,284 1385,0 2722,-95 4000,-278 1278,-184 2503,-456 3669,-823 -473,1722 -1444,3000 -2917,3828 -1467,834 -3467,1249 -6005,1249 -462,0 -994,-24 -1604,-77 -609,-53 -1372,-142 -2302,-272l-272 3261c923,-426 1840,-746 2746,-959 911,-213 1811,-320 2716,-320 2544,0 4633,727 6278,2177 1639,1450 2461,3278 2461,5497 0,2580 -829,4609 -2485,6100 -1657,1491 -3935,2237 -6822,2237 -2657,0 -4810,-556 -6461,-1668 -1651,-1118 -2479,-2544 -2479,-4290 0,-911 308,-1668 917,-2284 610,-609 1373,-917 2284,-917 864,0 1574,237 2118,710 550,473 822,1089 822,1852 0,817 -266,1462 -805,1935 -538,473 -1266,710 -2177,710zm5965 -25770c5064,0 9652,2054 12971,5373 3320,3319 5373,7906 5373,12971 0,5064 -2054,9652 -5373,12971 -3320,3320 -7907,5373 -12971,5373 -5065,0 -9652,-2053 -12971,-5373 -3320,-3320 -5373,-7907 -5373,-12971 0,-5065 2053,-9652 5373,-12971 3319,-3320 7906,-5373 12971,-5373zm10748 7597c-2750,-2750 -6551,-4452 -10748,-4452 -4198,0 -7998,1702 -10748,4452 -2750,2750 -4452,6550 -4452,10748 0,4197 1702,7998 4452,10748 2750,2750 6550,4452 10748,4452 4197,0 7998,-1702 10748,-4452 2750,-2750 4452,-6551 4452,-10748 0,-4198 -1702,-7998 -4452,-10748z"/>
 </g>
</svg>
