<?xml version="1.0" encoding="UTF-8"?>
<!DOCTYPE svg PUBLIC "-//W3C//DTD SVG 1.0//EN" "http://www.w3.org/TR/2001/REC-SVG-20010904/DTD/svg10.dtd">
<!-- Creator: CorelDRAW -->
<svg xmlns="http://www.w3.org/2000/svg" xml:space="preserve" width="8.75mm" height="8.75mm" version="1.0" style="shape-rendering:geometricPrecision; text-rendering:geometricPrecision; image-rendering:optimizeQuality; fill-rule:evenodd; clip-rule:evenodd"
viewBox="0 0 45390 45390"
 xmlns:xlink="http://www.w3.org/1999/xlink"
 xmlns:xodm="http://www.corel.com/coreldraw/odm/2003">
 <defs>
  <style type="text/css">
   <![CDATA[
    .fil0 {fill:#00A0E3;fill-rule:nonzero}
   ]]>
  </style>
 </defs>
 <g id="Layer_x0020_1">
  <metadata id="CorelCorpID_0Corel-Layer"/>
  <path class="fil0" d="M18105 28163c0,1756 417,3104 1244,4040 827,937 2013,1405 3542,1405 1457,0 2599,-461 3418,-1391 827,-930 1237,-2218 1237,-3865 0,-1859 -403,-3257 -1215,-4209 -806,-952 -2013,-1428 -3616,-1428 -1457,0 -2592,476 -3397,1428 -812,951 -1215,2291 -1215,4019zm4590 -28163c6265,0 11940,2541 16047,6648 4107,4106 6648,9781 6648,16047 0,6265 -2541,11940 -6648,16047 -4107,4107 -9782,6648 -16047,6648 -6266,0 -11941,-2540 -16047,-6648 -4107,-4107 -6648,-9782 -6648,-16047 0,-6266 2540,-11941 6648,-16047 4106,-4107 9781,-6648 16047,-6648zm13297 9398c-3402,-3402 -8104,-5507 -13297,-5507 -5193,0 -9895,2105 -13297,5507 -3402,3402 -5507,8104 -5507,13297 0,5193 2105,9894 5507,13297 3402,3402 8104,5507 13297,5507 5193,0 9894,-2105 13297,-5507 3402,-3402 5507,-8104 5507,-13297 0,-5193 -2105,-9895 -5507,-13297zm-7910 2910c-556,-373 -1113,-652 -1669,-827 -564,-183 -1120,-271 -1677,-271 -2218,0 -3872,798 -4956,2401 -1090,1603 -1706,4158 -1845,7649 1069,-776 2160,-1354 3265,-1742 1105,-388 2269,-578 3484,-578 2760,0 5029,834 6815,2496 1786,1669 2679,3777 2679,6332 0,2716 -1025,4911 -3075,6581 -2057,1676 -4765,2511 -8140,2511 -3748,0 -6647,-1171 -8689,-3514 -2042,-2349 -3067,-5673 -3067,-9977 0,-4575 1142,-8191 3426,-10848 2277,-2657 5402,-3990 9362,-3990 2606,0 4743,557 6405,1662 1669,1113 2504,2488 2504,4128 0,1003 -337,1823 -1011,2467 -673,644 -1537,966 -2598,966 -974,0 -1764,-271 -2372,-806 -608,-534 -915,-1229 -915,-2093 0,-630 175,-1150 520,-1574 344,-425 864,-747 1552,-974z"/>
 </g>
</svg>
