<?xml version="1.0" encoding="UTF-8"?>
<!DOCTYPE svg PUBLIC "-//W3C//DTD SVG 1.0//EN" "http://www.w3.org/TR/2001/REC-SVG-20010904/DTD/svg10.dtd">
<!-- Creator: CorelDRAW -->
<svg xmlns="http://www.w3.org/2000/svg" xml:space="preserve" width="8.75mm" height="8.75mm" version="1.0" style="shape-rendering:geometricPrecision; text-rendering:geometricPrecision; image-rendering:optimizeQuality; fill-rule:evenodd; clip-rule:evenodd"
viewBox="0 0 59499 59499"
 xmlns:xlink="http://www.w3.org/1999/xlink"
 xmlns:xodm="http://www.corel.com/coreldraw/odm/2003">
 <defs>
  <style type="text/css">
   <![CDATA[
    .fil0 {fill:#00A0E3;fill-rule:nonzero}
   ]]>
  </style>
 </defs>
 <g id="Layer_x0020_1">
  <metadata id="CorelCorpID_0Corel-Layer"/>
  <path class="fil0" d="M24104 49630c0,-259 -10,-662 -29,-1200 -19,-528 -29,-921 -29,-1161 0,-2677 163,-4980 489,-6889 336,-1910 864,-3608 1593,-5086 1180,-2495 3867,-6007 8050,-10546 1554,-1679 2725,-2984 3512,-3905 -883,413 -1756,720 -2610,912 -864,201 -1699,297 -2504,297 -1152,0 -2639,-192 -4491,-575 -1843,-384 -3119,-576 -3810,-576 -1986,0 -3416,691 -4289,2063 -873,1382 -1305,3684 -1305,6928l0 336 -3963 0 0 -16006 4212 0 0 4088c1085,-1554 2236,-2668 3445,-3349 1209,-681 2649,-1027 4318,-1027 1593,0 3627,471 6112,1410 2485,940 4136,1411 4941,1411 787,0 1449,-202 1996,-595 537,-394 969,-998 1286,-1823l3684 0c-173,2495 -1833,6036 -4999,10632 -1478,2149 -2572,3828 -3291,5028 -1554,2649 -2687,5316 -3406,8003 -720,2687 -1085,5671 -1085,8933 0,730 0,1276 10,1641 10,365 29,720 48,1056l-7888 0zm5645 -49630c8213,0 15652,3331 21036,8714 5384,5383 8714,12822 8714,21036 0,8213 -3331,15652 -8714,21036 -5383,5383 -12823,8714 -21036,8714 -8214,0 -15653,-3330 -21036,-8714 -5383,-5383 -8714,-12823 -8714,-21036 0,-8214 3330,-15653 8714,-21036 5383,-5384 12822,-8714 21036,-8714zm17430 12319c-4460,-4460 -10623,-7219 -17430,-7219 -6807,0 -12971,2759 -17430,7219 -4460,4459 -7219,10623 -7219,17430 0,6807 2759,12970 7219,17430 4459,4460 10623,7219 17430,7219 6807,0 12970,-2759 17430,-7219 4460,-4460 7219,-10623 7219,-17430 0,-6807 -2759,-12971 -7219,-17430z"/>
 </g>
</svg>
