<?xml version="1.0" encoding="UTF-8"?>
<!DOCTYPE svg PUBLIC "-//W3C//DTD SVG 1.0//EN" "http://www.w3.org/TR/2001/REC-SVG-20010904/DTD/svg10.dtd">
<!-- Creator: CorelDRAW -->
<svg xmlns="http://www.w3.org/2000/svg" xml:space="preserve" width="8.75mm" height="8.75mm" version="1.0" style="shape-rendering:geometricPrecision; text-rendering:geometricPrecision; image-rendering:optimizeQuality; fill-rule:evenodd; clip-rule:evenodd"
viewBox="0 0 86337 86337"
 xmlns:xlink="http://www.w3.org/1999/xlink"
 xmlns:xodm="http://www.corel.com/coreldraw/odm/2003">
 <defs>
  <style type="text/css">
   <![CDATA[
    .fil0 {fill:#00A0E3;fill-rule:nonzero}
   ]]>
  </style>
 </defs>
 <g id="Layer_x0020_1">
  <metadata id="CorelCorpID_0Corel-Layer"/>
  <path class="fil0" d="M48822 37780c1921,-919 3383,-2089 4358,-3495 989,-1392 1475,-3021 1475,-4873 0,-2256 -988,-4038 -2965,-5361 -1964,-1322 -4650,-1977 -8062,-1977 -3341,0 -5959,585 -7852,1769 -1894,1183 -2841,2798 -2841,4845 0,1518 543,2841 1629,3969 1086,1128 2673,1977 4734,2548l9524 2576zm-5653 -37780c11918,0 22712,4833 30524,12645 7813,7811 12645,18605 12645,30524 0,11918 -4833,22712 -12645,30524 -7812,7812 -18606,12645 -30524,12645 -11919,0 -22713,-4832 -30524,-12645 -7812,-7812 -12645,-18606 -12645,-30524 0,-11919 4832,-22713 12645,-30524 7811,-7813 18605,-12645 30524,-12645zm25292 17876c-6472,-6472 -15415,-10476 -25292,-10476 -9878,0 -18822,4004 -25292,10476 -6472,6471 -10476,15414 -10476,25292 0,9877 4004,18821 10476,25292 6471,6472 15414,10476 25292,10476 9877,0 18821,-4004 25292,-10476 6472,-6472 10476,-15415 10476,-25292 0,-9878 -4004,-18822 -10476,-25292zm-30988 28760c-2422,919 -4261,2130 -5500,3634 -1253,1489 -1880,3202 -1880,5124 0,2506 1128,4469 3383,5890 2256,1434 5388,2144 9413,2144 4163,0 7253,-557 9287,-1671 2046,-1114 3063,-2812 3063,-5095 0,-1518 -501,-2785 -1518,-3788 -1016,-1003 -2687,-1894 -4985,-2645l-11264 -3592zm-6209 -2492c-2882,-1768 -5013,-3718 -6420,-5834 -1406,-2117 -2102,-4455 -2102,-7018 0,-4414 1894,-8006 5667,-10805 3773,-2785 8717,-4178 14801,-4178 6113,0 11055,1184 14815,3537 3774,2352 5654,5402 5654,9162 0,2422 -738,4525 -2200,6321 -1462,1797 -3732,3370 -6823,4734 3718,1545 6489,3467 8299,5751 1823,2283 2729,4985 2729,8118 0,4971 -1991,8897 -5974,11779 -3982,2882 -9455,4316 -16416,4316 -6878,0 -12378,-1281 -16486,-3856 -4108,-2562 -6154,-5946 -6154,-10165 0,-2714 877,-5054 2632,-7031 1754,-1963 4414,-3578 7979,-4831z"/>
 </g>
</svg>
