<?xml version="1.0" encoding="UTF-8"?>
<!DOCTYPE svg PUBLIC "-//W3C//DTD SVG 1.0//EN" "http://www.w3.org/TR/2001/REC-SVG-20010904/DTD/svg10.dtd">
<!-- Creator: CorelDRAW -->
<svg xmlns="http://www.w3.org/2000/svg" xml:space="preserve" width="8.75mm" height="8.75mm" version="1.0" style="shape-rendering:geometricPrecision; text-rendering:geometricPrecision; image-rendering:optimizeQuality; fill-rule:evenodd; clip-rule:evenodd"
viewBox="0 0 157283 157283"
 xmlns:xlink="http://www.w3.org/1999/xlink"
 xmlns:xodm="http://www.corel.com/coreldraw/odm/2003">
 <defs>
  <style type="text/css">
   <![CDATA[
    .fil0 {fill:#00A0E3;fill-rule:nonzero}
   ]]>
  </style>
 </defs>
 <g id="Layer_x0020_1">
  <metadata id="CorelCorpID_0Corel-Layer"/>
  <path class="fil0" d="M61367 114939c1877,1192 3755,2080 5632,2637 1902,584 3931,863 6086,863 7533,0 13115,-2892 16742,-8650 3627,-5783 5504,-14711 5605,-26785 -3804,2916 -7710,5073 -11668,6493 -3956,1445 -8193,2157 -12681,2157 -9259,0 -16970,-2842 -23134,-8499 -6164,-5682 -9257,-12707 -9257,-21053 0,-9816 3550,-17679 10627,-23641 7077,-5935 16539,-8903 28307,-8903 13037,0 23134,4161 30261,12455 7127,8294 10704,19963 10704,35030 0,15752 -3956,28129 -11896,37158 -7940,9006 -18822,13521 -32722,13521 -8623,0 -15700,-1878 -21281,-5657 -5579,-3755 -8371,-8421 -8371,-13951 0,-3475 1194,-6291 3577,-8472 2384,-2182 5454,-3273 9232,-3273 3273,0 5937,938 7992,2790 2055,1853 3094,4212 3094,7104 0,2080 -557,3829 -1673,5276 -1116,1420 -2842,2561 -5175,3399zm17274 -114939c21710,0 41375,8804 55606,23035 14233,14229 23035,33894 23035,55606 0,21710 -8804,41375 -23035,55606 -14231,14231 -33896,23035 -55606,23035 -21712,0 -41377,-8802 -55606,-23035 -14231,-14231 -23035,-33896 -23035,-55606 0,-21712 8802,-41377 23035,-55606 14229,-14233 33894,-23035 55606,-23035zm46076 32566c-11790,-11790 -28083,-19084 -46076,-19084 -17995,0 -34288,7294 -46076,19084 -11790,11788 -19084,28081 -19084,46076 0,17993 7294,34286 19084,46076 11788,11790 28081,19084 46076,19084 17993,0 34286,-7294 46076,-19084 11790,-11790 19084,-28083 19084,-46076 0,-17995 -7294,-34288 -19084,-46076zm-30477 27761c0,-6315 -1420,-11134 -4262,-14483 -2840,-3349 -6924,-5022 -12200,-5022 -5251,0 -9284,1598 -12074,4794 -2790,3196 -4185,7837 -4185,13900 0,6189 1496,10933 4463,14179 2968,3246 7255,4869 12886,4869 4717,0 8447,-1648 11211,-4920 2765,-3273 4159,-7711 4159,-13318z"/>
 </g>
</svg>
