<?xml version="1.0" encoding="UTF-8"?>
<!DOCTYPE svg PUBLIC "-//W3C//DTD SVG 1.0//EN" "http://www.w3.org/TR/2001/REC-SVG-20010904/DTD/svg10.dtd">
<!-- Creator: CorelDRAW -->
<svg xmlns="http://www.w3.org/2000/svg" xml:space="preserve" width="8.75mm" height="8.75mm" version="1.0" style="shape-rendering:geometricPrecision; text-rendering:geometricPrecision; image-rendering:optimizeQuality; fill-rule:evenodd; clip-rule:evenodd"
viewBox="0 0 882239 882239"
 xmlns:xlink="http://www.w3.org/1999/xlink"
 xmlns:xodm="http://www.corel.com/coreldraw/odm/2003">
 <defs>
  <style type="text/css">
   <![CDATA[
    .fil0 {fill:#00A0E3;fill-rule:nonzero}
   ]]>
  </style>
 </defs>
 <g id="Layer_x0020_1">
  <metadata id="CorelCorpID_0Corel-Layer"/>
  <path class="fil0" d="M333124 441261c0,71850 8681,124350 25892,157644 17221,33434 44394,50081 81670,50081 37276,0 64600,-16788 82094,-50222 17504,-33576 26326,-85935 26326,-157502 0,-71426 -8822,-123927 -26326,-157502 -17494,-33717 -44818,-50515 -82094,-50515 -36994,0 -64167,16939 -81529,50656 -17352,33868 -26034,86217 -26034,157361zm107996 -441261c121779,0 232084,49385 311909,129210 79835,79815 129210,190120 129210,311909 0,121779 -49385,232084 -129210,311909 -79825,79825 -190130,129210 -311909,129210 -121789,0 -232095,-49375 -311909,-129210 -79825,-79825 -129210,-190130 -129210,-311909 0,-121789 49375,-232095 129210,-311909 79815,-79835 190120,-129210 311909,-129210zm258451 182669c-66133,-66133 -157523,-107048 -258451,-107048 -100938,0 -192328,40916 -258451,107048 -66133,66123 -107048,157513 -107048,258451 0,100928 40916,192318 107048,258451 66123,66133 157513,107048 258451,107048 100928,0 192318,-40916 258451,-107048 66133,-66133 107048,-157523 107048,-258451 0,-100938 -40916,-192328 -107048,-258451zm-498763 258592c0,-81388 22333,-147541 66869,-198338 44535,-50797 102158,-76266 173010,-76266 70851,0 128625,25469 173443,76548 44818,50938 67292,116960 67292,198055 0,81529 -22474,147541 -67292,198196 -44818,50797 -102592,76115 -173443,76115 -70851,0 -128474,-25318 -173010,-76115 -44535,-50656 -66869,-116667 -66869,-198196z"/>
 </g>
</svg>
