<?xml version="1.0" encoding="UTF-8"?>
<!DOCTYPE svg PUBLIC "-//W3C//DTD SVG 1.0//EN" "http://www.w3.org/TR/2001/REC-SVG-20010904/DTD/svg10.dtd">
<!-- Creator: CorelDRAW -->
<svg xmlns="http://www.w3.org/2000/svg" xml:space="preserve" width="5.1008mm" height="8.343mm" version="1.0" style="shape-rendering:geometricPrecision; text-rendering:geometricPrecision; image-rendering:optimizeQuality; fill-rule:evenodd; clip-rule:evenodd"
viewBox="0 0 74399 121689"
 xmlns:xlink="http://www.w3.org/1999/xlink"
 xmlns:xodm="http://www.corel.com/coreldraw/odm/2003">
 <defs>
  <style type="text/css">
   <![CDATA[
    .fil0 {fill:#00A0E3;fill-rule:nonzero}
   ]]>
  </style>
 </defs>
 <g id="Layer_x0020_1">
  <metadata id="CorelCorpID_0Corel-Layer"/>
  <path class="fil0" d="M0 121689l0 -14247 8873 0c6761,0 11046,-723 12795,-2175 1781,-1451 2671,-4619 2671,-9498l0 -63318 -24338 0 0 -14048c9530,-398 16950,-2013 22227,-4883 5277,-2834 9332,-7351 12169,-13520l16060 0 0 96164c0,4879 726,7980 2211,9298 1483,1320 5341,1979 11607,1979l10124 0 0 14247 -74399 0z"/>
 </g>
</svg>
