<?xml version="1.0" encoding="UTF-8"?>
<!DOCTYPE svg PUBLIC "-//W3C//DTD SVG 1.0//EN" "http://www.w3.org/TR/2001/REC-SVG-20010904/DTD/svg10.dtd">
<!-- Creator: CorelDRAW -->
<svg xmlns="http://www.w3.org/2000/svg" xml:space="preserve" width="7.0135mm" height="8.7228mm" version="1.0" style="shape-rendering:geometricPrecision; text-rendering:geometricPrecision; image-rendering:optimizeQuality; fill-rule:evenodd; clip-rule:evenodd"
viewBox="0 0 67329 83738"
 xmlns:xlink="http://www.w3.org/1999/xlink"
 xmlns:xodm="http://www.corel.com/coreldraw/odm/2003">
 <defs>
  <style type="text/css">
   <![CDATA[
    .fil0 {fill:#00A0E3;fill-rule:nonzero}
   ]]>
  </style>
 </defs>
 <g id="Layer_x0020_1">
  <metadata id="CorelCorpID_0Corel-Layer"/>
  <path class="fil0" d="M131 82024c-43,-435 -86,-869 -109,-1346 -21,-457 -21,-1172 -21,-2148 0,-6837 1476,-12676 4450,-17559 2973,-4883 7662,-9138 14065,-12785 2670,-1585 6099,-3343 10288,-5317 4188,-1954 6923,-3278 8205,-3971 2670,-1433 4753,-3452 6294,-6056 1520,-2605 2280,-5514 2280,-8726 0,-4362 -1672,-7966 -5015,-10765 -3364,-2822 -7640,-4233 -12849,-4233 -3819,0 -7118,846 -9918,2560 -2801,1715 -4972,4211 -6491,7468 674,-195 1389,-369 2106,-478 716,-108 1498,-153 2344,-153 2734,0 4905,781 6534,2323 1627,1541 2452,3625 2452,6250 0,3039 -955,5536 -2887,7424 -1932,1910 -4449,2866 -7553,2866 -3604,0 -6598,-1282 -8942,-3843 -2365,-2560 -3538,-5839 -3538,-9831 0,-6511 2930,-12111 8812,-16735 5882,-4644 13088,-6968 21662,-6968 10005,0 17993,2344 23983,7056 5968,4710 8964,10939 8964,18708 0,6513 -1845,11613 -5535,15281 -3690,3667 -10289,6706 -19773,9137l-391 65c-15301,3798 -24766,9420 -28368,16843 1735,-1129 3538,-1997 5382,-2561 1846,-564 3821,-846 5948,-846 3471,0 8204,694 14172,2082 5991,1389 10114,2085 12415,2085 3560,0 6164,-1108 7814,-3343 1648,-2237 2647,-6012 2994,-11373l7424 0 0 1780c0,9138 -1780,16213 -5317,21249 -3538,5055 -8509,7573 -14910,7573 -2323,0 -4993,-434 -7966,-1280 -2997,-848 -6318,-2105 -9963,-3799 -760,-391 -1867,-955 -3299,-1714 -4753,-2497 -8378,-3756 -10875,-3756 -2214,0 -3885,717 -5057,2127 -1172,1410 -1910,3647 -2257,6707l-7553 0z"/>
 </g>
</svg>
