<?xml version="1.0" encoding="UTF-8"?>
<!DOCTYPE svg PUBLIC "-//W3C//DTD SVG 1.0//EN" "http://www.w3.org/TR/2001/REC-SVG-20010904/DTD/svg10.dtd">
<!-- Creator: CorelDRAW -->
<svg xmlns="http://www.w3.org/2000/svg" xml:space="preserve" width="7.0135mm" height="8.7228mm" version="1.0" style="shape-rendering:geometricPrecision; text-rendering:geometricPrecision; image-rendering:optimizeQuality; fill-rule:evenodd; clip-rule:evenodd"
viewBox="0 0 43508 54111"
 xmlns:xlink="http://www.w3.org/1999/xlink"
 xmlns:xodm="http://www.corel.com/coreldraw/odm/2003">
 <defs>
  <style type="text/css">
   <![CDATA[
    .fil0 {fill:#00A0E3;fill-rule:nonzero}
   ]]>
  </style>
 </defs>
 <g id="Layer_x0020_1">
  <metadata id="CorelCorpID_0Corel-Layer"/>
  <path class="fil0" d="M7321 44237c1445,1375 3100,2399 4952,3058 1837,674 3927,1010 6255,1010 3745,0 6718,-898 8907,-2707 2187,-1809 3282,-4236 3282,-7308 0,-3310 -1024,-5778 -3057,-7406 -2035,-1627 -5134,-2440 -9300,-2440l-1599 0 0 -6143 815 0c4249,0 7376,-673 9383,-2006 2006,-1346 3002,-3422 3002,-6241 0,-2609 -927,-4698 -2792,-6283 -1865,-1586 -4362,-2385 -7476,-2385 -1809,0 -3478,252 -5020,757 -1529,505 -3001,1304 -4390,2370 1614,168 2862,730 3773,1711 898,968 1346,2244 1346,3843 0,1726 -617,3156 -1851,4278 -1234,1122 -2834,1683 -4796,1683 -2006,0 -3647,-645 -4952,-1935 -1305,-1290 -1949,-2945 -1949,-4980 0,-3674 1921,-6774 5751,-9312 3842,-2540 8710,-3802 14629,-3802 5975,0 10772,1207 14404,3619 3633,2413 5442,5540 5442,9412 0,3225 -1038,5834 -3100,7798 -2076,1977 -5245,3380 -9509,4235 4572,799 8051,2329 10449,4601 2399,2272 3591,5176 3591,8710 0,4768 -2089,8584 -6284,11445 -4194,2862 -9832,4292 -16929,4292 -5947,0 -10814,-1346 -14601,-4039 -3801,-2707 -5694,-6087 -5694,-10168 0,-2441 715,-4418 2159,-5919 1432,-1501 3311,-2258 5611,-2258 1949,0 3520,589 4726,1767 1207,1177 1810,2720 1810,4628 0,1837 -589,3310 -1753,4432 -1164,1122 -2694,1682 -4615,1682l-617 0z"/>
 </g>
</svg>
