<?xml version="1.0" encoding="UTF-8"?>
<!DOCTYPE svg PUBLIC "-//W3C//DTD SVG 1.0//EN" "http://www.w3.org/TR/2001/REC-SVG-20010904/DTD/svg10.dtd">
<!-- Creator: CorelDRAW -->
<svg xmlns="http://www.w3.org/2000/svg" xml:space="preserve" width="7.4205mm" height="8.343mm" version="1.0" style="shape-rendering:geometricPrecision; text-rendering:geometricPrecision; image-rendering:optimizeQuality; fill-rule:evenodd; clip-rule:evenodd"
viewBox="0 0 36072 40556"
 xmlns:xlink="http://www.w3.org/1999/xlink"
 xmlns:xodm="http://www.corel.com/coreldraw/odm/2003">
 <defs>
  <style type="text/css">
   <![CDATA[
    .fil0 {fill:#00A0E3;fill-rule:nonzero}
   ]]>
  </style>
 </defs>
 <g id="Layer_x0020_1">
  <metadata id="CorelCorpID_0Corel-Layer"/>
  <path class="fil0" d="M20047 23740l198 -14442 -13057 14442 12859 0zm-7320 16816l0 -4748 2385 0c2198,0 3561,-209 4110,-615 550,-406 825,-1384 825,-2957l0 -2825 -20047 0 0 -5023 21981 -24388 6375 0 0 23740 7715 0 0 5671 -7715 0 0 2825c0,1396 286,2342 868,2836 582,495 1627,736 3154,736l3693 0 0 4748 -23344 0z"/>
 </g>
</svg>
