<?xml version="1.0" encoding="UTF-8"?>
<!DOCTYPE svg PUBLIC "-//W3C//DTD SVG 1.0//EN" "http://www.w3.org/TR/2001/REC-SVG-20010904/DTD/svg10.dtd">
<!-- Creator: CorelDRAW -->
<svg xmlns="http://www.w3.org/2000/svg" xml:space="preserve" width="6.9728mm" height="8.6956mm" version="1.0" style="shape-rendering:geometricPrecision; text-rendering:geometricPrecision; image-rendering:optimizeQuality; fill-rule:evenodd; clip-rule:evenodd"
viewBox="0 0 25179 31400"
 xmlns:xlink="http://www.w3.org/1999/xlink"
 xmlns:xodm="http://www.corel.com/coreldraw/odm/2003">
 <defs>
  <style type="text/css">
   <![CDATA[
    .fil0 {fill:#00A0E3;fill-rule:nonzero}
   ]]>
  </style>
 </defs>
 <g id="Layer_x0020_1">
  <metadata id="CorelCorpID_0Corel-Layer"/>
  <path class="fil0" d="M4360 25946c882,694 1837,1217 2874,1559 1037,343 2155,515 3347,515 2335,0 4148,-653 5445,-1959 1299,-1306 1952,-3143 1952,-5503 0,-2425 -629,-4311 -1878,-5658 -1257,-1348 -2996,-2017 -5233,-2017 -1225,0 -2344,253 -3356,768 -1020,506 -1968,1298 -2865,2367l-3323 -147 1510 -15871c1608,523 3257,914 4939,1176 1682,261 3454,392 5307,392 1910,0 3755,-131 5519,-383 1764,-253 3454,-629 5062,-1135 -653,2376 -1992,4140 -4025,5282 -2025,1152 -4784,1723 -8287,1723 -637,0 -1372,-33 -2213,-107 -841,-73 -1894,-195 -3176,-376l-376 4499c1274,-588 2539,-1028 3789,-1322 1257,-294 2498,-441 3747,-441 3510,0 6393,1004 8662,3004 2261,2000 3396,4523 3396,7585 0,3559 -1143,6360 -3429,8417 -2286,2057 -5429,3086 -9414,3086 -3666,0 -6637,-767 -8915,-2302 -2278,-1543 -3421,-3511 -3421,-5920 0,-1257 425,-2302 1265,-3151 841,-841 1894,-1266 3152,-1266 1192,0 2172,327 2923,980 759,653 1135,1502 1135,2555 0,1127 -367,2017 -1110,2670 -743,653 -1747,979 -3004,979z"/>
 </g>
</svg>
