<?xml version="1.0" encoding="UTF-8"?>
<!DOCTYPE svg PUBLIC "-//W3C//DTD SVG 1.0//EN" "http://www.w3.org/TR/2001/REC-SVG-20010904/DTD/svg10.dtd">
<!-- Creator: CorelDRAW -->
<svg xmlns="http://www.w3.org/2000/svg" xml:space="preserve" width="7.0949mm" height="8.75mm" version="1.0" style="shape-rendering:geometricPrecision; text-rendering:geometricPrecision; image-rendering:optimizeQuality; fill-rule:evenodd; clip-rule:evenodd"
viewBox="0 0 21606 26647"
 xmlns:xlink="http://www.w3.org/1999/xlink"
 xmlns:xodm="http://www.corel.com/coreldraw/odm/2003">
 <defs>
  <style type="text/css">
   <![CDATA[
    .fil0 {fill:#00A0E3;fill-rule:nonzero}
   ]]>
  </style>
 </defs>
 <g id="Layer_x0020_1">
  <metadata id="CorelCorpID_0Corel-Layer"/>
  <path class="fil0" d="M6486 18467c0,1652 392,2920 1171,3801 778,881 1893,1322 3332,1322 1371,0 2444,-434 3216,-1308 778,-874 1164,-2086 1164,-3636 0,-1749 -379,-3064 -1143,-3959 -758,-895 -1894,-1343 -3402,-1343 -1370,0 -2438,448 -3195,1343 -764,895 -1143,2155 -1143,3780zm9384 -14914c-523,-351 -1047,-613 -1570,-778 -530,-172 -1053,-255 -1577,-255 -2086,0 -3642,750 -4661,2258 -1026,1508 -1604,3911 -1735,7195 1005,-730 2031,-1274 3071,-1639 1040,-365 2134,-544 3277,-544 2596,0 4730,785 6410,2348 1680,1570 2520,3553 2520,5956 0,2554 -964,4620 -2892,6190 -1935,1577 -4482,2362 -7656,2362 -3525,0 -6252,-1102 -8173,-3305 -1921,-2210 -2885,-5336 -2885,-9384 0,-4304 1074,-7705 3222,-10204 2141,-2499 5081,-3753 8806,-3753 2451,0 4462,523 6025,1563 1570,1046 2355,2341 2355,3883 0,944 -317,1715 -950,2321 -633,606 -1446,909 -2444,909 -916,0 -1659,-255 -2231,-758 -572,-502 -861,-1156 -861,-1969 0,-592 165,-1081 489,-1480 323,-400 812,-703 1459,-916z"/>
 </g>
</svg>
