<?xml version="1.0" encoding="UTF-8"?>
<!DOCTYPE svg PUBLIC "-//W3C//DTD SVG 1.0//EN" "http://www.w3.org/TR/2001/REC-SVG-20010904/DTD/svg10.dtd">
<!-- Creator: CorelDRAW -->
<svg xmlns="http://www.w3.org/2000/svg" xml:space="preserve" width="7.0677mm" height="8.4108mm" version="1.0" style="shape-rendering:geometricPrecision; text-rendering:geometricPrecision; image-rendering:optimizeQuality; fill-rule:evenodd; clip-rule:evenodd"
viewBox="0 0 18297 21774"
 xmlns:xlink="http://www.w3.org/1999/xlink"
 xmlns:xodm="http://www.corel.com/coreldraw/odm/2003">
 <defs>
  <style type="text/css">
   <![CDATA[
    .fil0 {fill:#00A0E3;fill-rule:nonzero}
   ]]>
  </style>
 </defs>
 <g id="Layer_x0020_1">
  <metadata id="CorelCorpID_0Corel-Layer"/>
  <path class="fil0" d="M5724 21774c0,-158 -6,-404 -17,-732 -12,-322 -18,-562 -18,-709 0,-1633 100,-3038 298,-4202 205,-1165 527,-2201 972,-3102 720,-1522 2359,-3665 4911,-6433 948,-1024 1663,-1820 2143,-2382 -538,252 -1072,439 -1592,556 -527,123 -1036,181 -1528,181 -703,0 -1610,-117 -2739,-351 -1124,-234 -1903,-351 -2324,-351 -1212,0 -2084,421 -2616,1258 -533,843 -796,2247 -796,4226l0 205 -2417 0 0 -9763 2569 0 0 2494c662,-948 1364,-1627 2101,-2043 738,-416 1616,-626 2634,-626 972,0 2213,287 3729,860 1516,574 2523,861 3014,861 480,0 884,-123 1218,-363 327,-240 591,-609 784,-1112l2247 0c-105,1522 -1118,3682 -3050,6485 -901,1311 -1569,2335 -2008,3067 -948,1616 -1639,3243 -2078,4882 -439,1639 -661,3459 -661,5449 0,445 0,778 6,1001 6,223 18,439 30,644l-4812 0z"/>
 </g>
</svg>
