<?xml version="1.0" encoding="UTF-8"?>
<!DOCTYPE svg PUBLIC "-//W3C//DTD SVG 1.0//EN" "http://www.w3.org/TR/2001/REC-SVG-20010904/DTD/svg10.dtd">
<!-- Creator: CorelDRAW -->
<svg xmlns="http://www.w3.org/2000/svg" xml:space="preserve" width="7.312mm" height="8.7228mm" version="1.0" style="shape-rendering:geometricPrecision; text-rendering:geometricPrecision; image-rendering:optimizeQuality; fill-rule:evenodd; clip-rule:evenodd"
viewBox="0 0 17095 20393"
 xmlns:xlink="http://www.w3.org/1999/xlink"
 xmlns:xodm="http://www.corel.com/coreldraw/odm/2003">
 <defs>
  <style type="text/css">
   <![CDATA[
    .fil0 {fill:#00A0E3;fill-rule:nonzero}
   ]]>
  </style>
 </defs>
 <g id="Layer_x0020_1">
  <metadata id="CorelCorpID_0Corel-Layer"/>
  <path class="fil0" d="M10693 8151c729,-349 1284,-793 1655,-1327 375,-529 560,-1147 560,-1850 0,-856 -375,-1533 -1126,-2035 -745,-502 -1765,-750 -3061,-750 -1268,0 -2262,222 -2981,671 -719,449 -1078,1062 -1078,1839 0,576 206,1078 619,1507 412,428 1015,751 1797,967l3616 978zm-4308 3362c-920,349 -1618,809 -2088,1380 -476,565 -714,1216 -714,1945 0,952 428,1696 1284,2236 856,544 2046,814 3573,814 1580,0 2754,-212 3526,-635 777,-423 1163,-1067 1163,-1934 0,-576 -190,-1057 -576,-1438 -386,-381 -1020,-719 -1893,-1004l-4276 -1363zm-2357 -946c-1094,-671 -1903,-1411 -2437,-2215 -534,-804 -798,-1691 -798,-2664 0,-1676 719,-3039 2151,-4102 1432,-1057 3309,-1586 5619,-1586 2321,0 4197,450 5624,1343 1433,893 2146,2051 2146,3478 0,920 -280,1718 -835,2400 -555,682 -1417,1279 -2590,1797 1411,587 2463,1316 3151,2183 692,867 1036,1892 1036,3082 0,1887 -756,3378 -2268,4472 -1512,1094 -3589,1638 -6232,1638 -2611,0 -4699,-486 -6259,-1464 -1559,-973 -2336,-2257 -2336,-3859 0,-1031 333,-1918 999,-2669 666,-745 1676,-1358 3029,-1834z"/>
 </g>
</svg>
