<?xml version="1.0" encoding="UTF-8"?>
<!DOCTYPE svg PUBLIC "-//W3C//DTD SVG 1.0//EN" "http://www.w3.org/TR/2001/REC-SVG-20010904/DTD/svg10.dtd">
<!-- Creator: CorelDRAW -->
<svg xmlns="http://www.w3.org/2000/svg" xml:space="preserve" width="7.122mm" height="8.75mm" version="1.0" style="shape-rendering:geometricPrecision; text-rendering:geometricPrecision; image-rendering:optimizeQuality; fill-rule:evenodd; clip-rule:evenodd"
viewBox="0 0 14371 17656"
 xmlns:xlink="http://www.w3.org/1999/xlink"
 xmlns:xodm="http://www.corel.com/coreldraw/odm/2003">
 <defs>
  <style type="text/css">
   <![CDATA[
    .fil0 {fill:#00A0E3;fill-rule:nonzero}
   ]]>
  </style>
 </defs>
 <g id="Layer_x0020_1">
  <metadata id="CorelCorpID_0Corel-Layer"/>
  <path class="fil0" d="M4078 15357c338,214 675,374 1013,474 342,105 707,155 1095,155 1355,0 2359,-520 3011,-1556 652,-1040 990,-2646 1008,-4818 -684,524 -1387,912 -2099,1168 -711,260 -1474,388 -2281,388 -1666,0 -3052,-511 -4161,-1529 -1109,-1022 -1665,-2285 -1665,-3786 0,-1766 638,-3180 1912,-4252 1273,-1068 2975,-1601 5091,-1601 2345,0 4161,748 5443,2240 1282,1492 1925,3591 1925,6301 0,2833 -712,5059 -2140,6683 -1428,1620 -3385,2432 -5885,2432 -1551,0 -2824,-338 -3828,-1017 -1003,-675 -1506,-1515 -1506,-2509 0,-625 215,-1132 643,-1524 429,-392 981,-589 1660,-589 589,0 1068,169 1437,502 370,333 557,758 557,1278 0,374 -100,688 -301,949 -201,255 -511,461 -931,611zm5913 -9823c0,-1136 -255,-2003 -767,-2605 -511,-602 -1245,-903 -2194,-903 -944,0 -1670,287 -2172,862 -502,575 -753,1410 -753,2500 0,1113 269,1966 803,2550 534,584 1305,876 2318,876 849,0 1519,-296 2017,-885 497,-589 748,-1387 748,-2395z"/>
 </g>
</svg>
