<?xml version="1.0" encoding="UTF-8"?>
<!DOCTYPE svg PUBLIC "-//W3C//DTD SVG 1.0//EN" "http://www.w3.org/TR/2001/REC-SVG-20010904/DTD/svg10.dtd">
<!-- Creator: CorelDRAW -->
<svg xmlns="http://www.w3.org/2000/svg" xml:space="preserve" width="7.6374mm" height="8.7228mm" version="1.0" style="shape-rendering:geometricPrecision; text-rendering:geometricPrecision; image-rendering:optimizeQuality; fill-rule:evenodd; clip-rule:evenodd"
viewBox="0 0 14864 16976"
 xmlns:xlink="http://www.w3.org/1999/xlink"
 xmlns:xodm="http://www.corel.com/coreldraw/odm/2003">
 <defs>
  <style type="text/css">
   <![CDATA[
    .fil0 {fill:#00A0E3;fill-rule:nonzero}
   ]]>
  </style>
 </defs>
 <g id="Layer_x0020_1">
  <metadata id="CorelCorpID_0Corel-Layer"/>
  <path class="fil0" d="M4092 8492c0,2222 269,3846 801,4876 533,1034 1373,1549 2526,1549 1153,0 1998,-519 2539,-1553 541,-1038 814,-2658 814,-4871 0,-2209 -273,-3833 -814,-4871 -541,-1043 -1386,-1562 -2539,-1562 -1144,0 -1984,524 -2521,1567 -537,1047 -805,2666 -805,4867zm-4092 0c0,-2517 691,-4563 2068,-6134 1377,-1571 3159,-2359 5351,-2359 2191,0 3978,788 5364,2367 1386,1575 2081,3617 2081,6125 0,2521 -695,4563 -2081,6130 -1386,1571 -3173,2354 -5364,2354 -2191,0 -3973,-783 -5351,-2354 -1377,-1567 -2068,-3608 -2068,-6130z"/>
 </g>
</svg>
