<?xml version="1.0" encoding="UTF-8"?>
<!DOCTYPE svg PUBLIC "-//W3C//DTD SVG 1.0//EN" "http://www.w3.org/TR/2001/REC-SVG-20010904/DTD/svg10.dtd">
<!-- Creator: CorelDRAW -->
<svg xmlns="http://www.w3.org/2000/svg" xml:space="preserve" width="8.6586mm" height="8.3659mm" version="1.0" style="shape-rendering:geometricPrecision; text-rendering:geometricPrecision; image-rendering:optimizeQuality; fill-rule:evenodd; clip-rule:evenodd"
viewBox="0 0 2.57 2.48"
 xmlns:xlink="http://www.w3.org/1999/xlink"
 xmlns:xodm="http://www.corel.com/coreldraw/odm/2003">
 <defs>
  <style type="text/css">
   <![CDATA[
    .fil1 {fill:#00AFEF}
    .fil0 {fill:#00AFEF;fill-rule:nonzero}
   ]]>
  </style>
 </defs>
 <g id="Layer_x0020_1">
  <metadata id="CorelCorpID_0Corel-Layer"/>
  <g id="_2659393750960">
   <g>
    <path class="fil0" d="M2.26 1.71l0.04 0.03 0.02 0.01 -0.01 0.02c-0.06,0.1 -0.13,0.18 -0.21,0.26l0 0c-0.08,0.07 -0.17,0.14 -0.28,0.19l0 0c-0.03,0.01 -0.06,0.03 -0.1,0.04 -0.02,0.01 -0.04,0.02 -0.07,0.02l0.1 0.14 0.04 0.06 -0.07 -0.02 -0.52 -0.16 -0.06 -0.02 0.06 -0.03 0.48 -0.24 0.07 -0.03 -0.03 0.07 -0.06 0.14c0.01,-0 0.02,-0.01 0.03,-0.01 0.03,-0.01 0.06,-0.02 0.08,-0.04l0 0c0.09,-0.04 0.18,-0.1 0.25,-0.17 0.07,-0.07 0.14,-0.15 0.19,-0.24l0.01 -0.02 0.02 0.01z"/>
    <path class="fil0" d="M0.51 0.55l-0.04 0.54 -0.01 0.08 -0.04 -0.06 -0.08 -0.12c-0.02,0.1 -0.03,0.21 -0.02,0.31 0.01,0.12 0.04,0.24 0.1,0.35l0 0c0.01,0.02 0.02,0.04 0.03,0.05 0.01,0.02 0.02,0.03 0.03,0.05l0.01 0.02 -0.02 0.01 -0.04 0.03 -0.02 0.01 -0.01 -0.02c-0.01,-0.02 -0.02,-0.04 -0.03,-0.05 -0.01,-0.02 -0.02,-0.04 -0.03,-0.06 -0.06,-0.13 -0.1,-0.26 -0.11,-0.39 -0.01,-0.12 0,-0.25 0.03,-0.37l-0.17 0.01 -0.08 0.01 0.06 -0.05 0.4 -0.36 0.05 -0.04 -0 0.06z"/>
    <path class="fil0" d="M2.09 0.36l0.07 -0.16 0.03 -0.07 0.02 0.07 0.13 0.52 0.02 0.06 -0.05 -0.03 -0.46 -0.28 -0.07 -0.04 0.08 -0.01 0.15 -0.02c-0.06,-0.05 -0.14,-0.1 -0.21,-0.14 -0.09,-0.04 -0.19,-0.08 -0.29,-0.09l-0.03 -0 0 -0.03 0.01 -0.05 0 -0.03 0.03 0c0.11,0.02 0.22,0.05 0.33,0.1 0.09,0.05 0.18,0.1 0.26,0.17z"/>
    <path class="fil1" d="M2.56 1.07l0.01 0.15c0,0.02 -0.01,0.03 -0.02,0.04l-0 0 -0 0.06c-0,0.01 -0.01,0.03 -0.01,0.03l0 0c-0.01,0.01 -0.02,0.01 -0.03,0.01l-0.76 0.02 -0 0c-0.01,0 -0.02,-0 -0.03,-0.01 -0.01,-0.01 -0.01,-0.01 -0.02,-0.02l-0 -0 -0.01 0c-0.01,0 -0.04,-0.01 -0.04,-0.04l-0 -0.09 -0.03 0c-0.02,0.15 -0.14,0.27 -0.29,0.28 -0.04,0 -0.09,-0 -0.13,-0.02l0 0 -0.02 0.02 0.07 0.04c0.02,0.01 0.03,0.03 0.02,0.05l-0.44 0.72c-0.01,0.02 -0.03,0.03 -0.05,0.02l-0.13 -0.07c-0.02,-0.01 -0.03,-0.03 -0.02,-0.05l0.01 -0.02 -0 -0 -0.09 -0.06c-0.01,-0.01 -0.02,-0.02 -0.02,-0.03 -0,-0.01 -0,-0.02 0.01,-0.04l0.35 -0.62 0 -0 0 -0 0 -0c0,-0.01 0.01,-0.01 0.02,-0.02l0 0c0.01,-0 0.02,-0 0.04,0l0 0 0 0 0 0 0.02 0.01 0.01 -0.02c0.01,-0.01 0.03,-0.03 0.05,-0.02l0.07 0.04 0.01 -0.03c-0.06,-0.05 -0.11,-0.13 -0.11,-0.22 -0.01,-0.1 0.04,-0.2 0.11,-0.26l-0.01 -0.02 -0.08 0.04c-0.02,0.01 -0.04,0 -0.05,-0.01l-0.35 -0.77c-0.01,-0.02 -0,-0.04 0.01,-0.05l0.13 -0.07c0,-0 0.01,-0 0.01,-0l0.02 -0.01 0.1 -0.04c0.01,-0.01 0.03,-0 0.04,0l0 0c0.01,0 0.02,0.01 0.03,0.03l0.34 0.73 0 0 0 0 0 0c0,0.01 0,0.02 0,0.03l-0 0c-0,0.01 -0.01,0.02 -0.03,0.03l-0 0 -0 0 -0 0 -0 0 -0.01 0c-0,0.01 -0.01,0.01 -0.02,0.02l-0.06 0.03 -0.02 -0.03 0.04 0.06 -0.01 -0.01c0.03,-0.01 0.06,-0.02 0.09,-0.02 0.15,-0.01 0.29,0.09 0.32,0.24l0.03 0.01 -0 -0.07c-0,-0.02 0.01,-0.04 0.04,-0.04l0.85 0.02c0.02,0 0.04,0.01 0.04,0.04zm-2 1.05l0.08 0.05 0.3 -0.69 -0.01 -0.01 -0 -0c-0,-0 -0.01,-0 -0.01,-0l0 0c-0,0 -0.01,0 -0.01,0.01l-0 0 -0.35 0.62c-0,0 -0,0.01 -0,0.01 0,0 0,0.01 0.01,0.01zm0.34 -2.08l-0.08 0.03 0 0 -0 0 0.45 0.72 0 0 0 0 0 -0 0 -0c0,-0.01 0,-0.01 -0,-0.01l0 0 -0 -0 -0.34 -0.73c-0,-0.01 -0.01,-0.01 -0.01,-0.01l-0 0c-0,-0 -0.01,-0 -0.02,-0zm1.61 1.29l0 -0.04 -0.73 0.08 0.71 -0.02c0.01,-0 0.01,-0 0.01,-0.01l0 0c0,-0 0.01,-0.01 0.01,-0.01l0 -0zm-1.22 -0.31c0,-0 0.01,-0 0.01,-0 0.08,-0 0.13,0.04 0.16,0.09 0.02,0.03 0.02,0.05 0.03,0.09 0,0.03 -0,0.06 -0.02,0.09 -0.02,0.06 -0.07,0.1 -0.15,0.11l-0.01 0c-0,0 -0.01,0 -0.01,0 -0.08,0 -0.13,-0.04 -0.16,-0.09 -0.02,-0.03 -0.02,-0.05 -0.03,-0.09 -0,-0.03 0,-0.06 0.02,-0.09 0.02,-0.06 0.07,-0.1 0.15,-0.11l0.01 -0z"/>
   </g>
   <path class="fil1" d="M1.31 1.38c0.25,-0.01 0.23,-0.39 -0.02,-0.37 -0.25,0.01 -0.23,0.39 0.02,0.37z"/>
  </g>
 </g>
</svg>
