<?xml version="1.0" encoding="UTF-8"?>
<!DOCTYPE svg PUBLIC "-//W3C//DTD SVG 1.0//EN" "http://www.w3.org/TR/2001/REC-SVG-20010904/DTD/svg10.dtd">
<!-- Creator: CorelDRAW -->
<svg xmlns="http://www.w3.org/2000/svg" xml:space="preserve" width="8.9291mm" height="8mm" version="1.0" style="shape-rendering:geometricPrecision; text-rendering:geometricPrecision; image-rendering:optimizeQuality; fill-rule:evenodd; clip-rule:evenodd"
viewBox="0 0 24244 21722"
 xmlns:xlink="http://www.w3.org/1999/xlink"
 xmlns:xodm="http://www.corel.com/coreldraw/odm/2003">
 <defs>
  <style type="text/css">
   <![CDATA[
    .fil0 {fill:#00A0E3}
   ]]>
  </style>
 </defs>
 <g id="Layer_x0020_1">
  <metadata id="CorelCorpID_0Corel-Layer"/>
  <path class="fil0" d="M8990 8298c2219,-1171 4437,-1169 6655,0l-832 -7579c-1693,-912 -3389,-1001 -5084,0l-740 7579zm3280 1030c2145,0 3882,1737 3882,3882 0,2145 -1737,3882 -3882,3882 -2145,0 -3882,-1737 -3882,-3882 0,-2145 1737,-3882 3882,-3882zm-2754 8909c-2171,-1256 -3350,-3136 -3540,-5636l-5976 4736c128,1919 955,3402 2705,4305l6811 -3406zm8592 -5395c-128,2505 -1264,4411 -3403,5720l6939 3160c1650,-989 2593,-2401 2599,-4370l-6136 -4511z"/>
 </g>
</svg>
