<?xml version="1.0" encoding="UTF-8"?>
<!DOCTYPE svg PUBLIC "-//W3C//DTD SVG 1.0//EN" "http://www.w3.org/TR/2001/REC-SVG-20010904/DTD/svg10.dtd">
<!-- Creator: CorelDRAW -->
<svg xmlns="http://www.w3.org/2000/svg" xml:space="preserve" width="8.9998mm" height="9mm" version="1.0" style="shape-rendering:geometricPrecision; text-rendering:geometricPrecision; image-rendering:optimizeQuality; fill-rule:evenodd; clip-rule:evenodd"
viewBox="0 0 28033 28034"
 xmlns:xlink="http://www.w3.org/1999/xlink"
 xmlns:xodm="http://www.corel.com/coreldraw/odm/2003">
 <defs>
  <style type="text/css">
   <![CDATA[
    .fil0 {fill:#00A0E3}
   ]]>
  </style>
 </defs>
 <g id="Layer_x0020_1">
  <metadata id="CorelCorpID_0Corel-Layer"/>
  <path class="fil0" d="M16319 18126c147,-219 864,-842 931,-1643 1026,23 6512,2103 7814,2810l573 413c60,67 46,68 119,155 58,69 77,76 131,143 810,992 582,2674 -555,3466 -230,160 -414,237 -708,333 -333,108 -498,120 -810,85 -982,-109 -1251,-353 -2089,-982l-3325 -2754c-195,-149 -325,-301 -506,-480 -120,-118 -147,-126 -269,-223l-1306 -1322zm-16319 3551l0 -489c40,-673 245,-1340 634,-1935 262,-401 802,-1108 1282,-1237 0,-351 -69,-596 -100,-886 -66,-616 -64,-1273 -64,-1907 0,-1880 562,-3658 1368,-5203 251,-481 531,-914 832,-1358 153,-226 301,-405 467,-628 465,-627 1056,-1133 1618,-1668 191,-182 389,-330 604,-491 178,-133 465,-368 643,-453 560,-268 1203,128 1203,766 0,492 -522,795 -844,1018 -188,130 -346,273 -513,418 -187,163 -283,230 -464,412 -788,793 -1406,1648 -1982,2618 -613,1033 -931,2182 -1151,3394 -290,1604 -30,1904 -30,3146 525,-122 1010,-481 1533,-602 0,-892 -4,-1662 141,-2542 221,-1351 835,-2664 1635,-3732 334,-445 824,-1228 1455,-1228 536,0 1258,723 424,1574l-471 569c-1016,1365 -1541,2750 -1541,4702 251,-21 809,-242 1048,-322 671,-224 2543,-826 3224,-883 40,-476 657,-1204 657,-1205 0,-278 -201,-833 -281,-1088 -560,-1793 -858,-3749 -1120,-5616 -132,-944 -242,-1953 -242,-2934 0,-2071 1880,-3888 3943,-3888 1146,0 2008,335 2840,993 449,355 837,869 1064,1400 196,459 367,971 367,1604 490,114 940,392 1393,579 964,398 2303,1387 3057,2145 1254,1260 2158,2632 2887,4286 328,744 1095,3475 770,4163 -271,574 -1105,633 -1460,86 -188,-289 -214,-2409 -1171,-4305 -352,-698 -765,-1369 -1252,-1979l-760 -883c-935,-856 -2409,-2069 -3574,-2340 -58,248 -79,532 -119,812 -31,212 -100,595 -100,831 1291,683 2127,1272 3135,2396 687,766 1849,2795 1849,3682 0,444 -412,821 -876,821 -761,0 -803,-869 -1024,-1386 -242,-566 -507,-1094 -853,-1556 -95,-127 -157,-237 -249,-353 -483,-610 -1636,-1696 -2309,-1853 0,301 -147,901 -208,1161 -92,388 -153,725 -251,1118l-581 2102c301,202 616,792 712,1205 606,141 1172,267 1745,445 271,84 556,148 849,246 300,100 521,174 821,274 1083,361 2164,735 3154,1172 1493,659 3053,1173 3835,2736 794,1585 477,3578 -780,4808 -1016,994 -2655,1440 -4047,1005 -255,-80 -556,-159 -759,-336 -268,179 -508,416 -766,603 -3563,2573 -8094,3054 -12189,1346 -382,-159 -954,-362 -954,-853 0,-359 69,-675 403,-857 504,-275 984,71 1444,270 1236,534 2636,806 4013,806 2159,0 4190,-659 5947,-1828 147,-98 548,-368 624,-471 -359,-241 -977,-895 -1369,-986l-1022 621c-204,101 -342,176 -547,275 -195,94 -380,150 -590,231 -664,257 -1881,516 -2770,516 -690,0 -2321,-61 -2827,-404 -552,-374 -443,-1513 363,-1513 390,0 737,104 1095,165 1029,176 2324,71 3266,-240 359,-118 584,-207 912,-348 273,-117 518,-332 806,-399 -91,-342 -520,-543 -753,-780 -164,-166 -226,-218 -405,-361 -463,-370 -1585,-1523 -1854,-1925 -278,0 -298,55 -602,55 -855,0 -749,-259 -1356,397 -109,118 -116,157 -219,274 -583,662 -1902,1766 -2656,2437l-533 453c-1330,1030 -3372,3011 -5093,3011 -1007,0 -1882,-206 -2651,-744 -1041,-728 -1657,-1920 -1729,-3153zm10843 -5193c152,317 168,563 372,887 190,302 370,473 559,755 -134,201 -312,312 -470,516l-4337 3768c-722,593 -1683,1389 -2588,1465 -405,34 -508,62 -883,-46 -298,-86 -480,-168 -723,-318 -129,-80 -465,-372 -552,-488 -187,-251 -235,-331 -363,-623 -314,-718 -218,-1724 268,-2366 592,-782 1694,-1159 2590,-1517 1504,-601 3715,-1447 5282,-1837 260,-64 600,-177 844,-197zm1588 -767c0,-795 694,-1628 1643,-1628 2127,0 2127,3257 0,3257 -441,0 -915,-236 -1154,-475 -257,-257 -489,-798 -489,-1154zm2628 -3176c-286,-6 -469,-110 -1259,-110 -326,0 -412,103 -712,110l-708 -2961c-215,-1067 -359,-2053 -520,-3203 -141,-1007 -417,-2393 -32,-3255 1060,-2373 4479,-1609 4659,712 25,324 1,425 -2,823 -11,1220 -765,5012 -1056,6392l-370 1492z"/>
 </g>
</svg>
