<?xml version="1.0" encoding="UTF-8"?>
<!DOCTYPE svg PUBLIC "-//W3C//DTD SVG 1.0//EN" "http://www.w3.org/TR/2001/REC-SVG-20010904/DTD/svg10.dtd">
<!-- Creator: CorelDRAW -->
<svg xmlns="http://www.w3.org/2000/svg" xml:space="preserve" width="9.5mm" height="9.5mm" version="1.0" style="shape-rendering:geometricPrecision; text-rendering:geometricPrecision; image-rendering:optimizeQuality; fill-rule:evenodd; clip-rule:evenodd"
viewBox="0 0 36183 36183"
 xmlns:xlink="http://www.w3.org/1999/xlink"
 xmlns:xodm="http://www.corel.com/coreldraw/odm/2003">
 <defs>
  <style type="text/css">
   <![CDATA[
    .fil0 {fill:#00A0E3}
   ]]>
  </style>
 </defs>
 <g id="Layer_x0020_1">
  <metadata id="CorelCorpID_0Corel-Layer"/>
  <path class="fil0" d="M16526 12154c-77,-1355 -14,-2839 -20,-4210 -7,-1402 157,-2518 1664,-2473 1452,43 1557,1284 1554,2602 -3,1256 90,2871 -30,4081 -1308,-333 -1865,-324 -3167,0zm21 6598c-527,-2138 2633,-2812 3115,-849 540,2201 -2631,2814 -3115,849zm777 -3495c-4219,1133 -2403,7232 1596,6173 1486,-393 2809,-1886 2290,-3917 -385,-1505 -1963,-2773 -3886,-2256zm5368 7471c711,-608 1236,-1407 1553,-2663 840,316 2380,1317 3255,1835 874,518 2737,1308 1739,2898 -898,1431 -2361,485 -3447,-159 -694,-411 -2759,-1490 -3100,-1912zm5250 -2424l-5398 -3088c569,3396 -394,4581 -3117,5467 310,400 2326,1468 2754,1709 935,529 1805,1035 2699,1550 948,547 1811,1292 3204,1218 1224,-65 2171,-843 2602,-1688 567,-1113 407,-2551 -243,-3426 -572,-770 -1630,-1241 -2501,-1742zm-16113 -245l360 686c334,937 632,1339 1346,1968 -347,447 -2446,1538 -3121,1921 -1091,619 -2514,1638 -3430,152 -1359,-2205 2684,-3001 4844,-4728zm4974 2612c-3330,-833 -3503,-2879 -3132,-5456 -837,380 -1936,1081 -2784,1584 -1243,738 -4598,2361 -5211,3415 -647,1113 -713,2214 -105,3348 451,841 1439,1620 2821,1603 1429,-18 4378,-2055 5727,-2815l2682 -1678zm1290 -22671c4996,0 9519,2025 12793,5299 3274,3274 5299,7797 5299,12793 0,4996 -2025,9519 -5299,12793 -3274,3274 -7797,5299 -12793,5299 -4996,0 -9519,-2025 -12793,-5299 -3273,-3273 -5299,-7797 -5299,-12793 0,-4996 2025,-9519 5299,-12793 3273,-3273 7797,-5299 12793,-5299zm11446 6645c-2929,-2929 -6976,-4741 -11446,-4741 -4470,0 -8517,1812 -11446,4741 -2929,2929 -4741,6976 -4741,11446 0,4470 1812,8517 4741,11446 2929,2929 6976,4741 11446,4741 4470,0 8517,-1812 11446,-4741 2929,-2929 4741,-6976 4741,-11446 0,-4470 -1812,-8517 -4741,-11446zm-14596 8340c776,-545 1656,-1458 3103,-1484 1591,-29 2291,883 3264,1474 0,-2386 -7,-4774 2,-7160 17,-4717 -4170,-4542 -5614,-2857 -669,780 -794,1583 -790,2857 8,2109 -184,5184 36,7170z"/>
 </g>
</svg>
