<?xml version="1.0" encoding="UTF-8"?>
<!DOCTYPE svg PUBLIC "-//W3C//DTD SVG 1.0//EN" "http://www.w3.org/TR/2001/REC-SVG-20010904/DTD/svg10.dtd">
<!-- Creator: CorelDRAW -->
<svg xmlns="http://www.w3.org/2000/svg" xml:space="preserve" width="9.9508mm" height="9.1251mm" version="1.0" style="shape-rendering:geometricPrecision; text-rendering:geometricPrecision; image-rendering:optimizeQuality; fill-rule:evenodd; clip-rule:evenodd"
viewBox="0 0 47179 43264"
 xmlns:xlink="http://www.w3.org/1999/xlink"
 xmlns:xodm="http://www.corel.com/coreldraw/odm/2003">
 <defs>
  <style type="text/css">
   <![CDATA[
    .fil0 {fill:#00A0E3}
   ]]>
  </style>
 </defs>
 <g id="Layer_x0020_1">
  <metadata id="CorelCorpID_0Corel-Layer"/>
  <path class="fil0" d="M26581 23583c22,-547 290,-960 331,-1668 49,-837 -167,-1215 -222,-1893 339,-297 499,-544 819,-820 781,-673 2212,-2014 3315,-1915 1923,172 4163,518 6079,826 2368,381 6465,1039 8671,1805 719,250 2227,760 1327,1580 -1482,1348 -8006,2878 -10458,3544 -887,240 -4924,1283 -5623,1281 -1008,-2 -3387,-1892 -4238,-2739zm10584 5000c-1871,3844 -4933,6698 -8921,8238 98,-956 383,-1991 733,-2886l-10477 5615 11292 3714c-724,-1207 -1238,-2419 -1479,-3810 4986,-1672 8830,-5076 11117,-9793l-2265 -1078zm-16139 -23224c245,-21 487,-34 733,-48 412,-18 820,-21 1225,-8 397,19 821,35 1214,87 314,35 626,79 936,133 1668,273 3374,890 4861,1686 249,134 496,274 739,420l145 89c270,166 537,341 798,522l335 239c-912,499 -1847,840 -2857,1082l10596 5387 -3407 -11388c-551,1245 -1277,2384 -2243,3350 -495,-392 -1005,-759 -1529,-1098 -3540,-2274 -7573,-3315 -11763,-2953l216 2500zm-11646 25973c-1833,-2445 -2888,-5286 -3168,-8324 -111,-1369 -64,-2674 145,-4029 771,567 1480,1261 2121,2083l398 -11880 -8877 7905c1452,-34 2803,178 4039,639 -385,1832 -475,3635 -326,5500 311,3531 1553,6760 3657,9608l2010 -1502zm13539 -13276c4912,694 3676,7995 -1042,7205 -4710,-789 -3626,-7865 1042,-7205zm-4168 1199c-1209,-164 -2888,-1228 -3825,-1953 -508,-392 -433,-688 -615,-1341 -1030,-3703 -2420,-8684 -2955,-12496 -583,-4145 170,-4263 2490,-1969 1001,989 2584,3007 3526,4142 557,671 1121,1457 1662,2173 558,738 1116,1468 1663,2274 554,817 2195,2607 2166,3534 -20,658 -255,2791 -526,3319 -195,380 -1002,380 -1438,534 -871,307 -1854,1080 -2147,1783zm-9053 23379c-1307,-1807 3527,-16647 3790,-16934 676,-737 3395,-2140 4936,-2143 252,801 1313,1797 2102,2137 750,323 618,315 788,1271 108,607 176,1356 197,1989 46,1444 -196,1182 -1402,2851 -1208,1672 -2613,3238 -3794,4802 -262,347 -682,825 -956,1117 -1024,1090 -1898,2218 -3056,3369 -473,470 -1856,1818 -2605,1542z"/>
 </g>
</svg>
