<?xml version="1.0" encoding="UTF-8"?>
<!DOCTYPE svg PUBLIC "-//W3C//DTD SVG 1.0//EN" "http://www.w3.org/TR/2001/REC-SVG-20010904/DTD/svg10.dtd">
<!-- Creator: CorelDRAW -->
<svg xmlns="http://www.w3.org/2000/svg" xml:space="preserve" width="9.9505mm" height="9.0001mm" version="1.0" style="shape-rendering:geometricPrecision; text-rendering:geometricPrecision; image-rendering:optimizeQuality; fill-rule:evenodd; clip-rule:evenodd"
viewBox="0 0 58284 52717"
 xmlns:xlink="http://www.w3.org/1999/xlink"
 xmlns:xodm="http://www.corel.com/coreldraw/odm/2003">
 <defs>
  <style type="text/css">
   <![CDATA[
    .fil0 {fill:#00A0E3}
   ]]>
  </style>
 </defs>
 <g id="Layer_x0020_1">
  <metadata id="CorelCorpID_0Corel-Layer"/>
  <path class="fil0" d="M17616 3423c-1071,-4534 22682,-4504 21836,-265l-3448 17283c-5165,-3326 -9908,-2922 -14366,1l-4023 -17019zm-5618 48957c-3391,3195 -15241,-17391 -11148,-18779l16691 -5655c-297,6136 2424,10042 7184,12441l-12727 11993zm45298 -19696c4463,1339 -7440,21895 -10688,19044l-13244 -11628c5463,-2810 7484,-7120 7182,-12442l16749 5026zm-28278 -9867c3691,0 6683,2992 6683,6683 0,3691 -2992,6683 -6683,6683 -3691,0 -6683,-2992 -6683,-6683 0,-3691 2992,-6683 6683,-6683z"/>
 </g>
</svg>
