<?xml version="1.0" encoding="UTF-8"?>
<!DOCTYPE svg PUBLIC "-//W3C//DTD SVG 1.0//EN" "http://www.w3.org/TR/2001/REC-SVG-20010904/DTD/svg10.dtd">
<!-- Creator: CorelDRAW -->
<svg xmlns="http://www.w3.org/2000/svg" xml:space="preserve" width="9.9984mm" height="9mm" version="1.0" style="shape-rendering:geometricPrecision; text-rendering:geometricPrecision; image-rendering:optimizeQuality; fill-rule:evenodd; clip-rule:evenodd"
viewBox="0 0 76942 69259"
 xmlns:xlink="http://www.w3.org/1999/xlink"
 xmlns:xodm="http://www.corel.com/coreldraw/odm/2003">
 <defs>
  <style type="text/css">
   <![CDATA[
    .fil0 {fill:#00A0E3}
   ]]>
  </style>
 </defs>
 <g id="Layer_x0020_1">
  <metadata id="CorelCorpID_0Corel-Layer"/>
  <path class="fil0" d="M24790 9810c0,4743 977,14123 2533,18092 2965,-2643 6874,-4249 11158,-4249 4272,0 8171,1598 11133,4228 1471,-4125 3860,-17803 1646,-22952 -543,-1263 -1652,-2520 -2820,-3156 -3365,-1835 -5512,-1421 -8617,-1600 -813,-47 -688,-173 -1347,-173l-5398 364c-3079,329 -6022,1610 -7327,4432 -579,1252 -960,3166 -960,5014zm13690 16921c7565,0 13698,6133 13698,13698 0,7565 -6133,13698 -13698,13698 -7565,0 -13698,-6133 -13698,-13698 0,-7565 6133,-13698 13698,-13698zm5269 29629c1236,1720 4460,4085 5762,5251 1423,1275 5697,4172 7313,5217 7929,5122 12277,1544 16406,-5879 5813,-10447 5635,-14223 -6610,-19723 -2226,-1000 -8243,-3645 -11700,-4152 220,1084 336,2206 336,3354 0,7425 -4823,13722 -11507,15931zm-21710 -19283c-2690,406 -6927,2129 -8760,2858 -782,311 -1454,589 -2172,912 -4587,2065 -11950,5157 -11028,11403 475,3220 2433,6690 3855,9064 3637,6074 7317,10838 15591,5876 713,-428 1224,-711 1914,-1170 2986,-1991 4670,-3406 7374,-5540 860,-680 3271,-2769 4340,-4139 -6653,-2226 -11448,-8510 -11448,-15913 0,-1148 116,-2269 336,-3352z"/>
 </g>
</svg>
