<?xml version="1.0" encoding="UTF-8"?>
<!DOCTYPE svg PUBLIC "-//W3C//DTD SVG 1.0//EN" "http://www.w3.org/TR/2001/REC-SVG-20010904/DTD/svg10.dtd">
<!-- Creator: CorelDRAW -->
<svg xmlns="http://www.w3.org/2000/svg" xml:space="preserve" width="9.8674mm" height="9.0001mm" version="1.0" style="shape-rendering:geometricPrecision; text-rendering:geometricPrecision; image-rendering:optimizeQuality; fill-rule:evenodd; clip-rule:evenodd"
viewBox="0 0 108430 98900"
 xmlns:xlink="http://www.w3.org/1999/xlink"
 xmlns:xodm="http://www.corel.com/coreldraw/odm/2003">
 <defs>
  <style type="text/css">
   <![CDATA[
    .fil0 {fill:#00A0E3}
   ]]>
  </style>
 </defs>
 <g id="Layer_x0020_1">
  <metadata id="CorelCorpID_0Corel-Layer"/>
  <path class="fil0" d="M54226 39662c11279,0 20423,9144 20423,20423 0,11279 -9144,20423 -20423,20423 -11279,0 -20423,-9144 -20423,-20423 0,-11279 9144,-20423 20423,-20423zm7304 44147c1987,4099 8796,9455 12760,11421 3274,1623 5849,2655 9636,3310 1693,292 5771,453 7957,232 11113,-1124 19126,-10777 15777,-22038 -718,-2413 -1500,-4131 -2607,-6208 -1903,-3569 -5022,-6689 -8251,-9101 -1700,-1269 -3505,-2452 -5425,-3389 -4395,-2147 -8091,-3123 -12907,-3278 376,1716 575,3498 575,5326 0,11163 -7372,20605 -17514,23725zm-31548 -29049c-6936,240 -12452,2354 -18102,6427 -998,720 -1513,1248 -2436,1970 -926,724 -1542,1244 -2280,2126 -2703,3231 -4992,6417 -6327,11027 -2922,10091 2014,18445 11579,21571 2224,726 5076,1097 7494,1002 9290,-364 17908,-4276 23874,-11027 713,-807 2187,-2646 2993,-4092 -10067,-3164 -17370,-12571 -17370,-23681 0,-1829 200,-3609 575,-5324zm3819 -29497c0,7466 753,11006 3591,16587 4424,-4087 10337,-6584 16834,-6584 6469,0 12360,2477 16778,6533 2808,-5542 3565,-9136 3565,-16536 0,-6353 -2926,-13534 -5744,-17118 -14483,-18427 -35023,-2491 -35023,17118z"/>
 </g>
</svg>
