<?xml version="1.0" encoding="UTF-8"?>
<!DOCTYPE svg PUBLIC "-//W3C//DTD SVG 1.0//EN" "http://www.w3.org/TR/2001/REC-SVG-20010904/DTD/svg10.dtd">
<!-- Creator: CorelDRAW -->
<svg xmlns="http://www.w3.org/2000/svg" xml:space="preserve" width="9mm" height="9mm" version="1.0" style="shape-rendering:geometricPrecision; text-rendering:geometricPrecision; image-rendering:optimizeQuality; fill-rule:evenodd; clip-rule:evenodd"
viewBox="0 0 165549 165549"
 xmlns:xlink="http://www.w3.org/1999/xlink"
 xmlns:xodm="http://www.corel.com/coreldraw/odm/2003">
 <defs>
  <style type="text/css">
   <![CDATA[
    .fil0 {fill:#00A0E3}
   ]]>
  </style>
 </defs>
 <g id="Layer_x0020_1">
  <metadata id="CorelCorpID_0Corel-Layer"/>
  <path class="fil0" d="M111552 92474c0,5710 -2327,11982 -5233,16433 -2088,3197 -8241,9227 -11905,10080 349,1308 6948,7214 7897,7948 1107,855 1733,2036 3098,2400l0 646c-4003,933 -7681,6144 -24575,6144 -5803,0 -7039,-1293 -10669,-1293 -3649,0 -6813,6068 -1946,9057 2814,1727 11708,2259 16172,2259 9602,0 19478,-3808 27297,-8916l1479 -1107 6949 5338c796,677 530,75 811,1129 -833,223 -4990,3489 -7761,4849 -5314,2610 -7529,3942 -13715,5684 -14101,3973 -27557,2923 -40745,-2308 -3044,-1209 -5360,-3122 -8471,-993 -2281,1562 -2835,5128 -381,7580 1335,1335 9539,4343 11537,4954 6491,1983 13443,3068 20420,3191l2669 0c9388,-166 18727,-2088 26964,-5927 6208,-2892 10832,-5610 16273,-9918 467,-370 808,-743 1242,-1056 2079,-1492 2489,2351 13308,2351 12166,0 23280,-11116 23280,-23280 0,-9414 -3044,-15703 -9473,-20920 -1083,-879 -2253,-1604 -3565,-2257 -7702,-3837 -15775,-7141 -24027,-9924 -2892,-975 -5423,-1919 -8404,-2912l-8851 -2789c0,1766 324,2228 324,3556zm-47855 -969c0,6526 1017,10409 5323,15047 1186,1277 3572,3017 5229,3824 8553,4166 18576,1109 23856,-6447 747,-1067 1262,-1913 1812,-3039 3414,-6982 2424,-15622 -2827,-21439l-927 -1012c-48,-46 -118,-112 -166,-158 -1751,-1678 -2875,-2625 -5323,-3730 -5434,-2454 -10978,-2516 -16312,136 -2402,1196 -3263,2156 -5088,3964 -877,870 -1420,1361 -2090,2439 -1911,3074 -3488,6392 -3488,10415zm-4851 -68548c0,6188 228,8002 1113,14085l4703 26661c316,1286 828,4190 1297,5169 8163,-5465 16555,-7790 26291,-3981 3747,1466 4376,1998 7337,3981 546,-1139 3193,-13117 3232,-14874 3635,304 12186,8702 15262,13194 616,898 903,1124 1446,2110 4380,7941 3675,8978 5373,12411 2147,4341 9284,3136 9284,-2494 0,-3633 -4906,-13292 -7387,-16862 -3984,-5735 -6686,-8145 -11785,-12466 -2209,-1873 -5000,-3355 -7558,-4727 -1023,-550 -1692,-982 -2693,-1512 0,-3052 1227,-6705 1293,-9699 5868,3105 9924,4251 16069,9475 4317,3672 9085,8513 12258,13286 5882,8848 9186,16987 10534,27943 294,2393 390,7819 5114,7819 6151,0 5141,-6296 4672,-9521 -2299,-15792 -8651,-29861 -19950,-41161 -1339,-1339 -2503,-2614 -3876,-3885 -5419,-5012 -12078,-8792 -18672,-12045 -1731,-853 -3771,-1427 -5502,-2259 0,-12403 -10349,-23604 -22634,-23604 -7691,0 -13327,2165 -18190,7030 -3296,3296 -7030,9477 -7030,15926zm-48500 68224c0,5321 195,10163 1293,14874l-3337 2483c-5601,4670 -8303,11358 -8303,19182 0,12164 11114,23280 23280,23280 7829,0 10580,-1451 16167,-5174 7496,-4992 14754,-11500 21713,-17088l7630 -6918c894,-894 1998,-1529 2345,-2831 -4280,-997 -9199,-6256 -11736,-9606 -2954,-3901 -5402,-10843 -5402,-15937 0,-1621 324,-1990 324,-3881l-10856 3370c-1405,399 -2362,848 -3694,1157 0,-10054 933,-12721 4157,-20740 1014,-2520 2995,-5500 4615,-7670 1604,-2148 5132,-5195 5132,-7479 0,-2767 -3863,-8537 -9466,-2675 -9407,9841 -14462,23545 -14462,37594 0,2150 324,2800 324,4851 -1920,160 -7284,3068 -9377,3556 0,-6789 -839,-7972 -29,-16520 447,-4733 1812,-10354 3489,-14616 4600,-11699 10647,-20175 20241,-27937 1987,-1608 5722,-3285 5722,-6563 0,-3769 -3800,-6105 -7104,-4523 -1464,701 -6208,4507 -7527,5735 -745,690 -1043,767 -1782,1451 -613,567 -1014,1021 -1613,1621 -3114,3116 -6672,7363 -9070,10976 -7612,11469 -12674,25222 -12674,40030z"/>
 </g>
</svg>
