<?xml version="1.0" encoding="UTF-8"?>
<!DOCTYPE svg PUBLIC "-//W3C//DTD SVG 1.0//EN" "http://www.w3.org/TR/2001/REC-SVG-20010904/DTD/svg10.dtd">
<!-- Creator: CorelDRAW -->
<svg xmlns="http://www.w3.org/2000/svg" xml:space="preserve" width="10.2287mm" height="9mm" version="1.0" style="shape-rendering:geometricPrecision; text-rendering:geometricPrecision; image-rendering:optimizeQuality; fill-rule:evenodd; clip-rule:evenodd"
viewBox="0 0 1030111 906371"
 xmlns:xlink="http://www.w3.org/1999/xlink"
 xmlns:xodm="http://www.corel.com/coreldraw/odm/2003">
 <defs>
  <style type="text/css">
   <![CDATA[
    .fil0 {fill:#00A0E3}
   ]]>
  </style>
 </defs>
 <g id="Layer_x0020_1">
  <metadata id="CorelCorpID_0Corel-Layer"/>
  <path class="fil0" d="M477396 461534c-16969,3958 -16707,13062 -16707,33415 -6002,-1601 -19326,-12065 -26758,-17100 -41884,-28359 -90033,-65198 -131132,-92319l-52731 -37081c-39115,-28933 -91674,-62630 -130115,-91261 -9356,-6969 -17060,-13878 -30978,-13938 -36225,-131 -81493,48169 -88452,88250 -1198,6959 -514,16637 4310,24109 2417,3746 2981,3958 5962,6576l327079 211718c8157,5106 19829,15016 28833,17120 11450,-21642 25358,-36567 49790,-46285 58662,-23324 176239,-28188 225384,17533 7825,7281 18430,17694 21380,28752 8631,-2014 19356,-11058 27816,-16043l190217 -123045c25832,-17251 138282,-84141 145372,-98996 12870,-27000 -13495,-61653 -27493,-76951l-4069 -4290c-302,-292 -765,-705 -1088,-997 -2387,-2226 -3152,-2790 -5458,-4985 -21612,-20605 -48018,-31552 -75017,-11259l-329949 231830c-4925,3716 -7714,6909 -14311,8661 0,-27443 -151,-25630 -18792,-35500l0 -338318c-11350,-5448 -66538,-13102 -72057,5217 -3162,10494 -1037,316505 -1037,335186zm-39679 -411412c0,28198 19225,41401 25056,50122 32065,-7473 53355,-13011 87767,-4169 11390,2921 13394,5801 21380,-1400 36416,-32831 24915,-94675 -50666,-94675 -29477,0 -58733,1561 -75591,26748 -2528,3766 -7946,18399 -7946,23374zm152452 684995c4280,6395 22267,16244 31743,22559 65077,43425 137164,86991 201748,130316 15076,10111 22035,18379 42176,18379 36718,0 88482,-57847 57585,-84726l-150709 -106176c-13888,-9608 -95380,-68330 -103185,-70153 -775,34936 -55762,84303 -79358,89801zm-206753 -110678c0,36940 15529,56155 47182,78119 19054,13233 59629,32559 82298,32559 30162,0 67988,-19024 86528,-32509 12115,-8812 21793,-16697 31934,-28631 28500,-33566 22045,-83114 -24432,-105985 -55258,-27181 -223511,-29548 -223511,56447zm-286111 215102c0,34362 37292,66830 71009,66830 15086,0 26335,-10766 36728,-17574 6365,-4169 10383,-6143 16738,-10403l67253 -43435c15267,-9779 145674,-92218 150770,-99842 -7452,-1984 -19638,-10705 -26275,-15489 -21400,-15459 -50676,-45419 -53083,-74312 -7795,1823 -26819,16657 -34301,22095 -11652,8480 -21692,14693 -33113,23264l-185323 130034c-4431,3495 -10403,10937 -10403,18832z"/>
 </g>
</svg>
