<?xml version="1.0" encoding="UTF-8"?>
<!DOCTYPE svg PUBLIC "-//W3C//DTD SVG 1.0//EN" "http://www.w3.org/TR/2001/REC-SVG-20010904/DTD/svg10.dtd">
<!-- Creator: CorelDRAW -->
<svg xmlns="http://www.w3.org/2000/svg" xml:space="preserve" width="9.5mm" height="8.555mm" version="1.0" style="shape-rendering:geometricPrecision; text-rendering:geometricPrecision; image-rendering:optimizeQuality; fill-rule:evenodd; clip-rule:evenodd"
viewBox="0 0 295207 265841"
 xmlns:xlink="http://www.w3.org/1999/xlink"
 xmlns:xodm="http://www.corel.com/coreldraw/odm/2003">
 <defs>
  <style type="text/css">
   <![CDATA[
    .fil0 {fill:#00A0E3}
   ]]>
  </style>
 </defs>
 <g id="Layer_x0020_1">
  <metadata id="CorelCorpID_0Corel-Layer"/>
  <path class="fil0" d="M147035 126498c4301,0 8440,867 12228,2433 3922,1622 7455,3996 10404,6936 2977,2964 5370,6507 6998,10429 1582,3797 2452,7955 2452,12293 0,4335 -870,8490 -2449,12287 -1631,3928 -4027,7467 -7001,10429 -2949,2940 -6482,5314 -10404,6936 -3788,1566 -7927,2433 -12228,2433 -4304,0 -8440,-867 -12231,-2433 -3922,-1622 -7458,-3999 -10407,-6936 -2968,-2961 -5370,-6507 -6998,-10432 -1575,-3797 -2449,-7952 -2449,-12284 0,-4335 873,-8490 2449,-12290 1631,-3925 4030,-7467 6998,-10432 2949,-2937 6485,-5314 10407,-6936 3791,-1566 7927,-2433 12231,-2433zm-126855 134593l-20180 -27125 92639 -63267 23700 31870c-30882,21084 -61773,42156 -92630,63274l-3530 -4751zm271410 -25596l-18859 27423 -94960 -59986 22501 -32681 94935 59974 -3617 5270zm-130798 -125603l-34232 -289 562 -109602 40390 345 -562 109602 -6159 -56z"/>
 </g>
</svg>
