<?xml version="1.0" encoding="UTF-8"?>
<!DOCTYPE svg PUBLIC "-//W3C//DTD SVG 1.0//EN" "http://www.w3.org/TR/2001/REC-SVG-20010904/DTD/svg10.dtd">
<!-- Creator: CorelDRAW -->
<svg xmlns="http://www.w3.org/2000/svg" xml:space="preserve" width="9.8204mm" height="8.5759mm" version="1.0" style="shape-rendering:geometricPrecision; text-rendering:geometricPrecision; image-rendering:optimizeQuality; fill-rule:evenodd; clip-rule:evenodd"
viewBox="0 0 137279 119882"
 xmlns:xlink="http://www.w3.org/1999/xlink"
 xmlns:xodm="http://www.corel.com/coreldraw/odm/2003">
 <defs>
  <style type="text/css">
   <![CDATA[
    .fil0 {fill:#00A0E3;fill-rule:nonzero}
   ]]>
  </style>
 </defs>
 <g id="Layer_x0020_1">
  <metadata id="CorelCorpID_0Corel-Layer"/>
  <path class="fil0" d="M60249 2627c1180,-1185 2901,-1993 5101,-2362l49 -8 8 0c2260,-366 4577,-329 6591,48 2072,384 3850,1136 4965,2179l4 3c626,596 1120,1328 1451,2160 326,812 499,1719 499,2684 0,1392 -335,2667 -1008,3819 -665,1142 -1662,2161 -2985,3056l-1 -1 -1116 759 -28 22612 1 0c0,11210 0,16954 63,19839 56,2582 66,2705 77,2708l0 1c189,55 454,178 737,330l0 3c308,168 649,375 941,569l8 8c226,158 474,294 685,384 98,42 145,78 172,95 419,-284 2576,-1788 5850,-4076 3292,-2301 8874,-6214 15387,-10782 5797,-4076 11417,-8016 15777,-11057 3829,-2670 6381,-4434 6771,-4668l3 -1c675,-400 1143,-642 1650,-784 513,-144 1033,-183 1809,-183 520,0 1106,57 1668,151 570,95 1125,235 1567,396l8 1c1735,663 3566,1930 5186,3517 1601,1567 3012,3458 3942,5399 890,1837 1280,3595 1181,5150 -102,1602 -714,2994 -1826,4051l1 1c-253,253 -1859,1362 -4237,2941 -2354,1561 -5506,3616 -8879,5779 -5919,3834 -12588,8136 -17971,11614l-4328 2793 -11270 7270 -14 8c-412,247 -663,424 -788,584 -85,112 -115,256 -115,472 0,201 224,470 2321,2037l0 1c2307,1726 6639,4777 14802,10501 4525,3168 8680,6109 11837,8366 3692,2641 6165,4451 6440,4710l3 3c280,264 558,639 790,1025 249,415 457,868 568,1233l7 17c284,1067 239,2196 -62,3312 -496,1834 -1693,3655 -3242,5139l-1 0c-1546,1480 -3456,2638 -5382,3154 -1313,351 -2645,410 -3885,74l-8 -3c-428,-122 -2506,-1345 -6033,-3546 -3409,-2126 -8248,-5214 -14324,-9139l-18849 -12183 -1371 280c-570,130 -1195,203 -1866,224l-3 0c-650,20 -1362,-8 -2128,-78l0 3 -1760 -148c-510,-39 -914,-66 -1089,-66l-31 -1c-116,-7 -1613,882 -4672,2782 -3175,1972 -7895,4985 -14363,9162 -5238,3382 -10149,6535 -13778,8850 -3362,2143 -5550,3513 -5772,3601l-13 4c-257,96 -692,183 -1180,242 -467,55 -1002,91 -1490,91l-6 -1c-1244,-14 -2494,-317 -3724,-903 -1202,-573 -2397,-1424 -3558,-2543 -1778,-1707 -2906,-3607 -3313,-5404 -422,-1863 -80,-3625 1090,-4977 210,-242 2525,-1954 6049,-4479 3149,-2256 7459,-5305 12265,-8661 8211,-5752 12588,-8830 14962,-10600 2136,-1592 2378,-1875 2378,-2074l1 -21c8,-210 -17,-349 -123,-474l0 -1c-172,-203 -527,-450 -1142,-839 -3260,-2044 -14370,-9222 -24867,-16035 -10817,-7022 -21005,-13673 -21335,-13959l-15 -17 -210 -199 -13 -10c-1543,-1545 -2042,-3718 -1573,-6130 452,-2330 1817,-4898 4008,-7332 280,-312 569,-615 856,-902l1 0c1392,-1378 2680,-2378 3970,-3049 1314,-684 2636,-1036 4078,-1106 762,-42 1339,-41 1820,17 514,60 925,190 1318,393l3 3c274,144 1320,835 2789,1830 1455,988 3356,2300 5350,3692l3 0 15301 10748 20132 14144 1 1 949 675 1385 -737 1392 -741 0 -22521 1 0 -27 -22558 -1118 -760c-1324,-896 -2319,-1915 -2983,-3053 -672,-1152 -1008,-2427 -1008,-3819l1 -4c14,-1901 651,-3489 1855,-4698zm13351 2754c-249,-182 -544,-345 -872,-477 -623,-250 -1939,-435 -3306,-512 -1359,-75 -2748,-45 -3545,131l-3 1c-1095,236 -1915,590 -2448,1058l-1 -1c-478,424 -724,960 -724,1612 0,465 138,1019 361,1533 221,513 520,977 839,1261l0 -1c99,88 -66,215 41,178 48,-17 215,-219 544,-628l6 -8c604,-719 1180,-1218 1841,-1539l3 0c668,-324 1403,-463 2321,-463 920,0 1669,138 2332,454 664,316 1229,809 1767,1513l4 7c172,233 356,450 512,604l6 -18c179,-193 404,-471 629,-773l-1 -1c229,-313 407,-628 528,-931 238,-594 281,-1167 140,-1675 -138,-503 -467,-960 -967,-1325l-3 0zm-323 4849c49,0 21,-15 0,-43 -20,27 -43,43 0,43zm-3874 6795c-48,-3605 -78,-5003 -98,-5023 -29,-29 -110,-66 -214,-98l-3 -1c-134,-42 -292,-68 -435,-68 -141,0 -298,27 -432,68l-4 1c-103,32 -185,68 -214,98 -20,20 -50,1417 -98,5023 -49,3688 -70,9713 -70,18927l0 23468 818 0 819 0 0 -23468c0,-9212 -20,-15240 -70,-18927zm-15968 44596l-14548 -10206 1 -1c-6722,-4712 -12996,-9072 -17654,-12279 -4392,-3022 -7171,-4908 -7289,-4933 -770,-119 -1698,99 -2716,625 -1081,558 -2253,1459 -3442,2660l-1 -1 -383 405 1 1c-1336,1466 -2312,3112 -2779,4552l0 3c-426,1314 -432,2418 112,2952l34 32 14 11c124,124 714,542 1575,1127 1041,707 2516,1682 4069,2697 1708,1090 6105,3935 11436,7386l11182 7233c4881,3154 9281,5980 12430,7986 2687,1712 4436,2866 4894,3155 81,-117 171,-270 249,-433l-1 0c568,-1396 1925,-2747 3758,-3861l-1 -1c1799,-1095 4072,-1977 6499,-2462l4 0c591,-113 1134,-222 1573,-315l-9016 -6332zm-2944 13476c46,0 29,0 -7,-3l7 3zm78876 -37711c-1044,-1064 -2175,-1984 -3080,-2444l0 1c-923,-449 -1740,-675 -2469,-675l0 -1c-488,14 -937,151 -3214,1648 -2365,1554 -6714,4605 -15022,10445l-12672 8923 -11870 8348 -6156 4335 668 112c2636,442 4954,1234 6820,2300 1903,1086 3349,2464 4209,4054l1 4c120,226 250,436 359,586 478,-302 2284,-1503 5088,-3293 3523,-2249 8601,-5516 14256,-9167l94 -60c25210,-16271 26048,-16811 26426,-17285l1 1c199,-260 219,-897 88,-1694 -143,-878 -484,-1904 -979,-2834l-1 0c-544,-1025 -1501,-2234 -2550,-3303zm-42550 37711l38 -21c-55,13 -99,21 -38,21zm-14184 -10831l-95 -46 -8 -4c-486,-238 -2021,-383 -3597,-411 -1561,-27 -3133,66 -3739,295l-4 1 -91 34 -3 0 -327 119 226 185c1236,991 3407,2551 3660,2551 35,0 995,-642 2013,-1334l1 0c773,-524 1545,-1069 1964,-1390zm9174 11053c-1188,-1202 -3011,-2090 -5491,-2687l-4 0c-1244,-305 -3658,-538 -6124,-643 -2423,-103 -4884,-84 -6327,113l-4 0c-3368,433 -5921,1300 -7617,2569 -1626,1216 -2459,2825 -2459,4796 0,362 29,794 75,1199l0 3c48,432 113,836 178,1095 301,1055 1255,2369 2561,3642 1334,1301 3026,2547 4758,3426 2058,1029 3893,1697 5536,2002 1608,296 3033,249 4313,-144l3 0c3623,-1110 6731,-2828 8924,-4793 2137,-1915 3400,-4057 3400,-6078 0,-1840 -566,-3331 -1721,-4500zm-27604 13692c-1248,-1136 -2386,-2360 -2943,-3232l-8 -13c-183,-306 -375,-593 -528,-802l1 -1c-64,-92 228,-152 91,-152 -67,0 -921,712 -2560,1848 -1696,1177 -3938,2747 -6323,4433 -2567,1813 -5850,4127 -9023,6356 -2733,1921 -5596,3927 -7979,5589l1 1c-2139,1504 -4117,2944 -5594,4058l-1 0c-1417,1067 -2340,1791 -2445,1922 -148,361 -92,860 147,1443 277,675 793,1441 1520,2246l1 -1c769,847 1609,1522 2444,1984l3 0c819,454 1641,712 2395,735 126,3 229,14 319,22 320,32 484,48 2301,-1051l1 1c1926,-1167 5647,-3576 13079,-8386l4616 -2987 3 -3c6380,-4118 10490,-6801 12943,-8466 1335,-906 2399,-1233 2895,-1405l257 -208c-102,-75 -352,-231 -672,-419 -344,-204 -819,-477 -1315,-753 -1037,-582 -2393,-1637 -3623,-2758zm62595 17319c-2711,-1991 -7013,-5044 -13448,-9562l1 -1 -12138 -8509c-3036,-2125 -4711,-3447 -4802,-3447 -145,0 157,87 53,222 -212,280 -482,649 -751,1032l1 0c-707,1040 -1609,2047 -2678,3005 -1076,965 -2327,1884 -3725,2743l-8 4c-637,379 -1184,746 -1545,1022l4834 3148 12568 8146 -1 1c8674,5606 13088,8460 15553,9940 2291,1374 2646,1415 3204,1403l4 0c779,-11 1542,-203 2298,-586l0 -1c780,-396 1560,-998 2354,-1819l1 -1c660,-671 1201,-1459 1540,-2195 312,-677 453,-1289 351,-1677l-6 -28c-24,-120 -1075,-941 -3662,-2841z"/>
 </g>
</svg>
