<?xml version="1.0" encoding="UTF-8"?>
<!DOCTYPE svg PUBLIC "-//W3C//DTD SVG 1.0//EN" "http://www.w3.org/TR/2001/REC-SVG-20010904/DTD/svg10.dtd">
<!-- Creator: CorelDRAW -->
<svg xmlns="http://www.w3.org/2000/svg" xml:space="preserve" width="9.1001mm" height="9.0942mm" version="1.0" style="shape-rendering:geometricPrecision; text-rendering:geometricPrecision; image-rendering:optimizeQuality; fill-rule:evenodd; clip-rule:evenodd"
viewBox="0 0 74624 74576"
 xmlns:xlink="http://www.w3.org/1999/xlink"
 xmlns:xodm="http://www.corel.com/coreldraw/odm/2003">
 <defs>
  <style type="text/css">
   <![CDATA[
    .fil0 {fill:#00A0E3}
   ]]>
  </style>
 </defs>
 <g id="Layer_x0020_1">
  <metadata id="CorelCorpID_0Corel-Layer"/>
  <path class="fil0" d="M30583 67383c602,289 1117,736 1489,1283 412,606 656,1341 656,2128 0,1044 -423,1991 -1108,2676 -683,683 -1631,1107 -2675,1107 -1044,0 -1990,-424 -2674,-1107 -685,-686 -1109,-1632 -1109,-2676 0,-825 267,-1592 717,-2214 404,-558 958,-1002 1599,-1273 -20,-1936 -28,-4182 -28,-6387 2,-2755 16,-5545 34,-7671 7,-1271 -660,-2300 -1326,-3324 -256,-395 -513,-791 -736,-1202 -176,-321 -734,-312 -1239,-304 -3460,34 -6936,4 -10398,4l0 -26 -2481 -6c-2231,-7 -4464,-15 -6697,18 -944,13 -1758,-205 -2446,-617 -722,-433 -1305,-1076 -1748,-1886 -458,-833 -501,-1627 -288,-2378 203,-716 642,-1380 1170,-1998 1185,-1394 2513,-2509 4014,-3281 1507,-776 3190,-1206 5075,-1232 2540,-35 5078,-15 7602,120 2536,134 5067,385 7588,804 397,66 762,54 1092,-43 326,-97 632,-282 916,-561 699,-681 1473,-1227 2303,-1656 828,-427 1715,-742 2640,-957 353,-87 584,-228 718,-418 138,-197 194,-476 194,-830l0 -16173c0,-258 -25,-503 -90,-726 -62,-216 -164,-422 -320,-617 -955,-1222 -1830,-2490 -2646,-3789 -814,-1294 -1579,-2626 -2310,-3971 -465,-851 -870,-1747 -1169,-2677 -301,-937 -496,-1915 -540,-2919 -34,-896 116,-1529 509,-1955 400,-435 1009,-621 1893,-621 3028,-17 5891,-27 8580,-27 2690,0 5555,10 8592,29 909,7 1545,207 1949,665 401,453 537,1121 449,2062 -122,1324 -440,2582 -907,3779 -465,1190 -1081,2326 -1807,3414 -442,668 -859,1364 -1274,2057 -813,1360 -1630,2723 -2682,3951 -153,176 -250,378 -308,590 -62,229 -82,482 -82,744l3 5335c6,3561 10,7129 -5,10693 2,800 473,1080 1180,1498l98 60c1401,830 2514,874 3505,486 1034,-405 1985,-1284 2984,-2244 3087,-2965 6315,-5779 9540,-8591l688 -600c1305,-1137 2727,-1850 4237,-2186 1572,-349 3238,-289 4968,128l2368 535c1015,226 1905,675 2561,1270 668,604 1100,1363 1194,2198 119,1042 -134,1906 -616,2630 -467,703 -1149,1265 -1905,1729 -4747,2900 -9578,5805 -14404,8709l-6251 3766 -265 174 -254 203c-145,124 -301,225 -456,326 -333,215 -667,432 -577,882 115,585 627,777 1163,979l5482 2197c1677,679 3405,1390 5211,2149 399,169 818,309 1235,448 722,240 1445,483 2132,889 833,495 1484,1127 1891,1834 408,709 572,1495 440,2296 -135,795 -522,1480 -1119,2014 -578,517 -1354,891 -2283,1078l-1365 288c-901,193 -1802,387 -2716,539 -1825,310 -3498,102 -5069,-440 -1552,-536 -3001,-1401 -4401,-2413 -635,-458 -1315,-921 -1994,-1383l-1523 -1048c-265,-186 -517,-267 -763,-265 -253,2 -521,98 -802,261 -2203,1294 -4471,1880 -6774,1990 -2284,109 -4604,-252 -6931,-851 -432,-112 -727,-120 -885,-14 -137,91 -203,320 -203,692 -16,1475 -24,3396 -24,5375l14 6477zm-6213 -22705c471,-447 737,-1140 798,-2075l45 -680c6,-425 -34,-694 -156,-851 -178,-225 -622,-329 -1450,-450 -2970,-435 -5957,-462 -8939,-487 -1340,-11 -2682,-24 -4010,-71 -1370,-45 -2572,207 -3647,710 -1082,506 -2050,1274 -2946,2250l-94 103c-463,507 -922,1011 -600,1689 283,586 910,577 1502,568 2993,-30 5999,0 8994,-2l0 -37 8417 0c922,0 1618,-223 2086,-668zm5266 -41173c-197,298 -75,873 324,1781 882,1999 2071,3834 3256,5662l1059 1649c66,105 167,220 279,308 69,55 138,95 189,101 870,125 1738,191 2597,192 846,2 1698,-57 2545,-179 80,-12 178,-62 271,-125 98,-66 185,-151 236,-234 391,-620 799,-1236 1205,-1849 1291,-1948 2583,-3900 3377,-6096 226,-630 269,-1044 112,-1269 -160,-227 -571,-334 -1247,-343 -1428,-15 -2855,-10 -4278,-5l-8152 5c-998,-11 -1577,104 -1773,403zm8608 29779l0 -7402 -11 1 0 -8294c0,-398 -21,-780 -155,-1018 -107,-189 -332,-309 -768,-293 -786,31 -787,691 -787,1323l-2 15695c2,374 11,745 128,986 92,189 289,321 685,336 435,16 658,-109 762,-303 132,-246 148,-637 148,-1031zm-7598 5384c-841,598 -1514,1465 -2057,2523l-110 215c-73,176 -125,355 -140,526 -16,211 21,417 146,600 111,153 262,205 421,207 216,2 484,-76 719,-146 981,-290 1984,-520 3049,-666 1059,-145 2179,-206 3393,-161 1274,48 2356,-59 3327,-418 960,-354 1827,-963 2678,-1916l67 -76c333,-366 658,-727 546,-1145 -121,-447 -688,-448 -1144,-448 -2436,-24 -5139,-24 -7840,-24 -1221,3 -2226,339 -3056,928zm13413 12301c1028,-845 1824,-1983 2203,-3242l-8 -8 59 -227c124,-481 134,-851 -2,-1125 -139,-274 -444,-494 -948,-682 -1279,-473 -2586,-709 -3917,-820 -1357,-112 -2730,-98 -4122,-74l-958 12c-2310,23 -4700,48 -6996,905 -545,203 -861,445 -991,738 -131,296 -97,688 58,1178 419,1324 1341,2609 2506,3526 1073,844 2351,1374 3626,1333 957,-35 1918,-24 2878,-11 948,11 1899,23 2850,-12 1365,-49 2689,-611 3760,-1491zm14008 319c-2429,-959 -4851,-1913 -7371,-2921l-27 -19c-450,-177 -813,-186 -1096,-62 -319,141 -574,463 -770,912 -201,470 -387,941 -372,1340 12,350 200,690 718,998 583,349 1130,762 1674,1170 375,281 750,565 1137,824l515 346c1778,1207 3563,2417 5841,2212l995 -88c1342,-110 2692,-221 3945,-699l189 -70c393,-142 823,-299 823,-705 0,-288 -103,-516 -266,-695 -183,-203 -453,-363 -751,-491l-5185 -2053zm-1083 -15430c4460,-2723 9066,-5523 13783,-8379l230 -139c135,-107 245,-221 325,-348 115,-180 176,-395 176,-654 0,-247 -91,-408 -226,-521 -171,-145 -432,-251 -691,-351 -781,-298 -1588,-492 -2468,-627 -903,-139 -1878,-220 -2983,-289l-29 -3c-550,-75 -1160,48 -1776,306 -706,295 -1423,775 -2076,1351 -3868,3404 -7675,6822 -11477,10236l-5369 4811c-157,140 -293,276 -357,408 -49,103 -61,228 -7,384 54,155 146,253 258,316 142,80 334,123 535,152 1101,165 2020,-403 2926,-966 3081,-1884 6150,-3791 9225,-5685zm-27575 34472c-118,-118 -283,-192 -463,-192 -180,0 -345,74 -463,192 -118,118 -192,283 -192,463 0,180 74,345 192,463 118,118 283,192 463,192 180,0 345,-74 463,-192 118,-118 192,-283 192,-463 0,-180 -74,-345 -192,-463z"/>
 </g>
</svg>
