<?xml version="1.0" encoding="UTF-8"?>
<!DOCTYPE svg PUBLIC "-//W3C//DTD SVG 1.0//EN" "http://www.w3.org/TR/2001/REC-SVG-20010904/DTD/svg10.dtd">
<!-- Creator: CorelDRAW -->
<svg xmlns="http://www.w3.org/2000/svg" xml:space="preserve" width="9.0001mm" height="8.3765mm" version="1.0" style="shape-rendering:geometricPrecision; text-rendering:geometricPrecision; image-rendering:optimizeQuality; fill-rule:evenodd; clip-rule:evenodd"
viewBox="0 0 53618 49903"
 xmlns:xlink="http://www.w3.org/1999/xlink"
 xmlns:xodm="http://www.corel.com/coreldraw/odm/2003">
 <defs>
  <style type="text/css">
   <![CDATA[
    .fil0 {fill:#00A0E3;fill-rule:nonzero}
   ]]>
  </style>
 </defs>
 <g id="Layer_x0020_1">
  <metadata id="CorelCorpID_0Corel-Layer"/>
  <path class="fil0" d="M52997 32285l-268 -828 -5112 -1280c31,-464 45,-929 45,-1399 0,-5961 -2560,-11648 -7024,-15604l-2083 2350c3793,3360 5966,8191 5966,13254 0,208 -3,416 -11,622l-3320 -832c-47,-3259 -1207,-6423 -3280,-8936l-2423 1999c1441,1744 2317,3894 2520,6140l-3383 -847c-366,-1543 -1179,-2915 -2295,-3971l5144 -17946 -581 -646c-2494,-2771 -6166,-4361 -10074,-4361 -3908,0 -7579,1591 -10072,4361l-582 646 1450 5060c-1138,562 -2231,1232 -3267,2008 -3502,2618 -6142,6349 -7434,10504l2999 932c1427,-4589 4560,-8250 8581,-10380l948 3310c-1235,739 -2366,1666 -3343,2760l2342 2093c573,-642 1214,-1210 1906,-1696l962 3356c-1110,1051 -1921,2415 -2288,3948l-3387 839c116,-1297 455,-2547 1010,-3730l-2843 -1334c-864,1842 -1320,3810 -1354,5853l-11544 2858 -270 827c-1160,3544 -708,7518 1240,10907 1948,3387 5156,5778 8801,6559l851 182 3669 -3784c3418,2299 7459,3542 11625,3542 1439,0 2875,-147 4270,-437l-641 -3075c-1185,247 -2405,372 -3629,372 -3423,0 -6652,-988 -9391,-2708l2376 -2451c2076,1166 4469,1831 7014,1831l0 -3141c-1689,0 -3292,-375 -4730,-1047l2426 -2504c730,220 1503,338 2304,338 794,0 1560,-115 2284,-331l12954 13435 851 -180c3647,-770 6862,-3153 8818,-6535 1958,-3382 2421,-7356 1271,-10902l0 0zm-21024 2634c1410,-1185 2409,-2845 2745,-4734l15517 3885c566,2487 135,5192 -1226,7545 -1362,2353 -3491,4074 -5930,4823l-11105 -11519zm-12299 -29061c1869,-1735 4427,-2718 7144,-2718 2719,0 5277,982 7145,2718l-4407 15377c-854,-312 -1777,-481 -2738,-481 -960,0 -1883,170 -2737,481l-4407 -15377zm-9163 40535c-2437,-754 -4562,-2483 -5917,-4839 -1354,-2356 -1779,-5062 -1206,-7548l15529 -3844c331,1890 1324,3554 2732,4742l-11138 11488zm11426 -17616c0,-2693 2190,-4883 4881,-4883 2693,0 4883,2190 4883,4883 0,2691 -2190,4881 -4883,4881 -2691,1 -4881,-2190 -4881,-4881zm0 0z"/>
 </g>
</svg>
