<?xml version="1.0" encoding="UTF-8"?>
<!DOCTYPE svg PUBLIC "-//W3C//DTD SVG 1.0//EN" "http://www.w3.org/TR/2001/REC-SVG-20010904/DTD/svg10.dtd">
<!-- Creator: CorelDRAW -->
<svg xmlns="http://www.w3.org/2000/svg" xml:space="preserve" width="8.0001mm" height="8.0002mm" version="1.0" style="shape-rendering:geometricPrecision; text-rendering:geometricPrecision; image-rendering:optimizeQuality; fill-rule:evenodd; clip-rule:evenodd"
viewBox="0 0 33322 33322"
 xmlns:xlink="http://www.w3.org/1999/xlink"
 xmlns:xodm="http://www.corel.com/coreldraw/odm/2003">
 <defs>
  <style type="text/css">
   <![CDATA[
    .fil0 {fill:#00A0E3;fill-rule:nonzero}
   ]]>
  </style>
 </defs>
 <g id="Layer_x0020_1">
  <metadata id="CorelCorpID_0Corel-Layer"/>
  <path class="fil0" d="M15862 14222c-1347,441 -2081,1891 -1640,3238 441,1347 1891,2081 3238,1640 1347,-441 2081,-1891 1640,-3238 -441,-1347 -1891,-2081 -3238,-1640zm-13594 9072c2037,-1429 2482,-1109 5586,-1653 2702,-473 4183,-1775 5637,-3915 147,-217 -28,-523 -275,-478 -2330,429 -5745,1479 -7828,3072 -15,12 -32,-12 -17,-25 707,-625 2696,-2169 6184,-3319 349,-115 713,-227 1093,-333 179,-50 163,-330 -22,-362 -130,-22 -266,-43 -406,-58 -1069,-121 -6178,-749 -9143,2240 -2930,2954 -3210,4746 -3036,7024 2,27 4,55 6,82 0,0 394,-993 2221,-2275zm21026 7761c-1429,-2038 -1109,-2483 -1653,-5587 -473,-2702 -1775,-4183 -3915,-5637 -217,-147 -523,28 -478,274 429,2330 1479,5745 3072,7828 11,15 -12,32 -25,17 -625,-707 -2169,-2695 -3319,-6184 -115,-349 -227,-713 -332,-1093 -50,-179 -330,-163 -363,22 -22,130 -43,266 -58,406 -121,1069 -749,6178 2240,9143 2954,2930 4746,3210 7024,3036 27,-2 55,-5 82,-7 0,0 -993,-394 -2275,-2220zm7761 -21027c-2038,1429 -2483,1109 -5587,1653 -2702,473 -4183,1775 -5637,3915 -147,217 28,523 275,478 2330,-429 5745,-1479 7828,-3072 15,-12 32,12 17,25 -707,624 -2695,2169 -6184,3319 -349,115 -713,227 -1093,333 -179,50 -163,330 22,362 130,22 267,43 406,58 1070,121 6178,749 9143,-2240 2930,-2954 3210,-4746 3036,-7024 -2,-27 -5,-55 -7,-82 0,0 -394,993 -2220,2275zm-23301 -9981c27,-2 55,-5 82,-7 2278,-173 4070,106 7024,3036 2989,2966 2361,8074 2240,9143 -15,140 -36,275 -58,406 -32,185 -313,201 -362,22 -106,-379 -217,-743 -333,-1093 -1150,-3489 -2694,-5478 -3319,-6184 -12,-15 -36,2 -25,17 1592,2084 2643,5498 3071,7828 45,247 -261,422 -478,275 -2140,-1454 -3442,-2936 -3915,-5637 -544,-3104 -224,-3549 -1653,-5587 -1281,-1826 -2275,-2220 -2275,-2220z"/>
 </g>
</svg>
