<?xml version="1.0" encoding="UTF-8"?>
<!DOCTYPE svg PUBLIC "-//W3C//DTD SVG 1.0//EN" "http://www.w3.org/TR/2001/REC-SVG-20010904/DTD/svg10.dtd">
<!-- Creator: CorelDRAW -->
<svg xmlns="http://www.w3.org/2000/svg" xml:space="preserve" width="8.4131mm" height="8.7412mm" version="1.0" style="shape-rendering:geometricPrecision; text-rendering:geometricPrecision; image-rendering:optimizeQuality; fill-rule:evenodd; clip-rule:evenodd"
viewBox="0 0 30359 31543"
 xmlns:xlink="http://www.w3.org/1999/xlink"
 xmlns:xodm="http://www.corel.com/coreldraw/odm/2003">
 <defs>
  <style type="text/css">
   <![CDATA[
    .fil0 {fill:#00A0E3}
   ]]>
  </style>
 </defs>
 <g id="Layer_x0020_1">
  <metadata id="CorelCorpID_0Corel-Layer"/>
  <path class="fil0" d="M15254 11919c2040,-7590 -2291,-12433 -8115,-11876 -2749,262 -5495,3772 -3808,6977 1585,2997 4903,2722 5917,6131 945,-1287 2836,-2746 6006,-1232zm686 4526c0,1674 -1357,3020 -3034,3020 -1664,0 -3020,-1346 -3020,-3020 0,-1675 1356,-3021 3020,-3021 1677,0 3034,1346 3034,3021zm-286 4286c5550,5562 11922,4240 14351,-1083 1138,-2509 -525,-6647 -4150,-6784 -3384,-126 -4800,2886 -8263,2054 650,1468 969,3829 -1938,5813zm-7831 -4059c-7590,2027 -9633,8208 -6233,12970 1593,2247 6017,2874 7943,-193 1800,-2872 -91,-5609 2361,-8197 -1596,-169 -3808,-1071 -4070,-4581z"/>
 </g>
</svg>
