<?xml version="1.0" encoding="UTF-8"?>
<!DOCTYPE svg PUBLIC "-//W3C//DTD SVG 1.0//EN" "http://www.w3.org/TR/2001/REC-SVG-20010904/DTD/svg10.dtd">
<!-- Creator: CorelDRAW -->
<svg xmlns="http://www.w3.org/2000/svg" xml:space="preserve" width="9mm" height="8.2058mm" version="1.0" style="shape-rendering:geometricPrecision; text-rendering:geometricPrecision; image-rendering:optimizeQuality; fill-rule:evenodd; clip-rule:evenodd"
viewBox="0 0 25413 23170"
 xmlns:xlink="http://www.w3.org/1999/xlink"
 xmlns:xodm="http://www.corel.com/coreldraw/odm/2003">
 <defs>
  <style type="text/css">
   <![CDATA[
    .fil0 {fill:#00AFEF;fill-rule:nonzero}
   ]]>
  </style>
 </defs>
 <g id="Layer_x0020_1">
  <metadata id="CorelCorpID_0Corel-Layer"/>
  <path class="fil0" d="M12034 10798c936,0 1785,380 2400,995l3 0c615,615 995,1465 995,2403 0,936 -380,1785 -995,2400l-3 3c-615,615 -1464,995 -2400,995 -938,0 -1788,-381 -2403,-995l-40 -43c-592,-612 -956,-1444 -956,-2360 0,-938 381,-1788 995,-2403 615,-615 1465,-995 2403,-995zm-11637 11617c-424,-832 -498,-1762 -271,-2608 243,-907 831,-1722 1704,-2227l5513 -3183 2171 3761 -8682 5012 -436 -755zm1037 -2259c-97,362 -108,746 -23,1119l6259 -3613 -819 -1418 -4342 2507c-550,318 -921,833 -1075,1406zm23640 -157c-505,874 -1320,1462 -2227,1705 -905,243 -1905,140 -2779,-364l-5515 -3183 2172 -3761 8688 5016 -339 586zm-2577 396c361,-97 699,-280 979,-539l-6257 -3612 -819 1418 4342 2507c548,317 1180,380 1754,226zm-11958 -20395c1009,0 1927,413 2591,1077 664,664 1077,1582 1077,2591l0 6368 -4346 0 0 -10036 678 0zm1632 2036c-264,-264 -590,-464 -954,-577l0 7221 1634 0 0 -5012c0,-635 -261,-1213 -680,-1632zm1307 10715c-368,-369 -880,-597 -1445,-597 -564,0 -1075,229 -1444,598 -369,369 -598,880 -598,1444 0,549 215,1048 566,1414l32 30c369,369 880,598 1444,598 565,0 1076,-228 1446,-597 369,-369 597,-881 597,-1445 0,-564 -229,-1075 -597,-1445z"/>
 </g>
</svg>
