<?xml version="1.0" encoding="UTF-8"?>
<!DOCTYPE svg PUBLIC "-//W3C//DTD SVG 1.0//EN" "http://www.w3.org/TR/2001/REC-SVG-20010904/DTD/svg10.dtd">
<!-- Creator: CorelDRAW -->
<svg xmlns="http://www.w3.org/2000/svg" xml:space="preserve" width="9.0349mm" height="9.0351mm" version="1.0" style="shape-rendering:geometricPrecision; text-rendering:geometricPrecision; image-rendering:optimizeQuality; fill-rule:evenodd; clip-rule:evenodd"
viewBox="0 0 114911 114914"
 xmlns:xlink="http://www.w3.org/1999/xlink"
 xmlns:xodm="http://www.corel.com/coreldraw/odm/2003">
 <defs>
  <style type="text/css">
   <![CDATA[
    .fil0 {fill:#00A0E3}
   ]]>
  </style>
 </defs>
 <g id="Layer_x0020_1">
  <metadata id="CorelCorpID_0Corel-Layer"/>
  <path class="fil0" d="M29737 92464l-563 148c869,843 3295,2389 4654,3253l636 407c1689,1093 3967,2194 6347,3126 2453,960 5023,1748 7172,2169 883,173 3475,617 5601,857 1291,145 2409,219 2845,111 120,-29 341,-234 581,-497 413,-452 860,-1063 1052,-1341l457 -644c259,-354 590,-881 902,-1427 310,-546 603,-1112 791,-1547 1366,-3169 2055,-6493 1982,-9777 -72,-3159 -855,-6288 -2414,-9215 -1469,-2756 -1530,-2755 -2699,-2732 -767,15 -1968,39 -4128,-500 -348,-86 -716,-198 -1076,-319l-1044 -379c-252,-97 -528,-231 -801,-365 -308,-149 -621,-303 -883,-396 -514,2330 -1419,4492 -2511,6417 -1389,2447 -3083,4520 -4656,6077 -4716,4666 -10095,6030 -12243,6573zm54565 -14635l-2096 -2447c-389,-279 -725,-562 -1099,-869 -1217,-1006 -2326,-1924 -4032,-2726 -810,-380 -1941,-883 -3130,-1304 -1137,-402 -2321,-729 -3306,-794l-1625 1517c-251,221 -565,468 -895,710 -340,248 -702,495 -1033,700l-1048 621c-337,186 -683,364 -1091,551l-581 257 -1500 572c1732,2691 2946,6181 3451,9831 492,3564 310,7290 -717,10582l-89 337c-79,315 -190,752 -356,1197 -928,2460 -1768,3870 -2353,4855l-506 886c2462,-221 4921,-710 7267,-1370 2769,-780 5391,-1806 7691,-2923 2333,-1133 3360,-1811 4983,-2881l1160 -762c1057,-687 1940,-1436 2803,-2170l1310 -1087 684 -626 479 -485c27,-939 -107,-2036 -324,-3116 -277,-1383 -688,-2740 -1063,-3710 -946,-2448 -2151,-4149 -2693,-4914l-291 -434zm-56500 -37258l-39 -70c-1006,-1019 -2016,-2578 -2882,-4256 -998,-1929 -1817,-4032 -2235,-5647l-113 -519c-60,-308 -131,-656 -216,-914 -485,504 -1234,1580 -1686,2231l-137 197c-1126,1611 -1971,2984 -2737,4426 -764,1441 -1449,2949 -2255,4838 -861,2016 -1746,5014 -2357,8081 -532,2675 -859,5403 -783,7578 502,541 1357,1218 2298,1859 1040,711 2190,1385 3093,1798 2520,1156 5089,1811 7687,1978 2634,170 5307,-159 7997,-965 940,-281 2386,-890 3666,-1553 1043,-539 1974,-1113 2418,-1563l-13 -181c15,-936 66,-3959 1206,-6979 121,-321 276,-631 429,-935 139,-282 280,-562 383,-834 -1699,-357 -4089,-1314 -6231,-2433 -2113,-1103 -4000,-2373 -4776,-3397l-686 -572c-142,-99 -436,-392 -731,-708 -374,-403 -776,-864 -898,-1033 -137,-59 -170,-131 -276,-253 -94,-107 -102,-121 -125,-174zm57726 32003c117,117 210,251 337,453 243,70 373,245 529,458l679 841c1147,1398 1961,2389 3022,4446 440,855 866,1773 1245,2729 337,851 637,1731 872,2616l154 710c64,327 128,658 221,925 169,-179 376,-432 593,-712 476,-618 1005,-1383 1278,-1798 1730,-2635 3190,-5112 4374,-7735 1184,-2625 2105,-5414 2756,-8677 174,-872 598,-3381 836,-5460 149,-1297 226,-2425 130,-2862 -86,-389 -1305,-1254 -2059,-1790l-376 -268c-1366,-1002 -3012,-1831 -4762,-2448 -1816,-641 -3752,-1059 -5611,-1213 -1528,-126 -2928,-89 -4275,78 -1349,167 -2654,466 -3996,859 -964,282 -2312,853 -3529,1484 -1072,553 -2043,1154 -2551,1633l-9 412c-17,1131 -59,3896 -1234,6830 -116,289 -244,552 -370,811 -146,299 -293,600 -397,879 1323,256 3040,880 4691,1641 1814,838 3561,1853 4624,2738l483 373c663,504 1648,1253 1868,1699 219,131 356,229 477,350zm-44179 7308c369,-541 745,-1094 1030,-1344 94,-298 427,-920 694,-1417l286 -541c165,-336 323,-691 471,-1047l420 -1067c140,-366 259,-743 366,-1127l380 -1558c182,-786 245,-1066 167,-1218 -45,-88 -151,-181 -312,-318 -467,-406 -1353,-1174 -2796,-3524 -196,-319 -382,-656 -555,-998l-491 -1034c-183,-431 -360,-850 -506,-1296 -57,-186 -118,-374 -205,-523 -2853,1879 -6677,3110 -10638,3529 -3930,418 -8005,42 -11401,-1279l-1604 -641c-509,-214 -1012,-443 -1555,-719l-2495 -1426c176,2300 656,4689 1304,6989 819,2906 1908,5670 2993,7929 850,1774 1886,3554 3030,5253 1194,1776 2513,3472 3865,4993l10 11c286,322 836,939 1100,1164 757,23 1587,-65 2395,-200 839,-140 1661,-333 2355,-507 792,-198 2391,-833 3311,-1198l677 -261c281,-215 753,-509 1314,-856 733,-454 1629,-1011 2439,-1601 448,-326 1047,-892 1625,-1474 598,-602 1161,-1206 1535,-1610 211,-229 500,-655 790,-1084zm17157 27088c-1795,13 -3788,-86 -4810,-183 -993,61 -2514,-127 -4112,-412 -2301,-411 -4794,-1034 -6119,-1418 -1473,-425 -2955,-940 -4390,-1516 -1479,-591 -2907,-1248 -4224,-1933 -3122,-1629 -4407,-2536 -6995,-4362 -2228,-1582 -4700,-4195 -6774,-6092 -990,-1011 -1919,-2143 -2799,-3316 -886,-1182 -1721,-2397 -2516,-3574 -2629,-3891 -4645,-8481 -5965,-13337 -1343,-4934 -1971,-10152 -1802,-15197 116,-3453 608,-6864 1398,-10095 823,-3369 1974,-6551 3364,-9380 789,-1606 2240,-4160 3765,-6498 1189,-1825 2434,-3531 3458,-4570l2882 -3061c581,-558 1173,-1099 1774,-1627 10101,-8843 22646,-12927 34957,-12411 12312,518 24396,5639 33572,15204 530,553 1059,1132 1581,1726 1620,1851 2838,3438 3943,5127 1108,1698 2109,3504 3292,5787 1385,2672 2544,5814 3391,9147 834,3286 1370,6769 1522,10183 177,3934 -80,7504 -687,10893 -607,3388 -1566,6602 -2790,9825 -875,2303 -1865,4287 -2966,6158 -1099,1865 -2317,3626 -3659,5488 -875,1082 -1672,2073 -2592,3103 -772,876 -1554,1767 -2433,2507l-734 694c-988,881 -1777,1566 -2808,2371 -1416,1108 -1844,1444 -4057,2946 -1023,694 -2062,1263 -3169,1867l-605 332c-1173,645 -2621,1320 -4121,1932 -1502,613 -3060,1168 -4453,1569 -1358,392 -3846,1048 -6149,1475 -1538,286 -2999,471 -3999,413 -679,160 -1879,226 -3168,234zm-46175 -6110l-45 220 158 312c253,543 599,1273 2127,1135 304,-150 566,-301 766,-496 201,-196 355,-450 446,-811 88,-337 56,-665 -47,-951 -123,-345 -348,-636 -593,-824 -256,-198 -591,-326 -941,-350 -324,-20 -665,46 -974,221 -663,378 -744,782 -897,1545zm4742 5268l-59 6c-357,359 -945,585 -1597,703 -811,146 -1740,131 -2438,10 -1315,-230 -2333,-782 -3092,-1503 -861,-818 -1395,-1853 -1675,-2892 -281,-1038 -309,-2086 -163,-2927 111,-645 333,-1182 626,-1514 207,-689 791,-1391 1539,-1961 778,-595 1750,-1062 2659,-1234 1797,-341 3345,24 4548,809 955,622 1695,1516 2170,2531 474,1014 689,2156 597,3276 -122,1483 -778,2943 -2067,4050 -275,220 -549,422 -851,605l-197 39zm85497 -92378l-266 -455c-217,-402 -399,-740 -1099,-875l-45 -13c-345,-144 -724,-94 -1059,78 -261,135 -501,347 -679,602 -179,254 -304,557 -337,869 -46,432 78,897 454,1314 229,254 581,445 976,515 355,62 747,27 1108,-149 348,-169 555,-394 691,-680 135,-282 216,-638 300,-1062l-86 -86 43 -56zm-6068 -4090c476,-481 1019,-845 1587,-1038 1099,-658 2357,-787 3529,-607 1456,225 2799,940 3561,1718 867,885 1416,2113 1646,3316 252,1316 128,2625 -360,3452 -69,123 -85,197 -198,272 -9,224 -145,497 -336,772 -368,528 -963,1122 -1147,1269 -1249,1005 -2754,1446 -4205,1393 -1516,-55 -2981,-652 -4046,-1704 -745,-736 -1240,-1562 -1524,-2410 -399,-1192 -388,-2438 -95,-3565 291,-1124 866,-2139 1587,-2868zm-82457 2639l-247 85c-477,183 -1667,636 -1458,1820 168,949 707,1446 1307,1587 242,59 500,61 747,14 248,-47 490,-145 700,-284 524,-346 870,-965 716,-1746l-75 -247c-144,-342 -426,-683 -750,-923 -309,-228 -655,-362 -940,-307zm-5045 -1681c937,-1347 2419,-2251 4038,-2544l50 -9c1814,-314 3437,160 4670,1081 1232,922 2082,2300 2350,3785l8 42c322,1851 -151,3508 -1082,4766 -931,1257 -2322,2119 -3828,2380l-23 4c-1763,299 -3339,-116 -4563,-955 -1352,-926 -2277,-2376 -2553,-3949 -318,-1814 90,-3388 934,-4600zm93187 89137c-362,-493 -967,-800 -1694,-622 -871,214 -1299,762 -1389,1353 -37,242 -20,497 42,738 64,243 176,478 324,678 373,502 998,810 1744,613 837,-223 1248,-771 1333,-1361 34,-240 19,-492 -43,-730 -62,-239 -170,-469 -317,-669zm-3704 -4608c336,-127 705,-223 1178,-321l23 -5c1881,-384 3523,89 4763,1020 1230,921 2073,2296 2373,3729l22 100c348,1812 -102,3452 -1007,4708 -903,1257 -2263,2135 -3728,2433l-55 11c-1831,354 -3477,-65 -4743,-950 -649,-453 -1201,-1031 -1625,-1689 -425,-660 -726,-1403 -878,-2184 -301,-1559 -8,-3284 1084,-4845 203,-290 435,-552 694,-791 256,-238 546,-458 867,-673 368,-244 684,-415 1031,-546zm-65060 -90710c-6544,-29 -22816,-106 -23928,81 -969,165 -1754,431 -2401,817 -642,384 -1162,894 -1606,1545 -1057,1549 -1051,2792 -1042,4822l0 87119c1,642 -24,1356 -47,2063 -116,3344 -230,6703 2413,8492 1631,1101 2673,1098 4771,1089 23365,-95 46780,-71 70147,6 6849,24 22417,83 23574,-38 845,-89 1632,-364 2303,-740 741,-416 1344,-959 1726,-1515 1135,-1652 1133,-2733 1132,-5002l-3 -87083c-1,-652 24,-1367 48,-2079 117,-3341 233,-6684 -2404,-8480 -1608,-1095 -2746,-1091 -4876,-1086 -23257,56 -46551,83 -69807,-10zm-29720 -2052c1399,-1132 3126,-1885 5016,-2174 1450,-223 3489,-186 5295,-153l1714 20 78604 -4 2409 -31c3809,-67 9320,-164 11439,610 1672,612 3219,1688 4396,3121 1093,1332 1871,2976 2141,4847 216,1500 178,3522 144,5325l-23 1779 -5 78604 33 2499c69,3807 165,9114 -605,11345 -572,1656 -1646,3195 -3079,4373 -1344,1104 -3014,1896 -4888,2171 -1461,216 -3514,176 -5323,140l-1786 -24 -78605 0 -2488 32c-3804,70 -9121,167 -11354,-610 -1643,-574 -3197,-1657 -4387,-3106 -1101,-1343 -1895,-3009 -2158,-4876 -207,-1465 -169,-3494 -135,-5300l22 -1791 0 -78604 -33 -2498c-70,-3805 -167,-9112 609,-11346 614,-1769 1680,-3246 3047,-4351zm40366 52805c-162,925 -235,1896 -181,2859 118,2086 631,3882 1381,5408 881,1795 2101,3228 3409,4332 2073,1751 4567,2826 7145,3150 2554,318 5197,-92 7613,-1296 374,-184 743,-392 1086,-599 393,-238 761,-482 1079,-708 408,-290 794,-618 1155,-970 360,-351 703,-733 1025,-1128 1767,-2167 2853,-4624 3173,-7175 313,-2490 -100,-5081 -1314,-7589 -303,-626 -795,-1419 -1335,-2158 -505,-688 -1054,-1338 -1531,-1764 -2088,-1865 -4659,-3129 -7410,-3540 -2551,-380 -5268,-28 -7902,1250 -1199,583 -1703,992 -2311,1486l-758 598 -345 303 -497 500c-521,546 -1034,1217 -1483,1921 -468,734 -876,1514 -1169,2231 -351,865 -649,1852 -831,2891zm26297 -13867c-371,1119 -645,2226 -663,3021l131 80c479,452 927,987 1374,1474 219,242 317,378 449,563l252 347c584,775 1174,1716 1675,2715 411,818 764,1679 1007,2523 238,-113 539,-286 803,-438l355 -202c449,-247 800,-408 1208,-595l361 -167c3797,-1767 7933,-2512 12019,-2292 4139,223 8237,1437 11893,3582l474 308c198,136 402,275 604,383 -156,-2238 -624,-4591 -1260,-6869 -809,-2892 -1891,-5667 -2957,-7933 -665,-1417 -1631,-3125 -2675,-4755 -997,-1558 -2069,-3050 -3022,-4144l-2311 -2617c-399,-219 -1421,-114 -2595,125 -2045,417 -4513,1257 -5170,1540 -1704,738 -3082,1552 -4298,2479 -1217,930 -2280,1982 -3359,3194 -527,594 -953,1112 -1344,1660 -398,557 -775,1156 -1202,1909 -462,811 -1208,2474 -1750,4109zm-13304 -1800l393 -24c3467,8 4916,630 6545,1330 539,231 1101,473 1770,705 183,-960 539,-2067 963,-3145 557,-1417 1236,-2796 1797,-3739 1253,-2099 2759,-4034 4505,-5714 1666,-1605 3556,-2989 5657,-4074 1021,-528 2132,-1039 3276,-1470 992,-374 2017,-689 3037,-906l224 -45c177,-31 359,-65 524,-121 -916,-912 -3588,-2602 -4983,-3485l-389 -247c-790,-505 -1787,-1042 -2834,-1553 -1207,-589 -2471,-1141 -3568,-1573 -1146,-452 -2340,-874 -3570,-1241 -1229,-369 -2497,-687 -3789,-935 -949,-182 -3461,-598 -5496,-818 -1263,-136 -2335,-200 -2701,-88 -293,89 -911,861 -1567,1812 -916,1330 -1881,2997 -2193,3721 -1124,2606 -1778,5211 -1927,7844 -148,2631 209,5304 1101,8046 240,736 801,2025 1405,3208 496,972 1023,1873 1422,2334 173,201 233,195 396,178zm-29950 -15443c-170,172 -350,354 -861,752 -88,931 60,2114 318,3306 366,1693 956,3404 1404,4459 466,1098 1208,2395 2016,3578 805,1182 1679,2255 2401,2904 142,130 243,249 341,368l243 272c379,374 1016,874 1700,1371 935,678 1954,1348 2546,1708 745,452 2377,1171 3995,1709 1170,387 2329,678 3122,703l78 -128c439,-509 979,-930 1483,-1383 809,-705 1952,-1470 3144,-2111 1015,-546 2076,-1006 3008,-1264 -309,-666 -579,-1152 -836,-1615 -570,-1026 -1086,-1957 -1817,-4397 -749,-2499 -1112,-5325 -1049,-8134 60,-2723 520,-5437 1407,-7830 211,-571 421,-1101 641,-1619 217,-511 450,-1017 708,-1545l1479 -2576c-2705,307 -5236,811 -7636,1498 -2525,722 -4908,1648 -7208,2755 -2172,1045 -3872,2045 -5449,3133 -1587,1095 -3054,2280 -4752,3691 -209,174 -318,285 -427,396z"/>
 </g>
</svg>
