<?xml version="1.0" encoding="UTF-8"?>
<!DOCTYPE svg PUBLIC "-//W3C//DTD SVG 1.0//EN" "http://www.w3.org/TR/2001/REC-SVG-20010904/DTD/svg10.dtd">
<!-- Creator: CorelDRAW -->
<svg xmlns="http://www.w3.org/2000/svg" xml:space="preserve" width="8.7081mm" height="8.9838mm" version="1.0" style="shape-rendering:geometricPrecision; text-rendering:geometricPrecision; image-rendering:optimizeQuality; fill-rule:evenodd; clip-rule:evenodd"
viewBox="0 0 878060 905859"
 xmlns:xlink="http://www.w3.org/1999/xlink"
 xmlns:xodm="http://www.corel.com/coreldraw/odm/2003">
 <defs>
  <style type="text/css">
   <![CDATA[
    .fil0 {fill:#00A0E3}
   ]]>
  </style>
 </defs>
 <g id="Layer_x0020_1">
  <metadata id="CorelCorpID_0Corel-Layer"/>
  <path class="fil0" d="M19743 701512l34031 0c10870,0 19743,8883 19743,19733 0,10850 -8873,19733 -19743,19733l-34031 0c-10870,0 -19743,-8883 -19743,-19733 0,-10850 8873,-19733 19743,-19733zm517553 -75735l0 81382c0,24704 -10093,47159 -26337,63404 -16244,16244 -38700,26337 -63404,26337l-73114 0c-8288,0 -15992,2128 -22586,6060 -6594,3932 -12120,9730 -16042,17031 -776,1442 -1956,2682 -3378,3539 -1371,817 -2995,1311 -4699,1311 -2511,0 -4810,-1049 -6463,-2692 -1664,-1654 -2702,-3963 -2702,-6484l0 -63192c0,-2521 1039,-4830 2692,-6484l121 -111c1644,-1583 3902,-2581 6352,-2581 1714,0 3338,484 4699,1311l101 71c1371,857 2521,2067 3277,3469 3922,7300 9448,13088 16042,17021 6574,3932 14288,6060 22586,6060l73154 0c17636,0 33658,-7199 45244,-18785 11586,-11586 18785,-27608 18785,-45244l0 -86071c-121,-2682 -625,-6080 -1633,-10436 -1018,-4457 -2591,-9932 -4830,-16577 -7522,-22334 -18352,-43055 -30905,-62970 -12574,-19955 -26922,-39143 -41483,-58412 -7804,-10335 -16456,-20035 -25501,-29362 -8974,-9236 -18594,-18341 -28193,-27396 -4245,-4074 -7885,-6443 -11656,-7109 -3761,-655 -7855,333 -12987,2985 -7058,3660 -14570,5868 -22284,6867 -8329,1069 -16910,716 -25430,-706l-181 -40c-3640,-665 -7764,-1633 -10880,-3620 -3428,-2168 -5647,-5536 -4921,-10789 756,-5677 3539,-8329 7240,-9196 3428,-817 7673,-10 11797,1240 1644,504 3348,867 5052,1069l181 30c1623,202 3338,282 5062,282l192 10c4588,81 9982,30 14520,-968 4295,-948 7865,-2753 9186,-6090 1926,-4820 -3761,-8359 -9226,-11747 -2208,-1361 -4416,-2733 -6171,-4185 -4366,-3660 -8883,-6917 -13370,-10154 -3670,-2652 -7371,-5334 -10981,-8198 -8873,-7089 -17615,-13461 -27013,-16093 -9256,-2581 -19330,-1563 -31097,5989 -5919,3811 -12947,4961 -20237,4830 -7169,-141 -14570,-1523 -21427,-2793l-3186 -807c-2743,-867 -5263,-2249 -6927,-4255 -1754,-2097 -2591,-4880 -1916,-8450l484 -1896c1381,-4033 3761,-6100 6726,-6937 2793,-786 6070,-403 9478,474 6635,1765 13128,2158 19541,1301 5939,-797 11858,-2682 17777,-5556 -3529,-5415 -8530,-7825 -13320,-10134l-111 -60c-2410,-1160 -4790,-2309 -6927,-3771l-635 -444c-5082,-3499 -10668,-7361 -6796,-15306l81 -141c2269,-4658 5374,-6453 8762,-6584 3196,-121 6615,1341 9821,3176l8420 4759c14903,8399 29857,16849 44235,26025 5536,3539 10083,6090 12846,5566 2491,-474 3822,-4013 3580,-12614 -181,-5364 655,-10547 2279,-15498 1593,-4911 3993,-9650 6877,-14117l988 -1543c3509,-5505 7441,-11565 16063,-7169 4517,2410 6151,5485 6151,8893 0,3186 -1502,6544 -3317,9902l-3045 5707c-887,1845 -1684,3801 -2299,5838l-71 181c-3932,11989 -4648,21941 -1906,30774 2763,8873 9035,16748 19027,24553 34676,26963 66681,56254 94914,88692 28223,32418 52735,68052 72428,107729 1139,2077 2521,4164 4245,6776l2238 3408c4739,-24159 10043,-47452 16436,-70038 6726,-23766 14681,-46786 24432,-69211 8460,-19400 17404,-38599 27275,-57243 9882,-18674 20711,-36814 32922,-54036 4568,-6605 7361,-12090 7300,-17071 -60,-4921 -2944,-9670 -9720,-14893 -5425,-4255 -9670,-9488 -12927,-15306 -3590,-6443 -6010,-13643 -7472,-21064l-20 -141c-645,-3206 -1331,-6877 -786,-10124 615,-3600 2642,-6675 7522,-8046l101 -20c4921,-1321 8117,60 10335,2743 2047,2491 3136,6121 3993,9660 434,2017 1069,4064 1795,6060 756,2057 1613,4023 2470,5838 6484,13219 11535,20015 16990,20681 5445,665 11878,-4699 21064,-15730l81 -91c7663,-9307 15478,-18382 23373,-27285 7936,-8934 16053,-17787 24280,-26559l4074 -4618c4628,-5142 10083,-9559 17505,-2924 7341,6574 5062,11586 958,16174l-2924 3005c-1422,1391 -2833,2783 -3832,4124l-5021 6927 6403 2279c12917,4517 25349,8863 34868,18704 2501,2591 4880,5415 5848,8510 1039,3327 534,6847 -2914,10507 -6393,6806 -11848,2410 -17091,-1825 -2349,-1865 -4709,-3640 -7028,-5203 -2349,-1573 -4810,-3055 -7320,-4306l-91 -50c-11888,-5798 -20227,-8157 -27537,-6473 -7320,1684 -13875,7482 -22193,17938 -38508,48188 -70784,99189 -95267,153497 -24452,54278 -41140,111894 -48500,173371l-1896 17474 -1139 14480zm-362100 56597l85486 0c22455,0 40827,18362 40827,40837l0 121705c0,22476 -18372,40837 -40827,40837l-85486 0c-6695,0 -12170,-5465 -12170,-12170l0 -179038c0,-6705 5475,-12170 12170,-12170zm-58241 -20106l10 0c14742,0 26791,12080 26791,26781l0 190029c0,14701 -12049,26781 -26791,26781l-10 0c-14742,0 -26791,-12080 -26791,-26781l0 -190029c0,-14701 12049,-26781 26791,-26781zm-108032 -600760c28384,27295 46766,60590 58957,97898 12917,39668 9640,80424 8732,121181 -1270,70058 24744,129015 73144,178514 62970,64593 167775,74414 242018,23292 5455,-3822 14369,-6373 13098,-15286 -6352,-11838 -21255,-25944 -40575,-41583 -5808,-1835 -16587,6282 -20338,7411 -13653,4195 -23151,2692 -36985,1412 -16194,-1462 -30572,-7099 -33295,-25470 -2551,-18382 8188,-28203 26741,-33113 -15286,-15649 -28929,-24936 -50769,-14197 -14732,7270 -32750,5828 -49307,1996 -13098,-2904 -22748,-10184 -25470,-23837 -2733,-13098 3630,-22929 14923,-28566 7633,-3822 9095,-8732 10184,-16738 3096,-22929 20378,-31843 41311,-22375 9821,4366 20015,9277 28566,15639 14379,10739 21467,9468 28747,-8551 8914,-22385 24744,-28747 40767,-20933 17101,8369 19471,20570 8914,44215 -7835,17474 -8006,32569 10184,45677 28394,20378 53865,44397 77702,69867 7099,7643 11465,9287 17293,-1452 14369,-25843 23837,-52947 25107,-82612 3822,-89348 -39849,-153023 -112267,-198348 -106640,-66771 -227458,-84246 -349738,-94803 -5465,-544 -12372,-1633 -14560,6010 -1996,6726 2541,10729 6736,14923l181 -171zm595013 250559c6363,-8914 5274,-15105 -1644,-22566 -12735,-13643 -19834,-30391 -21104,-49126 -726,-12927 5092,-23111 17293,-27477 11828,-4366 23474,-2188 31107,8732 3277,4548 4739,10376 6373,16012 4003,14369 9831,16738 18926,3459 14006,-20378 32024,-37298 49499,-54591 8732,-8561 19471,-13280 31661,-7643 12372,5828 19652,16012 16557,29836 -1996,9287 2007,12927 8561,17111 5455,3459 10557,7825 15105,12372 11636,12372 13280,26569 1996,39123 -11465,12735 -25299,11828 -38942,1633 -25470,-18926 -30199,-18190 -48944,5828 -22748,29302 -42763,60409 -61679,92252 -4729,7986 -6494,13774 -8964,18765 10093,3983 17636,5415 25632,7552 42037,8561 77228,2430 113255,-20136 57676,-35846 92806,-116815 79880,-187780 -11828,-64240 -8732,-124468 35301,-177052 3459,-4003 6010,-8369 2733,-13834 -3277,-5455 -8561,-4911 -13471,-3822 -21286,4548 -42763,8369 -63676,14006 -74606,20207 -147579,44407 -208532,94813 -43852,36390 -72065,81150 -72781,120636 -363,59683 13643,94440 40031,124831 4164,4850 9035,8157 11021,10295 6262,-5919 30048,-46464 34807,-53229zm-584193 515083l34031 0c10870,0 19743,8883 19743,19733 0,10850 -8873,19733 -19743,19733l-34031 0c-10870,0 -19743,-8883 -19743,-19733 0,-10850 8873,-19733 19743,-19733z"/>
 </g>
</svg>
