<?xml version="1.0" encoding="UTF-8"?>
<!DOCTYPE svg PUBLIC "-//W3C//DTD SVG 1.0//EN" "http://www.w3.org/TR/2001/REC-SVG-20010904/DTD/svg10.dtd">
<!-- Creator: CorelDRAW -->
<svg xmlns="http://www.w3.org/2000/svg" xml:space="preserve" width="8.4998mm" height="6.243mm" version="1.0" style="shape-rendering:geometricPrecision; text-rendering:geometricPrecision; image-rendering:optimizeQuality; fill-rule:evenodd; clip-rule:evenodd"
viewBox="0 0 228831 168074"
 xmlns:xlink="http://www.w3.org/1999/xlink"
 xmlns:xodm="http://www.corel.com/coreldraw/odm/2003">
 <defs>
  <style type="text/css">
   <![CDATA[
    .fil0 {fill:#00A0E3;fill-rule:nonzero}
   ]]>
  </style>
 </defs>
 <g id="Layer_x0020_1">
  <metadata id="CorelCorpID_0Corel-Layer"/>
  <path class="fil0" d="M228764 115902c0,-32134 97,-64222 0,-96362 0,-12050 -7067,-19454 -18248,-19505 -63837,-46 -127675,-46 -191512,0 -11375,0 -18827,7067 -18875,18296 -145,43509 -194,87068 0,130577 0,12438 7307,19166 19745,19166 31507,0 63062,0 94571,0 31555,0 63062,0 94617,0 12826,0 19701,-6870 19747,-19699 48,-10841 0,-21680 0,-32522l-46 48zm-158735 -53922l-30 2235 32 2288c170,7600 412,18563 -11760,19421 -5223,366 -8548,-1303 -10688,-4103 -2076,-2714 -2969,-6467 -3403,-10411 -533,-4803 -1020,-12258 538,-18358 1637,-6397 5454,-11331 13577,-10545 12131,1171 11894,11929 11733,19473zm44639 -38512l-86710 -75c-1928,3 -3099,272 -3715,929 -625,665 -827,1874 -808,3731 73,19228 110,37984 110,56294 0,18307 -38,37066 -110,56286 3,1960 283,3099 950,3688 684,606 1914,781 3766,781 23166,-110 46376,-102 69556,-97l15932 3 0 -140 18347 -5c23204,-5 46432,-13 69623,100 1478,-3 2533,-86 3104,-512 533,-401 786,-1252 786,-2848l-73 -57158 75 -57161c-3,-1672 -250,-2665 -824,-3188 -592,-528 -1661,-700 -3263,-700l-86748 73zm97501 18520c-46,33992 -94,67967 70,101929 24,2913 -382,4851 -1607,6122 -1233,1273 -3161,1758 -6165,1758 -24004,-194 -47978,-140 -71962,-89l-18011 38 -89392 -3c-1976,-13 -3454,-46 -4588,-232 -1316,-215 -2205,-646 -2816,-1448 -528,-657 -816,-1532 -953,-2711 -127,-1074 -145,-2423 -145,-4154l46 -39454c40,-26305 83,-52630 -43,-78924 -3,-3188 482,-5290 1833,-6663 1351,-1373 3449,-1890 6666,-1890 38889,129 79027,129 119157,129l59578 19c3912,-3 5904,78 7099,1346 1174,1246 1209,3276 1209,7183l46 19 -22 17025zm-59078 75371l-6870 -63886c-700,-8338 1957,-10467 7662,-10944 1798,-151 3966,-113 6451,-73l4011 43c4181,3 9054,-269 13146,54 2189,232 3963,991 5172,2334 1211,1346 1833,3241 1696,5713l-48 622c-2372,22474 -4776,44747 -7175,67014l-40 380c-132,1217 -425,2296 -875,3220 -474,958 -1109,1761 -1901,2383l-460 194 -11232 1502c-2934,129 -5164,-560 -6752,-2035 -1572,-1459 -2474,-3648 -2784,-6520zm923 -54835c1903,17604 3812,35219 5559,52996 355,3664 2579,3608 4921,3551l1771 -3c1416,62 2528,24 3228,-442 670,-444 1098,-1395 1263,-3198 1526,-16562 3424,-32944 5320,-49316l1020 -8830c897,-7990 1023,-7993 -7285,-7993l-3694 0 0 97 -950 0c-1828,0 -3578,-48 -5086,-86 -2151,-57 -3836,-100 -5045,27 -1728,183 -2356,853 -2143,2832l1120 10365zm-68414 44004c-3395,-3 -6806,199 -10203,590 -2321,261 -3823,1602 -4520,3274 -347,837 -503,1769 -471,2692 32,918 258,1844 668,2671 835,1685 2482,2988 4894,3118l18536 0c2579,-11 4402,-1303 5349,-3023 433,-792 695,-1688 759,-2590 62,-899 -65,-1815 -388,-2638 -606,-1543 -1930,-2840 -4033,-3357l-789 -102c-3252,-417 -6531,-627 -9802,-633zm14153 -32392l-48 -19131c355,-5489 3163,-9148 6792,-11016 1777,-910 3748,-1395 5718,-1448 1971,-57 3960,315 5759,1098 3651,1591 6558,4889 7140,9818 407,3459 945,9226 716,14812 -237,5724 -1306,11291 -4151,14164 -2035,2041 -4822,3198 -7713,3451 -1901,164 -3855,-57 -5678,-662 -1844,-611 -3562,-1621 -4964,-3023 -1920,-1920 -3263,-4582 -3564,-7982l-5 -81zm6555 -9824c0,3363 110,6720 326,10055 137,2097 1384,3554 2999,4302 827,380 1758,584 2684,600 929,16 1871,-153 2714,-514 1680,-716 3021,-2224 3263,-4569 232,-2224 180,-4515 135,-6803l-46 -3877 46 0 -43 -8806c-194,-2501 -1580,-4130 -3328,-4908 -837,-366 -1766,-555 -2687,-555 -918,-3 -1839,180 -2655,544 -1648,735 -2932,2237 -3083,4477 -215,3330 -326,6690 -326,10053zm-42900 -7584c-205,-4054 -1411,-7651 -6558,-7393 -1790,81 -3144,649 -4046,1591 -942,988 -1448,2434 -1489,4211 -94,3002 -132,5987 -127,8954 3,2967 57,5958 127,8957 65,2813 1397,4674 3147,5573 792,407 1677,625 2568,649 888,24 1793,-145 2622,-506 1879,-818 3403,-2663 3656,-5532 197,-2035 145,-4170 94,-6273l-38 -1887 -59 3 67 -3667c54,-1521 110,-3134 35,-4679zm13714 68139l-3 0 -51 -3 -229 -8 -51 -3 -54 -3 -283 -16 -283 -22 -48 -5c-361,-32 -713,-75 -1061,-132 -1365,-124 -2725,-242 -4081,-347l-350 -97c-3182,-1583 -5462,-4474 -6480,-7708 -652,-2078 -786,-4313 -312,-6440 479,-2148 1578,-4189 3376,-5856 2673,-2480 6911,-4146 12984,-4127l14357 46c5882,339 9722,3443 11523,7374 800,1736 1195,3648 1193,5541 -5,1898 -409,3801 -1209,5524 -1796,3869 -5565,6884 -11264,7169 -5834,229 -11776,-337 -17674,-888z"/>
 </g>
</svg>
