<?xml version="1.0" encoding="UTF-8"?>
<!DOCTYPE svg PUBLIC "-//W3C//DTD SVG 1.0//EN" "http://www.w3.org/TR/2001/REC-SVG-20010904/DTD/svg10.dtd">
<!-- Creator: CorelDRAW -->
<svg xmlns="http://www.w3.org/2000/svg" xml:space="preserve" width="7.6608mm" height="7.6378mm" version="1.0" style="shape-rendering:geometricPrecision; text-rendering:geometricPrecision; image-rendering:optimizeQuality; fill-rule:evenodd; clip-rule:evenodd"
viewBox="0 0 81048 80805"
 xmlns:xlink="http://www.w3.org/1999/xlink"
 xmlns:xodm="http://www.corel.com/coreldraw/odm/2003">
 <defs>
  <style type="text/css">
   <![CDATA[
    .fil0 {fill:#00A0E3}
   ]]>
  </style>
 </defs>
 <g id="Layer_x0020_1">
  <metadata id="CorelCorpID_0Corel-Layer"/>
  <path class="fil0" d="M24882 64616l-5025 0 0 1739 5025 0 0 -1739zm-7841 -5304c-277,-389 -454,-864 -454,-1418 0,-535 189,-1115 492,-1573l-11657 0 -24 1223c0,1008 114,1768 852,1768l10791 0zm10489 -2991c116,185 213,386 285,599 98,302 153,632 153,960 5,345 -59,704 -195,1038 -55,136 -121,269 -197,395l10913 0c733,0 843,-891 843,-1966l-17 -1025 -11786 0zm-9507 -48151c-348,-308 -565,-745 -565,-1294 0,-525 180,-968 496,-1284 48,-48 98,-92 152,-133l-12326 0 -172 149 -149 172 0 2670 12991 0c-156,-74 -299,-168 -426,-280zm8455 -2712c233,183 404,423 513,689 92,222 138,468 136,713 -1,243 -49,490 -138,710 -148,365 -408,685 -777,880l13104 0 14 -915c0,-1065 -72,-2077 -530,-2077l-12323 0zm-7741 28568c-1324,1 -2374,-206 -2374,-1797 0,-731 1312,-2832 1976,-3894l282 -455 507 -898c769,-1397 1537,-2794 2771,-2794l122 7c435,39 845,290 1137,629 289,336 478,773 478,1195l-5 127c-38,438 -488,1167 -784,1649l-1616 2651c1515,0 3030,6 4545,-16 1580,-2 2286,229 2286,2110 0,376 -1683,2941 -2827,4680l-942 1452 -193 340c-390,718 -768,1413 -1890,1413 -462,0 -875,-215 -1167,-549 -281,-324 -457,-765 -457,-1233 0,-770 872,-2067 1747,-3367 290,-432 582,-863 835,-1267 -1478,0 -2955,-8 -4433,17zm47523 -6120c-1580,12 -3260,24 -3260,-1937 0,-687 1181,-2573 1866,-3666l1526 -2522 187 -340c366,-694 718,-1357 1801,-1357 201,0 391,23 564,61 481,108 811,350 1023,651 209,300 295,649 295,978 0,140 -19,289 -50,430 -84,368 -485,1005 -769,1457l-1569 2531c1408,0 2815,3 4223,-13 1409,-2 2602,202 2602,2103 0,81 -1868,3402 -3377,5619 -874,1283 -1699,2266 -2159,2266 -342,0 -805,-35 -1204,-200 -503,-207 -890,-588 -890,-1268 0,-945 126,-1115 459,-1569l281 -405 1801 -2821 -3351 3zm-43310 13252l45 0c1536,0 2950,-510 4157,-1352 1366,-953 2486,-2335 3248,-3904 771,-1589 944,-3400 601,-5144 -353,-1799 -1253,-3520 -2604,-4854 -1700,-1679 -3819,-2451 -5942,-2438 -2262,15 -4550,924 -6367,2574 -59,54 -115,129 -172,205l-284 357c-1345,1551 -2093,3438 -2203,5351 -109,1895 401,3822 1565,5489 129,165 359,485 507,626 384,483 767,880 1192,1223 432,347 935,663 1558,980 1726,887 2754,887 4697,887zm13231 -11672c199,1070 264,2144 264,3369 0,2766 -963,5322 -2421,7433 -1659,2399 -3981,4237 -6260,5155 -2607,1049 -5617,1297 -8445,718 -2705,-552 -5263,-1864 -7173,-3948 -898,-974 -1671,-2061 -2290,-3242 -604,-1146 -1059,-2373 -1338,-3667 -772,-3570 -179,-6885 1307,-9633 1282,-2370 3232,-4313 5539,-5629 2305,-1315 4977,-2007 7704,-1876 3140,150 6345,1385 9139,3997 509,473 1316,1502 1757,2155 415,615 743,1101 1143,1933 537,1120 874,2155 1074,3234zm3099 -15733l-33821 0 0 37265 33821 0 0 -37265zm35995 0l-13007 0 0 24588 13007 0 0 -24588zm-18310 3756l-800 0 0 8626 800 0 0 -8626zm-56965 39917l0 -50393c0,-2249 615,-3990 1829,-5204 1215,-1215 2955,-1829 5204,-1829l30517 0c420,0 877,34 1327,92 478,61 917,150 1268,249 1126,318 2213,1070 2995,2015 779,939 1286,2102 1286,3269l0 53679c0,1538 -757,3002 -2000,4051 -1132,955 -2678,1574 -4407,1574l-7983 0 26 1529c52,2349 78,3557 -586,4462 -837,1139 -1939,1117 -4200,1070l-412 -8 0 1407c0,513 292,1045 728,1461 466,446 1061,738 1628,738l7825 0c2359,0 2669,-2406 2856,-3864 71,-554 132,-1025 250,-1381 519,-1575 1479,-2928 2847,-3871 1254,-864 2829,-1370 4689,-1370 933,0 1577,-16 2200,-31 5038,-125 9416,-232 11554,5038 509,1256 570,2137 620,2898 30,448 56,832 241,1158 729,1289 2005,1280 3305,1273l385 -2c510,-5 1055,-295 1485,-726 431,-431 720,-974 720,-1479l0 -29430 -4860 0c-1313,0 -2394,-423 -3172,-1202 -779,-772 -1202,-1855 -1202,-3172l0 -7826 -952 14c-1952,37 -3013,56 -3848,-414 -1115,-622 -1278,-1453 -1297,-3051l-1111 0c-1175,0 -2005,-671 -2379,-1543 -142,-342 -216,-715 -209,-1082 5,-376 92,-756 258,-1100 425,-879 1338,-1578 2800,-1578l635 0 0 -1717c-474,-1 -954,-25 -1399,-114 -1554,-311 -2627,-1139 -2219,-3192 390,-1972 1965,-2197 3628,-2193 30,-1513 220,-2306 1331,-2903 821,-442 1877,-423 3808,-387l1014 15c63,-602 193,-1211 453,-1781 566,-1238 1610,-2124 3548,-2124l15649 0c1186,0 2187,514 2927,1216 913,864 1446,2094 1446,3000l0 27074c0,1226 -486,2237 -1290,2956 -795,711 -1879,1105 -3084,1105l-4860 0 0 28804c0,1698 -481,3162 -1282,4363 -797,1192 -1908,2109 -3173,2718 -1244,599 -2643,911 -4038,911 -1733,0 -3491,-480 -4985,-1477 -1005,-673 -1828,-1600 -2410,-2655 -582,-1059 -932,-2268 -986,-3490 -39,-878 -307,-1594 -730,-2073 -366,-414 -880,-653 -1479,-653l-7199 0c-346,0 -716,148 -1048,366 -423,277 -755,639 -913,960 -194,393 -270,1066 -347,1755 -93,839 -190,1701 -519,2540 -687,1750 -1790,2976 -3206,3768 -1359,763 -2976,1096 -4765,1096 -992,0 -1691,17 -2359,33 -5107,121 -9390,221 -11829,-4607 -773,-1531 -846,-2954 -837,-4465l-1051 26c-2125,0 -4104,-390 -4104,-2403l0 -4704 -8773 0c-840,0 -1721,-285 -2486,-696 -853,-460 -1614,-1119 -2028,-1732 -471,-693 -791,-1380 -993,-2173 -190,-769 -273,-1593 -273,-2589z"/>
 </g>
</svg>
