<?xml version="1.0" encoding="UTF-8"?>
<!DOCTYPE svg PUBLIC "-//W3C//DTD SVG 1.0//EN" "http://www.w3.org/TR/2001/REC-SVG-20010904/DTD/svg10.dtd">
<!-- Creator: CorelDRAW -->
<svg xmlns="http://www.w3.org/2000/svg" xml:space="preserve" width="7.4576mm" height="8.0762mm" version="1.0" style="shape-rendering:geometricPrecision; text-rendering:geometricPrecision; image-rendering:optimizeQuality; fill-rule:evenodd; clip-rule:evenodd"
viewBox="0 0 36442 39465"
 xmlns:xlink="http://www.w3.org/1999/xlink"
 xmlns:xodm="http://www.corel.com/coreldraw/odm/2003">
 <defs>
  <style type="text/css">
   <![CDATA[
    .fil0 {fill:#00A0E3}
   ]]>
  </style>
 </defs>
 <g id="Layer_x0020_1">
  <metadata id="CorelCorpID_0Corel-Layer"/>
  <path class="fil0" d="M18221 0c1864,0 3552,756 4773,1978 1221,1221 1978,2909 1978,4773 0,1863 -756,3552 -1978,4773 -1221,1221 -2909,1978 -4773,1978 -1863,0 -3552,-756 -4773,-1978 -1221,-1221 -1978,-2910 -1978,-4773 0,-1864 756,-3552 1978,-4773 1221,-1221 2910,-1978 4773,-1978zm13198 29419c1386,0 2643,563 3552,1471 908,908 1471,2165 1471,3552 0,1385 -563,2643 -1471,3552 -908,909 -2165,1472 -3552,1472 -1385,0 -2643,-563 -3552,-1471 -909,-909 -1472,-2167 -1472,-3552 0,-1386 563,-2643 1471,-3552 909,-908 2166,-1471 3552,-1471zm-26396 0c1386,0 2643,563 3552,1471 909,908 1472,2165 1472,3552 0,1385 -563,2643 -1471,3552 -909,909 -2166,1472 -3552,1472 -1386,0 -2643,-563 -3552,-1471 -908,-909 -1471,-2167 -1471,-3552 0,-1386 563,-2643 1471,-3552 908,-908 2165,-1471 3552,-1471z"/>
 </g>
</svg>
