<?xml version="1.0" encoding="UTF-8"?>
<!DOCTYPE svg PUBLIC "-//W3C//DTD SVG 1.0//EN" "http://www.w3.org/TR/2001/REC-SVG-20010904/DTD/svg10.dtd">
<!-- Creator: CorelDRAW -->
<svg xmlns="http://www.w3.org/2000/svg" xml:space="preserve" width="11mm" height="4.9293mm" version="1.0" style="shape-rendering:geometricPrecision; text-rendering:geometricPrecision; image-rendering:optimizeQuality; fill-rule:evenodd; clip-rule:evenodd"
viewBox="0 0 63997 28678"
 xmlns:xlink="http://www.w3.org/1999/xlink"
 xmlns:xodm="http://www.corel.com/coreldraw/odm/2003">
 <defs>
  <style type="text/css">
   <![CDATA[
    .fil0 {fill:#00A0E3}
   ]]>
  </style>
 </defs>
 <g id="Layer_x0020_1">
  <metadata id="CorelCorpID_0Corel-Layer"/>
  <path class="fil0" d="M56006 12721l4 -3032 571 236c430,177 986,518 1453,801l2033 1198c497,301 980,581 1496,877 219,127 454,258 665,394 424,258 955,583 1162,646l607 186 -137 159c-889,1034 -2531,1894 -4045,2686 -648,339 -1276,668 -1799,986l-7 5c-507,314 -1307,806 -1607,789l-392 -22 2 -2891 -25918 20 2225 2337 696 763 1431 1500c348,380 663,757 1048,1097 157,141 305,305 457,475l12 12c262,294 557,623 939,870 377,245 852,419 1482,419 592,-1 1216,13 1846,24l122 2c1141,23 2308,47 3366,1l-2 -2429c2616,-15 5237,-2 7854,-2 0,2614 -10,5232 5,7845 -2615,0 -5234,-12 -7849,3l-31 -2439 -4597 -2c-1390,-1 -2266,-158 -2998,-490 -731,-332 -1314,-840 -2125,-1546l-61 -52c-180,-155 -334,-305 -473,-452l-727 -808c-297,-322 -748,-785 -1232,-1285l-73 -76c-818,-844 -1724,-1780 -2172,-2299l-1503 -1627 -498 -467c-466,-444 -838,-798 -1341,-1033 -506,-237 -1162,-365 -2203,-364l-4207 7 -2218 -11c-1705,-12 -3675,-25 -4939,20 -141,666 -406,1307 -772,1886 -390,617 -897,1172 -1491,1625 -605,462 -1304,824 -2068,1047 -720,211 -1499,300 -2309,236 -772,-61 -1513,-272 -2189,-603 -691,-339 -1318,-808 -1839,-1372 -515,-557 -934,-1214 -1221,-1936 -275,-692 -432,-1450 -439,-2240 -7,-799 133,-1560 393,-2256 272,-730 676,-1392 1178,-1955 513,-577 1133,-1056 1820,-1409 675,-346 1419,-571 2197,-650 410,-41 806,-41 1182,-9 406,37 795,112 1157,215 392,111 767,261 1116,435 375,186 725,406 1038,639 130,97 257,204 377,314 126,116 251,244 368,374l352 424 325 458c202,329 347,609 503,961 95,265 174,525 257,794 596,40 2311,26 3067,20l271 -2c305,-2 606,-45 893,-118 306,-77 604,-194 883,-337 305,-157 591,-347 848,-554 278,-224 527,-472 738,-727 307,-369 451,-507 580,-630 403,-357 828,-858 1206,-1250l581 -677 3459 -3582 466 -453 535 -487c1008,-812 1730,-1218 2475,-1417 744,-200 1498,-192 2576,-181l816 5c987,1 1731,15 2290,23l1044 12c214,-1 354,-10 440,-27l195 -412c65,-123 154,-266 275,-429 204,-273 453,-520 732,-728 280,-210 596,-385 929,-513 326,-126 674,-211 1029,-247 345,-34 699,-26 1051,34 643,110 1193,348 1644,672 490,352 867,811 1126,1321 144,286 253,591 323,899 72,315 106,641 104,964 -3,323 -45,649 -123,962 -77,308 -193,612 -344,895 -268,504 -655,955 -1153,1298 -458,314 -1012,540 -1658,636 -241,35 -481,47 -713,38 -247,-10 -489,-45 -719,-97 -246,-57 -482,-136 -702,-230 -235,-101 -454,-220 -650,-350 -379,-250 -629,-496 -820,-751 -189,-254 -318,-515 -460,-802l-81 -162 -4647 -25c-762,-9 -1344,-17 -1868,130 -515,145 -988,447 -1546,1057l-2227 2304 -616 686c-149,157 -315,319 -519,502l-289 291c-732,848 -1483,1623 -2257,2438l34559 -9z"/>
 </g>
</svg>
