<?xml version="1.0" encoding="UTF-8"?>
<!DOCTYPE svg PUBLIC "-//W3C//DTD SVG 1.0//EN" "http://www.w3.org/TR/2001/REC-SVG-20010904/DTD/svg10.dtd">
<!-- Creator: CorelDRAW -->
<svg xmlns="http://www.w3.org/2000/svg" xml:space="preserve" width="9.7054mm" height="9.7027mm" version="1.0" style="shape-rendering:geometricPrecision; text-rendering:geometricPrecision; image-rendering:optimizeQuality; fill-rule:evenodd; clip-rule:evenodd"
viewBox="0 0 25483 25476"
 xmlns:xlink="http://www.w3.org/1999/xlink"
 xmlns:xodm="http://www.corel.com/coreldraw/odm/2003">
 <defs>
  <style type="text/css">
   <![CDATA[
    .fil0 {fill:#00A0E3;fill-rule:nonzero}
   ]]>
  </style>
 </defs>
 <g id="Layer_x0020_1">
  <metadata id="CorelCorpID_0Corel-Layer"/>
  <path class="fil0" d="M13941 25468l-83 8 -1 -11c-2103,-13 -2551,-1709 -2580,-3658 -8,-549 17,-1087 41,-1602 24,-517 47,-1010 32,-1406l-351 0c-972,0 -1856,-399 -2496,-1041 -640,-642 -1038,-1527 -1038,-2501l0 -4683 100 0 10047 0 0 4468c0,1033 -422,1972 -1101,2653 -680,681 -1617,1104 -2648,1104l-662 0c13,454 -11,962 -35,1492 -23,502 -48,1027 -41,1494 15,966 151,1809 761,1834 1229,-129 2423,-469 3530,-996 1116,-530 2142,-1252 3028,-2139 2126,-2130 3189,-4924 3189,-7720 0,-2794 -1063,-5588 -3187,-7718l-18 -14c-2121,-2120 -4902,-3179 -7684,-3179 -2782,0 -5563,1059 -7686,3178l-14 18c-2126,2128 -3189,4922 -3189,7716 0,2795 1063,5590 3189,7720l-1310 1302c-2488,-2493 -3732,-5758 -3732,-9022 0,-3263 1244,-6529 3732,-9022 0,-6 14,-20 20,-20 2486,-2482 5739,-3722 8990,-3722 3251,0 6503,1241 8990,3722 6,0 20,14 20,20 2488,2493 3732,5758 3732,9022 0,3264 -1244,6529 -3732,9022 -1040,1042 -2242,1887 -3549,2508 -1304,620 -2717,1018 -4180,1167l-82 7zm2495 -15757l-1917 0 0 -3635c0,-242 99,-462 258,-622 159,-160 380,-259 621,-259l210 0c255,0 487,105 655,273 168,168 273,401 273,656l0 3586 -100 0zm-5983 0l-1917 0 0 -3635c0,-242 99,-462 258,-622 159,-160 379,-259 621,-259l210 0c255,0 487,105 655,273 168,168 273,401 273,656l0 3586 -100 0zm-5412 10772l-1310 1302 1310 -1302z"/>
 </g>
</svg>
