<?xml version="1.0" encoding="UTF-8"?>
<!DOCTYPE svg PUBLIC "-//W3C//DTD SVG 1.0//EN" "http://www.w3.org/TR/2001/REC-SVG-20010904/DTD/svg10.dtd">
<!-- Creator: CorelDRAW -->
<svg xmlns="http://www.w3.org/2000/svg" xml:space="preserve" width="8.7785mm" height="9.301mm" version="1.0" style="shape-rendering:geometricPrecision; text-rendering:geometricPrecision; image-rendering:optimizeQuality; fill-rule:evenodd; clip-rule:evenodd"
viewBox="0 0 23444 24839"
 xmlns:xlink="http://www.w3.org/1999/xlink"
 xmlns:xodm="http://www.corel.com/coreldraw/odm/2003">
 <defs>
  <style type="text/css">
   <![CDATA[
    .fil0 {fill:#00A0E3}
   ]]>
  </style>
 </defs>
 <g id="Layer_x0020_1">
  <metadata id="CorelCorpID_0Corel-Layer"/>
  <path class="fil0" d="M10408 10695l3 0 785 3 1 -853c-417,-103 -754,-316 -991,-611 -239,-297 -379,-678 -399,-1116 -38,-820 210,-1053 585,-1405l75 -70 18 -1653 2441 -13 0 1 0 24 -24 1605 14 15c97,92 629,599 629,1424 0,456 -148,874 -394,1193 -248,322 -596,544 -990,605l-1 852 811 8 5 1138c2,58 0,118 -6,176 -31,300 -168,588 -375,802 -207,214 -486,358 -801,369 -52,2 -106,0 -160,-6 -376,-39 -685,-196 -903,-421 -228,-236 -356,-550 -356,-884l33 -1185 1 0zm-9849 -10695l22883 0 1 24838 -23443 1 -1 -24838 559 -1zm21766 1119l-21207 0 0 22602 21207 0 0 -22602zm-7014 15157l0 -44 0 44 0 0zm-22 2507l99 19 -99 -19 0 0zm401 -2628l272 -37c149,-20 330,10 493,66 179,61 338,154 413,244l1456 -26 11 2232 -1 0 -4 0 -1456 -4c-122,95 -298,182 -478,235 -163,48 -331,68 -468,42l-639 -123 5 799 -1367 1 -1 -3581 1384 -1 1 272 378 -119zm-8311 -37l272 37 378 119 0 -271 1384 -1c6,1193 1,2388 1,3581l-1367 1 0 -1 0 -3 3 -795 -639 123c-136,26 -305,6 -468,-42 -180,-53 -356,-140 -478,-235l-1460 5 0 -1 0 -9 9 -2222 1 0 24 1 1432 24c76,-91 235,-183 414,-244 163,-55 343,-86 493,-65zm673 2664l-1 136 1 -136 0 0zm-22 -2507l-86 -26 86 27 0 -1z"/>
 </g>
</svg>
