<?xml version="1.0" encoding="UTF-8"?>
<!DOCTYPE svg PUBLIC "-//W3C//DTD SVG 1.0//EN" "http://www.w3.org/TR/2001/REC-SVG-20010904/DTD/svg10.dtd">
<!-- Creator: CorelDRAW -->
<svg xmlns="http://www.w3.org/2000/svg" xml:space="preserve" width="8.7786mm" height="9.301mm" version="1.0" style="shape-rendering:geometricPrecision; text-rendering:geometricPrecision; image-rendering:optimizeQuality; fill-rule:evenodd; clip-rule:evenodd"
viewBox="0 0 26693 28281"
 xmlns:xlink="http://www.w3.org/1999/xlink"
 xmlns:xodm="http://www.corel.com/coreldraw/odm/2003">
 <defs>
  <style type="text/css">
   <![CDATA[
    .fil0 {fill:#00A0E3}
   ]]>
  </style>
 </defs>
 <g id="Layer_x0020_1">
  <metadata id="CorelCorpID_0Corel-Layer"/>
  <path class="fil0" d="M20003 22256l-5 0 -5 0 -5 0 -5 0 -5 0 -5 0 -5 0 -5 0 -5 0 -5 0 -5 0 -5 0 -5 0 -5 0 -5 0 -5 0 -39 -1 -54 -6 -5 -1 -5 -1 -5 -1 -5 -1 -5 -1 -5 -1 -5 -1 -5 -1 -5 -1 -5 -1 -5 -1 -5 -1 -5 -1 -45 -5c-142,274 -355,504 -612,663 -249,154 -541,243 -852,243 -459,0 -874,-192 -1175,-503 -300,-310 -487,-740 -487,-1214 0,-409 139,-785 369,-1079 235,-300 566,-517 945,-600 69,-551 332,-1039 716,-1388 379,-345 878,-554 1423,-554 595,0 1134,250 1525,653 390,403 632,961 632,1576 0,615 -241,1173 -632,1576 -390,403 -929,653 -1525,653l-42 -2zm-19366 -22256l26054 0 2 28280 -26691 2 -2 -28280 637 -2zm24782 1274l-24145 0 0 25734 24145 0 0 -25734zm-10639 8005c22,55 55,106 94,151 40,45 87,84 137,113 138,185 248,393 321,615 71,215 110,445 110,685 0,602 -244,1147 -638,1541 -394,394 -939,638 -1541,638l-168 0c-602,0 -1147,-244 -1541,-638 -394,-394 -638,-939 -638,-1541 0,-239 39,-470 110,-685 74,-223 183,-431 321,-615 51,-29 99,-69 138,-114 39,-45 72,-97 94,-151 21,-58 29,-93 37,-154l0 -49c-2,-41 -7,-79 -17,-117 -10,-38 -26,-78 -49,-125 -148,-117 -284,-251 -406,-398 -121,-145 -227,-305 -317,-476l-33 -67 -2 -3 -2 -3 -2 -3 -2 -3 -1 -2 -1 -1 -2 -3 -2 -3 -2 -3 -2 -3 -3 -6 -1 -1c-17,-35 -34,-73 -49,-109l-2 -4 -11 -28 -13 -33 -7 -17 -7 -19 -9 -23 -4 -11 -6 -16 -7 -20 -3 -7 -4 -13 -1 -2 -6 -18 -1 -3 -6 -17 0 0c-93,-279 -138,-559 -140,-881 0,-765 300,-1457 785,-1958 485,-501 1155,-811 1895,-811 740,0 1410,310 1895,811 485,501 785,1194 785,1958 -2,351 -56,655 -167,961l-6 17 -1 3 -3 8 -9 23 -7 19 -4 10 -3 8 -13 33 -9 19 -3 9 -2 4 -32 73 -2 3 -2 3 -2 3 -2 3 -1 2 -1 2 -2 3 -2 3 -2 3 -2 3 -2 3 -1 2 0 1 -2 3 -2 3 -2 3 -2 3 -2 3 -1 3 0 1 -3 6 -2 3 -2 3 -2 3 -32 65c-91,172 -198,332 -318,478 -121,146 -258,280 -406,398 -23,47 -39,87 -49,125 -9,38 -15,76 -17,117l0 49c8,61 16,96 37,154zm-9806 9175c390,-403 930,-653 1525,-653 545,0 1043,209 1422,554 384,349 648,837 716,1388 378,83 710,300 944,600 231,295 369,670 369,1079 0,474 -186,903 -487,1214 -300,310 -716,503 -1175,503 -311,0 -604,-89 -852,-243 -257,-159 -470,-389 -612,-663l-45 5 -5 1 -5 1 -5 1 -5 1 -5 1 -5 1 -5 1 -5 1 -5 1 -5 1 -5 1 -5 1 -5 1 -54 6 -39 1 -5 0 -5 0 -5 0 -5 0 -5 0 -5 0 -5 0 -5 0 -5 0 -5 0 -5 0 -5 0 -5 0 -5 0 -5 0 -5 0 -42 2c-595,0 -1135,-250 -1525,-653 -390,-403 -632,-960 -632,-1576 0,-615 241,-1173 632,-1576z"/>
 </g>
</svg>
