<?xml version="1.0" encoding="UTF-8"?>
<!DOCTYPE svg PUBLIC "-//W3C//DTD SVG 1.0//EN" "http://www.w3.org/TR/2001/REC-SVG-20010904/DTD/svg10.dtd">
<!-- Creator: CorelDRAW -->
<svg xmlns="http://www.w3.org/2000/svg" xml:space="preserve" width="10.0665mm" height="9mm" version="1.0" style="shape-rendering:geometricPrecision; text-rendering:geometricPrecision; image-rendering:optimizeQuality; fill-rule:evenodd; clip-rule:evenodd"
viewBox="0 0 40535 36240"
 xmlns:xlink="http://www.w3.org/1999/xlink"
 xmlns:xodm="http://www.corel.com/coreldraw/odm/2003">
 <defs>
  <style type="text/css">
   <![CDATA[
    .fil0 {fill:#00A0E3}
   ]]>
  </style>
 </defs>
 <g id="Layer_x0020_1">
  <metadata id="CorelCorpID_0Corel-Layer"/>
  <path class="fil0" d="M7641 20664c3526,-79 5838,-1918 8012,-3374 0,5417 -703,9777 1587,13595 3968,6613 15124,7876 19797,-645 2027,-3696 1389,-9155 1389,-14637 1707,-456 2062,-1268 2108,-3374l-5904 0c-2213,0 -776,2829 1265,3374 0,6560 1083,13163 -3860,16382 -5585,3637 -11094,796 -13027,-3291 -2720,-5751 1410,-17791 -2516,-24051 -1589,-2534 -4673,-4644 -8851,-4644l0 20664zm-1719 -6734l-5922 0 0 2193 5922 0 0 -2193zm55 -9563l-5922 0 0 2194 5922 0 0 -2194z"/>
 </g>
</svg>
