<?xml version="1.0" encoding="UTF-8"?>
<!DOCTYPE svg PUBLIC "-//W3C//DTD SVG 1.0//EN" "http://www.w3.org/TR/2001/REC-SVG-20010904/DTD/svg10.dtd">
<!-- Creator: CorelDRAW -->
<svg xmlns="http://www.w3.org/2000/svg" xml:space="preserve" width="8.3258mm" height="9.0001mm" version="1.0" style="shape-rendering:geometricPrecision; text-rendering:geometricPrecision; image-rendering:optimizeQuality; fill-rule:evenodd; clip-rule:evenodd"
viewBox="0 0 33286 35982"
 xmlns:xlink="http://www.w3.org/1999/xlink"
 xmlns:xodm="http://www.corel.com/coreldraw/odm/2003">
 <defs>
  <style type="text/css">
   <![CDATA[
    .fil0 {fill:#00A0E3}
   ]]>
  </style>
 </defs>
 <g id="Layer_x0020_1">
  <metadata id="CorelCorpID_0Corel-Layer"/>
  <path class="fil0" d="M12743 3577l4414 3716 5563 -6642c598,-713 1616,-860 2247,-342l0 0c631,534 663,1551 67,2279l-5564 6648 5578 4656 5514 -6582c582,-712 1600,-873 2231,-339l0 0c630,534 662,1552 64,2264l-5497 6596 4429 3703c795,662 906,1860 244,2652l0 0c-663,808 -1859,907 -2651,239l-19064 -15956c-793,-664 -905,-1857 -227,-2652l0 0c663,-792 1859,-906 2652,-241l0 0 0 0zm-12743 30546l8264 -8313 1874 1860 -8246 8312 -1892 -1859 0 0zm11594 -22170l-3834 4593c-1017,1214 -694,3172 711,4352l7050 5901c1391,1180 3380,1149 4384,-64l3847 -4594 -12158 -10187 0 0zm-387 -2133l-5093 6078c-1343,1616 -1052,4107 646,5529l8538 7149c1696,1424 4187,1276 5529,-339l5093 -6098 -14714 -12320 0 0zm-438 -1989l-6274 7517c-1666,1989 -1406,4964 581,6630l9978 8344c1957,1665 4947,1407 6613,-582l6291 -7520 -17190 -14390z"/>
 </g>
</svg>
