<?xml version="1.0" encoding="UTF-8"?>
<!DOCTYPE svg PUBLIC "-//W3C//DTD SVG 1.0//EN" "http://www.w3.org/TR/2001/REC-SVG-20010904/DTD/svg10.dtd">
<!-- Creator: CorelDRAW -->
<svg xmlns="http://www.w3.org/2000/svg" xml:space="preserve" width="8.2145mm" height="9.0008mm" version="1.0" style="shape-rendering:geometricPrecision; text-rendering:geometricPrecision; image-rendering:optimizeQuality; fill-rule:evenodd; clip-rule:evenodd"
viewBox="0 0 40122 43963"
 xmlns:xlink="http://www.w3.org/1999/xlink"
 xmlns:xodm="http://www.corel.com/coreldraw/odm/2003">
 <defs>
  <style type="text/css">
   <![CDATA[
    .fil0 {fill:#00A0E3}
   ]]>
  </style>
 </defs>
 <g id="Layer_x0020_1">
  <metadata id="CorelCorpID_0Corel-Layer"/>
  <path class="fil0" d="M16258 17206l12 0 2362 12 1 -2570c-1255,-310 -2269,-950 -2984,-1837 -719,-893 -1139,-2041 -1201,-3359 -116,-2468 632,-3169 1761,-4229l225 -211 54 -4975 7345 -37 0 2 -1 74 -74 4830c-5,2 15,17 43,43 290,276 1893,1800 1893,4286 0,1373 -446,2630 -1185,3590 -746,969 -1792,1637 -2980,1821l-1 2569 2442 24 12 3424c6,177 0,355 -18,530 -94,903 -505,1769 -1128,2414 -624,646 -1462,1076 -2410,1110 -157,5 -318,0 -481,-17 -1131,-117 -2062,-588 -2717,-1267 -686,-711 -1072,-1653 -1072,-2661l101 -3567 2 0zm14760 16799l0 -134 0 134 0 0zm-67 7546l299 57 -299 -58 0 0zm1208 -7908l820 -111c449,-61 992,30 1483,197 539,185 1018,463 1245,734l4382 -77 33 6719 -2 0 -13 0 -4382 -13c-366,287 -895,548 -1438,707 -490,143 -996,204 -1408,125l-1925 -370 16 2406 -4114 2 -2 -10777 4164 -2 2 819 1139 -359zm-25018 -111l820 111 1139 359 0 -817 4164 -2c10,3592 2,7185 2,10777l-4114 2 0 -2 0 -13 13 -2393 -1925 370c-411,79 -917,18 -1408,-125 -543,-159 -1072,-420 -1438,-707l-4395 16 0 -2 0 -28 28 -6688 2 0 74 1 4308 73c227,-272 706,-549 1245,-734 491,-168 1034,-258 1483,-197zm2027 8019l-2 412 2 -412 0 0zm-66 -7547l-259 -81 259 82 0 -1z"/>
 </g>
</svg>
