<?xml version="1.0" encoding="UTF-8"?>
<!DOCTYPE svg PUBLIC "-//W3C//DTD SVG 1.0//EN" "http://www.w3.org/TR/2001/REC-SVG-20010904/DTD/svg10.dtd">
<!-- Creator: CorelDRAW -->
<svg xmlns="http://www.w3.org/2000/svg" xml:space="preserve" width="8.3405mm" height="9.0011mm" version="1.0" style="shape-rendering:geometricPrecision; text-rendering:geometricPrecision; image-rendering:optimizeQuality; fill-rule:evenodd; clip-rule:evenodd"
viewBox="0 0 54212 58506"
 xmlns:xlink="http://www.w3.org/1999/xlink"
 xmlns:xodm="http://www.corel.com/coreldraw/odm/2003">
 <defs>
  <style type="text/css">
   <![CDATA[
    .fil0 {fill:#00A0E3}
   ]]>
  </style>
 </defs>
 <g id="Layer_x0020_1">
  <metadata id="CorelCorpID_0Corel-Layer"/>
  <path class="fil0" d="M47667 42305c1807,0 3444,757 4629,1982 1184,1223 1917,2915 1917,4783 0,1868 -733,3559 -1917,4783 -1184,1225 -2822,1982 -4629,1982 -168,0 -335,-7 -500,-19 -166,-13 -332,-33 -493,-58 -432,832 -1077,1530 -1858,2012 -756,468 -1641,737 -2587,737 -1392,0 -2654,-584 -3565,-1527 -912,-942 -1477,-2246 -1477,-3684 0,-1241 420,-2381 1120,-3275 713,-911 1719,-1570 2868,-1822 209,-1672 1009,-3154 2174,-4211 1151,-1046 2663,-1681 4317,-1681zm-15984 -25873c68,167 167,324 286,460 120,138 263,256 417,344 419,561 751,1191 975,1868 216,653 333,1353 333,2079 0,1826 -741,3482 -1938,4678 -1197,1197 -2851,1938 -4678,1938l-510 0c-1827,0 -3481,-741 -4678,-1938 -1197,-1196 -1938,-2851 -1938,-4678 0,-727 118,-1427 333,-2079 224,-677 556,-1307 974,-1867 155,-88 298,-207 418,-344 119,-136 218,-294 285,-460l49 -138 39 -161 23 -171 1 -150c-6,-125 -21,-239 -51,-356 -30,-117 -77,-239 -149,-381 -450,-357 -864,-763 -1232,-1208 -366,-441 -690,-927 -963,-1444l-161 -319 -75 -171 -2 -3 -3 -7 -5 -10 -5 -10 -5 -10 -4 -10 -5 -10 -40 -91 -5 -12 -36 -84 -40 -101 -20 -52 -22 -57 -27 -72 -12 -32 -47 -132 -16 -45 -21 -63 -18 -53 -15 -48 -2 -5 -18 -56 -3 -8 -15 -47 -3 -12c-243,-794 -360,-1583 -369,-2499 0,-2321 911,-4423 2382,-5943 1472,-1521 3505,-2463 5752,-2463 2246,0 4280,942 5752,2463 1471,1520 2382,3622 2382,5943 -8,874 -115,1627 -335,2381l-5 18 -17 55 -1 3 -12 42 -4 11 -14 48 -37 118 -18 53 -21 63 -15 45 -47 132 -12 32 -27 72 -22 57 -20 52 -40 101 -36 84 -5 12 -35 81 -5 9 0 1 -8 20 -5 10 -5 10 -5 10 -3 6 -2 4 -75 171 -158 313c-276,523 -600,1008 -966,1449 -368,445 -782,851 -1232,1208 -71,142 -119,264 -149,381 -30,116 -45,230 -51,356l1 150 23 171 39 161 49 138zm-4907 11360l95 0 -47 -2 -47 2zm-24859 16494c1184,-1225 2822,-1982 4629,-1982 1654,0 3166,635 4317,1681 1165,1058 1966,2539 2174,4211 1149,252 2155,911 2868,1822 700,894 1120,2034 1120,3275 0,1438 -565,2742 -1477,3684 -911,942 -2173,1527 -3565,1527 -945,0 -1831,-270 -2587,-737 -781,-482 -1425,-1181 -1857,-2012 -161,25 -328,45 -495,58 -164,12 -331,19 -499,19 -1807,0 -3444,-757 -4629,-1982 -1184,-1223 -1917,-2915 -1917,-4783 0,-1868 733,-3559 1917,-4783z"/>
 </g>
</svg>
