<?xml version="1.0" encoding="UTF-8"?>
<!DOCTYPE svg PUBLIC "-//W3C//DTD SVG 1.0//EN" "http://www.w3.org/TR/2001/REC-SVG-20010904/DTD/svg10.dtd">
<!-- Creator: CorelDRAW -->
<svg xmlns="http://www.w3.org/2000/svg" xml:space="preserve" width="5.5049mm" height="9.5mm" version="1.0" style="shape-rendering:geometricPrecision; text-rendering:geometricPrecision; image-rendering:optimizeQuality; fill-rule:evenodd; clip-rule:evenodd"
viewBox="0 0 35471 61213"
 xmlns:xlink="http://www.w3.org/1999/xlink"
 xmlns:xodm="http://www.corel.com/coreldraw/odm/2003">
 <defs>
  <style type="text/css">
   <![CDATA[
    .fil0 {fill:#00A0E3}
   ]]>
  </style>
 </defs>
 <g id="Layer_x0020_1">
  <metadata id="CorelCorpID_0Corel-Layer"/>
  <path class="fil0" d="M30113 13651l3824 0c427,3 811,176 1086,451 277,276 448,660 448,1081l0 4864c0,423 -172,807 -450,1086 -279,278 -664,451 -1087,451l-964 0 0 9129c0,1193 -265,2347 -760,3389 -496,1041 -1222,1971 -2145,2714 -441,356 -902,679 -1378,966 -417,250 -843,477 -1278,676l0 65c0,1228 -479,2349 -1260,3184 -712,762 -1679,1287 -2762,1437l0 4273c0,425 -173,809 -450,1087 -278,277 -662,450 -1087,450l-567 0 0 10723c0,424 -173,809 -450,1086 -278,278 -663,450 -1087,450l-4017 0c-423,0 -808,-173 -1086,-451 -278,-277 -451,-662 -451,-1086l0 -10723 -568 0c-425,0 -809,-173 -1087,-450 -278,-278 -450,-662 -450,-1087l0 -4273c-1084,-150 -2050,-675 -2762,-1437 -781,-835 -1260,-1956 -1260,-3184l0 -65c-435,-199 -861,-426 -1278,-677 -476,-285 -937,-609 -1378,-965 -923,-743 -1650,-1673 -2145,-2713 -495,-1043 -760,-2197 -760,-3390l0 -9132 -964 0c-423,0 -809,-173 -1087,-450 -278,-278 -450,-662 -450,-1086l0 -4857c0,-424 173,-809 450,-1086 278,-278 664,-450 1087,-450l3823 0 0 -9449c0,-1158 472,-2210 1232,-2970 760,-760 1811,-1232 2970,-1232 1157,0 2210,471 2970,1231 760,760 1231,1811 1231,2971l0 9449 7945 0 0 -9449c0,-1156 470,-2208 1232,-2969 762,-762 1813,-1233 2969,-1233 1157,0 2208,472 2969,1232 761,762 1233,1813 1233,2970l0 9449zm-6113 7933c-202,0 -403,-42 -587,-119 -184,-77 -355,-190 -499,-333 -166,-184 -228,-278 -334,-501l-48 -137c-50,-195 -52,-260 -68,-448 0,-99 10,-202 29,-298 170,-665 549,-1042 1212,-1211 99,-20 200,-30 295,-30 100,0 202,10 302,30 232,61 346,107 552,231 486,369 633,682 684,1278 0,97 -10,198 -29,298 -76,295 -137,424 -320,676 -245,266 -405,374 -741,496l-287 58 -159 10zm1111 -18180c-204,203 -330,486 -330,798l0 9449 2256 0 0 -9449c0,-312 -126,-595 -329,-798 -204,-204 -487,-331 -799,-331 -312,0 -595,126 -798,330zm-16347 0c-204,203 -330,486 -330,798l0 9449 2256 0 0 -9449c0,-312 -126,-595 -329,-798 -204,-204 -486,-331 -798,-331 -312,0 -595,126 -798,330zm6395 42481l5155 0 0 -2691 -5155 0 0 2691zm2104 12259l943 0 0 -9185 -943 0 0 9185zm11739 -39637l3396 0 0 -1782 -29326 0 0 1785 15553 0c423,0 808,173 1086,451 278,277 451,662 451,1086 0,425 -173,809 -450,1087 -278,277 -663,450 -1086,450l-13047 0 0 9127c0,730 162,1434 460,2065 300,631 741,1195 1298,1645 418,336 861,635 1325,893 460,257 947,477 1452,655l8513 7c423,0 808,173 1086,451 278,277 451,661 451,1086 0,425 -173,809 -450,1087 -278,277 -663,450 -1086,450l-7397 0c89,249 237,470 428,644 281,260 658,417 1072,417l10018 0c438,0 836,-180 1123,-467 288,-287 467,-686 467,-1124l0 -1099c0,-325 103,-634 282,-887 179,-254 436,-454 742,-562 506,-178 992,-398 1454,-656 463,-258 905,-558 1323,-894 559,-450 999,-1014 1299,-1644 298,-631 459,-1334 459,-2065l0 -9132 -896 0c-425,0 -809,-173 -1086,-450 -278,-278 -450,-662 -450,-1086 0,-423 173,-809 450,-1087 277,-278 662,-450 1086,-450z"/>
 </g>
</svg>
