<?xml version="1.0" encoding="UTF-8"?>
<!DOCTYPE svg PUBLIC "-//W3C//DTD SVG 1.0//EN" "http://www.w3.org/TR/2001/REC-SVG-20010904/DTD/svg10.dtd">
<!-- Creator: CorelDRAW -->
<svg xmlns="http://www.w3.org/2000/svg" xml:space="preserve" width="9.0001mm" height="7.6235mm" version="1.0" style="shape-rendering:geometricPrecision; text-rendering:geometricPrecision; image-rendering:optimizeQuality; fill-rule:evenodd; clip-rule:evenodd"
viewBox="0 0 165552 140230"
 xmlns:xlink="http://www.w3.org/1999/xlink"
 xmlns:xodm="http://www.corel.com/coreldraw/odm/2003">
 <defs>
  <style type="text/css">
   <![CDATA[
    .fil0 {fill:#00A0E3;fill-rule:nonzero}
   ]]>
  </style>
 </defs>
 <g id="Layer_x0020_1">
  <metadata id="CorelCorpID_0Corel-Layer"/>
  <path class="fil0" d="M160729 109086c-5947,0 -10043,-6129 -9558,-12779 136,-1871 -79,-3420 -31,-4950 -1122,-631 -2099,-1082 -3863,-1692 -10091,-2851 -20317,-4760 -30676,-6101 -2347,-302 -3889,-1209 -5399,-2882 -6068,-6672 -12841,-12539 -20114,-17802 -3219,-2314 -6672,-3789 -10729,-4091 -9254,-670 -18474,-337 -27726,-99 -7579,200 -14708,2213 -20572,6607 -1917,1437 -3363,2388 -4865,3442l-12048 0c-800,0 -1532,-329 -2071,-857 -530,-530 -863,-1262 -863,-2058l-39 -36802c0,-430 68,-813 200,-1137 118,-289 304,-568 546,-833l107 -101c278,-278 565,-487 854,-620l90 -35c326,-134 705,-204 1126,-204l56977 0 5176 0 48 0c1001,26 1810,852 1810,1858l0 258c0,8173 6683,14859 14857,14859l12648 0c1216,0 2207,-991 2207,-2207l0 -34677c0,-1216 -991,-2207 -2207,-2207l-12648 0c-8174,0 -14857,6686 -14857,14859l0 210c0,1006 -809,1832 -1810,1858l-48 0 -5176 0 -56977 0c-1096,0 -2139,206 -3112,609l-140 63c-925,403 -1757,975 -2489,1707l-162 178c-695,734 -1234,1558 -1606,2459 -403,979 -605,2018 -594,3105l50 36802c2,2229 912,4260 2371,5730 1466,1466 3495,2377 5732,2377l5421 0c-1655,1621 -3552,3346 -4812,4806 -2616,3052 -5465,4994 -9823,5062 -3688,33 -5895,2251 -5895,4358 92,234 -116,5993 0,6337l2709 0c5264,0 8415,2380 8550,6337 134,4023 -2715,6582 -8147,6916l-3112 0c-15,24 -39,10746 0,11053 462,3559 2161,6282 6935,6282l9343 0c6,-1365 114,-2395 289,-3546 1442,-9319 9446,-15039 18698,-15341 7595,-228 14570,4385 17535,11428 1216,2886 1464,5051 1696,7459l56548 0c37,-2752 831,-6701 3631,-10816 4391,-6469 12218,-9247 19693,-7602 7678,1676 13310,7376 14550,15288l180 3131 7047 0c4786,-292 7827,-2527 9067,-12115 195,-1503 287,-2500 304,-3881l-4823 2zm-45569 -109086l4341 0c1655,0 3007,1348 3007,3007l0 41021c0,1659 -1352,3007 -3007,3007l-4341 0c-1655,0 -3007,-1348 -3007,-3007l0 -41021c0,-1659 1352,-3007 3007,-3007zm21251 7801l-7391 0c-2001,0 -3633,1632 -3633,3629l0 2c0,1998 1632,3629 3633,3629l7391 0c2001,0 3633,-1632 3633,-3629l0 -2c0,-1998 -1632,-3629 -3633,-3629zm0 24174l-7391 0c-2001,0 -3633,1632 -3633,3629l0 2c0,1998 1632,3629 3633,3629l7391 0c2001,0 3633,-1632 3633,-3629l0 -2c0,-1998 -1632,-3629 -3633,-3629zm-34201 -16721c903,0 1641,738 1641,1643l0 13244c0,905 -738,1643 -1641,1643 -903,0 -1641,-738 -1641,-1643l0 -13244c0,-905 738,-1643 1641,-1643zm-8404 0c903,0 1641,738 1641,1643l0 13244c0,905 -738,1643 -1641,1643 -903,0 -1641,-738 -1641,-1643l0 -13244c0,-905 738,-1643 1641,-1643zm-47546 79037c-1074,66 -2145,0 -3219,0 -1207,0 -2413,66 -3622,0 -1072,-68 -2314,-302 -2211,-1744 66,-1308 1207,-1676 2314,-1709 2279,-68 4558,-68 6839,-33 1242,0 2682,134 2783,1643 134,1977 -1576,1775 -2882,1843l-2 0zm25548 -33c-1341,33 -2682,0 -4426,0 -1475,-537 -4994,1240 -5029,-1508 -68,-3252 3519,-1578 5498,-1911 1308,-235 2682,-33 4023,0 1174,33 2246,469 2246,1777 0,1407 -1207,1608 -2314,1643l2 0zm29538 -7913c-12974,0 -25982,0 -38958,0 -12977,0 -25984,0 -38959,0 -1889,0 -3611,-171 -3957,-1106 -717,-1944 1006,-2884 2147,-3890 4089,-3653 8414,-7006 13040,-10023 6405,-4157 13143,-6707 21056,-6639 7744,68 15521,-337 23267,134 2916,167 5465,903 7843,2616 5903,4225 11467,8818 16531,13980 1037,1074 2962,2649 2077,3924 -436,629 -1722,1004 -4087,1004zm-65479 23536c-8314,-167 -15490,6874 -15490,15188 0,8180 6973,15087 15153,15087 8316,0 15155,-6707 15188,-14988 68,-8279 -6604,-15153 -14852,-15321l0 33zm-267 21558c-3488,0 -6438,-2917 -6438,-6370 0,-3556 2783,-6304 6403,-6337 3556,0 6372,2715 6405,6269 0,3453 -2917,6405 -6370,6405l0 33zm94645 8783c8079,235 15188,-6672 15356,-14887 166,-8213 -6605,-15220 -14820,-15422 -8180,-202 -15288,6537 -15523,14686 -234,8449 6405,15387 14988,15622zm335 -21457c3622,68 6337,2884 6236,6438 -68,3420 -3085,6302 -6572,6236 -3420,-68 -6370,-3118 -6302,-6537 66,-3488 3017,-6203 6604,-6136l35 0zm28079 -13218c1459,695 4527,254 5976,340 419,-2700 -2126,-7967 -4115,-9670 -1185,-1015 -5290,-4532 -6020,-3719 -265,820 -292,2781 -252,3326 500,6979 2851,8980 4411,9723zm-155613 -1299c2548,167 4626,-436 4692,-3219 68,-2211 -1475,-3144 -3754,-3109l-3947 0c-50,64 -6,6315 0,6328l3009 0zm76440 -36191c-5062,-118 -10159,134 -15221,0l-2805 0 0 14331c11601,-31 25050,0 37758,0 -5500,-5866 -8770,-8684 -14410,-12429 -1749,-1163 -3471,-1852 -5322,-1902zm-22027 -118l-2783 0c-11903,0 -20083,7308 -29470,14449l32253 0 0 -14449zm-22060 54111c-1810,202 -3017,1341 -2882,3186 134,1812 1508,2684 3252,2882 1810,-401 3083,-1339 2882,-3250 -202,-1744 -1275,-2984 -3219,-2783l-33 -35zm95149 5969c1777,-101 3083,-1275 2882,-3153 -167,-1742 -1341,-2849 -3554,-2882 -1442,403 -2715,1341 -2581,3219 99,1878 1440,2916 3250,2816l2 0z"/>
 </g>
</svg>
