<?xml version="1.0" encoding="UTF-8"?>
<!DOCTYPE svg PUBLIC "-//W3C//DTD SVG 1.0//EN" "http://www.w3.org/TR/2001/REC-SVG-20010904/DTD/svg10.dtd">
<!-- Creator: CorelDRAW -->
<svg xmlns="http://www.w3.org/2000/svg" xml:space="preserve" width="7.5522mm" height="9.0001mm" version="1.0" style="shape-rendering:geometricPrecision; text-rendering:geometricPrecision; image-rendering:optimizeQuality; fill-rule:evenodd; clip-rule:evenodd"
viewBox="0 0 15521 18496"
 xmlns:xlink="http://www.w3.org/1999/xlink"
 xmlns:xodm="http://www.corel.com/coreldraw/odm/2003">
 <defs>
  <style type="text/css">
   <![CDATA[
    .fil0 {fill:#00A0E3;fill-rule:nonzero}
   ]]>
  </style>
 </defs>
 <g id="Layer_x0020_1">
  <metadata id="CorelCorpID_0Corel-Layer"/>
  <path class="fil0" d="M217 12450c24,24 63,33 99,42 245,60 299,233 299,461 -6,610 -9,1220 3,1829 6,296 -90,526 -290,741 -427,460 -401,849 66,1261 350,308 732,275 1112,-93 320,-314 344,-726 63,-1058 -114,-135 -266,-239 -335,-416 -152,-389 -12,-604 397,-610 215,0 431,12 646,3 302,-12 439,113 431,422 -12,454 -6,909 -6,1363 0,242 -90,431 -260,607 -451,460 -418,897 81,1306 344,281 699,245 1046,-107 332,-338 401,-768 96,-1049 -347,-320 -430,-688 -404,-1127 21,-347 6,-694 0,-1041 -6,-266 96,-463 326,-592 556,-314 834,-795 876,-1426 18,-236 30,-484 203,-673 84,-90 132,-272 290,-215 143,48 134,218 134,344 6,622 -12,1244 6,1865 15,535 -9,1028 -442,1447 -242,236 -197,574 21,852 290,368 613,508 927,359 685,-326 849,-951 338,-1432 -162,-152 -278,-329 -278,-562 0,-992 0,-1985 0,-2977 0,-266 140,-359 389,-341 547,42 971,329 1327,711 158,170 146,433 60,649 -78,194 -281,137 -442,152 -119,12 -239,15 -356,33 -137,21 -239,87 -296,227 -215,550 84,1447 577,1806 921,667 2060,99 2293,-963 179,-813 -3,-1049 -792,-1106 -146,-12 -308,-15 -344,-191 -48,-224 -84,-475 96,-646 338,-326 738,-571 1211,-655 380,-66 484,21 487,401 6,909 -6,1818 3,2726 3,320 -78,586 -332,792 -113,93 -185,215 -218,362 -96,392 117,798 529,996 344,164 738,27 1025,-362 224,-302 206,-679 -99,-971 -266,-254 -356,-544 -344,-900 15,-562 0,-1124 0,-1686 0,-227 0,-454 12,-682 6,-105 21,-233 146,-263 111,-27 158,84 218,156 188,221 245,481 266,762 45,610 311,1094 858,1399 242,137 350,341 341,622 -9,430 -15,861 0,1291 9,281 -72,514 -278,705 -150,141 -272,299 -299,517 -45,356 233,798 592,933 353,132 741,-36 1002,-437 197,-302 167,-670 -123,-941 -248,-233 -350,-499 -335,-831 9,-191 -6,-383 -6,-574 0,-1226 -69,-1040 1061,-1049 164,0 356,-33 437,164 78,188 42,380 -81,544 -108,144 -242,266 -341,416 -212,314 -162,640 129,936 317,323 664,404 963,224 598,-359 679,-888 206,-1402 -162,-173 -275,-353 -275,-601 6,-658 9,-1315 6,-1973 0,-215 63,-374 290,-431 206,-54 281,-215 287,-407 9,-287 9,-574 0,-861 -6,-221 -99,-392 -329,-460 -152,-45 -242,-141 -242,-311 0,-182 81,-296 254,-338 221,-54 317,-212 317,-422 6,-777 21,-1555 -6,-2329 -12,-401 -475,-780 -858,-774 -374,6 -834,377 -852,741 -42,798 -48,1599 -6,2401 9,164 75,305 248,359 185,57 326,141 320,368 -6,215 -164,257 -320,332 -416,209 -230,610 -251,930 -18,266 -117,616 245,747 266,99 344,257 332,514 -12,215 -9,431 0,646 15,287 -105,422 -398,416 -418,-9 -837,6 -1255,-6 -586,-18 -1013,-422 -1058,-1007 -57,-726 -371,-1291 -975,-1704 -356,-242 -320,-736 57,-921 99,-48 212,-90 236,-203 90,-437 114,-876 12,-1312 -27,-114 -126,-173 -233,-206 -173,-54 -299,-141 -296,-350 3,-188 113,-278 278,-326 221,-63 299,-230 299,-437 6,-741 18,-1483 0,-2221 -12,-448 -452,-858 -861,-855 -424,0 -870,427 -879,882 -15,706 -6,1411 -6,2117 0,257 69,472 362,544 144,36 212,141 215,293 3,164 -57,287 -218,329 -290,78 -350,293 -356,550 -3,227 -6,454 -3,682 3,242 63,451 338,523 197,51 254,197 236,386 -21,200 -167,248 -329,266 -353,36 -666,182 -986,314 -412,170 -487,129 -487,-329 0,-2691 12,-5378 -6,-8068 -3,-448 147,-700 544,-888 619,-293 897,-837 948,-1498 36,-442 -117,-595 -556,-598 -813,-3 -1626,0 -2439,3 -431,3 -586,170 -544,607 66,703 389,1259 1043,1558 347,158 455,386 449,756 -18,1327 -6,2655 -6,3979l6 1c0,1184 0,2368 0,3551 0,251 0,502 -21,753 -18,227 -93,362 -368,221 -350,-176 -717,-329 -1118,-365 -170,-15 -293,-93 -308,-287 -15,-194 57,-329 254,-374 266,-63 341,-272 320,-493 -39,-398 170,-846 -206,-1184 -24,-24 -63,-33 -99,-45 -164,-51 -266,-147 -266,-335 0,-188 99,-287 269,-329 206,-54 296,-203 299,-398 6,-777 24,-1555 -3,-2329 -15,-419 -481,-804 -879,-795 -412,6 -828,386 -843,828 -24,753 -12,1507 -6,2257 0,206 78,374 302,431 170,42 266,146 266,332 0,185 -108,266 -266,335 -368,161 -475,1432 -149,1668 39,27 87,39 128,60 368,173 410,685 63,921 -607,412 -927,977 -969,1707 -12,224 -93,418 -233,589 -162,197 -341,395 -610,404 -583,18 -1175,117 -1743,-48 -263,-75 -188,-1360 84,-1453 299,-102 374,-299 368,-574 -6,-239 0,-478 0,-717 -3,-221 -72,-398 -314,-463 -170,-45 -260,-158 -260,-341 0,-188 108,-281 272,-326 224,-60 293,-233 296,-436 6,-753 18,-1507 0,-2260 -12,-427 -439,-813 -852,-819 -404,-6 -855,380 -867,804 -24,765 -9,1531 -6,2296 0,206 78,374 308,424 173,39 269,137 269,326 0,185 -93,290 -266,332 -248,57 -332,242 -311,457 39,412 -176,864 188,1226l0 -6zm14406 3949c-170,-6 -254,-102 -254,-272 0,-185 87,-287 278,-284 191,0 275,108 272,290 -3,191 -117,272 -299,266l3 0zm6 -9213c209,-12 302,108 308,302 9,203 -123,260 -299,272 -179,0 -299,-69 -287,-269 9,-173 87,-296 278,-308l0 3zm-284 2123c-18,-224 -12,-452 -6,-676 6,-203 129,-299 326,-290 188,6 278,117 281,299 0,108 0,215 0,320l0 0c0,108 3,215 0,320 -9,170 -108,254 -275,266 -179,12 -317,-54 -332,-242l6 3zm-15 2326c6,-203 114,-305 314,-302 209,-6 305,102 308,305 3,203 -90,314 -296,320 -224,9 -332,-99 -329,-323l3 0zm-1776 5710c176,0 260,99 260,269 0,194 -105,281 -293,275 -185,-6 -245,-122 -239,-287 6,-176 96,-263 272,-257zm-2383 -945c-167,6 -275,-69 -284,-245 -9,-176 60,-299 257,-305 170,-9 272,66 278,242 9,179 -54,302 -254,308l3 0zm-18 -11309c212,0 293,135 299,317 6,203 -128,257 -305,254 -182,-6 -290,-90 -278,-284 12,-177 90,-290 284,-290l0 3zm-311 1967c0,-72 0,-143 0,-236 51,-206 -117,-568 311,-571 445,0 290,368 323,613 9,69 0,143 0,212 -3,209 -51,383 -311,386 -281,0 -329,-179 -320,-407l-3 3zm9 2487c0,-200 99,-305 302,-308 230,-3 317,123 317,335 0,209 -120,296 -320,287 -197,-9 -308,-105 -302,-314l3 0zm-1600 4170c377,12 484,158 398,523 -93,377 -466,681 -852,693 -404,12 -795,-275 -906,-667 -108,-374 9,-538 401,-550 167,-6 332,0 499,0l0 0c156,0 308,0 463,0l-3 0zm-1629 -12744c-87,-254 -6,-398 269,-404 299,-6 598,0 894,0l0 0c275,0 550,-9 822,0 314,9 407,150 302,437 -173,467 -655,786 -1175,783 -487,-3 -951,-341 -1112,-813l0 -3zm-1262 15423c-179,6 -254,-96 -254,-266 0,-188 93,-284 281,-284 176,0 260,87 260,260 -9,185 -105,284 -287,290l0 0zm15 -11306c218,0 296,129 296,320 0,206 -135,257 -308,257 -185,-6 -296,-84 -278,-284 15,-173 96,-290 290,-293l0 0zm-320 1767c48,-230 -107,-589 308,-598 448,-12 317,365 317,607 0,230 135,586 -290,595 -454,12 -287,-365 -335,-604l0 0zm12 2693c0,-197 96,-311 302,-308 200,-3 311,87 317,293 9,221 -99,332 -317,329 -203,0 -302,-114 -302,-311l0 -3zm-2060 7794c179,9 251,111 248,281 0,170 -81,269 -257,272 -188,3 -290,-93 -287,-281 0,-191 108,-278 296,-269l0 -3zm-1847 -1208c-6,194 -120,269 -299,263 -173,-9 -248,-117 -242,-281 6,-191 117,-269 299,-260 176,9 245,114 242,281l0 -3zm-266 -8947c188,0 272,117 284,290 15,197 -93,278 -275,281 -173,0 -305,-54 -302,-257 0,-191 81,-317 293,-314l0 0zm-311 1955c0,-60 0,-119 0,-218 48,-200 -132,-583 320,-577 418,6 272,361 305,598 9,69 3,143 0,215 -6,206 -48,389 -308,392 -287,6 -320,-188 -317,-410l0 0zm299 2194c203,0 308,99 311,302 6,203 -93,311 -296,314 -200,0 -308,-96 -311,-302 0,-200 87,-314 296,-314z"/>
 </g>
</svg>
