<?xml version="1.0" encoding="UTF-8"?>
<!DOCTYPE svg PUBLIC "-//W3C//DTD SVG 1.0//EN" "http://www.w3.org/TR/2001/REC-SVG-20010904/DTD/svg10.dtd">
<!-- Creator: CorelDRAW -->
<svg xmlns="http://www.w3.org/2000/svg" xml:space="preserve" width="8.3505mm" height="8.0001mm" version="1.0" style="shape-rendering:geometricPrecision; text-rendering:geometricPrecision; image-rendering:optimizeQuality; fill-rule:evenodd; clip-rule:evenodd"
viewBox="0 0 21241 20350"
 xmlns:xlink="http://www.w3.org/1999/xlink"
 xmlns:xodm="http://www.corel.com/coreldraw/odm/2003">
 <defs>
  <style type="text/css">
   <![CDATA[
    .fil0 {fill:#00A0E3;fill-rule:nonzero}
   ]]>
  </style>
 </defs>
 <g id="Layer_x0020_1">
  <metadata id="CorelCorpID_0Corel-Layer"/>
  <path class="fil0" d="M16489 17958c1473,0 2945,0 4414,0 316,0 355,-24 334,-341 -116,-1975 -871,-3602 -2583,-4702 -137,-88 -278,-127 -439,-123 -1153,4 -2309,4 -3461,0 -169,0 -316,42 -460,134 -1286,798 -2024,1975 -2397,3416 -112,432 -162,871 -179,1314 -11,267 32,306 306,306 1487,0 2973,0 4460,0l7 -4zm3314 -1493c0,148 -32,232 -144,260 -134,32 -218,-42 -256,-155 -95,-264 -197,-523 -330,-773 -302,-548 -692,-1026 -1118,-1483 -102,-109 -123,-222 -10,-330 109,-109 218,-63 309,32 601,639 1135,1321 1455,2151 42,109 74,225 98,299l-4 0zm-15041 1493c1487,0 2973,0 4460,0 200,0 309,-56 299,-274 -91,-1845 -752,-3405 -2253,-4551 -309,-235 -633,-362 -1040,-351 -1058,28 -2115,10 -3173,7 -176,0 -330,35 -482,130 -1335,840 -2091,2077 -2435,3588 -84,376 -137,756 -137,1142 0,278 28,309 302,309 1487,0 2973,0 4460,0zm3314 -1508c10,158 -32,239 -140,271 -120,35 -204,-25 -250,-130 -91,-211 -162,-429 -264,-633 -302,-608 -724,-1128 -1181,-1627 -102,-109 -155,-232 -32,-348 116,-113 228,-60 327,46 587,633 1110,1304 1434,2112 46,116 81,236 105,309l0 0zm8434 -4080c489,0 977,-10 1465,3 214,7 239,-84 200,-250 -137,-636 -485,-1107 -1107,-1339 -211,-77 -295,-169 -327,-408 -102,-802 -566,-1381 -1241,-1799 -1311,-812 -3050,-699 -4235,271 -207,169 -387,366 -527,594 -70,116 -109,151 -207,14 -864,-1198 -2070,-1550 -3475,-1357 -513,70 -984,264 -1409,559 -643,443 -1054,1033 -1142,1817 -18,162 -88,225 -228,271 -650,218 -1044,671 -1195,1339 -60,256 -42,278 211,288 977,42 1950,10 2927,18 246,0 285,-56 228,-299 -162,-668 -541,-1142 -1212,-1346 -162,-49 -214,-130 -193,-288 60,-453 278,-819 604,-1128 1065,-1005 3040,-1009 4108,0 358,337 587,738 608,1241 7,172 56,334 274,334 218,0 260,-155 271,-330 39,-664 397,-1131 924,-1487 1083,-728 2632,-675 3662,123 411,320 671,741 752,1265 21,137 -7,211 -162,253 -699,197 -1111,671 -1275,1371 -56,232 -18,278 221,278 496,0 991,0 1487,0l0 0 -7 -7zm-6129 -6969c0,1029 0,2056 0,3085 0,67 0,134 4,200 10,137 91,221 221,239 134,18 228,-67 267,-190 24,-84 24,-176 24,-264 0,-2049 0,-4097 0,-6150 0,-309 0,-302 302,-313 369,-10 738,35 1107,-32 330,-60 566,-239 703,-548 162,-366 330,-728 492,-1093 109,-246 56,-337 -204,-337 -1782,0 -3567,0 -5349,0 -242,0 -292,84 -197,309 172,401 344,801 534,1195 179,365 517,492 900,506 309,10 622,14 931,0 200,-7 271,53 267,264 -10,1044 -4,2087 -4,3131l0 -3zm-5612 12971c-502,0 -1005,0 -1508,0 -323,0 -380,56 -323,383 123,720 523,1234 1216,1480 661,236 1269,102 1803,-344 369,-306 566,-714 629,-1184 35,-270 -21,-334 -288,-334 -510,0 -1019,0 -1529,0zm11706 0c-517,0 -1033,0 -1550,0 -235,0 -285,56 -270,288 56,918 885,1677 1831,1683 910,7 1750,-745 1831,-1638 25,-288 -17,-337 -309,-337 -510,0 -1019,0 -1529,0l-4 4z"/>
 </g>
</svg>
