<?xml version="1.0" encoding="UTF-8"?>
<!DOCTYPE svg PUBLIC "-//W3C//DTD SVG 1.0//EN" "http://www.w3.org/TR/2001/REC-SVG-20010904/DTD/svg10.dtd">
<!-- Creator: CorelDRAW -->
<svg xmlns="http://www.w3.org/2000/svg" xml:space="preserve" width="8.5197mm" height="8.5993mm" version="1.0" style="shape-rendering:geometricPrecision; text-rendering:geometricPrecision; image-rendering:optimizeQuality; fill-rule:evenodd; clip-rule:evenodd"
viewBox="0 0 25164 25399"
 xmlns:xlink="http://www.w3.org/1999/xlink"
 xmlns:xodm="http://www.corel.com/coreldraw/odm/2003">
 <defs>
  <style type="text/css">
   <![CDATA[
    .fil0 {fill:#00A0E3;fill-rule:nonzero}
   ]]>
  </style>
 </defs>
 <g id="Layer_x0020_1">
  <metadata id="CorelCorpID_0Corel-Layer"/>
  <path class="fil0" d="M11999 13292c187,190 372,384 554,579l1 2c52,56 94,121 120,192 24,65 35,136 27,210 6,84 -6,162 -32,233 -29,76 -75,144 -133,205 -176,182 -354,366 -533,548 -178,182 -358,362 -540,540 -132,129 -296,191 -459,188 -165,-3 -331,-73 -464,-206 -167,-166 -334,-333 -499,-500 -162,-164 -325,-329 -485,-494 -156,-160 -236,-332 -238,-502 -2,-170 74,-341 227,-500 172,-178 347,-355 522,-530 175,-175 353,-349 530,-520l0 0c112,-108 263,-163 414,-163 150,-1 303,52 416,159 195,182 385,370 573,561zm11196 -8643c46,-1 87,29 151,91l0 1 357 352c88,88 166,165 195,196l0 0c17,17 34,35 49,56 16,22 29,47 35,76l0 15c-9,30 -20,60 -35,87l0 0c-15,28 -35,55 -59,79 -544,545 -1087,1092 -1630,1638l-135 136c-573,577 -1147,1156 -1719,1734l-190 192 -2884 2920 -859 866 -916 924 -642 652c-271,276 -543,553 -816,827l-843 846c-313,314 -628,629 -940,944 -275,278 -550,557 -823,836 -274,279 -549,559 -824,837l-1385 1396 -1466 1478 -1173 1190 -862 874 0 0 -95 93 0 0c-55,53 -109,105 -161,160l0 0c-43,46 -87,65 -131,63 -43,-2 -84,-25 -122,-62l0 0c-56,-55 -207,-206 -348,-349 -121,-122 -235,-239 -280,-288 -90,-97 -24,-157 32,-207l26 -25c95,-102 195,-202 294,-300l160 -160 1457 -1473 1457 -1473 883 -889 994 -1000c225,-228 451,-458 676,-688 259,-265 519,-530 780,-793 394,-398 790,-795 1186,-1192 341,-342 683,-684 1023,-1027 395,-398 789,-798 1182,-1197l1104 -1118c524,-530 1050,-1060 1575,-1588l959 -966 1251 -1267 1093 -1106 1909 -1922 181 -184 180 -184c64,-65 105,-99 151,-100zm-21231 16093c-48,2 -95,-23 -151,-76l-1 0 -1 -1 -222 -224c-136,-139 -290,-295 -335,-336l0 0c-54,-49 -76,-99 -73,-147 3,-47 30,-93 73,-137 254,-258 508,-514 761,-770l1980 -1999 2494 -2520 2539 -2567c329,-333 661,-667 992,-999l645 -649 1362 -1372 1361 -1373c818,-826 1637,-1653 2454,-2481l572 -578 1933 -1957 724 -733 537 -541c57,-58 106,-87 156,-87 51,0 98,29 154,87l161 163c156,158 368,372 429,437l1 1c13,13 25,30 35,44l12 17 10 14 -6 15c-13,31 -28,61 -45,89 -17,28 -38,54 -60,76l-1054 1065c-841,850 -1683,1700 -2525,2549l-1064 1070c-453,455 -907,911 -1359,1368 -403,407 -807,816 -1209,1224 -403,408 -806,818 -1210,1225 -327,330 -655,658 -983,987l-793 795c-304,307 -608,616 -911,924l-674 685c-704,711 -1409,1422 -2115,2133l-2185 2206 -1783 1796 -240 243 -237 245c-55,58 -102,89 -149,91l0 0zm21999 -17905c377,382 779,790 1093,1106l3 3c38,38 61,80 76,124 15,43 23,89 28,134l0 7c-5,51 -13,101 -28,147l0 0c-17,48 -43,93 -84,131 -38,35 -128,126 -217,215 -90,91 -181,182 -219,217l0 0c-98,89 -195,135 -291,134 -96,-1 -191,-48 -284,-142 -321,-323 -745,-751 -1130,-1141l-499 -504 -409 -414c-522,-528 -1121,-1136 -1589,-1599 -136,-135 -227,-250 -245,-374 -18,-126 37,-257 193,-420l0 0 258 -258 0 0c125,-122 228,-180 319,-197 94,-17 174,9 252,57 72,43 133,108 193,171l58 61 280 281c527,530 1164,1170 1640,1651l603 611zm-22533 17965l0 0 131 135c823,827 1985,1998 2890,2909l360 363c48,48 95,98 128,154 34,57 56,123 55,200l0 1c-3,47 -9,94 -23,139 -14,46 -39,90 -76,128l-130 132c-115,118 -266,270 -320,322l0 0c-79,74 -173,113 -267,113l0 0c-92,1 -185,-35 -261,-110 -337,-331 -834,-830 -1212,-1211l-176 -177 -1123 -1136 -428 -432c-305,-307 -642,-647 -880,-890 -56,-58 -90,-142 -97,-227 -6,-83 13,-169 62,-232 58,-76 187,-218 315,-345 102,-102 206,-195 273,-238 63,-41 126,-60 188,-58 62,2 123,27 182,72 150,115 281,252 411,387zm22405 -18668c-32,-2 -61,-20 -87,-45l-9 -9 0 -1c-110,-105 -219,-213 -327,-321 -109,-110 -218,-224 -324,-344l0 0c-22,-26 -39,-52 -42,-80 -3,-31 8,-62 40,-94l0 0 445 -445 443 -449c35,-35 67,-53 100,-53 33,0 66,18 100,53l0 0c109,109 220,219 331,327l282 279 0 0c25,25 43,56 58,81l18 29 4 14c3,53 -19,75 -41,95l0 0 -6 6 -147 150c-248,253 -495,506 -741,761l0 0c-34,35 -67,48 -100,46zm-22404 21192l3 3 12 12 0 1 411 417 185 188c38,39 61,76 63,117l0 0c1,40 -19,82 -67,127 -144,140 -287,282 -429,425 -141,143 -283,288 -423,432 -34,35 -65,55 -98,57 -33,2 -66,-15 -102,-51 -95,-96 -193,-191 -289,-286 -111,-110 -223,-219 -332,-330 -38,-38 -61,-79 -63,-121 -2,-43 18,-86 63,-131 163,-162 326,-328 487,-494l217 -222 62 -64 89 -92 2 -3 1 -1c24,-26 48,-52 95,-51l2 0c51,4 83,35 113,65l0 0zm10166 -8361c146,-146 292,-293 436,-441l-2 0 49 -50 12 -12c51,-53 105,-108 110,-186 -2,-28 -12,-52 -26,-74 -15,-24 -36,-48 -57,-70 -38,-41 -79,-81 -119,-121l-71 -71 0 0 -296 -303c-139,-143 -279,-287 -419,-428 -89,-89 -146,-135 -197,-135 -51,0 -108,43 -196,131 -113,113 -226,227 -338,341l-190 193 0 0 -109 109c-97,97 -195,194 -288,297 -53,59 -81,101 -81,138 0,37 26,77 80,133 167,174 336,346 505,517 169,171 340,342 511,511 33,33 70,46 105,44l0 0c40,-2 82,-25 120,-61l138 -135 136 -137 188 -189zm-3706 4176c-172,3 -345,-60 -479,-191l0 0c-167,-164 -333,-330 -497,-497 -165,-167 -328,-336 -491,-504 -162,-169 -239,-347 -234,-525 5,-179 95,-358 266,-525 156,-153 311,-308 465,-463 154,-155 307,-312 459,-469l14 -15 0 0c140,-138 310,-210 479,-213 170,-3 341,64 483,201l0 0 14 14 0 0 178 180c284,287 569,576 849,867 61,63 109,134 139,215 28,75 40,158 35,248 5,107 -25,201 -75,284 -48,83 -116,157 -185,228l-424 429 -518 525c-132,135 -307,206 -480,209zm-658 -2312c-171,168 -342,337 -500,517l-1 0c-31,35 -46,68 -46,99 0,30 17,64 51,97l373 382c215,220 430,440 646,658l1 1 0 0c37,37 82,54 126,53 45,-1 92,-23 131,-61l1 -1 126 -126c276,-276 554,-554 826,-834l0 0 26 -25 0 0c41,-40 84,-82 81,-135l0 -4c3,-74 -42,-120 -83,-162l0 0 -13 -13 0 0c-276,-283 -574,-581 -870,-878l-82 -82c-49,-49 -96,-74 -141,-74 -45,0 -92,25 -143,74l0 0c-31,29 -61,59 -91,89l-89 93c-107,112 -218,222 -328,330zm-2226 2121c81,33 154,83 218,148l1 2c231,231 460,464 688,697l319 325c134,136 210,309 211,485 1,164 -64,333 -206,480 -333,342 -666,686 -1011,1015 -151,144 -317,214 -481,213 -166,-2 -331,-77 -480,-223 -173,-169 -346,-341 -516,-513 -168,-171 -336,-344 -500,-516 -133,-140 -197,-296 -201,-446 -4,-160 60,-315 180,-444 345,-372 707,-732 1067,-1090 60,-60 130,-107 205,-137 74,-30 154,-44 234,-40 101,-3 191,13 272,46zm-83 2748l893 -896 0 0c83,-82 125,-143 125,-199 0,-56 -41,-115 -123,-197l0 0 -929 -930c-45,-45 -93,-69 -139,-70 -45,-1 -91,20 -134,63l-154 154 0 0c-264,264 -529,529 -790,796l0 0 -22 21 0 0c-45,44 -96,93 -94,193 2,20 16,44 34,69 20,27 48,57 76,84l0 0c280,281 562,561 844,841l70 70c74,74 125,111 172,111 46,0 97,-38 171,-111zm16472 -15912c-193,196 -392,385 -596,567l-2 1c-125,109 -278,157 -429,149 -156,-8 -311,-76 -431,-195l0 0c-163,-163 -339,-341 -523,-528l-520 -532 0 0c-58,-60 -104,-127 -136,-210 -32,-83 -50,-182 -51,-305l0 -1c-1,-70 23,-147 65,-223l0 0c45,-82 112,-165 190,-242l249 -247c225,-223 451,-447 672,-675 157,-161 327,-248 499,-255 168,-6 338,65 496,218l0 0c177,172 352,347 525,523 173,177 346,355 516,533 110,114 172,263 179,413 7,145 -39,293 -142,409 -181,204 -369,406 -561,602zm-1680 -1570c-142,142 -286,283 -418,432l1 0 -42 49c-32,38 -49,74 -48,107 1,32 19,67 53,102l963 986 5 5 0 0c49,50 97,99 193,97l1 0c9,-1 24,-3 39,-9l0 0c16,-5 33,-14 46,-27l524 -533 522 -535 0 0c27,-29 43,-58 43,-88l0 0c0,-28 -13,-59 -41,-90 -277,-310 -579,-603 -878,-895l-172 -168c-42,-41 -83,-56 -121,-53l0 0c-40,4 -81,29 -120,68l-152 150c-53,53 -105,106 -149,152 -82,84 -166,168 -250,251zm-1106 4365c-297,303 -593,607 -906,904l0 2 -9 9c-134,127 -292,180 -445,174 -166,-6 -328,-82 -454,-209 -334,-335 -663,-677 -990,-1017l-43 -45c-61,-63 -107,-133 -136,-210 -29,-76 -43,-157 -40,-244l0 -2c-2,-79 12,-154 39,-221 29,-73 74,-139 128,-197 171,-180 345,-360 519,-539 174,-178 349,-356 524,-533l0 0 6 -6 0 0c124,-122 293,-185 462,-187 169,-2 339,58 464,182l0 0 6 6 0 0 1015 1029c144,146 217,312 218,478 0,166 -72,332 -216,480l-141 145zm-2426 -800c-48,47 -100,99 -108,178l0 6c4,61 54,110 102,157l0 0 24 24 0 0c203,208 408,415 613,621l293 296c62,63 113,95 161,95 47,1 97,-30 157,-90l927 -931c76,-77 116,-132 116,-182 0,-51 -39,-106 -115,-182l-931 -927c-55,-54 -105,-82 -153,-83 -47,-1 -96,26 -149,78l0 0 -298 297c-211,210 -422,420 -630,632l0 0 -9 9 0 0zm-1819 5009c-69,27 -143,40 -221,34 -99,3 -188,-15 -266,-51 -79,-35 -149,-89 -212,-152l-525 -534c-174,-179 -348,-359 -520,-539 -113,-118 -172,-273 -173,-426 -1,-153 53,-307 165,-424 175,-185 352,-369 530,-551 178,-182 357,-363 539,-542 130,-128 293,-192 455,-191 163,1 327,66 459,194 174,170 348,342 519,515 172,173 343,348 512,524 145,152 217,312 215,476 -2,161 -78,325 -227,483 -296,314 -606,616 -914,917l-136 133c-60,58 -128,105 -200,134zm-411 -2753c-305,308 -612,618 -912,931l-9 9 -1 0c-58,61 -86,105 -86,145l0 0c0,42 34,88 97,154 157,162 316,324 475,485l478 482c56,57 99,87 138,88 38,1 81,-26 138,-82 287,-280 569,-567 850,-853l143 -146c19,-19 39,-40 52,-63l0 0c12,-20 20,-44 18,-71l0 -1c0,-22 -7,-43 -17,-61 -11,-19 -27,-37 -43,-54l-158 -160c-279,-284 -559,-568 -867,-876l0 0c-34,-34 -74,-49 -113,-49l0 0c-39,0 -79,18 -111,51l-71 71zm-3313 3860c92,-92 222,-148 369,-148l4 0 0 0c146,1 277,61 370,156 93,95 150,228 149,375l0 1c1,15 1,32 1,47 -4,117 -58,231 -143,318 -85,87 -201,148 -331,157 -18,1 -38,2 -57,1l0 0c-153,-6 -283,-63 -373,-157 -89,-94 -140,-225 -139,-380 1,-148 58,-279 150,-371l0 0zm-2389 3918c-87,91 -205,151 -333,159l0 2 -30 0c-146,0 -277,-59 -373,-154l0 0c-96,-96 -157,-229 -160,-377 -3,-151 53,-277 140,-368l0 0c97,-103 235,-163 369,-169 18,-1 37,-1 55,1 110,9 228,61 319,142 92,82 159,197 165,332 1,19 0,41 -1,60l0 2c0,141 -59,274 -151,370zm-3870 2407l0 0c97,-92 232,-147 384,-147l0 0c139,0 267,59 359,153 92,94 151,224 151,364l0 1c-1,153 -58,289 -152,387l0 0c-94,97 -226,156 -374,156l-1 0c-148,-1 -280,-60 -373,-159 -93,-98 -150,-235 -150,-389 0,-145 59,-274 156,-366zm16388 -15799c92,97 148,230 148,379l2 33 0 1c1,125 -53,242 -140,330 -85,87 -205,147 -334,158l-1 0 -40 2 -1 0 -12 0 0 0c-143,-2 -272,-61 -364,-153 -92,-92 -149,-221 -150,-363l0 -12 0 0c2,-148 62,-282 157,-379 95,-97 226,-156 369,-155l0 0c144,1 273,61 366,158zm-2973 3530l0 13 0 1 0 1 0 1c-3,142 -66,276 -163,371 -97,97 -229,157 -370,154l0 0 -2 0 -1 0 -30 -1 -1 0c-114,-10 -235,-65 -326,-153 -92,-89 -155,-212 -152,-358l0 -1 2 -33 -1 -15 0 -1c-2,-147 61,-271 157,-359 95,-87 221,-139 346,-145l1 0 17 -1 1 0 13 0 0 0c139,1 266,63 358,159 92,95 150,226 152,365l0 1zm-3276 2799c92,95 147,227 146,379 -1,148 -59,279 -155,372l0 0c-96,93 -230,149 -381,149 -145,0 -272,-59 -363,-156 -90,-97 -144,-232 -144,-387l0 -8 0 0c2,-144 58,-270 149,-359 91,-89 219,-143 365,-143l8 0 0 0c151,2 281,59 373,154z"/>
 </g>
</svg>
