<?xml version="1.0" encoding="UTF-8"?>
<!DOCTYPE svg PUBLIC "-//W3C//DTD SVG 1.0//EN" "http://www.w3.org/TR/2001/REC-SVG-20010904/DTD/svg10.dtd">
<!-- Creator: CorelDRAW -->
<svg xmlns="http://www.w3.org/2000/svg" xml:space="preserve" width="10.6108mm" height="4.441mm" version="1.0" style="shape-rendering:geometricPrecision; text-rendering:geometricPrecision; image-rendering:optimizeQuality; fill-rule:evenodd; clip-rule:evenodd"
viewBox="0 0 44941 18809"
 xmlns:xlink="http://www.w3.org/1999/xlink"
 xmlns:xodm="http://www.corel.com/coreldraw/odm/2003">
 <defs>
  <style type="text/css">
   <![CDATA[
    .fil0 {fill:#00A0E3;fill-rule:nonzero}
   ]]>
  </style>
 </defs>
 <g id="Layer_x0020_1">
  <metadata id="CorelCorpID_0Corel-Layer"/>
  <path class="fil0" d="M12627 16611c-184,184 -440,299 -721,299 -282,0 -537,-115 -721,-299l0 0c-184,-185 -299,-440 -299,-721 0,-279 113,-533 295,-717l4 -4c184,-184 440,-299 721,-299 281,0 537,115 721,299l0 0 0 0c184,185 299,440 299,721 0,279 -113,533 -295,717l-4 4zm-4495 -8876l3050 0c26,0 48,22 48,48l0 1436 208 0c26,0 48,22 48,48l0 276c0,26 -22,48 -48,48l-208 0 0 1436c0,26 -22,48 -48,48l-3244 0c-26,0 -48,-22 -48,-48l0 -1436 -208 0c-26,0 -48,-22 -48,-48l0 -276c0,-26 22,-48 48,-48l208 0 0 -1436c0,-26 22,-48 48,-48l194 0zm-8132 11074l38946 0c2418,0 5995,-1175 5995,-3866l0 -4591c0,-2691 -3576,-3867 -5995,-3867l-31884 0 -2250 -323 102 -30 1175 -235 29811 -57 48 -866 -28885 -48 -2121 255 -1305 459c-62,5 -1656,-1059 -1656,-1773 0,-2097 3213,-2953 5082,-2953l28837 0 48 -530 0 -335 -28885 -48c-2420,0 -5995,1175 -5995,3866l0 4591c0,2691 3576,3867 5995,3867l31884 0 2150 294 100 29c-327,101 -666,176 -1008,229l-40188 94 0 914 38946 0c1765,0 3970,-554 5082,-1964l0 3023c0,2047 -3149,2953 -5082,2953l-38946 0 0 913zm7062 -7398c-1933,0 -5082,-906 -5082,-2953l0 -2925c1138,1271 3335,1865 5082,1865l31884 0c2009,0 5082,969 5082,2954 0,588 -1097,1544 -1604,1797l-3478 -738 -31884 0zm27541 -3676l3050 0c26,0 48,22 48,48l0 1436 208 0c26,0 48,22 48,48l0 276c0,26 -22,48 -48,48l-208 0 0 1436c0,26 -22,48 -48,48l-3244 0c-26,0 -48,-22 -48,-48l0 -1436 -208 0c-26,0 -48,-22 -48,-48l0 -276c0,-26 22,-48 48,-48l208 0 0 -1436c0,-26 22,-48 48,-48l194 0zm2616 482l-2376 0 0 2375 2376 0 0 -2375zm-1188 167c564,0 1021,457 1021,1021 0,564 -457,1021 -1021,1021 -564,0 -1021,-457 -1021,-1021 0,-564 457,-1021 1021,-1021zm-10252 -649l3050 0c26,0 48,22 48,48l0 1436 208 0c26,0 48,22 48,48l0 276c0,26 -22,48 -48,48l-208 0 0 1436c0,26 -22,48 -48,48l-3244 0c-26,0 -48,-22 -48,-48l0 -1436 -208 0c-26,0 -48,-22 -48,-48l0 -276c0,-26 22,-48 48,-48l208 0 0 -1436c0,-26 22,-48 48,-48l194 0zm2616 482l-2376 0 0 2375 2376 0 0 -2375zm-1188 167c564,0 1021,457 1021,1021 0,564 -457,1021 -1021,1021 -564,0 -1021,-457 -1021,-1021 0,-564 457,-1021 1021,-1021zm-10252 -649l3050 0c26,0 48,22 48,48l0 1436 208 0c26,0 48,22 48,48l0 276c0,26 -22,48 -48,48l-208 0 0 1436c0,26 -22,48 -48,48l-3244 0c-26,0 -48,-22 -48,-48l0 -1436 -208 0c-26,0 -48,-22 -48,-48l0 -276c0,-26 22,-48 48,-48l208 0 0 -1436c0,-26 22,-48 48,-48l194 0zm2616 482l-2376 0 0 2375 2376 0 0 -2375zm-10011 167c564,0 1021,457 1021,1021 0,564 -457,1021 -1021,1021 -564,0 -1021,-457 -1021,-1021 0,-564 457,-1021 1021,-1021zm8824 0c564,0 1021,457 1021,1021 0,564 -457,1021 -1021,1021 -564,0 -1021,-457 -1021,-1021 0,-564 457,-1021 1021,-1021zm-7636 -167l-2376 0 0 2375 2376 0 0 -2375zm-271 6003l3051 0c26,0 48,22 48,48l0 1435 208 0c26,0 48,22 48,48l0 277c0,26 -22,48 -48,48l-208 0 0 1436c0,26 -22,48 -48,48l-3243 0c-26,0 -48,-22 -48,-48l0 -1436 -208 0c-26,0 -48,-22 -48,-48l0 -277c0,-26 22,-48 48,-48l208 0 0 -1435c0,-26 22,-48 48,-48l193 0zm2617 482l-2376 0 0 2375 2376 0 0 -2375zm8357 1909c-184,184 -440,299 -721,299 -282,0 -537,-115 -721,-299l0 0c-184,-185 -299,-440 -299,-721 0,-279 113,-533 295,-717l4 -4c184,-184 440,-299 721,-299 282,0 537,115 721,299l0 0 0 0c184,185 299,440 299,721 0,279 -113,533 -295,717l-4 4zm-2150 -2390l3050 0c26,0 48,22 48,48l0 1435 208 0c26,0 48,22 48,48l0 277c0,26 -22,48 -48,48l-208 0 0 1436c0,26 -22,48 -48,48l-3243 0c-26,0 -48,-22 -48,-48l0 -1436 -208 0c-26,0 -48,-22 -48,-48l0 -277c0,-26 22,-48 48,-48l208 0 0 -1435c0,-26 22,-48 48,-48l193 0zm2617 482l-2376 0 0 2375 2376 0 0 -2375zm8356 1909c-185,184 -440,299 -721,299 -280,0 -533,-113 -717,-295l-3 -3 0 0c-184,-185 -299,-440 -299,-721 0,-280 113,-533 295,-717l3 -3 0 0c185,-184 440,-299 721,-299 279,0 533,113 717,295l3 3 0 0c184,185 299,440 299,721 0,279 -113,533 -295,717l-3 3 0 0zm-2149 -2390l3050 0c26,0 48,22 48,48l0 1435 208 0c26,0 48,22 48,48l0 277c0,26 -22,48 -48,48l-208 0 0 1436c0,26 -22,48 -48,48l-3243 0c-26,0 -48,-22 -48,-48l0 -1436 -208 0c-26,0 -48,-22 -48,-48l0 -277c0,-26 22,-48 48,-48l208 0 0 -1435c0,-26 22,-48 48,-48l193 0zm2616 482l-2375 0 0 2375 2375 0 0 -2375zm8357 1909c-185,184 -440,299 -721,299 -280,0 -533,-113 -717,-295l-3 -3 0 0c-184,-185 -299,-440 -299,-721 0,-280 113,-533 295,-717l3 -3 0 0c185,-184 440,-299 721,-299 279,0 533,113 717,295l3 3 0 0c184,185 299,440 299,721 0,279 -113,533 -295,717l-3 3 0 0zm-2150 -2390l3051 0c26,0 48,22 48,48l0 1435 208 0c26,0 48,22 48,48l0 277c0,26 -22,48 -48,48l-208 0 0 1436c0,26 -22,48 -48,48l-3243 0c-26,0 -48,-22 -48,-48l0 -1436 -208 0c-26,0 -48,-22 -48,-48l0 -277c0,-26 22,-48 48,-48l208 0 0 -1435c0,-26 22,-48 48,-48l193 0zm2617 482l-2376 0 0 2375 2376 0 0 -2375zm-25668 -11061c-185,184 -440,299 -721,299 -280,0 -533,-113 -717,-295l-3 -3 0 0c-184,-185 -299,-440 -299,-721 0,-280 113,-533 295,-717l3 -3 0 0c185,-184 440,-299 721,-299 279,0 533,113 717,295l3 3 0 0c184,185 299,440 299,721 0,279 -113,533 -295,717l-3 3 0 0zm-2149 -2391l3050 0c26,0 48,22 48,48l0 1436 208 0c26,0 48,22 48,48l0 276c0,26 -22,48 -48,48l-208 0 0 1211 0 30 0 195c0,26 -22,48 -48,48l-1246 0 -198 0 -1800 0c-26,0 -48,-22 -48,-48l0 -1436 -208 0c-26,0 -48,-22 -48,-48l0 -276c0,-26 22,-48 48,-48l208 0 0 -1436c0,-26 22,-48 48,-48l194 0zm2616 482l-2375 0 0 2375 2375 0 0 -2375zm8357 1909c-185,184 -440,299 -721,299 -280,0 -533,-113 -717,-295l-3 -3 0 0c-123,-124 -215,-279 -263,-452l0 -2c-23,-85 -36,-174 -36,-267 0,-280 113,-533 295,-717l3 -3 0 0c185,-184 440,-299 721,-299 279,0 533,113 717,295l3 3 0 0c161,161 269,374 293,613l1 12c3,32 5,64 5,96 0,279 -113,533 -295,717l-3 3 0 0zm-2150 -2391l3051 0c26,0 48,22 48,48l0 1391 0 15 0 30 208 0c26,0 48,22 48,48l0 276c0,26 -22,48 -48,48l-208 0 0 1436c0,26 -22,48 -48,48l-3244 0c-26,0 -48,-22 -48,-48l0 -1225 0 -2 0 -209 -208 0c-26,0 -48,-22 -48,-48l0 -276c0,-26 22,-48 48,-48l208 0 0 -1436c0,-26 22,-48 48,-48l193 0zm2617 482l-2375 0 0 1493 0 1 0 881 2375 0 0 -1316 0 -13 0 -1047zm8357 1909c-184,184 -440,299 -721,299 -282,0 -537,-115 -721,-299 -184,-184 -299,-440 -299,-721 0,-282 115,-537 299,-721 184,-184 440,-299 721,-299 281,0 537,115 721,299l0 0 0 0c184,185 299,440 299,721 0,279 -113,533 -295,717l-4 4zm-2150 -2391l1936 0 296 0 819 0c26,0 48,22 48,48l0 1436 208 0c26,0 48,22 48,48l0 276c0,26 -22,48 -48,48l-208 0 0 1436c0,26 -22,48 -48,48l-3243 0c-26,0 -48,-22 -48,-48l0 -1436 -208 0c-26,0 -48,-22 -48,-48l0 -276c0,-26 22,-48 48,-48l208 0 0 -1032 0 -43 0 -361c0,-26 22,-48 48,-48l193 0zm2617 482l-2376 0 0 2375 2376 0 0 -2375zm-28208 14878c-185,184 -440,299 -721,299 -280,0 -533,-113 -717,-295l-3 -3 0 0c-184,-185 -299,-440 -299,-721 0,-280 113,-533 295,-717l3 -3 0 0c185,-184 440,-299 721,-299 279,0 533,113 717,295l3 3 0 0c184,185 299,440 299,721 0,279 -113,533 -295,717l-3 3 0 0zm-2150 -2390l3051 0c26,0 48,22 48,48l0 1435 208 0c26,0 48,22 48,48l0 277c0,26 -22,48 -48,48l-208 0 0 1436c0,26 -22,48 -48,48l-3243 0c-26,0 -48,-22 -48,-48l0 -1436 -208 0c-26,0 -48,-22 -48,-48l0 -277c0,-26 22,-48 48,-48l208 0 0 -1435c0,-26 22,-48 48,-48l193 0zm2617 482l-2375 0 0 2375 2375 0 0 -2375z"/>
 </g>
</svg>
