<?xml version="1.0" encoding="UTF-8"?>
<!DOCTYPE svg PUBLIC "-//W3C//DTD SVG 1.0//EN" "http://www.w3.org/TR/2001/REC-SVG-20010904/DTD/svg10.dtd">
<!-- Creator: CorelDRAW -->
<svg xmlns="http://www.w3.org/2000/svg" xml:space="preserve" width="6.1402mm" height="9.0998mm" version="1.0" style="shape-rendering:geometricPrecision; text-rendering:geometricPrecision; image-rendering:optimizeQuality; fill-rule:evenodd; clip-rule:evenodd"
viewBox="0 0 18296 27115"
 xmlns:xlink="http://www.w3.org/1999/xlink"
 xmlns:xodm="http://www.corel.com/coreldraw/odm/2003">
 <defs>
  <style type="text/css">
   <![CDATA[
    .fil0 {fill:#00A0E3;fill-rule:nonzero}
   ]]>
  </style>
 </defs>
 <g id="Layer_x0020_1">
  <metadata id="CorelCorpID_0Corel-Layer"/>
  <path class="fil0" d="M16055 4378c489,1201 987,2440 1486,3688l6 -1 8 19c184,458 369,916 574,1356l1 1c179,391 217,683 95,890 -125,211 -397,309 -832,309l0 -1c-1087,2 -2177,-2 -3266,-6 -793,-3 -1564,-6 -2607,-6l0 -1c-956,-4 -956,4 -956,931 0,206 3,367 6,527 7,402 15,805 -15,1201l0 1c-56,689 65,1281 341,1785l0 1c277,505 714,928 1287,1279 316,193 602,420 856,673 757,752 1230,1738 1365,2779l0 0c135,1041 -68,2138 -664,3111 -200,327 -445,641 -736,934l0 1c-37,37 -82,71 -126,105l-1 0c-84,64 -172,132 -130,219l0 1c48,102 197,97 333,94l1 0 87 -2 5 0c294,5 588,6 880,6l576 2 1 0c529,7 982,137 1356,386 379,251 677,622 893,1106 105,235 158,442 158,617 0,145 -35,271 -103,377 -69,106 -170,190 -302,249 -158,71 -363,107 -612,107l-6913 0 -6809 0c-287,0 -518,-47 -689,-136 -120,-63 -212,-147 -274,-251 -62,-104 -94,-224 -94,-360 0,-202 71,-442 214,-715 233,-446 529,-789 896,-1020 368,-232 805,-352 1316,-352l1 1c553,4 1108,1 1662,-1 625,-3 1250,-6 1875,1 181,2 331,-23 448,-88 112,-62 203,-169 271,-332l0 0c211,-513 522,-889 911,-1171 383,-278 840,-463 1347,-598 378,-100 697,-283 937,-541 233,-251 394,-575 464,-963 81,-451 25,-845 -140,-1184 -180,-371 -493,-683 -898,-939l0 0c-687,-430 -1253,-947 -1696,-1555 -442,-607 -762,-1302 -957,-2089l0 0c-49,-190 -89,-382 -117,-577 -28,-196 -44,-393 -44,-591l1 0 -1 -147c-4,-787 -8,-1575 -8,-2194l1 0c-2,-341 -10,-521 -80,-589 -70,-69 -254,-77 -608,-77l-5561 0 0 -1 -161 1 -1 0c-194,1 -390,3 -579,-14l0 -1c-135,-12 -252,-38 -349,-76 -135,-53 -236,-133 -301,-237l-1 0c-65,-104 -92,-230 -79,-374l-1 0c9,-99 37,-208 84,-326 295,-739 584,-1454 864,-2143 264,-650 558,-1366 875,-2136 446,-1088 879,-2121 1312,-3157l201 -480 1 -1 166 -389c117,-274 234,-548 341,-806 206,-502 607,-501 1002,-500l1 0 58 0 0 -1 7433 0 0 1 226 0c304,0 608,1 914,-9l1 0c251,-7 456,35 631,146l0 0c173,110 308,284 416,539 529,1254 1037,2482 1529,3692zm-890 21083c-137,-46 -290,-63 -451,-67l-8 8 -62 0 -10953 0c-86,0 -169,3 -246,10 -78,7 -158,20 -237,38l-1 0c-166,38 -335,104 -441,204 -69,65 -110,148 -99,249 16,139 222,128 402,117 57,-3 113,-7 157,-7l5920 0 5921 0 41 0 0 1c133,0 269,1 384,-30l1 0c65,-17 112,-37 141,-60 9,-7 15,-14 16,-18l1 -1c2,-6 1,-15 -2,-28 -10,-38 -38,-86 -86,-143l0 0c-117,-139 -253,-224 -400,-274l-1 0zm-2310 -6868c-320,-591 -788,-1046 -1392,-1423l1 -1c-634,-395 -1125,-878 -1459,-1453 -329,-565 -507,-1219 -522,-1963 -12,-633 -14,-1271 -15,-1909l-2 -743 -1 0c0,-129 -13,-242 -58,-313l-1 0c-38,-59 -113,-97 -244,-98l-1 0c-133,-1 -209,33 -248,90 -47,68 -60,179 -60,308l-1 0c3,334 4,670 5,1004 2,667 4,1334 21,2004 8,343 82,672 198,988l0 1c117,319 278,628 457,928l0 0c465,769 1188,1272 1915,1777l40 28c565,393 949,963 1126,1590 179,635 148,1331 -121,1962 -222,519 -534,926 -923,1234 -388,306 -852,514 -1382,638l-2 0c-215,48 -408,125 -577,232 -167,106 -313,246 -433,422 -100,145 -140,236 -121,278l0 0c21,44 121,73 300,93 466,52 901,-100 1343,-254l1 -1 248 -85 1 0c680,-230 1265,-706 1692,-1246 487,-617 765,-1312 738,-1813l0 -4c-23,-939 -201,-1678 -523,-2273zm-3557 -9036l6972 0 5 1 4 0 0 0c338,0 520,-20 573,-93 52,-72 13,-248 -94,-559 -26,-71 -56,-136 -85,-200 -27,-59 -55,-119 -77,-174l-537 -1328 -551 -1364 0 0 -407 -992c-467,-1139 -935,-2281 -1405,-3419 -46,-111 -118,-183 -205,-227 -94,-48 -212,-66 -338,-66l-8006 0c-154,0 -276,36 -371,106 -98,72 -176,184 -237,334 -700,1714 -1520,3711 -2336,5696l-656 1595c-124,302 -168,484 -114,571 52,83 226,112 541,112l7173 0 149 0 0 9z"/>
 </g>
</svg>
