<?xml version="1.0" encoding="UTF-8"?>
<!DOCTYPE svg PUBLIC "-//W3C//DTD SVG 1.0//EN" "http://www.w3.org/TR/2001/REC-SVG-20010904/DTD/svg10.dtd">
<!-- Creator: CorelDRAW -->
<svg xmlns="http://www.w3.org/2000/svg" xml:space="preserve" width="9.0996mm" height="9.0999mm" version="1.0" style="shape-rendering:geometricPrecision; text-rendering:geometricPrecision; image-rendering:optimizeQuality; fill-rule:evenodd; clip-rule:evenodd"
viewBox="0 0 48988 48989"
 xmlns:xlink="http://www.w3.org/1999/xlink"
 xmlns:xodm="http://www.corel.com/coreldraw/odm/2003">
 <defs>
  <style type="text/css">
   <![CDATA[
    .fil0 {fill:#00A0E3;fill-rule:nonzero}
   ]]>
  </style>
 </defs>
 <g id="Layer_x0020_1">
  <metadata id="CorelCorpID_0Corel-Layer"/>
  <path class="fil0" d="M42136 6512c153,277 404,521 769,759l23 25c2164,1408 3712,3143 4701,5163 990,2021 1420,4325 1353,6870l0 1c-14,494 -164,864 -434,1115l-1 -1c-279,261 -671,384 -1157,384 -371,0 -663,6 -952,11 -787,15 -1576,29 -2362,-44 -534,-48 -924,38 -1225,249 -307,217 -541,578 -753,1070l-1 0c-444,1037 -1095,1831 -1912,2388 -843,575 -1861,899 -3009,977 -1088,75 -2199,-240 -3130,-829 -923,-584 -1675,-1440 -2059,-2454 -211,-561 -467,-949 -808,-1173 -339,-222 -783,-297 -1373,-237 -774,81 -1555,53 -2334,26l-1 0c-298,-11 -598,-22 -883,-25l-1 0c-468,-5 -837,-133 -1098,-384 -260,-250 -402,-610 -420,-1079l0 -1c-80,-2103 198,-4065 893,-5859 696,-1798 1810,-3429 3402,-4868 73,-67 134,-117 194,-169 264,-223 563,-477 462,-673 -114,-209 -522,-97 -871,-1l-3 1 -207 55 -5 1 -90 22c-1961,474 -3914,947 -5761,1787l0 -1c-1557,710 -3018,1544 -4381,2509 -1361,964 -2632,2063 -3807,3305 -1301,1377 -2409,2873 -3331,4469 -949,1643 -1705,3396 -2279,5240l-1 0c-337,1090 -607,2203 -787,3329 -180,1127 -271,2275 -251,3433 23,1311 31,2628 29,3945 -2,1317 -14,2635 -29,3950 -3,371 59,617 199,754l-1 1c141,136 389,189 757,180 811,-20 1597,-31 2356,-31 759,0 1545,10 2357,31 367,9 618,-43 766,-178 145,-134 215,-377 221,-749l0 -1c20,-1002 80,-1542 420,-1867 340,-325 878,-357 1862,-354l0 -1 658 0 1 1c900,4 1413,53 1739,361 328,310 396,812 400,1715l0 1c3,397 66,669 219,838 153,169 421,263 834,306 1075,116 2009,668 2659,1451 661,797 1029,1836 958,2906 -68,1021 -571,1975 -1323,2671l1 1c-743,689 -1735,1131 -2790,1142 -1818,16 -3638,11 -5455,5 -726,-2 -1454,-4 -2726,-4l-7897 0c-995,0 -1840,-238 -2539,-705 -705,-471 -1255,-1171 -1649,-2090l1 -1c-349,-808 -352,-1766 -53,-2630 289,-836 858,-1589 1664,-2042l1 1c494,-279 823,-586 1019,-953 196,-369 268,-816 246,-1371 -66,-1684 -53,-3378 -40,-5071l9 -1512c12,-3012 420,-5912 1236,-8687 808,-2752 2016,-5386 3632,-7890 1433,-2217 3110,-4185 5011,-5903 1926,-1739 4083,-3223 6451,-4451 1759,-909 3589,-1616 5470,-2140 1964,-548 3984,-896 6038,-1070 415,-35 739,-103 934,-265l1 1c178,-149 267,-408 245,-840l0 -7 -2 -68 -1 -6c0,-408 139,-719 380,-935l1 0c233,-208 554,-319 932,-335l5 0 90 -2 6 0c1351,-5 2465,-7 3431,-7 967,0 2080,2 3431,7l0 -1c495,0 868,142 1125,410 262,273 390,664 390,1159l-1 0 2 1316c2,876 3,1756 -2,2633l0 1c-3,391 61,712 214,987l0 1zm-24272 33229c-72,-74 -192,-115 -358,-121l-17 0 -26 0c-195,0 -343,35 -434,113 -86,74 -137,203 -144,396 -5,212 38,362 125,450 88,88 241,132 453,132 190,0 322,-43 400,-123 81,-84 122,-227 122,-423 0,-199 -40,-341 -120,-424zm2103 2986l-135 1 -3 8c-3704,-12 -7409,-4 -11113,3l-2683 5 -2 0 -538 -4 -1 0c-560,-7 -1121,-14 -1676,50 -530,61 -984,322 -1301,698 -326,387 -512,896 -499,1441l0 1c13,596 249,1110 645,1471 397,362 962,579 1635,585 1790,10 3586,6 5379,3l2419 -3 0 -16 269 0 2689 2c1794,1 3590,3 5381,-2l0 -1c481,0 934,-139 1304,-378l1 1c369,-238 657,-578 810,-976l1 -2c159,-406 183,-799 83,-1173 -106,-398 -352,-788 -721,-1164l-1 -1c-538,-551 -1245,-549 -1941,-547zm-2833 -31900c1650,-1210 3441,-2233 5359,-3090l378 -169 0 19c1268,-539 2567,-951 3887,-1268 1450,-348 2924,-581 4414,-742l0 -1c268,-32 534,-66 697,-164 128,-76 206,-222 187,-499l0 -1c-31,-479 -391,-474 -752,-469 -83,1 -168,2 -249,0 -1210,-37 -2390,238 -3567,510 -301,70 -602,140 -906,205 -1464,317 -2877,771 -4241,1341 -1366,571 -2684,1260 -3955,2047 -1652,1023 -3176,2191 -4558,3503 -1363,1294 -2592,2730 -3673,4308 -1001,1466 -1877,2995 -2602,4593 -725,1598 -1300,3266 -1698,5011l0 1c-329,1432 -530,2873 -637,4322 -108,1454 -124,2912 -85,4376l0 6 -4 1608c-4,1243 -10,2490 12,3736l0 1c4,203 59,374 146,499 54,78 120,138 191,176l1 0c69,37 148,57 226,55 102,-2 214,-39 323,-115 220,-155 217,-437 215,-706l0 -1 -1 -97 0 -2 10 -1670c11,-1690 23,-3386 -17,-5081 -34,-1330 39,-2649 208,-3952l0 -1c177,-1357 458,-2698 828,-4014 521,-1855 1230,-3623 2118,-5295 893,-1680 1970,-3267 3223,-4753l1 1c1358,-1615 2870,-3016 4521,-4227zm21868 12085c503,-338 918,-821 1264,-1420l5 -17c98,-170 147,-304 151,-404l0 -1c1,-36 -5,-66 -17,-87l-1 -2c-11,-20 -33,-40 -64,-58 -89,-52 -232,-81 -417,-87l-2 0c-668,-26 -1331,-20 -1994,-13l-902 7 -269 0 0 -10 -560 -6c-656,-8 -1312,-16 -1968,23 -353,21 -557,83 -608,188 -53,108 20,314 215,620l1 1c391,616 860,1094 1414,1406 552,311 1197,461 1943,429 711,-33 1307,-231 1808,-568zm991 -4130c2003,1 4005,3 6010,-2l1 6c460,-1 717,-28 824,-137 107,-110 121,-373 97,-843 -99,-2106 -649,-3932 -1625,-5481 -991,-1570 -2427,-2863 -4284,-3883l-1 -1c-405,-224 -679,-480 -854,-789l0 -1c-174,-310 -243,-663 -239,-1084l0 -2c15,-850 10,-1703 5,-2556l-6 -1286 1 -3c5,-475 -191,-714 -680,-714l0 -1c-996,5 -1999,3 -3000,2l-1505 -2 -3 0c-239,-3 -405,45 -502,143 -96,98 -142,268 -142,505l-1 0c3,331 -7,656 -17,979 -19,636 -37,1272 39,1894 101,824 -33,1476 -367,2027 -328,542 -843,976 -1508,1377 -1636,989 -2883,2224 -3742,3686 -871,1480 -1352,3198 -1448,5135 -20,466 5,736 129,861 126,128 406,165 896,165l0 1c1980,4 3964,3 5946,2l2970 -2 3007 2z"/>
 </g>
</svg>
