<?xml version="1.0" encoding="UTF-8"?>
<!DOCTYPE svg PUBLIC "-//W3C//DTD SVG 1.0//EN" "http://www.w3.org/TR/2001/REC-SVG-20010904/DTD/svg10.dtd">
<!-- Creator: CorelDRAW -->
<svg xmlns="http://www.w3.org/2000/svg" xml:space="preserve" width="8.9332mm" height="9.1mm" version="1.0" style="shape-rendering:geometricPrecision; text-rendering:geometricPrecision; image-rendering:optimizeQuality; fill-rule:evenodd; clip-rule:evenodd"
viewBox="0 0 61929 63085"
 xmlns:xlink="http://www.w3.org/1999/xlink"
 xmlns:xodm="http://www.corel.com/coreldraw/odm/2003">
 <defs>
  <style type="text/css">
   <![CDATA[
    .fil0 {fill:#00A0E3}
   ]]>
  </style>
 </defs>
 <g id="Layer_x0020_1">
  <metadata id="CorelCorpID_0Corel-Layer"/>
  <path class="fil0" d="M56506 6453l1497 -1497 1 -1c276,-276 642,-415 1006,-415l0 1c365,1 730,139 1005,414l1 1 1 -1 1 1 1497 1497c276,276 415,642 415,1007 0,364 -139,729 -415,1006l-1 1 1 1 -1497 1497 -1 1 -23 21c-273,261 -629,394 -983,394l0 -1c-365,1 -731,-137 -1007,-413l-1 -1 -1497 -1497 -1 -1 -21 -23c-261,-273 -394,-628 -394,-983 0,-363 139,-728 415,-1004l1 -1 -1 -1 1 -1zm3104 144l-1199 0c-67,0 -129,26 -175,67l-10 11c-48,48 -78,114 -78,186l0 1199c0,71 31,138 78,185 48,48 114,78 186,78l1199 0c70,0 134,-28 181,-73l4 -4 1 -1c47,-46 77,-113 77,-185l0 -1199c0,-71 -31,-138 -78,-186l1 -1 -1 -1c-46,-47 -113,-77 -185,-77zm-3104 7884l1497 -1497 1 -1c276,-276 642,-415 1006,-415l0 1c365,1 730,139 1005,414l1 1 1 -1 1 1 1497 1497c276,276 415,643 415,1007 0,365 -139,731 -415,1007l-1497 1497c-275,275 -641,414 -1007,415l0 1c-365,0 -731,-139 -1007,-415l-18 -19 -1478 -1479 -1 1 -1 -1 -21 -23c-261,-273 -394,-628 -394,-983 0,-363 139,-728 415,-1004l1 -1 -1 -1 1 -1zm3104 144l-1199 0c-70,0 -136,28 -183,73l-3 3 -1 1c-46,47 -76,114 -76,186l0 1199c0,71 31,138 78,185 48,48 114,78 186,78l1199 0c70,0 134,-28 181,-73l4 -4 1 -1c47,-46 77,-113 77,-185l0 -1199c0,-71 -31,-138 -78,-186 -47,-47 -114,-78 -185,-78zm-3104 7883l1497 -1497 1 -1 23 -21c273,-261 629,-394 983,-394 365,0 731,139 1007,415l1 1 1497 1497c276,276 415,642 415,1007 0,365 -139,731 -415,1007l-1497 1497 -1 1c-276,276 -642,415 -1006,415 -365,0 -729,-139 -1005,-415l-1 -1 -1 1 -1 -1 -1497 -1497c-277,-277 -416,-643 -416,-1007 0,-363 139,-729 417,-1007l-1 -1zm3104 144l-1199 0c-70,0 -136,28 -183,73l-3 3 -1 1c-46,47 -76,114 -76,186l0 1199c0,71 31,138 78,185 48,48 114,78 186,78l1199 0c70,0 134,-28 181,-73l4 -4 1 -1c47,-46 77,-113 77,-185l0 -1199c0,-71 -31,-138 -78,-186 -47,-47 -114,-78 -185,-78zm-3084 7866l1477 -1478 1 -1 -1 -1 1 -1 23 -21c274,-261 629,-394 983,-394 365,0 731,139 1007,415l1 1 1497 1497c276,276 415,642 415,1007 0,365 -139,731 -415,1007l-19 18 -1477 1478 -1 1 1 1c-276,276 -642,415 -1007,415 -365,0 -731,-139 -1007,-415l-1497 -1497 -1 -1c-276,-276 -415,-642 -415,-1007 0,-365 139,-730 415,-1006l1 -1 19 -18zm3084 162l-1199 0c-70,0 -136,28 -183,73l-3 3 -1 1c-46,47 -76,114 -76,186l0 1199c0,71 31,138 78,185 48,48 114,78 186,78l1199 0c70,0 134,-28 181,-73l4 -4 1 -1c47,-46 77,-113 77,-185l0 -1199c0,-71 -31,-138 -78,-186 -47,-47 -114,-78 -185,-78zm-3104 7884l1497 -1497 1 -1c276,-276 642,-415 1006,-415l0 1c365,1 730,139 1005,414l1 1 1 -1 1 1 1497 1497c276,276 415,642 415,1007 0,364 -139,729 -415,1006l-1 1 1 1 -1497 1497 -1 1 -23 21c-273,261 -629,394 -983,394l0 -1c-365,1 -731,-137 -1007,-413l-1 -1 -1497 -1497 -1 -1 -21 -23c-261,-273 -394,-628 -394,-983 0,-363 139,-728 415,-1004l1 -1 -1 -1 1 -1zm3104 144l-1199 0c-67,0 -129,26 -175,67l-10 11c-48,48 -78,114 -78,186l0 1199c0,71 31,138 78,185 48,48 114,78 186,78l1199 0c70,0 134,-28 181,-73l4 -4 1 -1c47,-46 77,-113 77,-185l0 -1199c0,-71 -31,-138 -78,-186l1 -1 -1 -1c-46,-47 -113,-77 -185,-77zm-3104 7884l1497 -1497 1 -1c276,-276 642,-415 1006,-415l0 1c365,1 730,139 1005,414l1 1 1 -1 1 1 1497 1497c276,276 415,643 415,1007 0,365 -139,731 -415,1007l-1497 1497 -1 1 -23 21c-273,261 -629,394 -983,394l0 -1c-365,1 -731,-137 -1007,-413l-1 -1 -1497 -1497 -1 -1 -21 -23c-261,-273 -394,-628 -394,-983 0,-363 139,-728 415,-1004l1 -1 -1 -1 1 -1zm3104 144l-1199 0c-70,0 -136,28 -183,73l-3 3 -1 1c-46,47 -76,114 -76,186l0 1199c0,71 31,138 78,185 48,48 114,78 186,78l1199 0c70,0 134,-28 181,-73l4 -4 1 -1c47,-46 77,-113 77,-185l0 -1199c0,-71 -31,-138 -78,-186 -47,-47 -114,-78 -185,-78zm-3104 7884l1497 -1497 1 -1c276,-276 642,-415 1006,-415l0 1c365,1 730,139 1005,414l1 1 1 -1 1 1 1497 1497c276,276 415,642 415,1007 0,364 -139,729 -415,1006l-1 1 1 1 -1497 1497 -1 1 -23 21c-273,261 -629,394 -983,394l0 -1c-365,1 -731,-137 -1007,-413l-1 -1 -1497 -1497 -1 -1 -21 -23c-261,-273 -394,-628 -394,-983 0,-363 139,-728 415,-1004l1 -1 -1 -1 1 -1zm3104 144l-1199 0c-70,0 -136,28 -183,73l-3 3 -1 1c-46,47 -76,114 -76,186l0 1199c0,71 31,138 78,186l-1 1 1 1c46,47 113,77 185,77l1199 0c67,0 129,-26 175,-67l10 -11c48,-48 78,-114 78,-186l0 -1199c0,-71 -31,-138 -78,-186 -47,-47 -114,-78 -185,-78zm-49758 -54762l43223 0c191,0 347,155 347,347l0 62392c0,191 -155,347 -347,347l-44220 0c-191,0 -347,-155 -347,-347l0 -62392c0,-191 155,-347 347,-347l997 0zm40882 2687l-39539 0 0 57711 39539 0 0 -57711zm-32383 17107l-1 1 -23 21c-258,245 -593,369 -925,368 -343,-1 -687,-133 -946,-393l-1 1 -1 -1 -1 -1 -21 -23c-246,-259 -369,-594 -368,-925l0 -1c1,-342 134,-686 394,-945l-1 -1 1 -1 20 -19 9858 -9783c261,-261 606,-391 947,-391l0 1c344,1 688,133 948,394 259,261 390,606 389,948 -1,343 -133,688 -394,948l-9876 9801 1 1zm2393 7894c-262,260 -606,390 -948,389 -343,-1 -688,-133 -947,-394l-1 1 -1 -1 -21 -23c-247,-258 -369,-593 -368,-925 1,-343 133,-687 393,-946l-1 -1 1 -1 20 -19 5415 -5374c261,-259 606,-390 948,-389 343,1 688,133 947,394l1 -1 1 1 21 23c245,259 367,593 367,925 -1,342 -132,686 -392,946l1 1 -1 1 -20 19 -5414 5374zm17992 22174l-1 1 -23 21c-258,245 -593,369 -925,368 -343,-1 -687,-133 -946,-393l-1 1 -1 -1 -21 -23c-247,-259 -369,-595 -368,-927 1,-343 133,-688 394,-947l9877 -9802c261,-261 606,-391 947,-391l0 1c344,1 688,133 948,394 259,261 390,606 389,948 -1,343 -133,688 -394,948l-9876 9801 1 1zm2180 7908c-261,261 -606,391 -947,391l0 -1c-344,-1 -688,-133 -948,-394 -260,-262 -390,-606 -389,-948 1,-343 133,-688 394,-948l5434 -5393c262,-260 606,-390 948,-389 343,1 688,133 948,394 259,261 390,606 389,948 -1,343 -133,687 -394,948l-5434 5392zm-40501 -51316l1497 -1497c276,-276 642,-415 1007,-415 364,0 729,139 1006,415l1 1 1 -1 1497 1497c276,276 415,642 415,1007 0,364 -139,729 -415,1006l-1 1 1 1 -1497 1497 -21 19c-275,263 -630,396 -986,396 -365,0 -731,-139 -1007,-415l-1497 -1497 -1 -1 -21 -23c-261,-273 -394,-628 -394,-983 0,-363 139,-728 415,-1004l1 -1 -1 -1 1 -1zm3103 144l-1199 0c-67,0 -129,26 -175,67l-10 11c-48,48 -78,114 -78,186l0 1199c0,71 31,138 78,185 48,48 114,78 186,78l1199 0c70,0 134,-28 181,-73l4 -4 1 -1c47,-46 77,-113 77,-185l0 -1199c0,-71 -31,-138 -78,-186l1 -1 -1 -1c-46,-47 -113,-77 -185,-77zm-3103 7884l1497 -1497c276,-276 642,-415 1007,-415 364,0 729,139 1006,415l1 1 1 -1 1497 1497c276,276 415,643 415,1007 0,365 -139,731 -415,1007l-1497 1497 -23 21c-273,261 -629,393 -984,394l0 1c-365,0 -731,-139 -1007,-415l-18 -19 -1478 -1479 -1 1 -1 -1 -21 -23c-261,-273 -394,-628 -394,-983 0,-363 139,-728 415,-1004l1 -1 -1 -1 1 -1zm3103 144l-1199 0c-70,0 -136,28 -183,73l-3 3 -1 1c-46,47 -76,114 -76,186l0 1199c0,71 31,138 78,185 48,48 114,78 186,78l1199 0c70,0 134,-28 181,-73l4 -4 1 -1c47,-46 77,-113 77,-185l0 -1199c0,-71 -31,-138 -78,-186 -47,-47 -114,-78 -185,-78zm-3103 7883l1497 -1497c276,-276 642,-415 1007,-415 365,0 731,140 1007,416l1497 1497c276,276 415,642 415,1007 0,365 -139,731 -415,1007l-1497 1497c-276,276 -643,416 -1007,416 -365,0 -731,-139 -1007,-415l-1497 -1497c-277,-277 -416,-643 -416,-1007 0,-363 139,-729 417,-1007l-1 -1zm3103 144l-1199 0c-70,0 -136,28 -183,73l-3 3 -1 1c-46,47 -76,114 -76,186l0 1199c0,71 31,138 78,185 48,48 114,78 186,78l1199 0c70,0 134,-28 181,-73l4 -4 1 -1c47,-46 77,-113 77,-185l0 -1199c0,-71 -31,-138 -78,-186 -47,-47 -114,-78 -185,-78zm-3084 7866l1477 -1478 1 -1 -1 -1c276,-276 642,-415 1007,-415 365,0 731,140 1007,416l1497 1497c276,276 415,642 415,1007 0,365 -139,731 -415,1007l-19 18 -1477 1478 -1 1 -5 5c-277,272 -639,410 -1001,410 -365,0 -731,-139 -1007,-415l-1497 -1497 -1 -1c-276,-276 -415,-642 -415,-1007 0,-365 139,-730 415,-1006l1 -1 19 -18zm3084 162l-1199 0c-70,0 -136,28 -183,73l-3 3 -1 1c-46,47 -76,114 -76,186l0 1199c0,71 31,138 78,185 48,48 114,78 186,78l1199 0c70,0 134,-28 181,-73l4 -4 1 -1c47,-46 77,-113 77,-185l0 -1199c0,-71 -31,-138 -78,-186 -47,-47 -114,-78 -185,-78zm-3103 7884l1497 -1497c276,-276 642,-415 1007,-415 364,0 729,139 1006,415l1 1 1 -1 1497 1497c276,276 415,642 415,1007 0,364 -139,729 -415,1006l-1 1 1 1 -1497 1497 -21 19c-275,263 -630,396 -986,396 -365,0 -731,-139 -1007,-415l-1497 -1497 -1 -1 -21 -23c-261,-273 -394,-628 -394,-983 0,-363 139,-728 415,-1004l1 -1 -1 -1 1 -1zm3103 144l-1199 0c-67,0 -129,26 -175,67l-10 11c-48,48 -78,114 -78,186l0 1199c0,71 31,138 78,185 48,48 114,78 186,78l1199 0c70,0 134,-28 181,-73l4 -4 1 -1c47,-46 77,-113 77,-185l0 -1199c0,-71 -31,-138 -78,-186l1 -1 -1 -1c-46,-47 -113,-77 -185,-77zm-3103 7884l1497 -1497c276,-276 642,-415 1007,-415 364,0 729,139 1006,415l1 1 1 -1 1497 1497c276,276 415,643 415,1007 0,365 -139,731 -415,1007l-1497 1497 -21 19c-275,263 -630,396 -986,396 -365,0 -731,-139 -1007,-415l-1497 -1497 -1 -1 -21 -23c-261,-273 -394,-628 -394,-983 0,-363 139,-728 415,-1004l1 -1 -1 -1 1 -1zm3103 144l-1199 0c-70,0 -136,28 -183,73l-3 3 -1 1c-46,47 -76,114 -76,186l0 1199c0,71 31,138 78,185 48,48 114,78 186,78l1199 0c70,0 134,-28 181,-73l4 -4 1 -1c47,-46 77,-113 77,-185l0 -1199c0,-71 -31,-138 -78,-186 -47,-47 -114,-78 -185,-78zm-3103 7884l1497 -1497c276,-276 642,-415 1007,-415 364,0 729,139 1006,415l1 1 1 -1 1497 1497c276,276 415,642 415,1007 0,364 -139,729 -415,1006l-1 1 1 1 -1497 1497 -21 19c-275,263 -630,396 -986,396 -365,0 -731,-139 -1007,-415l-1497 -1497 -1 -1 -21 -23c-261,-273 -394,-628 -394,-983 0,-363 139,-728 415,-1004l1 -1 -1 -1 1 -1zm3103 144l-1199 0c-70,0 -136,28 -183,73l-3 3 -1 1c-46,47 -76,114 -76,186l0 1199c0,71 31,138 78,186l-1 1 1 1c46,47 113,77 185,77l1199 0c67,0 129,-26 175,-67l10 -11c48,-48 78,-114 78,-186l0 -1199c0,-71 -31,-138 -78,-186 -47,-47 -114,-78 -185,-78z"/>
 </g>
</svg>
