<?xml version="1.0" encoding="UTF-8"?>
<!DOCTYPE svg PUBLIC "-//W3C//DTD SVG 1.0//EN" "http://www.w3.org/TR/2001/REC-SVG-20010904/DTD/svg10.dtd">
<!-- Creator: CorelDRAW -->
<svg xmlns="http://www.w3.org/2000/svg" xml:space="preserve" width="8.3mm" height="8.2105mm" version="1.0" style="shape-rendering:geometricPrecision; text-rendering:geometricPrecision; image-rendering:optimizeQuality; fill-rule:evenodd; clip-rule:evenodd"
viewBox="0 0 78082 77240"
 xmlns:xlink="http://www.w3.org/1999/xlink"
 xmlns:xodm="http://www.corel.com/coreldraw/odm/2003">
 <defs>
  <style type="text/css">
   <![CDATA[
    .fil0 {fill:#00A0E3;fill-rule:nonzero}
   ]]>
  </style>
 </defs>
 <g id="Layer_x0020_1">
  <metadata id="CorelCorpID_0Corel-Layer"/>
  <path class="fil0" d="M39041 41506c2294,0 4205,-1575 4755,-3697l-9508 0c548,2122 2459,3697 4754,3697zm26450 6161l-4270 -6404 -4269 6404 8539 0zm1643 2464l-11824 0 -7533 11297c-72,108 -110,234 -110,366 0,364 295,659 659,659l25790 0c364,0 659,-294 659,-659 0,-131 -39,-258 -111,-366l-7531 -11297zm-44361 0l-11824 0 -7531 11297c-72,108 -111,234 -111,366 0,364 295,659 659,659l25790 0c364,0 659,-294 659,-659 0,-131 -38,-258 -110,-366l-7533 -11297zm-1643 -2464l-4269 -6404 -4270 6404 8539 0zm4468 -13347c-73,108 -112,234 -112,366 0,363 296,659 660,659l25790 0c364,0 660,-295 660,-659 0,-131 -39,-258 -112,-366l-7531 -11297 -11825 0 -7531 11297zm9173 -13762l8540 0 -4270 -6403 -4270 6403zm-34771 -17250l0 -3308 78082 0 0 4150 -14787 0 0 22180 -4150 0 0 -22180 -18030 0 0 7393 -4149 0 0 -7393 -18030 0 0 22180 -4150 0 0 -22180 -14787 0 0 -842zm50478 69362l3697 -3696 1742 1742 -3696 3696 -1743 -1742zm16018 -1951l1742 -1741 3696 3695 -1742 1743 -3696 -3697zm-6508 1593l2465 0 0 4929 -2465 0 0 -4929zm1232 -3696c2294,0 4204,-1575 4755,-3697l-9508 0c549,2122 2459,3697 4754,3697zm-1232 -39041l3307 0 0 9077 -4150 0 0 -9077 843 0zm-53864 43092l3696 -3696 1742 1742 -3696 3696 -1742 -1742zm16017 -1952l1742 -1742 3697 3696 -1742 1743 -3697 -3697zm-6513 1597l2465 0 0 4929 -2465 0 0 -4929zm1232 -3696c2294,0 4204,-1575 4755,-3697l-9509 0c549,2122 2460,3697 4754,3697zm-1232 -39041l3308 0 0 9077 -4150 0 0 -9077 842 0zm12676 15988l3696 -3697 1742 1743 -3696 3697 -1742 -1743zm16018 -1952l1741 -1742 3697 3696 -1743 1743 -3695 -3697zm-6514 1593l2465 0 0 4929 -2465 0 0 -4929z"/>
 </g>
</svg>
