<?xml version="1.0" encoding="UTF-8"?>
<!DOCTYPE svg PUBLIC "-//W3C//DTD SVG 1.0//EN" "http://www.w3.org/TR/2001/REC-SVG-20010904/DTD/svg10.dtd">
<!-- Creator: CorelDRAW -->
<svg xmlns="http://www.w3.org/2000/svg" xml:space="preserve" width="7.8806mm" height="8.02mm" version="1.0" style="shape-rendering:geometricPrecision; text-rendering:geometricPrecision; image-rendering:optimizeQuality; fill-rule:evenodd; clip-rule:evenodd"
viewBox="0 0 129900 132198"
 xmlns:xlink="http://www.w3.org/1999/xlink"
 xmlns:xodm="http://www.corel.com/coreldraw/odm/2003">
 <defs>
  <style type="text/css">
   <![CDATA[
    .fil0 {fill:#00A0E3;fill-rule:nonzero}
   ]]>
  </style>
 </defs>
 <g id="Layer_x0020_1">
  <metadata id="CorelCorpID_0Corel-Layer"/>
  <g>
   <path class="fil0" d="M42180 85589l45541 0c1141,0 2177,466 2927,1216 748,748 1216,1787 1216,2927l0 25704c0,1139 -468,2176 -1216,2926l-2 2 -10 10c-750,743 -1782,1207 -2916,1207l-45541 0c-1141,0 -2179,-468 -2927,-1216 -750,-750 -1216,-1787 -1216,-2927l0 -25704c0,-1137 468,-2177 1216,-2926l2 -2c748,-748 1788,-1216 2926,-1216zm41178 10162l-36814 0c-409,0 -783,170 -1052,435l-2 2c-265,269 -435,643 -435,1052l0 10688c0,402 163,771 424,1040l13 12c270,270 643,438 1052,438l36814 0c409,0 781,-168 1052,-438 267,-269 437,-643 437,-1052l0 -10688c0,-409 -168,-781 -438,-1052 -267,-267 -641,-437 -1050,-437zm-24201 -26491l11588 0c374,0 719,155 963,399 246,246 401,590 401,964l0 9480c0,374 -155,715 -399,961l-2 2 -10 10c-246,239 -584,389 -953,389l-11588 0c-374,0 -719,-155 -963,-399 -246,-246 -399,-588 -399,-963l0 -9480c0,-374 155,-717 399,-963l2 -2 10 -10c246,-239 582,-389 951,-389zm-36478 -69261l84546 0c1307,0 2504,450 3368,1175 872,732 1416,1747 1416,2863l0 23079c0,1104 453,2110 1177,2837l2 2c727,724 1732,1177 2837,1177l2443 0c1538,0 3013,312 4357,869 1395,579 2659,1432 3714,2486l-103858 -34487zm103860 34487l8 8 12 13c1048,1053 1897,2313 2474,3702 557,1343 869,2819 869,4357l0 78196c0,1538 -310,3012 -869,4358 -579,1395 -1432,2659 -2486,3714l-2 0 2 2 -8 8 -13 12c-1053,1048 -2311,1896 -3702,2473 -1343,557 -2819,869 -4357,869l-53516 0 -53516 0c-1541,0 -3020,-310 -4366,-869 -1399,-580 -2662,-1432 -3714,-2484 -2069,-2069 -3354,-4930 -3354,-8082l0 -78196c0,-1541 310,-3020 869,-4366 579,-1396 1432,-2662 2486,-3714 1052,-1052 2314,-1906 3715,-2486 1347,-559 2824,-869 4365,-869l2445 0c1104,0 2110,-453 2835,-1179l13 -12c719,-727 1165,-1727 1165,-2825l0 -23079c0,-1116 544,-2131 1416,-2863 864,-725 2062,-1175 3369,-1175l103860 34487zm-2 0l2 0 -2 0zm-14529 5161l0 23079c0,1116 -544,2131 -1416,2863 -864,725 -2060,1175 -3368,1175l-84546 0c-1307,0 -2506,-450 -3369,-1175 -872,-732 -1416,-1747 -1416,-2863l0 -23079c0,-1104 -453,-2112 -1179,-2838l0 2c-725,-725 -1731,-1179 -2835,-1179l-2445 0c-936,0 -1830,190 -2644,526 -844,349 -1612,870 -2253,1512 -640,640 -1160,1406 -1512,2252 -336,814 -526,1709 -526,2646l0 78196c0,936 190,1831 526,2646 351,846 872,1612 1512,2252 640,640 1408,1160 2252,1512 813,338 1709,526 2646,526l53516 0 53516 0c940,0 1838,-188 2651,-524 842,-349 1609,-867 2247,-1505l8 -8c1249,-1249 2029,-2985 2029,-4897l0 -78196c0,-938 -188,-1836 -524,-2649 -349,-844 -867,-1610 -1505,-2248l-8 -8c-1249,-1249 -2985,-2029 -4897,-2029l-2443 0c-1104,0 -2110,453 -2837,1177l-2 2c-724,727 -1177,1732 -1177,2837zm-57388 -14710l20662 0 17306 -12750c232,-171 392,-392 462,-626 68,-229 51,-481 -56,-719 -110,-246 -302,-448 -541,-587 -244,-142 -546,-223 -870,-223l-53265 0c-325,0 -626,81 -870,223 -239,138 -430,341 -541,587 -107,237 -124,488 -56,719 71,234 229,455 463,626l17306 12750zm23400 2103l0 12682 17837 13142c227,168 498,274 778,307 280,33 579,0 857,-105 272,-102 496,-265 646,-460 145,-190 226,-417 226,-661l0 -37128c0,-244 -81,-473 -226,-663 -150,-195 -373,-356 -646,-458 -279,-105 -577,-138 -857,-105 -280,33 -551,138 -778,307l-17837 13142zm-2738 14786l-20662 0 -17306 12750c-232,171 -392,392 -462,626l0 2c-68,227 -53,480 54,717 109,242 302,448 541,587 242,140 546,221 870,221l53265 0c325,0 628,-81 870,-221 239,-138 432,-345 541,-587 107,-237 124,-490 56,-719 -69,-234 -227,-453 -462,-626l-17306 -12750zm-23400 -2103l0 -12682 -17837 -13142c-227,-168 -498,-274 -778,-307 -280,-33 -579,0 -857,105 -274,102 -498,264 -646,458 -145,190 -227,419 -227,663l0 37128c0,242 81,471 227,661 150,196 374,358 646,460 279,105 577,138 857,105 280,-33 551,-138 778,-307l17837 -13142z"/>
  </g>
 </g>
</svg>
