<?xml version="1.0" encoding="UTF-8"?>
<!DOCTYPE svg PUBLIC "-//W3C//DTD SVG 1.0//EN" "http://www.w3.org/TR/2001/REC-SVG-20010904/DTD/svg10.dtd">
<!-- Creator: CorelDRAW -->
<svg xmlns="http://www.w3.org/2000/svg" xml:space="preserve" width="9.6442mm" height="8.02mm" version="1.0" style="shape-rendering:geometricPrecision; text-rendering:geometricPrecision; image-rendering:optimizeQuality; fill-rule:evenodd; clip-rule:evenodd"
viewBox="0 0 971654 808016"
 xmlns:xlink="http://www.w3.org/1999/xlink"
 xmlns:xodm="http://www.corel.com/coreldraw/odm/2003">
 <defs>
  <style type="text/css">
   <![CDATA[
    .fil0 {fill:#00A0E3;fill-rule:nonzero}
   ]]>
  </style>
 </defs>
 <g id="Layer_x0020_1">
  <metadata id="CorelCorpID_0Corel-Layer"/>
  <g>
   <path class="fil0" d="M174550 0l622555 0c9632,0 18397,3959 24724,10297l10 -10c6337,6337 10287,15102 10287,24744l0 515367c0,9642 -3949,18407 -10287,24744l-91 81c-6317,6287 -15052,10206 -24643,10206l-622555 0c-9642,0 -18407,-3949 -24744,-10287 -6337,-6337 -10287,-15102 -10287,-24744l0 -515367c0,-9642 3949,-18407 10287,-24744 6337,-6337 15102,-10287 24744,-10287zm-86403 194014l1471 0 10045 0 3023 0c7173,0 13168,5269 14327,12120 131,786 202,1582 202,2408l0 4302 0 110301c0,8000 -6529,14528 -14528,14528l-14538 0c-15999,0 -29076,-13077 -29076,-29066l0 -23686 -5783 0c-5954,0 -11355,2398 -15223,6277 -3909,3970 -6337,9360 -6337,15284l0 448247c0,5964 2398,11355 6277,15223l60 60c3869,3879 9269,6277 15223,6277l432540 0 432540 0c3889,0 7546,-1028 10690,-2811 1632,-937 3143,-2075 4463,-3395l71 -71 60 -60c3879,-3869 6277,-9259 6277,-15223l0 -448247c0,-5924 -2428,-11314 -6337,-15284 -3869,-3879 -9269,-6277 -15223,-6277l-5783 0 0 23686c0,15989 -13077,29066 -29076,29066l-14538 0c-8000,0 -14528,-6529 -14528,-14528l0 -114603c0,-7989 6529,-14528 14528,-14528l14538 0c15999,0 29076,13077 29076,29066l0 31122 5783 0c14347,0 27424,5884 36945,15334 9460,9460 15334,22538 15334,36945l0 448247c0,12362 -4362,23777 -11627,32764 -1159,1441 -2398,2811 -3708,4121l-60 60 -60 60c-9491,9420 -22518,15274 -36824,15274l-432540 0 -432540 0c-14337,0 -27394,-5874 -36885,-15334l-60 -60c-9460,-9481 -15334,-22548 -15334,-36885l0 -448247c0,-14407 5874,-27485 15334,-36945 9521,-9450 22598,-15334 36945,-15334l5783 0 0 -31122c0,-15989 13077,-29066 29076,-29066zm321594 24986l152173 0 127469 -112004c1793,-1572 3012,-3597 3546,-5733 534,-2146 403,-4493 -433,-6720 -836,-2227 -2297,-4090 -4111,-5330l-10 0c-1803,-1259 -4040,-1965 -6438,-1965l-392230 0c-2398,0 -4624,705 -6438,1965 -1824,1259 -3274,3103 -4111,5330 -836,2227 -967,4574 -433,6720 534,2136 1753,4161 3546,5733l127469 112004zm172111 17762l0 111903 131499 115550c1693,1491 3718,2418 5773,2720l10 0c2065,312 4262,0 6317,-927 2055,-927 3728,-2378 4856,-4131 1128,-1763 1763,-3879 1763,-6146l0 -326037c0,-2267 -625,-4393 -1763,-6146 -1128,-1753 -2801,-3204 -4856,-4131 -2055,-927 -4252,-1239 -6317,-927l-10 0c-2055,302 -4080,1229 -5773,2720l-131499 115550zm-19938 129665l-152173 0 -127469 112004c-1793,1572 -3012,3597 -3546,5733 -534,2146 -403,4493 433,6720 836,2227 2297,4070 4111,5330 1814,1259 4040,1965 6438,1965l392230 0c2398,0 4624,-705 6438,-1965 1824,-1259 3274,-3103 4121,-5330 836,-2227 967,-4574 433,-6720 -534,-2136 -1753,-4161 -3546,-5733l-127469 -112004zm-172111 -17762l0 -111903 -131509 -115550c-1693,-1491 -3718,-2418 -5773,-2720l-10 0c-2065,-312 -4262,0 -6317,927 -2055,927 -3728,2378 -4856,4131 -1138,1753 -1763,3879 -1763,6146l0 326037c0,2267 635,4383 1763,6146 1128,1753 2801,3204 4856,4131 2055,927 4252,1239 6317,927l10 0c2055,-302 4080,-1229 5773,-2720l131509 -115550zm-301656 -155659l14538 0c4262,0 8161,1753 10972,4554l10 10 60 60c2771,2811 4493,6680 4493,10911l0 114603c0,4262 -1753,8161 -4554,10972l-10 10 -60 60c-2811,2771 -6680,4493 -10911,4493l-14538 0c-8282,0 -15808,-3385 -21248,-8826 -5441,-5441 -8836,-12967 -8836,-21248l0 -22679 -4776 0c-2791,0 -5471,554 -7869,1541 -2509,1028 -4776,2559 -6639,4433 -1894,1924 -3456,4232 -4493,6750 -987,2408 -1552,5058 -1552,7828l0 448247c0,2801 554,5471 1541,7869 1028,2489 2549,4745 4443,6639l60 60 71 81c1844,1844 4090,3345 6569,4362 2398,987 5078,1541 7869,1541l432540 0 432540 0c2791,0 5471,-554 7869,-1541 2509,-1028 4776,-2559 6639,-4433l10 -10 -10 0 60 -60c1894,-1894 3415,-4151 4443,-6639 987,-2398 1541,-5068 1541,-7869l0 -448247c0,-2771 -564,-5420 -1552,-7828 -1038,-2519 -2599,-4826 -4493,-6750 -1864,-1874 -4131,-3405 -6639,-4433 -2398,-987 -5078,-1541 -7869,-1541l-4776 0 0 22679c0,8282 -3395,15808 -8836,21248 -5441,5441 -12967,8826 -21248,8826l-14538 0c-4262,0 -8161,-1753 -10972,-4554l-10 -10 -60 -60c-2771,-2811 -4493,-6680 -4493,-10911l0 -114603c0,-4262 1753,-8161 4554,-10972l10 -10 60 -60c2811,-2771 6680,-4493 10911,-4493l14538 0c8282,0 15808,3385 21248,8826 5441,5441 8836,12967 8836,21248l0 30114 4776 0c7153,0 14014,1441 20291,4050 6519,2700 12433,6690 17359,11576l10 0c9632,9632 15626,22971 15626,37660l0 448247c0,7153 -1441,14014 -4050,20281 -2700,6508 -6670,12392 -11576,17309l-867881 -599312zm867881 599322l-60 60 -81 71c-4907,4876 -10760,8816 -17238,11506 -6267,2609 -13128,4050 -20281,4050l-432540 0 -432540 0c-7153,0 -14014,-1441 -20281,-4050 -6508,-2700 -12392,-6670 -17309,-11576l-10 -10 0 10 -60 -60 -71 -81c-4876,-4907 -8816,-10760 -11506,-17238 -2609,-6267 -4050,-13128 -4050,-20281l0 -448247c0,-7173 1441,-14075 4050,-20352 2700,-6529 6680,-12412 11576,-17309l81 -71c4917,-4856 10800,-8816 17289,-11506 6277,-2609 13138,-4050 20291,-4050l4776 0 0 -30114c0,-8282 3395,-15808 8836,-21248 5441,-5441 12967,-8826 21248,-8826l867881 599322zm0 -10l0 10 0 -10z"/>
  </g>
 </g>
</svg>
