<?xml version="1.0" encoding="UTF-8"?>
<!DOCTYPE svg PUBLIC "-//W3C//DTD SVG 1.0//EN" "http://www.w3.org/TR/2001/REC-SVG-20010904/DTD/svg10.dtd">
<!-- Creator: CorelDRAW -->
<svg xmlns="http://www.w3.org/2000/svg" xml:space="preserve" width="6.1592mm" height="8mm" version="1.0" style="shape-rendering:geometricPrecision; text-rendering:geometricPrecision; image-rendering:optimizeQuality; fill-rule:evenodd; clip-rule:evenodd"
viewBox="0 0 111863 145296"
 xmlns:xlink="http://www.w3.org/1999/xlink"
 xmlns:xodm="http://www.corel.com/coreldraw/odm/2003">
 <defs>
  <style type="text/css">
   <![CDATA[
    .fil0 {fill:#00A0E3;fill-rule:nonzero}
   ]]>
  </style>
 </defs>
 <g id="Layer_x0020_1">
  <metadata id="CorelCorpID_0Corel-Layer"/>
  <path class="fil0" d="M92728 50984c-5416,-9368 -7103,-19513 -8109,-30216 -583,-6210 -65,-12775 -4204,-18255 -2454,-3247 -4791,-3385 -7265,-191 -5298,6840 -6722,14846 -6753,23255 0,3155 1057,5501 3758,7392 8545,5977 15585,13618 21440,22078 4893,7069 9495,14083 12584,21916 2512,6371 5396,12873 4395,20165 -558,4079 -2997,6028 -7009,4907 -3282,-917 -5855,-3002 -8251,-5321 -14521,-14054 -22270,-31731 -26856,-51002 -2993,-12583 -4551,-25202 414,-37721 416,-1048 672,-2457 -381,-3186 -1527,-1055 -2236,603 -3028,1466 -8157,8883 -16349,17804 -24402,26793 -2078,2317 -4368,4778 -3887,8315 1366,10034 4746,19497 10131,27939 9239,14495 20552,27361 33801,38451 8060,6749 11912,7196 21121,2230 539,-291 1121,-594 1687,-828 6567,-2726 10341,-7003 9916,-14141 -628,-10499 -4268,-18202 -8387,-26286 -2475,-4862 -7652,-13244 -10716,-17759zm-86413 63985c1339,-254 2708,-318 3981,-1115 4430,-2802 6945,-7072 8571,-11724 1784,-5033 3760,-9940 7263,-13954 1882,-2165 4333,-5160 7615,-3344 3313,1847 6595,2357 10194,2198 1720,-64 3153,445 4682,1242 5385,2804 6086,7677 6023,12074 -509,10928 10608,18478 20516,14878 3567,-1308 4141,-4079 1050,-6531 -8760,-6976 -16375,-15100 -23287,-23829 -7390,-9335 -13792,-19306 -17712,-30679 -892,-2581 -3216,-3345 -5672,-1753 -1369,894 -2708,1912 -3918,3028 -4108,3696 -4619,6978 -1943,11787 1720,3091 3378,6213 5129,9303 1210,2136 1466,4557 -605,5799 -6851,4141 -9112,11213 -11883,17871 -2230,5320 -4682,10034 -10545,11947 -955,318 -1720,699 -1371,1847 256,859 1148,1115 1880,988l33 -35zm94297 -20389c1912,0 1560,-1911 1751,-3567 -412,-1912 -509,-4301 -1400,-6339 -3442,-7839 -6976,-15643 -11818,-22746 -4559,-6691 -9208,-13347 -15198,-18892 -859,-795 -1814,-1751 -2899,-637 -1115,1150 64,1976 765,2837 2452,3089 5383,5734 7868,8792 5894,7296 10705,15323 14878,23640 2134,4299 4906,8632 4715,13856 -33,1179 -383,3028 1369,3028l-31 29zm-49333 30469l0 -25743c0,-5459 -4466,-9926 -9924,-9926 -5459,0 -9926,4466 -9926,9926l0 25743c0,1994 -1625,3620 -3620,3620l-19495 0c-4573,0 -8315,3741 -8315,8315l0 5318c0,1649 1348,2995 2995,2995l78614 0c1647,0 2995,-1346 2995,-2995l0 -5318c0,-4573 -3741,-8315 -8315,-8315l-21391 0c-1994,0 -3620,-1625 -3620,-3620zm-9926 -21722c1584,0 2868,-1284 2868,-2868 0,-1582 -1284,-2866 -2868,-2866 -1582,0 -2866,1284 -2866,2866 0,1584 1284,2868 2866,2868z"/>
 </g>
</svg>
