<?xml version="1.0" encoding="UTF-8"?>
<!DOCTYPE svg PUBLIC "-//W3C//DTD SVG 1.0//EN" "http://www.w3.org/TR/2001/REC-SVG-20010904/DTD/svg10.dtd">
<!-- Creator: CorelDRAW -->
<svg xmlns="http://www.w3.org/2000/svg" xml:space="preserve" width="5.989mm" height="8.9999mm" version="1.0" style="shape-rendering:geometricPrecision; text-rendering:geometricPrecision; image-rendering:optimizeQuality; fill-rule:evenodd; clip-rule:evenodd"
viewBox="0 0 48416 72757"
 xmlns:xlink="http://www.w3.org/1999/xlink"
 xmlns:xodm="http://www.corel.com/coreldraw/odm/2003">
 <defs>
  <style type="text/css">
   <![CDATA[
    .fil0 {fill:#00A0E3;fill-rule:nonzero}
   ]]>
  </style>
 </defs>
 <g id="Layer_x0020_1">
  <metadata id="CorelCorpID_0Corel-Layer"/>
  <path class="fil0" d="M3706 10995c2582,6 3277,1129 4333,3194l9196 15565c1185,1969 1684,3326 1603,5662l0 27127c0,2305 496,2785 2834,2817 1472,16 2945,-32 4419,0 2945,48 3607,-560 3607,-3554l0 -26428c0,-4348 2395,-7791 4636,-11413 1841,-2962 3713,-5907 5282,-9012 1028,-2019 2244,-3613 4207,-3958 859,-16 1863,0 2772,0 769,148 1425,-44 1729,-813 320,-832 -256,-1328 -800,-1777 -4754,-3921 -10150,-6575 -16168,-7699 -6660,-1245 -13303,-899 -19738,1472 -4035,1487 -7652,3714 -11045,6323 -608,465 -640,1074 -513,1729 161,833 763,765 1420,765l2226 0zm8169 0l24780 0c2642,116 3090,852 1761,3093l-7604 12710c-875,1501 -1602,4106 -3749,4106l-5884 0c-1551,0 -2672,-2563 -3905,-4638l-7182 -12087c-481,-800 -1108,-1529 -618,-2315 279,-447 491,-868 2402,-868zm14695 16587c784,-560 1408,-1393 1841,-2272 1521,-3122 2930,-6291 4418,-9429 256,-560 529,-1264 65,-1585 -689,-480 -945,369 -1217,800 -2258,3602 -3714,7603 -5779,11302 -272,496 -129,1008 672,1200l0 -16zm-9294 39227l13206 0c1109,0 2016,907 2016,2016l0 1915c0,1109 -907,2016 -2016,2016l-13206 0c-1109,0 -2016,-907 -2016,-2016l0 -1915c0,-1109 907,-2016 2016,-2016z"/>
 </g>
</svg>
