<?xml version="1.0" encoding="UTF-8"?>
<!DOCTYPE svg PUBLIC "-//W3C//DTD SVG 1.0//EN" "http://www.w3.org/TR/2001/REC-SVG-20010904/DTD/svg10.dtd">
<!-- Creator: CorelDRAW -->
<svg xmlns="http://www.w3.org/2000/svg" xml:space="preserve" width="8.9999mm" height="8.9977mm" version="1.0" style="shape-rendering:geometricPrecision; text-rendering:geometricPrecision; image-rendering:optimizeQuality; fill-rule:evenodd; clip-rule:evenodd"
viewBox="0 0 72924 72906"
 xmlns:xlink="http://www.w3.org/1999/xlink"
 xmlns:xodm="http://www.corel.com/coreldraw/odm/2003">
 <defs>
  <style type="text/css">
   <![CDATA[
    .fil0 {fill:#00A0E3;fill-rule:nonzero}
   ]]>
  </style>
 </defs>
 <g id="Layer_x0020_1">
  <metadata id="CorelCorpID_0Corel-Layer"/>
  <path class="fil0" d="M68704 39261c-469,463 -1050,807 -1682,1002l5845 21426c175,647 -72,1162 -485,1470 -159,118 -344,207 -535,258 -191,52 -395,69 -591,48 -512,-57 -989,-374 -1166,-1021l-6090 -22321 -10931 -2930 -5567 5517 16355 28036c338,580 230,1142 -90,1548 -122,155 -278,288 -449,388 -173,100 -365,170 -558,200 -508,79 -1049,-105 -1388,-686l-15979 -27395 -6890 6827 8380 8305c476,472 519,1043 316,1516 -78,181 -194,348 -334,489 -140,143 -307,259 -486,339 -472,207 -1044,171 -1520,-301l-8399 -8323 -8397 8323c-472,472 -1041,511 -1511,306 -182,-79 -351,-197 -491,-338 -140,-143 -257,-312 -335,-492 -205,-476 -164,-1048 312,-1519l8379 -8305 -6889 -6827 -15979 27395c-341,586 -873,770 -1371,692 -194,-30 -387,-100 -556,-201 -170,-100 -325,-235 -448,-389 -327,-412 -442,-981 -110,-1551l16355 -28037 -5567 -5518 -10930 2931 -6090 22322c-175,647 -651,965 -1164,1021 -195,21 -399,3 -590,-49 -191,-52 -376,-140 -535,-258 -414,-309 -664,-825 -489,-1471l5845 -21426c-632,-194 -1212,-538 -1681,-1002 -480,-473 -847,-1075 -1035,-1775l-674 -2506c-221,-832 -162,-1673 115,-2420 276,-741 771,-1399 1420,-1873l-1377 -5148c-273,-1020 -339,-2066 -205,-3086 133,-1018 469,-2011 997,-2927 528,-916 1221,-1703 2035,-2327 814,-625 1755,-1091 2776,-1365 237,-63 476,-95 713,-126l100 -14 0 -3912c-1008,-225 -1940,-681 -2722,-1315 -785,-636 -1425,-1454 -1854,-2402l-470 0c-1110,0 -2120,-454 -2850,-1182 -731,-731 -1183,-1741 -1183,-2852 0,-1110 454,-2120 1182,-2850 731,-731 1740,-1183 2851,-1183l64846 0c1110,0 2120,452 2851,1182 728,731 1182,1740 1182,2851 0,1111 -452,2121 -1182,2852 -731,728 -1740,1182 -2851,1182l-469 0c-429,947 -1069,1766 -1854,2402 -782,634 -1714,1090 -2722,1315l0 3913 101 14c237,30 476,62 711,125 1023,274 1962,741 2777,1365 814,624 1505,1412 2034,2326 527,916 865,1909 997,2927 134,1019 68,2065 -205,3086l-1377 5148c649,475 1143,1132 1420,1873 278,749 335,1590 114,2419l-671 2505c-189,700 -557,1303 -1037,1776zm-15687 -5061l12526 3358c310,79 625,28 879,-118 216,-124 393,-320 493,-564l-14741 -3950c-15,105 -16,209 -4,310 19,147 68,293 144,426 79,133 179,248 298,340 118,91 256,160 404,199zm13797 -1379l-12526 -3357c-307,-81 -610,-32 -858,112 -218,126 -398,326 -506,570l14735 3948c36,-260 -19,-520 -144,-736 -147,-256 -395,-457 -701,-538zm793 -9989c-85,-649 -300,-1283 -635,-1866 -335,-582 -776,-1084 -1296,-1483 -518,-397 -1118,-694 -1769,-868 -648,-174 -1314,-215 -1962,-130 -648,85 -1282,300 -1868,634 -582,335 -1083,775 -1480,1295 -398,518 -694,1117 -868,1767l-1308 4875 9748 2612 1303 -4874c176,-651 217,-1317 134,-1962zm-2659 -14765l-5097 0 19 18c677,602 1603,904 2529,904 926,0 1851,-302 2529,-904l19 -18zm-61725 -4850c-208,208 -338,498 -338,815l0 44c11,301 139,574 337,772 208,208 498,339 816,339l64846 0c318,0 608,-130 816,-339 208,-208 338,-497 338,-815 0,-318 -130,-608 -338,-816 -208,-208 -498,-338 -816,-338l-64846 0c-318,0 -607,130 -815,338zm26754 33096l12970 0c318,0 608,-130 816,-339 177,-177 297,-411 329,-672l-15260 0c32,261 152,495 329,672 208,208 498,339 816,339zm-816 -4563c-177,177 -297,412 -329,673l15260 0c-32,-262 -152,-497 -329,-673 -208,-208 -498,-339 -816,-339l-12970 0c-318,0 -608,130 -816,339zm2256 -3218l10090 0 0 -5044c0,-1390 -567,-2653 -1480,-3566 -913,-912 -2176,-1480 -3566,-1480 -1391,0 -2653,566 -3565,1479 -912,914 -1480,2176 -1480,3567l0 5044zm7593 -20464l-5097 0 20 18c677,602 1602,904 2528,904 927,0 1852,-302 2529,-904l19 -18zm-25957 18l19 -18 -5097 0 19 18c677,602 1602,904 2529,904 925,0 1851,-302 2529,-904zm-5249 11039c-758,438 -1407,1070 -1851,1842 -336,584 -550,1216 -635,1864 -83,647 -42,1313 134,1963l1303 4875 9748 -2612 -1309 -4874c-288,-1088 -944,-2026 -1806,-2689 -859,-660 -1930,-1052 -3056,-1052 -895,0 -1768,246 -2527,682zm-2395 14235c-126,216 -180,476 -143,737l14740 -3948c-99,-241 -276,-438 -493,-563 -254,-147 -568,-201 -871,-121l-12534 3358c-306,82 -552,283 -698,538zm15343 -434l-14743 3950c98,243 275,439 491,563 255,148 571,199 881,120l12524 -3358c149,-39 287,-108 405,-198 119,-92 221,-207 300,-340 77,-134 126,-279 144,-425 13,-103 13,-207 -2,-312zm1787 2839l-21 21 4399 4359 925 -1585c-559,-352 -1029,-835 -1360,-1404 -341,-587 -538,-1268 -538,-1996l0 -2594c0,-860 275,-1657 737,-2309 459,-645 1106,-1152 1856,-1441l0 -5328c0,-1941 704,-3717 1868,-5090 1161,-1369 2780,-2340 4617,-2680l0 -3934c-1008,-225 -1940,-681 -2723,-1315 -784,-634 -1425,-1453 -1853,-2402l-13908 0c-428,949 -1069,1767 -1853,2402 -783,634 -1715,1091 -2723,1316l0 3980c382,80 760,185 1130,315 408,143 808,325 1192,548 916,528 1703,1221 2328,2035 625,814 1089,1754 1363,2777l1378 5140c803,84 1554,412 2159,914 628,519 1102,1229 1319,2044l671 2504c139,519 173,1051 105,1570 -66,517 -237,1023 -506,1489 -151,261 -357,463 -562,664zm6487 6472l7435 7368 7435 -7368 -1775 -3043 -11320 0 -1775 3043zm17415 -5081c-332,570 -801,1053 -1360,1404l925 1586 4398 -4359 -24 -24c-203,-199 -408,-400 -558,-661 -269,-466 -440,-974 -506,-1490 -68,-519 -32,-1053 107,-1571l668 -2503c177,-664 528,-1271 997,-1757 467,-484 1055,-852 1711,-1047l428 -78c168,-28 291,105 316,19l1403 -5236c273,-1021 739,-1961 1363,-2775 625,-814 1412,-1506 2328,-2035 386,-223 787,-404 1193,-547 370,-130 749,-235 1130,-315l0 -3982c-1008,-225 -1940,-681 -2722,-1315 -785,-636 -1425,-1454 -1854,-2402l-13908 0c-428,949 -1069,1767 -1853,2402 -783,634 -1715,1091 -2723,1316l0 3933c1837,340 3456,1311 4617,2680 1164,1373 1868,3149 1868,5090l0 5328c750,289 1398,796 1856,1441 463,652 737,1450 737,2309l0 2594c0,728 -197,1408 -538,1996z"/>
 </g>
</svg>
