<?xml version="1.0" encoding="UTF-8"?>
<!DOCTYPE svg PUBLIC "-//W3C//DTD SVG 1.0//EN" "http://www.w3.org/TR/2001/REC-SVG-20010904/DTD/svg10.dtd">
<!-- Creator: CorelDRAW -->
<svg xmlns="http://www.w3.org/2000/svg" xml:space="preserve" width="6.8647mm" height="9.0353mm" version="1.0" style="shape-rendering:geometricPrecision; text-rendering:geometricPrecision; image-rendering:optimizeQuality; fill-rule:evenodd; clip-rule:evenodd"
viewBox="0 0 30758 40484"
 xmlns:xlink="http://www.w3.org/1999/xlink"
 xmlns:xodm="http://www.corel.com/coreldraw/odm/2003">
 <defs>
  <style type="text/css">
   <![CDATA[
    .fil0 {fill:#00A0E3;fill-rule:nonzero}
   ]]>
  </style>
 </defs>
 <g id="Layer_x0020_1">
  <metadata id="CorelCorpID_0Corel-Layer"/>
  <path class="fil0" d="M27394 18476c71,-55 152,-96 242,-119 84,-21 177,-26 278,-13l13 1c116,17 214,51 297,100 85,51 156,119 210,202l9 13c47,78 79,162 96,253 17,92 21,191 12,296 -423,3809 -1137,7835 -1835,11776 -282,1592 -563,3173 -818,4708 -19,102 -49,198 -91,281 -41,82 -94,155 -158,214 -76,69 -167,122 -270,149 -96,26 -205,31 -324,11l-18 -4c-116,-21 -213,-60 -293,-112 -86,-56 -155,-130 -205,-216 -47,-82 -77,-173 -91,-271 -13,-101 -10,-210 8,-319 294,-1822 570,-3657 846,-5498 553,-3687 1113,-7407 1812,-10979 24,-101 59,-194 106,-274 46,-78 104,-147 175,-202zm-22224 17735c-73,-60 -133,-135 -177,-220 -46,-88 -78,-186 -96,-290l-1329 -8212 -1318 -8212c-14,-91 -20,-182 -15,-269 6,-88 24,-175 57,-255l9 -22c44,-96 109,-180 196,-245 86,-65 196,-111 329,-134l14 -1c127,-20 242,-13 341,16 109,30 202,88 279,165 64,63 115,140 154,225 41,89 70,190 87,293l0 5c416,3952 1217,8421 1969,12623 242,1348 479,2670 685,3870l4 65c-4,95 -21,186 -49,269 -27,82 -69,157 -122,223 -53,65 -120,121 -197,163 -74,40 -160,69 -253,82l-9 1c-112,15 -213,10 -303,-12 -97,-24 -183,-69 -257,-129zm19108 -3095l-321 2506c-13,106 -37,209 -74,301 -35,87 -82,167 -143,232 -74,80 -165,142 -272,176 -105,34 -227,43 -366,20 -115,-19 -213,-56 -294,-108 -87,-56 -156,-129 -207,-214 -48,-81 -79,-172 -94,-267 -15,-101 -14,-209 0,-319l1716 -13225c141,-1051 284,-2107 393,-3159 14,-98 38,-190 72,-274 35,-87 83,-167 145,-233 70,-76 155,-135 255,-172 99,-35 213,-49 343,-35l8 1c129,15 236,53 323,108 95,59 168,140 220,235 44,81 72,170 84,264 12,92 11,188 0,285l-1785 13878zm-17634 1072l-743 -5809c-383,-3016 -767,-6033 -1170,-9059 -16,-120 -33,-244 -15,-371 19,-132 77,-266 207,-394 50,-49 103,-89 157,-119 56,-31 116,-55 176,-69 56,-12 113,-18 169,-17 54,0 110,6 168,18l12 2c92,21 171,54 238,98 71,47 131,106 178,173 41,58 73,122 95,188 22,63 37,133 46,203 194,1455 468,3158 754,4939 657,4085 1381,8588 1381,11683l0 7c-7,81 -23,162 -49,238 -25,70 -59,138 -102,196l-5 8c-59,77 -130,139 -216,184 -79,41 -173,67 -280,74 -114,8 -218,-3 -310,-32 -97,-30 -182,-80 -254,-146 -69,-64 -125,-143 -166,-233 -42,-91 -69,-195 -83,-306l-187 -1457zm7028 -29127c2,116 -20,229 -78,334 -58,104 -152,199 -291,284l-54 30c-99,50 -198,75 -294,76 -97,1 -194,-22 -288,-69 -75,-38 -148,-93 -216,-162 -66,-67 -129,-149 -186,-243l-80 -144c-129,-258 -224,-519 -285,-779 -64,-271 -95,-544 -94,-813 1,-331 50,-659 141,-972 93,-319 229,-625 404,-906 174,-281 388,-539 634,-764 240,-220 513,-410 811,-560 245,-123 507,-219 781,-283 264,-61 544,-94 832,-93 288,1 568,36 833,99 276,66 538,165 780,289 294,151 565,344 803,566 243,228 453,487 625,768 173,282 307,590 397,908 88,312 134,640 134,971 -1,271 -34,546 -100,818 -64,263 -161,523 -291,776 -42,82 -89,165 -143,244 -54,79 -119,152 -196,210 -94,71 -201,119 -321,131 -119,12 -250,-12 -394,-81l-13 -6c-151,-75 -253,-167 -316,-269 -65,-104 -90,-220 -88,-341 1,-96 22,-190 53,-280 29,-86 69,-172 108,-256 97,-205 167,-409 207,-609 39,-197 50,-393 32,-581 -18,-183 -65,-366 -140,-544 -75,-177 -178,-353 -310,-522l-9 -11c-134,-171 -280,-317 -437,-434 -157,-118 -324,-210 -497,-272 -174,-63 -362,-99 -558,-108 -197,-9 -404,10 -618,56 -215,46 -410,115 -585,205 -176,91 -332,203 -464,332 -134,134 -250,290 -345,466 -95,177 -171,378 -225,596 -29,119 -48,240 -56,359 -8,120 -4,239 10,356 14,117 40,234 76,348 36,114 84,229 142,341 42,81 83,164 114,250 32,89 55,181 58,276l0 8zm-1571 20149c-91,0 -182,-20 -269,-57 -84,-36 -166,-91 -242,-162l-382 -374 -375 -380c-55,-58 -99,-120 -130,-185 -32,-65 -54,-136 -63,-209 -9,-73 -7,-146 6,-218 13,-72 37,-143 72,-212 34,-66 74,-125 120,-174 47,-51 102,-94 160,-126 55,-30 115,-54 178,-68 62,-14 129,-20 196,-18l6 0c45,0 92,5 138,15 47,9 92,24 134,42 43,18 83,41 120,66 39,26 75,57 108,89l714 717c73,76 131,157 170,241 39,86 62,175 65,265 2,91 -14,182 -50,269 -34,82 -88,164 -160,241l-4 4c-74,78 -154,136 -238,176 -88,41 -180,61 -273,60zm7214 -2183c72,-9 143,-7 212,4 71,12 144,35 213,67 61,29 117,65 164,105 49,42 91,90 125,142 32,49 59,104 77,162 18,56 31,116 35,178l-2 149c-5,44 -16,90 -30,131l-3 11c-17,47 -38,91 -63,131 -26,41 -56,80 -90,115l-111 115c-216,223 -433,448 -658,656l-18 17c-78,70 -162,122 -249,156 -88,34 -181,49 -272,43 -86,-5 -172,-27 -252,-67 -78,-38 -153,-93 -222,-164l-25 -26c-69,-77 -118,-155 -150,-235 -33,-84 -47,-173 -45,-259 3,-88 24,-174 61,-255 37,-82 90,-159 157,-229l373 -382 379 -371c56,-55 118,-98 182,-129 67,-33 138,-54 210,-64zm-10176 4270c56,-69 129,-127 212,-168 80,-39 173,-65 272,-72l302 -15 289 -5 582 19c102,6 194,31 276,70 84,40 158,98 217,170 56,67 99,147 125,235 26,86 37,180 32,278l0 8c-6,92 -26,178 -58,255 -34,79 -81,150 -139,208 -58,58 -128,106 -207,140 -77,34 -163,56 -254,64l-210 9 -712 0 -217 -9c-94,-8 -180,-29 -258,-63 -79,-34 -150,-82 -207,-140 -58,-58 -106,-129 -140,-208 -32,-78 -53,-164 -59,-256 -6,-100 4,-197 30,-283 26,-88 69,-170 125,-238zm5770 -3652c-60,-56 -111,-123 -147,-199 -35,-74 -58,-159 -68,-249l-12 -233 -1 -749 7 -203c8,-99 32,-190 69,-269 38,-82 91,-155 155,-214 65,-60 142,-106 228,-136 84,-30 177,-44 273,-43 93,1 182,18 262,48 81,30 156,76 218,134 64,59 116,132 153,215 35,78 56,168 59,263l11 588c1,194 -4,394 -16,597 -5,95 -28,181 -63,257 -37,80 -91,149 -155,205l-8 7c-66,55 -143,96 -225,122 -82,26 -173,38 -265,36 -95,-2 -182,-19 -261,-48 -81,-30 -153,-74 -215,-130zm5509 4849l-220 3 -225 -12c-94,-10 -181,-35 -256,-71 -78,-39 -147,-91 -202,-155 -55,-63 -98,-138 -126,-219 -28,-81 -43,-169 -43,-263 0,-90 13,-177 38,-255 26,-79 65,-153 116,-216l13 -17c60,-68 132,-121 213,-159 78,-35 168,-57 265,-61 405,-14 788,-12 1193,4 92,4 177,26 251,59 78,36 147,87 203,150 54,60 96,131 125,207 29,77 47,160 51,244l0 6c4,93 -7,182 -31,263 -24,82 -62,156 -113,221l-4 5c-55,70 -122,126 -200,168 -74,39 -160,68 -255,80 -79,10 -157,14 -232,15l-562 -1zm8582 -12069c78,-69 144,-152 194,-248 49,-94 84,-200 101,-315 40,-271 28,-575 17,-871l-2 -43 -3858 -17c-6278,-30 -12590,-60 -18850,16l-311 -7c-98,-9 -189,-33 -268,-67 -82,-36 -154,-86 -215,-148 -62,-63 -112,-138 -145,-222 -32,-82 -51,-173 -52,-271 -2,-95 12,-185 39,-264 30,-85 74,-160 130,-223l11 -13c56,-60 125,-110 201,-147 75,-37 160,-64 250,-78l217 -17 187 0c4860,24 9724,15 14586,7l6997 -9 -2817 -2535c-255,-229 -522,-429 -801,-601 -278,-172 -568,-316 -867,-431 -300,-115 -612,-202 -931,-259 -317,-57 -648,-86 -991,-86l-12846 -1c-342,0 -673,30 -991,86 -321,57 -632,145 -932,259 -299,114 -589,258 -866,428 -277,171 -546,372 -803,600 -787,699 -1422,1274 -2058,1848l-765 692c358,1 713,1 1071,9 104,4 202,24 291,59 89,35 168,85 233,150 65,65 116,144 150,236 31,86 47,184 45,290 -2,104 -22,199 -55,281 -35,87 -86,162 -150,224l-4 4c-67,63 -144,110 -230,143 -86,33 -183,52 -285,57l-2202 3 0 458c0,211 27,402 84,565 53,153 134,286 244,390 106,102 244,181 416,236 168,52 369,81 606,81l8422 10c5731,11 11467,23 17190,-26 120,-5 234,-29 336,-68 103,-40 198,-96 276,-166zm-13582 -9278l-566 7 -561 19c-175,8 -352,53 -518,124 -175,75 -341,181 -482,307 -101,90 -189,189 -259,290 -46,67 -85,135 -115,204l4936 2c-36,-80 -81,-158 -131,-232 -73,-106 -161,-206 -259,-294 -133,-118 -285,-217 -449,-285 -156,-66 -324,-107 -496,-115l-559 -20 -541 -6zm15242 6678c36,77 62,160 78,245 16,86 22,178 17,274 -11,260 -9,520 -8,778l0 612c-5,322 -69,626 -179,901 -114,285 -280,540 -486,755 -207,215 -456,392 -735,517 -271,122 -572,198 -893,217 -5726,122 -11544,83 -17335,43 -2813,-19 -5622,-38 -8509,-38 -190,0 -377,-15 -556,-45 -175,-30 -347,-75 -511,-137l-10 -4c-166,-62 -323,-142 -467,-237 -140,-92 -273,-201 -395,-326 -80,-82 -151,-173 -213,-267 -69,-104 -129,-216 -178,-324 -56,-123 -101,-248 -137,-362 -47,-152 -77,-288 -94,-385l-34 -252 -17 -256c-2,-267 7,-518 21,-785 13,-235 27,-475 27,-707 2,-53 9,-103 21,-147 12,-46 29,-89 50,-128l63 -94 73 -78c369,-369 807,-750 1234,-1121l585 -513 1048 -941 1054 -966c356,-332 730,-622 1119,-869 390,-247 797,-452 1218,-613 422,-161 861,-281 1314,-358 453,-76 924,-111 1411,-103 513,7 1028,5 1545,4l606 -2c123,-381 276,-716 459,-1005 193,-304 423,-558 687,-763 285,-220 612,-382 979,-488 367,-106 776,-158 1228,-158l1559 2c371,4 722,63 1044,169 330,108 634,269 902,474 268,205 503,456 695,745 189,285 338,607 439,962l19 64 512 4c471,4 946,8 1419,-9 532,-18 1045,13 1537,92 492,79 967,209 1423,386 457,177 895,404 1313,676 418,272 820,593 1204,959 457,435 915,856 1372,1269l2171 1933c68,60 129,123 181,190 52,67 97,138 131,212zm-15266 25195l10310 -1c74,0 142,-6 198,-15 53,-9 97,-22 129,-38 55,-34 53,-31 59,-96 0,-39 -8,-84 -23,-135 -16,-55 -42,-116 -74,-183 -50,-102 -111,-185 -177,-252 -66,-66 -141,-116 -220,-153 -88,-40 -188,-68 -294,-85 -108,-17 -227,-24 -353,-24 -2081,0 -4215,-30 -6365,-60 -4391,-61 -8852,-124 -13067,73 -77,5 -150,20 -216,41 -66,21 -128,50 -182,85 -56,36 -109,81 -157,134 -48,54 -94,117 -134,187 -44,78 -78,149 -100,212 -20,58 -30,110 -30,155l9 53 41 35c36,21 85,36 145,47 61,11 138,17 228,17l10273 2zm-927 -9430c44,73 98,144 156,207l96 92c29,-113 76,-218 155,-300 111,-113 281,-181 548,-169 305,14 474,115 569,259 72,108 98,238 109,375l52 -31c65,-42 121,-91 166,-143 47,-53 83,-111 108,-170 24,-58 39,-121 44,-187 4,-65 -1,-135 -17,-205 -12,-52 -30,-105 -54,-159 -24,-53 -54,-108 -89,-161l-11 -16c-350,-535 -700,-1071 -865,-1724 -37,-153 -68,-313 -95,-468 -196,322 -387,642 -557,969 -192,370 -354,746 -459,1137 -26,98 -26,212 -3,328 24,121 74,247 146,366zm-85 6989l531 0c3367,1 6737,3 10104,-3 168,0 334,10 494,34 160,23 317,61 468,113 153,53 299,121 438,207 139,86 273,190 399,311l12 11c91,89 171,180 242,271 73,92 138,189 195,286l8 14c106,186 181,379 224,571 43,195 52,391 29,581 -24,192 -82,379 -171,556 -89,175 -209,341 -360,493 -75,76 -160,150 -249,218 -87,66 -183,130 -286,190l-79 36 -88 13 -21801 0 -78 -11 -72 -28c-230,-127 -422,-258 -576,-397 -157,-141 -279,-292 -364,-456 -89,-169 -140,-349 -155,-543 -15,-190 5,-397 55,-621l2 -10c61,-263 163,-509 297,-730 136,-224 307,-422 503,-584 195,-162 419,-291 661,-380 235,-85 489,-133 753,-135l2127 -9 4164 0c-27,-586 -18,-1203 -9,-1809l9 -831c1,-359 64,-692 178,-988 118,-306 292,-574 512,-794 220,-221 488,-396 793,-515 296,-116 630,-180 989,-183l259 4c-339,-134 -634,-323 -876,-552 -254,-240 -452,-527 -587,-840 -133,-307 -205,-645 -209,-992 -4,-336 56,-683 184,-1023l10 -26c95,-246 200,-482 311,-710 111,-229 231,-455 355,-677 116,-207 243,-421 375,-638l406 -654c72,-115 156,-212 250,-291 95,-81 203,-145 316,-190l13 -5c121,-45 246,-69 374,-72 126,-3 257,15 385,53 128,38 246,92 349,158 104,67 196,150 269,242 75,94 134,200 174,317 39,113 61,239 63,372 4,199 25,394 61,582 36,188 89,372 154,549 66,180 147,358 239,530 93,174 199,345 314,511 89,129 165,263 229,397 64,137 115,277 151,416 57,220 81,441 72,654 -9,217 -52,429 -126,628 -74,200 -181,390 -316,560 -133,167 -294,319 -480,447 -116,81 -245,154 -383,216l-52 23 51 0c320,8 624,76 899,192 285,120 542,293 755,505 214,212 388,467 509,749 116,273 184,574 192,891 9,371 8,748 6,1122l-1 636c0,104 -12,206 -36,298 -24,88 -61,170 -113,242 -63,86 -145,155 -246,203 -93,43 -203,68 -328,69 -131,1 -244,-23 -338,-68 -104,-49 -186,-123 -248,-212 -52,-76 -88,-162 -110,-252 -22,-87 -32,-183 -33,-279l-4 -1594c-2,-170 -26,-322 -71,-452 -44,-128 -110,-236 -192,-320 -82,-84 -188,-150 -311,-194 -125,-45 -273,-70 -439,-72l-1125 -7 -1124 9c-152,2 -292,28 -412,73 -120,45 -224,111 -307,194 -82,83 -148,187 -191,308 -44,121 -69,261 -69,414l-2 2681c367,-11 740,-4 1107,-5z"/>
 </g>
</svg>
