<?xml version="1.0" encoding="UTF-8"?>
<!DOCTYPE svg PUBLIC "-//W3C//DTD SVG 1.0//EN" "http://www.w3.org/TR/2001/REC-SVG-20010904/DTD/svg10.dtd">
<!-- Creator: CorelDRAW -->
<svg xmlns="http://www.w3.org/2000/svg" xml:space="preserve" width="9mm" height="6.0118mm" version="1.0" style="shape-rendering:geometricPrecision; text-rendering:geometricPrecision; image-rendering:optimizeQuality; fill-rule:evenodd; clip-rule:evenodd"
viewBox="0 0 42392 28317"
 xmlns:xlink="http://www.w3.org/1999/xlink"
 xmlns:xodm="http://www.corel.com/coreldraw/odm/2003">
 <defs>
  <style type="text/css">
   <![CDATA[
    .fil0 {fill:#00A0E3}
   ]]>
  </style>
 </defs>
 <g id="Layer_x0020_1">
  <metadata id="CorelCorpID_0Corel-Layer"/>
  <path class="fil0" d="M0 6469l42392 0 0 5218 -42392 0 0 -5218zm3723 1014l3032 0c416,0 756,340 756,756l0 1678c0,416 -341,756 -756,756l-3032 0c-416,0 -756,-340 -756,-756l0 -1678c0,-416 340,-756 756,-756zm188 1020l2657 0 0 1150 -2657 0 0 -1150zm7791 -1020l3032 0c416,0 756,340 756,756l0 1678c0,416 -340,756 -756,756l-3032 0c-416,0 -756,-340 -756,-756l0 -1678c0,-416 340,-756 756,-756zm187 1020l2657 0 0 1150 -2657 0 0 -1150zm7791 -1020l3032 0c416,0 756,340 756,756l0 1678c0,416 -340,756 -756,756l-3032 0c-416,0 -756,-340 -756,-756l0 -1678c0,-416 340,-756 756,-756zm188 1020l2657 0 0 1150 -2657 0 0 -1150zm7791 -1020l3032 0c416,0 756,340 756,756l0 1678c0,416 -340,756 -756,756l-3032 0c-416,0 -756,-340 -756,-756l0 -1678c0,-416 340,-756 756,-756zm187 1020l2657 0 0 1150 -2657 0 0 -1150zm7791 -1020l3032 0c416,0 756,340 756,756l0 1678c0,416 -340,756 -756,756l-3032 0c-416,0 -756,-340 -756,-756l0 -1678c0,-416 340,-756 756,-756zm188 1020l2657 0 0 1150 -2657 0 0 -1150zm-35825 13345l42392 0 0 -5218 -42392 0 0 5218zm3723 -1014l3032 0c416,0 756,-340 756,-756l0 -1678c0,-416 -341,-756 -756,-756l-3032 0c-416,0 -756,340 -756,756l0 1678c0,416 340,756 756,756zm188 -1020l2657 0 0 -1150 -2657 0 0 1150zm7791 1020l3032 0c416,0 756,-340 756,-756l0 -1678c0,-416 -340,-756 -756,-756l-3032 0c-416,0 -756,340 -756,756l0 1678c0,416 340,756 756,756zm187 -1020l2657 0 0 -1150 -2657 0 0 1150zm7791 1020l3032 0c416,0 756,-340 756,-756l0 -1678c0,-416 -340,-756 -756,-756l-3032 0c-416,0 -756,340 -756,756l0 1678c0,416 340,756 756,756zm188 -1020l2657 0 0 -1150 -2657 0 0 1150zm7791 1020l3032 0c416,0 756,-340 756,-756l0 -1678c0,-416 -340,-756 -756,-756l-3032 0c-416,0 -756,340 -756,756l0 1678c0,416 340,756 756,756zm187 -1020l2657 0 0 -1150 -2657 0 0 1150zm7791 1020l3032 0c416,0 756,-340 756,-756l0 -1678c0,-416 -340,-756 -756,-756l-3032 0c-416,0 -756,340 -756,756l0 1678c0,416 340,756 756,756zm188 -1020l2657 0 0 -1150 -2657 0 0 1150zm-10068 4984c-138,-408 -581,-627 -989,-489 -408,138 -627,582 -489,990l466 1367c138,408 581,627 990,488 408,-138 627,-581 488,-990l-466 -1366zm-3779 1293c0,-431 -350,-782 -782,-782 -431,0 -782,350 -782,782l0 1444c0,432 350,782 782,782 432,0 782,-350 782,-782l0 -1444zm-3865 -792c138,-408 -81,-851 -488,-990 -408,-138 -852,81 -990,489l-467 1366c-138,408 81,851 489,990 408,138 851,-81 990,-489l466 -1366zm7644 -21780c-138,408 -581,627 -989,489 -408,-138 -627,-582 -489,-990l466 -1367c138,-408 581,-627 990,-488 408,138 627,581 488,990l-466 1366zm-3779 -1293c0,431 -350,782 -782,782 -431,0 -782,-350 -782,-782l0 -1444c0,-432 350,-782 782,-782 432,0 782,350 782,782l0 1444zm-3865 792c138,408 -81,851 -488,990 -408,138 -852,-81 -990,-489l-467 -1366c-138,-408 81,-851 489,-990 408,-138 851,81 990,489l466 1366z"/>
 </g>
</svg>
