<?xml version="1.0" encoding="UTF-8"?>
<!DOCTYPE svg PUBLIC "-//W3C//DTD SVG 1.0//EN" "http://www.w3.org/TR/2001/REC-SVG-20010904/DTD/svg10.dtd">
<!-- Creator: CorelDRAW -->
<svg xmlns="http://www.w3.org/2000/svg" xml:space="preserve" width="8mm" height="7.9879mm" version="1.0" style="shape-rendering:geometricPrecision; text-rendering:geometricPrecision; image-rendering:optimizeQuality; fill-rule:evenodd; clip-rule:evenodd"
viewBox="0 0 27578 27536"
 xmlns:xlink="http://www.w3.org/1999/xlink"
 xmlns:xodm="http://www.corel.com/coreldraw/odm/2003">
 <defs>
  <style type="text/css">
   <![CDATA[
    .fil0 {fill:#00A0E3}
   ]]>
  </style>
 </defs>
 <g id="Layer_x0020_1">
  <metadata id="CorelCorpID_0Corel-Layer"/>
  <path class="fil0" d="M3246 0l1639 0 0 2449c1853,379 3247,2019 3247,3983l0 1639 -8132 0 0 -1639c0,-1964 1394,-3604 3246,-3983l0 -2449zm0 19465l1639 0 0 2448c1853,379 3247,2019 3247,3983l0 1639 -8132 0 0 -1639c0,-1964 1394,-3604 3246,-3983l0 -2448zm3247 6431c0,-1340 -1087,-2426 -2427,-2426 -1340,0 -2427,1086 -2427,2426l4854 0zm6476 -6431l1639 0 0 2448c1852,379 3246,2019 3246,3983l0 1639 -8132 0 0 -1639c0,-1964 1394,-3604 3246,-3983l0 -2448zm3247 6431c0,-1340 -1087,-2426 -2427,-2426 -1340,0 -2427,1086 -2427,2426l4854 0zm6477 -6431l1639 0 0 2448c1853,379 3246,2019 3246,3983l0 1639 -8132 0 0 -1639c0,-1964 1394,-3604 3246,-3983l0 -2448zm3246 6431c0,-1340 -1087,-2426 -2427,-2426 -1340,0 -2426,1086 -2426,2426l4853 0zm-22692 -16164l1639 0 0 2449c1853,379 3247,2019 3247,3983l0 1639 -8132 0 0 -1639c0,-1964 1394,-3604 3246,-3983l0 -2449zm3247 6432c0,-1340 -1087,-2427 -2427,-2427 -1340,0 -2427,1087 -2427,2427l4854 0zm6476 -6432l1639 0 0 2449c1852,379 3246,2019 3246,3983l0 1639 -8132 0 0 -1639c0,-1964 1394,-3604 3246,-3983l0 -2449zm3247 6432c0,-1340 -1087,-2427 -2427,-2427 -1340,0 -2427,1087 -2427,2427l4854 0zm-3247 -16164l1639 0 0 2449c1852,379 3246,2019 3246,3983l0 1639 -8132 0 0 -1639c0,-1964 1394,-3604 3246,-3983l0 -2449zm9723 0l1639 0 0 2449c1853,379 3246,2019 3246,3983l0 1639 -8132 0 0 -1639c0,-1964 1394,-3604 3246,-3983l0 -2449zm0 9733l1639 0 0 2449c1853,379 3246,2019 3246,3983l0 1639 -8132 0 0 -1639c0,-1964 1394,-3604 3246,-3983l0 -2449zm3246 6432c0,-1340 -1087,-2427 -2427,-2427 -1340,0 -2426,1087 -2426,2427l4853 0zm0 -9733c0,-1340 -1087,-2427 -2427,-2427 -1340,0 -2426,1087 -2426,2427l4853 0zm-9723 0c0,-1340 -1087,-2427 -2427,-2427 -1340,0 -2427,1087 -2427,2427l4854 0zm-9723 0c0,-1340 -1087,-2427 -2427,-2427 -1340,0 -2427,1087 -2427,2427l4854 0z"/>
 </g>
</svg>
