<?xml version="1.0" encoding="UTF-8"?>
<!DOCTYPE svg PUBLIC "-//W3C//DTD SVG 1.0//EN" "http://www.w3.org/TR/2001/REC-SVG-20010904/DTD/svg10.dtd">
<!-- Creator: CorelDRAW -->
<svg xmlns="http://www.w3.org/2000/svg" xml:space="preserve" width="8.1693mm" height="9mm" version="1.0" style="shape-rendering:geometricPrecision; text-rendering:geometricPrecision; image-rendering:optimizeQuality; fill-rule:evenodd; clip-rule:evenodd"
viewBox="0 0 24545 27040"
 xmlns:xlink="http://www.w3.org/1999/xlink"
 xmlns:xodm="http://www.corel.com/coreldraw/odm/2003">
 <defs>
  <style type="text/css">
   <![CDATA[
    .fil0 {fill:#00A0E3;fill-rule:nonzero}
   ]]>
  </style>
 </defs>
 <g id="Layer_x0020_1">
  <metadata id="CorelCorpID_0Corel-Layer"/>
  <path class="fil0" d="M21491 1l2422 -1c174,0 332,71 446,185 114,114 185,272 185,446l0 8005c0,175 -71,333 -185,447 -114,114 -272,185 -446,185l-2423 0c-476,-1 -907,-194 -1218,-505 -311,-312 -504,-743 -505,-1218l-1 -1181 -6723 0c-495,0 -951,191 -1294,503 -302,276 -517,647 -596,1070l1936 0c174,0 332,71 446,185 114,114 185,273 185,447l0 1293 330 0c117,0 231,33 327,91 96,58 178,142 232,247l4076 7723c51,97 76,205 73,312 -3,108 -33,215 -90,309 -57,94 -138,171 -231,224 -93,52 -200,82 -310,82l-4992 0 -16 145c-14,103 -31,202 -51,296 -189,868 -669,1613 -1323,2140 -654,526 -1484,835 -2373,835 -888,-1 -1718,-312 -2370,-839 -653,-528 -1132,-1274 -1319,-2142 -20,-92 -36,-190 -49,-290l-15 -145 -4991 0c-110,0 -217,-29 -310,-81 -93,-53 -173,-129 -230,-224 -57,-94 -87,-201 -90,-308 -3,-107 21,-215 73,-312l4075 -7724c54,-102 136,-187 232,-245 97,-59 209,-92 326,-92l331 0 0 -1293c0,-174 71,-333 185,-447 115,-114 273,-185 447,-185l1711 0c128,-1438 785,-2715 1771,-3642 1019,-959 2391,-1543 3892,-1546l6724 -1 0 -1025c1,-476 194,-907 505,-1218 312,-311 743,-504 1217,-504zm-12560 23510c114,-114 272,-185 446,-185 174,0 332,71 446,185 114,114 186,273 186,447l0 2451c0,158 -60,305 -158,417 -98,112 -237,190 -395,210l-80 6c-174,0 -332,-71 -446,-185 -114,-114 -185,-273 -185,-446 65,-681 2,-1730 2,-2451 0,-174 71,-333 185,-447zm3820 -1166c106,26 205,79 287,157l1904 1792c82,77 142,174 174,278 32,105 37,219 12,328 -26,110 -81,210 -156,290 -75,79 -171,140 -280,172 -108,32 -221,34 -328,8 -106,-26 -206,-80 -288,-157l-1904 -1792c-82,-77 -142,-173 -174,-277 -32,-105 -37,-219 -12,-328 26,-110 81,-210 156,-290 75,-80 171,-141 280,-172 109,-32 223,-33 329,-7zm1942 -3055l2917 0c174,0 333,71 447,185 114,115 185,273 185,447 0,174 -71,332 -185,446 -114,115 -273,186 -447,186l-2917 0c-174,0 -333,-71 -446,-185 -114,-115 -185,-273 -185,-447 0,-174 71,-332 185,-446 114,-115 273,-186 446,-186zm-10878 5004l1904 -1793c81,-78 181,-131 287,-157 106,-26 221,-24 329,8 108,32 205,93 280,172 75,81 130,180 156,290 25,109 20,223 -12,328 -32,104 -92,201 -174,278l-1904 1793c-81,78 -181,131 -288,157 -106,26 -220,24 -328,-8 -109,-32 -206,-93 -280,-172 -75,-80 -130,-180 -155,-290 -25,-110 -20,-223 12,-328 32,-104 91,-201 174,-278zm699 -4819c114,115 185,273 185,447 0,174 -71,332 -185,446 -114,115 -273,186 -446,186l-2917 0c-174,0 -333,-71 -447,-185 -114,-115 -185,-273 -185,-447 0,-174 71,-333 185,-447 114,-114 273,-185 447,-185l2917 0c174,0 333,71 446,185zm6445 970c435,-352 754,-849 879,-1429l32 -170 -4981 0 30 162c124,582 442,1081 877,1433 435,352 988,561 1581,561 593,0 1147,-206 1582,-558zm1565 -2863l4558 0 -3409 -6459 -8586 0 -3410 6459 10847 0zm-6222 -7723l6157 0 0 -661 -6157 0 0 661zm4567 -3890c570,-535 1336,-863 2173,-870l6725 -1 0 -1088 -6723 0c-1156,1 -2216,448 -3007,1182 -753,698 -1264,1658 -1388,2742l1226 0c92,-775 457,-1462 995,-1966zm10621 2036l1790 -1 0 -6741 -1790 0c-126,-1 -241,52 -325,135 -84,84 -136,199 -136,325l1 5820c0,126 52,242 136,325 83,83 199,136 325,136z"/>
 </g>
</svg>
