<?xml version="1.0" encoding="UTF-8"?>
<!DOCTYPE svg PUBLIC "-//W3C//DTD SVG 1.0//EN" "http://www.w3.org/TR/2001/REC-SVG-20010904/DTD/svg10.dtd">
<!-- Creator: CorelDRAW -->
<svg xmlns="http://www.w3.org/2000/svg" xml:space="preserve" width="8.5705mm" height="8.5711mm" version="1.0" style="shape-rendering:geometricPrecision; text-rendering:geometricPrecision; image-rendering:optimizeQuality; fill-rule:evenodd; clip-rule:evenodd"
viewBox="0 0 23580 23582"
 xmlns:xlink="http://www.w3.org/1999/xlink"
 xmlns:xodm="http://www.corel.com/coreldraw/odm/2003">
 <defs>
  <style type="text/css">
   <![CDATA[
    .fil0 {fill:#00A0E3;fill-rule:nonzero}
   ]]>
  </style>
 </defs>
 <g id="Layer_x0020_1">
  <metadata id="CorelCorpID_0Corel-Layer"/>
  <path class="fil0" d="M487 0l22704 0 0 10c95,20 181,67 247,133 88,87 143,209 143,344l0 1559c0,135 -55,257 -143,344 -88,88 -210,143 -344,143l-4190 0 0 11499 293 0c134,0 256,55 344,143 88,89 143,210 143,344l0 1072 292 0c134,0 256,55 344,143 88,87 143,210 143,344l0 1072 292 0c111,0 216,38 299,103 83,65 146,157 173,266l363 1451 1878 2253c60,72 97,159 109,249 12,90 -2,183 -42,269 -39,85 -103,155 -180,204 -77,49 -168,76 -261,76l-2689 0c-108,443 -358,825 -693,1099 -355,291 -809,462 -1295,462 -486,0 -939,-171 -1295,-462 -335,-274 -585,-656 -693,-1099l-2690 0c-94,0 -185,-27 -261,-76 -76,-49 -140,-119 -180,-204 -40,-85 -53,-179 -42,-268 12,-90 49,-177 109,-250l1878 -2253 363 -1451c27,-108 90,-201 173,-266 83,-65 188,-103 299,-103l292 0 0 -1072c0,-134 55,-257 143,-344 89,-88 210,-143 344,-143l293 0 0 -1072c0,-134 55,-256 143,-344 87,-88 210,-143 344,-143l293 0 0 -11499 -5652 0 0 1365 293 0c134,0 256,55 344,143 88,87 143,210 143,344l0 1072 292 0c134,0 257,55 344,143 87,89 143,210 143,344l0 1072 293 0c112,0 217,39 301,104 84,65 146,158 173,267l357 1427 2242 2242c69,70 115,158 133,250 18,92 10,190 -28,281 -37,90 -101,166 -179,218 -78,53 -173,83 -270,83l-3079 0c-108,443 -357,824 -693,1099 -355,291 -809,462 -1295,462 -486,0 -939,-171 -1295,-462 -336,-274 -585,-656 -693,-1099l-3079 0c-98,-1 -192,-31 -270,-84 -77,-52 -140,-128 -177,-219 -37,-91 -45,-188 -27,-280 18,-92 64,-180 133,-248l2242 -2243 356 -1428c27,-108 90,-201 173,-266 83,-65 188,-103 299,-103l293 0 0 -1072c0,-134 55,-256 143,-344 87,-88 210,-143 344,-143l293 0 0 -1072c0,-135 55,-257 143,-344 88,-88 211,-143 344,-143l292 0 0 -1365 -5652 0 0 9940 292 0c134,0 256,55 344,143 88,87 143,209 143,344l0 1072 292 0c134,0 257,55 344,143 87,89 143,210 143,344l0 1072 293 0c111,0 216,38 299,103 83,65 146,158 173,266l363 1451 1878 2253c60,72 97,160 109,250 11,90 -2,184 -42,268 -40,85 -103,155 -180,204 -77,49 -167,76 -261,76l-2690 0c-108,443 -357,825 -693,1099 -355,291 -808,462 -1295,462 -486,0 -939,-171 -1295,-462 -336,-274 -585,-656 -693,-1099l-2690 0c-94,0 -184,-28 -261,-76 -77,-49 -141,-120 -180,-205 -40,-85 -53,-179 -42,-268 12,-90 49,-177 109,-250l1878 -2253 363 -1451c27,-108 90,-201 173,-266 83,-64 188,-103 299,-103l293 0 0 -1072c0,-134 55,-256 143,-344 87,-88 210,-143 344,-143l293 0 0 -1072c0,-135 55,-257 143,-344 88,-88 211,-143 344,-143l292 0 0 -9940 -4190 0c-135,0 -257,-55 -344,-143 -87,-87 -143,-210 -143,-344l0 -1559c0,-134 55,-256 143,-344 87,-88 210,-143 344,-143zm10134 17150l877 0 0 974 -974 0 0 -974 97 0zm-9354 -4677l877 0 0 974 -974 0 0 -974 97 0zm20268 2339l877 0 0 974 -974 0 0 -974 97 0zm-8185 779l877 0 0 974 -974 0 0 -974 97 0zm1559 -2729l877 0 0 974 -974 0 0 -974 97 0zm-6626 780l877 0 0 974 -974 0 0 -974 97 0zm-3737 7209c177,125 392,197 619,197 227,0 442,-72 619,-197 140,-99 256,-231 337,-388l-1911 0c80,157 197,290 336,389zm-1882 -2727l-1137 1365 7276 0 -1137 -1365 -5001 0zm396 -974l4210 0 -146 -585 -3917 0 -146 585zm1033 -2144l0 585 2144 0 0 -585 -2144 0zm779 -974l585 0 0 -585 -585 0 0 585zm6300 -1756c177,125 392,197 619,197 227,0 442,-72 619,-197 140,-98 256,-231 336,-388l-1911 0c80,157 197,290 336,388zm-1908 -2727l-1365 1365 7783 0 -1365 -1365 -5053 0zm422 -974l4210 0 -146 -585 -3917 0 -146 585zm1033 -2144l0 585 2144 0 0 -585 -2144 0zm779 -1559l0 585 585 0 0 -585 -585 0zm6300 17538c177,125 392,197 619,197 227,0 442,-72 619,-197 140,-99 256,-232 336,-388l-1911 0c80,157 196,289 336,388zm-1882 -2727l-1137 1365 7276 0 -1137 -1365 -5001 0zm396 -974l4210 0 -146 -585 -3917 0 -146 585zm1033 -2144l0 585 2144 0 0 -585 -2144 0zm779 -1559l0 585 585 0 0 -585 -585 0zm-17150 -14032l0 585 3703 0 0 -585 -3703 0zm4677 0l0 585 5652 0 0 -585 -5652 0zm6626 0l0 585 5652 0 0 -585 -5652 0zm6626 585l3704 0 0 -585 -3704 0 0 585z"/>
 </g>
</svg>
