<?xml version="1.0" encoding="UTF-8"?>
<!DOCTYPE svg PUBLIC "-//W3C//DTD SVG 1.0//EN" "http://www.w3.org/TR/2001/REC-SVG-20010904/DTD/svg10.dtd">
<!-- Creator: CorelDRAW -->
<svg xmlns="http://www.w3.org/2000/svg" xml:space="preserve" width="9mm" height="9.0433mm" version="1.0" style="shape-rendering:geometricPrecision; text-rendering:geometricPrecision; image-rendering:optimizeQuality; fill-rule:evenodd; clip-rule:evenodd"
viewBox="0 0 23072 23183"
 xmlns:xlink="http://www.w3.org/1999/xlink"
 xmlns:xodm="http://www.corel.com/coreldraw/odm/2003">
 <defs>
  <style type="text/css">
   <![CDATA[
    .fil0 {fill:#00A0E3;fill-rule:nonzero}
   ]]>
  </style>
 </defs>
 <g id="Layer_x0020_1">
  <metadata id="CorelCorpID_0Corel-Layer"/>
  <path class="fil0" d="M12279 3575l0 7366 811 0c78,0 154,14 224,40 73,27 140,66 197,115 56,48 106,106 143,171 36,62 62,131 76,204l1167 4492c22,86 26,172 14,254 -12,85 -41,167 -84,240 -43,72 -100,138 -169,189 -66,49 -143,88 -227,110 -566,119 -1622,22 -2238,22l0 1630c0,233 23,461 66,680 44,226 111,443 196,648 87,210 195,410 320,598 126,188 272,365 434,527 162,162 339,308 527,434 187,126 388,234 598,320 205,85 422,152 649,196 219,43 447,66 680,66 233,0 460,-23 679,-66 225,-44 442,-111 648,-196l12 -5c208,-86 406,-194 591,-318 186,-125 362,-270 523,-431 304,-304 552,-663 725,-1058 85,-194 153,-397 202,-606 47,-204 77,-416 86,-633l0 -1786 -1988 1c-87,0 -173,-17 -249,-49 -81,-34 -154,-82 -213,-142 -59,-59 -108,-132 -142,-212 -32,-78 -50,-163 -50,-250l10 -110c166,-934 486,-2062 788,-3128 144,-508 284,-1003 402,-1456 18,-71 48,-137 87,-196 39,-60 89,-113 145,-156 56,-44 121,-78 188,-102 68,-23 139,-35 210,-35l2928 0c78,0 154,13 223,39 73,26 140,66 198,115 56,48 106,106 144,171 36,62 62,130 76,204l1167 4492c22,85 26,172 15,254 -12,86 -41,168 -84,241l-11 18c-43,68 -99,129 -166,178 -65,47 -139,83 -220,104 -550,116 -1555,22 -2151,22l0 1587 3 43c0,318 -32,630 -91,931 -61,308 -153,608 -271,894 -121,291 -269,569 -442,827 -175,262 -375,506 -594,724 -219,219 -462,419 -724,594 -259,173 -536,322 -826,442 -285,118 -584,210 -893,271 -302,60 -614,92 -932,92 -318,0 -630,-32 -931,-91 -308,-61 -608,-153 -894,-271 -291,-120 -569,-269 -827,-442 -263,-175 -506,-375 -725,-594 -163,-163 -314,-338 -453,-523 -105,-141 -203,-289 -293,-443l-154 245c-86,129 -180,254 -278,374 -99,121 -205,237 -313,346 -220,221 -463,420 -724,595 -259,173 -536,322 -828,443 -286,118 -585,210 -894,271 -301,59 -613,91 -931,91 -318,0 -630,-32 -931,-91 -308,-61 -608,-153 -894,-271 -291,-120 -569,-269 -827,-442 -263,-175 -506,-375 -725,-594 -219,-219 -419,-462 -594,-725 -173,-259 -321,-536 -442,-827 -118,-286 -210,-586 -271,-895 -59,-301 -91,-613 -91,-931l3 -44 0 -1586 -1990 1c-87,0 -172,-17 -249,-49 -81,-34 -154,-82 -213,-142 -59,-59 -108,-132 -141,-212 -32,-78 -50,-163 -50,-250l10 -111c167,-933 486,-2062 788,-3128 144,-508 284,-1003 402,-1456 18,-71 49,-137 87,-196 40,-60 89,-113 145,-156 56,-43 120,-78 188,-101 67,-23 138,-36 211,-36l2928 0c77,0 153,13 222,39 72,26 140,66 198,115 57,48 107,106 144,171 36,61 62,130 76,204l1168 4502c20,85 24,169 12,249 -12,83 -41,163 -83,235 -43,73 -100,138 -168,190 -66,50 -143,89 -228,111 -581,111 -1529,22 -2149,22l0 1796c10,214 40,424 87,627 49,208 116,409 201,602 87,197 191,385 312,561 121,177 260,344 413,497l11 13c160,158 336,302 523,426 186,124 384,230 591,316 206,85 423,152 649,196 219,43 447,66 679,66 233,0 460,-23 679,-66 226,-44 443,-111 648,-196 209,-87 410,-194 598,-320 188,-126 365,-272 528,-434l12 -11c159,-160 302,-335 426,-522 124,-186 230,-385 316,-592 85,-206 151,-424 196,-649 43,-218 66,-446 66,-678l0 -1630 -1901 1c-87,0 -173,-17 -249,-49 -81,-34 -154,-82 -213,-142 -59,-59 -108,-132 -141,-212 -32,-78 -50,-163 -50,-250 0,-35 4,-73 10,-110 166,-934 486,-2062 788,-3128 144,-508 284,-1003 402,-1456 18,-71 48,-137 87,-195 39,-60 89,-114 145,-157 56,-44 120,-78 188,-102 67,-23 139,-35 210,-35l811 0 0 -7367c-96,-22 -189,-48 -280,-79 -116,-39 -229,-85 -337,-137 -140,-68 -275,-147 -401,-236 -126,-88 -246,-188 -357,-297 -135,-132 -257,-276 -362,-430 -105,-152 -195,-317 -268,-489 -72,-169 -128,-347 -165,-531 -36,-180 -56,-365 -56,-553l9 -222c6,-83 28,-162 63,-233 36,-74 86,-140 145,-195l21 -18c58,-49 125,-89 197,-115 70,-26 147,-40 224,-40l4439 0c86,0 170,17 246,48 80,33 152,80 211,139 59,58 108,128 141,205 32,75 51,157 53,243l7 187c0,188 -19,373 -55,551 -37,184 -93,362 -165,532 -73,173 -163,337 -268,489 -106,154 -228,298 -363,430 -111,108 -231,208 -357,296 -126,88 -261,168 -401,236 -109,52 -221,98 -337,137 -90,31 -184,57 -280,79zm8462 8673l-1921 0 -837 3225 3596 0 -838 -3225zm-16486 0l-1922 0 -837 3225 3596 0 -837 -3225zm8491 -10355c63,-62 121,-129 173,-201 51,-70 96,-146 135,-226 23,-49 48,-108 65,-159l-2986 0 9 26c16,45 36,90 56,133 37,78 83,154 135,226 52,72 110,140 173,200 72,70 153,135 239,191 85,55 177,103 273,142 95,38 194,68 297,87 99,19 204,29 311,29 107,0 212,-10 311,-29 103,-20 203,-50 297,-87 96,-39 188,-87 273,-142 86,-56 167,-121 240,-191zm-160 10355l-1921 0 -837 3225 3596 0 -837 -3225z"/>
 </g>
</svg>
