<?xml version="1.0" encoding="UTF-8"?>
<!DOCTYPE svg PUBLIC "-//W3C//DTD SVG 1.0//EN" "http://www.w3.org/TR/2001/REC-SVG-20010904/DTD/svg10.dtd">
<!-- Creator: CorelDRAW -->
<svg xmlns="http://www.w3.org/2000/svg" xml:space="preserve" width="6.1747mm" height="9mm" version="1.0" style="shape-rendering:geometricPrecision; text-rendering:geometricPrecision; image-rendering:optimizeQuality; fill-rule:evenodd; clip-rule:evenodd"
viewBox="0 0 9679 14108"
 xmlns:xlink="http://www.w3.org/1999/xlink"
 xmlns:xodm="http://www.corel.com/coreldraw/odm/2003">
 <defs>
  <style type="text/css">
   <![CDATA[
    .fil0 {fill:#00A0E3}
   ]]>
  </style>
 </defs>
 <g id="Layer_x0020_1">
  <metadata id="CorelCorpID_0Corel-Layer"/>
  <path class="fil0" d="M3014 12643c-483,-1009 -685,-2154 -569,-3183 99,-872 425,-1663 1000,-2227l-137 0c-1148,246 -1968,647 -2506,1132 -453,408 -703,875 -778,1354 -76,481 22,982 265,1454 285,554 768,1068 1405,1470l1319 0zm3085 -26c513,-969 734,-2097 620,-3101 -110,-974 -539,-1825 -1325,-2276l-14 -8 -1082 0 -14 8c-786,451 -1214,1302 -1325,2276 -114,1003 107,2132 620,3101l14 26 2492 0 14 -26zm3289 -1445c243,-472 341,-973 265,-1454 -75,-479 -325,-946 -778,-1354 -538,-485 -1358,-886 -2506,-1132l-137 0c575,564 901,1356 1000,2227 116,1029 -86,2174 -569,3183l1319 0c637,-402 1120,-916 1405,-1470zm-3243 -4458c-85,-267 -235,-561 -457,-789 -211,-217 -491,-371 -849,-371 -357,0 -638,154 -849,371 -222,228 -372,523 -457,789l2612 0zm-894 -1628l0 -3307c1000,-143 1756,-797 1756,-1583 0,-8 0,-16 0,-24 -2,-96 -81,-173 -177,-173l-3982 0c-96,0 -175,77 -177,173 0,8 0,16 0,24 0,786 756,1440 1756,1583l0 3307c129,-32 266,-50 412,-50 147,0 284,18 412,50zm383 8596c108,-156 177,-340 223,-522l-2035 0c46,183 115,367 223,522 153,220 397,391 795,425 398,-34 642,-205 795,-425z"/>
 </g>
</svg>
