<?xml version="1.0" encoding="UTF-8"?>
<!DOCTYPE svg PUBLIC "-//W3C//DTD SVG 1.0//EN" "http://www.w3.org/TR/2001/REC-SVG-20010904/DTD/svg10.dtd">
<!-- Creator: CorelDRAW -->
<svg xmlns="http://www.w3.org/2000/svg" xml:space="preserve" width="9mm" height="9mm" version="1.0" style="shape-rendering:geometricPrecision; text-rendering:geometricPrecision; image-rendering:optimizeQuality; fill-rule:evenodd; clip-rule:evenodd"
viewBox="0 0 21955 21955"
 xmlns:xlink="http://www.w3.org/1999/xlink"
 xmlns:xodm="http://www.corel.com/coreldraw/odm/2003">
 <defs>
  <style type="text/css">
   <![CDATA[
    .fil0 {fill:#00A0E3;fill-rule:nonzero}
   ]]>
  </style>
 </defs>
 <g id="Layer_x0020_1">
  <metadata id="CorelCorpID_0Corel-Layer"/>
  <path class="fil0" d="M18509 3826c178,30 354,65 524,105 129,30 256,63 380,98 -327,-401 -683,-777 -1063,-1126 -415,-381 -861,-730 -1332,-1043 -504,-335 -1039,-631 -1598,-881 -549,-246 -1122,-449 -1712,-605 -234,90 -474,193 -714,311 -227,111 -455,235 -681,373 -250,152 -501,324 -746,515 -230,179 -457,376 -675,591 -486,475 -875,979 -1189,1483 -313,504 -551,1011 -732,1493 -182,484 -310,944 -403,1354 -93,411 -153,772 -198,1057 -25,151 -47,305 -66,459 -19,150 -35,303 -48,459l-30 480 134 -164 -5 -5 124 -163c743,-968 1532,-1993 2518,-2698l9 -7c504,-360 1277,-912 2294,-1374 1019,-462 2284,-834 3771,-834l85 0c231,4 458,16 680,37 232,21 457,51 674,87zm-7238 -3196c298,-212 599,-398 898,-560 -1124,-128 -2264,-79 -3378,146 -1185,238 -2342,674 -3417,1302 -200,446 -380,946 -511,1491 -134,554 -219,1156 -224,1797 -15,1368 323,2537 750,3481 428,947 945,1669 1284,2138 178,247 368,492 571,732 134,159 273,315 417,468l-14 -76c-17,-103 -29,-208 -33,-314l-11 0 -22 -165c-158,-1206 -326,-2486 -128,-3675l2 -11c203,-1219 622,-3733 2716,-5827l60 -60c338,-327 687,-615 1039,-866zm-7403 2823c61,-361 142,-705 239,-1031 -885,704 -1657,1545 -2286,2491 -669,1007 -1179,2132 -1495,3337 175,457 401,938 692,1416 297,487 663,972 1113,1429 957,978 2023,1565 2992,1931 972,367 1848,512 2419,604 301,49 608,87 921,114 207,18 416,30 626,36l-63 -43c-85,-61 -168,-126 -246,-199l-8 8 -133 -101c-964,-741 -1988,-1527 -2689,-2508l-7 -10c-718,-1006 -2200,-3080 -2199,-6041l0 -85c7,-470 51,-920 123,-1347zm-3238 7231c-212,-298 -398,-599 -560,-898 -128,1124 -79,2264 146,3378 238,1185 674,2342 1302,3417 446,200 946,380 1491,511 554,134 1156,219 1797,224 1368,15 2537,-323 3481,-750 947,-428 1669,-945 2138,-1284 247,-178 492,-368 732,-571 159,-134 315,-273 468,-417l-76 14c-103,17 -208,29 -314,33l0 11 -165 22c-1206,158 -2486,326 -3675,128l-11 -2c-1219,-203 -3733,-622 -5827,-2716l-60 -60c-327,-338 -615,-687 -866,-1039zm2823 7403c-361,-61 -705,-142 -1031,-239 704,885 1545,1657 2491,2286 1007,669 2132,1179 3337,1495 457,-175 938,-401 1416,-692 487,-297 972,-663 1429,-1113 978,-957 1565,-2023 1931,-2992 367,-972 512,-1848 604,-2419 49,-301 87,-608 114,-921 18,-207 30,-416 36,-626l-43 63c-61,85 -126,168 -199,246l8 8 -101 133c-741,964 -1527,1988 -2508,2689l-10 7c-1006,718 -3080,2200 -6041,2199l-85 0c-470,-7 -920,-51 -1347,-123zm7231 3238c-298,212 -599,398 -898,560 1124,128 2264,79 3378,-146 1185,-238 2342,-674 3417,-1302 200,-446 380,-946 511,-1491 134,-554 219,-1156 224,-1797 15,-1368 -323,-2537 -750,-3481 -428,-947 -945,-1669 -1284,-2138 -178,-247 -368,-492 -571,-732 -134,-159 -273,-315 -417,-468l14 76c17,103 29,208 33,314l11 0 22 165c158,1206 326,2486 128,3675l-2 11c-203,1219 -622,3733 -2716,5827l-60 60c-338,327 -687,615 -1039,866zm7403 -2823c-61,361 -142,705 -239,1031 885,-704 1657,-1545 2286,-2491 669,-1007 1179,-2132 1495,-3337 -175,-457 -401,-938 -692,-1416 -297,-487 -663,-972 -1113,-1429 -957,-978 -2023,-1565 -2992,-1931 -972,-367 -1848,-512 -2419,-604 -301,-49 -608,-87 -921,-114 -207,-18 -416,-30 -626,-36l63 43c85,61 168,126 246,199l8 -8 133 101c964,741 1988,1527 2689,2508l7 10c718,1006 2200,3080 2199,6041l0 85c-7,470 -51,920 -123,1347zm3238 -7231c212,298 398,599 560,898 128,-1124 79,-2264 -146,-3378 -238,-1185 -674,-2342 -1302,-3417 -446,-200 -946,-380 -1491,-511 -554,-134 -1156,-219 -1797,-224 -1368,-15 -2537,323 -3481,750 -947,428 -1669,945 -2138,1284 -247,178 -492,368 -732,571 -159,134 -315,273 -468,417l76 -14c103,-17 208,-29 314,-33l0 -11 165 -22c1206,-158 2486,-326 3675,-128l11 2c1219,203 3733,622 5827,2716l60 60c327,338 615,687 866,1039z"/>
 </g>
</svg>
