<?xml version="1.0" encoding="UTF-8"?>
<!DOCTYPE svg PUBLIC "-//W3C//DTD SVG 1.0//EN" "http://www.w3.org/TR/2001/REC-SVG-20010904/DTD/svg10.dtd">
<!-- Creator: CorelDRAW -->
<svg xmlns="http://www.w3.org/2000/svg" xml:space="preserve" width="9mm" height="9mm" version="1.0" style="shape-rendering:geometricPrecision; text-rendering:geometricPrecision; image-rendering:optimizeQuality; fill-rule:evenodd; clip-rule:evenodd"
viewBox="0 0 24625 24625"
 xmlns:xlink="http://www.w3.org/1999/xlink"
 xmlns:xodm="http://www.corel.com/coreldraw/odm/2003">
 <defs>
  <style type="text/css">
   <![CDATA[
    .fil0 {fill:#00A0E3;fill-rule:nonzero}
   ]]>
  </style>
 </defs>
 <g id="Layer_x0020_1">
  <metadata id="CorelCorpID_0Corel-Layer"/>
  <path class="fil0" d="M24600 13143c17,-270 25,-549 25,-830 0,-2849 -964,-5471 -2586,-7557 -1645,-2116 -3967,-3682 -6644,-4377 -502,193 -1030,439 -1556,757 -545,329 -1089,734 -1598,1236 -365,356 -682,724 -956,1097 -204,277 -385,558 -544,840 185,-37 371,-67 557,-90 332,-41 670,-62 1014,-62 1681,0 3246,513 4543,1390 1311,886 2348,2146 2955,3626 525,224 1072,505 1616,859 570,371 1137,822 1670,1372 393,402 734,817 1028,1234 167,236 320,474 459,712l15 -208zm-11457 -13118c-270,-17 -549,-25 -830,-25 -2849,0 -5471,964 -7557,2586 -2116,1645 -3682,3967 -4377,6644 193,502 439,1030 757,1556 329,545 734,1089 1236,1598 356,365 724,682 1097,956 277,204 558,385 840,544 -37,-185 -67,-371 -90,-557 -41,-332 -62,-670 -62,-1014 0,-1681 513,-3246 1390,-4543 886,-1311 2146,-2348 3626,-2955 224,-525 505,-1072 859,-1616 371,-570 822,-1137 1372,-1670 402,-393 817,-734 1234,-1028 236,-167 474,-320 712,-459l-208 -15zm-13118 11457c-17,270 -25,549 -25,830 0,2849 964,5471 2586,7557 1645,2116 3967,3682 6644,4377 502,-193 1030,-439 1556,-757 545,-329 1089,-734 1598,-1236 365,-356 682,-724 956,-1097 204,-277 385,-558 544,-840 -185,37 -371,67 -557,90 -332,41 -670,62 -1014,62 -1681,0 -3246,-513 -4543,-1390 -1311,-886 -2348,-2146 -2955,-3626 -525,-224 -1072,-505 -1616,-859 -570,-371 -1137,-822 -1670,-1372 -393,-402 -734,-817 -1028,-1234 -167,-236 -320,-474 -459,-712l-15 208zm11457 13118c270,17 549,25 830,25 2849,0 5471,-964 7557,-2586 2116,-1645 3682,-3967 4377,-6644 -193,-502 -439,-1030 -757,-1556 -329,-545 -734,-1089 -1236,-1598 -356,-365 -724,-682 -1097,-956 -277,-204 -558,-385 -840,-544 37,185 67,371 90,557 41,332 62,670 62,1014 0,1681 -513,3246 -1390,4543 -886,1311 -2146,2348 -3626,2955 -224,525 -505,1072 -859,1616 -371,570 -822,1137 -1372,1670 -402,393 -817,734 -1234,1028 -236,167 -474,320 -712,459l208 15z"/>
 </g>
</svg>
