<?xml version="1.0" encoding="UTF-8"?>
<!DOCTYPE svg PUBLIC "-//W3C//DTD SVG 1.0//EN" "http://www.w3.org/TR/2001/REC-SVG-20010904/DTD/svg10.dtd">
<!-- Creator: CorelDRAW -->
<svg xmlns="http://www.w3.org/2000/svg" xml:space="preserve" width="9mm" height="8.9944mm" version="1.0" style="shape-rendering:geometricPrecision; text-rendering:geometricPrecision; image-rendering:optimizeQuality; fill-rule:evenodd; clip-rule:evenodd"
viewBox="0 0 28035 28017"
 xmlns:xlink="http://www.w3.org/1999/xlink"
 xmlns:xodm="http://www.corel.com/coreldraw/odm/2003">
 <defs>
  <style type="text/css">
   <![CDATA[
    .fil0 {fill:#00A0E3;fill-rule:nonzero}
   ]]>
  </style>
 </defs>
 <g id="Layer_x0020_1">
  <metadata id="CorelCorpID_0Corel-Layer"/>
  <path class="fil0" d="M26342 7328c-918,-450 -1999,-845 -3204,-1044 -1657,-288 -3151,-144 -4430,163 -1350,-847 -2972,-1351 -4700,-1351 -738,0 -1458,90 -2142,270 450,-883 1063,-1783 1927,-2629 1170,-1152 2484,-1872 3673,-2323 3835,972 7039,3529 8876,6914zm1693 6681c0,2827 -828,5456 -2286,7652 -18,-1026 -163,-2160 -577,-3331 -558,-1603 -1405,-2863 -2287,-3853 36,-162 36,-306 36,-469 0,-2755 -1242,-5203 -3204,-6842 990,-162 2088,-198 3277,0 1620,270 2989,900 4034,1602 648,1620 1007,3385 1007,5239zm-3186 8896c-2575,3115 -6465,5113 -10822,5113 -630,0 -1242,-36 -1854,-126 900,-468 1836,-1098 2701,-1944 1224,-1189 1999,-2503 2503,-3710 2736,-1099 4790,-3548 5384,-6501 611,793 1170,1747 1566,2900 523,1548 612,3024 523,4268zm-8662 -271c-450,900 -1080,1819 -1944,2665 -1170,1153 -2467,1855 -3637,2305 -3835,-972 -7058,-3511 -8913,-6915 918,468 1999,865 3205,1063 630,109 1242,145 1818,145 955,0 1855,-127 2647,-325 1351,847 2935,1333 4645,1333 757,0 1494,-91 2179,-271zm-287 -22507c-919,469 -1854,1099 -2737,1963 -1189,1171 -1981,2448 -2485,3655 -2755,1117 -4807,3565 -5401,6536 -613,-792 -1171,-1746 -1550,-2880 -540,-1549 -629,-3044 -522,-4304 2575,-3115 6464,-5096 10821,-5096 630,0 1260,36 1873,126zm-7563 20725c-990,180 -2107,198 -3294,0 -1621,-270 -2989,-900 -4034,-1603 -648,-1620 -1008,-3385 -1008,-5240 0,-2827 828,-5455 2287,-7653 18,1044 162,2161 576,3332 558,1602 1405,2863 2287,3853 -36,162 -36,306 -36,468 0,2755 1242,5222 3223,6842z"/>
 </g>
</svg>
