<?xml version="1.0" encoding="UTF-8"?>
<!DOCTYPE svg PUBLIC "-//W3C//DTD SVG 1.0//EN" "http://www.w3.org/TR/2001/REC-SVG-20010904/DTD/svg10.dtd">
<!-- Creator: CorelDRAW -->
<svg xmlns="http://www.w3.org/2000/svg" xml:space="preserve" width="9mm" height="9.0004mm" version="1.0" style="shape-rendering:geometricPrecision; text-rendering:geometricPrecision; image-rendering:optimizeQuality; fill-rule:evenodd; clip-rule:evenodd"
viewBox="0 0 32540 32541"
 xmlns:xlink="http://www.w3.org/1999/xlink"
 xmlns:xodm="http://www.corel.com/coreldraw/odm/2003">
 <defs>
  <style type="text/css">
   <![CDATA[
    .fil0 {fill:#00A0E3;fill-rule:nonzero}
   ]]>
  </style>
 </defs>
 <g id="Layer_x0020_1">
  <metadata id="CorelCorpID_0Corel-Layer"/>
  <path class="fil0" d="M18454 147c-1067,543 -2174,1274 -3177,2278 -1400,1380 -2299,2884 -2883,4263 -2090,857 -3846,2362 -4995,4284 -355,-1107 -585,-2382 -564,-3782 21,-1902 502,-3553 1109,-4891 2444,-1463 5286,-2299 8338,-2299 732,0 1462,43 2174,147zm14085 16113c0,732 -41,1464 -146,2173 -544,-1067 -1275,-2153 -2278,-3156 -1359,-1400 -2885,-2319 -4285,-2926 -856,-2068 -2361,-3803 -4263,-4932 1108,-376 2382,-606 3783,-606 1902,21 3532,501 4870,1107 1483,2425 2319,5288 2319,8340zm-480 4012c-940,3616 -3051,6751 -5935,8945 376,-1150 628,-2446 648,-3866 21,-1943 -397,-3657 -982,-5057 522,-1234 815,-2592 815,-4014 0,-877 -104,-1713 -313,-2529 1024,523 2090,1254 3073,2257 1337,1358 2173,2884 2695,4263zm-6332 5057c-20,1902 -501,3574 -1108,4912 -2423,1464 -5287,2299 -8338,2299 -732,0 -1464,-42 -2173,-147 1066,-543 2152,-1275 3156,-2278 1421,-1380 2299,-2884 2905,-4284 2090,-857 3845,-2361 4974,-4284 356,1108 606,2383 585,3783zm-6959 961c-522,1025 -1233,2090 -2235,3073 -1359,1337 -2885,2173 -4264,2695 -3615,-941 -6750,-3072 -8945,-5956 1150,377 2446,627 3866,648l147 0c1881,0 3532,-418 4911,-961 1234,523 2592,816 4012,816 858,0 1715,-106 2508,-315zm-7796 -1169c-1066,355 -2299,585 -3657,585l-104 0c-1902,-21 -3575,-502 -4911,-1108 -1464,-2446 -2299,-5288 -2299,-8338 0,-732 42,-1464 146,-2174 543,1065 1275,2174 2278,3176 1378,1422 2883,2299 4263,2884 836,2090 2362,3846 4284,4975zm-5036 -8841c0,857 105,1693 313,2488 -1023,-523 -2090,-1234 -3071,-2237 -1338,-1359 -2174,-2884 -2696,-4264 941,-3615 3073,-6750 5957,-8944 -377,1129 -627,2423 -648,3866 -21,1965 397,3657 961,5057 -523,1255 -816,2592 -816,4033zm23261 -9864c-1129,-376 -2425,-626 -3846,-647l-125 0c-1901,0 -3553,418 -4953,982 -1234,-522 -2592,-816 -4014,-816 -855,0 -1713,104 -2507,314 523,-1025 1254,-2090 2257,-3072 1358,-1337 2884,-2173 4263,-2695 3616,939 6751,3051 8924,5934z"/>
 </g>
</svg>
