<?xml version="1.0" encoding="UTF-8"?>
<!DOCTYPE svg PUBLIC "-//W3C//DTD SVG 1.0//EN" "http://www.w3.org/TR/2001/REC-SVG-20010904/DTD/svg10.dtd">
<!-- Creator: CorelDRAW -->
<svg xmlns="http://www.w3.org/2000/svg" xml:space="preserve" width="9.0001mm" height="9.045mm" version="1.0" style="shape-rendering:geometricPrecision; text-rendering:geometricPrecision; image-rendering:optimizeQuality; fill-rule:evenodd; clip-rule:evenodd"
viewBox="0 0 38770 38964"
 xmlns:xlink="http://www.w3.org/1999/xlink"
 xmlns:xodm="http://www.corel.com/coreldraw/odm/2003">
 <defs>
  <style type="text/css">
   <![CDATA[
    .fil0 {fill:#00A0E3;fill-rule:nonzero}
   ]]>
  </style>
 </defs>
 <g id="Layer_x0020_1">
  <metadata id="CorelCorpID_0Corel-Layer"/>
  <path class="fil0" d="M26867 25377c159,1149 -57,2363 -469,3475 -408,1124 -984,2158 -1637,3151 -1323,1970 -3096,3737 -5348,4867 -1120,565 -2362,937 -3636,1080 -1272,117 -2560,45 -3772,-277 -2417,-655 -4534,-2154 -5770,-4238 2261,832 4257,1570 6293,1942 1010,184 2022,283 3021,198 997,-78 1974,-347 2927,-726 1893,-809 3607,-2168 5088,-3780 1448,-1645 2865,-3413 3301,-5693zm1952 -6335c860,778 1475,1847 1875,2963 410,1123 632,2286 771,3466 252,2359 31,4853 -968,7166 -495,1152 -1207,2237 -2091,3164 -899,907 -1932,1680 -3068,2212 -2272,1052 -4858,1264 -7144,463 2267,-816 4269,-1534 6069,-2557 892,-508 1730,-1083 2442,-1790 713,-701 1289,-1535 1775,-2438 930,-1836 1370,-3979 1469,-6166 52,-2190 0,-4456 -1130,-6483zm-2576 -6108c1159,44 2317,467 3341,1065 1036,597 1954,1344 2819,2159 1710,1645 3143,3697 3865,6112 361,1201 513,2489 432,3768 -105,1273 -401,2529 -927,3666 -1065,2266 -2909,4091 -5175,4946 1212,-2082 2285,-3919 3006,-5860 356,-963 629,-1942 720,-2941 96,-996 1,-2004 -207,-3009 -468,-2004 -1508,-3929 -2838,-5667 -1368,-1712 -2864,-3414 -5033,-4241zm-5899 -3022c916,-711 2075,-1131 3244,-1331 1177,-208 2361,-226 3547,-158 2367,161 4784,812 6889,2198 1049,688 1993,1577 2753,2608 737,1042 1319,2195 1646,3405 641,2420 401,5003 -785,7116 -410,-2374 -769,-4471 -1464,-6420 -346,-967 -766,-1893 -1339,-2716 -566,-824 -1287,-1536 -2092,-2172 -1647,-1234 -3681,-2041 -5817,-2517 -2149,-432 -4389,-774 -6581,-13zm-6462 1477c244,-1134 862,-2201 1629,-3105 768,-917 1663,-1691 2616,-2401 1917,-1398 4187,-2453 6690,-2744 1246,-147 2540,-73 3786,229 1235,325 2421,833 3450,1550 2047,1442 3524,3575 3973,5955 -1840,-1555 -3463,-2930 -5249,-3977 -886,-518 -1803,-957 -2772,-1220 -964,-268 -1974,-349 -2999,-319 -2055,113 -4131,803 -6074,1811 -1923,1050 -3860,2228 -5050,4220zm-4001 5285c-541,-1025 -754,-2240 -747,-3426 -1,-1195 187,-2364 460,-3521 569,-2302 1631,-4571 3360,-6403 860,-914 1899,-1689 3047,-2258 1154,-545 2390,-918 3639,-1030 2495,-211 4997,473 6871,2009 -2409,-8 -4536,-19 -6577,327 -1012,173 -1997,426 -2907,847 -910,415 -1736,1001 -2502,1683 -1501,1408 -2648,3270 -3489,5292 -798,2041 -1525,4187 -1155,6478zm333 6621c-1074,-438 -2018,-1231 -2775,-2144 -769,-915 -1376,-1931 -1910,-2993 -1044,-2131 -1689,-4550 -1541,-7065 71,-1252 369,-2515 883,-3688 535,-1160 1241,-2239 2126,-3128 1776,-1765 4132,-2849 6555,-2878 -1851,1542 -3487,2901 -4828,4478 -664,783 -1256,1610 -1683,2518 -431,903 -687,1883 -834,2898 -246,2044 73,4208 729,6297 700,2076 1524,4188 3279,5706zm4510 4857c-1104,355 -2337,354 -3503,141 -1178,-206 -2296,-594 -3387,-1065 -2169,-961 -4218,-2399 -5722,-4421 -750,-1005 -1333,-2164 -1694,-3393 -336,-1232 -489,-2513 -383,-3762 225,-2494 1334,-4839 3171,-6418 -426,2371 -806,4464 -820,6534 -6,1027 73,2040 329,3010 251,968 685,1884 1224,2757 1125,1723 2760,3177 4605,4355 1871,1140 3859,2228 6180,2262zm6578 823c-618,982 -1563,1773 -2593,2361 -1035,599 -2141,1020 -3279,1362 -2279,658 -4774,873 -7225,290 -1221,-287 -2412,-800 -3479,-1509 -1049,-728 -1989,-1611 -2711,-2636 -1430,-2055 -2088,-4564 -1696,-6955 1197,2090 2252,3938 3572,5532 656,790 1368,1516 2187,2094 815,581 1736,1003 2710,1325 1970,597 4156,658 6327,376 2167,-329 4389,-773 6189,-2239z"/>
 </g>
</svg>
