<?xml version="1.0" encoding="UTF-8"?>
<!DOCTYPE svg PUBLIC "-//W3C//DTD SVG 1.0//EN" "http://www.w3.org/TR/2001/REC-SVG-20010904/DTD/svg10.dtd">
<!-- Creator: CorelDRAW -->
<svg xmlns="http://www.w3.org/2000/svg" xml:space="preserve" width="9.0651mm" height="9mm" version="1.0" style="shape-rendering:geometricPrecision; text-rendering:geometricPrecision; image-rendering:optimizeQuality; fill-rule:evenodd; clip-rule:evenodd"
viewBox="0 0 48627 48278"
 xmlns:xlink="http://www.w3.org/1999/xlink"
 xmlns:xodm="http://www.corel.com/coreldraw/odm/2003">
 <defs>
  <style type="text/css">
   <![CDATA[
    .fil0 {fill:#00A0E3;fill-rule:nonzero}
   ]]>
  </style>
 </defs>
 <g id="Layer_x0020_1">
  <metadata id="CorelCorpID_0Corel-Layer"/>
  <path class="fil0" d="M29921 24328c1253,4191 1087,8948 -652,13292 -1742,4342 -5018,8183 -9343,10658l-2219 -4844c3586,-1151 6947,-3642 9195,-7035 2251,-3391 3400,-7713 3019,-12070zm-960 -3332c3477,2655 6138,6601 7286,11137 1141,4536 750,9570 -1294,14115l-4643 -2615c2226,-3039 3480,-7030 3304,-11096 -172,-4067 -1783,-8238 -4652,-11540zm-2735 -2132c4373,104 8846,1732 12440,4727 3590,2999 6232,7301 7249,12180l-5293 614c14,-3767 -1317,-7733 -3849,-10919 -2529,-3189 -6284,-5617 -10547,-6602zm-3466 -116c3599,-2486 8174,-3798 12843,-3488 4667,316 9333,2244 13024,5593l-3922 3608c-2203,-3056 -5610,-5482 -9532,-6571 -3921,-1093 -8386,-850 -12413,858zm-2872 1942c1450,-4126 4380,-7878 8340,-10371 3961,-2487 8869,-3670 13823,-3131l-1052 5224c-3578,-1178 -7761,-1137 -11574,287 -3814,1420 -7283,4241 -9538,7990zm-1182 3260c-1252,-4191 -1087,-8949 652,-13292 1743,-4341 5018,-8183 9344,-10658l2219 4845c-3587,1150 -6947,3641 -9195,7035 -2251,3391 -3399,7713 -3019,12071zm960 3331c-3476,-2654 -6139,-6600 -7285,-11137 -1142,-4536 -750,-9570 1294,-14114l4643 2614c-2226,3039 -3480,7030 -3304,11096 172,4067 1783,8238 4652,11540zm2735 2132c-4372,-104 -8846,-1732 -12440,-4727 -3590,-2999 -6232,-7302 -7249,-12180l5294 -614c-14,3767 1316,7732 3849,10919 2529,3189 6284,5617 10546,6602zm3466 117c-3599,2486 -8174,3798 -12843,3487 -4667,-315 -9333,-2244 -13024,-5593l3922 -3607c2203,3055 5610,5482 9532,6571 3921,1093 8386,850 12413,-858zm2872 -1943c-1450,4127 -4380,7878 -8340,10371 -3962,2488 -8870,3671 -13824,3131l1052 -5224c3577,1178 7761,1138 11574,-286 3814,-1420 7284,-4241 9538,-7990z"/>
 </g>
</svg>
