<?xml version="1.0" encoding="UTF-8"?>
<!DOCTYPE svg PUBLIC "-//W3C//DTD SVG 1.0//EN" "http://www.w3.org/TR/2001/REC-SVG-20010904/DTD/svg10.dtd">
<!-- Creator: CorelDRAW -->
<svg xmlns="http://www.w3.org/2000/svg" xml:space="preserve" width="9mm" height="8.9957mm" version="1.0" style="shape-rendering:geometricPrecision; text-rendering:geometricPrecision; image-rendering:optimizeQuality; fill-rule:evenodd; clip-rule:evenodd"
viewBox="0 0 62826 62796"
 xmlns:xlink="http://www.w3.org/1999/xlink"
 xmlns:xodm="http://www.corel.com/coreldraw/odm/2003">
 <defs>
  <style type="text/css">
   <![CDATA[
    .fil0 {fill:#00A0E3;fill-rule:nonzero}
   ]]>
  </style>
 </defs>
 <g id="Layer_x0020_1">
  <metadata id="CorelCorpID_0Corel-Layer"/>
  <path class="fil0" d="M31101 31212c-159,6223 2048,12220 5757,16546 3836,4491 9312,7252 14627,7772 -2609,2172 -5577,3928 -8799,5171 -4059,-2722 -7331,-6377 -9493,-10521 -3132,-6031 -3812,-12913 -2257,-18979 -3499,5150 -4882,11388 -4101,17032 793,5810 3867,11057 8012,14372 -1138,125 -2293,191 -3464,191 -2309,0 -4560,-251 -6727,-724 -1880,-4428 -2628,-9197 -2211,-13783 627,-6768 3775,-12927 8365,-17188 -5729,2440 -10266,6942 -12662,12113 -2424,5208 -2715,11146 -1132,16114 -3026,-1557 -5765,-3593 -8121,-6004 847,-4608 2770,-8895 5528,-12438 4186,-5354 10162,-8832 16325,-9937 -6137,-1043 -12386,290 -17195,3345 -4720,2986 -8117,7644 -9547,12527 -1613,-2849 -2794,-5975 -3455,-9288 3157,-3287 6999,-5761 11126,-7212 6417,-2242 13327,-1936 19109,468 -4600,-4197 -10578,-6455 -16278,-6485 -5441,-39 -10685,1936 -14506,5123 202,-3329 919,-6518 2077,-9488 4352,-997 8826,-981 12999,10 6609,1583 12259,5576 15823,10725 -1601,-6017 -5410,-11150 -10188,-14257 -4491,-2933 -9878,-4114 -14758,-3559 1891,-2596 4170,-4891 6750,-6801 4165,1516 7889,3935 10843,7004 4704,4904 7296,11317 7512,17575 1906,-5927 1476,-12303 -863,-17500 -2196,-4900 -6095,-8810 -10508,-10980 2910,-1166 6035,-1912 9300,-2158 2723,3549 4573,7633 5406,11848 1306,6669 21,13467 -3183,18848 4809,-3956 7894,-9553 8736,-15190 815,-5390 -400,-10871 -3021,-15110 3224,574 6278,1640 9082,3117 425,4554 -220,9094 -1832,13177 -2506,6317 -7263,11340 -12867,14135 6184,-727 11806,-3768 15561,-8056 3689,-4195 5636,-9623 5631,-14714 2410,2186 4479,4741 6119,7576 -2111,4202 -5173,7790 -8832,10421 -5523,3958 -12241,5612 -18466,4935 5596,2731 11968,3212 17445,1636 5521,-1578 10198,-5246 12917,-9694 743,2681 1143,5505 1143,8422 0,486 -13,970 -35,1451 -4119,2497 -8740,3919 -13346,4160 -6786,343 -13331,-1896 -18202,-5832 3231,5323 8331,9173 13791,10808 5613,1692 11665,1076 16402,-1318 -1011,3280 -2543,6330 -4500,9055 -4886,-94 -9617,-1401 -13676,-3719 -5894,-3381 -10188,-8802 -12158,-14746z"/>
 </g>
</svg>
