<?xml version="1.0" encoding="UTF-8"?>
<!DOCTYPE svg PUBLIC "-//W3C//DTD SVG 1.0//EN" "http://www.w3.org/TR/2001/REC-SVG-20010904/DTD/svg10.dtd">
<!-- Creator: CorelDRAW -->
<svg xmlns="http://www.w3.org/2000/svg" xml:space="preserve" width="9mm" height="8.9999mm" version="1.0" style="shape-rendering:geometricPrecision; text-rendering:geometricPrecision; image-rendering:optimizeQuality; fill-rule:evenodd; clip-rule:evenodd"
viewBox="0 0 91085 91084"
 xmlns:xlink="http://www.w3.org/1999/xlink"
 xmlns:xodm="http://www.corel.com/coreldraw/odm/2003">
 <defs>
  <style type="text/css">
   <![CDATA[
    .fil0 {fill:#00A0E3;fill-rule:nonzero}
   ]]>
  </style>
 </defs>
 <g id="Layer_x0020_1">
  <metadata id="CorelCorpID_0Corel-Layer"/>
  <path class="fil0" d="M39439 60756c-660,41 -1326,66 -1993,66 -17049,0 -30872,-14176 -30872,-31662 0,-3445 534,-6758 1527,-9862 2490,-3544 5474,-6721 8845,-9426 -4005,5343 -6388,12032 -6388,19289 0,16798 12756,30543 28880,31596zm-16005 -46892c-8397,14547 -4219,32831 9213,41801 -589,-292 -1178,-605 -1758,-939 -14765,-8525 -19647,-27710 -10904,-42853 1725,-2989 3853,-5594 6270,-7788 3864,-1808 8026,-3084 12390,-3742 -6154,2617 -11572,7224 -15210,13521zm26122 -13863c4425,383 8668,1396 12645,2951 -6647,-815 -13658,466 -19964,4104 -14546,8401 -20070,26319 -12925,40808 -366,-551 -717,-1115 -1049,-1695 -8525,-14765 -3161,-33819 11983,-42562 2984,-1720 6124,-2915 9311,-3606zm31658 16951c-5339,-4010 -12032,-6393 -19294,-6393 -16798,0 -30542,12761 -31591,28880 -46,-659 -66,-1322 -66,-1992 0,-17050 14172,-30872 31657,-30872 3446,0 6764,534 9868,1530 3548,2491 6721,5471 9426,8846zm9528 21692c-2621,-6153 -7228,-11571 -13526,-15205 -14546,-8401 -32827,-4223 -41800,9212 292,-593 604,-1181 942,-1758 8526,-14769 27711,-19650 42850,-10907 2993,1729 5598,3856 7796,6277 1803,3861 3080,8023 3738,12381zm342 10908l0 4c-383,4425 -1400,8673 -2956,12649 816,-6651 -460,-13661 -4104,-19968 -8397,-14546 -26318,-20070 -40804,-12920 549,-370 1111,-721 1692,-1055 14765,-8524 33823,-3161 42566,11983 1720,2980 2915,6121 3606,9307zm-6577 12369c0,3445 -535,6767 -1531,9871 -5,0 -5,4 -5,4l0 4c-2490,3548 -5474,6722 -8849,9426 4013,-5343 6400,-12036 6400,-19305 0,-16798 -12756,-30538 -28875,-31592 658,-45 1321,-66 1992,-66 17050,0 30869,14177 30869,31658zm-13411 17288c-1730,2993 -3862,5603 -6282,7800 -3861,1803 -8018,3080 -12373,3733 6149,-2621 11571,-7227 15205,-13525 8397,-14547 4223,-32827 -9213,-41801 594,292 1178,605 1758,943 14766,8525 19647,27710 10905,42849zm-20256 8269c-2985,1720 -6126,2915 -9307,3606l-4 0c-4425,-383 -8669,-1396 -12646,-2951 6648,815 13658,-466 19964,-4104 14547,-8402 20071,-26319 12921,-40808 366,548 717,1111 1055,1691 8525,14765 3157,33824 -11983,42566zm9977 -33840c0,17050 -14172,30869 -31657,30869 -3446,0 -6768,-535 -9872,-1532 -3547,-2490 -6717,-5470 -9422,-8845 5344,4010 12028,6392 19294,6392 16798,0 30542,-12756 31596,-28875 40,659 61,1322 61,1992zm-5153 4796c-291,593 -604,1177 -938,1758 -8525,14765 -27710,19647 -42854,10904 -2988,-1726 -5598,-3853 -7792,-6270 -1802,-3864 -3079,-8023 -3738,-12385 2622,6154 7228,11571 13522,15205 14547,8401 32827,4223 41800,-9212zm-7804 3335c-548,365 -1111,716 -1691,1054 -14766,8525 -33824,3157 -42563,-11983 -1720,-2985 -2914,-6125 -3606,-9311 384,-4425 1396,-8668 2952,-12645 -816,6647 460,13658 4104,19964 8397,14546 26319,20070 40804,12921z"/>
 </g>
</svg>
