<?xml version="1.0" encoding="UTF-8"?>
<!DOCTYPE svg PUBLIC "-//W3C//DTD SVG 1.0//EN" "http://www.w3.org/TR/2001/REC-SVG-20010904/DTD/svg10.dtd">
<!-- Creator: CorelDRAW -->
<svg xmlns="http://www.w3.org/2000/svg" xml:space="preserve" width="9mm" height="9.0001mm" version="1.0" style="shape-rendering:geometricPrecision; text-rendering:geometricPrecision; image-rendering:optimizeQuality; fill-rule:evenodd; clip-rule:evenodd"
viewBox="0 0 165549 165551"
 xmlns:xlink="http://www.w3.org/1999/xlink"
 xmlns:xodm="http://www.corel.com/coreldraw/odm/2003">
 <defs>
  <style type="text/css">
   <![CDATA[
    .fil0 {fill:#00A0E3;fill-rule:nonzero}
   ]]>
  </style>
 </defs>
 <g id="Layer_x0020_1">
  <metadata id="CorelCorpID_0Corel-Layer"/>
  <path class="fil0" d="M68355 165551c-1492,0 -2996,-63 -4507,-195 -10967,-960 -21286,-5467 -29052,-12687 -7681,-7144 -12436,-16509 -13389,-26372l-53 -539 353 416c7911,9407 19803,15444 32633,16568 1488,132 2965,195 4429,195 23396,0 43175,-16308 45075,-38021 204,-2316 191,-4705 -40,-7098l-50 -544 349 418c7126,8476 10545,18965 9615,29530 -982,11270 -6718,21440 -16139,28644 -8270,6318 -18507,9686 -29225,9686zm44775 -7157c-2851,0 -5689,-309 -8469,-920l-532 -118 504 -204c11393,-4619 20815,-14061 25848,-25914 9915,-23348 635,-49711 -20684,-58764 -2145,-905 -4420,-1632 -6769,-2152l-530 -118 504 -204c10264,-4157 21299,-4166 31061,-18 10419,4420 18321,13014 22261,24201 3940,11176 3442,23611 -1396,35001 -4302,10135 -11774,18554 -21047,23707 -6534,3631 -13682,5504 -20751,5504zm46635 -69981l-37 -544c-870,-12256 -6946,-24133 -16667,-32582 -19145,-16643 -47088,-15968 -62289,1510l-127 -114 127 114c-1523,1753 -2919,3699 -4139,5770l-278 467 -35 -541c-785,-11046 2616,-21540 9580,-29545 7420,-8539 18039,-13398 29900,-13689 11861,-280 23524,4027 32865,12149 8311,7220 14009,16928 16045,27332 2016,10293 357,20664 -4670,29205l-276 467zm-98306 -2743l-526 -127c-10750,-2671 -19680,-9147 -25145,-18240 -12023,-20013 -3981,-47001 17927,-60159 9440,-5671 20438,-8088 30967,-6810 10409,1266 19761,6048 26331,13463l362 408 -530 -132c-11929,-2960 -25105,-852 -36143,5776 -10538,6331 -18196,16027 -21558,27304 -3361,11274 -2033,22778 3745,32392 1201,1994 2616,3916 4210,5721l359 403zm-17224 40894c-19671,0 -37929,-14931 -42938,-36634 -2476,-10729 -1380,-21930 3090,-31548 4422,-9510 11861,-16925 20947,-20878l498 -217 -285 462c-6506,10430 -8574,23607 -5676,36154 5702,24716 28708,40591 51276,35383 2272,-522 4538,-1275 6742,-2235l504 -219 -291 464c-5857,9396 -14780,15887 -25117,18271 -2923,675 -5853,997 -8750,997z"/>
 </g>
</svg>
