<?xml version="1.0" encoding="UTF-8"?>
<!DOCTYPE svg PUBLIC "-//W3C//DTD SVG 1.0//EN" "http://www.w3.org/TR/2001/REC-SVG-20010904/DTD/svg10.dtd">
<!-- Creator: CorelDRAW -->
<svg xmlns="http://www.w3.org/2000/svg" xml:space="preserve" width="9.0001mm" height="9.0001mm" version="1.0" style="shape-rendering:geometricPrecision; text-rendering:geometricPrecision; image-rendering:optimizeQuality; fill-rule:evenodd; clip-rule:evenodd"
viewBox="0 0 907258 907258"
 xmlns:xlink="http://www.w3.org/1999/xlink"
 xmlns:xodm="http://www.corel.com/coreldraw/odm/2003">
 <defs>
  <style type="text/css">
   <![CDATA[
    .fil0 {fill:#00A0E3;fill-rule:nonzero}
   ]]>
  </style>
 </defs>
 <g id="Layer_x0020_1">
  <metadata id="CorelCorpID_0Corel-Layer"/>
  <path class="fil0" d="M843015 220814c-8992,11038 -18044,22036 -27086,33074 -131954,-113537 -270733,-101319 -423544,-9607 -19899,12520 -78941,50655 -31179,3629 158657,-141027 345672,-133698 481809,-27096zm-168577 -163506c-2268,14062 -4607,28105 -6925,42197 -171036,-32359 -285118,47610 -371599,203445 -10978,20796 -43034,83326 -25191,18730 66894,-201459 232518,-288616 403715,-264372zm-227739 -57308c5060,13316 10060,26643 15101,40000 -164303,57499 -223122,183788 -220098,361992 897,23498 4405,93688 -12449,28820 -42792,-207921 57056,-366216 217447,-430812zm-225885 64243c11038,8992 22026,18044 33074,27086 -113547,131944 -101330,270733 -9617,423544 12530,19909 50655,78931 3639,31179 -141027,-158657 -133698,-345672 -27096,-481809zm-163506 168567c14062,2278 28105,4617 42187,6935 -32359,171026 47610,285118 203445,371599 20796,10978 83336,43034 18740,25191 -201459,-66894 -288616,-232518 -264372,-403725zm-57308 227749c13306,-5060 26643,-10060 40000,-15101 57489,164303 183788,223122 361982,220098 23508,-897 93688,-4395 28820,12449 -207911,42792 -366195,-57056 -430802,-217447zm64233 225885c9002,-11038 18044,-22036 27096,-33074 131944,113537 270723,101330 423534,9617 19909,-12530 78941,-50655 31189,-3639 -158657,141027 -345672,133698 -481819,27096zm168577 163506c2268,-14062 4617,-28105 6925,-42197 171036,32359 285118,-47600 371599,-203435 10978,-20806 43034,-83336 25191,-18740 -66894,201459 -232518,288616 -403715,264372zm227739 57308c-5060,-13306 -10050,-26643 -15091,-40000 164303,-57499 223112,-183798 220088,-361992 -897,-23498 -4395,-93688 12449,-28810 42792,207911 -57056,366195 -217447,430802zm225885 -64243c-11038,-8992 -22026,-18044 -33064,-27086 113537,-131944 101319,-270723 9607,-423534 -12530,-19909 -50655,-78941 -3629,-31189 141017,158657 133688,345672 27086,481809zm163516 -168567c-14062,-2278 -28115,-4617 -42197,-6925 32359,-171036 -47610,-285128 -203445,-371609 -20796,-10968 -83336,-43034 -18730,-25181 201449,66894 288616,232507 264372,403715zm57308 -227749c-13316,5071 -26653,10060 -40010,15101 -57489,-164303 -183788,-223112 -361982,-220088 -23508,887 -93688,4395 -28820,-12449 207911,-42792 366206,57056 430812,217437z"/>
 </g>
</svg>
