<?xml version="1.0" encoding="UTF-8"?>
<!DOCTYPE svg PUBLIC "-//W3C//DTD SVG 1.0//EN" "http://www.w3.org/TR/2001/REC-SVG-20010904/DTD/svg10.dtd">
<!-- Creator: CorelDRAW -->
<svg xmlns="http://www.w3.org/2000/svg" xml:space="preserve" width="8.7147mm" height="9.0001mm" version="1.0" style="shape-rendering:geometricPrecision; text-rendering:geometricPrecision; image-rendering:optimizeQuality; fill-rule:evenodd; clip-rule:evenodd"
viewBox="0 0 242196 250128"
 xmlns:xlink="http://www.w3.org/1999/xlink"
 xmlns:xodm="http://www.corel.com/coreldraw/odm/2003">
 <defs>
  <style type="text/css">
   <![CDATA[
    .fil0 {fill:#00A0E3;fill-rule:nonzero}
   ]]>
  </style>
 </defs>
 <g id="Layer_x0020_1">
  <metadata id="CorelCorpID_0Corel-Layer"/>
  <path class="fil0" d="M8740 69546c3304,11 18784,-2543 22097,-2521 -1248,40367 9021,66217 47857,80415 5164,1768 20652,6856 5203,5100 -48585,-8065 -74537,-42880 -75157,-82994zm43519 -44570c2946,1492 17928,6148 20880,7654 -19215,35526 -21625,63232 6723,93338 3824,3894 15385,15388 2365,6887 -39814,-28990 -47402,-71747 -29968,-107879zm60742 -24976c1642,2871 11595,14996 13229,17878 -35582,19104 -52832,40921 -45712,81652 1053,5355 4388,21316 -1815,7056 -17306,-46112 -131,-85993 34298,-106587zm60355 15405c183,3299 3641,18601 3813,21908 -40373,1123 -65575,12890 -77472,52493 -1459,5258 -5633,21019 -4783,5492 5203,-48977 38433,-76925 78442,-79893zm52001 40117c-1665,2854 -7190,17537 -8866,20394 -34337,-21263 -61856,-25293 -93572,1240 -4110,3588 -16264,14457 -7015,1957 31277,-38044 74404,-43113 109452,-23590zm16839 59969c-2768,1806 -14290,12453 -17070,14257 -21158,-34401 -43950,-50345 -84195,-40845 -5283,1365 -21019,5631 -7148,-1398 45017,-19982 85837,-5178 108413,27986zm-8740 65094c-3307,-14 -18784,2540 -22097,2521 1248,-40370 -9021,-66217 -47857,-80418 -5164,-1765 -20655,-6856 -5203,-5097 48585,8065 74537,42880 75157,82994zm-43519 44570c-2949,-1495 -17928,-6150 -20880,-7657 19212,-35523 21625,-63232 -6723,-93336 -3824,-3894 -15388,-15388 -2365,-6890 39814,28992 47402,71747 29968,107882zm-60742 24974c-1642,-2868 -11595,-14996 -13229,-17876 35582,-19104 52832,-40921 45712,-81655 -1053,-5353 -4388,-21313 1812,-7054 17309,46109 133,85993 -34295,106584zm-60355 -15402c-183,-3299 -3641,-18601 -3813,-21911 40370,-1123 65575,-12890 77472,-52490 1459,-5258 5633,-21019 4780,-5494 -5200,48977 -38430,76925 -78439,79896zm-52001 -40117c1662,-2854 7190,-17539 8866,-20396 34337,21263 61856,25296 93572,-1237 4110,-3591 16264,-14457 7015,-1957 -31277,38044 -74404,43110 -109452,23590zm-16839 -59972c2765,-1806 14288,-12453 17067,-14254 21161,34401 43953,50342 84195,40845 5286,-1365 21019,-5631 7148,1395 -45014,19985 -85835,5178 -108410,-27986z"/>
 </g>
</svg>
