<?xml version="1.0" encoding="UTF-8"?>
<!DOCTYPE svg PUBLIC "-//W3C//DTD SVG 1.0//EN" "http://www.w3.org/TR/2001/REC-SVG-20010904/DTD/svg10.dtd">
<!-- Creator: CorelDRAW -->
<svg xmlns="http://www.w3.org/2000/svg" xml:space="preserve" width="9mm" height="9.0001mm" version="1.0" style="shape-rendering:geometricPrecision; text-rendering:geometricPrecision; image-rendering:optimizeQuality; fill-rule:evenodd; clip-rule:evenodd"
viewBox="0 0 113969 113971"
 xmlns:xlink="http://www.w3.org/1999/xlink"
 xmlns:xodm="http://www.corel.com/coreldraw/odm/2003">
 <defs>
  <style type="text/css">
   <![CDATA[
    .fil0 {fill:#00A0E3;fill-rule:nonzero}
   ]]>
  </style>
 </defs>
 <g id="Layer_x0020_1">
  <metadata id="CorelCorpID_0Corel-Layer"/>
  <path class="fil0" d="M25538 106127c13788,10090 33579,9955 48141,1392 10247,-5874 18662,-16027 19765,-28173 1760,-16358 -9064,-31382 -26571,-27613 -2759,688 -5353,1778 -7704,3210 7291,-2040 16133,-2212 21748,3486 6824,7008 7099,18297 3629,27059 -8589,22073 -38242,31620 -59007,20640zm-25538 -36630c2615,16885 16705,30783 33057,35025 11399,3092 24527,1863 33897,-5945 12810,-10323 15780,-28599 736,-38314 -2436,-1466 -5041,-2529 -7718,-3178 6600,3713 12972,9843 12914,17843 -130,9781 -7918,17959 -16567,21700 -21682,9535 -49399,-4683 -56319,-27130zm7844 -43960c-10091,13789 -9955,33582 -1392,48143 5873,10247 16027,18662 28172,19765 16358,1759 31381,-9064 27613,-26571 -686,-2761 -1777,-5354 -3210,-7706 2041,7293 2212,16133 -3485,21748 -7009,6824 -18298,7100 -27059,3629 -22075,-8589 -31620,-38242 -20640,-59008zm36628 -25537c-16885,2615 -30783,16705 -35025,33057 -3092,11399 -1863,24529 5945,33897 10323,12811 28599,15781 38314,736 1466,-2436 2528,-5041 3178,-7717 -3713,6599 -9843,12971 -17843,12914 -9781,-132 -17959,-7920 -21700,-16567 -9535,-21683 4682,-49401 27130,-56320zm43959 7844c-13789,-10091 -33579,-9955 -48142,-1392 -10247,5873 -18662,16027 -19765,28172 -1759,16360 9064,31382 26571,27613 2761,-686 5353,-1777 7706,-3210 -7291,2041 -16133,2214 -21749,-3485 -6823,-7009 -7099,-18298 -3628,-27059 8588,-22075 38242,-31620 59007,-20640zm25538 36630c-2615,-16885 -16707,-30784 -33057,-35025 -11399,-3092 -24529,-1864 -33897,5945 -12811,10322 -15780,28599 -737,38314 2438,1466 5041,2529 7718,3178 -6599,-3714 -12971,-9843 -12914,-17843 130,-9781 7920,-17959 16567,-21700 21682,-9537 49401,4682 56320,27130zm-7844 43958c10090,-13788 9955,-33579 1392,-48141 -5874,-10248 -16027,-18663 -28172,-19766 -16360,-1759 -31382,9066 -27613,26571 685,2761 1777,5354 3210,7706 -2041,-7291 -2212,-16133 3485,-21748 7008,-6824 18298,-7100 27059,-3629 22073,8589 31620,38242 20640,59007zm-36630 25539c16885,-2615 30783,-16707 35025,-33057 3092,-11399 1863,-24529 -5945,-33897 -10323,-12811 -28600,-15781 -38314,-737 -1466,2438 -2529,5041 -3178,7718 3713,-6600 9843,-12971 17843,-12914 9781,130 17959,7918 21700,16567 9535,21682 -4683,49401 -27130,56320z"/>
 </g>
</svg>
