<?xml version="1.0" encoding="UTF-8"?>
<!DOCTYPE svg PUBLIC "-//W3C//DTD SVG 1.0//EN" "http://www.w3.org/TR/2001/REC-SVG-20010904/DTD/svg10.dtd">
<!-- Creator: CorelDRAW -->
<svg xmlns="http://www.w3.org/2000/svg" xml:space="preserve" width="9.0001mm" height="9.0001mm" version="1.0" style="shape-rendering:geometricPrecision; text-rendering:geometricPrecision; image-rendering:optimizeQuality; fill-rule:evenodd; clip-rule:evenodd"
viewBox="0 0 72928 72928"
 xmlns:xlink="http://www.w3.org/1999/xlink"
 xmlns:xodm="http://www.corel.com/coreldraw/odm/2003">
 <defs>
  <style type="text/css">
   <![CDATA[
    .fil0 {fill:#00A0E3;fill-rule:nonzero}
   ]]>
  </style>
 </defs>
 <g id="Layer_x0020_1">
  <metadata id="CorelCorpID_0Corel-Layer"/>
  <path class="fil0" d="M45365 59312c-5170,6465 -14037,9356 -22131,8186 -893,-97 -2186,-419 -3065,-605 -481,-147 -1729,-543 -2223,-698 -1399,-506 -2885,-1203 -4166,-1975 -4289,-2458 -7883,-6453 -9707,-10889 4599,5213 10775,8447 17599,8857 7264,465 13950,-2561 19585,-6932 2728,-2151 6221,1323 4108,4056zm13550 -12987c916,8227 -3311,16541 -9861,21437 -702,562 -1843,1249 -2596,1739 -444,237 -1607,839 -2065,1079 -1348,632 -2892,1189 -4343,1550 -4771,1294 -10138,1010 -14563,-836 6938,434 13591,-1647 18707,-6181 5465,-4807 8054,-11676 8948,-18751 408,-3449 5334,-3463 5773,-36zm398 -18764c6464,5170 9355,14037 8186,22131 -98,894 -420,2187 -606,3065 -147,482 -543,1730 -698,2223 -506,1399 -1204,2885 -1976,4167 -2458,4289 -6453,7883 -10889,9707 5213,-4599 8447,-10775 8857,-17599 465,-7264 -2561,-13951 -6932,-19586 -2151,-2727 1323,-6221 4057,-4108zm-12987 -13549c8227,-916 16541,3310 21437,9861 563,701 1249,1843 1739,2595 237,445 839,1608 1079,2066 631,1348 1190,2891 1549,4342 1295,4771 1012,10138 -835,14563 434,-6938 -1647,-13592 -6181,-18707 -4807,-5465 -11676,-8054 -18751,-8947 -3449,-408 -3463,-5334 -36,-5773zm-18763 -398c5170,-6464 14036,-9355 22131,-8186 894,98 2186,420 3065,605 482,147 1730,543 2223,698 1399,506 2885,1204 4167,1975 4289,2459 7884,6454 9707,10889 -4598,-5212 -10775,-8447 -17598,-8857 -7264,-465 -13951,2561 -19586,6932 -2728,2150 -6221,-1323 -4108,-4057zm-13550 12987c-915,-8226 3311,-16541 9861,-21436 701,-563 1843,-1249 2595,-1740 444,-237 1607,-839 2066,-1079 1347,-631 2891,-1189 4342,-1549 4772,-1294 10138,-1011 14563,836 -6938,-434 -13592,1647 -18707,6181 -5465,4807 -8054,11676 -8947,18751 -409,3449 -5335,3463 -5774,36zm-397 18764c-6465,-5170 -9355,-14037 -8186,-22131 97,-894 420,-2187 605,-3065 147,-482 543,-1729 698,-2223 506,-1399 1204,-2886 1975,-4167 2458,-4290 6453,-7884 10889,-9707 -5213,4599 -8447,10775 -8857,17599 -465,7264 2561,13951 6932,19587 2151,2727 -1322,6221 -4056,4107zm12987 13550c-8227,915 -16541,-3311 -21437,-9861 -562,-701 -1249,-1843 -1739,-2595 -237,-444 -839,-1607 -1079,-2066 -631,-1347 -1189,-2891 -1549,-4342 -1295,-4771 -1011,-10138 835,-14563 -434,6938 1647,13592 6181,18707 4807,5465 11676,8054 18751,8947 3449,409 3463,5334 36,5774z"/>
 </g>
</svg>
