<?xml version="1.0" encoding="UTF-8"?>
<!DOCTYPE svg PUBLIC "-//W3C//DTD SVG 1.0//EN" "http://www.w3.org/TR/2001/REC-SVG-20010904/DTD/svg10.dtd">
<!-- Creator: CorelDRAW -->
<svg xmlns="http://www.w3.org/2000/svg" xml:space="preserve" width="8.9176mm" height="9mm" version="1.0" style="shape-rendering:geometricPrecision; text-rendering:geometricPrecision; image-rendering:optimizeQuality; fill-rule:evenodd; clip-rule:evenodd"
viewBox="0 0 52611 53097"
 xmlns:xlink="http://www.w3.org/1999/xlink"
 xmlns:xodm="http://www.corel.com/coreldraw/odm/2003">
 <defs>
  <style type="text/css">
   <![CDATA[
    .fil0 {fill:#00A0E3;fill-rule:nonzero}
   ]]>
  </style>
 </defs>
 <g id="Layer_x0020_1">
  <metadata id="CorelCorpID_0Corel-Layer"/>
  <path class="fil0" d="M11133 32609c-560,-2219 -650,-4452 -339,-6592 85,-797 231,-1581 427,-2354 -345,1036 -618,2129 -811,3274 -1297,7674 3700,18267 6756,21956 4419,5334 10387,4619 18190,3110 630,-122 1172,-405 1674,-618 -5189,407 -10367,-847 -14875,-3648 -5511,-3425 -9426,-8798 -11022,-15129zm198 -12603c1159,-1969 2660,-3612 4379,-4904 619,-502 1272,-953 1951,-1359 -970,487 -1928,1064 -2867,1736 -6293,4501 -10183,15558 -10606,20347 -612,6926 4109,10679 10684,15180 532,365 1112,552 1617,759 -3954,-3416 -6737,-7998 -7963,-13196 -1497,-6355 -501,-12948 2806,-18563zm8970 -8771c2199,-565 4411,-655 6532,-342 789,87 1567,233 2332,430 -1027,-348 -2109,-623 -3244,-818 -7603,-1309 -18101,3734 -21756,6818 -5285,4461 -4576,10483 -3081,18359 120,637 400,1183 612,1690 -403,-5237 839,-10463 3615,-15013 3393,-5561 8716,-9513 14989,-11123zm12488 199c1950,1170 3579,2684 4859,4419 497,624 945,1284 1347,1969 -483,-979 -1055,-1946 -1720,-2893 -4460,-6351 -15415,-10277 -20160,-10704 -6862,-618 -10581,4147 -15041,10783 -361,536 -546,1123 -752,1631 3384,-3991 7924,-6799 13075,-8037 6296,-1511 12828,-506 18393,2832zm8690 9053c560,2219 650,4451 339,6592 -85,796 -231,1581 -426,2353 344,-1036 617,-2128 811,-3274 1297,-7673 -3700,-18268 -6756,-21956 -4419,-5334 -10387,-4619 -18190,-3110 -631,122 -1173,405 -1674,617 5189,-406 10367,848 14875,3648 5511,3425 9426,8798 11022,15129zm-198 12603c-1159,1968 -2659,3611 -4379,4903 -619,503 -1272,954 -1951,1360 970,-487 1928,-1064 2867,-1736 6293,-4501 10183,-15557 10606,-20347 612,-6926 -4109,-10679 -10684,-15181 -531,-363 -1113,-551 -1617,-758 3954,3415 6737,7998 7963,13196 1498,6354 502,12947 -2806,18563zm-8970 8770c-2199,565 -4411,656 -6532,343 -790,-86 -1568,-233 -2332,-431 1027,347 2109,624 3243,818 7603,1309 18101,-3733 21756,-6818 5285,-4460 4576,-10484 3081,-18358 -121,-637 -400,-1184 -612,-1690 404,5237 -839,10463 -3614,15013 -3394,5563 -8717,9514 -14990,11124zm-12488 -199c-1950,-1170 -3578,-2684 -4858,-4420 -498,-625 -945,-1284 -1347,-1969 483,979 1054,1945 1720,2894 4459,6352 15415,10277 20161,10704 6862,618 10581,-4146 15041,-10782 361,-537 547,-1123 752,-1631 -3384,3991 -7925,6800 -13075,8036 -6297,1511 -12829,506 -18393,-2831z"/>
 </g>
</svg>
