<?xml version="1.0" encoding="UTF-8"?>
<!DOCTYPE svg PUBLIC "-//W3C//DTD SVG 1.0//EN" "http://www.w3.org/TR/2001/REC-SVG-20010904/DTD/svg10.dtd">
<!-- Creator: CorelDRAW -->
<svg xmlns="http://www.w3.org/2000/svg" xml:space="preserve" width="8.9451mm" height="9.0001mm" version="1.0" style="shape-rendering:geometricPrecision; text-rendering:geometricPrecision; image-rendering:optimizeQuality; fill-rule:evenodd; clip-rule:evenodd"
viewBox="0 0 41865 42122"
 xmlns:xlink="http://www.w3.org/1999/xlink"
 xmlns:xodm="http://www.corel.com/coreldraw/odm/2003">
 <defs>
  <style type="text/css">
   <![CDATA[
    .fil0 {fill:#00A0E3;fill-rule:nonzero}
   ]]>
  </style>
 </defs>
 <g id="Layer_x0020_1">
  <metadata id="CorelCorpID_0Corel-Layer"/>
  <path class="fil0" d="M20889 2c-1396,-70 -1302,1668 -1274,2605 69,2293 324,4556 941,6769 41,148 265,148 314,26 113,0 227,-57 263,-185 581,-2095 827,-4388 1089,-6545 123,-1018 52,-2601 -1332,-2670zm5041 600c-1338,-400 -1663,1308 -1861,2226 -482,2243 -776,4500 -706,6797 4,154 221,209 298,100 110,29 234,0 299,-117 1064,-1895 1854,-4063 2623,-6095 363,-959 673,-2512 -654,-2912zm4751 1791c-1204,-709 -1928,871 -2340,1716 -1005,2062 -1830,4184 -2312,6431 -33,151 165,256 266,168 99,54 227,57 318,-42 1486,-1585 2773,-3501 4005,-5290 582,-844 1254,-2278 62,-2983zm4184 2876c-999,-976 -2081,385 -2682,1106 -1469,1762 -2779,3624 -3784,5690 -68,139 99,288 218,227 83,76 207,109 319,36 1822,-1183 3530,-2736 5154,-4177 768,-681 1763,-1912 775,-2882zm3374 3793c-737,-1187 -2113,-124 -2869,432 -1848,1359 -3565,2854 -5036,4619 -99,118 28,304 158,273 63,94 175,155 301,111 2053,-713 4082,-1812 6004,-2822 908,-477 2170,-1434 1442,-2612zm2369 4491c-431,-1329 -2021,-627 -2889,-268 -2120,877 -4145,1917 -5995,3280 -124,91 -46,301 88,303 39,106 132,192 266,180 2164,-201 4397,-783 6505,-1303 996,-246 2450,-873 2025,-2191zm1225 4927c-100,-1394 -1812,-1092 -2741,-951 -2268,344 -4483,870 -6606,1750 -143,59 -117,282 13,315 12,112 82,219 215,238 2149,323 4456,293 6628,291 1026,0 2588,-262 2490,-1643zm10 5077c236,-1377 -1498,-1494 -2433,-1580 -2284,-208 -4561,-228 -6833,118 -153,23 -181,246 -63,308 -15,112 28,232 152,283 2009,828 4257,1350 6366,1869 996,245 2575,365 2811,-999zm-1205 4932c559,-1281 -1097,-1810 -1984,-2116 -2168,-749 -4375,-1313 -6663,-1520 -154,-14 -234,196 -135,285 -41,105 -28,232 80,311 1753,1285 3810,2330 5734,3338 908,476 2413,971 2969,-297zm-2350 4500c849,-1109 -632,-2020 -1420,-2530 -1926,-1246 -3933,-2321 -6105,-3071 -146,-50 -274,134 -199,244 -65,92 -83,219 3,321 1394,1667 3141,3174 4768,4613 768,680 2111,1520 2954,422zm-3359 3807c1090,-874 -131,-2112 -774,-2796 -1572,-1671 -3264,-3195 -5193,-4442 -129,-84 -298,65 -252,190 -85,74 -133,192 -73,312 954,1953 2290,3834 3525,5620 583,844 1686,1981 2767,1116zm-4172 2892c1267,-587 379,-2082 -82,-2900 -1127,-1998 -2404,-3883 -3979,-5556 -105,-112 -305,-9 -290,124 -101,51 -175,155 -146,285 459,2124 1306,4270 2078,6301 364,959 1163,2327 2419,1746zm-4743 1810c1371,-267 865,-1931 614,-2835 -615,-2210 -1405,-4346 -2534,-6346 -75,-134 -293,-81 -311,51 -110,26 -207,109 -210,242 -62,2173 246,4459 509,6615 124,1018 572,2537 1932,2274zm-5039 622c1395,69 1302,-1668 1275,-2606 -69,-2293 -324,-4556 -941,-6768 -41,-148 -266,-149 -314,-25 -113,-1 -227,56 -262,184 -580,2095 -828,4388 -1089,6545 -123,1018 -52,2600 1331,2670zm-5041 -602c1338,401 1664,-1307 1861,-2225 482,-2243 776,-4501 706,-6797 -5,-154 -222,-208 -299,-100 -109,-28 -234,0 -299,117 -1065,1895 -1854,4062 -2623,6095 -363,959 -673,2512 653,2911zm-4750 -1791c1203,710 1928,-871 2340,-1715 1005,-2063 1830,-4185 2312,-6431 32,-151 -166,-256 -267,-168 -99,-53 -227,-56 -318,42 -1487,1585 -2772,3500 -4005,5290 -582,844 -1254,2278 -62,2982zm-4184 -2876c999,978 2081,-384 2682,-1105 1469,-1762 2779,-3625 3784,-5690 67,-139 -100,-288 -219,-227 -83,-75 -206,-108 -319,-35 -1823,1183 -3529,2735 -5154,4177 -768,681 -1763,1912 -775,2881zm-3374 -3793c736,1188 2112,125 2868,-431 1848,-1359 3565,-2854 5036,-4619 98,-118 -29,-303 -158,-273 -63,-93 -175,-154 -301,-110 -2053,712 -4081,1811 -6004,2822 -908,477 -2170,1434 -1441,2612zm-2368 -4490c430,1330 2021,627 2888,268 2120,-877 4145,-1918 5995,-3279 124,-91 45,-301 -88,-303 -39,-105 -133,-191 -266,-179 -2164,200 -4396,782 -6505,1303 -996,246 -2450,873 -2024,2191zm-1225 -4926c99,1394 1812,1092 2740,951 2268,-344 4484,-871 6606,-1749 142,-59 116,-281 -13,-315 -13,-112 -83,-218 -216,-238 -2149,-323 -4455,-293 -6628,-291 -1026,0 -2588,262 -2489,1643zm-10 -5077c-238,1377 1498,1494 2432,1579 2285,208 4562,228 6833,-117 152,-23 179,-246 63,-309 14,-112 -29,-231 -153,-283 -2009,-828 -4256,-1350 -6366,-1869 -996,-245 -2575,-365 -2810,999zm1205 -4932c-560,1280 1097,1809 1984,2115 2168,749 4375,1313 6663,1521 153,14 233,-196 135,-285 40,-105 27,-232 -80,-311 -1753,-1285 -3809,-2329 -5734,-3338 -908,-476 -2413,-971 -2968,298zm2350 -4500c-850,1109 632,2019 1420,2529 1926,1246 3933,2322 6105,3072 145,50 272,-134 199,-244 64,-93 82,-219 -4,-322 -1394,-1668 -3141,-3173 -4768,-4613 -768,-680 -2111,-1520 -2953,-421zm3359 -3807c-1091,873 131,2112 774,2795 1572,1671 3264,3196 5193,4443 129,83 297,-65 252,-189 84,-75 132,-193 73,-313 -954,-1953 -2290,-3833 -3525,-5620 -583,-844 -1686,-1981 -2766,-1116zm4172 -2892c-1268,587 -378,2082 82,2899 1127,1999 2404,3884 3979,5557 105,112 303,8 290,-123 100,-52 174,-156 146,-286 -459,-2125 -1306,-4269 -2078,-6301 -364,-959 -1163,-2327 -2419,-1745zm4743 -1810c-1372,266 -865,1931 -614,2834 615,2210 1405,4346 2533,6347 75,134 293,80 311,-50 110,-27 206,-110 210,-243 63,-2173 -247,-4458 -509,-6615 -124,-1017 -572,-2538 -1932,-2273z"/>
 </g>
</svg>
