<?xml version="1.0" encoding="UTF-8"?>
<!DOCTYPE svg PUBLIC "-//W3C//DTD SVG 1.0//EN" "http://www.w3.org/TR/2001/REC-SVG-20010904/DTD/svg10.dtd">
<!-- Creator: CorelDRAW -->
<svg xmlns="http://www.w3.org/2000/svg" xml:space="preserve" width="8.9998mm" height="9mm" version="1.0" style="shape-rendering:geometricPrecision; text-rendering:geometricPrecision; image-rendering:optimizeQuality; fill-rule:evenodd; clip-rule:evenodd"
viewBox="0 0 35052 35053"
 xmlns:xlink="http://www.w3.org/1999/xlink"
 xmlns:xodm="http://www.corel.com/coreldraw/odm/2003">
 <defs>
  <style type="text/css">
   <![CDATA[
    .fil0 {fill:#00A0E3;fill-rule:nonzero}
   ]]>
  </style>
 </defs>
 <g id="Layer_x0020_1">
  <metadata id="CorelCorpID_0Corel-Layer"/>
  <path class="fil0" d="M7844 31454l-40 -14c-1091,-384 -2047,-955 -2842,-1699 -824,-770 -1434,-1687 -1813,-2728 -367,-1007 -494,-2066 -380,-3149 111,-1046 442,-2070 985,-3043 542,-973 1269,-1847 2159,-2595 921,-777 1978,-1385 3142,-1809 1487,-542 3074,-742 4589,-581 1469,156 2851,648 3996,1421l35 24 -40 -13c-2089,-736 -4460,-697 -6675,111 -2300,838 -4181,2400 -5295,4399 -1114,1998 -1329,4194 -604,6183 510,1399 1461,2599 2749,3469l35 24zm9183 3600c-1037,0 -2031,-219 -2959,-652 -971,-452 -1811,-1112 -2495,-1958 -661,-818 -1151,-1777 -1456,-2847 -305,-1072 -409,-2203 -309,-3363 102,-1200 420,-2378 943,-3501 668,-1434 1648,-2698 2834,-3656 1149,-929 2474,-1558 3831,-1820l42 -8 -39 19c-1997,957 -3646,2662 -4641,4798 -2134,4581 -648,9809 3312,11654 1350,629 2870,806 4397,511l42 -9 -39 19c-1043,500 -2123,772 -3211,809 -84,2 -168,4 -251,4zm7603 -2728c-254,0 -509,-14 -766,-41 -1046,-111 -2070,-442 -3043,-985 -973,-543 -1847,-1269 -2596,-2159 -776,-921 -1384,-1979 -1808,-3142 -541,-1487 -743,-3073 -581,-4589 157,-1469 648,-2851 1422,-3996l24 -35 -14 41c-735,2089 -696,4460 111,6675 1730,4749 6477,7395 10583,5899 1399,-511 2599,-1461 3470,-2749l24 -35 -14 40c-384,1091 -955,2047 -1699,2842 -770,825 -1688,1434 -2728,1813 -768,280 -1567,420 -2383,420zm2448 -7043c-280,0 -561,-12 -844,-37 -1200,-102 -2378,-420 -3501,-943 -1434,-668 -2698,-1648 -3656,-2833 -929,-1150 -1558,-2475 -1820,-3831l-8 -42 18 39c957,1997 2661,3645 4799,4641 1420,661 2902,975 4326,975 3171,0 6054,-1554 7328,-4287 629,-1351 805,-2871 510,-4398l-8 -42 18 39c500,1043 772,2123 809,3210 38,1127 -180,2208 -647,3211 -453,972 -1112,1811 -1958,2496 -818,661 -1776,1151 -2848,1456 -809,229 -1653,345 -2517,345zm-4640 -6010c-345,0 -688,-18 -1027,-54 -1469,-157 -2851,-648 -3996,-1421l-35 -24 40 13c2089,735 4460,697 6675,-111 4749,-1729 7395,-6477 5899,-10583 -510,-1399 -1461,-2599 -2749,-3471l-35 -23 40 13c1091,384 2047,956 2843,1699 824,771 1434,1688 1813,2728 367,1006 494,2066 380,3149 -111,1046 -442,2069 -985,3043 -542,972 -1269,1847 -2158,2595 -922,777 -1979,1385 -3142,1809 -1154,420 -2368,635 -3562,635zm-4841 -1467l39 -19c1997,-957 3646,-2662 4641,-4799 1034,-2219 1259,-4653 633,-6854 -626,-2201 -2027,-3906 -3945,-4800 -1350,-629 -2870,-805 -4397,-509l-42 9 39 -19c1043,-500 2123,-771 3211,-809 84,-3 168,-4 251,-4 1037,0 2031,218 2959,652 971,452 1811,1111 2495,1958 661,818 1151,1777 1456,2848 305,1072 409,2203 309,3362 -102,1200 -420,2378 -943,3501 -668,1434 -1648,2698 -2834,3656 -1149,929 -2474,1558 -3831,1820l-42 8zm176 -131l14 -41c735,-2089 696,-4460 -111,-6675 -1730,-4749 -6477,-7395 -10583,-5899 -1399,511 -2599,1461 -3470,2749l-24 35 14 -40c384,-1092 955,-2047 1699,-2842 770,-825 1688,-1434 2728,-1813 1006,-367 2066,-494 3149,-379 1046,111 2070,442 3043,985 973,542 1847,1269 2596,2159 776,921 1385,1979 1808,3142 541,1487 743,3073 581,4589 -156,1469 -648,2851 -1422,3996l-24 35zm-16941 2854l-18 -39c-500,-1043 -772,-2123 -809,-3212 -38,-1127 180,-2207 647,-3211 453,-971 1112,-1810 1959,-2495 818,-661 1776,-1151 2848,-1456 1071,-305 2203,-409 3362,-309 1200,102 2378,420 3501,943 1434,668 2698,1648 3656,2833 929,1150 1558,2475 1820,3831l8 42 -18 -39c-957,-1997 -2662,-3646 -4799,-4641 -2219,-1035 -4654,-1259 -6854,-633 -2201,625 -3906,2026 -4800,3945 -629,1350 -805,2871 -510,4398l8 42z"/>
 </g>
</svg>
