<?xml version="1.0" encoding="UTF-8"?>
<!DOCTYPE svg PUBLIC "-//W3C//DTD SVG 1.0//EN" "http://www.w3.org/TR/2001/REC-SVG-20010904/DTD/svg10.dtd">
<!-- Creator: CorelDRAW -->
<svg xmlns="http://www.w3.org/2000/svg" xml:space="preserve" width="8.9999mm" height="9mm" version="1.0" style="shape-rendering:geometricPrecision; text-rendering:geometricPrecision; image-rendering:optimizeQuality; fill-rule:evenodd; clip-rule:evenodd"
viewBox="0 0 29881 29881"
 xmlns:xlink="http://www.w3.org/1999/xlink"
 xmlns:xodm="http://www.corel.com/coreldraw/odm/2003">
 <defs>
  <style type="text/css">
   <![CDATA[
    .fil0 {fill:#00A0E3;fill-rule:nonzero}
   ]]>
  </style>
 </defs>
 <g id="Layer_x0020_1">
  <metadata id="CorelCorpID_0Corel-Layer"/>
  <path class="fil0" d="M21517 26712c-793,0 -1590,-111 -2372,-337 -2158,-623 -3942,-2039 -5022,-3987 -1436,-2589 -1366,-5771 182,-8303l94 -154c-1200,436 -2280,1139 -3172,2076 -1524,1599 -2326,3688 -2259,5883 67,2195 994,4233 2612,5738 1066,992 2383,1691 3806,2019l228 52 -230 42c-510,93 -1024,140 -1534,140 -2130,0 -4212,-798 -5783,-2260 -3379,-3145 -3539,-8419 -357,-11759 2048,-2149 5131,-3066 8046,-2395l178 41c-790,-993 -1801,-1791 -2979,-2341 -4148,-1936 -9116,-176 -11075,3923l-44 -21 44 21c-626,1309 -891,2762 -767,4201l20 230 -112 -203c-1280,-2327 -1363,-5143 -221,-7533 1982,-4146 7009,-5927 11205,-3968 2701,1261 4537,3875 4792,6823l16 179c712,-1049 1166,-2246 1332,-3522 581,-4497 -2647,-8623 -7197,-9198 -1453,-183 -2933,17 -4280,578l-215 90 161 -168c1844,-1923 4528,-2871 7180,-2536 4604,581 7870,4756 7282,9306 -379,2929 -2327,5462 -5085,6612l-169 70c1230,345 2523,402 3802,163 2183,-409 4075,-1633 5327,-3447 1251,-1815 1713,-4002 1300,-6160 -273,-1422 -922,-2751 -1879,-3844l-153 -174 211 99c2420,1138 4161,3369 4658,5965 863,4507 -2145,8867 -6705,9720 -516,96 -1035,143 -1551,143 -2420,0 -4769,-1036 -6383,-2880l-120 -136c48,1262 392,2495 1018,3624 2204,3976 7270,5437 11293,3259 1285,-695 2363,-1717 3119,-2954l121 -198 -30 228c-348,2627 -1956,4953 -4301,6223 -1257,680 -2638,1027 -4032,1027zm-5717 -10665l136 -142c320,-334 609,-690 865,-1065l-95 -172c-222,-404 -475,-785 -757,-1141l-195 36c-458,84 -903,205 -1333,359l-26 193c-60,456 -82,912 -66,1364l179 84c420,198 852,359 1292,484z"/>
 </g>
</svg>
