<?xml version="1.0" encoding="UTF-8"?>
<!DOCTYPE svg PUBLIC "-//W3C//DTD SVG 1.0//EN" "http://www.w3.org/TR/2001/REC-SVG-20010904/DTD/svg10.dtd">
<!-- Creator: CorelDRAW -->
<svg xmlns="http://www.w3.org/2000/svg" xml:space="preserve" width="8.9999mm" height="9mm" version="1.0" style="shape-rendering:geometricPrecision; text-rendering:geometricPrecision; image-rendering:optimizeQuality; fill-rule:evenodd; clip-rule:evenodd"
viewBox="0 0 26038 26039"
 xmlns:xlink="http://www.w3.org/1999/xlink"
 xmlns:xodm="http://www.corel.com/coreldraw/odm/2003">
 <defs>
  <style type="text/css">
   <![CDATA[
    .fil0 {fill:#00A0E3;fill-rule:nonzero}
   ]]>
  </style>
 </defs>
 <g id="Layer_x0020_1">
  <metadata id="CorelCorpID_0Corel-Layer"/>
  <path class="fil0" d="M19076 19369c-2190,0 -4631,-1344 -7012,-3895l-43 -45 54 33c2259,1357 4390,1777 6333,1248 2273,-619 4124,-2535 5351,-5544 1193,-2924 1769,-6784 1665,-11163l18 -1c416,2403 617,4733 595,6927 -20,2155 -254,4119 -693,5836 -444,1734 -1083,3165 -1903,4254 -849,1127 -1869,1859 -3035,2176 -431,117 -875,175 -1330,175zm1339 -6638l2 -62c76,-2586 -617,-4595 -2058,-5972 -1686,-1610 -4315,-2214 -7601,-1746 -3193,455 -6910,1899 -10748,4175l-10 -14c1926,-1552 3896,-2887 5856,-3967 1925,-1059 3786,-1844 5531,-2333 1762,-492 3353,-667 4729,-520 1425,153 2587,649 3451,1475 1858,1773 2166,4935 867,8903l-19 59zm401 13308c-2342,-850 -4512,-1847 -6451,-2961 -1904,-1096 -3531,-2274 -4837,-3503 -1318,-1242 -2269,-2498 -2826,-3733 -577,-1280 -718,-2508 -416,-3652 646,-2455 3301,-4296 7475,-5184l62 -14 -56 30c-2335,1230 -3773,2819 -4275,4724l-9 -2 9 2c-587,2229 191,4750 2249,7291 2001,2469 5141,4885 9083,6987l-7 16z"/>
 </g>
</svg>
