<?xml version="1.0" encoding="UTF-8"?>
<!DOCTYPE svg PUBLIC "-//W3C//DTD SVG 1.0//EN" "http://www.w3.org/TR/2001/REC-SVG-20010904/DTD/svg10.dtd">
<!-- Creator: CorelDRAW -->
<svg xmlns="http://www.w3.org/2000/svg" xml:space="preserve" width="9mm" height="9mm" version="1.0" style="shape-rendering:geometricPrecision; text-rendering:geometricPrecision; image-rendering:optimizeQuality; fill-rule:evenodd; clip-rule:evenodd"
viewBox="0 0 23072 23072"
 xmlns:xlink="http://www.w3.org/1999/xlink"
 xmlns:xodm="http://www.corel.com/coreldraw/odm/2003">
 <defs>
  <style type="text/css">
   <![CDATA[
    .fil0 {fill:#00A0E3;fill-rule:nonzero}
   ]]>
  </style>
 </defs>
 <g id="Layer_x0020_1">
  <metadata id="CorelCorpID_0Corel-Layer"/>
  <path class="fil0" d="M6643 10981l4 -85c38,-1026 286,-2052 735,-3050 464,-1033 1123,-1984 1957,-2824 1584,-1597 3611,-2602 5706,-2828l8 -1 8 -1 8 -1 8 -1 8 -1 17 -2 8 -1 8 -1 8 -1 8 -1 6 -1 2 0 8 -1 8 -1 8 -1 8 -1 8 -1 8 -1 8 -1 25 -2 8 -1 4 0 4 -1 92 -7 2 0 6 -1 17 -1 8 -1 8 -1 25 -2 8 -1 8 -1 8 -1 8 -1 0 0 8 -1 8 -1 8 -1 8 0 8 -1 8 -1 8 -1 8 0 8 -1 8 -1 8 0 6 0 3 0 8 0 8 -1 8 0 8 -1 8 0c-1549,-781 -3230,-972 -4793,-533 -3776,1062 -5777,5484 -4461,9858 435,1443 1198,2762 2209,3813l60 62 -74 -45c-900,-546 -1696,-1266 -2366,-2140 -694,-905 -1216,-1932 -1553,-3051 -639,-2124 -526,-4322 319,-6189 72,-159 149,-314 230,-465 -1474,906 -2485,2217 -2872,3744 -937,3692 2025,7578 6604,8663 1510,358 3073,378 4521,58l85 -19 -78 40c-940,480 -1982,787 -3101,910 -363,40 -730,60 -1097,60 -802,0 -1609,-96 -2412,-286 -2224,-527 -4137,-1721 -5387,-3361 -107,-140 -207,-281 -302,-425 74,1686 743,3188 1919,4276 1375,1274 3283,1851 5372,1626 2091,-226 4111,-1228 5692,-2821 1076,-1085 1875,-2384 2312,-3755l26 -81 -3 85c-39,1026 -287,2053 -735,3051 -465,1033 -1123,1983 -1957,2824 -1584,1597 -3610,2601 -5706,2827 -178,19 -356,33 -531,41 1548,781 3229,971 4792,532 1829,-515 3301,-1823 4143,-3684 843,-1862 956,-4055 318,-6174 -434,-1443 -1198,-2761 -2209,-3812l-59 -62 74 45c900,546 1696,1266 2366,2140 694,905 1217,1932 1553,3050 640,2125 526,4322 -319,6190 -72,159 -148,313 -229,464 1474,-905 2485,-2216 2872,-3744 453,-1788 17,-3673 -1230,-5309 -1247,-1637 -3156,-2827 -5374,-3353 -1510,-358 -3074,-378 -4521,-58l-86 19 77 -40c940,-480 1983,-787 3101,-910 1158,-128 2339,-52 3510,226 2223,527 4137,1721 5387,3361 106,139 206,281 301,424 -6,-132 -15,-262 -28,-392l-7 -71 -1 -6c-26,-232 -64,-460 -113,-683l-16 -72 -1 -2 -18 -74c-36,-147 -77,-293 -123,-435l-18 -56 -5 -15 -22 -64 -2 -6 -25 -70 -1 -2 -25 -68 -4 -10 -23 -60 -7 -18 -21 -51 -11 -26 -18 -43 -14 -34 -15 -35 -18 -42 -12 -26 -22 -49 -8 -18 -26 -57 -5 -11 -31 -64 -1 -3 -33 -66 -3 -5 -32 -61 -6 -13 -28 -53 -11 -20 -25 -45 -15 -27 -21 -37 -20 -35 -17 -29 -7 -12 -31 -52 -30 -49 -9 -14 -35 -56 -4 -6 -40 -62 -1 -1 -41 -61 -5 -8 -36 -53 -11 -15 -32 -45 -16 -22 -28 -38 -2 -3 -39 -53 -3 -4 -27 -35 -18 -24 -33 -42 -13 -17 -38 -48 -8 -10 -45 -54 -3 -3 -48 -57 -3 -4 -46 -52 -9 -10 -41 -45 -15 -16 -35 -38 -21 -23 -30 -32 -27 -29 -24 -25 -34 -34 -18 -19 -41 -40 -13 -12 -48 -46 -6 -6 -55 -51c-1375,-1274 -3284,-1851 -5373,-1626 -2090,226 -4111,1228 -5691,2821 -1076,1085 -1876,2383 -2312,3755l-26 81zm-1372 -7739c874,-1503 2202,-2559 3804,-3010 1206,-339 2504,-306 3752,98 1090,352 2122,977 3010,1817l80 -1 4 0 83 1 9 0 74 1 21 0 62 2 33 1 49 2 45 2 4 0 85 5 5 0 25 2 68 5 13 1 80 6 2 0 81 7 10 1 70 7 22 2 58 7 34 4 46 6 45 6 34 5 57 8 23 3 68 11 11 2 79 14 1 0 78 14 12 2 66 13 23 5 54 11 3 1 75 16 46 10 31 7 77 18 67 17 9 2 76 20 2 1 73 21 65 19 11 3 24 7 51 16 72 23 2 1 45 15 28 9 56 19 17 6 66 24 7 3 73 27 4 2 68 26 14 6 57 23 25 10 47 19 3 1 138 60 55 25 15 7 65 30 5 3 69 33 5 3 63 32 15 8 53 27 25 13 43 23 35 19 33 18 44 25 22 13 54 31 13 7 63 37 3 2 65 40 6 4 58 37 16 10 6 4 67 44 39 26 34 23 29 20 43 30 20 14 51 37 11 8 10 8 51 38 61 46 7 6 53 42 16 13 44 35 25 20 35 29 33 28 26 22 41 36 17 15 49 44 8 8 57 52c907,840 1526,1943 1789,3189l11 51 1 6 9 46 2 11 8 40 3 17 6 34 4 23 5 29 5 29 4 23 6 35 3 17 6 41 2 12 6 46 1 6 7 52 7 52 1 6 5 47 1 12 12 117 3 29 3 29 2 24 3 35 1 18 3 41 1 12 3 47 1 6 3 53 0 0 3 53 0 6 2 47 0 12 2 59 1 36 1 24 1 30 0 30 1 59 0 18 -2 161 0 0 -1 54 0 6 -5 120 -2 36 -1 24 -7 120 -1 18 -3 42 -1 12 -4 48 -5 60 0 0 -5 54 -1 6 -6 61 -5 42 -2 18 -15 121 -3 24 -5 36 -18 121 -1 6 -9 55 0 0 -10 61 -8 49 -2 12 -8 43 -4 18 -7 36 -5 24 -6 30 -6 30 -5 24 -8 36 -4 18 -9 42 -3 12 -11 48 -1 6 -13 54 -13 55 -2 6 -12 49 -3 12 -11 42 -5 18 -9 36c909,1483 1193,3123 795,4689 -299,1180 -978,2248 -1963,3092 -860,735 -1937,1287 -3133,1610 -874,1503 -2203,2559 -3804,3010 -550,155 -1120,232 -1694,232 -686,0 -1379,-110 -2058,-329 -1090,-351 -2123,-976 -3009,-1816l-87 1c-1749,0 -3327,-582 -4512,-1680 -908,-840 -1526,-1942 -1789,-3189 -230,-1088 -187,-2265 123,-3428 -910,-1483 -1192,-3122 -795,-4688 300,-1179 978,-2248 1963,-3091 860,-735 1936,-1288 3133,-1610z"/>
 </g>
</svg>
