<?xml version="1.0" encoding="UTF-8"?>
<!DOCTYPE svg PUBLIC "-//W3C//DTD SVG 1.0//EN" "http://www.w3.org/TR/2001/REC-SVG-20010904/DTD/svg10.dtd">
<!-- Creator: CorelDRAW -->
<svg xmlns="http://www.w3.org/2000/svg" xml:space="preserve" width="9mm" height="9mm" version="1.0" style="shape-rendering:geometricPrecision; text-rendering:geometricPrecision; image-rendering:optimizeQuality; fill-rule:evenodd; clip-rule:evenodd"
viewBox="0 0 20712 20712"
 xmlns:xlink="http://www.w3.org/1999/xlink"
 xmlns:xodm="http://www.corel.com/coreldraw/odm/2003">
 <defs>
  <style type="text/css">
   <![CDATA[
    .fil0 {fill:#00A0E3;fill-rule:nonzero}
   ]]>
  </style>
 </defs>
 <g id="Layer_x0020_1">
  <metadata id="CorelCorpID_0Corel-Layer"/>
  <path class="fil0" d="M5664 18893c-600,0 -1184,-152 -1703,-451 -428,-246 -791,-578 -1078,-984 -277,-393 -472,-838 -580,-1325 -108,-487 -123,-990 -45,-1495 81,-523 259,-1027 529,-1496 475,-825 1204,-1471 2054,-1817 840,-342 1747,-374 2555,-89l12 4 -13 3c-1031,279 -1943,996 -2501,1966 -533,926 -704,1986 -483,2985 221,999 809,1817 1654,2303 175,101 364,187 562,257l12 4 -13 3c-321,87 -644,130 -963,130zm5011 1819c-193,0 -387,-16 -581,-50 -473,-81 -927,-259 -1347,-526 -420,-268 -787,-613 -1089,-1026 -313,-428 -543,-909 -684,-1431 -248,-920 -188,-1891 168,-2736 352,-836 971,-1500 1743,-1871l12 -6 -7 12c-532,926 -670,2078 -378,3158 278,1032 907,1903 1769,2453 863,550 1857,713 2798,459 195,-53 390,-125 579,-216l12 -6 -7 11c-476,830 -1226,1419 -2112,1658 -288,77 -582,116 -877,116zm520 -5229c14,47 28,94 43,140 -15,-46 -30,-93 -43,-140zm4077 3020c-210,0 -422,-16 -634,-50 -524,-81 -1027,-258 -1496,-528 -826,-475 -1471,-1204 -1816,-2054 -342,-840 -374,-1747 -90,-2555l4 -13 4 13c279,1031 996,1943 1966,2501 926,533 1986,704 2985,483 999,-221 1817,-809 2303,-1654 101,-176 187,-365 257,-562l4 -13 4 13c250,924 136,1871 -321,2666 -246,428 -577,791 -984,1078 -392,277 -838,472 -1325,580 -282,63 -570,94 -861,94zm1272 -4614c-554,0 -1100,-107 -1602,-319 -836,-352 -1500,-971 -1870,-1743l-6 -12 12 7c927,531 2078,669 3159,378 1032,-278 1903,-907 2453,-1770 550,-863 713,-1856 459,-2798 -52,-195 -125,-390 -216,-579l-6 -12 12 7c830,476 1419,1227 1658,2112 129,477 151,968 67,1458 -81,473 -258,927 -526,1347 -268,420 -613,787 -1026,1089 -428,313 -909,543 -1431,684 -374,100 -756,151 -1134,151zm-2088 -4220c-390,0 -775,-64 -1140,-192l-12 -5 13 -4c1031,-279 1943,-996 2501,-1966 1100,-1912 574,-4284 -1171,-5288 -175,-101 -364,-188 -562,-257l-12 -5 13 -4c924,-250 1871,-136 2666,322 428,246 791,577 1078,984 277,392 472,838 580,1325 108,487 123,990 45,1496 -81,524 -259,1026 -529,1495 -475,825 -1204,1471 -2054,1817 -461,188 -941,282 -1415,282zm-2642 -2022l7 -11c532,-927 670,-2078 378,-3159 -278,-1032 -907,-1903 -1769,-2452 -863,-550 -1857,-713 -2798,-459 -195,53 -390,126 -579,216l-12 6 7 -11c476,-831 1227,-1419 2112,-1658 477,-129 968,-151 1458,-67 474,81 927,259 1347,527 420,268 787,613 1089,1026 313,428 543,909 684,1431 248,920 188,1891 -168,2737 -352,835 -971,1500 -1743,1870l-12 6zm-2343 -238l-3 -13c-279,-1031 -996,-1943 -1966,-2501 -1912,-1100 -4284,-575 -5288,1171l-4 -2 4 2c-101,175 -188,364 -257,562l-4 12 -3 -13c-250,-924 -136,-1871 321,-2666 246,-429 577,-791 984,-1078 392,-277 838,-473 1325,-580 487,-108 990,-123 1495,-45 524,81 1027,259 1496,529 826,475 1471,1204 1816,2054 342,840 374,1747 90,2555l-5 12zm-7685 6263l-12 -7c-830,-477 -1419,-1227 -1658,-2112 -128,-477 -151,-968 -67,-1458 82,-474 259,-927 527,-1347 268,-420 613,-787 1026,-1089 428,-313 909,-543 1431,-684 919,-248 1891,-188 2737,168 836,352 1500,971 1870,1744l6 12 -12 -7c-927,-532 -2078,-670 -3159,-378 -1032,278 -1903,906 -2453,1769 -550,863 -713,1857 -459,2798 52,195 125,390 216,579l6 12z"/>
 </g>
</svg>
