<?xml version="1.0" encoding="UTF-8"?>
<!DOCTYPE svg PUBLIC "-//W3C//DTD SVG 1.0//EN" "http://www.w3.org/TR/2001/REC-SVG-20010904/DTD/svg10.dtd">
<!-- Creator: CorelDRAW -->
<svg xmlns="http://www.w3.org/2000/svg" xml:space="preserve" width="9mm" height="9.0001mm" version="1.0" style="shape-rendering:geometricPrecision; text-rendering:geometricPrecision; image-rendering:optimizeQuality; fill-rule:evenodd; clip-rule:evenodd"
viewBox="0 0 21955 21956"
 xmlns:xlink="http://www.w3.org/1999/xlink"
 xmlns:xodm="http://www.corel.com/coreldraw/odm/2003">
 <defs>
  <style type="text/css">
   <![CDATA[
    .fil0 {fill:#00A0E3;fill-rule:nonzero}
   ]]>
  </style>
 </defs>
 <g id="Layer_x0020_1">
  <metadata id="CorelCorpID_0Corel-Layer"/>
  <path class="fil0" d="M8081 21749c-1435,-315 -2683,-1135 -3540,-2330 -916,-1277 -1274,-2832 -1009,-4376 199,-1160 736,-2221 1554,-3068 798,-826 1812,-1401 2933,-1661l64 -15 -58 31c-151,80 -297,166 -439,258 131,-48 265,-92 401,-131l63 -19 -56 34c-1571,944 -2593,2520 -2804,4323 -376,3202 1949,6111 5183,6484 271,31 541,44 810,39l1 0 4 0c329,-20 655,-67 978,-143l64 -15 -58 31 -70 36c202,-36 402,-82 600,-140l63 -18 -56 34c-935,562 -1981,852 -3057,852 -232,0 -464,-13 -698,-40 -298,-34 -590,-90 -874,-166zm5983 -831c-22,0 -45,0 -68,0 -1582,-18 -3063,-644 -4169,-1764 -831,-841 -1382,-1895 -1593,-3048 -206,-1125 -80,-2275 366,-3326l26 -60 -9 65c-247,1803 346,3581 1628,4879 2277,2305 6023,2347 8351,92 568,-550 1011,-1194 1316,-1913l26 -60 -9 65c-179,1304 -776,2480 -1726,3400 -1115,1079 -2582,1672 -4140,1672zm1961 -4054c-991,0 -1961,-245 -2834,-719 -1013,-549 -1836,-1371 -2380,-2375l-31 -58 45 48c1260,1325 3029,1987 4854,1817 1571,-146 2990,-889 3996,-2091 1006,-1203 1479,-2722 1332,-4277 -74,-783 -301,-1529 -674,-2217l-31 -57 45 47c911,958 1458,2158 1583,3468 148,1559 -327,3083 -1336,4289 -1009,1207 -2433,1951 -4008,2097 -187,18 -374,26 -560,26zm-1938 -4066c-371,0 -742,-35 -1109,-104l-65 -12 66 -4c1832,-135 3466,-1080 4481,-2591 1804,-2685 1066,-6321 -1645,-8108 -662,-435 -1390,-730 -2164,-877l-65 -12 66 -5c1326,-98 2611,235 3718,965 1317,868 2214,2192 2526,3727 312,1536 1,3100 -876,4404 -658,979 -1585,1732 -2680,2177 -721,293 -1485,441 -2253,441zm-641 -2408l38 -53c1047,-1495 1333,-3346 786,-5079 -471,-1491 -1500,-2711 -2897,-3435 -1397,-725 -2996,-867 -4502,-401 -758,235 -1448,609 -2050,1113l-50 42 38 -54c757,-1081 1828,-1861 3097,-2254 1510,-467 3113,-324 4515,402 1401,727 2433,1950 2906,3446 354,1123 362,2309 22,3432 -332,1096 -973,2063 -1852,2799l-50 42zm-13054 -94l-19 -62c-373,-1263 -310,-2578 180,-3801 583,-1456 1704,-2601 3157,-3222 1452,-621 3062,-645 4533,-67 1104,434 2040,1175 2707,2143 651,945 1008,2046 1032,3186l1 65 -19 -62c-515,-1747 -1787,-3132 -3491,-3801 -1466,-576 -3071,-552 -4519,68 -1448,619 -2566,1760 -3148,3212 -293,731 -433,1498 -416,2278l1 65zm3303 8227l-61 -25c-1226,-509 -2219,-1384 -2871,-2531 -776,-1365 -968,-2948 -542,-4456 426,-1508 1421,-2762 2799,-3530 1036,-576 2206,-831 3386,-734 1151,94 2240,513 3150,1211l52 40 -61 -25c-1695,-703 -3583,-596 -5181,294 -1375,765 -2366,2015 -2791,3519 -425,1504 -233,3082 540,4444 390,685 903,1276 1526,1754l52 40z"/>
 </g>
</svg>
