<?xml version="1.0" encoding="UTF-8"?>
<!DOCTYPE svg PUBLIC "-//W3C//DTD SVG 1.0//EN" "http://www.w3.org/TR/2001/REC-SVG-20010904/DTD/svg10.dtd">
<!-- Creator: CorelDRAW -->
<svg xmlns="http://www.w3.org/2000/svg" xml:space="preserve" width="8.9999mm" height="9mm" version="1.0" style="shape-rendering:geometricPrecision; text-rendering:geometricPrecision; image-rendering:optimizeQuality; fill-rule:evenodd; clip-rule:evenodd"
viewBox="0 0 24625 24625"
 xmlns:xlink="http://www.w3.org/1999/xlink"
 xmlns:xodm="http://www.corel.com/coreldraw/odm/2003">
 <defs>
  <style type="text/css">
   <![CDATA[
    .fil0 {fill:#00A0E3;fill-rule:nonzero}
   ]]>
  </style>
 </defs>
 <g id="Layer_x0020_1">
  <metadata id="CorelCorpID_0Corel-Layer"/>
  <path class="fil0" d="M13227 24625c-1368,0 -2774,-328 -4109,-964 -1899,-904 -3418,-2322 -4277,-3992 -859,-1671 -955,-3395 -270,-4854 515,-1096 1432,-1953 2654,-2477 1190,-512 2596,-680 4063,-486l88 12 -88 8c-83,8 -164,17 -246,27 78,4 157,9 236,15l89 7 -88 13c-2215,330 -3890,1510 -4593,3238 -606,1487 -422,3197 521,4815 942,1619 2529,2951 4468,3752 977,404 1985,648 2995,728l89 7 -88 13c-227,34 -456,58 -687,73l39 5 89 11 -89 9c-263,25 -528,37 -795,37zm2031 -1773c-397,0 -788,-29 -1173,-88 -1848,-282 -3289,-1217 -4059,-2633 -578,-1063 -727,-2314 -431,-3617 289,-1271 980,-2514 1998,-3595l61 -66 -45 78c-1140,1940 -1283,3993 -392,5632 766,1410 2203,2341 4045,2623 1842,282 3869,-121 5708,-1135 926,-510 1749,-1145 2447,-1885l62 -66 -46 78c-824,1403 -2078,2597 -3626,3449 -1460,805 -3038,1226 -4549,1226zm2726 -3709c-280,0 -559,-26 -837,-76 -1185,-217 -2244,-888 -3063,-1940 -800,-1026 -1325,-2348 -1518,-3825l-11 -89 31 85c780,2113 2275,3516 4100,3850 1570,288 3194,-250 4570,-1514 1377,-1264 2342,-3105 2717,-5181 189,-1045 217,-2089 85,-3101l-12 -89 31 84c565,1529 696,3260 380,5009 -375,2081 -1342,3925 -2722,5192 -1137,1045 -2444,1595 -3750,1595zm-505 -5140c-32,0 -64,-1 -96,-1 -1295,-20 -2646,-442 -3908,-1219l-76 -47 85 28c2122,720 4146,433 5553,-785 1211,-1048 1817,-2656 1707,-4529 -110,-1873 -923,-3785 -2290,-5386 -688,-806 -1476,-1485 -2340,-2018l-77 -47 85 29c1535,520 2954,1507 4106,2854 1370,1604 2184,3520 2294,5398 110,1878 -499,3492 -1714,4545 -891,772 -2040,1178 -3329,1178zm-3918 -2229l75 -48c1890,-1208 2943,-2972 2889,-4839 -47,-1607 -907,-3093 -2421,-4185 -1515,-1093 -3505,-1661 -5598,-1598 -1056,31 -2075,221 -3031,562l-85 30 76 -48c1367,-874 3023,-1363 4787,-1416 2100,-63 4092,506 5610,1602 1519,1096 2382,2588 2429,4202 36,1211 -395,2394 -1247,3420 -830,1000 -2006,1793 -3401,2290l-85 30zm-13562 -683l11 -89c186,-1620 850,-3223 1919,-4637 1273,-1682 2966,-2883 4767,-3382 1802,-499 3497,-234 4772,743 958,735 1599,1817 1855,3128 250,1279 120,2698 -373,4102l-30 85 11 -89c257,-2239 -441,-4173 -1918,-5305 -1270,-974 -2959,-1237 -4754,-740 -1797,498 -3486,1696 -4756,3374 -639,845 -1135,1762 -1474,2724l-30 85zm3860 10132l-63 -64c-1133,-1165 -1953,-2693 -2371,-4420 -497,-2055 -359,-4135 390,-5859 749,-1724 2020,-2884 3577,-3266 1169,-287 2408,-109 3582,517 1145,609 2158,1603 2932,2873l47 77 -63 -64c-1567,-1611 -3498,-2281 -5302,-1838 -1551,381 -2817,1537 -3563,3254 -747,1719 -884,3795 -388,5845 250,1033 645,1998 1175,2867l47 77z"/>
 </g>
</svg>
