<?xml version="1.0" encoding="UTF-8"?>
<!DOCTYPE svg PUBLIC "-//W3C//DTD SVG 1.0//EN" "http://www.w3.org/TR/2001/REC-SVG-20010904/DTD/svg10.dtd">
<!-- Creator: CorelDRAW -->
<svg xmlns="http://www.w3.org/2000/svg" xml:space="preserve" width="8.9999mm" height="9mm" version="1.0" style="shape-rendering:geometricPrecision; text-rendering:geometricPrecision; image-rendering:optimizeQuality; fill-rule:evenodd; clip-rule:evenodd"
viewBox="0 0 28034 28034"
 xmlns:xlink="http://www.w3.org/1999/xlink"
 xmlns:xodm="http://www.corel.com/coreldraw/odm/2003">
 <defs>
  <style type="text/css">
   <![CDATA[
    .fil0 {fill:#00A0E3;fill-rule:nonzero}
   ]]>
  </style>
 </defs>
 <g id="Layer_x0020_1">
  <metadata id="CorelCorpID_0Corel-Layer"/>
  <path class="fil0" d="M12114 15812l-65 -61c-825,-787 -1474,-1716 -1929,-2761 -472,-1083 -712,-2238 -712,-3433 0,-2268 869,-4400 2445,-6004 1577,-1604 3673,-2487 5903,-2487 1466,0 2907,392 4169,1134 1224,719 2257,1752 2987,2984l45 77 -65 -61c-1549,-1478 -3569,-2291 -5691,-2291 -4590,0 -8324,3798 -8324,8467 0,1540 411,3048 1189,4361l46 77zm-30 1173c-297,0 -594,-16 -892,-49 -1158,-126 -2261,-492 -3278,-1090 -1931,-1134 -3312,-2965 -3890,-5156 -577,-2191 -280,-4480 834,-6443 734,-1291 1787,-2365 3050,-3107 1225,-719 2619,-1112 4034,-1139l88 -2 -85 26c-2032,626 -3735,2000 -4796,3868 -1111,1958 -1406,4240 -831,6425 576,2184 1953,4010 3878,5141 1311,769 2800,1162 4307,1134l89 -2 -85 26c-793,245 -1606,367 -2423,367zm-3722 4464c-725,0 -1455,-97 -2175,-293 -2154,-587 -3953,-1992 -5069,-3956 -733,-1291 -1120,-2757 -1120,-4239 1,-1438 363,-2864 1047,-4123l43 -79 -20 88c-484,2103 -166,4290 895,6159 1539,2712 4343,4231 7223,4231 1411,0 2840,-365 4147,-1133 1311,-769 2389,-1886 3119,-3227l43 -79 -20 88c-257,1120 -724,2156 -1386,3080 -687,958 -1550,1745 -2567,2342 -1286,756 -2713,1142 -4160,1142zm1914 5521c-1465,0 -2907,-392 -4169,-1134 -1224,-720 -2256,-1751 -2987,-2984l-46 -77 65 61c1548,1477 3569,2291 5691,2291 4590,0 8323,-3798 8323,-8467 0,-1540 -411,-3048 -1188,-4361l-46 -77 64 61c825,787 1474,1716 1930,2761 471,1083 711,2238 711,3432 0,2269 -869,4400 -2445,6005 -1577,1604 -3673,2487 -5903,2487zm5725 1064l85 -26c2032,-626 3736,-1999 4796,-3867 2294,-4043 928,-9232 -3046,-11565 -1311,-770 -2801,-1163 -4307,-1134l-89 2 85 -26c1082,-333 2197,-440 3315,-319 1158,126 2261,493 3278,1090 1931,1134 3312,2965 3889,5156 578,2191 281,4479 -834,6444 -734,1291 -1788,2365 -3050,3106 -1224,719 -2619,1113 -4033,1139l-89 2zm10941 -8758l20 -87c484,-2104 166,-4290 -895,-6159 -2294,-4043 -7395,-5433 -11370,-3099l-6 -10 6 10c-1310,770 -2389,1886 -3118,3227l-43 79 20 -88c258,-1120 724,-2156 1386,-3080 687,-957 1550,-1746 2567,-2342 1930,-1134 4181,-1435 6334,-849 2154,587 3954,1993 5069,3957 733,1291 1120,2757 1120,4239 -1,1438 -362,2864 -1047,4123l-43 78z"/>
 </g>
</svg>
