<?xml version="1.0" encoding="UTF-8"?>
<!DOCTYPE svg PUBLIC "-//W3C//DTD SVG 1.0//EN" "http://www.w3.org/TR/2001/REC-SVG-20010904/DTD/svg10.dtd">
<!-- Creator: CorelDRAW -->
<svg xmlns="http://www.w3.org/2000/svg" xml:space="preserve" width="9.0001mm" height="9mm" version="1.0" style="shape-rendering:geometricPrecision; text-rendering:geometricPrecision; image-rendering:optimizeQuality; fill-rule:evenodd; clip-rule:evenodd"
viewBox="0 0 32540 32540"
 xmlns:xlink="http://www.w3.org/1999/xlink"
 xmlns:xodm="http://www.corel.com/coreldraw/odm/2003">
 <defs>
  <style type="text/css">
   <![CDATA[
    .fil0 {fill:#00A0E3;fill-rule:nonzero}
   ]]>
  </style>
 </defs>
 <g id="Layer_x0020_1">
  <metadata id="CorelCorpID_0Corel-Layer"/>
  <path class="fil0" d="M16618 32540c-1314,0 -2621,-290 -3835,-863 -1099,-520 -2065,-1240 -2869,-2141 -776,-869 -1371,-1870 -1765,-2973 -396,-1104 -572,-2255 -525,-3422 49,-1207 337,-2379 855,-3481 697,-1481 1780,-2743 3131,-3648 1312,-880 2839,-1401 4413,-1507l48 -4 -46 15c-2375,758 -4347,2487 -5408,4744 -1025,2178 -1142,4626 -330,6893 812,2267 2455,4081 4628,5109 1382,653 2916,945 4436,841l48 -4 -46 15c-895,286 -1817,427 -2736,427zm4645 -2004c-425,0 -850,-31 -1274,-92 -1152,-166 -2249,-550 -3259,-1141 -1010,-590 -1883,-1359 -2595,-2282 -737,-956 -1267,-2039 -1577,-3218 -416,-1585 -395,-3249 59,-4813 442,-1519 1277,-2902 2414,-3999l34 -33 -25 40c-1333,2112 -1735,4707 -1101,7120 1061,4041 4714,6722 8699,6722 756,0 1523,-97 2288,-299 1478,-390 2840,-1155 3938,-2213l34 -33 -26 40c-1221,1933 -3108,3318 -5313,3900 -757,200 -1526,300 -2296,300zm2263 -4529c-643,0 -1284,-69 -1917,-207 -1178,-259 -2278,-746 -3271,-1449 -1334,-945 -2386,-2234 -3041,-3725 -636,-1449 -883,-3046 -714,-4619l5 -48 7 47c332,2477 1688,4724 3721,6164 4050,2870 9673,1902 12535,-2159l5 3 -5 -3c882,-1251 1434,-2715 1597,-4233l5 -47 7 47c304,2268 -253,4545 -1570,6412 -701,995 -1577,1824 -2601,2461 -989,615 -2075,1028 -3228,1226 -511,87 -1023,131 -1534,131zm-1158 -4932c-1376,0 -2735,-315 -3969,-926 -1416,-700 -2629,-1764 -3509,-3078l-27 -40 35 33c1660,1516 3837,2354 6066,2354 245,0 491,-10 736,-31 2394,-200 4568,-1321 6120,-3160 1552,-1838 2297,-4172 2099,-6573 -127,-1526 -642,-3004 -1491,-4272l-27 -39 35 32c1687,1541 2720,3644 2909,5923 101,1214 -39,2413 -415,3561 -363,1110 -931,2125 -1687,3020 -756,895 -1662,1624 -2693,2166 -1067,561 -2223,898 -3434,998 -250,21 -500,31 -749,31zm-4048 -3028c-847,0 -1694,-119 -2512,-356l-46 -13 48 2c2491,102 4933,-847 6701,-2604 3522,-3499 3547,-9220 56,-12751 -1076,-1088 -2418,-1888 -3881,-2311l-46 -13 48 2c2280,94 4420,1039 6026,2662 856,866 1517,1874 1965,2996 433,1083 650,2227 645,3400 -5,1172 -232,2315 -674,3394 -458,1118 -1128,2120 -1991,2978 -1161,1154 -2609,1968 -4188,2355 -705,173 -1428,260 -2149,260zm-1455 -454l38 -30c1973,-1527 3236,-3828 3464,-6313 454,-4950 -3194,-9349 -8133,-9804 -1522,-139 -3062,113 -4455,731l-43 19 38 -30c1807,-1397 4053,-2053 6324,-1843 1211,111 2363,457 3426,1028 1026,552 1926,1288 2674,2190 748,902 1306,1923 1660,3035 366,1151 495,2351 384,3564 -149,1632 -736,3189 -1697,4503 -934,1277 -2190,2289 -3633,2930l-44 19zm791 -776l10 -47c533,-2441 25,-5018 -1394,-7067 -2827,-4085 -8442,-5103 -12517,-2269l-3 -5 3 5c-1255,873 -2274,2059 -2944,3430l-21 43 10 -47c488,-2235 1788,-4183 3662,-5487 999,-694 2104,-1172 3284,-1420 1140,-239 2301,-254 3452,-46 1151,209 2233,631 3217,1256 1019,646 1887,1481 2580,2483 931,1346 1480,2917 1586,4543 103,1579 -210,3165 -905,4586l-21 43zm-16601 5236l-22 -42c-1059,-2027 -1312,-4357 -712,-6564 320,-1176 859,-2254 1605,-3203 720,-918 1600,-1678 2615,-2260 1016,-581 2115,-955 3270,-1112 1195,-161 2395,-80 3568,240 1577,432 3004,1282 4129,2459 1092,1143 1869,2559 2247,4096l12 46 -22 -42c-1157,-2213 -3198,-3859 -5600,-4516 -4784,-1308 -9738,1530 -11043,6327l-6 -1 6 1c-402,1479 -422,3043 -56,4526l12 46zm7350 8369l-44 -18c-2111,-870 -3799,-2493 -4754,-4569 -509,-1107 -786,-2280 -825,-3488 -37,-1167 150,-2316 555,-3416 405,-1100 1008,-2095 1791,-2959 812,-893 1783,-1605 2887,-2115 1484,-686 3123,-955 4739,-778 1570,172 3073,757 4348,1690l39 28 -44 -18c-2306,-950 -4925,-896 -7185,149 -2182,1009 -3841,2808 -4673,5068 -832,2260 -736,4709 270,6896 640,1391 1628,2603 2858,3503l39 28z"/>
 </g>
</svg>
