<?xml version="1.0" encoding="UTF-8"?>
<!DOCTYPE svg PUBLIC "-//W3C//DTD SVG 1.0//EN" "http://www.w3.org/TR/2001/REC-SVG-20010904/DTD/svg10.dtd">
<!-- Creator: CorelDRAW -->
<svg xmlns="http://www.w3.org/2000/svg" xml:space="preserve" width="8.9999mm" height="9mm" version="1.0" style="shape-rendering:geometricPrecision; text-rendering:geometricPrecision; image-rendering:optimizeQuality; fill-rule:evenodd; clip-rule:evenodd"
viewBox="0 0 38768 38769"
 xmlns:xlink="http://www.w3.org/1999/xlink"
 xmlns:xodm="http://www.corel.com/coreldraw/odm/2003">
 <defs>
  <style type="text/css">
   <![CDATA[
    .fil0 {fill:#00A0E3;fill-rule:nonzero}
   ]]>
  </style>
 </defs>
 <g id="Layer_x0020_1">
  <metadata id="CorelCorpID_0Corel-Layer"/>
  <path class="fil0" d="M10839 37649l-52 -42c-1660,-1344 -3106,-2840 -4296,-4449 -1170,-1579 -2062,-3222 -2651,-4881 -595,-1675 -864,-3317 -800,-4883 68,-1619 492,-3117 1261,-4452 840,-1456 2049,-2650 3593,-3547 1492,-868 3245,-1431 5213,-1675l45 -6 -41 19c-2580,1163 -4539,2883 -5824,5111 -3003,5208 -1658,12394 3510,18753l42 52zm12917 1120c-1965,0 -3869,-218 -5668,-648 -1910,-458 -3649,-1142 -5167,-2035 -1531,-900 -2793,-1985 -3748,-3226 -990,-1284 -1627,-2704 -1895,-4222 -292,-1655 -134,-3347 474,-5028 585,-1624 1567,-3184 2918,-4637l31 -34 -20 42c-1229,2550 -1626,5127 -1179,7662 1045,5921 6692,10560 14736,12108l64 12 -65 1c-161,3 -322,5 -481,5zm-1257 -2335c-883,0 -1734,-89 -2547,-268 -1582,-348 -2983,-1026 -4163,-2016 -1288,-1081 -2253,-2479 -2868,-4158 -594,-1620 -844,-3447 -743,-5428l2 -46 12 44c697,2745 2049,4975 4019,6628 2261,1898 5173,2844 8399,2844 3344,0 7024,-1017 10666,-3047l59 -33 -50 44c-1611,1403 -3335,2567 -5124,3462 -1757,878 -3528,1473 -5264,1766 -821,138 -1620,207 -2397,207zm3346 -3534c-1679,0 -3315,-451 -4863,-1340 -1497,-859 -2861,-2097 -4057,-3680l-28 -37 38 27c2296,1654 4762,2492 7332,2492 6012,-2 11559,-4761 14478,-12419l24 -62 -11 65c-333,2110 -906,4111 -1701,5948 -782,1803 -1758,3397 -2899,4739 -1152,1353 -2439,2407 -3826,3134 -1435,751 -2943,1132 -4484,1133 -1,0 -2,0 -3,0zm180 -5139c-1072,0 -2187,-132 -3335,-396l-44 -10 45 -3c2822,-210 5251,-1156 7220,-2810l4 6 -4 -6c4601,-3866 5792,-11079 3111,-18824l-22 -62 34 57c1101,1831 1948,3733 2517,5651 560,1885 837,3733 823,5494 -13,1777 -322,3413 -918,4862 -616,1499 -1527,2761 -2706,3752 -1287,1081 -2831,1789 -4590,2104 -690,124 -1403,186 -2136,186zm710 -4477l33 -32c2027,-1975 3280,-4262 3726,-6797 1041,-5920 -2678,-12213 -9708,-16420l-56 -34 62 22c2019,694 3890,1606 5558,2710 1639,1083 3039,2321 4160,3680 1132,1370 1946,2822 2419,4315 491,1545 604,3098 337,4615 -291,1656 -1019,3192 -2164,4564 -1105,1325 -2561,2455 -4326,3358l-41 21zm518 -5749l4 -46c285,-2818 -225,-5376 -1511,-7603 -3006,-5207 -9897,-7634 -17985,-6335l-65 11 62 -24c1992,-767 4010,-1272 5998,-1500 1951,-224 3819,-176 5550,143 1748,322 3303,910 4626,1748 1368,869 2452,1985 3223,3319 840,1455 1269,3100 1274,4887 4,1727 -386,3528 -1157,5356l-18 43zm-27253 -2862l31 -57c1035,-1870 2256,-3554 3632,-5008 1351,-1427 2812,-2591 4343,-3460 1545,-877 3115,-1428 4666,-1636 1606,-215 3153,-56 4601,470 1579,574 2963,1559 4115,2925 1113,1319 1972,2950 2554,4847l13 44 -25 -37c-1592,-2341 -3625,-3974 -6041,-4852 -5647,-2055 -12485,519 -17847,6716l-43 50zm1241 13462l-13 -64c-408,-2098 -555,-4174 -434,-6172 118,-1963 489,-3794 1104,-5445 620,-1667 1470,-3097 2525,-4255 1092,-1198 2380,-2072 3826,-2599 1579,-575 3272,-712 5032,-407 1699,296 3405,992 5069,2070l39 25 -45 -12c-2723,-769 -5329,-712 -7744,168 -5646,2058 -9231,8429 -9357,16624l-1 66z"/>
 </g>
</svg>
