<?xml version="1.0" encoding="UTF-8"?>
<!DOCTYPE svg PUBLIC "-//W3C//DTD SVG 1.0//EN" "http://www.w3.org/TR/2001/REC-SVG-20010904/DTD/svg10.dtd">
<!-- Creator: CorelDRAW -->
<svg xmlns="http://www.w3.org/2000/svg" xml:space="preserve" width="9mm" height="9.0001mm" version="1.0" style="shape-rendering:geometricPrecision; text-rendering:geometricPrecision; image-rendering:optimizeQuality; fill-rule:evenodd; clip-rule:evenodd"
viewBox="0 0 47949 47950"
 xmlns:xlink="http://www.w3.org/1999/xlink"
 xmlns:xodm="http://www.corel.com/coreldraw/odm/2003">
 <defs>
  <style type="text/css">
   <![CDATA[
    .fil0 {fill:#00A0E3;fill-rule:nonzero}
   ]]>
  </style>
 </defs>
 <g id="Layer_x0020_1">
  <metadata id="CorelCorpID_0Corel-Layer"/>
  <path class="fil0" d="M13074 43947l-27 -3c-646,-60 -1285,-189 -1899,-384 -1167,-370 -2228,-957 -3151,-1749 -892,-763 -1621,-1683 -2165,-2732 -544,-1050 -876,-2176 -987,-3350 -115,-1213 13,-2424 381,-3598 368,-1173 953,-2238 1739,-3167 760,-897 1674,-1628 2719,-2175 1045,-547 2166,-881 3332,-992 1208,-116 2412,13 3580,382 613,194 1210,457 1774,781l23 13 -27 -3c-274,-26 -548,-37 -819,-37 -3898,0 -7451,2572 -8640,6366 -1272,4057 471,8529 4143,10634l23 13zm10385 4003c-22,0 -44,0 -66,0 -1172,-8 -2318,-241 -3406,-695 -1088,-452 -2063,-1101 -2898,-1927 -865,-857 -1541,-1867 -2009,-3003 -469,-1136 -702,-2330 -693,-3551 9,-1177 241,-2329 692,-3422 450,-1094 1095,-2074 1918,-2913 851,-869 1856,-1549 2987,-2020 594,-248 1219,-432 1858,-550l26 -4 -22 14c-3475,2420 -4821,7029 -3200,10959 1413,3426 4784,5615 8382,5615 529,0 1061,-47 1594,-145l27 -5 -22 16c-534,372 -1105,686 -1700,933 -1110,463 -2276,696 -3467,696zm9872 -3151c-241,0 -482,-11 -724,-30 -1209,-96 -2373,-434 -3459,-1002 -1086,-567 -2029,-1331 -2802,-2272 -747,-908 -1305,-1940 -1660,-3069 -354,-1128 -487,-2296 -394,-3470 96,-1215 432,-2385 997,-3476 297,-574 657,-1118 1072,-1621l17 -20 -7 25c-1114,4100 803,8499 4557,10463 3755,1963 8440,1015 11140,-2254l18 -21 -7 27c-171,629 -408,1239 -705,1812 -565,1092 -1326,2039 -2261,2816 -904,751 -1931,1312 -3054,1669 -890,283 -1806,425 -2729,425zm5543 -8796c-544,0 -1087,-50 -1627,-150 -1153,-212 -2241,-643 -3234,-1278 -993,-636 -1841,-1444 -2521,-2404 -704,-994 -1194,-2107 -1460,-3307 -140,-630 -212,-1282 -215,-1934l-1 -27 12 24c1768,3859 6050,5992 10182,5069 4132,-922 7114,-4673 7092,-8923l-1 -27 11 24c272,593 480,1214 620,1844 265,1201 288,2418 69,3618 -212,1159 -640,2253 -1273,3250 -632,998 -1437,1851 -2392,2533 -988,708 -2095,1201 -3290,1468 -654,145 -1313,218 -1972,218zm-1378 -10324c-765,0 -1525,-98 -2272,-292 -1174,-307 -2263,-842 -3233,-1590 -510,-393 -982,-845 -1402,-1343l-17 -21 24 12c3823,1814 8467,681 11043,-2694 2575,-3375 2460,-8177 -274,-11417l-18 -20 25 11c587,279 1144,620 1654,1013 971,748 1767,1665 2367,2726 579,1025 950,2139 1104,3312 154,1173 83,2347 -212,3486 -305,1180 -838,2274 -1582,3249 -745,976 -1657,1777 -2713,2379 -1019,582 -2128,955 -3295,1110 -400,52 -799,79 -1197,79zm-7639 -7023c-513,0 -1029,-43 -1539,-132l-27 -4 26 -7c4089,-1079 6922,-4948 6736,-9198 -185,-4249 -3345,-7853 -7512,-8569l-27 -4 26 -7c628,-166 1272,-264 1915,-294 1223,-54 2419,135 3556,560 1099,410 2096,1025 2964,1824 868,799 1564,1743 2067,2807 522,1102 813,2284 867,3512 53,1229 -134,2432 -557,3575 -409,1103 -1019,2105 -1815,2978 -795,873 -1735,1572 -2793,2079 -1096,523 -2272,816 -3494,870 -131,5 -263,8 -394,8zm-5814 -1660l15 -21c2442,-3469 2138,-8262 -722,-11397 -2860,-3135 -7585,-3856 -11235,-1711l-23 13 15 -21c375,-534 805,-1025 1279,-1462 902,-831 1939,-1460 3083,-1868 1104,-396 2261,-570 3437,-519 1176,52 2313,326 3379,815 1103,507 2083,1224 2909,2131 827,906 1453,1948 1860,3098 393,1110 566,2272 515,3454 -51,1183 -324,2325 -811,3397 -505,1109 -1217,2093 -2119,2923 -474,437 -998,826 -1559,1155l-23 13zm-4229 1579l-3 -27c-348,-4235 -3646,-7711 -7843,-8264 -4196,-554 -8276,1947 -9701,5947l-9 26 -2 -27c-53,-650 -38,-1305 46,-1946 159,-1220 551,-2371 1166,-3424 593,-1015 1368,-1896 2302,-2616 934,-721 1980,-1246 3110,-1559 1170,-324 2378,-408 3591,-247 1214,160 2360,554 3406,1170 1011,597 1887,1376 2604,2315 717,937 1239,1990 1551,3124 323,1176 407,2391 247,3610 -84,641 -237,1278 -456,1892l-9 26zm-17162 13505l-19 -20c-457,-463 -864,-974 -1209,-1519 -658,-1037 -1094,-2173 -1296,-3375 -195,-1161 -165,-2336 90,-3492 255,-1156 721,-2233 1386,-3204 688,-1004 1560,-1848 2592,-2509 1032,-661 2162,-1100 3359,-1304 1156,-196 2325,-165 3474,90 1150,256 2222,724 3187,1393 999,692 1840,1567 2498,2606 346,544 635,1132 860,1743l10 26 -19 -19c-2975,-3018 -7724,-3551 -11293,-1264 -3569,2286 -5095,6838 -3628,10823l9 26z"/>
 </g>
</svg>
