<?xml version="1.0" encoding="UTF-8"?>
<!DOCTYPE svg PUBLIC "-//W3C//DTD SVG 1.0//EN" "http://www.w3.org/TR/2001/REC-SVG-20010904/DTD/svg10.dtd">
<!-- Creator: CorelDRAW -->
<svg xmlns="http://www.w3.org/2000/svg" xml:space="preserve" width="9mm" height="9.0001mm" version="1.0" style="shape-rendering:geometricPrecision; text-rendering:geometricPrecision; image-rendering:optimizeQuality; fill-rule:evenodd; clip-rule:evenodd"
viewBox="0 0 62826 62826"
 xmlns:xlink="http://www.w3.org/1999/xlink"
 xmlns:xodm="http://www.corel.com/coreldraw/odm/2003">
 <defs>
  <style type="text/css">
   <![CDATA[
    .fil0 {fill:#00A0E3;fill-rule:nonzero}
   ]]>
  </style>
 </defs>
 <g id="Layer_x0020_1">
  <metadata id="CorelCorpID_0Corel-Layer"/>
  <path class="fil0" d="M30739 62826c-1358,0 -2722,-158 -4068,-480 -2305,-549 -4433,-1534 -6327,-2927 -1829,-1346 -3363,-3016 -4558,-4960 -1195,-1944 -1992,-4069 -2369,-6311 -390,-2320 -310,-4669 238,-6980 736,-3106 2297,-5946 4512,-8215 2151,-2204 4853,-3812 7813,-4649l90 -24 -81 45c-4227,2401 -7294,6489 -8416,11219 -2234,9423 3596,18912 12999,21151 2897,690 5938,628 8796,-180l90 -24 -81 46c-2665,1513 -5635,2290 -8639,2290zm9233 -2766c-1876,0 -3733,-302 -5532,-901 -2163,-719 -4135,-1833 -5862,-3308 -1788,-1527 -3233,-3377 -4294,-5500 -1428,-2854 -2054,-6035 -1814,-9201 235,-3074 1273,-6046 3004,-8594l52 -77 -33 87c-1698,4563 -1425,9670 749,14016 4331,8658 14884,12171 23523,7830l6 10 -6 -10c2662,-1337 4953,-3344 6623,-5804l52 -77 -33 87c-1555,4177 -4599,7577 -8572,9572 -2118,1065 -4380,1681 -6724,1833 -381,24 -761,38 -1141,38zm5296 -8074c-46,0 -92,0 -138,0 -2349,-18 -4643,-505 -6817,-1448 -2923,-1266 -5444,-3298 -7290,-5879 -1793,-2505 -2903,-5453 -3211,-8519l-9 -93 31 88c1625,4588 5111,8326 9563,10255 8871,3841 19208,-265 23042,-9156l10 4 -10 -4c1181,-2740 1648,-5752 1351,-8713l-9 -93 31 88c1488,4200 1336,8766 -427,12855 -940,2180 -2277,4109 -3975,5735 -1640,1571 -3546,2795 -5665,3637 -2076,824 -4253,1243 -6475,1243zm-1118 -9603c-1454,0 -2907,-181 -4325,-547 -2980,-764 -5720,-2306 -7924,-4456l-67 -65 80 47c4188,2468 9255,3085 13903,1694 4486,-1343 8181,-4355 10406,-8485 2225,-4128 2712,-8877 1372,-13373 -852,-2860 -2426,-5469 -4553,-7544l-67 -66 80 47c3834,2260 6646,5855 7917,10123 678,2275 891,4615 634,6954 -249,2262 -924,4425 -2008,6435 -1083,2010 -2519,3765 -4269,5212 -1811,1499 -3881,2604 -6151,3284 -1642,491 -3337,738 -5030,738zm-7020 -6640c-433,0 -867,-16 -1300,-47l-94 -8 92 -15c4791,-808 9069,-3598 11737,-7658 5316,-8088 3075,-19003 -4996,-24330 -2487,-1642 -5366,-2626 -8326,-2847l-93 -7 91 -15c4387,-739 8846,203 12557,2653 1979,1307 3643,2962 4946,4921 1259,1890 2130,3985 2590,6223 459,2237 484,4505 73,6741 -426,2315 -1303,4496 -2606,6478 -1752,2665 -4187,4800 -7043,6174 -2382,1146 -4995,1738 -7628,1738zm553 -3816l60 -70c3152,-3705 4639,-8599 4079,-13427 -1116,-9621 -9834,-16539 -19433,-15420l-1 -11 1 11c-2958,343 -5795,1444 -8204,3182l-76 56 61 -72c2886,-3392 6907,-5543 11322,-6056 2353,-274 4690,-78 6944,582 2178,638 4188,1682 5975,3099 1787,1418 3261,3140 4380,5117 1159,2049 1885,4283 2158,6641 368,3171 -128,6375 -1436,9266 -1269,2810 -3259,5245 -5756,7047l-75 54zm-921 -4133l1 -95c39,-4867 -1961,-9573 -5487,-12913 -3279,-3104 -7531,-4797 -12023,-4797 -170,0 -340,3 -511,8 -4680,133 -9027,2085 -12243,5495 -2045,2170 -3512,4840 -4243,7724l-23 90 1 -94c36,-4456 1737,-8696 4789,-11932 1627,-1727 3543,-3081 5693,-4028 2077,-914 4286,-1410 6565,-1476 2278,-65 4512,304 6638,1099 2202,822 4190,2066 5913,3696 2315,2191 3989,4967 4843,8023 829,2970 868,6119 110,9106l-23 91zm-32685 16233l-59 -72c-2831,-3438 -4247,-7780 -3986,-12227 140,-2370 738,-4643 1779,-6752 1005,-2040 2379,-3842 4082,-5360 1704,-1518 3652,-2674 5790,-3434 2214,-788 4535,-1115 6900,-978 3179,188 6241,1235 8856,3027 2540,1740 4588,4128 5925,6905l40 84 -60 -72c-3092,-3756 -7643,-6072 -12486,-6357 -352,-21 -704,-31 -1053,-31 -4293,0 -8384,1553 -11621,4435 -3499,3118 -5578,7413 -5853,12097 -175,2979 414,5971 1704,8650l40 85zm14701 14684l-91 -18c-4374,-810 -8243,-3224 -10895,-6798 -1414,-1905 -2412,-4031 -2969,-6317 -538,-2209 -642,-4476 -310,-6736 332,-2260 1083,-4399 2233,-6360 1190,-2030 2758,-3777 4659,-5194 2556,-1904 5573,-3075 8726,-3387 3062,-302 6162,206 8967,1474l84 38 -91 -17c-4778,-883 -9750,272 -13642,3173 -7756,5778 -9375,16804 -3609,24577 1777,2394 4146,4306 6853,5528l85 39z"/>
 </g>
</svg>
