<?xml version="1.0" encoding="UTF-8"?>
<!DOCTYPE svg PUBLIC "-//W3C//DTD SVG 1.0//EN" "http://www.w3.org/TR/2001/REC-SVG-20010904/DTD/svg10.dtd">
<!-- Creator: CorelDRAW -->
<svg xmlns="http://www.w3.org/2000/svg" xml:space="preserve" width="8.2146mm" height="9.0706mm" version="1.0" style="shape-rendering:geometricPrecision; text-rendering:geometricPrecision; image-rendering:optimizeQuality; fill-rule:evenodd; clip-rule:evenodd"
viewBox="0 0 18330 20240"
 xmlns:xlink="http://www.w3.org/1999/xlink"
 xmlns:xodm="http://www.corel.com/coreldraw/odm/2003">
 <defs>
  <style type="text/css">
   <![CDATA[
    .fil0 {fill:#00A0E3}
   ]]>
  </style>
 </defs>
 <g id="Layer_x0020_1">
  <metadata id="CorelCorpID_0Corel-Layer"/>
  <path class="fil0" d="M3163 18235c-164,147 -260,361 -260,636l0 202 9042 0c-2,-276 -22,-540 -139,-734 -125,-207 -371,-343 -848,-343l-7068 0c-299,0 -552,83 -727,239zm-1958 -7156c71,174 235,309 497,309 254,0 414,-135 483,-309 27,-69 41,-146 41,-222 0,-77 -15,-154 -42,-224 -71,-180 -233,-321 -482,-321 -256,0 -423,142 -496,322 -29,71 -44,148 -44,223 0,77 14,154 42,222zm12988 -2650c139,36 295,43 580,43 172,0 372,-55 568,-158 221,-117 435,-296 593,-527 158,-230 260,-514 260,-841 0,-262 -66,-554 -222,-869 -133,91 -436,371 -776,704 -564,551 -1224,1238 -1424,1466 183,96 299,153 420,184zm-3015 181c58,125 118,252 158,366 466,-415 2430,-2400 3508,-3491l644 -651 236 -227c357,-341 943,-899 1078,-1125 -414,-214 -738,-329 -1067,-391 -347,-65 -706,-71 -1186,-71 -399,0 -864,130 -1304,327 -485,218 -937,517 -1234,814 -511,511 -872,1215 -1046,1956 -174,740 -161,1518 75,2175 32,89 85,203 139,318zm-2338 -6862c-80,176 -102,387 -102,632 0,404 318,690 589,934 68,61 133,120 187,174l193 197c231,236 456,467 720,656 425,-764 985,-1209 1289,-1451l146 -119c-115,-119 -445,-439 -766,-745 -345,-330 -678,-641 -717,-664 -172,-101 -361,-163 -555,-172 -177,-8 -358,27 -532,118 -235,121 -373,268 -451,441zm-6327 7593l5596 -5568 -83 -113c-76,-101 -149,-198 -224,-345 -266,-519 -315,-1089 -189,-1602 129,-529 446,-1000 901,-1296 170,-111 391,-227 637,-307 197,-65 413,-108 630,-108 809,0 1212,352 1607,698 81,71 162,142 245,208 204,162 414,391 624,618 234,253 467,507 681,657 142,-35 277,-77 413,-121 328,-104 662,-210 1086,-210l66 0c959,0 1611,0 2512,437l85 41c625,302 1230,595 1230,1115 0,143 -199,411 -458,698 -380,421 -900,900 -1087,1057 399,615 616,1250 594,1875 -21,599 -260,1188 -766,1739 -183,200 -497,428 -854,593 -295,137 -622,230 -930,230 -945,0 -1026,-47 -1490,-316 -109,-64 -242,-140 -412,-231 -38,28 -58,47 -83,71l-83 77c-241,210 -449,418 -631,600 -224,224 -411,411 -584,525 -316,208 -573,183 -868,-265l-94 -140c-82,-120 -160,-234 -238,-380 -110,-206 -203,-382 -282,-567 -81,-189 -152,-390 -216,-643 -115,-456 -190,-1052 -177,-1624 10,-457 78,-900 226,-1248l-944 -917 -5651 5679c56,248 106,552 85,842 -21,295 -115,576 -347,776 485,729 1004,1591 1525,2455 531,881 1063,1764 1553,2499l4558 0c554,-1 1044,70 1439,263 403,197 708,518 887,1014 59,163 180,687 180,1165 0,206 -23,407 -81,570 -63,175 -168,309 -330,367 -56,20 -119,31 -187,31l-10378 0c-125,0 -242,-77 -328,-187 -86,-111 -143,-260 -143,-397l0 -157c-3,-872 -7,-1811 918,-2343 599,-345 1026,-339 1772,-330l297 3c-229,-434 -1240,-2048 -1865,-3046l-505 -813c-87,-150 -243,-416 -289,-419 -98,-8 -177,-3 -257,2 -134,8 -269,17 -482,-29 -783,-169 -1196,-717 -1298,-1324 -50,-296 -25,-608 68,-894 93,-288 254,-553 475,-756 436,-400 1103,-565 1944,-209z"/>
 </g>
</svg>
