<?xml version="1.0" encoding="UTF-8"?>
<!DOCTYPE svg PUBLIC "-//W3C//DTD SVG 1.0//EN" "http://www.w3.org/TR/2001/REC-SVG-20010904/DTD/svg10.dtd">
<!-- Creator: CorelDRAW -->
<svg xmlns="http://www.w3.org/2000/svg" xml:space="preserve" width="6.911mm" height="9mm" version="1.0" style="shape-rendering:geometricPrecision; text-rendering:geometricPrecision; image-rendering:optimizeQuality; fill-rule:evenodd; clip-rule:evenodd"
viewBox="0 0 14613 19030"
 xmlns:xlink="http://www.w3.org/1999/xlink"
 xmlns:xodm="http://www.corel.com/coreldraw/odm/2003">
 <defs>
  <style type="text/css">
   <![CDATA[
    .fil0 {fill:#00A0E3}
   ]]>
  </style>
 </defs>
 <g id="Layer_x0020_1">
  <metadata id="CorelCorpID_0Corel-Layer"/>
  <path class="fil0" d="M0 5542l5286 4 0 3 2020 -2 2020 2 0 -3 5286 -4 -782 -5525 -5255 -11 -3 -5 -1267 3 -1267 -3 -3 5 -5255 11 -782 5525zm6689 8674l1265 0 26 -1329 -1348 1 57 1329zm282 2080c180,949 97,482 350,743 259,-286 185,132 352,-734 82,1026 94,460 694,753 -146,-750 -199,-1816 -609,-2443l-872 1c-440,629 -458,1497 -629,2433 702,-296 586,259 715,-754zm-3113 2734l6928 -16 -35 -1384 -6915 -134 22 1535zm1410 -13058l1380 6518 1249 -16 1529 -6469c-768,30 -550,-157 -845,805l-954 3989 -306 -4860c-537,700 -243,3312 -315,4850l-972 -3955c-264,-831 -76,-604 -765,-863z"/>
 </g>
</svg>
