<?xml version="1.0" encoding="UTF-8"?>
<!DOCTYPE svg PUBLIC "-//W3C//DTD SVG 1.0//EN" "http://www.w3.org/TR/2001/REC-SVG-20010904/DTD/svg10.dtd">
<!-- Creator: CorelDRAW -->
<svg xmlns="http://www.w3.org/2000/svg" xml:space="preserve" width="5.4131mm" height="9mm" version="1.0" style="shape-rendering:geometricPrecision; text-rendering:geometricPrecision; image-rendering:optimizeQuality; fill-rule:evenodd; clip-rule:evenodd"
viewBox="0 0 10269 17074"
 xmlns:xlink="http://www.w3.org/1999/xlink"
 xmlns:xodm="http://www.corel.com/coreldraw/odm/2003">
 <defs>
  <style type="text/css">
   <![CDATA[
    .fil0 {fill:#00A0E3}
   ]]>
  </style>
 </defs>
 <g id="Layer_x0020_1">
  <metadata id="CorelCorpID_0Corel-Layer"/>
  <path class="fil0" d="M0 7012l10269 -11c-413,-1349 -2383,-5975 -3021,-7002l-4297 12 -2951 7001zm5052 9522c-2354,-10 -1620,-141 -1886,322 532,269 3380,309 3931,0 -298,-549 -129,-314 -2045,-322zm335 -6804c116,138 266,-92 482,1105 168,929 138,1791 -42,2705l-467 1147 27 -4958zm-861 4290c-387,-1300 -368,-3168 362,-4369l-11 5072 -350 -703zm1853 -6418c-368,-273 -607,-120 -739,-113l-1112 -1c-45,-1 -251,6 -374,25l595 977c-456,1516 -1032,1835 -927,3900 118,2314 1033,2860 239,3802l2147 -31c-540,-597 -375,-893 -108,-1780 194,-647 333,-1461 350,-2171 47,-1911 -436,-2380 -966,-3743l894 -866z"/>
 </g>
</svg>
