<?xml version="1.0" encoding="UTF-8"?>
<!DOCTYPE svg PUBLIC "-//W3C//DTD SVG 1.0//EN" "http://www.w3.org/TR/2001/REC-SVG-20010904/DTD/svg10.dtd">
<!-- Creator: CorelDRAW -->
<svg xmlns="http://www.w3.org/2000/svg" xml:space="preserve" width="5.5246mm" height="9.0999mm" version="1.0" style="shape-rendering:geometricPrecision; text-rendering:geometricPrecision; image-rendering:optimizeQuality; fill-rule:evenodd; clip-rule:evenodd"
viewBox="0 0 12435 20482"
 xmlns:xlink="http://www.w3.org/1999/xlink"
 xmlns:xodm="http://www.corel.com/coreldraw/odm/2003">
 <defs>
  <style type="text/css">
   <![CDATA[
    .fil0 {fill:#00A0E3}
   ]]>
  </style>
 </defs>
 <g id="Layer_x0020_1">
  <metadata id="CorelCorpID_0Corel-Layer"/>
  <path class="fil0" d="M2143 19398c-151,-8 -304,-17 -439,-1l11 375 9049 -9 1 -365c-135,-16 -289,-8 -441,1 -301,16 -596,32 -806,-127l-1221 -864c-86,-17 -332,-12 -505,-8l-561 1c-905,-4 -2880,-14 -3063,8l-1219 863c-211,160 -506,143 -806,127zm4338 -12962l-477 2 9 11337 477 -6 -9 -11334zm3139 3783c-136,-239 -301,-506 -396,-653 -97,154 -241,398 -361,621 -68,125 -128,241 -166,326l1081 0c-37,-77 -94,-181 -158,-294zm-693 -9568l-5389 6 -2475 5097 10345 -4 -2481 -5099zm-3603 5784l-5324 -5c898,-1866 1797,-3732 2707,-5592l99 -215c90,-197 186,-408 286,-571l33 -54 6216 0 33 54c74,120 580,1153 1157,2343 847,1749 1852,3849 1865,3896l38 141 -2840 8 -2 2361c5,64 15,73 32,89 19,18 42,39 70,75 62,79 140,220 206,341l66 118c75,130 149,251 213,355 291,474 394,643 315,1286l-12 98 -2459 1 -12 -98c-11,-87 -20,-270 -17,-434 2,-124 12,-242 34,-307 74,-222 456,-784 626,-1084 57,-103 115,-209 175,-289 32,-43 56,-65 73,-82 7,-7 9,-10 12,-95l-3 -2341 -1768 -1 12 11314 352 -6c307,-7 628,-14 890,5 177,13 505,274 723,448l303 237c203,162 428,341 570,344 154,3 323,-1 493,-5 284,-7 576,-14 831,12l101 10 -10 1687c-3463,0 -6926,1 -10388,-6l15 -1692 105 -5c236,-12 479,-8 721,-3 194,3 389,7 579,2 139,-4 225,-72 313,-142l88 -67 765 -549 111 -84c145,-112 197,-152 388,-159 311,-11 653,-6 981,-1l228 3c37,-884 18,-7965 11,-10532l-2 -809z"/>
 </g>
</svg>
