<?xml version="1.0" encoding="UTF-8"?>
<!DOCTYPE svg PUBLIC "-//W3C//DTD SVG 1.0//EN" "http://www.w3.org/TR/2001/REC-SVG-20010904/DTD/svg10.dtd">
<!-- Creator: CorelDRAW -->
<svg xmlns="http://www.w3.org/2000/svg" xml:space="preserve" width="5.3424mm" height="9mm" version="1.0" style="shape-rendering:geometricPrecision; text-rendering:geometricPrecision; image-rendering:optimizeQuality; fill-rule:evenodd; clip-rule:evenodd"
viewBox="0 0 13904 23424"
 xmlns:xlink="http://www.w3.org/1999/xlink"
 xmlns:xodm="http://www.corel.com/coreldraw/odm/2003">
 <defs>
  <style type="text/css">
   <![CDATA[
    .fil0 {fill:#00A0E3}
   ]]>
  </style>
 </defs>
 <g id="Layer_x0020_1">
  <metadata id="CorelCorpID_0Corel-Layer"/>
  <path class="fil0" d="M0 23424l4842 0 0 -1211c-456,-7 -328,72 -627,-134 7,-1210 2,-2422 2,-3632 0,-1170 420,-2872 -838,-2872 -3275,0 -2754,-213 -2754,2872 0,4258 220,3753 -625,3766l0 1211zm11545 -16700c-14,332 -158,631 -382,847 -78,97 -180,176 -329,230 -164,79 -349,123 -544,123 -174,0 -339,-35 -489,-99 -162,-50 -274,-130 -359,-231 -235,-215 -388,-519 -406,-859l-23 -46 -1493 -10 -842 0 0 -6c6,-1187 239,-1787 797,-2421 521,-693 1259,-1191 2104,-1372 -26,-49 -59,-103 -96,-155 -671,-1562 -2229,-1638 -4235,-1470 -1870,157 -2246,1634 -2241,3487 11,3872 -16,6487 3,10359l-1175 -2 2 -7532c0,-3124 -533,-5684 1781,-7015 1056,-607 2457,-600 3786,-510 2818,190 2772,2271 3734,2862l21 13c841,223 1566,760 2059,1490 423,515 681,1198 687,2268l0 0 0 3 -2337 0 -22 43z"/>
 </g>
</svg>
