<?xml version="1.0" encoding="UTF-8"?>
<!DOCTYPE svg PUBLIC "-//W3C//DTD SVG 1.0//EN" "http://www.w3.org/TR/2001/REC-SVG-20010904/DTD/svg10.dtd">
<!-- Creator: CorelDRAW -->
<svg xmlns="http://www.w3.org/2000/svg" xml:space="preserve" width="8.318mm" height="9mm" version="1.0" style="shape-rendering:geometricPrecision; text-rendering:geometricPrecision; image-rendering:optimizeQuality; fill-rule:evenodd; clip-rule:evenodd"
viewBox="0 0 41124 44496"
 xmlns:xlink="http://www.w3.org/1999/xlink"
 xmlns:xodm="http://www.corel.com/coreldraw/odm/2003">
 <defs>
  <style type="text/css">
   <![CDATA[
    .fil0 {fill:#00A0E3}
   ]]>
  </style>
 </defs>
 <g id="Layer_x0020_1">
  <metadata id="CorelCorpID_0Corel-Layer"/>
  <path class="fil0" d="M19929 998c-1047,1644 -177,1224 -186,3605 -905,-487 -1288,-843 -2381,-1379 -1964,-962 -691,-72 -1781,-1491 -1475,-1920 -2904,-1611 -5426,-1599 -5252,24 -9251,-1269 -10153,3725 2795,-130 3567,-132 5545,-116 10518,89 13751,-1674 13983,6704 -19,4609 304,24159 -175,26982 -316,622 -868,920 -1627,1355 -2839,1631 -3121,-157 -3105,5691l11934 21c0,-4748 330,-4012 -2955,-5601 -2062,-1102 -1981,-2507 -1970,-5856 19,-5463 -6,-10933 -6,-16398 0,-16109 -2078,-12283 19499,-12719 -1084,-4886 -3871,-3762 -10203,-3790 -7284,-31 -2097,841 -9590,4501 54,-2276 1385,-3718 -1402,-3637zm-18853 3465c779,2659 2243,2980 5432,2980 4771,0 7804,713 8752,-3011l-14184 31zm24744 -7c1557,3452 1802,3006 7288,3016 3974,7 5747,486 6923,-3037l-14211 21z"/>
 </g>
</svg>
