<?xml version="1.0" encoding="UTF-8"?>
<!DOCTYPE svg PUBLIC "-//W3C//DTD SVG 1.0//EN" "http://www.w3.org/TR/2001/REC-SVG-20010904/DTD/svg10.dtd">
<!-- Creator: CorelDRAW -->
<svg xmlns="http://www.w3.org/2000/svg" xml:space="preserve" width="8.9267mm" height="9mm" version="1.0" style="shape-rendering:geometricPrecision; text-rendering:geometricPrecision; image-rendering:optimizeQuality; fill-rule:evenodd; clip-rule:evenodd"
viewBox="0 0 61842 62349"
 xmlns:xlink="http://www.w3.org/1999/xlink"
 xmlns:xodm="http://www.corel.com/coreldraw/odm/2003">
 <defs>
  <style type="text/css">
   <![CDATA[
    .fil0 {fill:#00A0E3}
   ]]>
  </style>
 </defs>
 <g id="Layer_x0020_1">
  <metadata id="CorelCorpID_0Corel-Layer"/>
  <path class="fil0" d="M32970 32436c-2996,-3864 2687,-4335 1074,-8254 -1136,-2757 -1794,126 -1791,-4071 3,-4219 732,-1304 1812,-4042 357,-905 379,-1645 30,-2599 -990,-2707 -1736,968 -1792,-6328l4589 -30 -12 -7111 -12087 23 33 7105 4547 8c0,853 104,3111 -62,3807 -405,1713 -909,792 -1622,2234 -1489,3013 1516,4099 1683,5413 625,4908 -1156,3582 -1848,5872 -932,3082 1512,3059 1855,5190 484,3005 -2132,2955 -2006,5655 136,2935 1975,1090 2008,5345l-4381 -22 -2603 12856 6723 -3 -2412 2047c-5863,3916 -15109,8625 -17289,-2040l7654 -82 -2966 -12748 -11494 -28 -2613 12855c8369,-4 7263,-497 8028,1592 227,619 325,1099 581,1711 4036,9634 15975,3315 21269,-1102 296,2134 -260,5010 463,6662 2443,-487 1275,-1551 1507,-6620l5525 3519c2104,1123 4183,2215 6956,2586 8897,1189 8199,-6875 10475,-8353l7037 -20 -2748 -12821 -11684 53 -2717 12775 7564 14c-1777,8922 -8870,7171 -14953,3532 -561,-336 -4358,-2641 -4522,-3285 -38,-149 -150,-160 -216,-248l6884 -21 -2746 -12821 -4399 11c36,-4724 4306,-3522 666,-8215z"/>
 </g>
</svg>
