<?xml version="1.0" encoding="UTF-8"?>
<!DOCTYPE svg PUBLIC "-//W3C//DTD SVG 1.0//EN" "http://www.w3.org/TR/2001/REC-SVG-20010904/DTD/svg10.dtd">
<!-- Creator: CorelDRAW -->
<svg xmlns="http://www.w3.org/2000/svg" xml:space="preserve" width="9.9719mm" height="9.211mm" version="1.0" style="shape-rendering:geometricPrecision; text-rendering:geometricPrecision; image-rendering:optimizeQuality; fill-rule:evenodd; clip-rule:evenodd"
viewBox="0 0 110610 102170"
 xmlns:xlink="http://www.w3.org/1999/xlink"
 xmlns:xodm="http://www.corel.com/coreldraw/odm/2003">
 <defs>
  <style type="text/css">
   <![CDATA[
    .fil0 {fill:#00A0E3}
   ]]>
  </style>
 </defs>
 <g id="Layer_x0020_1">
  <metadata id="CorelCorpID_0Corel-Layer"/>
  <g>
   <path class="fil0" d="M52758 63055l5636 -17 -2302 -23296 -3334 23313zm-3187 -2437c-151,-415 -412,-1019 -603,-1423 -190,-394 -404,-781 -643,-1154 -447,-692 -983,-1343 -1578,-1924 -595,-579 -1257,-1097 -1954,-1523 -1440,-880 -3007,-1379 -4582,-1534 -2092,-205 -4203,193 -6061,1097 -1862,906 -3487,2326 -4605,4156 -816,1334 -1362,2891 -1532,4624 -145,1484 -91,15728 -67,22224l4 2973c0,2344 -72,4019 -475,5304 -373,1189 -1074,2123 -2344,3097 -1141,875 -2545,1316 -3959,1321 -1432,6 -2880,-428 -4087,-1297 -1197,-861 -1953,-1908 -2378,-3201 -396,-1206 -525,-2649 -468,-4367 1209,-344 3182,-978 4604,-3318 1261,-2075 1228,-3965 1171,-6319l339 9c753,23 1202,39 1769,-487 562,-528 753,-1348 1225,-3362l366 -1490c426,-1636 628,-2416 325,-4876 -789,-6356 -1319,-14936 -2601,-20867 -339,-2150 -1262,-2118 -2903,-2062l-530 12c-1477,6 -3024,-17 -4581,-39 -3016,-43 -6087,-87 -8919,68l-408 23 -307 270c-997,880 -1079,1785 -1211,3248 -31,343 -67,730 -124,1157l-1607 12948c-177,1403 -367,2651 -511,3620 -226,1520 -354,2366 -331,3305 28,1156 291,2232 876,4650l307 1268c534,2220 814,2620 2033,2657l-89 53 1113 -1c-6,4105 90,7974 5786,9516 47,766 58,1392 67,1949 41,2447 65,3821 2049,6620 805,1136 1943,2252 3391,3095 1226,713 2681,1235 4347,1411 1796,190 3447,-55 4891,-558 1719,-599 3144,-1572 4165,-2612 1059,-1080 1880,-2255 2438,-3693 546,-1404 827,-3045 829,-5076l6 -14293 -40 -2604c-65,-3744 -165,-9376 299,-10979 436,-1499 1381,-2882 2721,-3808 1188,-820 2704,-1284 4469,-1154 1515,113 3059,887 4224,2015 770,744 1362,1634 1654,2571l-2872 -3c-2400,140 -2622,1068 -2214,8094l18 165c1624,8117 7298,8011 12525,7914l1525 -19 2151 10c1525,9 3061,20 4566,-14 2127,-47 3970,-761 5414,-1883 1577,-1226 2687,-2939 3192,-4803 400,-1476 362,-3811 331,-5651l-14 -1126c-11,-2377 -839,-2750 -3295,-2742l-1766 40 69 -201c215,-578 488,-1119 724,-1422 722,-924 1517,-1668 2426,-2174 888,-496 1908,-778 3097,-795 1107,-16 2205,268 3131,714 969,467 1733,1197 2286,1702 679,621 1043,1801 1289,2675 425,1507 311,13940 257,20299l-47 4914c-54,2576 -111,5300 805,7556 930,2293 2478,4082 4344,5285 1477,955 3155,1543 4873,1719 1728,177 3507,-53 5178,-731 2059,-835 3960,-2345 5416,-4598 1471,-2274 1503,-4008 1541,-6233 9,-484 18,-997 49,-1578 5738,-1558 5791,-5508 5785,-9601l40 0c934,2 1442,1 1989,-396 628,-459 764,-1036 1057,-2275l568 -2344c408,-1645 598,-2405 630,-3221 28,-719 -64,-1320 -234,-2429 -116,-765 -273,-1777 -413,-2916l-1922 -15376c-55,-431 -88,-859 -112,-1216 -105,-1477 -159,-2217 -1494,-2716 -823,-308 -2106,-296 -4653,-271l-3310 16 -3545 -21c-2391,-29 -3617,-44 -4409,236 -1352,477 -1409,1200 -1515,2674 -24,334 -54,732 -101,1104l-1292 10277c-138,1106 -296,2186 -455,3290 -346,2396 -708,4895 -837,7093 -55,953 467,2962 821,4326l328 1336c325,1371 460,1948 1050,2398 484,372 892,379 1585,384l461 8c-32,3647 199,7690 4950,9423 301,110 563,173 815,230 43,1242 -4,2378 -204,3395 -224,1141 -648,2141 -1358,2982 -488,578 -1033,1050 -1607,1416 -1292,823 -2783,1151 -4224,1044 -1441,-108 -2830,-653 -3920,-1573 -480,-405 -904,-881 -1245,-1416 -1208,-1897 -1189,-3917 -1165,-6522l13 -1239 0 -19465c0,-2507 -4,-4902 -672,-7133 -700,-2333 -2089,-4384 -4850,-5984 -1123,-650 -2408,-1101 -3720,-1326 -1311,-223 -2669,-225 -3934,19 -2012,388 -3792,1286 -5232,2565 -908,809 -1683,1771 -2294,2855l-221 -1873c-957,-8476 -1964,-16950 -2970,-25420 1025,-478 1897,-1107 2610,-1839 1135,-1162 1869,-2586 2190,-4075 318,-1485 228,-3045 -281,-4488 -400,-1131 -1059,-2194 -1980,-3093 -768,-748 -1327,-1185 -2045,-1543 -495,-247 -1042,-437 -1790,-664l14 -1849c35,-4272 97,-11547 -219,-12424l-64 -155c-129,-243 -628,-771 -1174,-1004 -336,-143 -725,-219 -1134,-141 -448,83 -862,325 -1185,805 -314,475 -529,1247 -517,2454l-7 12312c-717,217 -1255,403 -1756,652 -728,356 -1306,799 -2082,1557 -813,795 -1393,1723 -1744,2718 -535,1494 -577,3134 -176,4703 393,1547 1217,3041 2411,4265 994,1016 2396,1901 3881,2434l-18 225 -4086 28460 0 0zm-41106 18836l7190 -8 -38 2976 0 22 -30 2421 29 -2421c-13,190 -58,378 -123,555 -225,597 -720,1124 -1360,1492 -676,389 -1509,597 -2364,535 -372,-27 -748,-106 -1114,-244 -1072,-404 -1647,-1129 -1928,-2084 -262,-886 -308,-1994 -263,-3243zm-3342 -4332l-156 -561 -246 -1067 14710 -32 -379 1643 -13928 18zm94078 4168l2888 11c55,1303 18,2467 -253,3392 -281,958 -852,1689 -1921,2088 -362,134 -738,213 -1111,241 -854,63 -1690,-144 -2373,-534 -644,-368 -1142,-894 -1364,-1490 -64,-173 -108,-362 -121,-555l-21 -301 -166 -255c-72,-111 -121,-752 -136,-1470 -9,-408 -2,-809 20,-1130 1141,-32 3056,-13 4559,2zm-7706 -4168l-388 -1646 14742 -14 -252 1114 -145 522 -13956 24zm608 -16304c240,-2134 753,-6685 1022,-8317l10631 -18c203,1342 612,4444 1042,7819 528,4152 1073,8679 1304,10911l-15299 -7c234,-2025 485,-3952 737,-5891l439 -3403 125 -1095zm-72340 10362l-15302 27c237,-2273 796,-6937 1334,-11154 417,-3273 810,-6248 1005,-7537l10634 -33c131,835 294,2324 400,3309 351,3118 768,6234 1171,9345 264,2012 529,4025 756,6044zm27957 4253c-739,-287 -1531,-867 -2118,-1628 -476,-618 -806,-1347 -832,-2111l-10 -301 -145 -250c-57,-99 -91,-592 -105,-1199 -16,-612 3,-1287 38,-1854l21466 -49c35,577 57,1276 40,1907 -14,603 -48,1091 -102,1184l-150 255 -10 305c-23,750 -341,1461 -795,2063 -576,761 -1360,1342 -2076,1642 -1167,486 -3974,423 -6096,375l-1542 -30 -1459 26c-2103,41 -4990,98 -6103,-335zm4124 -47425c-307,-504 -515,-1077 -611,-1667 -98,-591 -84,-1201 47,-1777 323,-1420 1413,-2668 3413,-2993 1891,-307 3273,530 4018,1768 304,507 510,1080 606,1672 97,593 87,1205 -41,1779 -314,1420 -1375,2665 -3320,2987 -1934,321 -3352,-520 -4111,-1769z"/>
  </g>
 </g>
</svg>
