<?xml version="1.0" encoding="UTF-8"?>
<!DOCTYPE svg PUBLIC "-//W3C//DTD SVG 1.0//EN" "http://www.w3.org/TR/2001/REC-SVG-20010904/DTD/svg10.dtd">
<!-- Creator: CorelDRAW -->
<svg xmlns="http://www.w3.org/2000/svg" xml:space="preserve" width="10.1936mm" height="7.0514mm" version="1.0" style="shape-rendering:geometricPrecision; text-rendering:geometricPrecision; image-rendering:optimizeQuality; fill-rule:evenodd; clip-rule:evenodd"
viewBox="0 0 207314 143409"
 xmlns:xlink="http://www.w3.org/1999/xlink"
 xmlns:xodm="http://www.corel.com/coreldraw/odm/2003">
 <defs>
  <style type="text/css">
   <![CDATA[
    .fil0 {fill:#00A0E3}
   ]]>
  </style>
 </defs>
 <g id="Layer_x0020_1">
  <metadata id="CorelCorpID_0Corel-Layer"/>
  <path class="fil0" d="M172459 132412l-12626 -6c212,370 451,720 712,1045 317,395 679,765 1078,1092 633,523 1363,948 2166,1228 757,264 1592,407 2475,397 862,-10 1668,-169 2394,-437 775,-289 1479,-712 2083,-1226 372,-319 724,-685 1031,-1076 250,-317 482,-661 687,-1017zm-59270 -254l-12721 2c193,342 413,673 655,980 303,382 647,742 1019,1058 630,537 1369,978 2172,1279 769,289 1611,458 2497,472 830,14 1645,-138 2400,-419 809,-301 1564,-752 2221,-1306 386,-325 746,-694 1070,-1086 254,-309 486,-641 687,-980zm-60147 4l-12654 35c199,340 427,671 679,982 305,376 657,738 1037,1062 624,531 1344,970 2127,1265 728,275 1523,431 2357,431 872,0 1714,-161 2489,-449 830,-305 1590,-757 2245,-1304 382,-319 738,-679 1049,-1062 250,-307 474,-628 669,-960zm92524 -7073l42514 8c-59,-665 -159,-1336 -295,-1997 -153,-746 -356,-1501 -602,-2245 -360,-1098 -807,-2158 -1310,-3140 -519,-1007 -1106,-1952 -1733,-2786 -988,-1316 -1220,-1509 -1483,-1727l-22 -18c-260,-222 -567,-482 -1137,-1119 -1792,-2005 -3960,-3478 -6327,-4452 -2528,-1037 -5294,-1511 -8078,-1466 -1350,20 -2713,169 -4051,431 -1346,260 -2683,647 -3974,1141 -1296,496 -2556,1108 -3740,1822 -1163,702 -2268,1513 -3272,2410 -1871,1672 -3455,3699 -4594,6032 -1033,2119 -1704,4499 -1895,7106zm-59209 -244l42378 10c-307,-2497 -978,-4783 -1934,-6827 -1037,-2219 -2426,-4171 -4053,-5817 -1058,-1070 -2229,-2020 -3470,-2829 -1265,-826 -2619,-1517 -4019,-2056 -1391,-537 -2845,-936 -4326,-1180 -1470,-244 -2971,-336 -4468,-275 -2569,106 -5147,683 -7586,1753 -2308,1015 -4509,2485 -6469,4425 -883,875 -1710,1871 -2457,2986 -708,1060 -1346,2227 -1885,3500 -413,976 -775,2017 -1068,3122 -270,1009 -486,2074 -643,3187zm-60177 -2l42408 12c-303,-2485 -1011,-4846 -2050,-6998 -1088,-2253 -2554,-4285 -4314,-6006 -1946,-1906 -4265,-3433 -6846,-4464 -2479,-990 -5215,-1529 -8109,-1519 -2876,10 -5597,569 -8060,1572 -2556,1041 -4853,2571 -6779,4472 -1731,1708 -3173,3730 -4240,5967 -1021,2135 -1714,4482 -2011,6964zm173712 -117334l-192400 -24 -2 71c-37,1651 -71,3124 183,4338 248,1192 781,2156 1869,2839 1255,785 6252,639 9648,541l2369 -55 164347 0 2508 53c3344,87 7881,209 9435,-555 2172,-1064 2119,-3775 2044,-7208zm-141851 130283c-311,382 -620,759 -862,1220l-407 783 -1076 254 -106 83c-262,209 -730,584 -923,675 -1619,1082 -3358,1775 -5113,2135 -1887,384 -3803,380 -5615,47 -1763,-319 -3445,-964 -4924,-1853 -1472,-891 -2754,-2036 -3724,-3368l-246 -358c-409,-614 -744,-1133 -1027,-1617 -285,-484 -523,-942 -740,-1432l-435 -1078 -370 -1115 -3295 35c-3197,61 -6620,124 -8597,-437l-974 -277 -344 -974c-285,-820 -464,-1725 -547,-2670 -92,-1023 -73,-2113 24,-3203 104,-1176 303,-2363 555,-3488 285,-1287 647,-2514 1017,-3569 844,-2408 2030,-4686 3484,-6764 1485,-2119 3258,-4043 5237,-5693 1979,-1651 4177,-3043 6514,-4104 2280,-1037 4702,-1767 7193,-2131l978 -92 -4 -76248c-6063,89 -12196,57 -18304,24l-10610 -39c-1538,0 -2898,-33 -4137,-146 -1234,-116 -2337,-317 -3350,-655 -1104,-370 -2083,-889 -2969,-1605 -887,-716 -1690,-1637 -2441,-2798 -474,-740 -858,-1749 -1151,-2894 -319,-1259 -535,-2697 -649,-4147 -120,-1544 -134,-3156 -53,-4617 81,-1442 260,-2752 525,-3710l293 -1041 1035 -317c2597,-787 14139,-614 21255,-508l4493 47 76081 0 11635 -37c27012,-112 87767,-366 90271,669l895 370 256 925c209,752 362,1887 443,3181 85,1330 102,2847 41,4314 -57,1373 -185,2744 -386,3927 -183,1074 -433,2011 -748,2681 -425,901 -1001,1765 -1698,2546 -681,759 -1485,1444 -2382,2009 -850,533 -1798,976 -2821,1285 -966,293 -2009,474 -3106,513 -2178,75 -4458,128 -6779,159l-7053 24 -6081 -57 -5723 -100 0 76449c1688,212 3301,559 4830,1027 1580,482 3085,1098 4509,1830 1645,842 3193,1847 4647,2984 1448,1135 2815,2412 4106,3809 458,494 978,1163 1507,1928 527,763 1076,1641 1594,2556 488,860 960,1765 1365,2652 380,826 714,1647 966,2414l462 1542 390 1584 301 1566 205 1542c305,2947 313,4840 -254,6061 -586,1253 -1747,1790 -3760,1999 -543,55 -1145,69 -1818,63l-2386 -77c-1767,-67 -3992,-155 -6742,-94 -551,2152 -1470,3990 -2652,5509 -1304,1678 -2927,2971 -4718,3880 -1072,543 -2209,952 -3370,1218 -1188,273 -2414,405 -3630,393 -1208,-12 -2426,-167 -3608,-458 -1163,-287 -2300,-716 -3360,-1271 -1763,-921 -3356,-2215 -4627,-3858 -1151,-1489 -2046,-3280 -2565,-5353l-708 31c-1950,85 -4417,195 -6636,87 -2243,-108 -4247,-447 -5239,-1253l-236 -228c-740,-856 -1102,-2146 -1163,-3681 -65,-1672 218,-3657 746,-5701 521,-2024 1285,-4169 2164,-6134 858,-1920 1839,-3681 2819,-4993 832,-1110 1568,-1895 2137,-2502 246,-264 441,-366 565,-431l75 -26 89 -927 2487 -1741c1757,-1267 3431,-2473 6040,-3653 1230,-553 2280,-913 3244,-1173 956,-256 1857,-427 2790,-598l41 -8c630,-118 1287,-240 2042,-415l-6 -76565 -51979 53c-61,3832 -114,11617 -142,20826 -24,8999 -31,19376 -8,28782l85 18021c31,4143 77,7224 128,8652 799,191 1544,332 2255,462l55 10c1468,268 2872,529 4470,1108 1605,582 3423,1495 5723,3063l1440 1053 1422 1169c437,382 864,783 1251,1173 364,368 704,746 1003,1115 907,1265 1889,2512 2857,3738l1407 1796 39 96 43 519c14,199 372,1123 783,2190l98 256c582,1503 1245,3211 1517,4486 155,728 315,1540 437,2382 124,842 214,1719 234,2571 22,974 -51,1934 -266,2815 -214,887 -582,1698 -1131,2361l-386 468 -98 61 -574 134c-460,108 -1143,191 -1965,248 -909,61 -2011,98 -3175,112l-3573 -2 -4013 -79c-338,1108 -759,2144 -1253,3093 -517,992 -1127,1910 -1818,2742 -844,1015 -1814,1902 -2890,2646 -1084,750 -2286,1367 -3592,1839 -3738,1352 -6819,1023 -9260,104 -2434,-915 -4234,-2422 -5426,-3421l-563 -523 -952 -317 -307 -942c-79,-248 -183,-476 -295,-687l-826 -1401 -464 -901 -358 -883 -443 -1357 -3118 37c-3101,55 -6437,114 -8666,-352l-1102 -232 -362 -1070c-513,-1529 -694,-3217 -624,-4958 79,-1948 472,-3978 1058,-5939 675,-2253 1625,-4464 2650,-6380 1139,-2127 2375,-3905 3437,-4993l1920 -1922c602,-576 1194,-1108 1818,-1613 645,-525 1318,-1017 2052,-1493 746,-480 1566,-956 2495,-1440 850,-439 1716,-846 2597,-1208 879,-362 1780,-683 2703,-954 712,-212 1444,-395 2188,-547 696,-140 1418,-262 2162,-354 236,-5109 122,-21881 57,-31680l-45 -6606c0,-3685 59,-8125 116,-12620l6 -439c102,-8347 205,-16842 -83,-24873l-52843 102 96 76158 2099 370c724,142 1428,305 2115,486 933,246 1845,541 2750,897 913,364 1832,795 2772,1310 1578,866 3063,1857 4434,2957 1373,1100 2638,2323 3779,3638 1139,1316 2158,2735 3036,4236 875,1495 1621,3083 2217,4739 358,997 736,2257 1041,3614 260,1145 476,2377 592,3592 106,1106 132,2215 41,3244 -81,933 -262,1814 -559,2583l-305 791 -783 317c-1117,456 -3539,645 -6164,698 -2554,51 -5320,-20 -7273,-85l-281 864 -500 1275 -555 1186c-502,990 -1039,1645 -1544,2264l-16 16z"/>
 </g>
</svg>
