<?xml version="1.0" encoding="UTF-8"?>
<!DOCTYPE svg PUBLIC "-//W3C//DTD SVG 1.0//EN" "http://www.w3.org/TR/2001/REC-SVG-20010904/DTD/svg10.dtd">
<!-- Creator: CorelDRAW -->
<svg xmlns="http://www.w3.org/2000/svg" xml:space="preserve" width="9.1428mm" height="9.1055mm" version="1.0" style="shape-rendering:geometricPrecision; text-rendering:geometricPrecision; image-rendering:optimizeQuality; fill-rule:evenodd; clip-rule:evenodd"
viewBox="0 0 919004 915255"
 xmlns:xlink="http://www.w3.org/1999/xlink"
 xmlns:xodm="http://www.corel.com/coreldraw/odm/2003">
 <defs>
  <style type="text/css">
   <![CDATA[
    .fil0 {fill:#00A0E3}
   ]]>
  </style>
 </defs>
 <g id="Layer_x0020_1">
  <metadata id="CorelCorpID_0Corel-Layer"/>
  <path class="fil0" d="M670899 854995l-119826 0 2814 6785c2211,5498 5800,14484 15771,14484l79770 0c7056,0 11831,-2925 15198,-7468 2724,-3679 4704,-8494 6272,-13801zm-22325 60260l-64733 0c-48389,0 -56330,-18395 -66653,-42328l-4322 -9750 -1669 -3287c-905,-1719 -1618,-3076 -2292,-4986 -10303,-472 -18405,-2764 -25159,-6554 -7629,-4292 -13369,-10414 -18525,-17922 -7006,-10223 -21993,-69869 -32628,-112237 -4413,-17550 -8071,-32125 -10032,-38719l-40217 -153198 -3036 -11067c-3217,-11469 -7609,-27180 -9268,-36116 -18787,-1055 -34839,-8464 -46620,-19631 -13519,-12806 -21410,-30577 -21410,-49364 0,-32276 24295,-39754 37463,-43795 2553,-784 4594,-1417 5106,-1779 2201,-1528 8242,-7921 15188,-15630 11067,-12283 24064,-27562 28265,-32768l40106 -51686c8122,-11238 18988,-30185 27411,-44881 6101,-10594 10986,-19098 13067,-21561 4362,-5146 10484,-10966 17621,-15258 4413,-2644 9237,-4754 14334,-5860 131,-8051 724,-15248 2654,-22144 2272,-8112 6363,-15540 13570,-22928l-49937 0 -13700 -201c-16595,-342 -27471,-553 -41373,6121 -27170,13067 -35774,31361 -47303,55867l-6905 14424c-16625,33552 -39473,57516 -67979,73086 -27401,14977 -59918,22134 -97069,22606 -3619,10062 -11660,19078 -22385,25702 -10192,6292 -22898,10494 -36518,11378l30 8262c291,46791 482,79509 -33613,119052l-2252 2845c-1618,2101 -3046,4001 -5800,6302l-4222 3568c-10936,9428 -23541,20274 -41312,22164l-3418 191c-8956,0 -18555,-3619 -26054,-9057 -7790,-5659 -13540,-13479 -14404,-21601 -5719,-88686 -121,-198299 -121,-289307 0,-5649 3377,-9921 8132,-12313 2272,-1126 4855,-1839 7458,-2010 2634,-191 5368,141 7911,1015 5619,1980 10403,6534 11750,14304 8071,47072 1015,208311 -10,268339 20,6684 684,12494 5528,12494 7267,0 22626,-12635 34899,-31060 9328,-13992 16495,-31210 16495,-48700l0 -274742c0,-9589 -10162,-11167 -22224,-11167l-22084 533c-11198,0 -12474,11781 -12474,22084l60 5629c101,4925 201,9197 -603,12233 -1799,6735 -6463,10735 -11791,12434 -2724,885 -5609,1136 -8333,844 -2764,-281 -5478,-1176 -7730,-2513 -4151,-2453 -6986,-6503 -6986,-11710 0,-9851 -1236,-30788 80,-39322 734,-4744 2141,-9067 4594,-13268 2372,-4061 5770,-8071 10564,-12354l2141 -1829c15178,-12082 31040,-11750 50057,-11348l10554 131c14605,0 27572,5719 37020,14474 10032,9318 16153,22114 16153,35151l0 58531c7509,121 13489,623 19299,2262 7227,2040 13761,5750 21923,12494 4493,3719 9368,8805 13298,14464 2523,3609 4664,7509 6121,11469 60421,-1236 73850,-31040 87369,-61074 4332,-9619 8695,-19309 14464,-28275 56601,-87942 127244,-86565 216493,-84806 11037,221 22405,442 35131,482 2121,-8956 3659,-13339 11127,-21239 15027,-15882 33321,-15309 57546,-14535 5106,161 10534,332 17078,332 38508,0 43112,42257 46740,75548 563,5297 1136,10383 1819,15088l1186 8142c1930,13268 2694,18485 3669,20324l1508 794c2935,1357 7478,3468 14826,10504 6624,6363 11358,12866 14444,20958 2684,7006 4081,15138 4372,25310 25391,7197 33472,22586 43383,41493 2332,4443 4795,9127 7881,14324l20686 31783 7529 10403c4533,6312 8976,12524 13962,18897l61174 70553c1980,1106 5036,1819 8132,2543 3538,824 7187,1669 10735,3408 10424,5096 17148,13198 20616,22777 2593,7147 3367,15108 2543,23159 -814,7901 -3186,15982 -6865,23531 -7539,15379 -20646,28858 -37432,34970 -9921,3598 -16123,3558 -20234,3528 -1839,-10 -2543,-10 -3468,3176l-22254 85932c-10534,35482 -20385,75066 -30195,114559 -9820,39463 -19621,78886 -30065,114086l-2292 8162c-5961,22084 -11811,43644 -45424,49525l-2694 462c-3860,643 -5448,935 -5709,1246 -513,623 -1196,2362 -2332,5257 -1377,3528 -3357,8594 -7046,16304 -6373,13339 -13771,22184 -22626,28044 -8876,5870 -19048,8614 -31009,9780l-462 40zm-156424 -436031l-82886 0c1628,8614 4332,18053 6976,27260 1689,5951 3387,11831 4694,17138l39372 148503c4724,18797 9579,36839 14404,54832 3759,14052 7549,28135 11831,44820l2473 10464c3005,13489 6162,27602 13278,32175 7981,5126 25521,4393 41001,3769l7107 -271c-1940,-8866 -4181,-22888 -5569,-31623 -2654,-16495 -5659,-32990 -8514,-49454 -2302,-13861 -4895,-28456 -7488,-43112 -2493,-14092 -5006,-28295 -7690,-44438l-4081 -23028c-7368,-41332 -22084,-123917 -24908,-147036zm178829 338550l33392 0c19058,0 21008,-7951 24767,-23390 25612,-104759 55847,-210683 83549,-315160l-82796 0c-2553,11730 -4453,23792 -6373,36025 -1267,8061 -2563,16223 -4031,24385l-28185 162536c-724,5167 -1457,10363 -4865,14997 -2985,4041 -8021,6905 -13198,7669 -3156,462 -6473,191 -9539,-1015 -3196,-1236 -6051,-3488 -8092,-6865 -2724,-4563 -3960,-11208 -2382,-20294l37744 -217438 -159852 0c3196,27381 22888,138170 34889,205657l12364 69879c3769,20706 9036,49444 10434,63014l43303 0c442,-3598 1196,-7107 1950,-10645l1528 -7679c864,-5277 1518,-10363 2141,-15268 3005,-23672 5659,-44398 24104,-44398 14354,0 18927,8031 18927,20485 0,7951 -2211,17872 -4594,28527 -2101,9449 -4372,19551 -5187,28979zm-294524 -375772l469725 0c16967,0 27662,-10062 32296,-20264 1297,-2865 2131,-5740 2463,-8313 312,-2392 221,-4533 -261,-6172 -432,-1488 -1327,-2473 -2593,-2473l-531754 0c-2382,0 -3136,261 -4181,603l-111 30c-412,2402 -613,4674 -613,6775 20,7810 2593,14133 6815,18857 4312,4815 10474,8122 17520,9760 3377,784 6986,1196 10695,1196zm329695 -228655l-189665 0c-14605,0 -19611,10192 -23812,18756l-2221 4443c-19852,37101 -40076,62170 -62240,89661 -7458,9237 -15148,18777 -22747,28637 -1990,2573 -4342,4754 -6715,6946l-4131 3991 430895 0 -18395 -21732c-8122,-9298 -20646,-24848 -32185,-40197 -9368,-12474 -18093,-24797 -23169,-33442l-14163 -22998c-1870,-3106 -3649,-6654 -5428,-10202 -5850,-11660 -11982,-23863 -26024,-23863zm-572523 -6755l0 96536c2895,-422 5498,-975 7860,-1739 3588,-1186 6694,-2905 9418,-5438 11037,-10253 10534,-24426 9790,-45946 -221,-6483 -482,-13600 -482,-20706 0,-5770 -3448,-11519 -9087,-15811 -4584,-3498 -10615,-6021 -17500,-6895zm528205 -53515l-102809 0c-7298,0 -12454,2252 -15721,6182 -3016,3609 -4724,8795 -5307,15098l145106 0 0 -3548c0,-4634 -2382,-8906 -6041,-12072 -4021,-3488 -9539,-5659 -15228,-5659zm-51374 -115403l-15982 191c-3357,0 -5528,643 -6805,1870 -1427,1347 -2332,3800 -2995,7177l-8976 68944 71528 0c-543,-4523 -1498,-9851 -2292,-14304l-744 -4272c-2433,-14354 -3800,-25441 -4845,-34075 -1608,-13127 -2483,-20214 -4915,-23048 -2443,-2845 -9268,-2734 -23973,-2483zm-65607 60461l-108126 0c-26778,0 -54078,15841 -67829,29662 -4161,4192 -8765,8202 -12233,12575 -3418,4312 -6916,10022 -10011,14806 -13942,21551 -19430,57486 -59526,87590 -32748,24586 -54480,27300 -93239,27300l0 -28366c44348,0 69769,-8604 98516,-45052 10836,-13731 14846,-25521 22043,-41775 18666,-42157 57787,-75528 107543,-83881 26818,-4513 93340,-1226 126400,-1226 -1910,8202 -3538,18264 -3538,28366z"/>
 </g>
</svg>
