<?xml version="1.0" encoding="UTF-8"?>
<!DOCTYPE svg PUBLIC "-//W3C//DTD SVG 1.0//EN" "http://www.w3.org/TR/2001/REC-SVG-20010904/DTD/svg10.dtd">
<!-- Creator: CorelDRAW -->
<svg xmlns="http://www.w3.org/2000/svg" xml:space="preserve" width="9.4344mm" height="9.1545mm" version="1.0" style="shape-rendering:geometricPrecision; text-rendering:geometricPrecision; image-rendering:optimizeQuality; fill-rule:evenodd; clip-rule:evenodd"
viewBox="0 0 290520 281901"
 xmlns:xlink="http://www.w3.org/1999/xlink"
 xmlns:xodm="http://www.corel.com/coreldraw/odm/2003">
 <defs>
  <style type="text/css">
   <![CDATA[
    .fil0 {fill:#00A0E3}
   ]]>
  </style>
 </defs>
 <g id="Layer_x0020_1">
  <metadata id="CorelCorpID_0Corel-Layer"/>
  <path class="fil0" d="M151955 198980c10981,5136 20336,4536 27677,1574 5226,-2106 9571,-5561 12786,-9765 3221,-4210 5315,-9173 6045,-14294 927,-6488 -6,-13078 -4508,-19163l-42000 41649zm18387 29088l45920 36460 -8437 10608 -48325 -38369 8434 -10612 2408 1912zm60322 -56436l45917 36457 -8434 10612 -48325 -38372 8434 -10608 2408 1912zm-15249 40026l75106 59632 -8434 10612 -77514 -61544 8434 -10612 2408 1912zm-125149 -47056l21827 51795 98660 -100505 -53840 -19446 -66647 68156zm-28863 -150788l-12582 0 0 72421 12582 0 0 -72421zm18575 136718l65064 -65156 -58280 -55460 -9435 9355 0 59845 -44632 0 0 -15582 -9971 9869c19003,19326 37953,38147 57255,57129zm-47284 -150532l44632 0 0 15385 8893 -8819 66678 62705c13380,13352 30018,18738 46144,23948 10947,3538 22150,9210 33380,14054 1937,835 3221,2439 3612,4511 391,2072 -219,4034 -1715,5518l-27714 27483c5287,12271 17278,39742 -5654,61969 -19877,19265 -35921,13746 -56701,6596l-4678 -2091 -25457 25245c-1466,1453 -3372,2051 -5401,1691 -2032,-357 -3621,-1567 -4502,-3430 -3735,-7889 -8096,-15495 -14217,-29088 -6818,-15144 -10809,-33522 -25097,-47053l-3541 -3335 -61357 -63250 32694 -32392 0 -59647z"/>
 </g>
</svg>
