<?xml version="1.0" encoding="UTF-8"?>
<!DOCTYPE svg PUBLIC "-//W3C//DTD SVG 1.0//EN" "http://www.w3.org/TR/2001/REC-SVG-20010904/DTD/svg10.dtd">
<!-- Creator: CorelDRAW -->
<svg xmlns="http://www.w3.org/2000/svg" xml:space="preserve" width="9.268mm" height="9.2997mm" version="1.0" style="shape-rendering:geometricPrecision; text-rendering:geometricPrecision; image-rendering:optimizeQuality; fill-rule:evenodd; clip-rule:evenodd"
viewBox="0 0 122639 123059"
 xmlns:xlink="http://www.w3.org/1999/xlink"
 xmlns:xodm="http://www.corel.com/coreldraw/odm/2003">
 <defs>
  <style type="text/css">
   <![CDATA[
    .fil0 {fill:#00A0E3}
   ]]>
  </style>
 </defs>
 <g id="Layer_x0020_1">
  <metadata id="CorelCorpID_0Corel-Layer"/>
  <path class="fil0" d="M10810 29225c-274,-1973 -1166,-2575 -3857,-2464l0 58164c2627,147 3546,-394 3828,-2402l29 -53298zm26194 29478c-1466,3512 -2774,9882 -1477,11277l39883 29345c505,-3028 2752,-9304 4977,-13489 2325,-4373 6256,-8355 9424,-11564 1340,-1358 2533,-2566 3325,-3509l-36368 -25739c-3393,-2603 -7226,-5540 -14046,3865 -1837,2531 -4097,5931 -5718,9815zm44213 54297l-50310 -36334c-3262,-2357 -4031,-5317 -3803,-7197 -38,-1291 349,-3538 492,-4921l-10046 61 0 20720c0,7159 -3777,7078 -10597,6983l0 -4 0 26703 -6952 0 0 -119011 6952 0 0 19501c8817,348 10597,1708 10597,9040l0 18286 17086 0c1233,-573 1937,-1440 2907,-2635 701,-863 1519,-1868 2623,-3020 9651,-10054 12844,-7782 21438,-1657 13184,9345 26404,19625 39739,28515 3348,2551 6476,4598 9199,6378 7323,4790 11937,7809 12093,14678 97,4291 -1493,9373 -3747,14115 -2807,5908 -6696,11399 -9604,14155 -3765,3567 -6391,5411 -9301,5669 -2922,265 -5697,-1116 -9754,-3988 -1581,-1119 -4858,-3288 -9011,-6037zm17582 -37431l-2431 1940c-3943,3425 -8315,8372 -11084,14029 -1986,4060 -3143,8490 -2689,12965l8374 5955c850,-5441 3152,-11354 6058,-16138 3239,-5335 7323,-9800 11164,-12236l-9392 -6514zm5309 20978c-4106,6184 -7177,13868 -5915,18769 3523,-261 7678,-4424 11061,-9519 1580,-2381 2969,-4946 4041,-7426 1059,-2449 1818,-4815 2152,-6833 364,-2197 271,-3814 -466,-4303 -393,-262 -1047,-175 -1858,176 -1281,560 -2764,1703 -4295,3246 -1602,1613 -3229,3646 -4720,5891zm-86558 -39827l12547 0 809 -1829 -13356 0 0 1829z"/>
 </g>
</svg>
