<?xml version="1.0" encoding="UTF-8"?>
<!DOCTYPE svg PUBLIC "-//W3C//DTD SVG 1.0//EN" "http://www.w3.org/TR/2001/REC-SVG-20010904/DTD/svg10.dtd">
<!-- Creator: CorelDRAW -->
<svg xmlns="http://www.w3.org/2000/svg" xml:space="preserve" width="9.5mm" height="7.6221mm" version="1.0" style="shape-rendering:geometricPrecision; text-rendering:geometricPrecision; image-rendering:optimizeQuality; fill-rule:evenodd; clip-rule:evenodd"
viewBox="0 0 81569 65445"
 xmlns:xlink="http://www.w3.org/1999/xlink"
 xmlns:xodm="http://www.corel.com/coreldraw/odm/2003">
 <defs>
  <style type="text/css">
   <![CDATA[
    .fil0 {fill:#00A0E3}
   ]]>
  </style>
 </defs>
 <g id="Layer_x0020_1">
  <metadata id="CorelCorpID_0Corel-Layer"/>
  <path class="fil0" d="M64641 42662c123,-476 229,-964 316,-1460l107 -712 -6338 12174 262 -258c694,-696 1362,-1467 1946,-2220 637,-820 1181,-1620 1558,-2282 462,-812 890,-1682 1260,-2587 352,-859 654,-1751 889,-2655zm4276 600l10795 2179 1130 228 512 -1040 108 -265 76 -304c19,-106 30,-222 31,-335 0,-110 -8,-225 -29,-336l-188 -993c-3972,-822 -7957,-1611 -11934,-2411l-501 3276zm2645 20451l-410 -988c-77,-188 -165,-328 -254,-440 -88,-108 -178,-192 -267,-269l-1912 -1843c-138,-122 -268,-252 -396,-382l-158 -158c-216,-196 -418,-396 -614,-590l-3234 -3131c-287,-274 -533,-499 -662,-592l-825 -592 -391 249 -1539 1425 -26 31 285 801c145,408 463,702 707,927 877,817 1742,1679 2608,2509 1284,1227 2572,2457 3847,3732 422,370 852,689 1296,1041l1944 -1732zm-46889 -29513c1763,924 3653,-129 3330,-2080 -234,-1412 -2303,-2105 -3454,-2712l-8062 -4241c-1772,-939 -3682,193 -3319,2145 241,1295 2289,2063 3445,2654l8061 4233zm-4508 -4220c-1047,-556 -1958,-1006 -2987,-1567 -1045,-570 -2981,-1246 -2240,-1858 455,-375 5333,2452 6063,2830 1003,519 1983,1028 2984,1570 525,284 3174,1333 2198,1915 -428,254 -5355,-2538 -6017,-2890zm465 8014c1045,559 1919,1266 3306,1217 372,-225 1809,-516 1641,-2305 -112,-1193 -990,-1592 -1912,-2067 -1772,-913 -3476,-1874 -5242,-2754 -905,-452 -4594,-2554 -5308,-2639 -1216,-147 -2114,587 -2354,1551 -407,1626 950,2245 1121,2475 938,319 2022,1022 2935,1489l5815 3034zm-5651 -4795c-564,-301 -957,-516 -1527,-818 -405,-216 -1338,-443 -1052,-1084 267,-598 1105,47 1503,269l8956 4705c683,344 1132,304 1065,1137 -610,387 -844,12 -1517,-324l-7427 -3885zm18945 -10534c-346,-370 -878,-562 -1513,-355 -732,240 -1067,751 -1108,1282 -18,230 19,464 99,681 81,218 208,421 369,587 382,391 972,582 1654,306 630,-256 919,-761 944,-1278 10,-223 -25,-449 -100,-659 -76,-208 -193,-404 -343,-564zm-1940 -2220c1559,-398 2772,162 3501,1106 296,383 513,831 639,1301 126,471 164,969 104,1450 -153,1206 -915,2328 -2426,2763l-109 30c-1051,270 -1985,55 -2710,-421 -723,-475 -1242,-1212 -1464,-1985l-27 -99c-269,-1060 -41,-1996 450,-2715 490,-719 1250,-1227 2042,-1430zm28388 35494c-1370,1138 -2839,2026 -4349,2570l-467 157 -118 187c-343,582 -740,1057 -1174,1431 -465,403 -975,692 -1511,885 -456,163 -928,257 -1399,286 -502,32 -1013,-4 -1514,-98 -455,-84 -908,-216 -1342,-382 -462,-178 -908,-397 -1322,-641 -728,-428 -1387,-956 -1912,-1514 -528,-563 -926,-1163 -1133,-1735 -106,-298 -176,-529 -221,-710l-77 -355 -228 -94 -501 -247c-1088,-538 -2194,-1133 -3298,-1728l-1245 -669 -4327 -2284 -4738 -2465c-2902,-1509 -5814,-3022 -9169,-4814l-635 -340c-2790,-1491 -5408,-2891 -8462,-4437 -942,-477 -1782,-919 -2545,-1357 -764,-440 -1455,-883 -2095,-1360 -653,-487 -1257,-1011 -1835,-1606 -579,-596 -1136,-1266 -1697,-2044 -554,-769 -1072,-1661 -1517,-2636 -420,-922 -777,-1923 -1039,-2969 -245,-977 -411,-2001 -473,-3047 -59,-977 -28,-1981 110,-2987 129,-940 325,-1843 579,-2703 262,-885 589,-1732 970,-2533 771,-1621 1779,-3070 2962,-4315 1214,-1276 2619,-2342 4152,-3164 1530,-822 3191,-1401 4922,-1708 1691,-301 3458,-342 5237,-97 889,123 1779,317 2662,583 865,261 1727,593 2578,998 193,92 481,252 782,420l143 78c5,-617 -6,-1257 -15,-1878l-21 -1515c3,-5158 1424,-5141 5412,-5092l5906 8c1823,-9 2880,471 3483,1296 599,817 741,1964 747,3304l-27 1445c-12,380 -24,784 -24,1376 -10,3052 -15,6103 -6,9156 6254,3283 12601,6498 18791,9888l21 -9c134,-62 310,-143 562,-239 621,-234 1294,-304 1974,-254 762,56 1541,264 2275,562 843,342 1649,817 2317,1317 724,544 1294,1129 1581,1621 142,245 270,519 375,808 103,282 185,581 241,887 54,292 87,598 90,904 4,293 -17,591 -66,883 -116,703 -297,1065 -440,1351 -39,77 -70,140 -75,240 -4,115 20,289 93,585 513,2062 526,4310 145,6570 -408,2415 -1268,4852 -2448,7099 -1113,2117 -2517,4077 -4105,5707l-1540 1425zm-5951 -2768l10759 -20523c44,-131 71,-266 82,-398 10,-141 4,-280 -17,-411 -23,-141 -65,-273 -118,-392 -56,-119 -126,-228 -206,-318 -305,-342 -681,-539 -1186,-801l-401 -215c-291,-155 -603,-311 -911,-428 -301,-114 -603,-195 -878,-205 -213,-8 -426,32 -626,141 -205,112 -404,301 -586,586 -216,339 -439,735 -659,1154 -490,965 -974,1932 -1476,2892 -473,874 -845,1596 -1216,2319l-927 1793 -6485 12329c-252,489 -542,988 -823,1474l-15 27c-477,818 -932,1603 -1169,2311 -228,677 -251,1287 111,1788 84,119 315,301 629,502 322,206 728,434 1153,635 349,165 695,310 997,401 258,77 483,118 639,106 555,-48 1023,-471 1445,-1082 438,-634 831,-1473 1225,-2320l313 -668 347 -699zm-18276 -26453c284,-386 513,-843 668,-1370 146,-493 228,-1053 228,-1672 0,-6608 216,-13550 -10,-20117l-7388 -5c-498,1 -776,5 -903,88 -110,71 -131,250 -131,605l19 1959 1 16731c-2,435 5,841 30,1218 25,373 69,716 138,1032 64,288 153,561 273,818 120,258 276,507 470,749 306,379 658,692 1036,935 396,254 824,436 1263,544 391,96 796,136 1195,118 401,-17 800,-93 1181,-222 381,-129 748,-318 1078,-560 317,-232 608,-519 853,-854zm-15332 13259c1707,916 3781,2030 4341,2224l210 73 57 38 137 154 12481 6580 4252 2221 2300 1185 12284 -23317c-823,-456 -1988,-1073 -3212,-1711l-7797 -4030c-817,-436 -1638,-870 -2451,-1314 -721,-397 -1904,-1048 -2825,-1515l15 814c61,3010 108,5382 -1892,7796 -509,615 -1129,1137 -1818,1551 -708,426 -1491,744 -2304,934 -707,167 -1442,240 -2177,215 -713,-25 -1427,-147 -2110,-369 -721,-234 -1418,-585 -2050,-1056 -594,-442 -1137,-997 -1596,-1661 -498,-721 -902,-1579 -1174,-2576 -252,-925 -392,-1976 -392,-3150 1,-1031 15,-2085 27,-3145l6 -404c30,-2370 60,-4789 -25,-7070 -252,-149 -562,-319 -905,-496 -394,-203 -811,-410 -1218,-600 -499,-234 -1008,-457 -1469,-642 -417,-168 -802,-307 -1108,-393 -537,-153 -1077,-275 -1616,-361 -534,-85 -1071,-139 -1607,-158 -544,-19 -1096,-3 -1650,48 -547,51 -1104,137 -1666,259 -911,197 -1770,487 -2569,846 -846,381 -1627,843 -2334,1361 -756,554 -1437,1177 -2032,1840 -630,701 -1168,1448 -1604,2206 -501,871 -904,1824 -1194,2822 -289,994 -471,2038 -529,3095 -58,1026 1,2069 182,3092 173,983 464,1950 876,2870 188,420 398,834 625,1230 236,413 488,807 746,1172 260,367 535,715 814,1032 281,317 563,603 840,845 302,264 799,667 1368,1087 443,328 936,671 1420,974 355,222 695,417 984,556 249,118 461,197 610,213l316 37 88 46 210 241c100,114 399,295 769,493 365,195 826,419 1227,613 825,402 1624,838 2433,1270 1243,638 2475,1277 3707,1937z"/>
 </g>
</svg>
