<?xml version="1.0" encoding="UTF-8"?>
<!DOCTYPE svg PUBLIC "-//W3C//DTD SVG 1.0//EN" "http://www.w3.org/TR/2001/REC-SVG-20010904/DTD/svg10.dtd">
<!-- Creator: CorelDRAW -->
<svg xmlns="http://www.w3.org/2000/svg" xml:space="preserve" width="9.0316mm" height="8.1291mm" version="1.0" style="shape-rendering:geometricPrecision; text-rendering:geometricPrecision; image-rendering:optimizeQuality; fill-rule:evenodd; clip-rule:evenodd"
viewBox="0 0 54005 48609"
 xmlns:xlink="http://www.w3.org/1999/xlink"
 xmlns:xodm="http://www.corel.com/coreldraw/odm/2003">
 <defs>
  <style type="text/css">
   <![CDATA[
    .fil0 {fill:#00A0E3}
   ]]>
  </style>
 </defs>
 <g id="Layer_x0020_1">
  <metadata id="CorelCorpID_0Corel-Layer"/>
  <path class="fil0" d="M0 29496c4326,-96 7164,-2354 9832,-4140 0,6647 -863,11997 1948,16681 4869,8115 18558,9664 24292,-792 2430,-4431 1738,-11387 1705,-17979 1900,-566 3265,-2123 3265,-3957l-4842 0 -4842 0c0,1873 1426,3460 3392,3993 30,7955 1172,16186 -4815,20085 -6853,4463 -13613,977 -15985,-4037 -3338,-7057 1730,-21830 -3088,-29512 -1950,-3110 -5733,-5698 -10861,-5698l0 25356zm45916 -5144c-670,-313 -960,-1111 -646,-1781 313,-670 1111,-960 1781,-646l4942 2315c670,313 960,1111 646,1781 -313,670 -1111,960 -1781,646l-4942 -2315zm-4748 3875c-380,-636 -173,-1460 463,-1839 636,-380 1460,-173 1839,463l2800 4685c380,636 173,1460 -463,1839 -636,380 -1460,173 -1839,-463l-2800 -4685zm-16506 -6302c670,-313 1468,-24 1781,646 313,670 24,1468 -646,1781l-4943 2314c-670,313 -1468,24 -1781,-646 -313,-670 -24,-1468 646,-1781l4943 -2314zm3581 4926c380,-636 1204,-843 1839,-463 636,380 843,1204 463,1839l-2800 4684c-380,636 -1204,843 -1839,463 -636,-380 -843,-1204 -463,-1839l2800 -4684zm-3632 -26096l-6241 15719c-151,380 -108,775 122,1113 230,338 581,524 990,524l33324 0c408,0 760,-186 990,-524 230,-338 273,-733 122,-1113l-6241 -15719c-185,-465 -611,-755 -1112,-755l-20842 0c-500,0 -927,289 -1112,755z"/>
 </g>
</svg>
