<?xml version="1.0" encoding="UTF-8"?>
<!DOCTYPE svg PUBLIC "-//W3C//DTD SVG 1.0//EN" "http://www.w3.org/TR/2001/REC-SVG-20010904/DTD/svg10.dtd">
<!-- Creator: CorelDRAW -->
<svg xmlns="http://www.w3.org/2000/svg" xml:space="preserve" width="7.1973mm" height="8.9651mm" version="1.0" style="shape-rendering:geometricPrecision; text-rendering:geometricPrecision; image-rendering:optimizeQuality; fill-rule:evenodd; clip-rule:evenodd"
viewBox="0 0 26857 33454"
 xmlns:xlink="http://www.w3.org/1999/xlink"
 xmlns:xodm="http://www.corel.com/coreldraw/odm/2003">
 <defs>
  <style type="text/css">
   <![CDATA[
    .fil0 {fill:#00A0E3}
   ]]>
  </style>
 </defs>
 <g id="Layer_x0020_1">
  <metadata id="CorelCorpID_0Corel-Layer"/>
  <path class="fil0" d="M9241 23105l2961 -7515c115,-291 382,-473 694,-473l10251 0c313,0 580,182 694,473l2961 7515c93,237 66,483 -78,694 -143,210 -362,326 -617,326l-16173 0c-254,0 -474,-116 -617,-326 -144,-210 -171,-457 -78,-694zm2930 3033c325,-152 713,-12 865,314 152,325 12,713 -314,865l-2287 1068c-325,152 -713,12 -865,-314 -152,-325 -12,-713 314,-865l2287 -1068zm8866 3389c-207,-294 -136,-701 158,-908 294,-207 701,-136 908,158l1455 2062c207,294 136,701 -158,908 -294,207 -701,136 -908,-158l-1455 -2062zm2285 -2210c-325,-152 -466,-539 -314,-865 152,-325 539,-466 865,-314l2287 1068c325,152 466,539 314,865 -152,325 -539,466 -865,314l-2287 -1068zm-5954 2961c0,-360 293,-653 653,-653 360,0 653,293 653,653l0 2524c0,360 -293,653 -653,653 -360,0 -653,-293 -653,-653l0 -2524zm-3428 -1501c207,-294 614,-365 908,-158 294,207 365,614 158,908l-1455 2062c-207,294 -614,365 -908,158 -294,-207 -365,-614 -158,-908l1455 -2062zm-13940 -19246c2157,48 3572,1173 4902,2064 0,-3314 -431,-5982 971,-8318 2428,-4046 9253,-4819 12112,395 1207,2201 869,5651 850,8927 863,321 1477,1136 1477,2092l-188 0 -2104 0 -1508 0 -784 0c0,-306 63,-597 177,-863l3 -9 4 -9c25,-59 54,-119 88,-179l4 -7 11 -19c275,-482 727,-856 1271,-1035 6,-3995 649,-8006 -2361,-9966 -3417,-2226 -6787,-487 -7970,2013 -1664,3519 863,10885 -1540,14715 -972,1550 -2859,2841 -5415,2841l0 -12643z"/>
 </g>
</svg>
