<?xml version="1.0" encoding="UTF-8"?>
<!DOCTYPE svg PUBLIC "-//W3C//DTD SVG 1.0//EN" "http://www.w3.org/TR/2001/REC-SVG-20010904/DTD/svg10.dtd">
<!-- Creator: CorelDRAW -->
<svg xmlns="http://www.w3.org/2000/svg" xml:space="preserve" width="6.9941mm" height="9.1381mm" version="1.0" style="shape-rendering:geometricPrecision; text-rendering:geometricPrecision; image-rendering:optimizeQuality; fill-rule:evenodd; clip-rule:evenodd"
viewBox="0 0 20988 27421"
 xmlns:xlink="http://www.w3.org/1999/xlink"
 xmlns:xodm="http://www.corel.com/coreldraw/odm/2003">
 <defs>
  <style type="text/css">
   <![CDATA[
    .fil0 {fill:#00A0E3;fill-rule:nonzero}
   ]]>
  </style>
 </defs>
 <g id="Layer_x0020_1">
  <metadata id="CorelCorpID_0Corel-Layer"/>
  <path class="fil0" d="M5794 10399l0 -8729 1045 0 0 8679c1499,253 2851,1874 3890,4054 1308,2742 2132,6380 2132,9268 0,426 -19,822 -54,1190 -27,278 -64,540 -110,784 28,66 42,134 42,204 0,513 -764,931 -1998,1193 -1108,235 -2632,380 -4311,380 -1679,0 -3203,-145 -4311,-380 -1234,-261 -1998,-679 -1998,-1193 0,-70 14,-138 42,-204 -46,-245 -83,-506 -110,-784 -35,-368 -54,-764 -54,-1190 0,-2888 824,-6526 2132,-9268 986,-2069 2254,-3634 3661,-4005zm15038 3119c102,108 156,227 156,353 0,402 -549,720 -1436,909 -760,161 -1804,262 -2953,262 -1149,0 -2193,-100 -2953,-262 -887,-189 -1436,-507 -1436,-909 0,-124 52,-239 150,-346l-8 -80c-23,-245 -36,-507 -36,-788 0,-1910 545,-4316 1410,-6128 666,-1396 1527,-2447 2486,-2673l0 -3855 767 0 0 3855c959,226 1820,1277 2486,2673 865,1813 1410,4220 1410,6129 0,281 -12,543 -36,788l-8 73zm-6994 689c714,145 1687,234 2762,234 1075,0 2048,-89 2762,-234l-5524 0zm-1764 11757l-11286 0c176,160 700,332 1456,492 1067,226 2547,366 4187,366 1639,0 3119,-140 4187,-366 756,-160 1280,-332 1456,-492z"/>
 </g>
</svg>
