<?xml version="1.0" encoding="UTF-8"?>
<!DOCTYPE svg PUBLIC "-//W3C//DTD SVG 1.0//EN" "http://www.w3.org/TR/2001/REC-SVG-20010904/DTD/svg10.dtd">
<!-- Creator: CorelDRAW -->
<svg xmlns="http://www.w3.org/2000/svg" xml:space="preserve" width="9mm" height="7.3606mm" version="1.0" style="shape-rendering:geometricPrecision; text-rendering:geometricPrecision; image-rendering:optimizeQuality; fill-rule:evenodd; clip-rule:evenodd"
viewBox="0 0 29881 24438"
 xmlns:xlink="http://www.w3.org/1999/xlink"
 xmlns:xodm="http://www.corel.com/coreldraw/odm/2003">
 <defs>
  <style type="text/css">
   <![CDATA[
    .fil0 {fill:#00A0E3}
   ]]>
  </style>
 </defs>
 <g id="Layer_x0020_1">
  <metadata id="CorelCorpID_0Corel-Layer"/>
  <path class="fil0" d="M10808 16007l-8743 0 29 90c39,123 77,242 177,419 707,1254 1815,1980 3006,2257 627,146 1277,168 1903,79 626,-89 1230,-291 1764,-592 882,-496 1573,-1266 1865,-2253zm16990 0l-8724 0c109,357 281,695 503,1006 495,692 1242,1249 2111,1576 870,328 1863,424 2848,195 603,-140 1204,-403 1771,-809 184,-131 352,-265 508,-414 155,-149 301,-317 440,-517 228,-329 350,-602 484,-903l59 -133zm-13776 -14321l-11155 0 0 -1686 24147 0 0 1686 -11155 0 0 18076c0,1120 603,1968 1447,2473 459,274 989,449 1533,512 544,63 1101,15 1612,-156 891,-296 1649,-968 1969,-2072 -1128,-83 -2237,-638 -3154,-1462 -1005,-903 -1783,-2133 -2103,-3421l-3 -11c-85,-476 -85,-670 -84,-1040l-1 -264 12807 0 -4 168c-34,1536 -764,3064 -1868,4197 -1045,1073 -2429,1795 -3879,1841 -68,423 -270,888 -526,1319 -346,581 -797,1108 -1150,1388 -660,523 -1335,850 -1995,1026 -1107,295 -2174,167 -3070,-170 -895,-337 -1625,-886 -2055,-1430 -166,-210 -290,-422 -364,-623l-63 0c-103,270 -304,549 -545,805 -342,365 -768,691 -1096,883 -715,419 -1445,637 -2155,696 -1042,86 -2041,-169 -2889,-633 -848,-464 -1547,-1139 -1987,-1891 -257,-438 -427,-905 -489,-1371 -1426,-48 -2802,-784 -3849,-1859 -1116,-1146 -1863,-2682 -1896,-4179l-4 -168 12884 0 -13 177c-15,200 -36,414 -67,630 -32,216 -74,436 -134,649 -51,186 -97,349 -147,500 -53,160 -114,318 -195,492 -478,1028 -1205,1949 -2111,2624 -795,592 -1730,995 -2756,1117 312,1076 1075,1735 1973,2027 515,168 1076,215 1624,154 546,-61 1079,-234 1540,-506 832,-493 1426,-1320 1426,-2422l0 -18076z"/>
 </g>
</svg>
