<?xml version="1.0" encoding="UTF-8"?>
<!DOCTYPE svg PUBLIC "-//W3C//DTD SVG 1.0//EN" "http://www.w3.org/TR/2001/REC-SVG-20010904/DTD/svg10.dtd">
<!-- Creator: CorelDRAW -->
<svg xmlns="http://www.w3.org/2000/svg" xml:space="preserve" width="9.3mm" height="8.9525mm" version="1.0" style="shape-rendering:geometricPrecision; text-rendering:geometricPrecision; image-rendering:optimizeQuality; fill-rule:evenodd; clip-rule:evenodd"
viewBox="0 0 27831 26791"
 xmlns:xlink="http://www.w3.org/1999/xlink"
 xmlns:xodm="http://www.corel.com/coreldraw/odm/2003">
 <defs>
  <style type="text/css">
   <![CDATA[
    .fil0 {fill:#00A0E3}
   ]]>
  </style>
 </defs>
 <g id="Layer_x0020_1">
  <metadata id="CorelCorpID_0Corel-Layer"/>
  <path class="fil0" d="M10477 23926l2460 0c75,0 148,16 213,42 68,29 129,71 180,122 51,51 92,114 120,182 27,66 42,139 42,213 0,75 -15,148 -42,213 -28,68 -70,130 -121,182 -101,101 -241,164 -396,164l-2482 0c-147,0 -289,-30 -418,-84 -134,-55 -255,-138 -356,-239 -101,-100 -183,-221 -238,-356 -54,-129 -83,-271 -83,-418 0,-134 13,-269 38,-402 25,-132 62,-263 110,-388 48,-126 109,-248 180,-362 71,-114 152,-223 244,-322 234,-255 537,-596 888,-1013 272,-323 578,-698 909,-1121 263,-335 540,-701 827,-1092 242,-332 492,-681 744,-1046l-1342 0c-58,232 -153,452 -276,650 -133,215 -301,407 -494,567 -203,168 -436,302 -689,394 -244,88 -508,136 -778,136 -272,0 -535,-48 -780,-136 -253,-91 -486,-225 -688,-393 -193,-160 -361,-352 -494,-567 -123,-199 -216,-418 -275,-651l-6508 0c-130,0 -255,-27 -370,-74 -118,-49 -226,-121 -315,-210 -89,-89 -162,-196 -211,-315 -47,-114 -74,-240 -74,-370l0 -927c0,-130 27,-255 74,-370 49,-118 121,-225 210,-315 89,-89 196,-162 315,-211 114,-47 240,-74 370,-74l1013 0c522,-291 1183,-679 1907,-1149 560,-364 1158,-777 1758,-1231 502,-380 1007,-792 1493,-1230 429,-386 842,-792 1225,-1213 -24,-74 -29,-97 -43,-176l-6 -96 0 -1115c0,-147 24,-290 66,-425 44,-138 111,-268 194,-385 77,-108 168,-204 271,-286 94,-74 197,-136 308,-185l0 -7289c0,-75 16,-148 42,-213 28,-69 70,-131 121,-182 51,-51 113,-93 182,-121 65,-27 138,-43 214,-43 75,0 148,16 214,43 68,28 130,70 181,121 51,51 93,113 121,182 27,66 43,139 43,214l0 7289c110,48 214,111 307,185 103,82 196,178 272,286 83,116 149,247 193,385 43,134 67,277 67,425l0 1115 -7 102 -19 100 -28 87c300,342 622,680 965,1012 353,341 727,675 1121,1002 392,324 803,641 1230,946 412,295 843,582 1288,859 150,-277 299,-558 445,-844 152,-298 300,-596 442,-893 146,-306 288,-612 424,-918 130,-293 256,-585 375,-875l-45 -70 -49 -103c-18,-46 -32,-95 -41,-144 -9,-49 -14,-99 -14,-148l0 -1115c0,-147 24,-290 66,-425 45,-139 111,-268 194,-385 77,-107 168,-204 271,-285 94,-74 197,-136 308,-185l0 -7401c0,-75 16,-148 42,-213 28,-68 70,-131 121,-182 101,-101 241,-164 395,-164 75,0 148,16 214,43 69,28 130,70 181,121 51,51 93,113 121,182 27,65 43,138 43,213l0 7401c110,48 214,111 307,185 103,81 196,178 272,285 83,117 149,247 194,385 43,135 66,278 66,425l0 1115c0,51 -5,102 -15,152 -10,50 -25,99 -44,147 -14,37 -32,72 -51,105l-49 75c187,469 383,935 588,1397 209,471 426,936 651,1392 232,470 471,932 716,1381 245,450 500,896 762,1333l2 4c38,64 61,133 72,202 11,72 7,146 -10,216 -17,70 -48,137 -92,196 -42,57 -96,107 -160,146l-71 36 -71 25 -74 15 -73 6c-47,0 -95,-7 -141,-19 -47,-12 -92,-31 -133,-54 -41,-24 -81,-53 -116,-87 -34,-34 -64,-72 -89,-112 -273,-455 -540,-923 -798,-1398 -258,-475 -507,-958 -746,-1445 -236,-480 -462,-967 -679,-1458 -211,-479 -414,-963 -606,-1450l-349 0c-127,311 -260,622 -397,932 -144,325 -293,649 -446,970 -151,317 -308,635 -471,953 -151,297 -311,599 -477,905l331 184 438 234 1068 0c130,0 255,26 369,74 118,49 225,121 315,210 89,89 162,196 211,315 48,114 74,239 74,370l0 927c0,130 -26,256 -74,370 -49,118 -121,226 -210,315 -89,89 -196,162 -315,211 -114,47 -239,74 -370,74l-3817 0c-308,463 -612,902 -906,1313 -335,467 -660,902 -967,1300 -367,475 -709,898 -1016,1265 -402,482 -744,868 -1000,1149 -44,49 -85,102 -119,157 -35,56 -65,116 -88,176 -23,60 -42,124 -54,189 -10,57 -16,116 -17,177zm15301 -3076c326,384 616,707 859,969 244,264 442,468 580,610 99,103 188,213 263,329 76,116 141,241 193,371 52,129 92,263 118,400 26,136 39,276 39,417 0,148 -30,290 -83,419 -55,134 -137,256 -238,356 -101,101 -221,183 -356,238 -129,54 -271,83 -418,83l-5904 0c-58,232 -152,452 -276,650 -133,215 -301,407 -494,567 -203,168 -436,303 -689,394 -244,88 -507,136 -778,136 -273,0 -536,-48 -781,-136 -253,-91 -487,-225 -689,-392 -193,-160 -360,-351 -493,-566 -123,-199 -217,-419 -274,-652l-1567 0c-75,0 -148,-16 -213,-43 -68,-28 -130,-70 -182,-121 -51,-51 -93,-114 -121,-182 -27,-66 -42,-139 -42,-213 0,-75 15,-148 42,-214 28,-68 70,-130 121,-182 51,-51 113,-93 182,-121 65,-27 138,-42 214,-42l11923 0c-1,-62 -8,-123 -19,-182 -13,-68 -33,-134 -58,-197 -25,-62 -57,-123 -95,-180 -37,-57 -80,-111 -127,-160l-6 -6c-293,-303 -824,-852 -1483,-1628 -334,-394 -704,-847 -1094,-1359 -391,-511 -805,-1084 -1229,-1714 -42,-63 -70,-131 -84,-201 -15,-73 -14,-148 -1,-218 14,-71 42,-140 83,-202 39,-59 91,-112 153,-154 63,-43 133,-71 202,-85 73,-15 147,-14 217,-1 71,14 140,42 202,83 59,39 112,91 154,153 408,607 809,1161 1189,1657 379,496 737,936 1060,1316zm-7885 4595c99,73 212,131 333,171 116,38 241,58 370,58 128,0 252,-20 368,-59 120,-39 233,-98 333,-171 83,-61 158,-133 223,-212 47,-58 89,-121 125,-187l-2099 0c36,67 78,130 125,188 65,80 140,152 222,212zm506 -16404c-23,23 -43,51 -57,81 -13,27 -21,58 -24,90l0 830 559 0 0 -802c0,-38 -8,-75 -21,-107 -14,-34 -35,-65 -61,-91 -25,-25 -57,-47 -91,-61 -33,-13 -69,-21 -107,-21 -38,0 -75,8 -107,21 -34,14 -65,35 -91,61zm-8879 -111c-26,26 -47,57 -61,91 -13,33 -21,69 -21,107l1 802 560 0 0 -802c0,-38 -8,-75 -21,-107 -14,-34 -35,-65 -61,-91 -26,-26 -57,-47 -91,-61 -33,-13 -69,-21 -107,-21 -38,0 -75,8 -107,21 -34,14 -65,35 -91,61zm-8399 7526l0 629 17191 0 0 -629 -10239 0c-75,0 -148,-16 -213,-43 -68,-28 -130,-70 -182,-121 -51,-51 -93,-113 -121,-181 -27,-66 -42,-139 -42,-214 0,-75 15,-148 42,-214 28,-68 70,-130 121,-182 51,-51 113,-93 181,-121 65,-27 138,-42 214,-42l7061 0c-449,-278 -885,-566 -1304,-862 -469,-332 -919,-675 -1346,-1026 -465,-383 -907,-779 -1322,-1185 -405,-397 -783,-802 -1132,-1216l-643 0c-394,452 -822,886 -1267,1298 -499,464 -1022,901 -1544,1307 -415,322 -829,624 -1230,903 -405,281 -802,543 -1178,781l2048 0c75,0 148,16 214,42 68,28 130,70 182,121 51,51 92,113 121,182 27,66 42,139 42,214 0,75 -16,148 -42,213 -28,69 -70,131 -121,182 -51,51 -113,93 -182,121 -65,27 -138,43 -214,43l-5097 0zm7893 2147c100,73 213,132 333,171 116,38 241,58 370,58 128,0 252,-20 368,-59 120,-39 233,-98 333,-171 83,-61 158,-133 223,-212 47,-58 89,-121 125,-187l-2100 0c36,67 78,130 125,188 65,80 140,151 223,212z"/>
 </g>
</svg>
