<?xml version="1.0" encoding="UTF-8"?>
<!DOCTYPE svg PUBLIC "-//W3C//DTD SVG 1.0//EN" "http://www.w3.org/TR/2001/REC-SVG-20010904/DTD/svg10.dtd">
<!-- Creator: CorelDRAW -->
<svg xmlns="http://www.w3.org/2000/svg" xml:space="preserve" width="10.2mm" height="9mm" version="1.0" style="shape-rendering:geometricPrecision; text-rendering:geometricPrecision; image-rendering:optimizeQuality; fill-rule:evenodd; clip-rule:evenodd"
viewBox="0 0 29737 26238"
 xmlns:xlink="http://www.w3.org/1999/xlink"
 xmlns:xodm="http://www.corel.com/coreldraw/odm/2003">
 <defs>
  <style type="text/css">
   <![CDATA[
    .fil0 {fill:#00A0E3;fill-rule:nonzero}
   ]]>
  </style>
 </defs>
 <g id="Layer_x0020_1">
  <metadata id="CorelCorpID_0Corel-Layer"/>
  <path id="lamps2C-celing2C-chandelier2C-room2C-bulbs2C-light" class="fil0" d="M7497 19791c179,-448 688,-667 1137,-487 449,179 667,688 487,1137l-1749 4373c-180,449 -688,667 -1137,487 -448,-179 -666,-688 -487,-1137l1749 -4373zm17429 -18042l0 4373 1312 0c483,0 875,392 875,875l0 8746c0,483 -392,875 -875,875l-4373 0c-483,0 -875,-392 -875,-875l0 -8746c0,-483 392,-875 875,-875l1312 0 0 -4373 -7434 0 0 4373 1312 0c483,0 875,392 875,875l0 8746c0,483 -392,875 -875,875l-4373 0c-483,0 -875,-392 -875,-875l0 -8746c0,-483 392,-875 875,-875l1312 0 0 -4373 -7434 0 0 4373 1312 0c483,0 875,392 875,875l0 8746c0,483 -392,875 -875,875l-4373 0c-483,0 -875,-392 -875,-875l0 -8746c0,-483 392,-875 875,-875l1312 0 0 -4373 -3936 0c-483,0 -875,-392 -875,-875 0,-483 392,-875 875,-875l27987 0c483,0 875,392 875,875 0,483 -392,875 -875,875l-3936 0zm-10933 19241c0,-483 392,-875 875,-875 483,0 875,392 875,875l0 4373c0,483 -392,875 -875,875 -483,0 -875,-392 -875,-875l0 -4373zm6622 -550c-179,-448 39,-957 487,-1137 449,-180 958,39 1137,487l1749 4373c179,448 -39,957 -487,1137 -449,180 -958,-38 -1137,-487l-1749 -4373z"/>
 </g>
</svg>
