<?xml version="1.0" encoding="UTF-8"?>
<!DOCTYPE svg PUBLIC "-//W3C//DTD SVG 1.0//EN" "http://www.w3.org/TR/2001/REC-SVG-20010904/DTD/svg10.dtd">
<!-- Creator: CorelDRAW -->
<svg xmlns="http://www.w3.org/2000/svg" xml:space="preserve" width="9.0059mm" height="9mm" version="1.0" style="shape-rendering:geometricPrecision; text-rendering:geometricPrecision; image-rendering:optimizeQuality; fill-rule:evenodd; clip-rule:evenodd"
viewBox="0 0 20740 20726"
 xmlns:xlink="http://www.w3.org/1999/xlink"
 xmlns:xodm="http://www.corel.com/coreldraw/odm/2003">
 <defs>
  <style type="text/css">
   <![CDATA[
    .fil0 {fill:#00A0E3;fill-rule:nonzero}
   ]]>
  </style>
 </defs>
 <g id="Layer_x0020_1">
  <metadata id="CorelCorpID_0Corel-Layer"/>
  <path class="fil0" d="M18460 19535c0,-147 -119,-266 -266,-266 -147,0 -266,119 -266,266 0,147 119,266 266,266 147,0 266,-119 266,-266zm-6679 -9304c-190,7 -298,-247 -157,-378l388 -388c87,-87 227,-87 313,0 87,87 87,227 0,313l-387 388c-43,43 -100,65 -157,65zm387 3211c-57,0 -113,-22 -157,-65l-388 -388c-86,-87 -86,-227 0,-313 87,-87 227,-87 313,0l387 388c141,132 33,385 -157,378zm-3597 0c-190,7 -298,-246 -157,-378l388 -388c87,-86 227,-87 313,0 87,87 87,227 0,313l-388 388c-43,43 -100,65 -157,65l0 0zm388 -3211c-57,0 -114,-22 -157,-65l-388 -388c-86,-87 -86,-227 0,-313 87,-87 227,-86 313,0l387 388c141,132 33,385 -157,378zm11559 10052l-8854 0 0 -2290c431,122 801,343 1126,672 143,155 420,12 376,-195l-358 -2008c923,153 1521,739 2021,1956 64,172 323,183 402,17 553,-1078 984,-1774 2027,-1967l-357 2002c-44,207 232,350 376,195 383,-388 819,-623 1351,-727 -86,174 -193,399 -305,653 -119,261 292,444 406,178 248,-566 481,-994 483,-998 86,-146 -41,-344 -210,-327 -597,41 -1112,208 -1559,508l304 -1705c29,-139 -97,-276 -238,-260 -1313,117 -1903,824 -2461,1842 -588,-1192 -1372,-1764 -2497,-1842 -139,-13 -261,123 -233,260l304 1704c-290,-195 -608,-332 -959,-417l0 -2786c0,-122 -99,-222 -222,-222l-852 0 0 -1829c541,-94 967,-524 1056,-1066l5763 0c123,0 222,-99 222,-222l0 -1260 1017 0c381,0 704,-288 751,-669l453 -3707 354 0c181,3 242,-181 222,-334 0,-854 -694,-1549 -1548,-1551 -61,-762 -695,-1363 -1465,-1363 -770,0 -1403,601 -1465,1363 -853,2 -1547,697 -1547,1551 -21,153 40,337 222,334l353 0 453 3707c47,382 370,669 751,669l1006 0 0 1039 -5546 0c-97,-532 -519,-950 -1052,-1043l0 -2522 1011 0c381,0 704,-288 751,-669l453 -3707 354 0c182,2 242,-181 222,-334 0,-854 -694,-1549 -1547,-1551 -61,-762 -695,-1362 -1465,-1362 -770,0 -1403,601 -1465,1362 -853,2 -1547,697 -1547,1551 -21,153 40,337 222,334l353 0 453 3707c47,381 370,669 751,669l1011 0 0 2522c-533,92 -955,511 -1052,1043l-5546 0 0 -1039 1006 0c381,0 704,-288 751,-669l453 -3707 354 0c182,3 242,-181 222,-334 0,-854 -694,-1549 -1547,-1551 -61,-762 -695,-1363 -1465,-1363 -770,0 -1403,601 -1465,1363 -853,2 -1547,697 -1547,1551 -21,153 40,337 222,334l353 0 453 3707c47,382 370,669 751,669l1017 0 0 1260c0,122 99,222 222,222l5763 0c89,543 515,973 1056,1066l0 1829 -852 0c-123,0 -222,99 -222,222l0 2779c-363,84 -690,224 -987,424l304 -1704c28,-137 -94,-273 -233,-260 -1125,78 -1908,651 -2497,1842 -558,-1018 -1148,-1725 -2461,-1842 -141,-16 -266,121 -238,260l304 1705c-447,-300 -961,-467 -1559,-508 -169,-17 -296,181 -210,327 2,4 234,432 483,998 113,266 525,82 406,-178 -111,-254 -219,-478 -305,-653 532,103 969,339 1351,727 143,155 420,12 376,-195l-357 -2001c1044,193 1474,888 2027,1967 79,166 338,155 402,-17 500,-1216 1098,-1803 2021,-1956l-358 2007c-44,207 232,350 376,195 332,-336 711,-559 1154,-680l0 2298 -8854 0c-122,0 -222,99 -222,222 0,122 99,222 222,222l20297 0c122,0 222,-99 222,-222 0,-123 -99,-222 -222,-222zm-3102 -17314c526,0 960,403 1020,919l-2039 0c59,-517 494,-919 1019,-919zm-1990 2804l3981 0 -318 2599 -1451 0 0 -1671c0,-122 -99,-222 -222,-222 -122,0 -222,99 -222,222l0 1671 -1451 0 -318 -2599zm-12102 -2804c526,0 960,403 1020,919l-2039 0c59,-517 494,-919 1019,-919zm-1990 2804l3981 0 -318 2599 -1451 0 0 -1671c0,-122 -99,-222 -222,-222 -122,0 -222,99 -222,222l0 1671 -1451 0 -318 -2599zm9037 -5331c526,0 960,403 1020,919l-2039 0c59,-517 494,-919 1019,-919zm-1990 2805l3981 0 -318 2598 -1451 0 0 -1671c0,-122 -99,-222 -222,-222 -122,0 -222,99 -222,222l0 1671 -1451 0 -318 -2598zm-5596 16288c0,-147 -119,-266 -266,-266 -147,0 -266,119 -266,266 0,147 119,266 266,266 147,0 266,-119 266,-266z"/>
 </g>
</svg>
