<?xml version="1.0" encoding="UTF-8"?>
<!DOCTYPE svg PUBLIC "-//W3C//DTD SVG 1.0//EN" "http://www.w3.org/TR/2001/REC-SVG-20010904/DTD/svg10.dtd">
<!-- Creator: CorelDRAW -->
<svg xmlns="http://www.w3.org/2000/svg" xml:space="preserve" width="9.4129mm" height="6.0398mm" version="1.0" style="shape-rendering:geometricPrecision; text-rendering:geometricPrecision; image-rendering:optimizeQuality; fill-rule:evenodd; clip-rule:evenodd"
viewBox="0 0 22680 14553"
 xmlns:xlink="http://www.w3.org/1999/xlink"
 xmlns:xodm="http://www.corel.com/coreldraw/odm/2003">
 <defs>
  <style type="text/css">
   <![CDATA[
    .fil0 {fill:#00A0E3;fill-rule:nonzero}
   ]]>
  </style>
 </defs>
 <g id="Layer_x0020_1">
  <metadata id="CorelCorpID_0Corel-Layer"/>
  <path class="fil0" d="M9999 11664c-1353,-683 -2892,-1030 -4550,-1030 -812,0 -1653,83 -2515,251l0 -9611c3098,-860 5835,12 7064,1054l0 9337zm-4454 -4725c-648,0 -1316,54 -1999,163l0 481c697,-117 1365,-173 2003,-173 1138,0 2180,176 3118,493 248,84 487,178 720,281l0 -518c-1167,-482 -2460,-729 -3842,-729zm-50 1258c-632,0 -1284,52 -1949,156l0 481c679,-111 1331,-164 1954,-164 1138,0 2180,175 3118,493 265,90 522,192 769,304l0 -519c-1180,-496 -2490,-749 -3892,-749zm25 -2533c-640,0 -1300,53 -1974,159l0 481c688,-114 1348,-168 1978,-168 1138,0 2180,175 3118,493 256,87 505,185 745,292l0 -518c-1173,-489 -2475,-739 -3867,-739zm-75 -2557c-617,0 -1251,49 -1899,148l0 480c661,-106 1296,-156 1904,-156 1138,0 2180,176 3118,493 283,96 556,205 819,326l0 -520c-1192,-510 -2520,-770 -3941,-770zm172 -1282c-670,-18 -1361,22 -2071,120l0 480c720,-104 1408,-145 2063,-128 1137,30 2175,233 3104,575 232,85 456,180 674,282l0 -522c-1140,-499 -2409,-771 -3770,-807zm3075 8625c239,81 470,171 695,270l0 -517c-1160,-476 -2445,-718 -3817,-718 -656,0 -1332,56 -2023,167l0 481c705,-120 1382,-177 2028,-177 1138,0 2180,176 3118,493zm-3222 -6067c-625,0 -1267,51 -1924,152l0 480c670,-108 1313,-160 1929,-160 1138,0 2180,175 3118,493 274,93 539,198 794,315l0 -520c-1186,-503 -2505,-759 -3917,-760zm11695 1285c-1390,0 -2689,249 -3861,736l0 518c238,-106 484,-204 739,-290 937,-317 1980,-493 3118,-493 632,0 1295,55 1984,169l0 -481c-676,-107 -1338,-160 -1980,-160zm25 2531c-1399,0 -2708,252 -3886,746l0 519c246,-111 500,-212 763,-301 937,-317 1980,-493 3118,-493 625,0 1279,53 1960,165l0 -481c-668,-105 -1321,-157 -1955,-157zm-74 1286c-1370,0 -2652,242 -3811,716l0 517c223,-98 452,-187 689,-267 938,-317 1980,-493 3118,-493 648,0 1327,58 2034,178l0 -481c-694,-113 -1372,-168 -2030,-168zm25 -2543c-1380,0 -2671,245 -3836,726l0 517c231,-102 468,-195 713,-278 938,-317 1980,-493 3118,-493 640,0 1311,56 2009,173l0 -481c-685,-110 -1355,-164 -2005,-164zm-72 -5115c-1359,36 -2625,307 -3764,804l0 522c216,-101 438,-194 668,-279 929,-342 1966,-545 3104,-575 657,-17 1347,24 2069,128l0 -480c-712,-98 -1406,-139 -2077,-121zm172 1286c-1419,0 -2744,260 -3935,768l0 520c261,-120 532,-228 813,-323 937,-317 1980,-493 3118,-493 610,0 1247,51 1910,157l0 -480c-650,-99 -1287,-149 -1905,-149zm-25 1274c-1409,0 -2726,256 -3911,757l0 520c254,-115 516,-220 788,-312 937,-317 1980,-493 3118,-493 617,0 1263,52 1935,161l0 -481c-659,-102 -1304,-153 -1930,-153zm-16131 -2833c0,2571 0,8201 0,10500l0 1212 1168 -324c1157,-322 4762,-1078 6740,652 -2652,-825 -5515,6 -6567,299l-2425 661 0 -12903 1085 -97zm20511 0c0,2571 0,8201 0,10500l0 1212 -1168 -324c-1157,-322 -4762,-1078 -6740,652 2652,-825 5515,6 6567,299l2425 661 0 -12903 -1085 -97zm-1838 -279l0 9611c-2618,-511 -5048,-240 -7064,779l0 -9337c1229,-1041 3966,-1913 7064,-1053zm-7985 659c0,2503 0,9107 0,11405 2057,-1622 5093,-2348 8905,-1289 0,-2656 0,-9759 0,-11451 -4064,-1416 -7604,-47 -8905,1335zm-9759 -1335l0 11451c3813,-1059 6849,-333 8906,1289l0 -11405c-1302,-1382 -4842,-2751 -8906,-1335z"/>
 </g>
</svg>
