<?xml version="1.0" encoding="UTF-8"?>
<!DOCTYPE svg PUBLIC "-//W3C//DTD SVG 1.0//EN" "http://www.w3.org/TR/2001/REC-SVG-20010904/DTD/svg10.dtd">
<!-- Creator: CorelDRAW -->
<svg xmlns="http://www.w3.org/2000/svg" xml:space="preserve" width="8.2513mm" height="9.2001mm" version="1.0" style="shape-rendering:geometricPrecision; text-rendering:geometricPrecision; image-rendering:optimizeQuality; fill-rule:evenodd; clip-rule:evenodd"
viewBox="0 0 18492 20618"
 xmlns:xlink="http://www.w3.org/1999/xlink"
 xmlns:xodm="http://www.corel.com/coreldraw/odm/2003">
 <defs>
  <style type="text/css">
   <![CDATA[
    .fil0 {fill:#00A0E3;fill-rule:nonzero}
   ]]>
  </style>
 </defs>
 <g id="Layer_x0020_1">
  <metadata id="CorelCorpID_0Corel-Layer"/>
  <path class="fil0" d="M7563 8467c409,-392 952,-644 1555,-685l0 -15 229 6c660,15 1264,307 1697,760 433,453 700,1068 689,1731l0 1 -1 32 0 1c-18,686 -300,1297 -746,1733 -446,436 -1058,699 -1734,690l-2 0 -30 -1 -1 0c-688,-18 -1296,-301 -1730,-750 -434,-450 -693,-1067 -684,-1753l0 -2 0 -22c15,-682 303,-1291 757,-1727zm-5057 354c146,0 289,22 424,62l1 0c82,24 161,56 236,93 229,-209 470,-418 722,-625 269,-221 548,-440 835,-652 41,-357 91,-709 148,-1051 54,-322 115,-635 181,-938 -171,-115 -318,-264 -429,-438 -105,-164 -179,-351 -212,-551 -807,-78 -1515,-42 -2078,113 -551,152 -960,418 -1182,802 -222,384 -247,872 -103,1426 147,565 469,1195 939,1854 52,-19 105,-36 160,-49 116,-29 237,-44 359,-44zm1337 836c35,72 65,147 88,224 41,136 63,279 63,427 0,148 -22,292 -63,427 -23,78 -53,153 -88,225 161,147 326,291 493,432l1 0c92,78 184,154 276,229 -7,-130 -13,-264 -19,-399 -12,-313 -18,-619 -18,-914 0,-294 6,-600 18,-913 5,-135 11,-268 19,-399 -95,76 -187,153 -278,229 -167,141 -331,284 -493,431zm-676 1984c-75,37 -154,68 -236,93 -135,40 -278,62 -424,62 -123,0 -243,-16 -359,-44 -55,-13 -108,-30 -160,-49 -470,659 -792,1289 -939,1854 -144,554 -119,1042 103,1426l0 1 0 0c224,388 641,655 1204,806 616,165 1400,190 2298,81 147,-18 287,-38 421,-59 61,-10 126,-21 193,-33 -115,-414 -216,-849 -304,-1300 -97,-499 -178,-1021 -240,-1559 -287,-213 -566,-431 -835,-653 -252,-208 -493,-416 -721,-625zm-1924 -548c-57,-92 -105,-190 -141,-294 -54,-155 -84,-320 -84,-491 0,-171 30,-336 84,-491 36,-104 84,-203 141,-294 -580,-803 -972,-1591 -1144,-2316 -180,-763 -119,-1463 221,-2051 340,-589 916,-993 1668,-1218 715,-214 1593,-268 2577,-168 114,-212 277,-393 475,-528 239,-163 527,-258 837,-258l48 1c405,-903 892,-1637 1435,-2149 572,-539 1209,-836 1887,-836 678,0 1315,297 1887,836 544,512 1030,1246 1435,2149l48 -1c309,0 598,95 837,258 197,134 361,316 475,528 985,-100 1863,-47 2577,168 752,226 1328,630 1668,1218 341,591 401,1296 216,2066 -185,772 -619,1612 -1260,2465 -102,136 -203,265 -303,386l-1 0c-63,78 -130,156 -198,236 72,83 139,162 201,238l0 0c104,127 205,255 301,384 641,854 1075,1693 1260,2465 185,769 125,1474 -216,2066 -340,589 -916,993 -1667,1218 -715,215 -1593,268 -2578,168 -114,212 -277,393 -475,528 -239,163 -527,258 -837,258l-48 -1c-406,903 -891,1637 -1435,2149 -572,539 -1209,836 -1887,836 -683,0 -1324,-301 -1899,-847 -576,-546 -1086,-1342 -1505,-2325 -63,-147 -123,-298 -181,-451 -35,-93 -71,-191 -106,-293 -103,19 -205,38 -306,54 -170,28 -332,51 -484,69 -1059,128 -2002,84 -2763,-142 -759,-225 -1340,-630 -1682,-1221 -340,-588 -401,-1288 -221,-2052 172,-727 564,-1514 1144,-2318zm11269 3568c45,-207 87,-422 127,-643l1 0c21,-117 41,-236 60,-356 -110,72 -222,144 -335,215 -256,161 -517,319 -783,473l-1 0c-275,159 -542,306 -800,442 -119,63 -236,123 -353,182 113,43 225,85 338,126l0 0c208,75 415,146 620,211 118,-175 273,-323 452,-434 199,-123 429,-200 675,-218zm930 246c171,115 318,264 429,438 105,164 179,351 212,551 806,78 1514,41 2076,-113l0 0c552,-152 962,-418 1183,-801l0 -1c224,-388 247,-884 97,-1446 -165,-617 -535,-1309 -1077,-2030 -82,-110 -170,-222 -261,-334l-128 -153c-300,305 -625,610 -974,913l0 0c-382,332 -793,662 -1230,986 -41,358 -91,710 -147,1051 -54,322 -114,636 -181,939zm-1772 2384c-143,-118 -264,-263 -354,-426 -104,-188 -169,-400 -184,-625 -296,-94 -597,-198 -902,-312 -328,-123 -657,-256 -984,-398 -500,217 -992,408 -1469,573 -432,149 -860,278 -1277,386l69 187c51,135 104,266 158,393 354,831 768,1497 1218,1947 412,411 852,638 1302,638 444,0 879,-221 1286,-623 416,-411 801,-1004 1136,-1740zm2413 -12572c-34,200 -108,387 -212,551 -111,174 -258,324 -429,438 67,303 127,617 181,939 57,342 107,693 148,1051 434,322 845,652 1230,987 348,303 674,608 974,913 44,-52 87,-103 126,-152 92,-113 180,-225 262,-335 542,-721 912,-1414 1077,-2031 150,-563 127,-1058 -97,-1446l0 0c-222,-384 -631,-650 -1182,-802 -563,-155 -1270,-191 -2078,-113zm-1571 1235c-246,-17 -476,-95 -675,-218 -180,-111 -334,-259 -452,-434 -203,65 -410,136 -620,212 -113,41 -226,83 -339,126 120,60 238,121 355,183 257,136 524,283 799,442l1 0 7 4c264,153 525,310 779,470 113,71 223,142 333,214 -19,-118 -39,-237 -60,-355l0 0c-39,-221 -82,-435 -127,-643zm-1380 -1578c14,-225 79,-438 184,-626 90,-163 210,-307 354,-426 -335,-736 -720,-1330 -1136,-1740 -407,-401 -842,-623 -1286,-623 -444,0 -879,221 -1286,623 -416,410 -801,1004 -1136,1740 143,118 263,263 354,426l1 1c104,187 168,399 182,625 296,94 597,198 901,312 325,121 654,255 985,398 331,-143 660,-277 985,-398 304,-114 605,-218 900,-312zm-4024 926c-118,175 -273,323 -452,434 -199,123 -429,200 -675,218 -45,207 -87,421 -126,642 -21,119 -41,237 -60,355 110,-72 221,-143 334,-215 249,-157 510,-314 782,-472l5 -2c274,-158 540,-305 797,-441 119,-63 237,-123 354,-183 -113,-43 -225,-85 -335,-125l-1 0c-211,-76 -418,-147 -623,-212zm958 9673c-116,-59 -234,-119 -352,-182 -259,-136 -527,-284 -802,-443 -273,-157 -533,-315 -782,-472 -114,-71 -225,-143 -336,-215 47,293 99,579 158,859 76,364 161,715 255,1050 333,-85 680,-187 1037,-304l1 0c271,-89 545,-187 821,-293zm7261 -4668c-246,-251 -506,-501 -781,-746 -212,-189 -434,-379 -666,-566 7,131 13,264 19,400 12,313 18,617 18,913 0,295 -6,600 -18,913 -5,136 -11,269 -19,400 232,-188 454,-377 665,-566 275,-246 536,-495 781,-746zm-2468 -2087c-260,-185 -532,-368 -814,-550 -311,-200 -624,-392 -939,-574l0 0 -4 -2 -3 -2c-317,-183 -641,-359 -970,-528l0 0c-291,-149 -585,-292 -882,-428 -294,135 -591,279 -887,431l-1 0c-323,166 -646,342 -967,527l-2 2c-316,182 -630,374 -941,575 -276,177 -548,361 -814,551 -30,321 -54,649 -70,982 -17,353 -26,721 -26,1104 0,382 9,751 26,1104 16,333 40,662 70,982 266,189 539,373 814,551 310,200 623,392 937,573l6 2c322,186 645,362 969,528 296,152 591,296 885,431 294,-134 590,-278 885,-430 329,-169 653,-346 970,-528l0 0c321,-185 636,-377 941,-575 276,-178 549,-362 816,-552 30,-320 54,-648 70,-980 17,-354 26,-723 26,-1105 0,-383 -9,-752 -26,-1105 -16,-333 -40,-661 -70,-981z"/>
 </g>
</svg>
