<?xml version="1.0" encoding="UTF-8"?>
<!DOCTYPE svg PUBLIC "-//W3C//DTD SVG 1.0//EN" "http://www.w3.org/TR/2001/REC-SVG-20010904/DTD/svg10.dtd">
<!-- Creator: CorelDRAW -->
<svg xmlns="http://www.w3.org/2000/svg" xml:space="preserve" width="8.7499mm" height="8.6529mm" version="1.0" style="shape-rendering:geometricPrecision; text-rendering:geometricPrecision; image-rendering:optimizeQuality; fill-rule:evenodd; clip-rule:evenodd"
viewBox="0 0 23294 23035"
 xmlns:xlink="http://www.w3.org/1999/xlink"
 xmlns:xodm="http://www.corel.com/coreldraw/odm/2003">
 <defs>
  <style type="text/css">
   <![CDATA[
    .fil0 {fill:#00A0E3;fill-rule:nonzero}
   ]]>
  </style>
 </defs>
 <g id="Layer_x0020_1">
  <metadata id="CorelCorpID_0Corel-Layer"/>
  <path class="fil0" d="M3633 16347c-85,60 -185,159 -278,236 51,78 97,110 173,171 747,576 1526,1054 2563,1415 -486,-856 -808,-1590 -1060,-2365 -36,-113 -83,-233 -139,-317 -80,44 -215,120 -329,201 2,-2 -590,418 -930,658zm-266 -14137c315,297 1092,859 1503,1117 306,-947 710,-1822 1202,-2688 -637,176 -1080,428 -1518,685 -371,222 -999,639 -1187,885zm636 6977c2,-181 27,-345 33,-680 24,-1232 176,-2459 442,-3667 74,-337 141,-730 245,-1051 -223,-122 -565,-350 -840,-543 -233,-166 -471,-328 -675,-523 -95,-91 -193,-165 -260,-204 -56,52 -156,133 -253,232 -1566,1589 -2729,4120 -2691,6431 13,9 4000,5 4000,5zm627 5251c-497,-1462 -551,-2862 -609,-4399 -7,-180 4,-271 -2,-354 -511,-21 -3045,-9 -3398,-9 -336,2 -503,-2 -613,2 -22,148 8,418 42,837 157,1951 970,3606 2231,5067 346,398 510,565 633,677 111,-95 382,-310 680,-524 452,-321 959,-597 1184,-752 -46,-165 -76,-333 -148,-544zm3944 -103c-1004,110 -1831,347 -2769,733 -171,72 -289,122 -475,197 51,188 82,242 138,366 186,414 269,687 421,1120 346,774 681,1339 1027,1679 470,225 1285,291 2131,300l0 -4407c-179,-6 -384,-1 -469,8l-5 5zm-972 -14177c-278,52 -633,137 -796,227 -509,638 -1062,2033 -1340,2799 -45,127 -76,186 -102,384 118,76 139,73 257,121 956,390 1940,652 2973,732 107,9 308,8 454,7l0 -4429c-520,23 -817,46 -1445,159zm943 4715c-1013,-38 -1935,-191 -2857,-610 -198,-88 -373,-169 -483,-195 -47,112 -129,442 -170,627 -318,1394 -442,2542 -518,3969 -9,183 -24,352 -13,533 5,4 4231,18 4542,15l0 -4310c-154,-2 -366,-17 -506,-20l5 -10zm-1828 4803c-256,0 -1914,-8 -2212,0 -86,486 411,4099 543,4668 42,183 82,310 154,455 110,-61 348,-159 506,-229 979,-433 1890,-654 2960,-678 76,-2 251,3 378,-5l0 -4223c-811,-16 -1497,12 -2330,12zm10843 11890c-1799,-43 -3483,-1727 -3535,-3507 -5,-180 -62,-432 195,-461 266,-34 252,214 272,404 199,1760 1294,2869 3035,3083 195,23 490,-10 471,280 -14,243 -281,195 -438,205l0 -5zm794 -13292c-414,-556 -956,-500 -1403,119 -1360,1879 -2622,3825 -3644,5913 -509,1037 -999,2098 -999,3297 14,228 0,461 43,685 404,2207 1636,3762 3777,4448 2165,690 4130,176 5676,-1493 1512,-1632 1907,-3539 1027,-5642 -1118,-2669 -2759,-5019 -4477,-7326l0 0zm-3057 -6065c-315,297 -1092,859 -1503,1117 -306,-947 -710,-1822 -1202,-2688 637,176 1080,428 1518,685 371,222 999,639 1187,885zm-636 6977c-2,-181 -27,-345 -33,-680 -24,-1232 -176,-2459 -442,-3667 -74,-337 -142,-730 -245,-1051 223,-122 565,-350 840,-543 233,-166 471,-328 675,-523 95,-91 193,-165 260,-204 56,52 156,133 253,232 1253,1271 2247,3145 2576,5026 -627,-613 -1440,-404 -1978,340 -257,354 -510,711 -759,1071l-1148 -1zm-60 1836c17,-323 29,-650 42,-983 7,-180 -4,-271 2,-354 146,-6 456,-9 832,-11 -300,445 -593,894 -876,1348zm-4511 3313c872,95 1611,287 2405,588 -376,849 -659,1715 -659,2680l0 14 1 15c14,226 5,441 37,664 -42,48 -84,93 -126,134 -470,225 -1285,291 -2131,300l0 -4407c179,-6 384,-1 469,8l5 5zm972 -14177c278,52 632,137 796,227 509,638 1062,2033 1340,2799 45,127 76,186 103,384 -118,76 -139,73 -257,121 -956,390 -1940,652 -2973,732 -107,9 -308,8 -454,7l0 -4429c520,23 817,46 1445,159zm-944 4715c1013,-38 1934,-191 2858,-610 198,-88 372,-169 483,-195 47,112 129,442 170,627 319,1394 442,2542 518,3969 10,183 24,352 13,533 -5,4 -4231,18 -4542,15l0 -4310c154,-2 366,-17 506,-20l-5 -10zm1828 4803c256,0 1914,-8 2211,0 44,252 -68,1348 -204,2423 -379,654 -738,1320 -1071,2000 -60,122 -118,244 -177,366 -887,-363 -1732,-550 -2711,-572 -76,-2 -251,3 -378,-5l0 -4223c812,-16 1497,12 2330,12z"/>
 </g>
</svg>
