<?xml version="1.0" encoding="UTF-8"?>
<!DOCTYPE svg PUBLIC "-//W3C//DTD SVG 1.0//EN" "http://www.w3.org/TR/2001/REC-SVG-20010904/DTD/svg10.dtd">
<!-- Creator: CorelDRAW -->
<svg xmlns="http://www.w3.org/2000/svg" xml:space="preserve" width="8.9998mm" height="8.7376mm" version="1.0" style="shape-rendering:geometricPrecision; text-rendering:geometricPrecision; image-rendering:optimizeQuality; fill-rule:evenodd; clip-rule:evenodd"
viewBox="0 0 28033 27217"
 xmlns:xlink="http://www.w3.org/1999/xlink"
 xmlns:xodm="http://www.corel.com/coreldraw/odm/2003">
 <defs>
  <style type="text/css">
   <![CDATA[
    .fil0 {fill:#00A0E3;fill-rule:nonzero}
   ]]>
  </style>
 </defs>
 <g id="Layer_x0020_1">
  <metadata id="CorelCorpID_0Corel-Layer"/>
  <path class="fil0" d="M22183 19999c-603,45 -1218,0 -1828,11 -1461,17 -2476,976 -2532,2431 -17,401 -107,558 -530,547 -1195,-23 -2391,0 -3587,-11 -835,-12 -1455,-423 -1912,-1100 -378,-558 -301,-1196 -358,-1828l0 -781c307,0 1081,-45 1528,-165 1403,-378 2422,-915 3663,-2054 2560,-2358 3299,-6035 1889,-9238 -1382,-3136 -4642,-5037 -8150,-4738 -3931,333 -7129,3615 -7315,7507 -197,4157 2392,7831 6345,8553 316,58 1035,135 1392,135l0 1164c57,1957 1263,3125 3220,3130 1060,0 2121,23 3181,0 457,-11 615,107 626,592 34,1388 1038,2352 2425,2380 700,17 1399,-11 2098,11 355,12 468,-118 463,-468 -17,-925 -6,-1850 -6,-2775 0,-880 -22,-1760 12,-2640 17,-491 -107,-699 -637,-660l11 -5zm-11432 -14467c-2786,180 -5008,2380 -5217,5178 0,22 0,45 0,68 -45,220 84,581 -282,575 -435,-11 -215,-400 -271,-603 113,-3012 2837,-5725 5770,-5764 220,0 587,-124 609,220 28,395 -349,310 -603,327l-6 0zm9791 17828c0,316 0,626 0,942 0,192 -40,378 -282,367 -186,-6 -265,-141 -265,-321 0,-716 0,-1433 0,-2149 0,-175 96,-305 288,-299 203,0 254,152 259,321 0,378 0,762 0,1139l0 0zm1404 987c0,169 -79,327 -271,327 -180,0 -288,-152 -288,-321 -11,-700 -11,-1399 0,-2093 0,-192 85,-367 321,-349 209,11 242,186 242,344 12,361 0,722 0,1083 0,339 6,677 0,1015l-6 -6zm2330 -5014c-491,11 -942,-51 -931,694 28,2160 28,4320 0,6480 -12,660 333,728 852,705 491,-17 959,57 930,-694 -39,-1077 -11,-2160 -11,-3237 0,-1077 -28,-2160 11,-3238 23,-665 -338,-722 -851,-711zm3141 5346c-378,-28 -767,0 -1145,-34 -457,-40 -649,101 -631,592 17,440 34,767 603,682 152,-23 316,0 474,0l0 0c225,-6 451,0 677,-12 361,-17 615,-208 637,-569 28,-406 -226,-626 -615,-654l0 -6zm68 -4010c-248,-11 -491,0 -739,0l0 0c-248,0 -491,0 -739,-5 -316,-11 -384,192 -344,434 45,276 -197,711 271,767 530,62 1072,34 1608,-11 327,-28 507,-299 491,-620 -17,-321 -203,-547 -553,-564l6 0zm-16333 -19012c468,0 231,-525 293,-784 0,-107 6,-175 0,-243 -28,-248 90,-626 -299,-632 -434,0 -310,401 -339,665 0,45 -6,90 0,135 56,321 -169,863 344,857zm-4912 17569c-355,192 -457,609 -677,930 -113,164 -237,344 -73,553 130,164 299,158 395,11 237,-349 457,-716 649,-1094 102,-203 -39,-333 -299,-400l6 0zm9746 11c-164,11 -327,141 -276,293 169,462 372,919 744,1252 135,124 305,6 372,-158 90,-220 -598,-1365 -846,-1387l6 0zm-9819 -16283c113,107 305,17 383,-152 96,-220 -592,-1348 -823,-1365 -186,0 -344,124 -299,276 147,468 378,908 739,1241zm9650 -28c90,74 225,102 310,17 333,-339 525,-767 700,-1151 11,-180 -40,-282 -164,-305 -102,-17 -265,-11 -305,51 -231,355 -440,722 -643,1094 -62,113 17,220 107,293l-6 0zm-14055 2481c-107,-45 -220,28 -282,135 -62,107 -62,237 22,310 361,299 773,519 1190,705 243,-74 440,-226 254,-429 -316,-350 -756,-541 -1190,-716l6 -6zm17834 1128c395,-169 824,-361 1162,-699 85,-85 74,-214 0,-316 -90,-130 -231,-158 -361,-90 -339,181 -671,372 -993,575 -118,73 -175,209 -124,355 39,118 135,169 305,175l11 0zm863 10270c158,0 276,0 327,-124 56,-135 34,-282 -90,-361 -344,-214 -694,-412 -1049,-598 -130,-68 -265,-17 -338,124 -57,113 -57,243 28,310 355,271 733,507 1117,649l6 0zm-18792 -5713c0,-474 -541,-186 -790,-276 -84,0 -130,-6 -175,0 -259,40 -688,-135 -699,282 -17,406 406,299 671,327 45,0 90,11 135,0 316,-62 863,186 857,-333l0 0zm18894 23c0,265 237,293 440,299 288,11 581,11 869,0 203,-11 429,-56 395,-339 -28,-220 -214,-259 -406,-259 -135,0 -265,0 -401,0 -158,0 -310,0 -468,0 -220,0 -428,40 -428,299l0 0zm-17964 4613c-344,203 -728,417 -1094,660 -56,34 -68,231 -17,305 45,74 220,141 288,107 378,-181 744,-384 1105,-598 96,-57 90,-197 39,-305 -51,-113 -147,-164 -316,-169l-6 0z"/>
 </g>
</svg>
