<?xml version="1.0" encoding="UTF-8"?>
<!DOCTYPE svg PUBLIC "-//W3C//DTD SVG 1.0//EN" "http://www.w3.org/TR/2001/REC-SVG-20010904/DTD/svg10.dtd">
<!-- Creator: CorelDRAW -->
<svg xmlns="http://www.w3.org/2000/svg" xml:space="preserve" width="7.2988mm" height="8.4942mm" version="1.0" style="shape-rendering:geometricPrecision; text-rendering:geometricPrecision; image-rendering:optimizeQuality; fill-rule:evenodd; clip-rule:evenodd"
viewBox="0 0 21548 25077"
 xmlns:xlink="http://www.w3.org/1999/xlink"
 xmlns:xodm="http://www.corel.com/coreldraw/odm/2003">
 <defs>
  <style type="text/css">
   <![CDATA[
    .fil0 {fill:#00A0E3;fill-rule:nonzero}
   ]]>
  </style>
 </defs>
 <g id="Layer_x0020_1">
  <metadata id="CorelCorpID_0Corel-Layer"/>
  <path class="fil0" d="M20870 24518c-931,108 -1753,-32 -2311,-1076 -77,-148 -227,-246 -347,-364 -1973,-1854 -4251,-2678 -6594,-2796 -420,-15 -579,-112 -558,-558 36,-779 10,-1557 10,-2335 0,-574 288,-876 865,-906 1987,-113 3170,-1193 3344,-3078 31,-323 -62,-666 0,-973 113,-543 -148,-666 -594,-645 -1337,62 -2658,174 -3534,1419 -410,-1260 440,-2181 661,-3344 533,538 1045,968 1608,1331 313,200 476,159 476,-256 0,-538 -62,-1065 -195,-1577 -97,-374 0,-425 333,-364 563,102 1116,261 1700,231 292,-15 369,-82 195,-364 -379,-599 -650,-1275 -1460,-1716 814,-210 1449,-415 2043,-717 379,-190 461,-364 36,-615 -558,-333 -1157,-548 -1885,-727 594,-517 1014,-1034 1331,-1634 169,-327 82,-435 -261,-451 -676,-31 -1331,87 -2043,297 179,-686 333,-1316 328,-1972 0,-527 -195,-533 -579,-312 -614,343 -1121,809 -1618,1378 -148,-794 -364,-1490 -758,-2125 -225,-369 -364,-348 -584,0 -369,589 -569,1234 -748,1951 -522,-538 -1019,-983 -1628,-1296 -364,-185 -461,-102 -481,277 -36,702 148,1362 327,2079 -579,-138 -1106,-312 -1654,-317 -251,0 -594,-133 -737,133 -123,225 138,445 251,650 277,502 696,891 1147,1347 -722,159 -1347,389 -1920,737 -369,220 -338,369 15,589 584,358 1219,558 1931,737 -497,497 -937,968 -1255,1546 -205,369 -205,538 287,543 676,10 1331,-92 2048,-328 -179,645 -353,1209 -328,1798 10,215 -97,507 133,619 205,97 410,-123 604,-220 492,-256 865,-666 1337,-1075 92,983 845,1680 753,2678 -82,906 -15,1828 -15,2935 -1060,-1285 -2325,-1480 -3682,-1414 -236,10 -461,26 -481,343 -77,1321 20,2607 1106,3549 748,650 1680,819 2643,794 466,-15 445,282 404,563 -41,287 225,753 -389,779 -553,26 -1106,51 -1649,128 -1771,363 -3796,1178 -5366,3006 -738,855 -1490,1229 -2468,1101 -232,-31 -674,-185 -665,282 3,273 23,293 678,293l20205 0c440,0 665,-32 665,-292 -9,-435 -442,-297 -686,-266l9 -1zm-12387 -18345c0,-1290 1065,-2351 2351,-2335 1285,15 2315,1081 2305,2381 -10,1285 -1070,2310 -2381,2289 -1265,-20 -2279,-1060 -2274,-2335l0 0zm2330 -1828c-998,0 -1838,845 -1833,1849 0,998 850,1823 1859,1813 978,-10 1803,-840 1808,-1808 0,-998 -840,-1854 -1833,-1854l0 0z"/>
 </g>
</svg>
