<?xml version="1.0" encoding="UTF-8"?>
<!DOCTYPE svg PUBLIC "-//W3C//DTD SVG 1.0//EN" "http://www.w3.org/TR/2001/REC-SVG-20010904/DTD/svg10.dtd">
<!-- Creator: CorelDRAW -->
<svg xmlns="http://www.w3.org/2000/svg" xml:space="preserve" width="8.1491mm" height="8.5001mm" version="1.0" style="shape-rendering:geometricPrecision; text-rendering:geometricPrecision; image-rendering:optimizeQuality; fill-rule:evenodd; clip-rule:evenodd"
viewBox="0 0 31915 33290"
 xmlns:xlink="http://www.w3.org/1999/xlink"
 xmlns:xodm="http://www.corel.com/coreldraw/odm/2003">
 <defs>
  <style type="text/css">
   <![CDATA[
    .fil0 {fill:#00A0E3;fill-rule:nonzero}
   ]]>
  </style>
 </defs>
 <g id="Layer_x0020_1">
  <metadata id="CorelCorpID_0Corel-Layer"/>
  <path class="fil0" d="M15306 486c-2090,2991 -4118,6015 -5506,9425 -1884,4612 1897,9465 6489,9328 4640,145 8352,-4778 6496,-9246 -1444,-3478 -3568,-6537 -5795,-9534 -461,-625 -1231,-605 -1677,27l-7 0zm749 17000c-2262,69 -4654,-2324 -4606,-4613 0,-220 -27,-488 255,-529 323,-48 378,220 426,481 454,2578 1278,3409 3959,3966 234,48 543,55 488,412 -41,275 -296,282 -515,289l-7 -7zm14518 7912c-399,110 -811,213 -1162,413 -1560,900 -3100,845 -4653,-21 -894,-502 -1760,-454 -2736,-27 -1189,529 -2420,1272 -3795,371 -1643,-1072 -3279,-743 -4880,110 -770,412 -1519,426 -2262,0 -1705,-969 -3410,-1017 -5114,-34 -811,468 -1581,399 -2420,0 -791,-378 -1636,-618 -2385,-894 -632,62 -1031,316 -1141,880 -110,564 145,976 660,1182 969,392 1966,708 2915,1141 811,371 1568,433 2351,-7 1670,-949 3341,-1031 5025,-34 818,481 1670,481 2495,0 1657,-969 3293,-935 4956,0 749,426 1561,529 2344,62 1760,-1052 3499,-969 5259,0 364,206 811,474 1251,316 1368,-481 2736,-983 4070,-1560 536,-227 694,-777 433,-1334 -234,-509 -660,-729 -1210,-578l0 13zm-30500 -3705c-227,653 83,1155 928,1471 949,358 1925,660 2846,1072 660,296 1285,351 1890,0 1863,-1086 3698,-1059 5561,14 584,337 1223,358 1814,14 1884,-1100 3747,-1121 5637,-14 550,323 1169,371 1739,42 1939,-1120 3850,-1141 5795,-14 399,234 880,309 1354,123 1175,-454 2358,-900 3540,-1347 467,-179 667,-536 735,-983 7,-791 -708,-1272 -1519,-1004 -598,193 -1210,385 -1767,674 -1031,543 -2014,578 -3025,-14 -1478,-859 -2969,-846 -4434,0 -1024,591 -2007,564 -3018,-7 -1444,-818 -2894,-866 -4351,-21 -1017,591 -2035,632 -3093,21 -1437,-832 -2880,-859 -4345,0 -1003,591 -2048,605 -3100,0 -467,-268 -1017,-406 -1533,-591 -845,-303 -1409,-110 -1643,543l-14 21zm30198 8159c-852,302 -1705,612 -2536,962 -440,186 -832,227 -1251,-14 -2069,-1203 -4138,-1189 -6200,0 -385,220 -783,248 -1168,21 -2090,-1210 -4187,-1238 -6283,-21 -378,220 -770,248 -1169,21 -2090,-1203 -4180,-1224 -6276,-7 -378,220 -763,179 -1175,14 -859,-358 -1733,-688 -2612,-997 -715,-255 -1279,-21 -1505,578 -234,591 42,1127 743,1423 426,179 900,282 1299,509 1767,1004 3520,1031 5286,14 715,-412 1437,-447 2172,-14 1753,1024 3513,1038 5273,0 722,-419 1444,-426 2158,0 1760,1038 3520,1017 5279,7 735,-419 1430,-351 2179,-20 846,378 1739,660 2544,962 282,-69 474,-96 646,-158 1127,-419 2255,-853 3382,-1279 653,-248 1003,-687 777,-1402 -199,-646 -783,-866 -1554,-591l-8 -7z"/>
 </g>
</svg>
