<?xml version="1.0" encoding="UTF-8"?>
<!DOCTYPE svg PUBLIC "-//W3C//DTD SVG 1.0//EN" "http://www.w3.org/TR/2001/REC-SVG-20010904/DTD/svg10.dtd">
<!-- Creator: CorelDRAW -->
<svg xmlns="http://www.w3.org/2000/svg" xml:space="preserve" width="8.9999mm" height="8.6216mm" version="1.0" style="shape-rendering:geometricPrecision; text-rendering:geometricPrecision; image-rendering:optimizeQuality; fill-rule:evenodd; clip-rule:evenodd"
viewBox="0 0 47948 45933"
 xmlns:xlink="http://www.w3.org/1999/xlink"
 xmlns:xodm="http://www.corel.com/coreldraw/odm/2003">
 <defs>
  <style type="text/css">
   <![CDATA[
    .fil0 {fill:#00A0E3;fill-rule:nonzero}
   ]]>
  </style>
 </defs>
 <g id="Layer_x0020_1">
  <metadata id="CorelCorpID_0Corel-Layer"/>
  <path class="fil0" d="M43958 26123c-699,-204 -786,-369 -651,-1068 835,-4380 -2127,-7895 -6565,-7827 -651,10 -1010,-97 -1301,-777 -1796,-4108 -5875,-6593 -10002,-6186 -4593,457 -8079,3506 -9099,8040 -126,544 -281,738 -844,845 -3409,631 -5157,2506 -5642,6001 -68,476 -165,728 -690,884 -3001,874 -4641,3292 -4273,6186 369,2865 2729,4807 5895,4816 5205,10 10400,0 15605,0l0 0c5322,0 10633,20 15955,-9 2884,-20 5137,-2011 5545,-4807 388,-2700 -1243,-5312 -3933,-6099l0 0zm-39280 -7739c719,2369 2146,4243 4282,5710 904,-3166 2826,-5147 5963,-5836 495,-107 543,-485 651,-854 1194,-4001 3816,-6574 7817,-7711 874,-253 971,-534 398,-1175 -184,-204 -340,-427 -524,-621 -3593,-3962 -9070,-4875 -13653,-2272 -4399,2495 -6458,7749 -4933,12750l0 9zm9827 -11663c379,0 981,-214 981,447 0,514 -534,446 -913,485 -3942,437 -6497,2981 -6914,6914 -48,418 -19,1010 -602,922 -573,-87 -291,-699 -359,-1039 126,-3981 3875,-7691 7808,-7730l-1 0zm18936 35706c-233,-97 -457,-48 -622,156 -379,485 -806,941 -1126,1466 -330,544 -1369,1156 -738,1660 864,700 1068,-601 1515,-1048 515,-505 884,-1146 1263,-1661 -10,-330 -97,-505 -291,-573l0 0zm-7468 -4001c-408,514 -855,1000 -1185,1554 -311,524 -1369,1087 -583,1680 680,515 952,-612 1350,-1030 515,-553 923,-1214 1389,-1855 -145,-204 -214,-399 -359,-495 -224,-155 -447,-48 -602,146l-10 1zm-13236 5729c-300,505 -1330,1059 -640,1592 806,621 1029,-602 1466,-1039 515,-515 893,-1165 1350,-1777 -146,-194 -224,-379 -369,-476 -214,-135 -457,-87 -621,126 -408,515 -855,1010 -1194,1573l9 0zm14401 -1729c-300,-107 -524,29 -699,262 -583,767 -1165,1534 -1758,2292 -194,262 -369,544 -48,806 350,282 641,107 874,-204 534,-709 1078,-1408 1612,-2117 136,-185 242,-379 340,-525 -29,-281 -126,-437 -321,-514l0 0zm-8817 -689c835,-904 1612,-1845 2205,-2932 97,-175 -10,-388 -175,-505 -214,-156 -457,-126 -621,78 -680,874 -1379,1748 -2010,2670 -224,330 -59,660 369,758 87,-29 184,-29 233,-68l0 -1zm14518 -3476c-253,-117 -466,19 -602,194 -641,816 -1282,1631 -1874,2476 -253,359 -204,738 311,874 87,-29 184,-29 233,-68 865,-874 1612,-1835 2205,-2914 117,-214 -39,-457 -272,-563l0 1zm-11915 4205c-214,-145 -485,-117 -631,68 -689,874 -1388,1748 -2020,2661 -253,369 -48,651 408,738 97,-39 242,-39 301,-117 709,-904 1408,-1816 2097,-2749 165,-223 48,-457 -156,-602zm17130 -1719c524,-612 1087,-1214 1379,-1932 -10,-272 -78,-446 -272,-544 -253,-126 -457,-19 -612,175 -437,544 -884,1078 -1272,1661 -311,466 -1214,990 -544,1524 690,544 961,-485 1311,-893l10 10zm-24675 -2311c-631,816 -1272,1631 -1884,2467 -194,262 -253,592 68,806 340,233 583,0 777,-253 544,-699 1068,-1398 1602,-2107 136,-184 233,-388 311,-524 0,-291 -78,-457 -262,-554 -242,-136 -457,-39 -612,156l-1 10zm-9672 -29414c282,126 476,-146 505,-418 0,-340 -1349,-1350 -1767,-1331 -301,10 -612,224 -514,486 272,816 1107,971 1777,1272l-1 -10zm4768 -4797c301,-10 583,-175 544,-388 -146,-728 -505,-1369 -1097,-1845 -214,-175 -476,-29 -592,184 -233,427 126,728 301,1049 224,388 330,893 835,1000l10 0zm13051 -10c447,0 1360,-1330 1321,-1806 -29,-320 -243,-583 -515,-457 -709,330 -942,1059 -1165,1738 -97,291 97,515 369,515l-10 10zm4768 4826c485,39 1893,-913 1903,-1233 0,-320 -165,-495 -476,-524 -359,-29 -1835,961 -1845,1243 0,321 185,486 418,515l0 0zm-22616 12110c-505,19 -1826,980 -1748,1301 78,301 301,427 699,388 495,-379 1360,-408 1573,-1243 78,-320 -204,-457 -515,-446l-10 1zm11332 -18655c311,10 515,-165 544,-476 29,-223 0,-466 0,-689l19 0c0,-233 10,-466 0,-690 -20,-320 -87,-631 -505,-641 -437,0 -476,340 -485,641 -20,457 0,923 19,1389 20,233 117,476 399,486l10 -20zm-13964 13090c495,-29 1126,272 1418,-398 117,-282 -117,-505 -418,-554 -262,-39 -534,-29 -796,-39 0,10 0,20 0,29 -262,0 -534,-19 -796,0 -311,29 -514,224 -437,534 145,573 651,437 1039,418l-9 10z"/>
 </g>
</svg>
