<?xml version="1.0" encoding="UTF-8"?>
<!DOCTYPE svg PUBLIC "-//W3C//DTD SVG 1.0//EN" "http://www.w3.org/TR/2001/REC-SVG-20010904/DTD/svg10.dtd">
<!-- Creator: CorelDRAW -->
<svg xmlns="http://www.w3.org/2000/svg" xml:space="preserve" width="8.75mm" height="8.7501mm" version="1.0" style="shape-rendering:geometricPrecision; text-rendering:geometricPrecision; image-rendering:optimizeQuality; fill-rule:evenodd; clip-rule:evenodd"
viewBox="0 0 59499 59500"
 xmlns:xlink="http://www.w3.org/1999/xlink"
 xmlns:xodm="http://www.corel.com/coreldraw/odm/2003">
 <defs>
  <style type="text/css">
   <![CDATA[
    .fil0 {fill:#00A0E3;fill-rule:nonzero}
   ]]>
  </style>
 </defs>
 <g id="Layer_x0020_1">
  <metadata id="CorelCorpID_0Corel-Layer"/>
  <path class="fil0" d="M59498 6213c0,-1660 3,-3319 0,-4978 -2,-906 -326,-1235 -1223,-1235 -19011,0 -38023,0 -57033,0 -928,0 -1239,324 -1241,1276 -1,1679 0,3359 0,5037 0,970 160,1177 1116,1432 -149,392 -305,779 -444,1170 -327,912 -391,1905 201,2644 699,872 492,1597 75,2416 -90,177 -156,367 -226,554 -471,1244 -306,2402 537,3430 215,261 224,455 99,742 -247,566 -469,1145 -683,1725 -335,911 -394,1901 194,2644 690,869 513,1595 80,2415 -73,141 -125,293 -184,442 -524,1299 -378,2508 526,3590 184,222 199,393 95,640 -248,588 -486,1182 -709,1780 -337,909 -407,1909 191,2642 732,898 475,1639 63,2472 -71,143 -126,293 -186,441 -500,1283 -345,2472 542,3535 183,218 210,388 103,640 -250,587 -486,1182 -709,1780 -348,932 -409,1958 211,2695 713,848 438,1525 80,2307 -123,273 -234,551 -327,835 -301,919 -341,1907 254,2646 653,813 500,1476 88,2247 -139,261 -226,555 -325,837 -212,598 -254,1210 -111,1829 381,1651 1703,2655 3514,2657 17111,1 34223,0 51335,0 99,0 200,0 299,-2 2341,-65 3885,-2287 3123,-4508 -194,-566 -418,-1122 -659,-1670 -141,-321 -148,-545 101,-850 808,-991 976,-2117 530,-3322 -209,-561 -420,-1123 -664,-1669 -131,-295 -86,-488 118,-741 819,-1013 998,-2151 537,-3376 -203,-542 -401,-1087 -643,-1613 -146,-318 -99,-520 122,-794 802,-996 976,-2117 530,-3324 -207,-561 -420,-1122 -664,-1669 -131,-293 -92,-486 114,-741 821,-1013 999,-2150 540,-3375 -203,-542 -401,-1087 -643,-1613 -144,-316 -104,-517 118,-794 803,-994 978,-2117 534,-3322 -207,-561 -420,-1123 -664,-1669 -130,-292 -97,-483 111,-742 838,-1032 1000,-2190 526,-3433 -199,-522 -391,-1049 -625,-1555 -144,-313 -111,-516 116,-795 804,-993 981,-2116 537,-3322 -207,-561 -420,-1122 -662,-1669 -129,-290 -103,-484 107,-742 840,-1032 1000,-2189 530,-3433 -126,-335 -260,-667 -391,-1000 1000,-315 1114,-475 1114,-1550l2 5zm-48934 4877c7,347 -111,432 -443,431 -2075,-13 -4149,5 -6223,-13 -1125,-10 -1764,-967 -1390,-2026 424,-1204 1265,-1807 2523,-1807 619,0 1236,0 1854,0 1078,0 2155,11 3232,-7 328,-5 454,78 446,428 -22,997 -22,1994 0,2991l0 2zm-8048 4136c213,-579 324,-1301 737,-1671 425,-380 1175,-90 1783,-114 617,-25 1238,-6 1856,-6 1077,0 2156,13 3233,-6 340,-7 444,97 438,437 -21,998 -22,1996 0,2995 7,362 -138,422 -454,420 -2056,-11 -4112,3 -6169,-10 -1168,-8 -1826,-959 -1425,-2044l0 -1zm8049 7324c13,405 -129,498 -508,490 -1038,-24 -2076,-8 -3114,-8 -999,0 -1996,10 -2995,-3 -1199,-16 -1845,-970 -1417,-2092 220,-576 335,-1307 757,-1656 404,-335 1146,-77 1738,-82 1677,-14 3354,5 5031,-13 378,-5 521,84 508,491 -31,957 -31,1917 0,2874l0 -1zm-1 17334c7,351 -116,431 -446,430 -2076,-13 -4152,6 -6228,-13 -1125,-10 -1767,-973 -1377,-2033 213,-579 322,-1297 734,-1673 423,-388 1173,-91 1779,-119 617,-29 1238,-6 1857,-6 1077,0 2156,11 3233,-6 328,-5 455,75 447,428 -22,998 -22,1996 0,2995l0 -1zm-2 -5745c5,302 -71,419 -396,417 -2116,-14 -4232,12 -6348,-18 -1026,-12 -1653,-957 -1344,-1930 402,-1265 1257,-1899 2567,-1899 619,0 1238,0 1856,0 1058,0 2116,18 3174,-10 401,-10 505,119 494,503 -26,979 -18,1956 -3,2934l0 1zm0 17248c7,330 -80,447 -430,444 -2076,-16 -4152,5 -6228,-13 -1130,-10 -1777,-964 -1396,-2020 176,-488 399,-957 567,-1446 99,-288 235,-407 560,-383 537,38 1077,16 1616,18 539,0 1077,0 1617,0 1078,0 2156,18 3233,-10 382,-10 470,118 462,476 -22,978 -19,1956 0,2933l-1 1zm0 5693c8,372 -72,517 -484,513 -2036,-22 -4070,0 -6106,-14 -1207,-8 -1862,-954 -1444,-2076 215,-577 332,-1300 749,-1661 403,-347 1142,-72 1733,-93 617,-20 1238,-5 1856,-5 1077,0 2156,16 3233,-7 373,-8 476,104 466,471 -24,957 -24,1916 0,2873l-3 0zm0 -11442c8,343 -103,437 -439,435 -2076,-15 -4152,5 -6228,-13 -1127,-10 -1771,-968 -1384,-2028 212,-579 322,-1295 731,-1677 424,-394 1172,-93 1778,-122 617,-29 1238,-6 1856,-6 1058,0 2116,14 3174,-8 371,-8 528,67 515,484 -32,978 -24,1956 -3,2933l0 2zm0 -17312c10,361 -85,484 -463,475 -1037,-25 -2076,-10 -3113,-10 -999,0 -1996,8 -2995,-1 -1242,-12 -1899,-959 -1455,-2110 222,-574 335,-1337 765,-1644 398,-284 1148,-82 1743,-83 1657,-3 3314,18 4969,-13 465,-8 566,136 551,571 -32,938 -26,1877 -1,2814l-2 1zm3120 29275c-1206,-64 -1207,-18 -1207,-1231l0 -23806c0,-8076 6,-16151 -14,-24226 0,-568 168,-688 696,-672 1238,35 1238,11 1238,1253 0,15972 -3,31941 11,47912 0,560 -69,805 -723,770l0 0zm2619 -49302c-22,-488 99,-636 613,-633 4277,22 8552,13 12829,13 4277,0 8553,10 12830,-13 500,-3 646,122 622,624 -44,898 -32,1799 -3,2697 13,407 -85,559 -521,540 -798,-35 -1599,-10 -2398,-10 -7774,0 -15547,-7 -23321,13 -529,0 -683,-124 -652,-654 48,-856 41,-1719 1,-2576l0 0zm26891 25663c18,458 -98,602 -583,599 -4296,-20 -8593,-11 -12889,-11 -4296,0 -8553,-8 -12829,11 -477,2 -609,-126 -589,-594 37,-877 40,-1760 0,-2638 -22,-490 105,-633 616,-632 3937,22 7873,13 11810,13 4615,0 9232,8 13847,-13 504,-1 645,129 621,626 -44,877 -37,1758 -2,2637l-1 2zm0 -5757c18,458 -99,603 -583,600 -4296,-21 -8593,-12 -12889,-12 -4296,0 -8553,-7 -12829,12 -477,1 -608,-129 -589,-595 37,-877 40,-1760 0,-2637 -22,-492 106,-633 616,-630 3977,22 7952,13 11930,13 4576,0 9152,8 13729,-13 503,-1 644,129 619,627 -44,877 -37,1759 -2,2638l-1 -2zm1 -14118c-43,877 -38,1759 0,2638 20,449 -109,566 -559,562 -4297,-18 -8593,-11 -12889,-11 -4277,0 -8553,-10 -12830,13 -511,3 -634,-143 -614,-632 40,-917 29,-1839 3,-2758 -10,-369 95,-474 468,-471 1759,20 3518,8 5276,8 6834,0 13668,8 20502,-14 547,-1 668,150 645,664l-2 1zm-26894 5730c-22,-488 99,-636 612,-634 4277,22 8553,13 12830,13 4277,0 8553,10 12830,-13 500,-3 646,122 622,624 -43,898 -32,1799 -3,2696 12,407 -85,560 -522,541 -798,-35 -1598,-10 -2398,-10 -7773,0 -15547,-7 -23320,12 -529,0 -683,-123 -653,-654 48,-856 42,-1718 2,-2576l0 0zm26892 34548c-41,877 -39,1758 0,2637 21,470 -117,596 -590,594 -4277,-20 -8552,-12 -12829,-12 -4277,0 -8553,-11 -12830,14 -547,3 -668,-152 -644,-664 43,-877 38,-1758 0,-2637 -20,-449 109,-564 559,-563 4696,18 9393,12 14089,12 3876,0 7754,11 11631,-13 511,-3 636,143 614,632l1 0zm0 -5760c-41,877 -37,1758 0,2637 19,465 -107,600 -587,596 -4296,-19 -8592,-11 -12889,-11 -4296,0 -8552,-8 -12829,11 -483,1 -605,-136 -585,-598 35,-879 40,-1760 0,-2638 -24,-495 112,-630 619,-628 4436,21 8873,13 13309,13 4117,0 8233,10 12350,-13 509,-3 640,136 617,628l-5 2zm0 -3120c19,467 -111,598 -588,595 -4296,-19 -8593,-11 -12889,-11 -4296,0 -8553,-8 -12830,11 -483,1 -601,-141 -583,-600 35,-898 35,-1799 0,-2696 -18,-446 105,-566 558,-564 4497,18 8992,11 13488,11 4077,0 8154,10 12230,-13 510,-3 638,140 615,630 -41,877 -38,1758 0,2637l-1 0zm0 -5794c24,490 -103,634 -614,632 -4277,-22 -8553,-13 -12830,-13 -4277,0 -8552,-10 -12829,13 -502,3 -645,-125 -620,-626 43,-898 32,-1799 3,-2696 -14,-411 88,-555 523,-539 959,34 1917,10 2878,10 7613,0 15228,6 22841,-13 532,0 681,128 651,656 -48,856 -43,1718 0,2576l-1 0zm3152 17906c-1242,-39 -1244,-12 -1244,-1249 0,-15990 3,-31981 -14,-47973 0,-587 146,-733 720,-711 1212,47 1213,13 1213,1221l0 23806c0,8076 -6,16151 13,24226 0,556 -149,696 -689,680l1 0zm5246 -46085c-58,12 -129,16 -211,14 -203,-7 -406,-12 -609,-14l-750 0c-225,2 -450,7 -675,14 -306,7 -418,-77 -413,-399 19,-1017 19,-2035 0,-3052 -6,-326 111,-406 415,-398 224,5 449,10 673,12l0 -3 996 0c122,-2 243,-5 366,-9 72,-3 135,0 189,9l2385 0c45,-8 97,-11 156,-9 596,16 1195,13 1792,0 247,-5 404,53 494,313 184,524 424,1031 605,1555 346,999 -287,1932 -1340,1967 -540,18 -1236,173 -1641,1l-2430 0zm-2657 2293c-3,-288 95,-378 379,-372 236,5 473,10 709,12l0 -3 979 0c156,-2 311,-5 466,-9 54,-1 99,2 138,9l2321 0c54,-14 122,-16 205,-5 22,3 44,5 65,5l165 0c82,-3 165,-6 247,-1 550,37 1305,-258 1603,90 454,528 657,1307 853,2009 226,813 -394,1612 -1234,1727l0 0c-40,5 -80,7 -119,7 -567,-16 -1288,207 -1714,-5l-2360 0c-45,11 -98,15 -160,14 -719,-13 -1437,-13 -2155,0 -273,5 -391,-63 -386,-362 14,-1037 14,-2074 0,-3112l-2 -3zm454 5382c211,10 422,16 633,19l0 -1 804 0c199,-3 398,-8 597,-14 78,-3 141,2 194,14l2375 0c373,-182 1055,64 1558,-21 609,-104 853,173 1004,698 115,399 314,775 449,1169 343,1002 -281,1938 -1332,1977 -533,18 -1191,161 -1620,5l-2536 0c-404,152 -1084,-3 -1610,1 -963,8 -963,2 -963,-972 0,-798 16,-1597 -7,-2394 -10,-351 67,-498 456,-481l0 0zm2168 9606c-51,7 -109,10 -175,7 -88,-3 -177,-5 -265,-7l-1095 0 0 -6c-225,3 -450,7 -675,14 -303,8 -420,-73 -413,-398 19,-1017 19,-2035 0,-3052 -6,-324 107,-407 413,-399 328,10 657,14 985,15l32 0 32 0 32 0c318,0 636,-5 953,-15 88,-3 161,1 222,15l2384 0c371,-186 1057,63 1563,-23 609,-104 853,173 1005,698 116,399 314,775 450,1169 343,1002 -280,1940 -1332,1977 -530,18 -1184,160 -1614,7l-2502 0zm-2617 3832c0,-498 13,-999 -5,-1495 -11,-292 53,-435 390,-424 233,7 465,12 698,14l0 -1 811 0c216,-2 431,-5 647,-9 52,-1 97,2 137,9l2344 0c44,-7 95,-10 153,-9 617,13 1236,6 1854,-14 216,-7 330,64 404,260 221,575 484,1138 670,1725 286,908 -351,1813 -1308,1861 -1414,71 -2690,4 -4108,4 -46,10 -99,12 -160,12 -719,-10 -1437,-14 -2155,2 -286,6 -385,-88 -375,-375 18,-518 5,-1038 5,-1556l0 -2zm103 3975c206,-235 581,-228 980,-188l0 -11 4723 12c460,3 765,55 1225,39 217,-8 329,67 403,261 221,576 486,1138 670,1725 285,908 -354,1812 -1313,1860l0 0c-1308,63 -3076,71 -4376,20 -658,-28 -1316,-22 -1975,0 -330,11 -463,-78 -445,-430 27,-518 6,-1038 6,-1555 14,0 27,0 42,0 0,-595 -235,-1393 61,-1732l1 -1zm-109 6065c-6,-335 85,-455 433,-443 218,9 437,14 656,18l0 -1 788 0c198,-3 396,-9 594,-17 84,-3 152,3 208,17l2375 0c350,-129 905,51 1338,-22 762,-128 1138,170 1302,890 69,308 237,592 346,891 399,1096 -240,2050 -1401,2068 -1039,16 -2079,3 -3118,3 -386,0 -772,-3 -1159,-4l-1030 0c-290,2 -579,6 -870,14 -378,10 -473,-111 -465,-475 24,-979 21,-1959 0,-2939l3 -1zm6743 14910c-2116,27 -4231,6 -6347,14 -262,0 -399,-46 -394,-356 16,-1038 20,-2077 0,-3114 -6,-350 157,-380 435,-377 1098,10 2196,5 3293,5l0 -6c1058,0 2116,12 3174,-8 301,-7 473,45 577,356 170,510 407,996 585,1504 351,1002 -273,1969 -1321,1983l-1 -1zm40 -5762c-2135,34 -4271,8 -6408,18 -289,0 -377,-95 -374,-377 13,-1018 21,-2036 -3,-3054 -8,-364 139,-424 455,-419 1098,16 2196,7 3293,7 0,-2 0,-5 0,-7 1058,0 2116,12 3174,-7 271,-5 442,29 543,319 189,545 445,1068 627,1616 309,938 -321,1890 -1310,1905l1 0zm1875 -49185c-53,837 -45,1680 -1,2517 26,494 -109,633 -617,628 -3677,-24 -7355,-13 -11032,-13l-16191 0c-9054,0 -18109,-5 -27163,13 -553,0 -707,-146 -680,-687 45,-917 24,-1839 7,-2757 -5,-307 78,-452 401,-409 98,13 199,2 300,2 18090,0 36178,3 54267,-15 585,0 747,143 710,720l0 1z"/>
 </g>
</svg>
