<?xml version="1.0" encoding="UTF-8"?>
<!DOCTYPE svg PUBLIC "-//W3C//DTD SVG 1.0//EN" "http://www.w3.org/TR/2001/REC-SVG-20010904/DTD/svg10.dtd">
<!-- Creator: CorelDRAW -->
<svg xmlns="http://www.w3.org/2000/svg" xml:space="preserve" width="8.75mm" height="8.75mm" version="1.0" style="shape-rendering:geometricPrecision; text-rendering:geometricPrecision; image-rendering:optimizeQuality; fill-rule:evenodd; clip-rule:evenodd"
viewBox="0 0 86337 86337"
 xmlns:xlink="http://www.w3.org/1999/xlink"
 xmlns:xodm="http://www.corel.com/coreldraw/odm/2003">
 <defs>
  <style type="text/css">
   <![CDATA[
    .fil0 {fill:#00A0E3;fill-rule:nonzero}
   ]]>
  </style>
 </defs>
 <g id="Layer_x0020_1">
  <metadata id="CorelCorpID_0Corel-Layer"/>
  <path class="fil0" d="M86329 2221c0,-1895 -324,-2218 -2222,-2218 -27292,0 -54583,0 -81876,0 -202,0 -407,-5 -609,0 -1086,28 -1607,521 -1612,1602 -14,2639 -12,5278 0,7917 5,1089 519,1600 1596,1617 954,16 1909,2 2949,2 -381,1105 -646,2210 -48,3177 530,861 402,1589 60,2421 -430,1047 -668,2187 -41,3187 525,842 376,1539 53,2339 -435,1079 -691,2248 -36,3269 531,823 342,1495 47,2259 -419,1081 -707,2237 -65,3272 523,843 376,1538 53,2340 -435,1077 -694,2247 -37,3268 528,824 342,1496 46,2259 -418,1081 -706,2238 -65,3273 521,842 379,1537 53,2340 -437,1077 -693,2247 -37,3268 528,823 344,1496 48,2259 -418,1081 -706,2235 -65,3273 521,842 380,1537 56,2339 -437,1077 -689,2243 -39,3268 497,786 393,1436 84,2178 -121,293 -207,602 -289,910 -437,1630 149,3291 1589,4151 570,342 682,719 682,1319 -21,5657 -14,11312 -12,16969 0,1429 435,1857 1873,1857 23000,0 45999,0 68999,0 1467,0 1899,-440 1902,-1929 0,-5657 5,-11312 -7,-16969 0,-470 70,-754 577,-984 1800,-819 2579,-2647 2028,-4562 -153,-528 -346,-1045 -511,-1568 -68,-211 -198,-416 -24,-653 1088,-1480 754,-3015 142,-4543 -207,-517 -235,-933 91,-1445 537,-840 634,-1792 339,-2759 -177,-582 -356,-1163 -557,-1736 -102,-291 -109,-521 77,-805 740,-1123 800,-2324 322,-3570 -351,-915 -677,-1772 32,-2752 435,-598 382,-1442 152,-2193 -186,-610 -387,-1214 -572,-1821 -65,-214 -195,-418 -21,-653 1090,-1480 751,-3014 137,-4543 -207,-519 -231,-935 95,-1445 536,-840 633,-1791 337,-2761 -177,-582 -356,-1163 -556,-1736 -103,-293 -108,-521 79,-805 737,-1126 797,-2326 316,-3570 -353,-915 -672,-1775 36,-2752 432,-600 379,-1443 149,-2193 -186,-610 -384,-1215 -572,-1821 -65,-214 -188,-416 -19,-653 865,-1215 902,-2527 328,-3962 999,0 1894,5 2786,0 1305,-7 1780,-477 1785,-1784 4,-2380 0,-4757 0,-7137l-7 -14zm-16008 53479c1070,0 2140,0 3212,0 1564,0 3124,-2 4688,0 602,0 1111,747 1130,1705 12,656 -355,1061 -1003,1066 -3212,21 -6422,7 -9634,21 -389,0 -468,-151 -490,-509 -159,-2282 -168,-2282 2100,-2282l-2 0zm-37 -5568c1100,0 2198,0 3299,0 1505,0 3009,0 4512,0 714,0 1285,763 1252,1756 -24,763 -519,1032 -1226,1030 -2256,-5 -4512,0 -6771,0 -810,0 -1621,-26 -2431,9 -495,21 -703,-79 -709,-651 -26,-2144 -48,-2142 2073,-2142l2 -2zm742 27082c5,593 -132,781 -758,781 -18067,-17 -36131,-17 -54198,0 -616,0 -772,-168 -765,-773 30,-3160 51,-6322 -12,-9483 -16,-838 288,-912 987,-912 8959,21 17920,14 26880,14 8990,0 17978,10 26968,-19 730,0 910,188 901,908 -42,3160 -33,6322 -5,9483l2 0zm-54993 -29867c-2548,0 -5094,-7 -7639,5 -584,2 -1110,-61 -1361,-685 -116,-288 274,-1933 516,-2046 170,-79 394,-56 593,-56 1564,-4 3127,0 4688,0 1563,0 3126,15 4687,-9 444,-7 583,118 600,581 77,2212 93,2212 -2087,2212l3 -2zm2089 3552c-15,2016 9,2016 -2022,2016 -2575,0 -5150,-7 -7727,5 -591,2 -1105,-81 -1347,-703 -114,-295 305,-1933 544,-2035 175,-75 396,-49 596,-49 1532,-2 3068,0 4601,0 1532,0 3068,33 4601,-14 631,-19 758,195 756,783l-2 -4zm-2131 -25831c-2517,0 -5036,2 -7552,0 -1319,0 -1624,-480 -1305,-1733 217,-850 598,-1136 1489,-1076 1381,94 2778,26 4166,26 1563,0 3126,17 4687,-9 482,-7 635,120 647,624 50,2170 67,2170 -2128,2170l-3 -2zm77 5568c-2575,0 -5150,5 -7727,0 -1189,-2 -1515,-511 -1224,-1656 211,-838 535,-1244 1512,-1156 1349,119 2716,31 4077,31 1592,0 3185,19 4776,-9 493,-10 626,144 637,632 46,2161 63,2161 -2051,2161l0 -3zm-8935 3836c217,-850 598,-1136 1487,-1075 1381,93 2777,26 4166,26 1563,0 3126,16 4687,-10 482,-7 635,121 646,624 51,2170 68,2170 -2128,2170 -2516,0 -5035,3 -7552,0 -1319,0 -1624,-479 -1305,-1733l0 -2zm8875 7304c-2548,0 -5094,5 -7639,0 -1239,-2 -1544,-504 -1237,-1717 211,-833 567,-1155 1474,-1093 1382,101 2776,26 4167,26 1563,0 3126,14 4687,-9 458,-7 649,86 663,607 55,2187 76,2187 -2115,2187l0 0zm7689 21275c0,860 -228,1056 -1051,1025 -1754,-65 -1756,-19 -1756,-1774l0 -24794c0,-8467 7,-16936 -14,-25403 0,-698 74,-1018 912,-986 1884,72 1887,18 1887,1909 0,16673 -7,33349 21,50022l2 0zm2745 -5506c51,-1842 14,-1845 1859,-1845 4987,0 9972,0 14959,0 5247,0 10495,17 15743,-19 742,-4 909,207 891,917 -46,1887 -12,1887 -1903,1887 -10205,0 -20408,-12 -30613,21 -793,3 -956,-218 -935,-963l0 3zm0 -5459c41,-1952 7,-1954 1924,-1954 10204,0 20408,7 30613,-17 707,0 935,147 917,891 -51,1910 -12,1910 -1882,1910 -4957,0 -9914,0 -14873,0 -5276,0 -10554,-12 -15829,14 -661,2 -889,-137 -872,-847l2 2zm1942 9185c10177,0 20351,10 30528,-19 807,-2 1009,219 984,1001 -56,1803 -16,1805 -1812,1805l-14960 0c-5275,0 -10553,-14 -15829,17 -698,5 -862,-195 -852,-865 36,-1935 7,-1935 1940,-1935l0 -3zm29683 -13924l-14959 0c-5248,0 -10496,-14 -15743,16 -696,5 -947,-125 -926,-883 51,-1917 11,-1919 1961,-1919 10146,0 20293,9 30439,-19 804,0 1097,137 1058,1016 -76,1784 -21,1786 -1832,1786l2 3zm-29727 -8355c10205,0 20408,10 30613,-21 780,0 966,200 942,956 -56,1847 -16,1849 -1854,1849l-14873 0c-5276,0 -10553,-16 -15829,19 -733,5 -917,-193 -898,-910 46,-1891 12,-1894 1895,-1894l3 0zm-1894 -3638c35,-1930 7,-1933 1942,-1933 10177,0 20351,12 30528,-21 814,-2 1004,228 981,1003 -55,1801 -16,1801 -1814,1801 -4988,0 -9973,0 -14960,0 -5276,0 -10553,-14 -15829,19 -705,4 -858,-207 -847,-870l-2 2zm33451 -6567c-55,1849 -16,1849 -1853,1849 -4957,0 -9914,0 -14874,0 -5275,0 -10553,-16 -15829,19 -732,5 -917,-190 -898,-909 47,-1894 12,-1894 1896,-1894 10205,0 20408,9 30613,-22 778,0 966,198 942,954l2 2zm0 -11093c-55,1803 -16,1803 -1812,1803 -4987,0 -9972,0 -14959,0 -5276,0 -10554,-14 -15829,16 -701,5 -861,-202 -850,-867 35,-1933 7,-1933 1940,-1933 10177,0 20351,9 30528,-21 809,-2 1006,223 981,1003l0 0zm-1944 -3766c-10177,0 -20351,-11 -30528,21 -814,3 -1004,-230 -979,-1003 53,-1800 16,-1800 1815,-1800 4987,0 9972,0 14959,0 5276,0 10553,14 15829,-19 705,-5 858,207 847,869 -35,1931 -7,1934 -1942,1934l0 -3zm-29661 8355c4957,0 9914,0 14874,0 5306,0 10611,12 15915,-16 653,-3 823,165 814,816 -31,1984 0,1984 -1977,1984 -10176,0 -20351,-10 -30527,19 -768,0 -973,-184 -949,-949 58,-1852 16,-1854 1849,-1854l2 0zm37173 40887c0,726 -179,922 -905,903 -1895,-49 -1898,-12 -1898,-1894 0,-16673 7,-33349 -21,-50022 0,-842 195,-1070 1040,-1037 1765,70 1765,21 1765,1765 0,8237 0,16471 0,24707 0,8525 -9,17050 17,25578l2 0zm12803 -43679c-3182,12 -6364,0 -9548,12 -384,0 -470,-142 -495,-505 -161,-2286 -170,-2286 2096,-2286 1100,0 2198,0 3299,0 1505,0 3009,0 4512,0 698,0 1198,670 1222,1700 14,706 -396,1075 -1084,1077l0 2zm1084 4548c-24,763 -517,1033 -1226,1030 -1563,-5 -3124,0 -4687,0 -1505,0 -3009,-16 -4512,10 -493,9 -703,-77 -709,-649 -26,-2145 -49,-2145 2070,-2145 2603,0 5208,0 7811,0 714,0 1284,761 1254,1756l0 -2zm-8998 9384c1071,0 2140,0 3213,0 1532,0 3066,0 4601,0 651,0 1195,768 1184,1738 -10,706 -438,1042 -1122,1044 -2026,7 -4049,5 -6075,5 -1128,0 -2257,-14 -3384,7 -414,7 -526,-130 -549,-542 -121,-2252 -133,-2250 2132,-2250l0 -2zm0 5568c1071,0 2140,0 3213,0 1532,0 3066,0 4601,0 651,0 1195,771 1184,1738 -10,707 -440,1040 -1122,1042 -2026,7 -4049,5 -6075,5 -1128,0 -2257,-14 -3384,7 -414,9 -526,-135 -547,-545 -121,-2249 -133,-2249 2135,-2249l-5 2zm7992 -8369c-3212,21 -6422,7 -9634,21 -389,0 -466,-153 -490,-509 -159,-2281 -166,-2281 2100,-2281 1071,0 2140,0 3213,0 1563,0 3124,-3 4687,0 603,0 1112,746 1128,1705 12,655 -355,1061 -1003,1065zm-12 -16708c-3210,19 -6422,5 -9632,19 -400,0 -456,-175 -479,-521 -149,-2270 -156,-2270 2110,-2270 1071,0 2140,0 3210,0 1564,0 3124,-5 4688,0 593,2 1118,788 1123,1719 5,658 -372,1047 -1018,1052l-1 2zm-66941 -11115c84,-27 191,-31 327,-13 142,19 289,3 435,3 20677,0 41351,7 62028,-22 176,0 325,10 451,32l3685 0c71,-12 154,-17 251,-15 425,7 852,12 1278,15l891 0 0 4c724,0 1449,-6 2174,-19 479,-10 672,113 644,624 -39,720 -10,1447 -10,2170 0,723 -30,1449 10,2171 28,511 -168,630 -646,623l-1 -2c-723,-14 -1447,-20 -2171,-19 -724,0 -1448,7 -2172,19 -106,2 -195,-4 -270,-19l-3599 0c-109,19 -237,27 -388,26 -8497,-28 -16991,-19 -25489,-19l-5741 0c-10323,0 -20646,-9 -30970,21 -162,1 -300,-8 -416,-28l-3652 0c-69,14 -151,21 -249,19 -531,-10 -1062,-17 -1593,-19l-1245 0c-531,2 -1061,9 -1591,19l-5 0c-473,9 -586,-161 -579,-600 24,-1447 26,-2896 0,-4343 -10,-480 111,-673 624,-647 751,39 1505,10 2259,10 347,0 696,7 1043,10l412 0c209,-2 419,-8 629,-20 125,-7 227,-1 309,20l3337 0zm-2659 8315c2833,84 5669,46 8503,16 635,-7 905,96 886,828 -43,1970 -7,1970 -1986,1970 -1100,0 -2198,0 -3299,0 -1532,0 -3066,12 -4598,-5 -1071,-9 -1374,-530 -1150,-1584 205,-960 642,-1256 1643,-1228l0 3zm-1194 5682c77,-186 372,-82 565,-82 1532,-4 3068,-2 4601,0 1591,0 3184,19 4776,-9 492,-9 626,142 637,632 46,2164 65,2161 -2049,2161 -2548,0 -5094,-4 -7639,5 -574,0 -1160,-12 -1370,-653 -247,-752 211,-1398 482,-2052l-3 -2zm10 38987c37,-91 367,-79 562,-79 1563,-5 3126,-2 4687,-2 1563,0 3127,19 4687,-10 500,-9 622,154 633,637 46,2157 62,2157 -2054,2157 -2547,0 -5094,-5 -7639,4 -576,0 -1160,-16 -1365,-658 -243,-751 218,-1395 490,-2049l-2 0zm739 8270c-1128,-10 -1435,-519 -1186,-1621 207,-915 612,-1215 1577,-1189 2892,79 5787,46 8681,14 624,-7 763,184 761,780 -16,2022 9,2022 -2019,2022 -1071,0 -2142,0 -3213,0 -1532,0 -3068,9 -4601,-3l0 -2zm67454 19513c-10932,-24 -21863,-17 -32795,-17 -10874,0 -21746,-7 -32621,17 -732,0 -979,-130 -972,-932 44,-4959 35,-9918 7,-14876 -5,-679 98,-1033 877,-928 735,101 1695,-307 2168,170 432,438 118,1379 120,2099 12,3277 3,6553 7,9830 0,1368 461,1835 1820,1835 19195,0 38392,0 57587,0 1407,0 1854,-456 1856,-1887 2,-3740 17,-7480 -14,-11223 -5,-626 118,-845 797,-833 2001,33 2001,0 2001,1964 0,4641 -14,9278 16,13919 5,680 -170,861 -855,861l2 2zm2489 -19513c-1852,7 -3703,4 -5555,4 -1272,0 -2547,-21 -3820,10 -488,12 -630,-135 -639,-631 -48,-2166 -65,-2166 2047,-2166 1100,0 2197,0 3298,0 1533,0 3069,0 4601,0 654,0 1198,766 1187,1736 -7,707 -438,1042 -1119,1044l0 3zm-151 -16708c-1448,11 -2894,2 -4341,2 -1621,0 -3240,-14 -4862,9 -456,7 -651,-79 -666,-605 -57,-2189 -76,-2189 2113,-2189 1100,0 2198,0 3299,0 1474,0 2951,0 4426,0 773,0 1263,642 1302,1712 26,675 -421,1063 -1275,1071l3 0z"/>
 </g>
</svg>
