<?xml version="1.0" encoding="UTF-8"?>
<!DOCTYPE svg PUBLIC "-//W3C//DTD SVG 1.0//EN" "http://www.w3.org/TR/2001/REC-SVG-20010904/DTD/svg10.dtd">
<!-- Creator: CorelDRAW -->
<svg xmlns="http://www.w3.org/2000/svg" xml:space="preserve" width="8.75mm" height="8.75mm" version="1.0" style="shape-rendering:geometricPrecision; text-rendering:geometricPrecision; image-rendering:optimizeQuality; fill-rule:evenodd; clip-rule:evenodd"
viewBox="0 0 157283 157283"
 xmlns:xlink="http://www.w3.org/1999/xlink"
 xmlns:xodm="http://www.corel.com/coreldraw/odm/2003">
 <defs>
  <style type="text/css">
   <![CDATA[
    .fil0 {fill:#00A0E3;fill-rule:nonzero}
   ]]>
  </style>
 </defs>
 <g id="Layer_x0020_1">
  <metadata id="CorelCorpID_0Corel-Layer"/>
  <path class="fil0" d="M157267 4046c0,-3453 -590,-4041 -4048,-4041 -49718,0 -99435,0 -149155,0 -368,0 -741,-9 -1109,0 -1979,50 -2928,949 -2937,2919 -25,4808 -22,9615 0,14423 9,1984 945,2916 2907,2946 1738,29 3478,4 5373,4 -694,2013 -1177,4026 -88,5788 965,1569 732,2894 110,4411 -784,1907 -1217,3983 -75,5806 467,748 642,1434 629,2108l29181 0c-4,-5454 -11,-10906 -25,-16359 0,-1271 135,-1855 1661,-1796 3431,131 3437,32 3437,3478l0 14677 71011 0 -22 -16262c0,-1533 356,-1949 1895,-1889 3216,128 3216,38 3216,3216l0 14936 29167 0c-25,-764 171,-1542 768,-2367 787,-1093 690,-2628 271,-3996 -340,-1111 -699,-2213 -1043,-3318 -119,-390 -343,-759 -34,-1190 1576,-2213 1643,-4603 597,-7217 1819,0 3449,9 5076,0 2378,-13 3243,-868 3252,-3250 7,-4336 0,-8666 0,-13001l-13 -25zm-148389 34365c-20,688 -243,1363 -521,2080 -762,1970 -1287,4071 -119,5962 949,1533 692,2801 102,4262 -796,1963 -1255,4086 -72,5953 906,1433 715,2615 153,3967 -221,534 -377,1096 -527,1657 -796,2970 271,5995 2894,7562 588,352 1057,726 1224,1181l5752 0c223,-63 512,-70 890,-20l191 20 631 0c951,-52 1968,-291 2687,0l6850 0c191,-18 403,-23 642,-23l15302 23 2295 0 62843 0 1535 0c5373,-4 10747,-16 16120,-32 223,0 419,9 588,32l6922 0c167,-29 367,-40 604,-36 588,9 1082,16 1496,36l7221 0c149,-275 595,-500 1041,-701 3279,-1492 4699,-4823 3694,-8310 -279,-962 -631,-1904 -931,-2856 -124,-385 -361,-759 -43,-1190 1983,-2696 1373,-5493 259,-8276 -377,-942 -428,-1700 165,-2632 978,-1530 1156,-3264 618,-5026 -322,-1061 -649,-2119 -1014,-3162 -58,-167 -97,-322 -117,-473l-29030 0c0,8646 7,17292 32,25940l4 0c0,1323 -325,1679 -1648,1645 -3453,-90 -3458,-22 -3458,-3449l2 -24135 -71020 0 29 25721 4 0c0,1567 -415,1923 -1914,1868 -3196,-119 -3200,-34 -3200,-3232l0 -24356 -29176 0zm3135 32625c-14,7988 -7,74876 -4,82864 0,2603 793,3383 3412,3383 41900,0 83797,0 125697,0 2673,0 3460,-802 3466,-3514 0,-7945 5,-74789 -2,-82733l-5073 0c-5,6910 -14,72717 31,79627 9,1238 -309,1569 -1558,1569l4 4c-19915,-43 -39828,-31 -59744,-31 -19809,0 -39616,-13 -59426,31 -1334,0 -1783,-237 -1771,-1699 61,-6867 65,-72636 41,-79501l-5073 0zm116091 -20296c1949,0 3899,0 5851,0 2849,0 5691,-4 8540,0 1096,0 2024,1361 2058,3106 22,1195 -647,1932 -1826,1941 -5851,38 -11698,13 -17551,38 -708,0 -852,-275 -893,-928 -289,-4158 -306,-4158 3825,-4158l-4 0zm-68 -10143c2004,0 4005,0 6009,0 2741,0 5482,0 8220,0 1301,0 2340,1389 2281,3200 -43,1389 -945,1880 -2234,1877 -4109,-9 -8220,0 -12335,0 -1476,0 -2953,-47 -4429,16 -902,38 -1280,-144 -1292,-1186 -47,-3906 -88,-3902 3777,-3902l4 -4zm1352 100066c9,1080 -241,1424 -1380,1424 -32913,-31 -65822,-31 -98734,0 -1122,0 -1406,-306 -1393,-1407 34,-3581 61,-66062 50,-69643l-5098 0c7,4616 -2,68133 4,72749 0,2491 839,3343 3315,3343 34967,0 69940,0 104907,0 2563,0 3378,-830 3381,-3437 2,-4584 16,-68070 7,-72656l-5103 0c-9,3575 11,66052 41,69627l4 0zm-96376 -98668c-27,3672 16,3672 -3683,3672 -4692,0 -9381,-13 -14076,9 -1077,4 -2013,-147 -2454,-1280 -209,-537 555,-3521 990,-3706 318,-137 721,-90 1086,-90 2792,-4 5588,0 8382,0 2792,0 5588,59 8382,-25 1149,-34 1380,356 1377,1427l-4 -7zm15157 12106c93,-3356 25,-3361 3387,-3361 9085,0 18166,0 27250,0 9559,0 19118,31 28679,-34 1352,-7 1656,377 1623,1670 -84,3437 -22,3437 -3467,3437 -18590,0 -37178,-22 -55768,38 -1445,5 -1742,-397 -1704,-1754l0 5zm0 -9946c75,-3555 13,-3559 3505,-3559 18588,0 37178,13 55768,-31 1289,0 1704,268 1670,1623 -93,3480 -22,3480 -3428,3480 -9031,0 -18060,0 -27094,0 -9611,0 -19226,-22 -28836,25 -1204,4 -1620,-250 -1589,-1542l4 4zm3538 16733c18540,0 37074,18 55613,-34 1470,-4 1839,399 1792,1823 -102,3284 -29,3288 -3300,3288l-27252 0c-9610,0 -19224,-25 -28836,31 -1271,9 -1571,-356 -1551,-1576 65,-3525 13,-3525 3534,-3525l0 -5zm57409 -28654c-101,3284 -29,3284 -3300,3284 -9085,0 -18166,0 -27250,0 -9611,0 -19226,-25 -28836,29 -1276,9 -1569,-368 -1548,-1580 63,-3521 13,-3521 3534,-3521 18540,0 37074,16 55613,-38 1474,-4 1833,406 1787,1826zm-3541 -6861c-18540,0 -37074,-20 -55613,38 -1483,5 -1830,-419 -1783,-1826 97,-3279 29,-3279 3306,-3279 9085,0 18166,0 27250,0 9611,0 19224,25 28836,-34 1283,-9 1564,377 1542,1584 -63,3518 -13,3523 -3538,3523l0 -5zm37009 10136c-5797,22 -11594,0 -17395,22 -699,0 -856,-259 -902,-920 -293,-4165 -309,-4165 3818,-4165 2004,0 4005,0 6009,0 2741,0 5482,0 8220,0 1271,0 2182,1221 2225,3097 25,1285 -721,1957 -1975,1963l0 4zm122 -10161c-5847,34 -11698,9 -17547,34 -728,0 -830,-318 -872,-949 -271,-4136 -284,-4136 3843,-4136 1950,0 3899,0 5847,0 2849,0 5691,-9 8540,0 1080,4 2037,1436 2046,3131 9,1199 -678,1907 -1855,1916l-2 4zm-121947 -20249c153,-49 349,-56 595,-23 259,34 527,5 793,5 37667,0 75330,13 112997,-40 320,0 591,18 821,58l6714 0c129,-22 280,-31 457,-27 775,13 1551,22 2328,27l1623 0 0 7c1319,0 2641,-11 3960,-34 872,-18 1224,207 1174,1136 -72,1312 -18,2635 -18,3953 0,1318 -54,2641 18,3955 50,931 -306,1147 -1177,1134l-2 -4c-1318,-25 -2635,-36 -3955,-34 -1319,0 -2639,13 -3956,34 -192,4 -356,-7 -493,-34l-6556 0c-198,34 -431,49 -706,47 -15478,-50 -30953,-34 -46434,-34l-10458 0c-18806,0 -37611,-16 -56419,38 -295,2 -546,-14 -759,-50l-6653 0c-126,25 -275,38 -453,34 -967,-18 -1934,-31 -2901,-34l-2268 0c-967,4 -1932,16 -2898,34l-9 0c-861,16 -1068,-293 -1055,-1093 43,-2635 47,-5276 0,-7911 -18,-874 203,-1226 1136,-1179 1368,72 2741,18 4115,18 633,0 1267,13 1900,18l751 0c381,-4 764,-14 1145,-36 228,-13 413,-2 563,36l6079 0zm-4844 15148c5161,153 10327,84 15491,29 1158,-13 1648,174 1614,1508 -79,3590 -13,3590 -3618,3590 -2004,0 -4005,0 -6009,0 -2792,0 -5585,22 -8376,-9 -1950,-16 -2504,-965 -2094,-2885 374,-1749 1170,-2288 2993,-2238l0 5zm-2175 10352c140,-340 678,-149 1030,-149 2792,-7 5588,-4 8382,0 2898,0 5801,34 8700,-16 897,-16 1140,259 1161,1152 84,3942 119,3937 -3733,3937 -4641,0 -9281,-7 -13916,9 -1046,0 -2114,-22 -2495,-1190 -449,-1370 385,-2547 877,-3739l-5 -4zm18 20294c67,-165 669,-144 1025,-144 2847,-9 5695,-4 8538,-4 2847,0 5696,34 8538,-18 911,-16 1132,280 1154,1161 84,3929 113,3929 -3742,3929 -4639,0 -9281,-9 -13916,7 -1050,0 -2114,-29 -2486,-1199 -442,-1368 397,-2542 893,-3733l-4 0zm1346 15065c-2055,-18 -2614,-945 -2161,-2953 377,-1666 1114,-2213 2872,-2166 5269,144 10542,84 15815,25 1136,-13 1389,334 1386,1420 -29,3683 16,3683 -3678,3683 -1950,0 -3902,0 -5853,0 -2792,0 -5588,16 -8382,-5l0 -4zm127417 0c-3374,13 -6746,7 -10120,7 -2317,0 -4639,-38 -6958,18 -890,22 -1147,-246 -1165,-1149 -88,-3946 -119,-3946 3730,-3946 2004,0 4003,0 6007,0 2793,0 5590,0 8382,0 1192,0 2182,1395 2162,3162 -13,1289 -798,1898 -2038,1902l0 5z"/>
 </g>
</svg>
