<?xml version="1.0" encoding="UTF-8"?>
<!DOCTYPE svg PUBLIC "-//W3C//DTD SVG 1.0//EN" "http://www.w3.org/TR/2001/REC-SVG-20010904/DTD/svg10.dtd">
<!-- Creator: CorelDRAW -->
<svg xmlns="http://www.w3.org/2000/svg" xml:space="preserve" width="9.5058mm" height="9.5058mm" version="1.0" style="shape-rendering:geometricPrecision; text-rendering:geometricPrecision; image-rendering:optimizeQuality; fill-rule:evenodd; clip-rule:evenodd"
viewBox="0 0 957815 957815"
 xmlns:xlink="http://www.w3.org/1999/xlink"
 xmlns:xodm="http://www.corel.com/coreldraw/odm/2003">
 <defs>
  <style type="text/css">
   <![CDATA[
    .fil0 {fill:#00A0E3;fill-rule:nonzero}
   ]]>
  </style>
 </defs>
 <g id="Layer_x0020_1">
  <metadata id="CorelCorpID_0Corel-Layer"/>
  <path class="fil0" d="M478927 753683c18399,0 36355,-1814 53686,-5240 17804,-3517 35014,-8776 51398,-15558 16716,-6912 32626,-15467 47479,-25402 14993,-10016 28979,-21533 41735,-34289 49705,-49705 80488,-118435 80488,-194298 0,-18399 -1814,-36355 -5229,-53675 -3527,-17815 -8786,-35025 -15568,-51408 -6912,-16716 -15467,-32626 -25402,-47479 -10016,-14993 -21533,-28979 -34289,-41735 -49705,-49705 -118424,-80488 -194298,-80488 -18389,0 -36355,1814 -53675,5229 -17815,3527 -35025,8786 -51408,15568 -16716,6912 -32626,15467 -47479,25402 -14983,10016 -28969,21533 -41735,34289 -49705,49705 -80488,118424 -80488,194298 0,18389 1814,36355 5240,53675 3517,17815 8776,35025 15558,51408 6912,16716 15467,32626 25402,47479 10026,14983 21533,28969 34289,41735 12716,12736 26722,24243 41725,34289 14832,9915 30752,18470 47489,25402 16374,6781 33584,12041 51408,15558 17311,3426 35287,5240 53675,5240zm223186 -51590c-14600,14590 -30662,27800 -47932,39347 -17099,11426 -35377,21251 -54552,29201 -18852,7789 -38632,13824 -59106,17885 -19941,3940 -40566,6026 -61595,6026 -21049,0 -41675,-2086 -61625,-6026 -20465,-4061 -40234,-10096 -59076,-17905 -19185,-7930 -37483,-17754 -54572,-29180 -17281,-11547 -33352,-24757 -47932,-39337 -14590,-14620 -27800,-30702 -39337,-47962 -11426,-17089 -21251,-35367 -29190,-54542 -7799,-18852 -13834,-38632 -17895,-59106 -3940,-19951 -6026,-40566 -6026,-61595 0,-21029 2086,-41655 6026,-61595 4061,-20475 10096,-40254 17895,-59096 7940,-19185 17764,-37463 29190,-54562 11547,-17281 24757,-33352 39337,-47932 14590,-14590 30682,-27800 47952,-39347 17099,-11436 35377,-21261 54552,-29211 18852,-7789 38632,-13824 59106,-17885 19951,-3940 40566,-6026 61595,-6026 21029,0 41655,2086 61595,6026 20475,4061 40254,10096 59096,17885 19185,7950 37463,17774 54562,29201 17281,11547 33352,24757 47932,39337 14590,14590 27800,30672 39347,47952 11436,17099 21261,35377 29211,54552 7789,18852 13824,38632 17885,59106 3940,19941 6026,40566 6026,61595 0,21029 -2086,41645 -6026,61595 -4061,20475 -10096,40254 -17885,59096 -7950,19185 -17774,37463 -29201,54562 -11547,17260 -24757,33332 -39357,47942zm-306767 -574419c9068,-5683 18449,-13482 27397,-22752 8736,-9048 17039,-19507 24233,-30783 6620,-10419 12343,-21593 16575,-33040 3879,-10530 6529,-21341 7456,-32032l776 -9068 11739 7406c33271,21039 91128,57645 96761,131433l615 8373 -7930 -2721c-10177,-3466 -22853,-6328 -36959,-8494 -14389,-2217 -30359,-3708 -46723,-4333 -15880,-615 -32183,-433 -47892,625 -14812,998 -29090,2821 -41967,5481l-1521 302 -3879 -9572 1320 -826zm78422 -36425l-5612 8242 5431 -20 16817 383 15034 796 15034 1310 18147 2247c-2378,-4978 -5109,-9683 -8091,-14117 -3587,-5320 -7587,-10318 -11799,-14933 -4272,-4695 -8817,-9068 -13442,-13099 -3930,-3436 -7960,-6670 -11970,-9673l-2700 6842 -4141 9210c-1834,3859 -3859,7728 -5985,11537 -2076,3748 -4353,7527 -6721,11275zm194439 80196c10409,2378 22550,3517 35407,3295 12525,-222 25825,-1753 38924,-4655 12061,-2670 23981,-6529 35055,-11628 10227,-4706 19769,-10509 27981,-17381l6942 -5824 3043 13502c4302,19074 10217,45272 9068,73767 -1159,28596 -9451,59449 -33574,87541l-5481 6388 -3688 -7527c-4736,-9633 -11658,-20626 -20112,-32113 -8635,-11779 -18873,-24122 -29976,-36123 -10802,-11678 -22450,-23074 -34279,-33392 -11124,-9693 -22510,-18530 -33594,-25805l-1310 -856 4061 -9532 1532 343zm81163 29704l-9804 1874 3920 3879 11628 12172 10126 11295 9663 11467 11164 14348c1834,-5189 3234,-10459 4262,-15719 1239,-6328 1945,-12686 2227,-18903 302,-6348 171,-12666 -242,-18782 -343,-5280 -927,-10409 -1622,-15306l-6822 2952 -9351 3557c-4081,1441 -8232,2761 -12333,3920 -4161,1189 -8444,2277 -12817,3245zm80780 194167c5683,9068 13482,18449 22752,27397 9048,8726 19507,17039 30783,24223 10419,6630 21593,12353 33040,16575 10530,3889 21341,6539 32032,7466l9058 796 -7396 11719c-21039,33271 -57645,91128 -131433,96761l-8383 635 2731 -7950c3466,-10177 6328,-22853 8494,-36959 2217,-14389 3708,-30359 4343,-46723 605,-15880 433,-32183 -635,-47892 -998,-14812 -2811,-29100 -5481,-41967l-312 -1532 9572 -3879 836 1330zm36425 78422l-8242 -5612 20 5431 -383 16817 -796 15034 -1300 15034 -2257 18147c4978,-2378 9683,-5109 14117,-8091 5320,-3587 10318,-7597 14933,-11799 4746,-4313 9119,-8867 13129,-13452 3466,-3980 6680,-8011 9643,-11960l-6842 -2700 -9199 -4131c-3859,-1854 -7749,-3869 -11557,-6005 -3758,-2086 -7527,-4343 -11265,-6711zm-80196 194429c-2378,10419 -3517,22560 -3295,35418 222,12525 1763,25825 4655,38924 2670,12071 6539,24001 11628,35065 4716,10217 10499,19759 17381,27971l5814 6953 -13492 3033c-19054,4302 -45272,10217 -73767,9068 -28596,-1159 -59449,-9451 -87541,-33574l-6398 -5471 7537 -3698c9633,-4736 20626,-11668 32113,-20112 11779,-8635 24122,-18883 36123,-29976 11678,-10802 23074,-22450 33392,-34279 9693,-11124 18530,-22510 25805,-33594l846 -1320 9532 4071 -333 1521zm-29704 81183l-1874 -9814 -3879 3920 -12172 11628 -11295 10126 -11467 9663 -14348 11164c5199,1834 10469,3234 15719,4262 6328,1239 12686,1945 18903,2227 6348,302 12666,171 18782,-242 5280,-353 10409,-927 15306,-1622l-2952 -6822 -3557 -9361c-1441,-4081 -2761,-8222 -3920,-12323 -1189,-4161 -2277,-8444 -3245,-12807zm-194167 80770c-9068,5683 -18449,13482 -27397,22752 -8726,9048 -17039,19507 -24223,30783 -6630,10419 -12353,21593 -16575,33040 -3879,10530 -6539,21341 -7466,32032l-806 9089 -11708 -7426c-33271,-21039 -91128,-57645 -96761,-131433l-645 -8373 7960 2721c10177,3466 22853,6328 36959,8494 14389,2217 30359,3698 46723,4333 15880,615 32193,433 47902,-635 14802,-987 29090,-2811 41967,-5471l1511 -312 3879 9572 -1320 836zm-78422 36425l5612 -8242 -5431 20 -16817 -383 -15034 -806 -15034 -1300 -18147 -2247c2378,4978 5119,9683 8091,14117 3587,5320 7597,10308 11799,14933 4313,4746 8867,9119 13462,13129 3920,3426 7960,6660 11950,9653l2700 -6842 4131 -9210c1854,-3859 3869,-7749 6005,-11567 2086,-3748 4343,-7527 6711,-11255zm-194429 -80206c-10419,-2378 -22560,-3506 -35418,-3285 -12525,222 -25825,1753 -38924,4655 -12071,2670 -24001,6539 -35065,11628 -10217,4716 -19749,10499 -27971,17381l-6963 5824 -3023 -13502c-4292,-19064 -10217,-45272 -9058,-73767 1149,-28596 9441,-59439 33564,-87551l5461 -6368 3708 7517c4736,9623 11668,20626 20112,32113 8635,11779 18883,24122 29976,36123 10802,11678 22450,23074 34279,33392 11124,9693 22510,18530 33604,25805l1300 846 -4071 9532 -1511 -343zm-81163 -29704l9794 -1864 -3920 -3879 -11628 -12172 -10126 -11295 -9663 -11477 -11164 -14338c-1834,5189 -3224,10449 -4252,15709 -1239,6338 -1955,12696 -2237,18913 -292,6358 -161,12676 242,18782 353,5260 937,10399 1632,15306l6811 -2952 9361 -3557c4081,-1441 8222,-2761 12323,-3920 4161,-1189 8444,-2277 12827,-3255zm-80790 -194157c-5683,-9068 -13472,-18449 -22752,-27397 -9048,-8736 -19507,-17039 -30783,-24233 -10419,-6620 -21593,-12343 -33040,-16575 -10530,-3879 -21341,-6529 -32032,-7456l-9099 -786 7436 -11729c21039,-33271 57645,-91128 131433,-96761l8363 -625 -2710 7940c-3466,10177 -6328,22853 -8494,36959 -2207,14389 -3698,30359 -4333,46723 -615,15880 -433,32183 635,47892 987,14812 2811,29100 5471,41967l302 1511 -9572 3879 -826 -1310zm-36425 -78412l8242 5602 -20 -5431 383 -16817 806 -15034 1300 -15034 2247 -18147c-4978,2388 -9693,5119 -14107,8091 -5330,3587 -10318,7587 -14943,11799 -4695,4272 -9068,8817 -13099,13442 -3446,3940 -6670,7980 -9673,11970l6842 2700 9210 4141c3859,1834 7728,3859 11547,5985 3738,2076 7527,4353 11265,6731zm80206 -194449c2378,-10409 3506,-22550 3285,-35407 -222,-12525 -1753,-25825 -4655,-38924 -2670,-12061 -6529,-23981 -11628,-35055 -4706,-10227 -10509,-19769 -17381,-27981l-5844 -6953 13522 -3033c19074,-4292 45272,-10217 73767,-9058 28596,1149 59439,9441 87551,33564l6358 5471 -7507 3698c-9623,4736 -20616,11658 -32113,20112 -11779,8635 -24122,18873 -36123,29976 -11678,10802 -23074,22450 -33392,34279 -9693,11124 -18530,22510 -25805,33594l-856 1300 -9532 -4061 353 -1521zm29704 -81163l1864 9804 3879 -3920 12172 -11628 11295 -10126 11477 -9663 14338 -11164c-5189,-1834 -10449,-3224 -15709,-4252 -6328,-1239 -12686,-1955 -18913,-2237 -6348,-292 -12666,-161 -18782,242 -5260,343 -10399,937 -15306,1622l2952 6822 3557 9361c1441,4071 2761,8222 3920,12323 1189,4161 2277,8444 3255,12817z"/>
 </g>
</svg>
