<?xml version="1.0" encoding="UTF-8"?>
<!DOCTYPE svg PUBLIC "-//W3C//DTD SVG 1.0//EN" "http://www.w3.org/TR/2001/REC-SVG-20010904/DTD/svg10.dtd">
<!-- Creator: CorelDRAW -->
<svg xmlns="http://www.w3.org/2000/svg" xml:space="preserve" width="9.4792mm" height="9.4792mm" version="1.0" style="shape-rendering:geometricPrecision; text-rendering:geometricPrecision; image-rendering:optimizeQuality; fill-rule:evenodd; clip-rule:evenodd"
viewBox="0 0 293716 293716"
 xmlns:xlink="http://www.w3.org/1999/xlink"
 xmlns:xodm="http://www.corel.com/coreldraw/odm/2003">
 <defs>
  <style type="text/css">
   <![CDATA[
    .fil0 {fill:#00A0E3;fill-rule:nonzero}
   ]]>
  </style>
 </defs>
 <g id="Layer_x0020_1">
  <metadata id="CorelCorpID_0Corel-Layer"/>
  <path class="fil0" d="M190045 190045c-2820,2817 -5934,5376 -9280,7613 -3303,2209 -6838,4112 -10550,5646 -3641,1509 -7471,2677 -11430,3464 -3861,765 -7852,1168 -11926,1168 -4075,0 -8069,-403 -11929,-1168 -3963,-787 -7793,-1955 -11430,-3464 -3709,-1537 -7241,-3436 -10547,-5646 -3343,-2237 -6457,-4797 -9274,-7613 -2820,-2820 -5382,-5937 -7619,-9280 -2209,-3306 -4109,-6838 -5646,-10547 -1509,-3638 -2677,-7467 -3464,-11430 -765,-3861 -1168,-7855 -1168,-11929 0,-4075 403,-8069 1168,-11929 787,-3963 1955,-7793 3464,-11430 1537,-3709 3436,-7241 5646,-10547 2237,-3343 4797,-6457 7613,-9274 2820,-2820 5937,-5382 9280,-7619 3306,-2209 6838,-4109 10547,-5646 3638,-1509 7467,-2677 11430,-3464 3861,-765 7855,-1168 11929,-1168 4075,0 8069,403 11929,1168 3963,787 7793,1955 11430,3464 3709,1537 7241,3436 10547,5646 3343,2237 6457,4797 9274,7613 2820,2820 5382,5937 7619,9280 2209,3306 4109,6838 5646,10547 1509,3638 2677,7467 3464,11430 765,3861 1168,7855 1168,11929 0,4075 -403,8069 -1168,11929 -787,3963 -1955,7793 -3464,11430 -1534,3706 -3436,7241 -5646,10550 -2237,3343 -4797,6457 -7613,9277zm-43187 7300c3380,0 6690,-332 9869,-964 3263,-641 6429,-1611 9438,-2857 3077,-1270 5999,-2841 8725,-4660 2748,-1841 5323,-3963 7666,-6309 2346,-2342 4468,-4917 6309,-7666 1819,-2727 3390,-5649 4660,-8722 1246,-3012 2215,-6178 2857,-9441 632,-3179 964,-6488 964,-9869 0,-3380 -332,-6690 -964,-9869 -641,-3263 -1611,-6429 -2857,-9435 -1267,-3074 -2838,-5999 -4660,-8722 -1841,-2755 -3963,-5329 -6309,-7672 -2336,-2346 -4911,-4462 -7666,-6306 -2730,-1822 -5652,-3396 -8719,-4663 -3012,-1246 -6178,-2215 -9444,-2857 -3179,-632 -6488,-964 -9869,-964 -3380,0 -6690,332 -9869,964 -3263,641 -6429,1611 -9435,2857 -3074,1267 -5999,2838 -8722,4660 -2755,1841 -5329,3963 -7672,6309 -2346,2336 -4462,4911 -6306,7666 -1822,2730 -3396,5652 -4663,8719 -1246,3012 -2215,6178 -2857,9444 -632,3179 -964,6488 -964,9869 0,3380 332,6690 964,9869 641,3263 1611,6429 2857,9435 1267,3074 2838,5999 4660,8722 1841,2755 3963,5329 6309,7672 2342,2346 4917,4468 7666,6309 2727,1819 5649,3390 8722,4660 3012,1246 6178,2215 9441,2857 3179,632 6488,964 9869,964zm0 -197345c784,0 1568,81 2342,239 784,152 1546,384 2268,682 722,297 1425,679 2085,1122 663,443 1289,954 1834,1503 545,545 1060,1168 1503,1831 440,660 821,1366 1122,2085 294,725 530,1484 685,2268 152,778 232,1562 232,2342l0 59358c0,784 -81,1571 -235,2349 -152,784 -387,1546 -682,2262 -307,737 -688,1444 -1119,2092 -446,660 -957,1280 -1506,1828 -545,545 -1171,1060 -1834,1503 -660,443 -1363,821 -2082,1122 -716,294 -1481,533 -2262,685 -778,155 -1568,235 -2352,235 -778,0 -1574,-81 -2352,-239 -781,-149 -1546,-387 -2262,-682 -719,-301 -1422,-679 -2082,-1122 -663,-443 -1289,-957 -1834,-1503 -548,-548 -1060,-1168 -1503,-1825 -434,-651 -815,-1357 -1122,-2095 -294,-716 -530,-1478 -685,-2262 -152,-778 -232,-1565 -232,-2349l0 -59358c0,-781 81,-1565 235,-2342 152,-784 387,-1543 682,-2265 301,-722 682,-1428 1122,-2088 443,-663 957,-1286 1503,-1831 545,-548 1171,-1060 1834,-1503 660,-443 1363,-824 2082,-1122 725,-297 1487,-530 2271,-685 775,-155 1559,-235 2342,-235zm0 9767l-452 40 -421 121 -403 223 -356 294 -291 353 -217 400 -130 421 -43 452 0 59358 43 449 127 428 217 397 294 359 363 294 397 217 418 130 455 40 449 -40 424 -127 397 -220 363 -294 297 -356 211 -400 130 -421 43 -455 0 -59358 -43 -446 -127 -428 -220 -400 -291 -353 -353 -291 -406 -226 -415 -121 -459 -40zm-46909 25334l1097 -468c669,-229 1342,-406 1999,-511 675,-115 1366,-177 2030,-177 793,6 1586,90 2346,242 787,158 1552,390 2262,685 728,297 1438,679 2101,1122 657,437 1277,945 1831,1497 539,542 1050,1159 1497,1828 437,651 818,1354 1119,2082l12908 31171c307,737 533,1497 685,2259 152,781 229,1568 226,2333 3,778 -77,1568 -229,2336 -155,784 -390,1552 -691,2277 -297,716 -679,1425 -1119,2088 -434,660 -945,1286 -1497,1837 -471,468 -1004,920 -1577,1326 -552,387 -1150,744 -1782,1044l-1103 471c-666,226 -1342,403 -2005,514 -675,112 -1363,170 -2042,167 -784,3 -1574,-74 -2349,-226 -787,-164 -1555,-394 -2268,-691 -728,-301 -1435,-682 -2095,-1122 -654,-434 -1273,-942 -1825,-1493 -539,-539 -1050,-1159 -1500,-1828 -434,-654 -815,-1354 -1115,-2082l-12915 -31165c-301,-734 -536,-1500 -685,-2262 -155,-793 -232,-1580 -232,-2336 6,-796 90,-1590 239,-2355 164,-787 394,-1559 688,-2262 297,-719 675,-1425 1125,-2095 437,-657 942,-1273 1493,-1828 474,-474 1007,-926 1586,-1332 555,-390 1159,-744 1797,-1047zm4239 8760l-387 205 -353 294 -279 341 -220 412 -146 452 -40 452 40 455 133 440 12908 31162 217 397 282 344 347 282 400 214 462 139 452 46 455 -40 428 -130 409 -223 332 -273 294 -363 211 -397 139 -452 43 -455 -43 -459 -133 -424 -12908 -31174 -217 -403 -273 -332 -356 -285 -406 -217 -440 -139 -459 -40 -459 40 -434 130zm-69323 56616c301,-728 682,-1432 1119,-2085 440,-660 948,-1277 1497,-1822 561,-561 1181,-1069 1828,-1503 669,-443 1376,-821 2095,-1119 719,-294 1484,-527 2271,-685 775,-155 1565,-239 2346,-239 772,0 1559,77 2336,229 762,149 1528,384 2262,685l31159 12915c734,301 1432,682 2082,1112 666,440 1280,951 1831,1503 558,555 1066,1177 1497,1825 440,660 821,1366 1122,2095 294,706 524,1475 685,2259 155,778 239,1577 239,2361 0,765 -77,1552 -232,2336 -146,762 -381,1521 -685,2256 -301,734 -682,1432 -1109,2082 -446,663 -957,1277 -1506,1822 -558,561 -1171,1066 -1822,1500 -660,443 -1363,824 -2098,1125 -722,301 -1490,536 -2271,691 -787,155 -1571,235 -2342,235 -756,0 -1543,-77 -2336,-235 -759,-149 -1521,-378 -2256,-682l-31168 -12908c-731,-301 -1435,-682 -2085,-1119 -663,-437 -1277,-945 -1825,-1493 -561,-561 -1069,-1181 -1503,-1831 -443,-669 -824,-1376 -1122,-2098 -294,-722 -527,-1481 -682,-2268 -158,-775 -242,-1565 -242,-2346 0,-775 77,-1562 229,-2336 152,-762 384,-1528 688,-2262zm10244 2473l-400 214 -350 282 -288 347 -214 397 -127 424 -43 465 46 462 136 443 211 397 291 363 338 276 390 211 31171 12912 437 130 455 43 474 -46 437 -130 400 -214 350 -291 282 -344 217 -397 133 -431 40 -455 -46 -452 -143 -471 -211 -394 -282 -344 -353 -291 -387 -208 -31162 -12908 -437 -133 -459 -40 -446 43 -462 143zm-10008 90821l-471 -1097c-223,-660 -400,-1332 -508,-2002 -118,-682 -177,-1366 -177,-2030 6,-793 90,-1586 242,-2346 158,-787 390,-1552 685,-2262 297,-728 679,-1438 1122,-2101 437,-657 945,-1277 1497,-1831 542,-539 1159,-1050 1828,-1497 651,-437 1354,-818 2082,-1119l31171 -12908c737,-307 1497,-533 2259,-685 787,-152 1571,-229 2336,-226 778,-3 1571,77 2339,229 781,155 1549,390 2274,691 722,297 1432,679 2095,1122 654,431 1273,939 1828,1493 468,471 920,1004 1326,1580 390,561 744,1156 1038,1766l471 1103c232,666 409,1348 524,2005 115,691 174,1382 174,2051 -6,796 -90,1593 -239,2352 -161,784 -394,1549 -688,2262 -297,725 -679,1432 -1119,2095 -437,654 -939,1273 -1497,1831 -539,539 -1159,1050 -1828,1500 -654,434 -1354,815 -2082,1115l-31168 12915c-734,301 -1503,533 -2262,682 -784,152 -1571,229 -2336,226 -775,3 -1568,-74 -2342,-226 -784,-161 -1552,-397 -2268,-691 -722,-297 -1428,-675 -2098,-1125 -657,-437 -1273,-942 -1828,-1493 -471,-471 -923,-1007 -1329,-1580 -390,-558 -747,-1162 -1050,-1800zm8760 -4242l205 387 294 353 341 279 415 226 449 136 452 43 455 -40 440 -133 31162 -12908 397 -217 344 -282 282 -347 214 -400 139 -462 43 -449 -37 -455 -130 -431 -223 -409 -273 -332 -363 -294 -397 -211 -452 -139 -455 -43 -459 43 -424 133 -31168 12908 -409 217 -332 273 -285 356 -217 406 -133 437 -46 462 40 459 130 434zm56622 69323c-737,-301 -1435,-685 -2085,-1115 -663,-437 -1280,-948 -1828,-1500 -558,-558 -1063,-1174 -1497,-1825 -446,-666 -827,-1376 -1125,-2098 -294,-719 -527,-1484 -685,-2271 -155,-775 -239,-1565 -239,-2346 0,-772 77,-1559 229,-2336 149,-762 384,-1528 685,-2262l12915 -31159c301,-737 685,-1435 1112,-2085 440,-663 951,-1277 1503,-1828 558,-561 1177,-1069 1825,-1500 663,-440 1363,-818 2095,-1119 706,-294 1475,-524 2259,-685 778,-155 1577,-239 2361,-239 765,0 1555,77 2336,232 765,146 1524,381 2262,685 728,301 1428,679 2079,1112 663,440 1280,951 1828,1497 555,564 1066,1187 1497,1841 443,666 824,1373 1119,2085 301,722 536,1490 691,2271 155,781 235,1568 235,2342 0,756 -77,1543 -235,2336 -149,759 -378,1521 -682,2256l-12908 31168c-301,731 -682,1435 -1119,2085 -437,663 -945,1277 -1493,1825 -561,561 -1181,1069 -1831,1503 -669,443 -1376,824 -2098,1122 -722,294 -1484,530 -2274,685 -772,158 -1562,239 -2336,239 -762,0 -1546,-77 -2339,-239 -756,-146 -1521,-375 -2256,-679zm2466 -10244l214 400 282 350 347 288 394 211 428 127 465 43 452 -40 443 -136 406 -217 356 -285 291 -350 201 -375 12912 -31177 130 -437 43 -455 -46 -474 -133 -443 -211 -390 -291 -353 -335 -279 -409 -223 -428 -130 -455 -40 -452 46 -471 143 -394 211 -344 282 -291 353 -208 387 -12908 31162 -133 437 -40 459 43 446 143 462zm90812 10011l-1103 477c-657,217 -1329,394 -1999,499 -669,112 -1351,170 -2020,167 -772,3 -1562,-77 -2336,-226 -784,-161 -1549,-397 -2268,-691 -728,-297 -1438,-679 -2101,-1122 -657,-437 -1277,-945 -1831,-1497 -539,-542 -1050,-1159 -1497,-1828 -437,-651 -818,-1354 -1119,-2082l-12908 -31171c-307,-737 -533,-1497 -685,-2259 -152,-787 -229,-1571 -226,-2336 -3,-778 77,-1571 229,-2339 155,-781 390,-1549 691,-2274 301,-731 682,-1435 1119,-2092 440,-654 948,-1283 1497,-1831 465,-465 992,-914 1565,-1317 555,-394 1153,-750 1779,-1047l1106 -468c663,-229 1342,-409 2005,-524 685,-115 1379,-177 2051,-177 796,6 1596,90 2364,239 787,164 1549,394 2256,688 728,301 1435,682 2095,1122 654,434 1273,942 1825,1493 539,539 1050,1159 1500,1828 434,654 815,1354 1115,2082l12915 31165c301,734 536,1500 685,2262 155,793 232,1580 232,2336 -6,793 -90,1586 -239,2346 -161,787 -394,1555 -688,2265 -297,722 -675,1428 -1125,2098 -431,654 -936,1270 -1493,1831 -474,474 -1010,930 -1593,1335 -558,394 -1159,744 -1797,1047zm-4233 -8763l387 -205 353 -294 279 -341 226 -415 136 -449 43 -452 -40 -455 -133 -440 -12908 -31165 -211 -390 -288 -347 -347 -282 -400 -214 -462 -139 -449 -43 -455 37 -434 130 -397 220 -341 276 -291 353 -214 403 -139 455 -43 455 43 459 133 424 12908 31168 217 409 273 332 356 285 406 217 437 133 462 46 459 -40 434 -130zm69323 -56616c-301,728 -682,1428 -1119,2082 -440,660 -948,1280 -1493,1825 -555,552 -1174,1060 -1831,1497 -669,449 -1376,827 -2095,1125 -719,294 -1484,527 -2271,685 -775,155 -1565,239 -2346,239 -772,0 -1559,-77 -2336,-229 -762,-149 -1528,-384 -2262,-685l-31159 -12915c-734,-301 -1432,-682 -2082,-1112 -663,-440 -1280,-951 -1831,-1503 -558,-555 -1066,-1177 -1497,-1825 -440,-660 -821,-1366 -1122,-2095 -294,-706 -524,-1475 -685,-2259 -155,-778 -239,-1577 -239,-2361 0,-765 77,-1555 232,-2336 146,-765 381,-1524 685,-2262 301,-728 679,-1428 1112,-2079 440,-663 951,-1280 1497,-1828 564,-555 1187,-1066 1841,-1497 666,-443 1373,-824 2085,-1119 722,-301 1490,-536 2271,-691 781,-155 1568,-235 2342,-235 756,0 1543,77 2336,235 759,149 1521,378 2256,682l31168 12908c731,301 1435,682 2085,1119 663,437 1277,945 1825,1493 561,561 1069,1181 1503,1831 443,669 824,1376 1122,2098 294,713 527,1481 682,2265 158,775 242,1568 242,2349 0,775 -77,1562 -229,2336 -152,762 -384,1528 -688,2262zm-10244 -2473l400 -214 350 -282 288 -347 214 -397 127 -424 43 -465 -46 -452 -136 -452 -211 -400 -291 -359 -338 -276 -390 -211 -31171 -12912 -437 -130 -455 -43 -474 46 -437 130 -400 214 -350 291 -282 344 -217 397 -133 431 -40 455 46 449 139 462 214 400 282 350 338 279 400 220 31165 12908 437 133 459 40 446 -43 462 -143zm10008 -90815l474 1094c220,660 397,1335 511,2002 108,682 170,1363 170,2026 -6,793 -90,1586 -242,2346 -158,787 -390,1552 -685,2262 -297,728 -679,1438 -1122,2101 -437,657 -945,1277 -1497,1831 -542,539 -1159,1050 -1828,1497 -651,437 -1354,818 -2082,1119l-31171 12908c-737,307 -1497,533 -2259,685 -787,152 -1571,229 -2336,226 -778,3 -1571,-77 -2339,-229 -781,-155 -1549,-390 -2274,-691 -731,-301 -1435,-682 -2092,-1119 -654,-440 -1283,-948 -1831,-1497 -477,-480 -930,-1016 -1332,-1586 -387,-552 -744,-1156 -1044,-1788l-455 -1072c-232,-669 -409,-1345 -524,-2008 -115,-685 -177,-1379 -177,-2051 6,-796 90,-1596 239,-2364 164,-787 394,-1549 688,-2256 301,-728 682,-1435 1122,-2095 434,-654 942,-1273 1493,-1825 539,-539 1159,-1050 1828,-1500 654,-434 1354,-815 2082,-1115l31165 -12915c734,-301 1500,-536 2262,-685 793,-155 1580,-232 2336,-232 796,6 1590,90 2355,239 787,164 1559,394 2262,688 719,297 1428,679 2095,1125 657,437 1273,942 1828,1493 468,468 920,1004 1329,1580 390,552 744,1156 1050,1806zm-8756 4239l-214 -400 -282 -344 -350 -285 -403 -214 -459 -143 -449 -40 -459 37 -440 130 -31159 12912 -390 211 -353 288 -282 344 -214 400 -136 462 -46 452 37 455 130 431 223 409 273 332 363 294 397 211 443 136 462 40 459 -40 437 -127 31165 -12915 397 -211 338 -276 288 -359 214 -394 139 -449 40 -459 -40 -459 -127 -431zm-56619 -69326c728,301 1432,682 2085,1119 660,440 1277,948 1822,1497 561,561 1069,1181 1503,1828 443,669 821,1376 1119,2095 294,703 524,1475 685,2265 155,772 239,1571 239,2352 0,772 -77,1559 -229,2336 -149,762 -384,1528 -685,2262l-12915 31159c-301,734 -682,1432 -1112,2082 -440,666 -951,1280 -1503,1831 -555,558 -1177,1066 -1825,1497 -660,440 -1366,821 -2095,1122 -706,294 -1475,524 -2259,685 -778,155 -1577,239 -2361,239 -765,0 -1555,-77 -2336,-232 -765,-146 -1524,-381 -2262,-685 -728,-301 -1428,-679 -2079,-1112 -663,-440 -1280,-951 -1828,-1497 -555,-564 -1066,-1187 -1497,-1841 -443,-666 -824,-1373 -1119,-2088 -304,-731 -536,-1500 -691,-2274 -155,-781 -235,-1565 -235,-2339 0,-753 77,-1543 235,-2333 149,-759 378,-1521 682,-2256l12908 -31168c301,-731 682,-1435 1119,-2085 437,-663 945,-1277 1493,-1825 561,-561 1181,-1069 1831,-1503 669,-443 1376,-824 2098,-1122 722,-294 1481,-527 2268,-682 775,-158 1565,-242 2346,-242 775,0 1562,77 2336,229 762,152 1528,384 2262,688zm-2476 10228l-211 -390 -282 -344 -353 -291 -387 -208 -428 -130 -465 -43 -452 46 -452 136 -400 214 -359 288 -276 338 -211 390 -12912 31171 -130 437 -43 455 46 471 130 434 214 400 294 363 332 273 409 223 428 130 455 40 459 -46 459 -139 400 -214 344 -282 288 -353 211 -390 12908 -31159 133 -437 40 -459 -43 -452 -146 -471zm59938 -2079c561,558 1066,1181 1503,1837 434,657 812,1354 1103,2076 304,731 536,1500 688,2265 152,784 232,1580 232,2358 0,778 -81,1577 -232,2361 -152,765 -384,1534 -688,2265 -291,716 -669,1416 -1106,2079 -434,651 -939,1270 -1500,1831l-41973 41976c-558,558 -1177,1060 -1831,1497 -663,440 -1366,815 -2082,1112 -731,301 -1500,533 -2268,685 -781,152 -1580,232 -2358,232 -778,0 -1574,-81 -2358,-232 -765,-152 -1534,-384 -2265,-685 -716,-297 -1416,-672 -2076,-1109 -657,-440 -1280,-942 -1834,-1500 -567,-570 -1072,-1196 -1503,-1841 -440,-663 -812,-1363 -1109,-2076 -301,-731 -533,-1500 -685,-2265 -152,-781 -232,-1577 -232,-2355 0,-778 81,-1577 232,-2358 152,-768 384,-1537 685,-2268 297,-716 672,-1416 1109,-2076 440,-657 945,-1280 1503,-1837l41973 -41973c561,-561 1177,-1066 1831,-1500 663,-437 1363,-815 2079,-1106 731,-304 1500,-536 2265,-688 784,-152 1583,-232 2361,-232 778,0 1574,81 2358,232 765,152 1534,384 2265,688 722,291 1419,669 2076,1103 657,437 1280,942 1837,1503zm-6234 8536l-43 -465 -127 -428 -211 -403 -279 -338 -359 -291 -372 -201 -449 -133 -462 -43 -459 43 -434 130 -381 192 -366 301 -41970 41973 -285 347 -211 390 -130 437 -43 465 43 459 127 431 214 397 285 347 344 285 390 211 440 130 459 43 462 -43 424 -130 397 -205 356 -288 41973 -41973 291 -356 198 -372 133 -449 43 -462zm49248 95308c0,784 -81,1568 -239,2342 -152,784 -384,1546 -682,2268 -297,722 -679,1425 -1122,2085 -443,663 -954,1289 -1503,1834 -545,545 -1168,1060 -1831,1503 -660,440 -1366,821 -2085,1122 -725,294 -1484,530 -2268,685 -778,152 -1562,232 -2342,232l-59358 0c-784,0 -1571,-81 -2349,-235 -784,-152 -1546,-387 -2262,-682 -737,-307 -1444,-688 -2092,-1119 -660,-446 -1280,-957 -1828,-1506 -545,-545 -1060,-1171 -1503,-1834 -443,-660 -821,-1363 -1122,-2082 -294,-716 -533,-1481 -685,-2262 -155,-778 -235,-1568 -235,-2352 0,-778 81,-1574 239,-2352 149,-781 387,-1546 682,-2262 301,-719 679,-1422 1122,-2082 443,-663 957,-1289 1503,-1834 548,-548 1168,-1060 1825,-1503 651,-434 1357,-815 2095,-1122 716,-294 1478,-530 2262,-685 778,-152 1565,-232 2349,-232l59358 0c781,0 1565,81 2342,235 784,152 1543,387 2265,682 722,301 1428,682 2088,1122 663,443 1286,957 1831,1503 548,545 1060,1171 1503,1834 443,660 824,1363 1122,2082 297,725 530,1487 685,2271 155,775 235,1559 235,2342zm-9767 0l-40 -452 -121 -421 -223 -403 -294 -356 -353 -291 -400 -217 -421 -130 -452 -43 -59358 0 -449 43 -428 127 -397 217 -359 294 -294 363 -217 397 -130 418 -40 455 40 449 127 424 220 397 294 363 356 297 400 211 421 130 455 43 59358 0 446 -43 428 -127 400 -220 353 -291 291 -353 226 -406 121 -415 40 -459zm-33247 103844c-558,561 -1181,1066 -1837,1503 -657,434 -1354,812 -2076,1103 -731,304 -1500,536 -2265,688 -784,152 -1580,232 -2358,232 -778,0 -1577,-81 -2361,-232 -765,-152 -1534,-384 -2265,-688 -716,-291 -1416,-669 -2079,-1106 -654,-434 -1270,-939 -1831,-1500l-41976 -41973c-558,-558 -1060,-1177 -1497,-1831 -440,-663 -815,-1366 -1112,-2082 -301,-731 -533,-1500 -685,-2268 -152,-781 -232,-1580 -232,-2358 0,-778 81,-1574 232,-2358 152,-765 384,-1534 685,-2265 297,-716 672,-1416 1109,-2076 440,-657 942,-1280 1500,-1834 570,-567 1196,-1072 1841,-1503 663,-440 1363,-812 2076,-1109 731,-301 1500,-533 2265,-685 781,-152 1577,-232 2355,-232 778,0 1577,81 2358,232 768,152 1537,384 2268,685 716,297 1416,672 2076,1109 657,440 1280,945 1837,1503l41973 41973c561,561 1066,1177 1500,1831 437,663 815,1363 1106,2079 304,731 536,1500 688,2265 152,784 232,1583 232,2361 0,778 -81,1574 -232,2358 -152,765 -384,1534 -688,2265 -291,722 -669,1419 -1103,2076 -437,657 -942,1280 -1503,1837zm-8536 -6234l462 -43 431 -127 403 -211 338 -279 294 -359 198 -372 133 -449 43 -462 -43 -459 -130 -434 -192 -381 -301 -366 -41973 -41970 -347 -285 -390 -211 -437 -130 -465 -43 -459 43 -431 127 -397 214 -347 285 -285 344 -211 390 -130 440 -43 459 43 462 130 424 205 397 288 356 41973 41973 356 291 372 198 449 133 462 43zm-95308 49248c-784,0 -1568,-81 -2342,-239 -784,-152 -1546,-384 -2268,-682 -722,-297 -1425,-679 -2085,-1122 -663,-443 -1289,-954 -1834,-1503 -545,-545 -1060,-1168 -1503,-1831 -440,-660 -821,-1366 -1122,-2085 -294,-725 -530,-1484 -685,-2268 -152,-778 -232,-1562 -232,-2342l0 -59358c0,-784 81,-1571 235,-2349 152,-784 387,-1546 682,-2262 307,-737 688,-1444 1119,-2092 446,-660 957,-1280 1506,-1828 545,-545 1171,-1060 1834,-1503 660,-443 1363,-821 2082,-1122 716,-294 1481,-533 2262,-685 778,-155 1574,-235 2352,-235 784,0 1574,81 2352,239 781,149 1546,387 2262,682 719,301 1422,679 2082,1122 663,443 1289,957 1834,1503 548,548 1060,1168 1503,1825 434,651 815,1357 1122,2095 294,716 530,1478 685,2262 152,778 232,1565 232,2349l0 59358c0,781 -81,1565 -235,2342 -152,784 -387,1543 -682,2265 -301,722 -682,1428 -1122,2088 -443,663 -957,1286 -1503,1831 -545,548 -1171,1060 -1834,1503 -660,443 -1363,824 -2082,1122 -725,297 -1487,530 -2271,685 -775,155 -1559,235 -2342,235zm0 -9767l452 -40 421 -121 403 -223 356 -294 291 -353 217 -400 130 -421 43 -452 0 -59358 -43 -449 -127 -428 -217 -397 -294 -359 -363 -294 -397 -217 -418 -130 -455 -40 -449 40 -424 127 -397 220 -363 294 -297 356 -211 400 -130 421 -43 455 0 59358 43 446 127 428 220 400 291 353 353 291 406 226 415 121 459 40zm-103841 -33250c-564,-558 -1066,-1181 -1503,-1834 -440,-663 -818,-1363 -1106,-2076 -304,-731 -536,-1500 -688,-2265 -152,-784 -232,-1580 -232,-2358 0,-778 81,-1577 232,-2361 152,-765 384,-1534 688,-2265 291,-716 669,-1416 1106,-2079 434,-654 939,-1270 1500,-1831l41973 -41976c558,-558 1177,-1060 1831,-1497 663,-440 1366,-815 2082,-1112 731,-301 1500,-533 2268,-685 781,-152 1580,-232 2358,-232 778,0 1574,81 2358,232 765,152 1534,384 2265,685 716,297 1416,672 2076,1109 657,440 1280,942 1834,1500 567,570 1072,1196 1503,1841 440,663 812,1363 1109,2076 301,731 533,1500 685,2265 152,781 232,1577 232,2355 0,778 -81,1577 -232,2358 -152,768 -384,1537 -685,2268 -297,716 -672,1416 -1109,2076 -440,657 -945,1280 -1503,1837l-41973 41973c-561,561 -1181,1066 -1831,1500 -663,437 -1363,815 -2079,1106 -731,304 -1500,536 -2265,688 -784,152 -1583,232 -2361,232 -778,0 -1574,-81 -2358,-232 -765,-152 -1534,-384 -2265,-688 -722,-291 -1422,-669 -2079,-1103 -651,-437 -1273,-942 -1831,-1506zm6231 -8533l43 459 130 424 201 397 291 356 353 291 375 198 446 133 462 43 459 -43 434 -130 381 -192 366 -301 41970 -41973 285 -347 211 -390 130 -437 43 -465 -43 -459 -127 -431 -214 -397 -285 -347 -344 -285 -390 -211 -440 -130 -459 -43 -462 43 -424 130 -397 205 -356 288 -41973 41973 -291 356 -198 372 -133 449 -43 462zm-49248 -95308c0,-784 81,-1568 239,-2342 152,-784 384,-1546 682,-2268 297,-722 679,-1425 1122,-2085 443,-663 954,-1289 1503,-1834 545,-545 1168,-1060 1831,-1503 660,-440 1366,-821 2085,-1122 725,-294 1484,-530 2268,-685 778,-152 1562,-232 2342,-232l59358 0c784,0 1571,81 2349,235 784,152 1546,387 2262,682 737,307 1444,688 2092,1119 660,446 1280,957 1828,1506 545,545 1060,1171 1503,1834 443,660 821,1363 1122,2082 294,716 533,1481 685,2262 155,778 235,1574 235,2352 0,784 -81,1574 -239,2352 -149,781 -387,1546 -682,2262 -301,719 -679,1422 -1122,2082 -443,663 -957,1289 -1503,1834 -548,548 -1168,1060 -1825,1503 -651,434 -1357,815 -2095,1122 -716,294 -1478,530 -2262,685 -778,152 -1565,232 -2349,232l-59358 0c-781,0 -1565,-81 -2342,-235 -784,-152 -1543,-387 -2265,-682 -722,-301 -1428,-682 -2088,-1122 -663,-443 -1286,-957 -1831,-1503 -548,-545 -1060,-1171 -1503,-1834 -443,-660 -824,-1363 -1122,-2082 -297,-725 -530,-1487 -685,-2271 -155,-775 -235,-1559 -235,-2342zm9767 0l40 452 121 421 223 403 294 356 353 291 400 217 421 130 452 43 59358 0 449 -43 428 -127 397 -217 359 -294 294 -363 217 -397 130 -418 40 -455 -40 -449 -127 -424 -220 -397 -294 -363 -356 -297 -400 -211 -421 -130 -455 -43 -59358 0 -446 43 -428 127 -400 220 -353 291 -291 353 -226 406 -121 415 -40 459zm33253 -103841c555,-564 1177,-1066 1831,-1503 663,-440 1363,-818 2076,-1106 731,-304 1500,-536 2265,-688 784,-152 1580,-232 2358,-232 778,0 1577,81 2361,232 765,152 1534,384 2265,688 716,294 1416,669 2079,1106 651,434 1267,936 1831,1500l41976 41973c558,558 1060,1177 1497,1831 440,663 815,1366 1112,2082 301,731 533,1500 685,2268 152,781 232,1580 232,2358 0,778 -81,1574 -232,2358 -152,765 -384,1534 -685,2265 -297,716 -672,1416 -1109,2076 -440,657 -942,1280 -1500,1834 -570,567 -1196,1072 -1841,1503 -663,440 -1363,812 -2076,1109 -731,301 -1500,533 -2265,685 -781,152 -1577,232 -2355,232 -778,0 -1577,-81 -2358,-232 -768,-152 -1537,-384 -2268,-685 -716,-297 -1416,-672 -2076,-1109 -657,-440 -1280,-945 -1837,-1503l-41973 -41973c-564,-564 -1066,-1181 -1500,-1831 -437,-663 -812,-1363 -1106,-2079 -304,-731 -536,-1500 -688,-2265 -152,-784 -232,-1583 -232,-2361 0,-778 81,-1574 232,-2358 152,-765 384,-1534 688,-2265 291,-722 669,-1422 1103,-2079 437,-651 942,-1273 1509,-1831zm8530 6231l-459 43 -424 130 -397 201 -356 291 -288 353 -201 375 -133 446 -43 462 43 459 130 434 192 381 301 366 41973 41970 347 285 390 211 437 130 465 43 459 -43 431 -127 397 -214 347 -285 285 -344 211 -390 130 -440 43 -459 -43 -462 -130 -424 -205 -397 -288 -356 -41973 -41973 -356 -291 -372 -198 -449 -133 -462 -43z"/>
 </g>
</svg>
