<?xml version="1.0" encoding="UTF-8"?>
<!DOCTYPE svg PUBLIC "-//W3C//DTD SVG 1.0//EN" "http://www.w3.org/TR/2001/REC-SVG-20010904/DTD/svg10.dtd">
<!-- Creator: CorelDRAW -->
<svg xmlns="http://www.w3.org/2000/svg" xml:space="preserve" width="9.5mm" height="5.685mm" version="1.0" style="shape-rendering:geometricPrecision; text-rendering:geometricPrecision; image-rendering:optimizeQuality; fill-rule:evenodd; clip-rule:evenodd"
viewBox="0 0 127884 76528"
 xmlns:xlink="http://www.w3.org/1999/xlink"
 xmlns:xodm="http://www.corel.com/coreldraw/odm/2003">
 <defs>
  <style type="text/css">
   <![CDATA[
    .fil0 {fill:#00A0E3;fill-rule:nonzero}
   ]]>
  </style>
 </defs>
 <g id="Layer_x0020_1">
  <metadata id="CorelCorpID_0Corel-Layer"/>
  <path class="fil0" d="M106675 67552c1667,0 3251,-330 4685,-922 1482,-612 2830,-1525 3964,-2660 1129,-1123 2041,-2473 2660,-3972 595,-1430 922,-3013 922,-4677 0,-1664 -327,-3246 -919,-4678 -619,-1489 -1532,-2839 -2663,-3970 -1132,-1132 -2482,-2045 -3972,-2661 -1430,-594 -3013,-922 -4677,-922 -2092,-23 -4461,394 -6553,617 113,-2019 323,-4160 316,-6167 -9,-2167 -437,-4230 -1213,-6101 -806,-1947 -1995,-3707 -3470,-5183 -1477,-1478 -3235,-2668 -5175,-3470 -1878,-775 -3942,-1203 -6109,-1203 -573,0 -1081,22 -1520,59 -485,46 -976,114 -1461,205 -455,85 -938,205 -1439,346 -447,122 -918,285 -1411,478l-3761 1477 -1850 -3598c-897,-1743 -2033,-3353 -3357,-4777 -1329,-1427 -2855,-2677 -4526,-3698 -1638,-1000 -3425,-1785 -5309,-2311 -1823,-509 -3762,-783 -5779,-783 -2846,0 -5558,555 -8028,1557 -2574,1045 -4897,2578 -6849,4479 -1959,1909 -3555,4195 -4666,6731 -1074,2455 -1702,5146 -1773,7968l-125 4915c-2240,-261 -4586,-656 -6841,-685 -2283,9 -4454,458 -6425,1273 -2047,852 -3901,2104 -5453,3656 -1553,1553 -2805,3406 -3655,5455 -817,1971 -1267,4142 -1267,6425 0,2282 452,4453 1267,6424 849,2050 2101,3902 3655,5456 1555,1555 3406,2808 5447,3652 1973,817 4146,1268 6432,1268l80898 0zm14996 2766c-1945,1945 -4286,3522 -6892,4600 -2505,1037 -5243,1610 -8104,1610l-80898 0c-3480,0 -6810,-696 -9852,-1956 -3163,-1307 -6004,-3221 -8374,-5592 -2368,-2367 -4282,-5211 -5595,-8377 -1259,-3041 -1956,-6371 -1956,-9851 0,-3481 697,-6809 1956,-9851 1312,-3166 3227,-6009 5595,-8377 2367,-2367 5210,-4282 8376,-5593 2593,-1073 5393,-1738 8318,-1912 502,-2865 1412,-5597 2664,-8131 1531,-3100 3581,-5906 6033,-8292 2780,-2708 6082,-4889 9731,-6375 3517,-1430 7365,-2221 11387,-2221 2822,0 5568,394 8181,1128 2691,755 5235,1875 7571,3301 2035,1241 3917,2721 5600,4397 1343,1338 2567,2807 3644,4380l789 -159c750,-141 1525,-252 2318,-326 814,-75 1587,-116 2310,-116 3369,0 6593,674 9536,1893 3061,1272 5807,3122 8096,5410 2108,2108 3846,4605 5097,7371 985,2178 1667,4527 1990,6988 2100,249 4106,804 5966,1615 2455,1074 4664,2591 6515,4442 1948,1948 3524,4286 4602,6884 1035,2512 1610,5253 1610,8112 0,2861 -575,5601 -1610,8105 -1078,2606 -2655,4944 -4602,6892z"/>
 </g>
</svg>
