<?xml version="1.0" encoding="UTF-8"?>
<!DOCTYPE svg PUBLIC "-//W3C//DTD SVG 1.0//EN" "http://www.w3.org/TR/2001/REC-SVG-20010904/DTD/svg10.dtd">
<!-- Creator: CorelDRAW -->
<svg xmlns="http://www.w3.org/2000/svg" xml:space="preserve" width="9.4792mm" height="9.4792mm" version="1.0" style="shape-rendering:geometricPrecision; text-rendering:geometricPrecision; image-rendering:optimizeQuality; fill-rule:evenodd; clip-rule:evenodd"
viewBox="0 0 81249 81249"
 xmlns:xlink="http://www.w3.org/1999/xlink"
 xmlns:xodm="http://www.corel.com/coreldraw/odm/2003">
 <defs>
  <style type="text/css">
   <![CDATA[
    .fil0 {fill:#00A0E3;fill-rule:nonzero}
   ]]>
  </style>
 </defs>
 <g id="Layer_x0020_1">
  <metadata id="CorelCorpID_0Corel-Layer"/>
  <path class="fil0" d="M40624 54639c939,0 1857,-93 2739,-267 908,-179 1786,-448 2620,-793 853,-354 1665,-790 2421,-1295 764,-511 1479,-1100 2129,-1750 651,-650 1239,-1365 1750,-2129 505,-755 941,-1568 1295,-2421 345,-834 614,-1713 793,-2620 175,-883 267,-1800 267,-2739 0,-939 -93,-1856 -267,-2739 -179,-908 -448,-1786 -793,-2620 -354,-853 -790,-1666 -1295,-2421 -511,-764 -1099,-1479 -1749,-2128 -650,-651 -1365,-1239 -2129,-1750 -755,-504 -1569,-941 -2421,-1295 -834,-345 -1713,-614 -2620,-793 -883,-175 -1800,-267 -2739,-267 -939,0 -1856,93 -2739,267 -908,179 -1786,448 -2620,793 -853,354 -1665,790 -2421,1295 -764,511 -1479,1100 -2129,1750 -651,650 -1239,1365 -1750,2129 -505,755 -941,1568 -1295,2421 -345,834 -614,1713 -793,2620 -175,884 -267,1801 -267,2739 0,939 93,1857 267,2739 179,908 448,1786 793,2620 354,853 791,1666 1295,2421 511,765 1100,1479 1750,2129 650,651 1365,1239 2128,1749 755,505 1569,941 2421,1295 834,345 1713,614 2620,793 884,175 1801,267 2739,267zm11984 -2031c-783,782 -1647,1492 -2575,2113 -917,615 -1899,1141 -2929,1568 -1011,419 -2073,743 -3172,961 -1071,212 -2179,324 -3309,324 -1130,0 -2237,-112 -3309,-324 -1099,-218 -2161,-542 -3172,-961 -1029,-427 -2012,-953 -2929,-1568 -928,-621 -1792,-1331 -2575,-2113 -782,-783 -1492,-1647 -2113,-2575 -615,-917 -1141,-1899 -1568,-2929 -419,-1011 -743,-2073 -961,-3172 -212,-1071 -324,-2179 -324,-3309 0,-1130 112,-2237 324,-3309 218,-1099 542,-2161 961,-3172 427,-1029 953,-2012 1568,-2929 621,-928 1331,-1792 2113,-2575 783,-782 1647,-1492 2575,-2113 917,-615 1899,-1141 2929,-1568 1011,-419 2073,-743 3172,-961 1071,-212 2179,-324 3309,-324 1130,0 2237,112 3309,324 1099,218 2161,542 3172,961 1029,427 2012,953 2929,1568 928,621 1792,1331 2575,2113 782,783 1492,1647 2113,2575 615,917 1141,1899 1568,2929 419,1011 743,2073 961,3172 212,1071 324,2179 324,3309 0,1130 -112,2237 -324,3309 -218,1099 -542,2161 -961,3172 -427,1029 -953,2012 -1568,2929 -621,928 -1331,1792 -2113,2575zm-11984 -52609c223,0 445,23 660,66 223,45 437,111 636,193 204,84 402,192 585,314 187,123 360,267 517,423 312,312 566,688 738,1103 165,399 258,838 258,1295l0 16130c0,224 -23,447 -65,662 -46,223 -111,439 -194,635 -85,208 -192,404 -314,586 -127,189 -270,362 -423,515 -312,313 -688,567 -1101,739 -400,165 -840,258 -1297,258 -224,0 -447,-23 -662,-66 -220,-43 -435,-111 -635,-193 -206,-85 -403,-192 -585,-313 -188,-127 -363,-271 -516,-425 -312,-312 -566,-687 -738,-1102 -165,-400 -258,-839 -258,-1296l0 -16130c0,-223 23,-445 65,-660 45,-223 111,-437 194,-635 84,-207 191,-404 313,-586 126,-187 269,-361 424,-517 312,-312 688,-567 1101,-738 400,-165 841,-258 1297,-258zm486 2908c-64,-64 -143,-119 -225,-153l-127 -38 -135 -12 -133 11 -129 40 -118 63 -107 89c-63,63 -117,141 -151,224 -33,80 -52,171 -52,262l0 16130 12 131 39 132 64 117 88 107c124,124 299,204 487,204l131 -11 131 -41 118 -64 105 -87c64,-64 118,-143 153,-224l39 -129 13 -134 0 -16130 -12 -131 -39 -131 -65 -117 -87 -106zm28240 8990c158,158 299,332 421,515 124,187 230,385 312,584 86,207 150,423 194,639 43,220 65,443 65,662 0,219 -22,441 -65,662 -43,215 -108,431 -193,639 -83,203 -189,400 -313,586 -123,182 -263,354 -421,513l-11407 11407c-157,157 -332,299 -515,422 -183,123 -381,229 -585,312 -206,85 -421,150 -639,194 -219,43 -441,65 -660,65 -219,0 -441,-22 -663,-65 -218,-44 -433,-108 -639,-194 -201,-82 -399,-188 -584,-311 -184,-123 -359,-266 -515,-423 -157,-156 -299,-331 -422,-514 -124,-186 -230,-385 -312,-585 -85,-206 -150,-421 -194,-639 -43,-220 -65,-444 -65,-662 0,-219 22,-441 65,-662 44,-218 108,-433 194,-639 82,-201 188,-399 310,-583 123,-183 264,-357 423,-516l11406 -11407c159,-158 332,-298 513,-420 187,-125 385,-231 584,-314 209,-85 426,-150 641,-193 220,-43 442,-65 662,-65 218,0 441,22 662,65 216,44 432,108 639,194 201,82 399,188 585,312 183,122 357,263 515,421zm-1912 1911l-105 -86 -113 -62 -132 -39 -137 -13c-92,0 -184,18 -267,51 -80,34 -158,85 -223,149l-11406 11406 -87 105 -60 114 -39 132 -13 137 13 139 39 131 62 114 86 106 103 84 117 63 132 39 138 13 137 -13 129 -39 116 -63 105 -85 11406 -11407 84 -101 64 -120 39 -129 13 -138c0,-92 -18,-184 -52,-268 -33,-81 -83,-157 -147,-220zm13811 26814c0,223 -23,445 -66,660 -45,223 -111,437 -193,636 -85,206 -192,404 -313,586 -126,186 -269,361 -424,516 -312,312 -688,566 -1103,738 -399,165 -838,258 -1295,258l-16130 0c-224,0 -447,-23 -662,-65 -223,-46 -439,-111 -635,-194 -206,-83 -402,-190 -586,-315 -189,-126 -362,-269 -515,-423 -313,-312 -567,-688 -739,-1101 -165,-400 -258,-840 -258,-1297 0,-224 23,-447 66,-662 43,-220 111,-435 193,-635 85,-206 192,-403 313,-585 126,-186 269,-361 425,-516 312,-312 687,-566 1102,-738 400,-165 839,-258 1296,-258l16130 0c223,0 445,23 660,65 223,45 437,111 635,194 205,83 402,191 585,314 188,123 361,267 518,423 312,312 567,688 738,1101 165,400 258,841 258,1297zm-2705 0l-11 -133 -40 -129 -63 -118 -89 -107c-63,-63 -141,-117 -224,-151 -80,-33 -171,-52 -262,-52l-16130 0 -133 12 -130 39 -117 64 -107 88c-124,124 -204,299 -204,487l11 131 41 131 64 118 87 105c64,64 142,118 224,153l129 39 134 13 16130 0 131 -12 131 -39 117 -65 106 -87c64,-64 119,-143 153,-225l38 -127 12 -135zm-9194 28726c-158,158 -332,299 -515,421 -187,124 -385,230 -584,312 -207,86 -423,150 -639,194 -220,43 -444,65 -662,65 -219,0 -441,-22 -662,-65 -215,-43 -431,-108 -639,-193 -203,-83 -400,-189 -586,-313 -182,-123 -354,-263 -513,-421l-11407 -11407c-157,-157 -299,-332 -422,-515 -123,-183 -229,-381 -312,-585 -85,-206 -150,-421 -194,-639 -43,-219 -65,-441 -65,-660 0,-219 22,-441 65,-663 44,-218 108,-433 194,-639 82,-201 188,-399 311,-584 123,-184 266,-359 423,-515 156,-157 331,-299 514,-422 186,-124 384,-230 585,-312 206,-86 421,-150 639,-194 221,-43 443,-65 663,-65 219,0 441,22 661,65 218,44 433,109 639,194 201,82 399,188 584,310 183,123 357,264 516,423l11407 11406c158,159 298,332 420,513 125,187 231,385 314,584 85,209 150,426 193,641 43,220 65,442 65,662 0,218 -22,441 -65,662 -44,216 -108,432 -194,639 -82,200 -188,398 -312,585 -122,183 -263,357 -421,515zm-1911 -1912l86 -105 62 -113 39 -132 13 -137c0,-92 -18,-184 -51,-267 -34,-80 -85,-158 -149,-223l-11406 -11406 -105 -87 -114 -60 -132 -39 -137 -13 -139 13 -131 39 -114 62 -106 86 -84 103 -63 117 -39 132 -13 138 13 137 39 129 63 116 85 105 11407 11406 101 84 120 64 129 39 138 13c92,0 183,-18 268,-52 81,-33 157,-83 220,-147zm-26814 13811c-223,0 -445,-23 -660,-66 -223,-45 -437,-111 -636,-193 -206,-85 -404,-192 -586,-313 -188,-127 -363,-271 -516,-424 -312,-312 -566,-688 -738,-1103 -165,-399 -258,-838 -258,-1295l0 -16130c0,-224 23,-447 65,-662 46,-223 111,-439 194,-635 84,-207 192,-404 314,-586 127,-189 270,-362 423,-515 312,-313 688,-567 1101,-739 400,-165 841,-258 1297,-258 224,0 447,23 662,66 220,43 435,111 635,193 203,84 401,192 585,314 187,123 360,267 517,424 312,312 566,687 738,1102 165,400 258,839 258,1296l0 16130c0,223 -23,445 -65,660 -45,223 -111,437 -194,635 -84,207 -191,404 -313,586 -126,187 -269,361 -424,517 -312,312 -688,567 -1101,738 -400,165 -840,258 -1297,258zm0 -2705l133 -11 129 -40 118 -63 107 -89c63,-63 117,-141 151,-224 33,-80 52,-171 52,-262l0 -16130 -12 -133 -39 -130 -64 -117 -88 -107c-124,-124 -299,-204 -487,-204l-131 11 -131 41 -118 64 -105 87c-64,64 -118,143 -153,224l-39 129 -13 134 0 16130 12 131 39 131 65 117 87 106c63,63 142,119 225,153l127 38 135 12zm-28726 -9194c-158,-158 -299,-332 -421,-515 -124,-186 -230,-383 -312,-585 -86,-207 -150,-423 -194,-639 -43,-220 -65,-444 -65,-662 0,-219 22,-441 65,-662 43,-215 108,-431 193,-639 83,-203 189,-400 313,-586 123,-182 263,-354 421,-513l11407 -11407c157,-157 332,-299 515,-422 183,-123 381,-228 585,-311 206,-87 421,-151 639,-195 219,-43 442,-65 661,-65 218,0 441,22 662,65 218,44 433,109 639,194 201,82 399,188 585,311 184,123 359,266 515,423 157,156 299,331 422,514 124,186 230,384 312,585 86,206 150,421 194,639 43,221 65,443 65,663 0,219 -22,441 -65,661 -44,218 -109,433 -194,639 -82,201 -188,399 -310,584 -123,183 -264,357 -423,516l-11406 11407c-159,158 -332,298 -513,420 -187,125 -385,231 -584,314 -209,85 -426,150 -641,193 -220,43 -443,65 -662,65 -219,0 -441,-22 -662,-65 -216,-44 -432,-108 -639,-194 -200,-82 -398,-188 -585,-312 -183,-122 -357,-263 -515,-421zm1912 -1911l105 86 113 62 132 39 137 13c92,0 184,-18 267,-51 80,-34 158,-85 223,-149l11406 -11406 87 -105 60 -114 39 -132 13 -137 -13 -139 -39 -131 -62 -114 -86 -106 -103 -84 -117 -63 -132 -39 -138 -13 -137 13 -129 39 -116 63 -105 85 -11406 11407 -84 101 -64 120 -39 129 -13 138c0,92 18,183 52,268 33,81 83,157 147,220zm-13811 -26814c0,-223 23,-445 66,-660 45,-223 111,-437 193,-636 85,-206 192,-404 313,-586 126,-186 269,-361 424,-516 312,-312 688,-566 1103,-738 399,-165 838,-258 1295,-258l16130 0c224,0 447,23 662,65 223,46 439,111 635,194 206,83 402,191 585,314 189,127 363,270 516,423 313,312 567,688 739,1101 165,400 258,841 258,1297 0,224 -23,447 -66,662 -43,220 -111,435 -193,635 -85,206 -192,403 -313,585 -126,186 -269,361 -425,516 -312,312 -687,566 -1102,738 -400,165 -839,258 -1296,258l-16130 0c-223,0 -445,-23 -660,-65 -223,-45 -437,-111 -635,-194 -207,-84 -404,-191 -586,-313 -189,-127 -363,-271 -517,-424 -312,-312 -567,-688 -738,-1101 -165,-400 -258,-840 -258,-1297zm2705 0l11 133 40 129 63 118 89 107c63,63 141,117 224,151 80,33 171,52 262,52l16130 0 131 -12 132 -39 117 -64 107 -88c124,-124 204,-299 204,-487l-11 -131 -41 -131 -64 -118 -87 -105c-64,-64 -143,-118 -224,-153l-129 -39 -134 -13 -16130 0 -131 12 -131 39 -117 65 -106 87c-64,64 -119,143 -153,225l-38 127 -12 135zm9194 -28726c158,-158 332,-299 515,-421 187,-124 385,-230 584,-312 207,-86 423,-150 639,-194 220,-43 443,-65 662,-65 219,0 441,22 662,65 215,43 431,108 639,193 203,83 400,189 586,313 183,123 357,264 513,421l11406 11407c157,157 299,332 422,515 123,183 228,381 311,585 87,206 151,421 195,639 43,219 65,442 65,661 0,218 -22,441 -65,662 -44,218 -109,433 -194,639 -82,201 -188,399 -311,585 -123,184 -266,359 -423,515 -156,157 -331,299 -514,422 -186,124 -385,230 -585,312 -206,85 -421,150 -639,194 -220,43 -444,65 -662,65 -219,0 -441,-22 -662,-65 -218,-44 -433,-108 -639,-194 -201,-82 -399,-188 -583,-310 -183,-123 -357,-264 -516,-423l-11407 -11406c-157,-156 -297,-330 -420,-513 -125,-187 -231,-385 -314,-584 -85,-209 -150,-426 -193,-641 -43,-220 -65,-443 -65,-662 0,-219 22,-441 65,-662 44,-216 108,-432 194,-639 82,-200 188,-398 312,-585 122,-183 263,-357 421,-515zm1911 1912l-86 105 -62 113 -39 132 -13 137c0,92 18,184 51,267 34,80 85,158 149,223l11406 11406 105 87 114 60 132 39 137 13 139 -13 131 -39 114 -62 106 -86 84 -103 63 -117 39 -132 13 -138 -13 -137 -39 -129 -63 -116 -85 -105 -11407 -11406 -101 -84 -120 -64 -129 -39 -138 -13c-92,0 -184,18 -268,52 -81,33 -157,83 -220,147z"/>
 </g>
</svg>
