<?xml version="1.0" encoding="UTF-8"?>
<!DOCTYPE svg PUBLIC "-//W3C//DTD SVG 1.0//EN" "http://www.w3.org/TR/2001/REC-SVG-20010904/DTD/svg10.dtd">
<!-- Creator: CorelDRAW -->
<svg xmlns="http://www.w3.org/2000/svg" xml:space="preserve" width="8.8983mm" height="8.9999mm" version="1.0" style="shape-rendering:geometricPrecision; text-rendering:geometricPrecision; image-rendering:optimizeQuality; fill-rule:evenodd; clip-rule:evenodd"
viewBox="0 0 52377 52975"
 xmlns:xlink="http://www.w3.org/1999/xlink"
 xmlns:xodm="http://www.corel.com/coreldraw/odm/2003">
 <defs>
  <style type="text/css">
   <![CDATA[
    .fil0 {fill:#00A0E3;fill-rule:nonzero}
   ]]>
  </style>
 </defs>
 <g id="Layer_x0020_1">
  <metadata id="CorelCorpID_0Corel-Layer"/>
  <path class="fil0" d="M18520 391c987,921 616,1683 -74,3097l-419 875c-145,318 -307,688 -477,1121 -29,72 -134,343 -268,743 -140,417 -317,988 -494,1668 -179,688 -362,1500 -512,2398 -148,892 -263,1865 -305,2872 -11,290 -24,732 -12,1291 12,557 51,1246 140,2037 88,781 227,1658 443,2600 216,944 509,1954 902,2997 557,1479 1229,2796 1942,3954 715,1159 1477,2166 2211,3020 735,853 1442,1556 2052,2110 611,555 1121,959 1463,1219 350,265 1057,787 2064,1407 999,613 2281,1315 3766,1929 1463,606 3128,1131 4917,1404 1782,273 3685,297 5627,-93 2423,-488 4491,-1552 5984,-2321l7 -4c981,-505 1792,-922 2505,-1072 786,-165 1436,-16 1995,659 706,856 398,2131 -300,3467 -650,1244 -1645,2556 -2436,3597l-33 51c-325,426 -681,888 -1076,1374 -398,491 -840,1012 -1337,1548 -512,551 -1077,1118 -1702,1684 -633,573 -1333,1150 -2105,1715 -370,271 -884,643 -1546,1073 -655,424 -1452,900 -2382,1375 -929,475 -1988,948 -3170,1363 -1185,418 -2494,782 -3917,1036 -1799,321 -3507,422 -5083,381 -1578,-42 -3020,-227 -4293,-477 -1263,-248 -2376,-566 -3297,-871 -921,-306 -1638,-597 -2125,-798 -587,-242 -1409,-606 -2372,-1117 -965,-512 -2079,-1175 -3256,-2021 -1175,-844 -2417,-1872 -3633,-3111 -1217,-1238 -2414,-2691 -3503,-4386 -283,-440 -725,-1140 -1225,-2076 -499,-935 -1053,-2100 -1555,-3463 -504,-1369 -959,-2943 -1258,-4691 -299,-1748 -444,-3675 -331,-5750 238,-4323 1525,-7881 3004,-10659 1478,-2775 3146,-4767 4157,-5974l577 -667 632 -692c851,-909 1736,-1758 2595,-2512 946,-831 1869,-1556 2691,-2130 1011,-707 1962,-1195 2757,-1423 849,-243 1549,-196 2000,181l67 60zm5092 12580l-1169 2526 -2666 1309 2432 1121 1403 2715 1263 -2621 2479 -1215 -2572 -1217 -1170 -2618zm5159 5753l-1588 3428 -3617 1777 3302 1525 1904 3681 1712 -3555 3366 -1651 -3490 -1649 -1588 -3555zm2443 -11507l-1755 3789 -3999 1964 3649 1684 2105 4070 1895 -3928 3718 -1825 -3859 -1824 -1754 -3929zm-16444 -2769c-578,434 -1197,935 -1828,1490 -790,693 -1600,1470 -2373,2297l-529 583 -560 652c-922,1102 -2443,2918 -3777,5407 -1334,2488 -2492,5661 -2704,9492 -101,1831 29,3538 295,5089 266,1550 672,2950 1119,4166 451,1224 946,2264 1391,3096 443,831 844,1464 1101,1864 972,1515 2042,2813 3127,3918 1087,1107 2194,2024 3242,2777 1048,753 2042,1345 2906,1803 869,461 1598,783 2117,997 443,183 1094,447 1907,717 815,270 1810,553 2958,778 1139,223 2420,390 3807,428 1387,38 2892,-50 4480,-334 1261,-225 2416,-546 3459,-913 1048,-368 1985,-786 2804,-1204 816,-417 1526,-843 2117,-1227 581,-377 1060,-723 1406,-978 699,-512 1324,-1027 1885,-1533 563,-509 1061,-1007 1503,-1484 453,-489 860,-969 1228,-1424 380,-471 702,-889 992,-1272 321,-556 1136,-1503 1561,-2063 -1600,818 -3727,1844 -6339,2370 -2296,463 -4522,441 -6592,131 -2065,-310 -3980,-910 -5655,-1604 -1651,-683 -3077,-1464 -4189,-2148 -1099,-675 -1904,-1269 -2303,-1572 -393,-298 -977,-759 -1668,-1386 -692,-626 -1491,-1419 -2312,-2373 -823,-957 -1678,-2088 -2485,-3397 -807,-1309 -1565,-2795 -2191,-4459 -445,-1181 -776,-2320 -1019,-3382 -243,-1062 -400,-2052 -500,-2934 -98,-870 -141,-1649 -154,-2293 -13,-642 1,-1145 15,-1476 48,-1143 176,-2232 340,-3226 164,-991 369,-1897 570,-2670 381,-1464 753,-2451 850,-2705z"/>
 </g>
</svg>
