<?xml version="1.0" encoding="UTF-8"?>
<!DOCTYPE svg PUBLIC "-//W3C//DTD SVG 1.0//EN" "http://www.w3.org/TR/2001/REC-SVG-20010904/DTD/svg10.dtd">
<!-- Creator: CorelDRAW -->
<svg xmlns="http://www.w3.org/2000/svg" xml:space="preserve" width="8.096mm" height="9mm" version="1.0" style="shape-rendering:geometricPrecision; text-rendering:geometricPrecision; image-rendering:optimizeQuality; fill-rule:evenodd; clip-rule:evenodd"
viewBox="0 0 34142 37955"
 xmlns:xlink="http://www.w3.org/1999/xlink"
 xmlns:xodm="http://www.corel.com/coreldraw/odm/2003">
 <defs>
  <style type="text/css">
   <![CDATA[
    .fil0 {fill:#00A0E3;fill-rule:nonzero}
   ]]>
  </style>
 </defs>
 <g id="Layer_x0020_1">
  <metadata id="CorelCorpID_0Corel-Layer"/>
  <path class="fil0" d="M31952 29595l1925 1691c80,70 142,152 186,241 45,93 72,194 78,294 6,101 -7,205 -40,302 -31,94 -83,184 -152,263 -36,41 -78,79 -121,112 -47,34 -95,62 -143,84 -50,22 -103,40 -156,51 -57,12 -113,18 -165,18l-138 -13c-45,-7 -91,-21 -136,-37l-125 -60 -115 -84 -1891 -1662 -3929 3928 1614 1956c66,81 114,172 143,267 30,100 40,203 31,304 -10,100 -39,200 -88,291 -47,88 -112,169 -193,235l-110 76 -121 56 -130 34 -133 13c-55,0 -112,-7 -169,-19 -56,-13 -111,-32 -164,-56 -51,-24 -101,-54 -146,-89 -45,-34 -87,-75 -123,-120l-1548 -1877c-194,131 -403,231 -619,300 -245,78 -500,118 -754,118 -320,0 -644,-63 -946,-188 -146,-60 -289,-137 -425,-227 -133,-89 -259,-192 -374,-307 -121,-122 -229,-254 -319,-392 -92,-140 -169,-291 -230,-446 -56,-143 -99,-292 -128,-444 -23,-126 -38,-256 -42,-385 -295,-9 -590,-72 -868,-186 -146,-60 -289,-137 -425,-227 -133,-89 -259,-192 -374,-307 -115,-115 -219,-242 -309,-376 -90,-135 -167,-277 -228,-425 -61,-149 -108,-305 -140,-463 -30,-158 -47,-320 -47,-481 0,-162 16,-323 47,-481 31,-159 79,-314 140,-463 61,-148 138,-291 229,-426 89,-133 193,-259 308,-374l199 -200 -2434 -2922c-127,-153 -249,-311 -363,-471 -114,-160 -224,-326 -326,-494 -88,-145 -172,-293 -249,-440l-151 -301 -148 299c-79,152 -163,300 -248,441 -103,170 -213,336 -327,496 -113,159 -235,317 -362,469l-2610 3141c106,108 203,228 288,354 91,135 167,278 228,426 61,149 108,305 140,463 31,158 48,320 48,482 0,162 -16,323 -48,482 -32,159 -79,315 -140,463 -61,148 -138,290 -227,424 -90,134 -194,261 -308,375 -115,115 -241,218 -374,306 -136,91 -279,168 -425,228 -150,62 -306,109 -463,140 -135,27 -271,43 -406,46 -5,129 -19,258 -42,384 -29,150 -72,300 -128,443 -61,154 -139,306 -231,447 -90,139 -197,271 -318,391 -115,115 -241,218 -375,308 -135,90 -278,167 -425,228 -148,61 -304,108 -463,140 -158,31 -321,48 -482,48 -103,0 -210,-8 -318,-22 -107,-14 -213,-35 -315,-62 -93,-24 -185,-54 -271,-89l-202 -90 -1433 1722c-35,44 -77,85 -122,119 -45,35 -94,65 -145,89 -52,24 -108,43 -163,56 -57,12 -114,19 -169,19l-132 -13 -132 -35 -122 -56 -118 -82c-80,-68 -143,-149 -188,-235 -46,-89 -75,-188 -84,-287 -9,-101 1,-205 31,-302 29,-94 77,-185 145,-265l1445 -1738 -3957 -3956 -1674 1472 -115 84 -125 61 -136 38 -139 13c-52,0 -108,-6 -164,-18 -54,-11 -107,-29 -157,-51 -48,-22 -97,-51 -142,-84 -44,-32 -86,-70 -122,-111 -69,-81 -121,-171 -152,-264 -33,-97 -46,-201 -40,-302 6,-100 33,-202 78,-294 44,-89 106,-172 185,-241l1651 -1451c-48,-77 -92,-158 -130,-240 -48,-101 -89,-207 -123,-313 -37,-119 -66,-242 -85,-365 -19,-124 -29,-251 -29,-375 0,-162 16,-323 48,-482 31,-159 79,-314 140,-462 61,-148 138,-291 227,-425 90,-134 194,-261 308,-375 114,-114 241,-218 375,-308 135,-90 278,-167 424,-228 148,-61 304,-108 463,-139 132,-26 267,-42 402,-46 5,-136 21,-271 47,-404 31,-159 79,-314 140,-462 61,-147 138,-290 228,-425 90,-134 194,-261 308,-375 114,-114 241,-218 375,-307 135,-91 278,-167 425,-228 149,-62 305,-108 463,-140 158,-31 320,-48 481,-48 162,0 324,16 482,48 159,31 315,78 463,140 148,61 291,138 426,228 123,82 240,176 346,280l1631 -1434c238,-209 449,-446 626,-701 180,-259 329,-538 441,-828 113,-292 191,-599 230,-911 39,-307 42,-622 6,-938l-488 -4280c-57,-500 -81,-1003 -71,-1505 10,-502 53,-1005 128,-1500 75,-497 185,-990 326,-1472 140,-480 313,-954 517,-1414l3803 -8597c64,-144 151,-274 253,-382 105,-113 229,-206 363,-275 133,-68 281,-115 434,-135 148,-19 303,-13 457,19 115,28 180,51 288,98 107,-46 173,-70 286,-97 157,-33 313,-38 462,-19 154,20 302,66 435,135 135,69 259,162 365,274 103,110 190,240 254,384l3814 8598c204,460 377,933 517,1413 141,483 251,976 326,1473 75,496 119,999 129,1501 9,501 -14,1004 -71,1503l-488 4280c-36,315 -33,631 6,938 40,312 118,619 230,911 111,290 260,569 440,829 177,254 387,491 626,700l1430 1258c89,-69 184,-133 282,-190 118,-67 240,-126 365,-172 137,-50 280,-91 426,-116 145,-26 292,-40 438,-40 162,0 323,16 482,48 159,32 314,78 463,140 147,61 291,138 426,228 133,89 259,193 374,309 116,116 220,242 309,374 90,134 167,277 228,425 61,148 108,304 139,461 26,132 42,268 46,403 136,5 271,21 403,46 159,32 315,79 463,140 147,61 290,138 425,228 134,90 261,194 375,308 114,114 218,241 307,375 90,135 167,278 228,424 61,148 109,304 140,463 31,159 48,321 48,482 0,100 -7,201 -19,302 -13,103 -32,203 -56,299 -22,87 -48,173 -80,257l-82 194zm-22387 4989c54,-22 107,-51 155,-83 49,-33 96,-72 138,-114 86,-85 153,-187 197,-294 46,-110 69,-230 69,-348 0,-117 -23,-237 -69,-348 -43,-106 -110,-207 -196,-293l-5203 -5203c-43,-43 -90,-81 -139,-114 -48,-32 -102,-61 -155,-83 -54,-22 -112,-40 -170,-51 -57,-11 -117,-17 -178,-17 -61,0 -121,6 -177,17 -59,11 -117,29 -170,51 -55,22 -108,51 -156,83 -48,32 -95,71 -138,114 -42,42 -81,89 -114,139 -33,50 -62,102 -83,154 -22,54 -40,111 -51,170 -11,57 -17,117 -17,179 0,62 6,122 17,179 11,58 29,116 51,169 22,53 50,105 83,155 32,48 71,96 115,139l5202 5202c43,43 90,82 138,114 48,32 101,60 156,83 53,22 111,40 168,51 57,11 118,17 179,17 62,0 122,-6 179,-17 58,-11 115,-29 169,-51zm2039 -2319c118,0 237,-23 347,-69 107,-43 207,-110 294,-196 43,-43 82,-91 116,-139 32,-49 61,-102 82,-155 22,-54 40,-112 51,-170 11,-57 17,-116 17,-178 0,-62 -6,-123 -17,-179 -11,-57 -29,-114 -52,-170 -21,-53 -50,-105 -83,-154 -32,-48 -71,-96 -115,-139l-5202 -5202c-43,-44 -91,-83 -139,-115 -50,-33 -102,-61 -154,-83 -56,-22 -113,-40 -170,-52 -56,-10 -117,-16 -179,-16 -61,0 -121,6 -178,17 -58,11 -115,29 -169,51 -55,23 -108,51 -156,83 -48,32 -95,71 -138,114 -43,44 -83,91 -115,139 -32,49 -61,102 -83,155 -23,56 -40,113 -52,171 -11,57 -16,117 -16,178 0,62 6,122 17,179 11,58 29,116 51,170 22,54 50,106 83,155 32,48 71,95 115,139l5202 5202c87,86 188,153 294,197 111,46 230,69 348,69zm2798 -22910c234,-494 512,-978 829,-1448 311,-460 662,-909 1050,-1341l0 -4203 -3391 7669c-176,397 -326,805 -447,1220 -122,418 -216,843 -282,1269 -65,428 -103,862 -111,1296 -8,431 12,866 62,1297l489 4279c50,440 45,882 -10,1313 -55,437 -165,866 -322,1274 -157,408 -364,799 -616,1160 -248,356 -541,687 -874,979l-1557 1368 3039 3041 2520 -3030c240,-288 455,-599 641,-925 187,-328 346,-672 472,-1024 126,-352 224,-719 289,-1095 65,-371 97,-750 97,-1133l0 -12166c-99,162 -195,329 -288,503 -137,258 -266,528 -380,808 -137,337 -258,691 -352,1060 -88,344 -156,705 -197,1079l-38 526 -3 530c3,105 -16,207 -51,300 -36,96 -92,184 -162,258 -69,73 -154,135 -248,176 -90,40 -192,65 -297,67l-21 0c-104,0 -203,-20 -294,-57 -94,-38 -179,-94 -251,-164 -71,-70 -130,-154 -170,-246 -38,-89 -62,-188 -65,-291l-3 -320 7 -319 18 -315 29 -315c57,-523 160,-1045 308,-1557 147,-515 341,-1024 578,-1523zm3828 14185c128,353 288,698 476,1028 187,327 404,639 644,929l2342 2812 3012 -3012 -1339 -1177c-334,-293 -628,-623 -875,-979 -251,-361 -458,-752 -616,-1161 -157,-408 -267,-837 -322,-1274 -55,-432 -60,-873 -10,-1312l489 -4280c49,-432 69,-866 61,-1297 -8,-434 -46,-868 -111,-1296 -65,-426 -159,-851 -281,-1268 -121,-415 -271,-824 -447,-1221l-3412 -7695 0 4207c390,432 743,882 1056,1343 321,474 601,960 836,1454 237,499 433,1010 582,1529 149,515 253,1040 310,1565l29 322 18 311 7 318 -3 319c-3,103 -27,202 -65,291 -40,92 -100,176 -170,246 -71,70 -156,126 -251,164 -91,38 -190,58 -293,58l-23 -1c-105,-3 -206,-27 -296,-67 -94,-41 -179,-103 -248,-176 -70,-73 -126,-162 -162,-257 -35,-92 -54,-194 -51,-300l-3 -530 -38 -527c-38,-347 -99,-684 -179,-1007 -86,-345 -192,-677 -314,-991 -122,-315 -261,-617 -411,-902 -105,-200 -217,-395 -334,-583l0 12200c0,380 34,758 99,1127 65,374 164,741 291,1092zm3063 8167c21,52 50,105 83,154 32,48 71,95 115,139 86,86 188,152 294,197 111,46 230,69 348,69 118,0 237,-23 347,-69 106,-43 207,-110 294,-197l5202 -5202c44,-44 83,-91 115,-139 33,-50 62,-102 83,-154 22,-54 39,-112 51,-170 11,-57 17,-118 17,-180 0,-61 -6,-122 -17,-178 -11,-58 -29,-115 -51,-169 -22,-54 -51,-107 -83,-155 -32,-48 -71,-95 -115,-139 -43,-43 -91,-83 -139,-116 -49,-32 -102,-61 -154,-82 -55,-22 -113,-40 -170,-52 -57,-11 -117,-16 -178,-16 -62,0 -123,6 -178,17 -58,11 -116,30 -170,51 -54,22 -107,50 -156,83 -49,33 -97,72 -139,115l-5202 5202c-43,43 -83,91 -115,139 -33,49 -62,102 -83,154 -22,54 -40,112 -51,171 -11,57 -17,118 -17,178 0,61 5,121 17,178 11,58 29,116 51,171zm3853 2694l5218 -5217c42,-42 81,-89 113,-138 33,-48 61,-101 84,-156 22,-54 40,-112 51,-170 11,-57 17,-117 17,-178 0,-61 -6,-121 -17,-178 -11,-59 -30,-117 -51,-170 -23,-54 -51,-107 -84,-156 -34,-49 -72,-97 -113,-138 -86,-86 -188,-153 -294,-196 -110,-46 -230,-69 -349,-69 -60,0 -121,6 -178,17 -58,11 -116,29 -171,51 -54,22 -107,50 -156,83 -48,32 -94,70 -137,113l-5202 5202c-86,86 -152,187 -196,294 -45,110 -69,230 -69,348 0,119 24,239 69,349 44,106 110,207 196,294l25 26c85,78 184,138 288,179 108,42 223,65 335,66 112,1 226,-19 330,-59 98,-38 190,-97 268,-174l22 -23z"/>
 </g>
</svg>
