<?xml version="1.0" encoding="UTF-8"?>
<!DOCTYPE svg PUBLIC "-//W3C//DTD SVG 1.0//EN" "http://www.w3.org/TR/2001/REC-SVG-20010904/DTD/svg10.dtd">
<!-- Creator: CorelDRAW -->
<svg xmlns="http://www.w3.org/2000/svg" xml:space="preserve" width="7.8655mm" height="9mm" version="1.0" style="shape-rendering:geometricPrecision; text-rendering:geometricPrecision; image-rendering:optimizeQuality; fill-rule:evenodd; clip-rule:evenodd"
viewBox="0 0 26643 30486"
 xmlns:xlink="http://www.w3.org/1999/xlink"
 xmlns:xodm="http://www.corel.com/coreldraw/odm/2003">
 <defs>
  <style type="text/css">
   <![CDATA[
    .fil0 {fill:#00A0E3;fill-rule:nonzero}
   ]]>
  </style>
 </defs>
 <g id="Layer_x0020_1">
  <metadata id="CorelCorpID_0Corel-Layer"/>
  <path class="fil0" d="M2086 11275l4473 -1220 -4298 -3294c-103,84 -199,176 -285,275 -99,114 -187,237 -260,367l-18 30c-139,252 -230,531 -265,820 -34,279 -15,569 62,854l592 2168zm15661 13227l-5758 3326c-152,88 -326,106 -482,64 -157,-41 -298,-144 -386,-296 -29,-49 -50,-102 -64,-153 -14,-54 -22,-110 -22,-165l-1 -6649c0,-175 71,-335 187,-450 114,-114 275,-187 450,-187 65,0 128,10 188,29 60,18 117,46 168,80l5719 3303c151,87 254,229 296,385 42,156 24,330 -63,482 -27,48 -62,92 -100,131 -39,40 -84,75 -131,102zm-3516 563l1928 -1113 -3851 -2222 0 4446 1923 -1111zm8685 -12211l-2931 4490 5236 0 0 -4490 -2306 0zm-4621 4490l2931 -4490 -2781 0 -2931 4490 2781 0zm-4471 0l2931 -4490 -2781 0 -2931 4490 2781 0zm-4471 0l2931 -4490 -2781 0 -2931 4490 2781 0zm-4470 0l2930 -4490 -5515 0 0 4490 2585 0zm12711 -14961l4484 3437 2126 -581 -592 -2170c-79,-290 -214,-553 -390,-779 -183,-234 -411,-430 -666,-576 -255,-146 -539,-243 -833,-281 -283,-37 -577,-19 -869,59l-3260 890zm4554 4884c-4866,1527 -10299,2811 -15271,4167l19055 0c196,0 374,80 502,208 128,128 208,306 208,502l0 13952c0,592 -119,1158 -334,1675 -223,537 -550,1021 -955,1426 -405,405 -890,733 -1426,955 -517,215 -1083,334 -1675,334l-16984 0c-590,0 -1155,-119 -1672,-334 -536,-223 -1020,-550 -1426,-955l-4 -4c-405,-406 -732,-890 -955,-1425 -215,-517 -334,-1082 -334,-1671l0 -13869 -750 -2749c-128,-469 -158,-944 -103,-1401 58,-473 208,-928 436,-1339l20 -38c171,-299 382,-572 629,-813 241,-235 519,-440 825,-603l57 -29c109,-56 225,-108 344,-154 118,-45 238,-86 361,-119l17784 -4853c477,-130 959,-159 1422,-100 482,62 944,218 1357,455 411,234 779,550 1075,931 285,366 506,793 637,1267l782 2868c51,189 21,381 -68,537 -90,157 -239,280 -427,331l-3112 849zm-21505 3848c126,653 225,1310 301,1970l0 -865 -301 -1106zm19718 -4826l-4484 -3437 -2885 787 4484 3437 2885 -787zm-4601 1256l-4484 -3437 -2885 787 4484 3437 2885 -788zm-4602 1256l-4484 -3437 -2885 787 4484 3437 2885 -787zm14062 9965l-22922 0 0 7332c0,401 80,784 225,1133 151,363 372,691 645,964l3 3c273,273 601,495 964,645 349,145 732,225 1133,225l16984 0c400,0 783,-81 1132,-226 363,-151 691,-373 965,-647 274,-273 496,-601 647,-964 145,-349 225,-732 225,-1132l0 -7332z"/>
 </g>
</svg>
