<?xml version="1.0" encoding="UTF-8"?>
<!DOCTYPE svg PUBLIC "-//W3C//DTD SVG 1.0//EN" "http://www.w3.org/TR/2001/REC-SVG-20010904/DTD/svg10.dtd">
<!-- Creator: CorelDRAW -->
<svg xmlns="http://www.w3.org/2000/svg" xml:space="preserve" width="9.5mm" height="7.0639mm" version="1.0" style="shape-rendering:geometricPrecision; text-rendering:geometricPrecision; image-rendering:optimizeQuality; fill-rule:evenodd; clip-rule:evenodd"
viewBox="0 0 33355 24802"
 xmlns:xlink="http://www.w3.org/1999/xlink"
 xmlns:xodm="http://www.corel.com/coreldraw/odm/2003">
 <defs>
  <style type="text/css">
   <![CDATA[
    .fil0 {fill:#00A0E3;fill-rule:nonzero}
   ]]>
  </style>
 </defs>
 <g id="Layer_x0020_1">
  <metadata id="CorelCorpID_0Corel-Layer"/>
  <path class="fil0" d="M1179 0l30997 0c156,0 308,33 447,91 143,59 274,147 382,255l4 3c108,109 196,240 255,383 58,139 90,291 90,448l0 4050c0,329 -67,645 -187,934 -124,300 -307,571 -532,795 -226,225 -496,407 -795,532 -289,120 -606,187 -934,187l-424 0 0 3136c0,1889 -372,3694 -1046,5343 -699,1711 -1724,3252 -2994,4540 -1274,1292 -2796,2333 -4485,3043 -1629,684 -3413,1062 -5281,1062 -1868,0 -3653,-378 -5281,-1062 -1690,-709 -3212,-1751 -4485,-3043 -1270,-1288 -2294,-2829 -2994,-4540 -674,-1649 -1046,-3454 -1046,-5343l0 -3136 -424 0c-328,0 -645,-67 -934,-187 -298,-124 -569,-307 -794,-532 -443,-442 -719,-1055 -719,-1729l0 -4050c0,-156 32,-308 90,-448 59,-143 147,-274 255,-382l3 -4c110,-108 241,-196 384,-255 139,-58 291,-91 447,-91zm27290 7677l-23583 0 0 3136c0,1625 318,3174 894,4586 598,1467 1476,2786 2563,3890 1085,1100 2384,1989 3826,2595 1387,582 2910,904 4508,904 1597,0 3120,-322 4508,-904 1443,-606 2741,-1494 3826,-2595 1088,-1104 1965,-2423 2563,-3890 576,-1411 894,-2961 894,-4586l0 -3136zm-2578 3958c-174,174 -416,282 -681,282 -266,0 -507,-108 -681,-282 -174,-174 -283,-416 -283,-682 0,-265 108,-507 282,-681 174,-174 416,-282 682,-282 266,0 507,108 681,282 175,175 282,417 282,681 0,266 -108,507 -282,682zm5450 -9621l-29326 0 0 3215c0,59 12,114 32,164 21,52 55,100 96,141 79,79 187,128 305,128l28460 0c59,0 114,-12 164,-32 52,-22 100,-55 141,-96 79,-79 128,-187 128,-305l0 -3215zm-14663 15065c252,0 490,-50 706,-138 224,-93 428,-231 599,-402 334,-334 541,-795 541,-1305 0,-252 -50,-491 -138,-706 -93,-224 -231,-428 -402,-599 -333,-333 -795,-540 -1305,-540 -252,0 -491,50 -706,138 -224,93 -428,231 -599,402 -334,334 -541,796 -541,1305 0,252 50,490 138,706 93,224 231,428 402,599 333,334 795,540 1305,540zm2730 884c-354,354 -779,641 -1253,837 -456,190 -955,294 -1476,294 -521,0 -1021,-104 -1476,-294 -474,-196 -900,-484 -1253,-837 -698,-698 -1131,-1664 -1131,-2729 0,-521 104,-1020 293,-1476 197,-474 484,-900 837,-1253 354,-354 779,-641 1253,-837 456,-189 955,-294 1476,-294 521,0 1021,104 1476,293 474,197 900,484 1253,837 354,354 641,779 837,1253 189,456 294,955 294,1476 0,521 -104,1021 -293,1476 -197,474 -484,899 -837,1253zm-2730 1951c635,0 1240,-126 1790,-354 571,-236 1087,-584 1520,-1017 433,-433 781,-948 1017,-1519 228,-551 354,-1155 354,-1791 0,-636 -126,-1240 -354,-1790 -236,-571 -584,-1087 -1017,-1520 -433,-433 -948,-781 -1519,-1017 -551,-228 -1156,-354 -1791,-354 -635,0 -1240,126 -1790,354 -571,236 -1087,584 -1520,1017 -432,431 -780,948 -1017,1519 -228,551 -354,1155 -354,1791 0,635 126,1240 354,1790 237,572 585,1088 1016,1520 433,432 949,781 1519,1016 551,228 1156,354 1791,354zm4734 54c-615,615 -1354,1113 -2175,1453 -790,327 -1655,508 -2559,508 -904,0 -1769,-181 -2559,-508 -819,-339 -1558,-837 -2174,-1453 -617,-615 -1114,-1354 -1454,-2175 -327,-790 -508,-1655 -508,-2559 0,-904 181,-1770 508,-2559 340,-821 837,-1559 1453,-2175 617,-616 1356,-1114 2175,-1453 790,-327 1654,-508 2559,-508 904,0 1769,181 2559,508 821,340 1559,837 2175,1453 615,615 1113,1354 1453,2175 327,789 508,1655 508,2559 0,904 -181,1769 -508,2559 -340,821 -837,1559 -1453,2175z"/>
 </g>
</svg>
