<?xml version="1.0" encoding="UTF-8"?>
<!DOCTYPE svg PUBLIC "-//W3C//DTD SVG 1.0//EN" "http://www.w3.org/TR/2001/REC-SVG-20010904/DTD/svg10.dtd">
<!-- Creator: CorelDRAW -->
<svg xmlns="http://www.w3.org/2000/svg" xml:space="preserve" width="9.034mm" height="9mm" version="1.0" style="shape-rendering:geometricPrecision; text-rendering:geometricPrecision; image-rendering:optimizeQuality; fill-rule:evenodd; clip-rule:evenodd"
viewBox="0 0 23249 23162"
 xmlns:xlink="http://www.w3.org/1999/xlink"
 xmlns:xodm="http://www.corel.com/coreldraw/odm/2003">
 <defs>
  <style type="text/css">
   <![CDATA[
    .fil0 {fill:#00A0E3;fill-rule:nonzero}
   ]]>
  </style>
 </defs>
 <g id="Layer_x0020_1">
  <metadata id="CorelCorpID_0Corel-Layer"/>
  <path class="fil0" d="M23150 22829c-73,125 -164,209 -275,262 -108,51 -230,71 -366,71l-21839 -4c-178,0 -319,-32 -425,-97 -114,-68 -187,-171 -224,-309 -13,-50 -19,-99 -20,-147 -1,-126 39,-243 111,-336 72,-93 176,-163 302,-196 50,-13 104,-21 160,-21 419,-4 839,-4 1258,-3l1285 0c744,-1 1489,-2 2233,5 78,1 126,-8 147,-29 21,-21 29,-70 28,-147 -5,-388 -8,-778 -7,-1167l7 -1167c1,-65 -6,-105 -24,-124 -20,-21 -64,-34 -134,-44 -1167,-170 -2163,-569 -2986,-1196 -821,-626 -1468,-1479 -1939,-2560 -66,-152 -87,-290 -65,-411 23,-129 94,-237 207,-325 100,-77 206,-118 313,-123 110,-5 221,27 331,91 146,86 205,221 262,355l3 8c324,748 763,1362 1316,1845 556,485 1230,839 2016,1063 133,38 272,61 410,83l219 38c34,7 56,9 61,4 5,-4 8,-24 8,-63l-1 -3296c0,-41 -12,-75 -29,-103 -20,-33 -51,-66 -85,-100l-1300 -1300c-75,-76 -142,-156 -184,-248 -45,-98 -64,-207 -37,-331 23,-105 70,-194 132,-264 65,-74 149,-128 241,-158 91,-29 191,-34 290,-13 95,21 191,68 275,143 164,144 317,299 470,454l227 227 2 -1097c3,-173 58,-318 153,-421 97,-106 233,-166 395,-168 162,-2 300,56 399,159 97,101 154,245 160,418 7,1020 2,2040 2,3060 157,-174 337,-341 503,-507 226,-227 453,-454 697,-692 27,-27 56,-51 84,-72 121,-89 252,-129 379,-121 129,8 251,63 350,165l61 72c91,124 127,255 106,392 -20,129 -92,259 -218,386l-292 296c-459,466 -920,933 -1394,1382 -107,101 -185,203 -232,314 -46,109 -63,232 -51,377 14,160 19,324 18,489 -1,165 -7,328 -17,487 -4,75 1,114 17,126 19,14 67,13 138,2 483,-72 937,-205 1361,-399 424,-194 820,-451 1186,-768 393,-342 719,-727 978,-1152 264,-432 461,-907 592,-1420 18,-70 22,-123 7,-164 -15,-42 -52,-81 -115,-125 -978,-677 -1763,-1481 -2354,-2408 -594,-931 -994,-1986 -1200,-3162 -10,-58 -28,-94 -52,-116 -26,-22 -67,-36 -121,-46 -819,-146 -1589,-121 -2310,79 -716,198 -1386,570 -2007,1117 -285,251 -532,532 -743,836 -212,306 -388,637 -532,988 -44,109 -103,203 -182,274 -83,73 -187,120 -318,130 -93,7 -181,-7 -259,-37 -97,-38 -179,-102 -237,-183 -59,-81 -96,-179 -103,-286 -7,-90 7,-188 45,-286 170,-438 384,-847 642,-1224 256,-373 556,-717 900,-1028 613,-553 1281,-965 2002,-1232 721,-267 1495,-392 2321,-372 113,3 228,11 342,23l336 42c104,14 158,21 166,15 5,-4 7,-53 7,-151 9,-988 179,-1918 501,-2790 328,-884 812,-1710 1448,-2476 320,-387 674,-738 1057,-1056 382,-317 793,-601 1226,-854l45 -12 358 0 45 12c329,191 649,400 952,631 304,231 592,482 857,757 801,830 1411,1741 1819,2736 401,978 606,2038 604,3180l3 184c4,3 64,-8 180,-31l20 -4c703,-138 1366,-122 1981,56 605,174 1162,505 1666,998 439,430 758,911 954,1438 196,527 269,1101 218,1716 -7,85 -3,154 22,208 24,53 70,101 146,146 260,155 493,340 703,549 209,208 395,441 561,694 176,266 311,548 417,839 106,290 183,591 242,898 21,196 21,961 0,1156 -51,243 -110,486 -186,724 -76,238 -172,471 -299,695 -529,938 -1319,1604 -2230,1944 -910,340 -1941,355 -2954,-7 -69,-24 -99,-33 -102,-31 -6,6 -7,51 -7,120l7 1122c0,374 -2,749 -8,1122 -1,87 6,142 30,168 23,25 76,36 165,35 902,-5 1806,-5 2708,-5l2223 -3c137,-1 259,20 366,71 110,53 202,137 274,262l12 45 0 249 89 -17 -100 173zm-5763 -8720c133,-137 267,-270 402,-404 178,-176 355,-353 535,-524 91,-86 195,-138 305,-154 110,-16 224,5 338,61 104,51 181,122 232,210 51,89 76,194 74,310 -2,99 -31,183 -76,258 -42,72 -98,133 -154,190l-1540 1536c-40,40 -70,80 -89,124 -19,43 -28,91 -28,147l4 1110 -4 1110c0,60 10,106 32,140 23,36 61,65 114,93 261,136 531,229 809,283 277,54 564,70 858,53 769,-44 1517,-400 2055,-981 495,-534 812,-1259 804,-2105 -5,-634 -163,-1186 -460,-1650 -302,-472 -750,-856 -1332,-1148 -177,-88 -289,-181 -349,-304 -60,-123 -63,-269 -23,-465 38,-183 60,-366 67,-550 6,-182 -4,-367 -33,-553l-35 -189c-160,-711 -597,-1311 -1174,-1706 -577,-395 -1295,-585 -2016,-475l-188 35c-178,40 -348,95 -510,162 -645,269 -1142,744 -1438,1322 -296,578 -392,1262 -237,1950 39,174 95,349 168,523 103,247 124,441 54,597 -71,158 -229,266 -483,337 -587,164 -1115,552 -1466,1082 -325,491 -498,1105 -425,1776 40,369 155,709 327,1008 262,457 656,819 1113,1053 458,234 981,340 1502,284 336,-37 673,-142 991,-325l36 -20c39,-21 79,-42 83,-62 34,-209 25,-427 17,-644l-5 -144c-2,-75 -68,-132 -131,-186l-76 -68 -602 -605c-254,-253 -509,-508 -774,-780 -120,-122 -181,-266 -185,-407 -5,-146 51,-289 163,-402 116,-116 254,-174 396,-170 139,3 281,64 409,183 89,83 176,171 263,258 180,179 362,355 545,531 -6,-309 -3,-619 -2,-929 -1,-465 -1,-932 4,-1397l0 -6c3,-183 66,-337 166,-445 102,-111 245,-175 404,-174l4 0c164,3 305,72 404,188 96,111 154,268 156,449l1 607zm-5243 -7588c53,-72 107,-144 170,-212l205 -212c72,-71 146,-139 221,-201 113,-93 250,-135 383,-130 137,5 272,59 372,158 104,103 160,230 165,362 6,129 -37,265 -129,387 -43,59 -95,110 -145,160l-277 280c-265,268 -531,537 -804,796 -62,58 -104,118 -129,182 -25,65 -36,139 -34,224 8,335 6,672 5,1008l1 3614 -5 62c-3,22 -19,38 -13,41 5,3 12,-20 28,-36l45 -41c163,-130 324,-267 477,-412 151,-142 297,-293 435,-454 23,-28 39,-53 46,-79 8,-27 8,-59 4,-97l-5 -42c-25,-212 -51,-427 -39,-642 37,-651 195,-1242 475,-1766 277,-517 675,-970 1197,-1353 38,-28 64,-57 80,-90 17,-34 27,-76 32,-126 33,-320 40,-641 23,-961 -17,-319 -58,-636 -120,-952 -195,-999 -553,-1891 -1071,-2676 -522,-792 -1208,-1477 -2052,-2059 -39,-27 -70,-37 -97,-36 -29,2 -62,19 -101,46 -158,110 -316,223 -467,341 -151,118 -297,241 -434,373 -915,886 -1569,1868 -1945,2944 -371,1060 -474,2213 -297,3458 132,925 422,1767 860,2525 446,773 1046,1461 1787,2062l41 39c14,14 20,36 24,33 10,-6 -12,-15 -14,-34l-4 -56 1 -884c0,-552 -1,-1101 3,-1717 0,-61 -9,-113 -28,-159 -20,-46 -51,-90 -93,-133 -367,-361 -732,-727 -1097,-1092l-380 -381c-44,-44 -89,-89 -129,-137 -105,-127 -157,-268 -156,-405 1,-139 58,-273 168,-383 113,-112 248,-169 387,-169 136,0 274,56 400,168 150,134 288,277 427,420l499 524 2 -3701c0,-161 40,-296 114,-398 77,-107 190,-178 330,-203 37,-7 74,-10 109,-11 136,-1 260,44 355,125 94,80 161,195 187,335 7,39 11,80 11,122 4,405 3,812 2,1217l-1 433zm-1107 10335c-520,711 -1129,1277 -1826,1696 -703,422 -1495,695 -2375,817 -96,13 -151,32 -177,64 -26,32 -33,90 -32,177 5,384 9,759 9,1121 0,374 -3,749 -9,1121 -1,87 6,142 29,168 23,25 75,36 164,35 1344,-10 2689,-10 4033,-1 82,1 134,-7 157,-30 23,-22 32,-72 32,-155 -6,-1300 -6,-2601 -5,-3901l0 -1111zm1109 1838l0 802c0,812 0,1625 -4,2437 0,57 7,88 22,100 19,14 60,18 117,18l1905 -4 1905 6c74,0 117,-9 135,-30 20,-22 26,-70 25,-142 -6,-524 -5,-1048 -4,-1572l1 -669c0,-92 56,-126 28,-126 -21,0 -70,17 -146,42l-11 4c-693,233 -1355,291 -1986,174 -631,-117 -1229,-408 -1792,-874l-193 -168zm10981 -15319c-74,266 -171,520 -300,754 -150,273 -345,521 -598,733 -422,353 -874,579 -1351,666 -466,85 -953,36 -1457,-156 -511,-195 -918,-485 -1218,-863 -300,-379 -492,-845 -570,-1391 -100,-698 84,-1377 461,-1923 383,-556 966,-975 1648,-1138l163 -52 28 -5 942 0 29 5 63 22c45,16 90,32 144,46 362,98 683,255 962,465 279,210 517,476 714,793 170,273 262,573 354,872l23 87 0 1110 -36 -24zm-4392 -616c0,459 185,876 484,1178 299,302 714,490 1171,491l11 0c452,-1 868,-189 1171,-488 302,-299 492,-709 494,-1156l0 -21c-4,-456 -196,-873 -501,-1176 -304,-303 -721,-492 -1174,-490l-10 0c-449,4 -861,194 -1159,496 -299,302 -487,716 -487,1166zm-17624 10576c1,154 -60,295 -159,397 -100,102 -238,168 -390,169l-4 0c-150,0 -288,-63 -388,-164 -100,-101 -163,-240 -164,-392l0 -4c0,-155 60,-296 158,-397 99,-103 238,-166 391,-167 152,-1 292,61 392,162 100,101 162,241 163,396z"/>
 </g>
</svg>
