<?xml version="1.0" encoding="UTF-8"?>
<!DOCTYPE svg PUBLIC "-//W3C//DTD SVG 1.0//EN" "http://www.w3.org/TR/2001/REC-SVG-20010904/DTD/svg10.dtd">
<!-- Creator: CorelDRAW -->
<svg xmlns="http://www.w3.org/2000/svg" xml:space="preserve" width="9.2999mm" height="6.0953mm" version="1.0" style="shape-rendering:geometricPrecision; text-rendering:geometricPrecision; image-rendering:optimizeQuality; fill-rule:evenodd; clip-rule:evenodd"
viewBox="0 0 22133 14506"
 xmlns:xlink="http://www.w3.org/1999/xlink"
 xmlns:xodm="http://www.corel.com/coreldraw/odm/2003">
 <defs>
  <style type="text/css">
   <![CDATA[
    .fil0 {fill:#00A0E3;fill-rule:nonzero}
   ]]>
  </style>
 </defs>
 <g id="Layer_x0020_1">
  <metadata id="CorelCorpID_0Corel-Layer"/>
  <path class="fil0" d="M21089 9106l1 -6292 -5 -619c-1,-55 -9,-104 -22,-144 -13,-38 -32,-70 -55,-92 -25,-24 -59,-43 -100,-56 -43,-14 -96,-21 -154,-22l-632 5c-72,1 -133,8 -181,20 -43,11 -77,29 -99,51 -21,22 -38,55 -50,98 -12,46 -18,107 -18,180l0 7135c0,51 5,95 15,131 9,32 23,58 39,76 16,17 39,31 69,41 32,11 73,17 121,19 210,6 414,8 624,5l212 -8c40,-2 76,-8 104,-17 26,-8 46,-20 61,-34 16,-15 29,-37 39,-64 11,-30 19,-66 23,-109l7 -132 1 -173zm-2364 -3425l1 -3973c0,-121 1,-243 -3,-367 -2,-53 -8,-98 -19,-135 -10,-34 -24,-61 -41,-80 -17,-18 -41,-34 -73,-45 -35,-13 -78,-22 -129,-26 -65,-6 -135,-9 -205,-10l-386 1c-83,0 -155,3 -214,14 -54,10 -96,26 -124,50 -28,25 -50,65 -66,124 -17,64 -27,150 -28,260 -10,1019 -7,2039 -4,3058l5 5396c0,64 7,120 20,165 12,43 31,78 54,103 23,24 55,45 95,59 43,15 96,25 157,29 122,7 244,4 365,1l191 -4c96,0 172,-6 230,-18 52,-11 89,-27 111,-48 21,-21 37,-57 47,-109 11,-56 16,-132 16,-227l1 -4217zm-2310 516c16,-311 0,-653 -6,-965 -197,-8 -394,-6 -609,-5l-73 0 -5 273c-3,126 -6,251 -5,374 1,109 6,218 17,326l114 0c195,0 381,1 567,-4zm-8821 -1967l16 -95c4,-40 5,-80 4,-120l-10 -118 -15 -88 -35 2 -72 13c-55,14 -112,38 -165,68 -53,30 -104,69 -149,111 -40,39 -75,81 -100,125 -15,26 -27,53 -35,79l223 19 247 8 89 -3zm-113 1960c57,-247 78,-682 107,-952l-1830 -12 -37 3 -10 483c1,155 -5,334 8,487 541,32 1171,0 1722,-2l41 -6zm-2916 4072c13,-10 25,-23 35,-38 12,-17 24,-39 34,-62l26 -77 17 -76 10 -84 3 -91 -1 -8344c0,-95 -7,-173 -20,-233 -13,-56 -32,-97 -58,-123 -27,-27 -68,-47 -125,-61 -61,-15 -139,-23 -235,-25l-411 -1c-102,0 -184,6 -246,19 -57,12 -97,30 -122,54 -24,24 -41,65 -53,122 -12,62 -18,145 -18,248l2 8477c0,69 6,127 18,172 11,42 27,74 48,96 20,21 51,37 91,50 44,13 100,20 167,22l185 2 186 -3 380 -15 52 -9c15,-4 27,-11 36,-19zm-2267 -680c18,-18 31,-48 40,-89 10,-46 15,-106 15,-180l0 -7134c0,-50 -5,-93 -13,-128 -8,-33 -20,-59 -35,-79 -12,-16 -30,-30 -54,-41 -26,-12 -59,-21 -96,-26 -76,-10 -154,-19 -234,-25 -77,-6 -155,-9 -233,-9 -80,0 -159,3 -237,9 -76,6 -152,15 -226,27l-70 39c-28,16 -49,34 -64,53 -15,19 -25,40 -31,61 -10,34 -16,74 -19,117l-3 142c0,735 -10,1515 -19,2299 -20,1586 -40,3193 23,4731 3,61 11,112 23,151 10,35 25,63 43,80 17,17 43,30 77,39 39,11 87,17 144,18 212,5 424,3 635,2l60 0c75,0 136,-6 184,-17 42,-9 73,-23 91,-41zm19826 -7440l1 46c-4,1041 -3,2082 -3,3122 1,1347 25,2713 -1,4059 -5,186 -42,357 -105,510 -65,157 -159,295 -276,408 -117,114 -258,203 -416,263 -154,58 -326,89 -510,88l-38 -1c-130,-3 -258,-2 -384,-2l-34 0c-239,2 -477,5 -709,-20l-73 115c-58,92 -121,176 -190,251 -70,76 -147,143 -232,198 -88,58 -185,104 -290,134 -105,30 -219,46 -342,44l-452 -6c-96,0 -193,4 -292,12l-124 3c-164,-4 -318,-42 -458,-105 -149,-68 -282,-165 -395,-282 -108,-112 -198,-244 -263,-386 -65,-140 -107,-291 -119,-443l-4 -134c7,-304 10,-607 11,-909 -2,-636 7,-1281 -11,-1916l-224 -6 -530 4c-25,45 -41,99 -53,157 -14,68 -23,144 -31,218l-2 22c-26,243 -67,482 -119,716 -53,235 -120,467 -199,695 -79,226 -171,448 -275,664 -104,216 -221,430 -349,638 -51,84 -94,173 -129,264 -35,90 -63,185 -86,281 -25,105 -44,209 -59,313 -15,105 -28,212 -39,318 -20,190 -35,382 -43,573 -8,192 -11,383 -10,573 1,188 7,379 16,572 9,190 21,385 35,582l4 50c5,90 3,172 -7,244 -10,74 -30,139 -58,194 -40,79 -93,139 -159,179 -66,41 -144,63 -235,65 -238,7 -366,-67 -436,-178 -69,-108 -81,-247 -91,-379l-4 -44c-24,-262 -42,-523 -53,-782 -10,-260 -13,-521 -8,-781 6,-262 20,-524 44,-786 24,-263 58,-524 102,-782 17,-101 40,-201 67,-299 28,-99 61,-198 99,-295 38,-96 81,-192 129,-287 49,-96 102,-191 159,-282 75,-121 143,-245 203,-371 61,-127 115,-257 164,-387 49,-132 94,-269 136,-409 41,-140 79,-282 114,-425 63,-253 102,-511 130,-772 27,-259 43,-525 59,-789l1 -12c12,-197 24,-395 38,-565 7,-83 11,-166 11,-246 0,-77 -2,-155 -7,-233 -5,-78 -15,-157 -28,-234 -12,-76 -29,-151 -49,-225 -29,-109 -69,-218 -121,-318 -45,-89 -100,-171 -165,-240 -54,-58 -117,-109 -189,-148 -66,-36 -141,-63 -225,-78 -75,-13 -148,-32 -218,-57 -69,-25 -135,-57 -196,-94 -63,-39 -122,-85 -177,-140 -55,-54 -105,-116 -150,-184 -13,-21 -30,-40 -48,-56 -19,-16 -40,-31 -63,-42 -28,-14 -59,-26 -92,-34 -34,-9 -71,-14 -109,-16l-190 -10 -179 -5 -177 5 -174 15c-78,10 -153,11 -223,1 -72,-10 -139,-30 -201,-62 -63,-32 -121,-75 -171,-129 -50,-54 -94,-119 -130,-194 -31,-64 -68,-120 -109,-166 -43,-48 -92,-87 -144,-118 -55,-32 -117,-57 -183,-74 -67,-18 -140,-29 -218,-35l-170 -5 -171 6 -357 35c-54,6 -109,7 -160,2 -53,-5 -104,-18 -153,-37 -51,-20 -99,-47 -143,-83 -44,-35 -84,-79 -122,-131 -74,-103 -135,-181 -188,-236 -48,-49 -89,-77 -124,-85 -37,-7 -89,3 -156,29 -72,28 -165,76 -280,140 -43,24 -80,50 -109,76 -28,25 -49,52 -64,79 -15,30 -27,64 -33,105 -6,42 -8,91 -5,146 13,241 23,486 31,733 7,245 12,492 14,740 1,247 -1,495 -7,740 -6,247 -16,493 -29,735 -7,130 -19,262 -38,392 -19,131 -47,261 -86,389 -41,134 -94,264 -164,388 -70,124 -156,242 -263,351 -62,63 -129,122 -198,173 -70,52 -146,98 -225,134 -84,39 -173,68 -266,85 -94,17 -192,23 -293,14l-20 -1c18,94 43,184 73,270 36,104 81,204 135,299 63,113 137,220 221,320 87,103 186,201 294,292 90,76 175,157 253,241 81,87 155,178 223,272 65,91 126,187 181,285 57,101 108,206 154,312 43,101 80,203 112,304 31,102 58,205 80,307 21,100 40,201 56,301l44 303c30,224 53,448 69,669 16,227 26,456 29,686 3,228 0,455 -8,680 -9,227 -23,452 -42,673l-2 13c-9,110 -19,223 -67,327 -49,106 -137,198 -299,259 -31,7 -87,14 -119,15 -101,-12 -185,-30 -254,-61 -72,-32 -129,-77 -175,-141 -43,-59 -69,-125 -81,-202 -12,-74 -12,-160 -5,-262 16,-227 29,-452 37,-674 8,-223 11,-446 8,-665 -3,-218 -12,-439 -29,-661 -17,-222 -41,-443 -74,-663 -25,-171 -61,-336 -109,-494 -47,-157 -107,-308 -179,-450 -72,-141 -158,-276 -259,-404 -102,-128 -219,-250 -354,-363 -156,-132 -294,-277 -412,-432 -119,-157 -219,-326 -298,-502 -79,-177 -139,-365 -177,-560 -38,-194 -56,-396 -54,-604 1,-87 -6,-138 -19,-166 -7,-15 -19,-20 -32,-20 -47,0 -112,6 -182,13l-34 4 -8 75 3 1650 7 895c2,138 -5,272 -25,401 -20,130 -53,255 -102,372 -53,124 -123,240 -214,345 -91,105 -205,200 -343,283l-92 51 -98 43c-37,13 -76,25 -116,33 -41,7 -83,12 -126,12l-963 4c-127,2 -246,-12 -355,-41 -113,-30 -217,-77 -312,-138 -91,-59 -174,-131 -247,-213 -73,-82 -139,-176 -196,-279l-34 -52 -24 -23 -22 -5 -54 2c-272,34 -538,29 -803,25l-366 -3c-149,2 -290,-25 -419,-75 -137,-53 -262,-133 -369,-231 -108,-99 -200,-218 -271,-350 -70,-131 -120,-277 -145,-426 -9,-54 -13,-108 -15,-159l-2 -2214c0,-1786 0,-3591 -4,-4896 0,-133 14,-259 41,-375 28,-116 70,-226 126,-329 56,-102 125,-196 208,-281 82,-85 178,-164 286,-235 42,-28 86,-51 129,-68 43,-18 87,-31 130,-40l118 -18 116 -6 509 -4 745 5 30 -84c56,-126 122,-241 198,-344 76,-103 164,-193 264,-266 103,-77 219,-136 347,-175 127,-39 268,-57 423,-54l137 4c186,5 373,10 560,-6l126 -3c163,4 316,43 454,107 147,69 279,167 390,284 105,111 192,242 256,381 63,138 104,286 116,434l3 134c-8,319 -12,637 -12,954 3,622 -1,1248 12,1869l10 68 77 10c35,0 73,-3 111,-8l94 -15c0,-16 0,-36 5,-58l5 -25c23,-111 54,-218 92,-318 40,-102 88,-198 145,-288 60,-93 130,-179 212,-257 82,-78 175,-147 281,-207l164 -87 178 -80c62,-25 126,-49 191,-68 65,-19 133,-35 202,-47l55 -7 -21 -164c-10,-75 -12,-148 -5,-218 6,-71 21,-139 46,-204 25,-67 60,-130 106,-189 45,-58 100,-112 167,-162 92,-69 185,-137 280,-200 96,-64 195,-124 296,-176 108,-55 220,-103 339,-140 118,-37 243,-64 373,-75 103,-9 203,-8 300,4 97,11 191,35 280,70 92,36 178,85 257,147 79,62 153,138 219,228l24 26 31 24 47 27c122,-17 243,-25 363,-24 123,1 245,11 365,31 133,22 265,57 395,103 128,46 254,104 376,174l123 79c40,28 79,58 115,90 39,34 76,71 109,109 34,39 65,80 93,123l33 43 31 23 35 10 54 0c153,-12 305,-16 455,-8 150,8 298,30 442,69 150,41 295,102 431,188 135,85 263,196 380,337l28 13 102 31c129,40 251,89 365,147 115,58 223,126 322,204 101,79 193,170 276,271 82,101 156,214 218,338 11,21 23,40 35,54 11,14 24,25 36,32 12,7 28,13 45,16 19,3 41,5 66,3 97,-5 192,-7 285,-7 172,2 395,19 562,4l5 -45c10,-569 0,-1145 -1,-1714l-9 -953c-2,-138 5,-272 26,-399 20,-128 55,-252 106,-368 54,-121 126,-234 219,-336 93,-101 208,-192 349,-271l76 -41 84 -37c33,-12 69,-23 106,-31 37,-8 77,-12 117,-13l327 -6c206,-4 414,-9 624,-6 159,2 304,22 436,60 133,38 253,96 360,173 106,76 198,171 278,284 79,111 146,241 201,389l5 12c69,2 141,-4 211,-6l644 5c103,0 208,-3 313,-8l54 -1c163,0 315,40 451,107 149,73 281,180 390,305 100,114 181,247 240,383 59,139 95,284 102,421l0 9z"/>
 </g>
</svg>
