<?xml version="1.0" encoding="UTF-8"?>
<!DOCTYPE svg PUBLIC "-//W3C//DTD SVG 1.0//EN" "http://www.w3.org/TR/2001/REC-SVG-20010904/DTD/svg10.dtd">
<!-- Creator: CorelDRAW -->
<svg xmlns="http://www.w3.org/2000/svg" xml:space="preserve" width="9mm" height="9mm" version="1.0" style="shape-rendering:geometricPrecision; text-rendering:geometricPrecision; image-rendering:optimizeQuality; fill-rule:evenodd; clip-rule:evenodd"
viewBox="0 0 21516 21516"
 xmlns:xlink="http://www.w3.org/1999/xlink"
 xmlns:xodm="http://www.corel.com/coreldraw/odm/2003">
 <defs>
  <style type="text/css">
   <![CDATA[
    .fil0 {fill:#00AFEF;fill-rule:nonzero}
   ]]>
  </style>
 </defs>
 <g id="Layer_x0020_1">
  <metadata id="CorelCorpID_0Corel-Layer"/>
  <path class="fil0" d="M10758 4647c1685,0 3212,684 4318,1790l3 3c1105,1106 1790,2633 1790,4318 0,1685 -684,3212 -1790,4318l-3 3c-1106,1105 -2633,1790 -4318,1790 -1685,0 -3212,-684 -4318,-1790l-3 -3c-1105,-1106 -1790,-2633 -1790,-4318 0,-1685 684,-3212 1790,-4318l3 -3c1106,-1105 2633,-1790 4318,-1790zm-7607 -305c-329,-329 -329,-863 0,-1192 329,-329 863,-329 1192,0l1590 1590c329,329 329,863 0,1191 -329,329 -862,329 -1191,0l-1590 -1590zm-2308 7258c-465,0 -843,-377 -843,-843 0,-465 377,-843 843,-843l2248 0c465,0 842,377 842,843 0,465 -377,843 -842,843l-2248 0zm3500 6764c-329,329 -863,329 -1192,0 -329,-329 -329,-863 0,-1192l1590 -1590c329,-329 863,-329 1191,0 329,329 329,862 0,1191l-1590 1590zm7258 2308c0,465 -377,843 -843,843 -465,0 -843,-377 -843,-843l0 -2248c0,-465 377,-842 843,-842 465,0 843,377 843,842l0 2248zm6764 -3500c329,329 329,863 0,1192 -329,329 -863,329 -1192,0l-1590 -1590c-329,-329 -329,-863 0,-1191 329,-329 862,-329 1191,0l1590 1590zm2308 -7258c465,0 843,377 843,843 0,465 -377,843 -843,843l-2248 0c-465,0 -842,-377 -842,-843 0,-465 377,-843 842,-843l2248 0zm-3500 -6764c329,-329 863,-329 1192,0 329,329 329,863 0,1192l-1590 1590c-329,329 -863,329 -1191,0 -329,-329 -329,-862 0,-1191l1590 -1590zm-7258 -2308c0,-465 377,-843 843,-843 465,0 843,377 843,843l0 2248c0,465 -377,842 -843,842 -465,0 -843,-377 -843,-842l0 -2248zm3974 6784c-800,-800 -1908,-1295 -3131,-1295 -1224,0 -2331,495 -3131,1295 -800,800 -1295,1907 -1295,3131 0,1224 495,2331 1295,3131 800,800 1907,1295 3131,1295 1224,0 2331,-495 3131,-1295 800,-800 1295,-1908 1295,-3131 0,-1224 -495,-2331 -1295,-3131z"/>
 </g>
</svg>
