<?xml version="1.0" encoding="UTF-8"?>
<!DOCTYPE svg PUBLIC "-//W3C//DTD SVG 1.0//EN" "http://www.w3.org/TR/2001/REC-SVG-20010904/DTD/svg10.dtd">
<!-- Creator: CorelDRAW -->
<svg xmlns="http://www.w3.org/2000/svg" xml:space="preserve" width="9mm" height="8.9999mm" version="1.0" style="shape-rendering:geometricPrecision; text-rendering:geometricPrecision; image-rendering:optimizeQuality; fill-rule:evenodd; clip-rule:evenodd"
viewBox="0 0 30376 30376"
 xmlns:xlink="http://www.w3.org/1999/xlink"
 xmlns:xodm="http://www.corel.com/coreldraw/odm/2003">
 <defs>
  <style type="text/css">
   <![CDATA[
    .fil0 {fill:#00AFEF;fill-rule:nonzero}
   ]]>
  </style>
 </defs>
 <g id="Layer_x0020_1">
  <metadata id="CorelCorpID_0Corel-Layer"/>
  <path class="fil0" d="M3945 9309l5364 0 0 -5364c0,-1083 444,-2068 1158,-2782l4 -5c715,-714 1700,-1158 2783,-1158l17122 0 0 17122c0,1082 -444,2068 -1158,2783l-5 4c-715,714 -1700,1158 -2782,1158l-5364 0 0 5364c0,1082 -444,2068 -1158,2782l-4 5c-715,714 -1700,1158 -2783,1158l-17122 0 0 -17122c0,-1083 444,-2068 1158,-2783l5 -4c715,-714 1700,-1158 2782,-1158zm7813 0l9309 0 0 9309 5364 0c412,0 787,-168 1058,-438 270,-271 438,-646 438,-1058l0 -14673 -14673 0c-412,0 -787,168 -1058,438 -270,271 -438,646 -438,1058l0 5364zm6860 11758l-9309 0 0 -9309 -5364 0c-412,0 -787,168 -1058,438 -270,271 -438,646 -438,1058l0 14673 14673 0c412,0 787,-168 1058,-438 270,-271 438,-646 438,-1058l0 -5364zm-6860 -9309l0 6860 6860 0 0 -6860 -6860 0z"/>
 </g>
</svg>
