<?xml version="1.0" encoding="UTF-8"?>
<!DOCTYPE svg PUBLIC "-//W3C//DTD SVG 1.0//EN" "http://www.w3.org/TR/2001/REC-SVG-20010904/DTD/svg10.dtd">
<!-- Creator: CorelDRAW -->
<svg xmlns="http://www.w3.org/2000/svg" xml:space="preserve" width="7mm" height="7mm" version="1.0" style="shape-rendering:geometricPrecision; text-rendering:geometricPrecision; image-rendering:optimizeQuality; fill-rule:evenodd; clip-rule:evenodd"
viewBox="0 0 13354 13354"
 xmlns:xlink="http://www.w3.org/1999/xlink"
 xmlns:xodm="http://www.corel.com/coreldraw/odm/2003">
 <defs>
  <style type="text/css">
   <![CDATA[
    .fil0 {fill:#00A0E3;fill-rule:nonzero}
   ]]>
  </style>
 </defs>
 <g id="Layer_x0020_1">
  <metadata id="CorelCorpID_0Corel-Layer"/>
  <path class="fil0" d="M3318 0l6718 0c910,0 1739,373 2342,974l1 1 1 1c601,602 974,1432 974,2342l0 6718c0,911 -374,1740 -976,2343l1 1c-601,601 -1431,974 -2344,974l-6718 0c-913,0 -1743,-374 -2344,-974l1 -1c-602,-602 -976,-1432 -976,-2343l0 -6718c0,-910 373,-1739 974,-2342l1 -1 1 -1c602,-601 1432,-974 2342,-974zm6693 3629c-24,-143 -144,-260 -286,-286l-407 -1224 -722 721 361 1082 -1943 1943 0 -3429c0,-186 -151,-337 -337,-337 -186,0 -337,151 -337,337l0 3429 -1943 -1943 361 -1082 -722 -722 -407 1225c-143,24 -260,144 -286,286l-1224 407 721 722 1082 -361 1943 1943 -3429 0c-186,0 -337,151 -337,337 0,186 151,337 337,337l3429 0 -1943 1943 -1082 -361 -721 722 1224 407c24,143 144,260 286,286l407 1225 722 -722 -361 -1082 1943 -1943 0 3429c0,186 151,337 337,337 186,0 337,-151 337,-337l0 -3429 1943 1943 -361 1082 722 721 407 -1224c143,-24 260,-144 286,-286l1225 -407 -722 -722 -1082 361 -1943 -1943 3429 0c186,0 337,-151 337,-337 0,-186 -151,-337 -337,-337l-3429 0 1943 -1943 1082 361 722 -722 -1225 -407zm25 -2507l-6718 0c-605,0 -1154,246 -1550,643l-2 2c-397,397 -643,946 -643,1550l0 6718c0,605 246,1154 643,1550l2 0c398,398 947,645 1550,645l6718 0c603,0 1153,-247 1550,-645l2 0c397,-397 643,-946 643,-1550l0 -6718c0,-605 -246,-1154 -643,-1550l-2 -2c-397,-397 -946,-643 -1550,-643z"/>
 </g>
</svg>
