<?xml version="1.0" encoding="UTF-8"?>
<!DOCTYPE svg PUBLIC "-//W3C//DTD SVG 1.0//EN" "http://www.w3.org/TR/2001/REC-SVG-20010904/DTD/svg10.dtd">
<!-- Creator: CorelDRAW -->
<svg xmlns="http://www.w3.org/2000/svg" xml:space="preserve" width="9mm" height="9mm" version="1.0" style="shape-rendering:geometricPrecision; text-rendering:geometricPrecision; image-rendering:optimizeQuality; fill-rule:evenodd; clip-rule:evenodd"
viewBox="0 0 24625 24625"
 xmlns:xlink="http://www.w3.org/1999/xlink"
 xmlns:xodm="http://www.corel.com/coreldraw/odm/2003">
 <defs>
  <style type="text/css">
   <![CDATA[
    .fil0 {fill:#00A0E3;fill-rule:nonzero}
   ]]>
  </style>
 </defs>
 <g id="Layer_x0020_1">
  <metadata id="CorelCorpID_0Corel-Layer"/>
  <path class="fil0" d="M6119 0l12388 0c1678,0 3207,688 4318,1797l2 2 2 2c1109,1111 1797,2640 1797,4318l0 12388c0,1679 -689,3209 -1799,4320l2 2c-1108,1108 -2638,1797 -4322,1797l-12388 0c-1683,0 -3214,-689 -4322,-1797l2 -2c-1110,-1111 -1799,-2640 -1799,-4320l0 -12388c0,-1678 688,-3207 1797,-4318l2 -2 2 -2c1111,-1109 2640,-1797 4318,-1797zm6194 20517c2071,0 3947,-841 5306,-2199l4 -4c1359,-1359 2199,-3235 2199,-5306 0,-1515 -450,-2927 -1224,-4108 -796,-1215 -1938,-2187 -3286,-2775 -189,-82 -382,-157 -579,-224l0 2109c906,440 1677,1122 2227,1962 570,871 902,1915 902,3037 0,1534 -621,2922 -1623,3926 -1004,1003 -2392,1623 -3926,1623 -1534,0 -2922,-621 -3926,-1623 -1003,-1004 -1623,-2392 -1623,-3926 0,-1130 333,-2177 906,-3048 547,-832 1316,-1509 2224,-1949l0 -2112c-189,63 -373,134 -551,211 -1351,583 -2499,1556 -3303,2778 -781,1187 -1235,2603 -1235,4119 0,2071 841,3947 2199,5306l4 4c1359,1359 3235,2199 5306,2199zm-1285 -7433l2571 0 0 -8974 -2571 0 0 8974zm7479 -11014l-12388 0c-1116,0 -2128,454 -2859,1186l-4 4c-732,731 -1186,1744 -1186,2859l0 12388c0,1116 454,2128 1186,2859l4 0c734,734 1746,1190 2859,1190l12388 0c1113,0 2125,-456 2859,-1190l4 0c732,-731 1186,-1744 1186,-2859l0 -12388c0,-1116 -454,-2128 -1186,-2859l-4 -4c-731,-732 -1744,-1186 -2859,-1186z"/>
 </g>
</svg>
