<?xml version="1.0" encoding="UTF-8"?>
<!DOCTYPE svg PUBLIC "-//W3C//DTD SVG 1.0//EN" "http://www.w3.org/TR/2001/REC-SVG-20010904/DTD/svg10.dtd">
<!-- Creator: CorelDRAW -->
<svg xmlns="http://www.w3.org/2000/svg" xml:space="preserve" width="10.1135mm" height="8.3854mm" version="1.0" style="shape-rendering:geometricPrecision; text-rendering:geometricPrecision; image-rendering:optimizeQuality; fill-rule:evenodd; clip-rule:evenodd"
viewBox="0 0 35265 29239"
 xmlns:xlink="http://www.w3.org/1999/xlink"
 xmlns:xodm="http://www.corel.com/coreldraw/odm/2003">
 <defs>
  <style type="text/css">
   <![CDATA[
    .fil0 {fill:#00A0E3;fill-rule:nonzero}
   ]]>
  </style>
 </defs>
 <g id="Layer_x0020_1">
  <metadata id="CorelCorpID_0Corel-Layer"/>
  <path class="fil0" d="M26040 27758c355,-96 619,-197 811,-307 182,-104 301,-215 373,-337 77,-129 122,-298 150,-501 29,-214 41,-465 51,-746l24 -863 -4459 -32c0,516 93,1714 -31,2145 -60,206 -136,388 -221,549 -85,160 -180,301 -275,423 -97,122 -194,225 -285,309 -91,84 -176,152 -248,204 -553,402 -1044,477 -1755,585 -71,10 -180,36 -248,36 -2585,-11 -5171,-16 -7755,-21 -637,-1 -2914,108 -3359,-43 -712,-244 -1272,-550 -1713,-899 -444,-351 -769,-744 -1006,-1160 -234,-408 -380,-829 -474,-1248 -93,-417 -135,-827 -161,-1219l0 -36c-35,-1628 -40,-3323 -44,-5017l0 -71c-3,-1414 -8,-2829 -31,-4215l-5385 -34c5787,-5087 11565,-10190 17366,-15260l17815 15273 -6305 -25c-12,721 -14,1485 -11,2269 3,827 14,1681 23,2533l19 1850 5 1668 3136 22 0 -1346 3215 2065 -3215 2066 0 -1338 -3152 -23 -25 903c-14,378 -31,717 -85,1034 -55,323 -151,621 -321,907 -174,292 -414,544 -750,761 -330,213 -754,392 -1302,540l-119 32 -374 -1401 119 -32zm1426 -4201l-5 -1655 -20 -1840c-11,-971 -22,-1944 -24,-2883 -2,-939 5,-1845 29,-2677l21 -706 3783 15 -13873 -11894 -13565 11920 2991 20 15 704c35,1610 40,3287 45,4963l10 2557c6,825 16,1647 33,2458 21,311 53,634 120,947 66,310 167,614 328,894 152,266 365,521 660,752 295,231 674,440 1162,617l10626 27 160 -25c508,-76 861,-130 1118,-318 34,-25 75,-57 116,-95 43,-39 89,-88 134,-145 40,-50 79,-109 116,-174 33,-62 66,-131 93,-209l0 -1848 -6875 -49c-755,-3 -1334,-6 -1781,-275 -452,-271 -747,-797 -916,-1836 -120,-714 -39,-3354 1,-4117 22,-393 108,-727 250,-1006 143,-282 342,-511 588,-693 224,-167 482,-286 763,-366 278,-79 581,-121 903,-135l5 0c994,0 2030,14 3064,27 1008,13 2017,27 3062,27l8 0c367,24 702,94 999,217 300,123 562,301 778,538 212,231 372,510 474,838 97,312 142,670 131,1076l0 4319 4475 32zm-5927 -43c0,-1280 -106,-3072 3,-4289 10,-240 -6,-439 -46,-601 -38,-152 -98,-270 -176,-355 -75,-83 -180,-147 -310,-193 -137,-49 -303,-79 -492,-91l-5996 -53c-188,8 -358,29 -506,66 -140,35 -259,84 -349,152 -69,52 -128,124 -169,220 -46,101 -75,233 -84,395l-9 3856c76,425 203,636 392,737 200,106 492,108 872,109l6870 48z"/>
 </g>
</svg>
