<?xml version="1.0" encoding="UTF-8"?>
<!DOCTYPE svg PUBLIC "-//W3C//DTD SVG 1.0//EN" "http://www.w3.org/TR/2001/REC-SVG-20010904/DTD/svg10.dtd">
<!-- Creator: CorelDRAW -->
<svg xmlns="http://www.w3.org/2000/svg" xml:space="preserve" width="10.0904mm" height="8.3858mm" version="1.0" style="shape-rendering:geometricPrecision; text-rendering:geometricPrecision; image-rendering:optimizeQuality; fill-rule:evenodd; clip-rule:evenodd"
viewBox="0 0 40723 33844"
 xmlns:xlink="http://www.w3.org/1999/xlink"
 xmlns:xodm="http://www.corel.com/coreldraw/odm/2003">
 <defs>
  <style type="text/css">
   <![CDATA[
    .fil0 {fill:#00A0E3;fill-rule:nonzero}
   ]]>
  </style>
 </defs>
 <g id="Layer_x0020_1">
  <metadata id="CorelCorpID_0Corel-Layer"/>
  <path class="fil0" d="M13594 25000l182 0 76 -3371c25,-455 126,-841 289,-1165 165,-327 396,-592 680,-802 260,-193 557,-331 883,-424 321,-91 673,-140 1045,-156l6 0c1151,0 2349,16 3546,31 1166,15 2333,30 3544,30l9 0c425,27 812,109 1157,251 348,143 651,349 901,622 244,268 430,591 548,972 112,360 165,774 152,1244 0,1471 218,8284 -36,9158 -69,238 -157,449 -255,634 -98,186 -208,349 -319,490 -111,140 -224,259 -329,357 -104,96 -203,175 -287,237 -640,467 -1209,553 -2032,676 -82,13 -209,42 -286,42 -3002,-13 -6005,-19 -9007,-24 -725,-2 -3355,124 -3858,-51 -824,-281 -1472,-636 -1983,-1040 -514,-406 -889,-861 -1165,-1343 -270,-472 -440,-959 -548,-1444 -108,-483 -156,-958 -186,-1410l0 -42c-40,-1843 -46,-3761 -52,-5678l-10 -2694 -26 -2396 -6233 -40c6698,-5889 13386,-11795 20102,-17664l20622 17679 -7298 -29c-14,835 -16,1719 -13,2626 4,958 16,1946 27,2932l0 38c27,2399 54,4789 -19,6754 -16,437 -36,830 -98,1197 -64,374 -174,720 -372,1049 -202,337 -479,630 -868,881 -383,247 -873,454 -1506,626l-138 37 -434 -1622 137 -37c411,-111 717,-229 939,-356 211,-120 348,-249 432,-390 89,-149 141,-345 174,-581 34,-247 47,-538 59,-863 36,-980 48,-2063 47,-3198 -1,-1136 -15,-2328 -29,-3522l-1 -92c-25,-2219 -50,-4442 6,-6343l24 -817 4379 17 -16058 -13767 -15702 13798 3463 22 18 816c20,942 31,1905 39,2878l25 5826c6,955 18,1906 38,2844 25,360 62,733 139,1097 76,358 194,712 379,1035 177,308 423,603 764,871 341,267 781,510 1346,714l12300 31 182 -28c303,-46 560,-84 771,-139 205,-53 377,-122 524,-230 40,-29 87,-66 135,-110 50,-46 103,-102 154,-167 46,-59 92,-126 134,-203 39,-71 77,-152 109,-241 0,-2633 -213,-6270 3,-8780 12,-277 -7,-509 -53,-695 -44,-176 -113,-312 -204,-411 -86,-95 -208,-170 -359,-223 -159,-57 -351,-91 -569,-105l-6940 -61c-217,9 -415,33 -585,76 -162,40 -299,98 -404,176 -81,59 -148,143 -197,254 -53,119 -86,271 -96,458l-75 3280 2210 0 -3087 4809c-1033,-1600 -2061,-3205 -3089,-4809l2108 0z"/>
 </g>
</svg>
