<?xml version="1.0" encoding="UTF-8"?>
<!DOCTYPE svg PUBLIC "-//W3C//DTD SVG 1.0//EN" "http://www.w3.org/TR/2001/REC-SVG-20010904/DTD/svg10.dtd">
<!-- Creator: CorelDRAW -->
<svg xmlns="http://www.w3.org/2000/svg" xml:space="preserve" width="9.2039mm" height="8.0705mm" version="1.0" style="shape-rendering:geometricPrecision; text-rendering:geometricPrecision; image-rendering:optimizeQuality; fill-rule:evenodd; clip-rule:evenodd"
viewBox="0 0 40506 35518"
 xmlns:xlink="http://www.w3.org/1999/xlink"
 xmlns:xodm="http://www.corel.com/coreldraw/odm/2003">
 <defs>
  <style type="text/css">
   <![CDATA[
    .fil0 {fill:#00A0E3}
   ]]>
  </style>
 </defs>
 <g id="Layer_x0020_1">
  <metadata id="CorelCorpID_0Corel-Layer"/>
  <path class="fil0" d="M35348 32203l-31877 0c312,370 721,657 1179,865 619,281 1329,418 2017,418l25502 0c490,0 811,-31 1097,-100 290,-70 558,-182 938,-342 210,-89 488,-272 743,-478 147,-119 286,-245 400,-364zm-20856 -30462c-149,-279 -266,-497 -266,-678 0,-274 112,-540 290,-737 120,-132 274,-235 444,-287 173,-53 364,-54 557,15 250,90 503,299 723,669l99 151c69,102 138,204 199,343l217 481c252,549 349,1376 290,2203 -57,791 -258,1593 -602,2164 -99,163 -207,323 -312,476 -371,547 -700,1030 -700,2044 0,900 310,1404 544,1785 298,485 492,803 -5,1380 -266,309 -468,308 -801,305l-84 0c-388,0 -754,-410 -1043,-941 -377,-691 -643,-1606 -643,-2019 0,-852 7,-1391 141,-1914 134,-522 393,-1010 893,-1756 1131,-1682 463,-2933 60,-3686zm5097 132c-167,-257 -389,-600 -389,-874 0,-224 133,-480 324,-671 182,-182 424,-314 660,-314 698,0 963,471 1286,1047l18 32c124,221 248,505 348,797 95,276 171,566 208,823 270,1863 -348,2897 -908,3831 -479,801 -914,1526 -635,2667 142,580 239,736 379,962 72,115 155,249 260,459 79,158 120,325 120,485 0,163 -42,323 -127,463 -84,139 -210,257 -378,342 -169,85 -381,136 -635,136 -77,0 -157,-17 -237,-49 -342,-138 -720,-590 -1005,-1221 -277,-614 -476,-1407 -476,-2252 0,-608 103,-1245 353,-1864 231,-573 418,-842 602,-1109 132,-192 264,-384 412,-695 187,-395 276,-922 264,-1442 -12,-505 -120,-1003 -328,-1367l-116 -185zm4694 3849c389,-600 782,-1204 782,-2300 0,-386 -71,-707 -180,-991 -110,-285 -263,-540 -422,-784 -145,-223 -206,-438 -206,-633 0,-188 56,-358 143,-500 87,-141 206,-257 334,-340 157,-102 332,-159 485,-159 525,0 922,401 1210,904 274,475 453,1041 556,1420 140,514 169,1071 121,1605 -55,607 -207,1189 -408,1644 -137,310 -315,599 -494,891 -525,852 -1073,1741 -532,3213l16 44c108,295 110,300 285,563 191,290 294,589 294,857 0,144 -30,280 -90,400 -61,122 -154,230 -279,312 -179,118 -427,189 -743,189 -680,0 -1115,-996 -1359,-1554l-59 -133c-175,-393 -257,-828 -287,-1268 -29,-434 -8,-875 22,-1289 69,-953 438,-1521 808,-2092zm7524 19851l-388 666 1476 -450c514,-170 1267,-496 1987,-856 655,-327 1282,-682 1669,-970 768,-569 1351,-1127 1661,-1781 306,-647 349,-1403 46,-2381 -227,-731 -931,-976 -1713,-998 -823,-23 -1735,195 -2314,364l-168 48c-200,55 -287,80 -315,140 -33,71 -50,210 -77,454 -25,216 -59,510 -126,926 -191,1171 -467,1901 -838,2883l-156 414c-61,165 -89,242 -187,430 -77,147 -146,294 -213,438 -104,226 -208,448 -344,673zm-24610 -9885c-132,173 -182,445 -183,800l271 3795c197,1016 478,2017 866,2972 389,956 887,1866 1518,2699 727,959 882,1115 1530,1767l338 340 1464 1197c227,156 698,472 1097,691 236,129 444,224 540,224l9563 0c252,0 1136,-594 1475,-822l46 -32c1110,-742 1646,-1319 2450,-2185l133 -143 1088 -1384c163,-246 328,-504 481,-761 155,-260 300,-524 422,-780l565 -1340 71 -154c32,-64 57,-115 94,-235 184,-601 368,-1250 506,-1944 136,-687 227,-1415 227,-2178 0,-329 10,-649 18,-937l13 -632c0,-805 -123,-1209 -896,-1209l-23016 0c-341,0 -557,87 -682,251zm-1965 4698c-197,-1319 -250,-2666 -250,-4021 0,-444 69,-841 191,-1188 132,-373 327,-690 567,-945 215,-228 540,-448 917,-603 334,-137 713,-225 1095,-225l23335 0c544,0 994,129 1366,342 371,214 664,510 893,846 142,210 237,387 305,586 67,196 110,414 152,707 72,507 53,870 41,1105l-7 158c158,-55 238,-81 400,-114 809,-166 1552,-310 2287,-302 745,8 1478,173 2250,624 301,176 584,430 820,723 241,298 436,640 558,982 345,968 441,1907 278,2797 -160,878 -572,1706 -1242,2466 -340,386 -925,885 -1531,1328 -594,434 -1216,821 -1657,1002 -139,57 -290,132 -439,207 -158,78 -317,158 -473,221l-984 419c-515,207 -921,330 -1330,453 -226,68 -455,137 -691,217 -720,229 -1654,482 -2412,623 -147,26 -229,41 -285,68 -64,31 -131,98 -273,243 -357,361 -766,716 -1140,1065l8468 0 371 -15c177,-10 374,-21 567,-21 719,0 1448,144 1448,957 0,580 -462,999 -903,1400 -101,91 -202,183 -306,287l-496 507c-727,753 -1182,1223 -2404,1772 -272,122 -661,246 -1073,333 -364,77 -749,128 -1095,128l-26331 0c-695,0 -1385,-163 -2002,-412 -727,-293 -1359,-707 -1786,-1114l-1947 -1888c-338,-349 -480,-694 -485,-992 -2,-132 23,-258 69,-369 47,-113 117,-213 203,-295 180,-173 435,-277 714,-282l9878 4 -73 -60c-987,-834 -1065,-923 -1591,-1524l-528 -597c-102,-114 -166,-201 -241,-302l-48 -66c-461,-620 -789,-1079 -1092,-1578 -302,-497 -578,-1029 -935,-1793 -583,-1247 -927,-2543 -1125,-3866z"/>
 </g>
</svg>
