<?xml version="1.0" encoding="UTF-8"?>
<!DOCTYPE svg PUBLIC "-//W3C//DTD SVG 1.0//EN" "http://www.w3.org/TR/2001/REC-SVG-20010904/DTD/svg10.dtd">
<!-- Creator: CorelDRAW -->
<svg xmlns="http://www.w3.org/2000/svg" xml:space="preserve" width="8.702mm" height="8.7mm" version="1.0" style="shape-rendering:geometricPrecision; text-rendering:geometricPrecision; image-rendering:optimizeQuality; fill-rule:evenodd; clip-rule:evenodd"
viewBox="0 0 44906 44896"
 xmlns:xlink="http://www.w3.org/1999/xlink"
 xmlns:xodm="http://www.corel.com/coreldraw/odm/2003">
 <defs>
  <style type="text/css">
   <![CDATA[
    .fil0 {fill:#00A0E3}
   ]]>
  </style>
 </defs>
 <g id="Layer_x0020_1">
  <metadata id="CorelCorpID_0Corel-Layer"/>
  <path class="fil0" d="M37178 27473l21 -4 66 23 -56 1 -31 -20zm-12434 -24166c-710,-284 -1527,-391 -2629,-391 -860,0 -1600,204 -2256,539 -670,344 -1265,831 -1815,1384 -447,449 -849,1201 -1123,1994 -280,811 -423,1649 -344,2238l49 468c25,277 53,578 114,854 163,731 397,1304 715,1809 321,510 738,964 1262,1452 413,384 971,686 1575,901 697,248 1446,381 2111,396 384,9 822,-31 1251,-112 410,-78 808,-195 1136,-342 732,-327 1340,-756 1832,-1252 954,-962 1481,-2187 1652,-3433 173,-1256 -12,-2532 -482,-3583 -247,-552 -572,-1041 -963,-1429 -740,-734 -1376,-1208 -2086,-1492zm-4069 -3145c659,-133 1320,-162 2212,-162 1091,0 2183,282 3201,782 1444,711 2740,1868 3672,3290 935,1425 1509,3122 1509,4905 0,1232 -275,2507 -893,3762 -467,947 -1072,1779 -1796,2492 -741,730 -1607,1338 -2578,1823 -871,436 -1768,693 -2680,785 -938,95 -1892,17 -2853,-219 -2251,-552 -4189,-2048 -5414,-3991 -1193,-1891 -1715,-4214 -1202,-6507 292,-1305 895,-2566 1715,-3643 812,-1066 1844,-1958 3004,-2540 816,-410 1443,-645 2102,-778zm19604 22889l1 82 46 158c74,278 181,675 181,1069 0,716 -283,1346 -1343,1346 -473,0 -683,-88 -839,-182 22,122 62,246 101,363 199,605 372,1127 -457,1788 -122,97 -251,169 -392,222 79,140 152,321 192,512 50,237 56,508 -24,764 -90,289 -280,549 -618,718 -87,44 -184,81 -291,110 138,652 434,1267 821,1745 437,539 978,893 1506,893 1103,0 1294,-385 1792,-1390l174 -350c559,-1106 860,-2187 874,-3255 14,-1063 -255,-2129 -837,-3211 -170,-316 -521,-928 -888,-1382zm4627 4153l-2 756c-34,732 -164,1469 -384,2221 -219,744 -528,1506 -926,2295l-126 255c-124,259 -238,493 -415,752 -846,1237 -1640,1489 -2294,1696l-135 43 12 939c17,897 26,1391 -125,1778 -223,574 -616,720 -1483,1041l-185 68c-1324,494 -7302,2700 -11627,4252 -2534,909 -4526,1596 -4757,1596 -510,0 -6389,-2177 -9017,-3149 -2472,-913 -4949,-1817 -7425,-2719 -1824,-656 -1819,-798 -1750,-2745 10,-279 21,-607 26,-1036l-244 -74c-760,-270 -1279,-621 -1700,-1081 -407,-445 -699,-968 -1025,-1616 -391,-777 -700,-1536 -920,-2283 -221,-755 -355,-1500 -390,-2242 -17,-194 -17,-639 0,-833 37,-760 177,-1515 424,-2274 244,-751 595,-1509 1057,-2280 437,-731 852,-1300 1336,-1776 421,-413 890,-751 1465,-1055l0 -3539c0,-274 -8,-480 -15,-683l-19 -674c0,-1159 212,-2071 1492,-2071 595,0 5881,2224 7884,3067l2241 927c2209,912 6020,2486 6525,2669l14426 -5855 416 -181c583,-264 1338,-605 1997,-606 793,-1 1383,388 1384,1603l-5 5343c578,307 1065,659 1499,1086 501,492 927,1080 1343,1809 444,779 786,1539 1026,2291 243,760 381,1511 416,2264l2 22zm-40074 -1844c-282,-235 -452,-573 -452,-1028 0,-348 82,-565 163,-781 47,-124 94,-251 94,-419l1 -82c-366,454 -718,1066 -888,1382 -582,1082 -851,2149 -837,3211 14,1068 315,2149 872,3253l176 350c498,1007 689,1392 1792,1392 423,0 877,-279 1268,-659 520,-505 909,-1164 1007,-1633 267,-1270 -93,-1674 -252,-1852 -135,-151 -226,-253 -226,-480l1 -57 -8 -2c-219,-50 -417,-133 -589,-260 -880,-648 -620,-1375 -448,-1846l41 -117c16,-55 35,-134 45,-215 -160,94 -348,186 -667,186 -420,0 -805,-107 -1092,-345zm29804 962c171,-349 428,-668 765,-909 27,-480 121,-894 283,-1251 203,-449 508,-801 910,-1078 377,-259 656,-318 867,-339l-1 -83c5,-160 10,-329 29,-440 33,-191 76,-317 120,-445l60 -194c132,-506 86,-3055 56,-4730l-9 -510 -1175 491c-405,179 -833,346 -1274,517l-581 228 -1977 817c-2712,1124 -7289,3022 -8794,3562l0 19454 4470 -1643c688,-255 1375,-509 2240,-809 2354,-857 4748,-1678 7079,-2587l0 -1165c-345,-100 -691,-270 -1014,-481 -522,-340 -1000,-797 -1320,-1226l-56 -75c-531,-709 -1294,-1731 -1294,-2926 0,-1326 217,-1719 376,-2007 68,-120 113,-202 21,-688 -90,-477 -13,-1011 217,-1483zm-17056 -5735l-10379 -4230 -8 476c-28,1701 -72,4304 70,4802 130,456 168,815 195,1069l-6 33c647,162 1936,537 2062,2699 326,181 577,476 747,827 230,478 308,1074 209,1603 -71,381 -23,476 47,612 160,310 378,731 378,2022 0,896 -599,2144 -1444,3126 -640,744 -1435,1356 -2240,1584l0 1182 1551 552c367,123 653,232 937,341 302,115 608,232 875,321 1806,609 3816,1358 5791,2093 1211,451 2410,898 3515,1295l1121 384 0 -19386c-362,-120 -796,-311 -1155,-468l-440 -189 -1825 -747zm-10191 2178l4 -16c-10,0 -14,3 -4,16zm14 16c44,45 10,0 -6,-32l-9 16 14 16z"/>
 </g>
</svg>
