<?xml version="1.0" encoding="UTF-8"?>
<!DOCTYPE svg PUBLIC "-//W3C//DTD SVG 1.0//EN" "http://www.w3.org/TR/2001/REC-SVG-20010904/DTD/svg10.dtd">
<!-- Creator: CorelDRAW -->
<svg xmlns="http://www.w3.org/2000/svg" xml:space="preserve" width="9.014mm" height="8.9999mm" version="1.0" style="shape-rendering:geometricPrecision; text-rendering:geometricPrecision; image-rendering:optimizeQuality; fill-rule:evenodd; clip-rule:evenodd"
viewBox="0 0 63014 62916"
 xmlns:xlink="http://www.w3.org/1999/xlink"
 xmlns:xodm="http://www.corel.com/coreldraw/odm/2003">
 <defs>
  <style type="text/css">
   <![CDATA[
    .fil0 {fill:#00A0E3}
   ]]>
  </style>
 </defs>
 <g id="Layer_x0020_1">
  <metadata id="CorelCorpID_0Corel-Layer"/>
  <path class="fil0" d="M18579 49064c2677,865 5086,1496 8249,1493 7853,-8 15170,-3093 19596,-9529 1752,-2547 2652,-4927 3384,-7936 98,-401 202,-961 261,-1348 332,-2192 354,-3844 261,-6034 -21,-508 -293,-2361 -408,-2821 -217,-873 -374,-1746 -652,-2600 -134,-413 -233,-820 -377,-1221 -1019,-2843 -1518,-4071 -2975,-6743 -96,-176 -203,-323 -297,-516 -135,-276 139,-92 290,-13 703,370 1367,770 2009,1199 693,463 1283,898 1883,1370 297,234 570,470 870,734 7890,6926 10748,17961 6935,27936 -487,1274 -1092,2535 -1730,3616 -1815,3076 -4091,5611 -6984,7723 -250,182 -500,369 -781,554 -1059,700 -2188,1356 -3429,1922 -619,282 -1212,526 -1883,788 -334,130 -670,213 -1000,336 -321,120 -710,234 -1028,312 -684,168 -1488,417 -2180,497 -229,27 -370,73 -553,104 -1731,288 -3960,352 -5721,258 -412,-22 -786,-88 -1217,-117 -748,-51 -1549,-254 -2280,-366 -974,-148 -3258,-896 -4118,-1243 -2075,-837 -5055,-2464 -6722,-3971 -115,-105 -233,-200 -365,-303 -1003,-783 -2792,-2701 -3588,-3767 -388,-521 -2032,-2756 -2110,-3281 176,19 1388,696 1626,824 1304,703 3658,1699 5030,2143zm21766 -21483c232,914 1149,680 2171,672 449,-3 947,48 1267,-160 297,-194 469,-545 387,-1001 -161,-899 -1400,-682 -2189,-693 -452,-6 -990,-82 -1297,150 -254,192 -463,540 -338,1032zm-547 -11318c101,-124 113,-582 29,-756 -87,-179 -236,-354 -422,-460 -494,-284 -916,3 -1288,336 -366,328 -1646,1362 -1814,1708 -358,737 360,1562 1207,1299 231,-71 720,-580 979,-807l914 -868c423,-403 173,-180 395,-452zm-3565 21122c113,399 1349,1616 1703,1994 258,275 595,799 1228,638 469,-118 835,-553 684,-1156 -76,-304 -1385,-1692 -1678,-2034 -99,-115 -346,-384 -464,-471 -615,-453 -1720,150 -1474,1030zm-9837 4946c50,969 -215,2294 726,2510 498,115 920,-203 1040,-507 161,-410 111,-993 115,-1468 6,-907 264,-2397 -691,-2540 -1367,-205 -1237,1077 -1188,2004zm-7989 -4857c250,-553 -257,-1128 -654,-1226 -631,-156 -917,235 -1290,577 -296,272 -1828,1658 -1929,1946 -319,911 637,1605 1412,1056l1532 -1364c308,-301 745,-577 930,-988zm-18407 -10432l0 557c338,131 -43,646 1337,645l11944 20c594,0 1074,-233 1096,-905 11,-337 -112,-568 -308,-747 -259,-236 -417,-226 -789,-224l-11944 23c-369,1 -600,-41 -867,120 -119,71 -190,129 -262,233 -96,136 -65,215 -208,279zm26431 -25933c-3,4057 -65,8183 -52,12211 4,1147 1300,1333 1761,597 216,-345 147,-816 146,-1310l-11 -8289c-4,-716 79,-3049 -49,-3581 -246,-1017 -1794,-1064 -1795,372zm-18661 7754c57,368 940,1152 1221,1437 399,405 854,851 1338,1336 1017,1018 1834,1838 2666,2681 339,343 3746,3837 4023,3999 733,429 1555,-230 1427,-1026 -64,-398 -906,-1108 -1237,-1437l-2677 -2673c-732,-717 -5125,-5170 -5381,-5313 -726,-403 -1513,143 -1381,995zm18980 11973c1100,-71 1777,73 2687,398 3044,1087 4915,4817 3592,8176 -316,803 -725,1432 -1209,1957 -525,570 -1096,1028 -1788,1376 -5068,2547 -10875,-2254 -8773,-7932 845,-2283 3014,-3814 5492,-3976zm-9619 7012c162,3140 2111,6183 4750,7802 1829,1121 3709,1579 6018,1461 2805,-142 5298,-1727 6708,-3313 758,-853 1387,-1834 1894,-3099 138,-344 497,-1566 545,-1933 301,-2294 29,-4211 -1025,-6278 -1146,-2250 -3054,-3807 -5302,-4725 -2582,-1055 -5759,-824 -8234,482 -1134,597 -2113,1393 -2801,2192 -1832,2124 -2708,4451 -2553,7412zm45884 4789l0 3341c-8,223 -20,380 -38,433 -130,384 -1,494 -56,924l-92 577c-45,450 -252,1350 -259,1478l-147 834c-24,114 -57,125 -94,263 -36,134 -14,184 -41,316 -25,129 -45,100 -73,283l-1144 3579c-55,128 -18,20 -64,115l-472 1088c-4,9 -10,20 -15,29l-986 1999c-5,8 -49,90 -64,115l-793 1346c-288,471 -171,342 -297,338 -203,205 -371,538 -528,752 -1036,1413 -2094,2767 -3347,4006 -206,204 -432,370 -621,578l-1411 1267c-678,556 -1875,1431 -2570,1887 -186,122 -352,194 -548,341 -181,136 -368,239 -552,340 -1273,698 -2143,1209 -3586,1806 -3367,1397 -7932,2440 -12015,2209 -556,-31 -1159,-20 -1706,-73 -1892,-180 -4180,-603 -5970,-1173 -2631,-838 -3818,-1418 -6218,-2740 -582,-320 -2666,-1695 -3198,-2197 -262,-247 -614,-451 -980,-798 -569,-540 -1286,-1115 -1864,-1746 -607,-663 -908,-954 -1479,-1640 -75,-90 -133,-147 -207,-238 -152,-189 -264,-321 -397,-494l-381 -510c-644,-752 -1627,-2423 -2115,-3234 -766,-1271 -1708,-3520 -2192,-4982 -252,-758 -806,-2118 -487,-2959 467,-1230 2039,-1572 2913,-759 188,175 300,249 481,408 940,829 2083,1616 3144,2250l1124 659c3781,2018 7566,3644 11958,4158 1163,136 4529,-55 5818,-401 186,-50 577,-131 770,-166 484,-89 970,-246 1403,-364 924,-252 2325,-833 3187,-1282 1132,-589 1710,-930 2749,-1704 1304,-972 2600,-2293 3548,-3627 120,-168 245,-364 371,-522l350 -542c96,-178 238,-375 336,-557 114,-211 218,-373 337,-601 688,-1316 1630,-3867 1804,-5372 138,-1195 322,-1683 356,-3202 51,-2337 -22,-2750 -473,-4868 -585,-2743 -2127,-6657 -3474,-9101l-961 -1712c-351,-577 -646,-1081 -1043,-1630 -407,-563 -1101,-1507 -1600,-2010 -276,-278 -575,-587 -677,-1100 -200,-998 442,-2018 1349,-2188 859,-161 2059,270 2887,534 1628,519 3535,1298 5046,2127 782,428 1568,875 2254,1355l4006 3170c582,563 1229,1216 1742,1822 726,856 1749,2076 2346,3003 675,1047 1457,2296 1977,3418 751,1618 1529,3433 1969,5210 216,871 531,2050 627,2947 52,487 127,1098 206,1567 67,396 -2,1377 175,1621z"/>
 </g>
</svg>
