<?xml version="1.0" encoding="UTF-8"?>
<!DOCTYPE svg PUBLIC "-//W3C//DTD SVG 1.0//EN" "http://www.w3.org/TR/2001/REC-SVG-20010904/DTD/svg10.dtd">
<!-- Creator: CorelDRAW -->
<svg xmlns="http://www.w3.org/2000/svg" xml:space="preserve" width="7.8716mm" height="8.5761mm" version="1.0" style="shape-rendering:geometricPrecision; text-rendering:geometricPrecision; image-rendering:optimizeQuality; fill-rule:evenodd; clip-rule:evenodd"
viewBox="0 0 70572 76888"
 xmlns:xlink="http://www.w3.org/1999/xlink"
 xmlns:xodm="http://www.corel.com/coreldraw/odm/2003">
 <defs>
  <style type="text/css">
   <![CDATA[
    .fil0 {fill:#00A0E3;fill-rule:nonzero}
   ]]>
  </style>
 </defs>
 <g id="Layer_x0020_1">
  <metadata id="CorelCorpID_0Corel-Layer"/>
  <path class="fil0" d="M22663 55809l-776 -108c-2368,-334 -4473,-629 -6599,-369 -2114,258 -4280,1073 -6805,2955 -802,594 -1779,1529 -2628,2685 -671,914 -1261,1963 -1618,3089 -272,853 -401,1754 -313,2669 78,808 329,1636 805,2457 449,775 1094,1448 1881,1999 822,576 1807,1027 2897,1333 1157,326 2429,490 3757,475 1287,-13 2634,-198 3984,-565 1089,-295 2143,-717 3123,-1243 981,-525 1896,-1161 2706,-1882 766,-683 1438,-1443 1979,-2260 516,-780 917,-1616 1169,-2484 309,-1065 440,-3558 486,-6419 45,-2882 2,-6137 -30,-8703l-4 -363c-14,-1234 -29,-2300 -25,-3079l46 -9974c13,-2397 24,-3980 589,-5202 576,-1247 1692,-2059 3897,-2863 1515,-553 5560,-1926 10229,-3427 3329,-1070 6983,-2210 10276,-3167 2639,-768 5071,-1423 6970,-1840 1695,-372 2990,-559 3663,-479l817 100 500 654c819,1073 1180,2868 1318,4863 134,1946 60,4103 -4,5949l-38 1193 -15 1161 6 3968c13,2897 28,5807 -30,8670l-46 2217 -2181 -327c-810,-120 -1748,-293 -2603,-448l-43 -8c-3016,-548 -4844,-876 -8767,643 -1175,454 -2223,1015 -3136,1652 -965,672 -1787,1436 -2462,2251 -542,656 -991,1347 -1339,2048 -359,719 -615,1452 -765,2173 -144,690 -195,1379 -153,2041 41,654 176,1284 400,1865 170,443 400,868 685,1261 276,382 608,738 992,1055 609,505 1278,934 1997,1280 717,345 1492,612 2315,794 847,187 1755,291 2714,303 953,13 1962,-63 3014,-229 976,-153 1840,-368 2614,-636 773,-267 1464,-589 2099,-961 653,-383 1269,-828 1874,-1328 611,-503 1218,-1070 1847,-1686 1264,-1239 1903,-2431 2228,-3856 332,-1456 348,-3180 366,-5441l10 -1073c62,-7083 342,-38738 -53,-42622 -83,-824 -298,-1422 -609,-1834 -294,-392 -686,-623 -1140,-730 -663,-156 -1465,-143 -2340,-17 -897,129 -1872,377 -2857,684 -3482,1070 -6982,2112 -10457,3202 -3624,1103 -7235,2205 -11729,3609 -833,259 -1570,473 -2297,682l-41 12c-1429,410 -2859,822 -4138,1316 -1269,490 -2412,1068 -3295,1817 -2591,2197 -2590,4366 -2589,8852l6 655c-7,4262 -33,8523 -57,12777l-9 1490c-28,4933 -56,9870 -55,14793l2 2237 -2212 -309zm-16508 -644c2955,-2206 5490,-3248 7927,-3650 2309,-381 4513,-187 6904,131 5,-4153 30,-8307 54,-12458l7 -1315c26,-4350 54,-8705 54,-13046l-7 -672c4,-5700 8,-8454 3967,-11812 1210,-1027 2633,-1776 4158,-2383 1514,-603 3120,-1066 4723,-1526l2249 -664c3360,-1050 7530,-2322 11713,-3597l5131 -1564 5342 -1649c1264,-394 2535,-706 3752,-858 1235,-153 2420,-143 3492,111 1269,301 2361,896 3185,1874 817,966 1361,2306 1544,4104 412,4060 134,35811 70,43001l-11 1107c-23,2745 -42,4838 -511,6706 -474,1891 -1404,3531 -3243,5334 -721,706 -1426,1361 -2157,1960 -739,605 -1501,1153 -2324,1633 -846,492 -1749,917 -2747,1266 -996,347 -2096,622 -3337,818 -1293,204 -2535,294 -3718,274 -1205,-19 -2357,-153 -3444,-394 -1131,-249 -2197,-618 -3188,-1095 -1003,-482 -1928,-1077 -2770,-1774 -638,-528 -1193,-1127 -1660,-1775 -478,-663 -865,-1384 -1157,-2140 -364,-942 -583,-1941 -654,-2962 -72,-1025 4,-2082 223,-3136 217,-1037 576,-2077 1072,-3084 482,-979 1098,-1935 1840,-2830 876,-1058 1942,-2049 3191,-2925 1174,-822 2512,-1544 4005,-2120 4949,-1914 7177,-1510 10867,-840l320 58 11 -3004 -31 -7301c-1,-523 30,-1418 65,-2407l4 -108c87,-2544 196,-5752 -193,-7444 -704,118 -1676,339 -2834,633 -1511,384 -3323,888 -5270,1454 -3242,943 -6852,2069 -10144,3128 -4629,1489 -8627,2847 -10117,3390 -957,348 -1433,727 -1662,1335 -247,655 -255,1625 -263,3089l-46 9964 30 3390c35,2663 79,6042 18,9086 -62,3065 -233,5804 -628,7164 -359,1237 -914,2410 -1623,3495 -736,1127 -1642,2162 -2668,3077 -1033,921 -2198,1731 -3446,2402 -1248,671 -2582,1207 -3950,1578 -1680,456 -3375,682 -5012,695 -1685,13 -3313,-201 -4804,-622 -1563,-439 -2992,-1112 -4206,-1988 -1187,-856 -2173,-1911 -2886,-3141 -772,-1332 -1183,-2674 -1315,-3988 -147,-1474 56,-2913 484,-4263 483,-1522 1271,-2934 2160,-4155 1122,-1539 2409,-2779 3462,-3566z"/>
 </g>
</svg>
