<?xml version="1.0" encoding="UTF-8"?>
<!DOCTYPE svg PUBLIC "-//W3C//DTD SVG 1.0//EN" "http://www.w3.org/TR/2001/REC-SVG-20010904/DTD/svg10.dtd">
<!-- Creator: CorelDRAW -->
<svg xmlns="http://www.w3.org/2000/svg" xml:space="preserve" width="9mm" height="9mm" version="1.0" style="shape-rendering:geometricPrecision; text-rendering:geometricPrecision; image-rendering:optimizeQuality; fill-rule:evenodd; clip-rule:evenodd"
viewBox="0 0 165549 165549"
 xmlns:xlink="http://www.w3.org/1999/xlink"
 xmlns:xodm="http://www.corel.com/coreldraw/odm/2003">
 <defs>
  <style type="text/css">
   <![CDATA[
    .fil0 {fill:#00A0E3;fill-rule:nonzero}
   ]]>
  </style>
 </defs>
 <g id="Layer_x0020_1">
  <metadata id="CorelCorpID_0Corel-Layer"/>
  <path class="fil0" d="M124414 0l-83278 0c-11281,0 -21562,4628 -29028,12081l-13 13 -13 13c-7453,7466 -12081,17747 -12081,29028l0 83278c0,11290 4632,21575 12094,29041l-13 13c7450,7452 17738,12081 29054,12081l83278 0c11316,0 21604,-4630 29054,-12081l-13 -13c7463,-7466 12094,-17750 12094,-29041l0 -83278c0,-11281 -4628,-21562 -12081,-29028l-13 -13 -13 -13c-7466,-7453 -17747,-12081 -29028,-12081zm-26217 78257l20368 0 0 3679 -20368 0 0 -3679zm0 -13146l20368 0 0 3679 -20368 0 0 -3679zm0 -13145l20368 0 0 3679 -20368 0 0 -3679zm0 -13146l20368 0 0 3679 -20368 0 0 -3679zm-12751 59033c7187,1950 12644,6837 12103,15672 -1096,17927 -27761,18209 -29429,498 -572,-6072 2570,-11590 6935,-14158l4733 -2158c81,-42 234,-121 344,-193l28 -33610 4917 -40c936,2809 357,28805 370,33989zm2960 -3732c-752,-11923 94,-34833 -59,-48973 -59,-5413 491,-11081 -5470,-11125 -5792,-42 -5629,5226 -5562,10639l-11 49335c-2814,2062 -15536,6125 -13277,21428 3160,21415 34817,20988 37581,-134 693,-5301 -752,-10428 -3307,-13814 -4433,-5877 -6914,-5371 -9894,-7356zm5171 -3386c22952,11289 14761,45984 -10702,46113 -24069,121 -34971,-32867 -10834,-46227 53,-5750 -541,-51114 486,-54353 3350,-10571 18512,-9754 20714,532 708,3307 94,46468 337,53936zm-52440 -76820l83278 0c7499,0 14305,3055 19222,7974l26 26c4919,4917 7974,11723 7974,19222l0 83278c0,7499 -3055,14305 -7974,19222l-26 0c-4933,4932 -11741,8000 -19222,8000l-83278 0c-7481,0 -14289,-3068 -19222,-8000l-26 0c-4919,-4917 -7974,-11723 -7974,-19222l0 -83278c0,-7499 3055,-14305 7974,-19222l26 -26c4917,-4919 11723,-7974 19222,-7974z"/>
 </g>
</svg>
