<?xml version="1.0" encoding="UTF-8"?>
<!DOCTYPE svg PUBLIC "-//W3C//DTD SVG 1.0//EN" "http://www.w3.org/TR/2001/REC-SVG-20010904/DTD/svg10.dtd">
<!-- Creator: CorelDRAW -->
<svg xmlns="http://www.w3.org/2000/svg" xml:space="preserve" width="9.0823mm" height="8.0001mm" version="1.0" style="shape-rendering:geometricPrecision; text-rendering:geometricPrecision; image-rendering:optimizeQuality; fill-rule:evenodd; clip-rule:evenodd"
viewBox="0 0 915457 806376"
 xmlns:xlink="http://www.w3.org/1999/xlink"
 xmlns:xodm="http://www.corel.com/coreldraw/odm/2003">
 <defs>
  <style type="text/css">
   <![CDATA[
    .fil0 {fill:#00A0E3}
   ]]>
  </style>
 </defs>
 <g id="Layer_x0020_1">
  <metadata id="CorelCorpID_0Corel-Layer"/>
  <path class="fil0" d="M0 61959l0 48039c19534,41921 7550,64630 57988,135842 25673,36256 57252,73278 96431,96058 66969,38927 125894,1351 160618,31680 29221,25521 74609,69136 95403,95796 -29110,35107 -180636,145307 -223525,175354 -14101,9878 -33343,24282 -42727,34109 -82441,86342 19020,210028 130692,49985 79729,-114272 94536,-128101 171746,-220118 71263,67100 138594,190353 197620,250860 25239,25874 76403,42657 106894,6975 69216,-81010 -103941,-167472 -187399,-234007l-77179 -65205c22296,-21903 69317,-79810 105795,-90293 68813,-19766 95454,-4415 144702,-51668 67745,-65003 117336,-140923 178398,-213173l0 -8094c-16873,1865 -56688,42768 -79104,63108l-72402 69680c-8175,8366 -15976,13204 -24997,21439 -11128,10160 -13103,18022 -25532,9092 5272,-17760 27013,-33303 40621,-47908l44350 -47959c8235,-8558 13970,-15895 21359,-25038 14132,-17478 58008,-51073 61173,-77159 -24826,4294 -34744,25330 -52424,39764l-95202 89436c-8366,8668 -39482,37617 -51114,38564 -3387,-13678 5302,-19907 13980,-29584l89114 -95484c9152,-11360 12559,-12720 22901,-23052 10715,-10705 36337,-34926 38192,-54258 -18637,3377 -56053,42153 -79286,63189l-97449 91069c-11047,10049 -13214,17982 -25370,9112 3649,-15301 69085,-78480 84729,-95947 8366,-9334 13305,-15926 21228,-25199 14948,-17488 61032,-54279 60619,-76968l-5322 0c-37879,28838 -71686,58330 -109807,87904 -37990,29463 -70970,59903 -103336,92954 -50730,51799 -32880,73087 -51980,144178 -8608,32033 -70668,87350 -90363,106168 -12378,-7489 -105533,-95383 -110240,-120673 -6441,-34563 10604,-57716 -3901,-103961 -28545,-91079 -161596,-182511 -267119,-186724 -67745,-2701 -61304,27497 -68773,42112z"/>
 </g>
</svg>
