<?xml version="1.0" encoding="UTF-8"?>
<!DOCTYPE svg PUBLIC "-//W3C//DTD SVG 1.0//EN" "http://www.w3.org/TR/2001/REC-SVG-20010904/DTD/svg10.dtd">
<!-- Creator: CorelDRAW -->
<svg xmlns="http://www.w3.org/2000/svg" xml:space="preserve" width="8mm" height="8mm" version="1.0" style="shape-rendering:geometricPrecision; text-rendering:geometricPrecision; image-rendering:optimizeQuality; fill-rule:evenodd; clip-rule:evenodd"
viewBox="0 0 199552 199552"
 xmlns:xlink="http://www.w3.org/1999/xlink"
 xmlns:xodm="http://www.corel.com/coreldraw/odm/2003">
 <defs>
  <style type="text/css">
   <![CDATA[
    .fil0 {fill:#00A0E3}
   ]]>
  </style>
 </defs>
 <g id="Layer_x0020_1">
  <metadata id="CorelCorpID_0Corel-Layer"/>
  <path class="fil0" d="M99779 86733c7204,0 13041,5837 13041,13041 0,7204 -5837,13043 -13041,13043 -7204,0 -13043,-5839 -13043,-13043 0,-7204 5839,-13041 13043,-13041zm-50195 -86733l100385 0c13599,0 25989,5577 34989,14562l17 15 15 17c8985,9000 14562,21390 14562,34989l0 100385c0,13607 -5585,26007 -14577,35006l15 15c-8980,8982 -21382,14562 -35021,14562l-100385 0c-13639,0 -26042,-5580 -35021,-14562l15 -15c-8992,-9000 -14577,-21399 -14577,-35006l0 -100385c0,-13599 5577,-25989 14562,-34989l15 -17 17 -15c9000,-8985 21390,-14562 34989,-14562zm100385 16770l-100385 0c-9037,0 -17244,3684 -23168,9613l-32 32c-5929,5924 -9613,14131 -9613,23168l0 100385c0,9037 3684,17244 9613,23168l32 0c5944,5947 14151,9646 23168,9646l100385 0c9017,0 17224,-3699 23168,-9646l32 0c5929,-5924 9613,-14131 9613,-23168l0 -100385c0,-9037 -3684,-17244 -9613,-23168l-32 -32c-5924,-5929 -14131,-9613 -23168,-9613zm-7361 120313l0 -22534 -42829 40339 -42829 -40339 0 22534 42829 40339 42829 -40339zm0 -74613l0 22534 -42829 -40339 -42829 40339 0 -22534 42829 -40339 42829 40339z"/>
 </g>
</svg>
