<?xml version="1.0" encoding="UTF-8"?>
<!DOCTYPE svg PUBLIC "-//W3C//DTD SVG 1.0//EN" "http://www.w3.org/TR/2001/REC-SVG-20010904/DTD/svg10.dtd">
<!-- Creator: CorelDRAW -->
<svg xmlns="http://www.w3.org/2000/svg" xml:space="preserve" width="8.5808mm" height="8.0001mm" version="1.0" style="shape-rendering:geometricPrecision; text-rendering:geometricPrecision; image-rendering:optimizeQuality; fill-rule:evenodd; clip-rule:evenodd"
viewBox="0 0 102992 96022"
 xmlns:xlink="http://www.w3.org/1999/xlink"
 xmlns:xodm="http://www.corel.com/coreldraw/odm/2003">
 <defs>
  <style type="text/css">
   <![CDATA[
    .fil0 {fill:#00A0E3}
   ]]>
  </style>
 </defs>
 <g id="Layer_x0020_1">
  <metadata id="CorelCorpID_0Corel-Layer"/>
  <path class="fil0" d="M75583 82350l13681 -29c206,742 148,5943 56,6926l-13780 18c-82,-1030 -133,-6161 43,-6915zm13580 -75498l37 6756 -13479 -18 42 -6723 13400 -16zm-75325 68617l-25 -54808 75497 42 -18 54786 -75453 -20zm20502 -6906c707,-190 1884,-868 2572,-1212 904,-452 1688,-858 2573,-1289 1769,-861 3398,-1716 5147,-2573l20409 -10208c1715,-874 3343,-1683 5041,-2555 1043,-535 4355,-2022 5100,-2655 -136,-187 8,-43 -206,-209 -738,-567 -32196,-16163 -35453,-17818l-5146 -2541 -37 41061zm20610 13796l13688 -8 56 6850 -13726 22 -18 -6863zm-20607 92c282,-356 2921,-158 3362,-158 2172,0 9183,-146 10369,52 239,960 78,5213 77,6509 -48,709 22,162 -224,373l-13561 -5 -23 -6771zm-7006 6765l-13479 -4c-366,-168 -202,-491 -200,-1516 1,-1167 -79,-4637 58,-5335 601,-188 13136,-192 13761,-2 50,538 179,6195 44,6610 -119,372 76,2 -184,247zm27611 -82357l13747 31 -19 6829 -13729 -12 1 -6849zm-20594 80c176,-124 -80,-90 388,-152 13,-2 348,0 386,0 3414,12 10442,-127 12935,46 274,671 121,4109 122,5344 0,436 169,1324 -211,1568l-13635 -29 14 -6775zm-20623 -80l13736 4 -30 6858 -13707 -4 1 -6858zm-13634 83925c170,987 1503,2890 2499,3717 1796,1488 2907,1469 4747,1469l86970 0c2614,0 3238,386 5395,-949 1390,-862 2055,-1744 2828,-3348 545,-1128 397,-1302 396,-2691 -1,-7476 158,-82777 -37,-83723 -94,-451 -783,-1734 -1057,-2152 -448,-679 -892,-1119 -1486,-1602 -1828,-1488 -2933,-1397 -4752,-1403l-62140 -52c-8235,0 -16608,-144 -24829,62 -2196,55 -3597,-64 -5322,954 -1008,595 -2458,1986 -2816,3355 -631,2416 -451,8982 -462,11872 -12,3113 -88,73604 66,74491z"/>
 </g>
</svg>
