<?xml version="1.0" encoding="UTF-8"?>
<!DOCTYPE svg PUBLIC "-//W3C//DTD SVG 1.0//EN" "http://www.w3.org/TR/2001/REC-SVG-20010904/DTD/svg10.dtd">
<!-- Creator: CorelDRAW -->
<svg xmlns="http://www.w3.org/2000/svg" xml:space="preserve" width="9mm" height="7.6853mm" version="1.0" style="shape-rendering:geometricPrecision; text-rendering:geometricPrecision; image-rendering:optimizeQuality; fill-rule:evenodd; clip-rule:evenodd"
viewBox="0 0 72926 62273"
 xmlns:xlink="http://www.w3.org/1999/xlink"
 xmlns:xodm="http://www.corel.com/coreldraw/odm/2003">
 <defs>
  <style type="text/css">
   <![CDATA[
    .fil0 {fill:#00A0E3}
   ]]>
  </style>
 </defs>
 <g id="Layer_x0020_1">
  <metadata id="CorelCorpID_0Corel-Layer"/>
  <path class="fil0" d="M72926 45408c-6464,-259 -11015,-1611 -15606,-4393 -8517,-5162 -14465,-14671 -14569,-25148 -42,-4244 700,-8833 2405,-12586l1565 -3252c-4438,-265 -9331,1324 -12743,2802 -3435,1488 -7114,4377 -9121,6518 -2540,2709 -4414,5567 -6108,9514 -1180,2748 -2864,9860 -2128,13286 898,306 1582,44 3509,784 3500,1345 2045,2238 4241,1232 510,-234 998,-387 1566,-532 5913,-1519 11662,1634 13847,6490 263,583 394,1087 621,1599 203,458 873,536 1333,747 2794,1285 4861,4141 5208,7379 283,2641 -662,4977 -1845,6568 -1734,2332 -3549,2605 -4935,3372 1360,489 4861,751 6492,749 6555,-9 11888,-1829 16468,-4752 3081,-1967 5670,-4393 7866,-7300 395,-522 1796,-2506 1933,-3077zm-55780 -38446l170 1248 -724 644c309,261 521,184 1104,282 297,517 241,688 673,925 502,-1318 239,-841 1561,-1213 -920,-998 -788,-300 -705,-1969 -1459,589 -481,689 -2079,83zm43660 7353c251,1924 -80,903 -579,1975 1710,290 836,6 1712,1087 251,-279 295,-706 502,-883 315,-270 605,-77 1056,-392 -813,-1120 -730,-25 -613,-1902 -1502,749 -597,502 -2078,116zm-9899 3835c75,587 478,1521 186,2031 -262,458 -866,692 -1149,1272 563,92 1638,33 1963,370 342,354 493,1253 933,1487l762 -1625c485,-259 1363,-199 1833,-451 -335,-623 -920,-788 -1179,-1193 -237,-373 59,-1412 109,-1994 -621,169 -1310,773 -1668,806 -358,34 -1224,-561 -1792,-703zm-47167 4761c156,532 1111,1147 1459,1705l-314 2182c488,-169 1599,-872 1945,-925 348,-54 1427,773 2082,907l-332 -2157c465,-478 1279,-1067 1569,-1638 -592,-75 -1864,-87 -2226,-455 -132,-135 -820,-1624 -930,-1881 -456,462 -569,1203 -947,1734 -348,490 -1591,459 -2304,527zm56465 3310l540 2817c-451,549 -1685,1574 -1965,2091 733,84 2605,84 2975,558 378,485 800,1796 1234,2219l1228 -2569 2732 -443c-169,-570 -1785,-1583 -1966,-1961 -96,-805 276,-2028 312,-2898 -375,156 -2173,1283 -2454,1318 -336,41 -2114,-950 -2637,-1132zm-60204 22727l0 1914c403,740 188,1625 1313,3473 1192,1957 3381,3445 5743,3822 2128,340 2579,-166 4258,-323 369,318 690,746 1039,1091 2420,2398 5950,2966 9165,1672 546,-220 818,-506 1343,-653 347,37 2843,3168 7797,2111 1412,-301 2608,-974 3457,-1689 702,-589 1914,-1868 2225,-2927 1274,13 2075,213 3293,-195 6744,-2263 6007,-11039 54,-12821 -261,-78 -438,-90 -706,-146 -1149,-237 -493,-766 -1334,-2726 -2049,-4777 -7555,-7212 -12787,-4787 -868,402 -1290,863 -2001,1182 -340,-255 -508,-547 -818,-843 -2808,-2676 -7340,-3122 -10305,-1099 -1461,997 -2915,2531 -3471,4230 -155,474 -172,808 -429,1094 -278,190 -2999,146 -5337,2469 -2257,2241 -2184,4454 -2501,5151z"/>
 </g>
</svg>
