<?xml version="1.0" encoding="UTF-8"?>
<!DOCTYPE svg PUBLIC "-//W3C//DTD SVG 1.0//EN" "http://www.w3.org/TR/2001/REC-SVG-20010904/DTD/svg10.dtd">
<!-- Creator: CorelDRAW -->
<svg xmlns="http://www.w3.org/2000/svg" xml:space="preserve" width="9.0359mm" height="7.9017mm" version="1.0" style="shape-rendering:geometricPrecision; text-rendering:geometricPrecision; image-rendering:optimizeQuality; fill-rule:evenodd; clip-rule:evenodd"
viewBox="0 0 54058 47273"
 xmlns:xlink="http://www.w3.org/1999/xlink"
 xmlns:xodm="http://www.corel.com/coreldraw/odm/2003">
 <defs>
  <style type="text/css">
   <![CDATA[
    .fil0 {fill:#00A0E3}
   ]]>
  </style>
 </defs>
 <g id="Layer_x0020_1">
  <metadata id="CorelCorpID_0Corel-Layer"/>
  <path class="fil0" d="M4141 32410c-805,726 -1713,1547 -1713,1990 0,252 327,676 715,1091 399,428 867,846 1123,1071 112,99 199,166 280,228 124,96 241,186 409,354l4166 3959c211,214 328,309 491,439l237 193c174,145 313,291 457,441l190 195c275,275 1226,1204 1959,1843 415,362 754,632 842,632 413,0 683,-63 839,-254 162,-199 224,-548 219,-1115l-38 -2741c1,-2294 306,-2328 2461,-2327l19222 -1c1853,0 2845,0 3843,-896 648,-580 1091,-1188 1317,-1865 226,-677 236,-1431 23,-2306 -77,-315 -165,-480 -281,-699l-51 -96c-517,-989 -1191,-1529 -2011,-1819 -829,-293 -1820,-337 -2963,-337l-19204 0 -548 14c-698,28 -1141,46 -1530,-492 -326,-450 -284,-1760 -243,-3026 36,-1155 72,-2273 -160,-2582 -389,-516 -876,-376 -1404,22 -352,264 -724,641 -1098,1019 -377,382 -760,769 -1133,1058 -292,226 -538,487 -783,748 -192,204 -385,410 -602,601l-4217 3899c-225,227 -513,488 -814,759zm33107 -25973l0 -3271c0,-835 375,-1627 957,-2209 583,-583 1375,-957 2209,-957 1353,0 1860,449 2629,1128l468 406c131,109 220,202 318,304l117 120c861,870 1874,1800 2891,2736 1008,927 2024,1862 2910,2752 372,374 815,759 1269,1154 1846,1606 3890,3386 2679,5692 -374,711 -1440,1669 -2339,2476 -375,337 -724,650 -974,902l-7547 7125c-708,631 -1542,957 -2373,942 -800,-15 -1600,-349 -2278,-1031 -1055,-1061 -1011,-2530 -959,-4278 10,-353 22,-720 23,-1116l-1055 0c-766,0 -1186,-314 -1363,-716 -70,-158 -101,-328 -101,-495 0,-165 32,-334 88,-489 147,-407 468,-728 849,-728l1137 -6c1612,-16 2325,-22 2651,430 253,349 237,943 208,2003 -21,753 -48,1749 7,3062 9,215 69,416 168,574 89,143 210,254 354,313 143,59 312,69 495,12 194,-60 408,-194 629,-420 162,-165 281,-255 401,-348 104,-78 210,-160 341,-286l7016 -6597c517,-522 980,-924 1365,-1259 344,-299 627,-545 826,-771 619,-702 366,-1234 -1503,-2880 -112,-99 -199,-166 -280,-228 -124,-96 -241,-186 -409,-354l-6964 -6542 -319 -333c-421,-449 -776,-826 -1269,-826 -730,0 -893,780 -893,1770 1,427 31,884 59,1337 71,1115 142,2217 -217,2774 -146,228 -319,369 -546,452 -218,80 -483,106 -825,108l-3596 -10c-278,3 -486,29 -693,53 -245,30 -498,60 -886,58l-16039 -107c-1393,1 -2459,533 -3165,1323 -471,527 -784,1173 -927,1850 -142,678 -117,1390 87,2053 305,990 1011,1876 2148,2382 1279,570 6105,485 10124,415 2945,-51 5465,-95 5898,142 285,157 475,413 558,696 60,205 64,428 11,637 -53,211 -167,411 -340,572 -245,226 -608,377 -1098,377l-12873 0c-556,0 -1079,-39 -1567,-118 -488,-80 -944,-202 -1368,-369 -786,-309 -1478,-753 -2065,-1307 -598,-565 -1089,-1249 -1463,-2027 -407,-848 -593,-1730 -593,-2595 0,-1240 382,-2447 1036,-3476 655,-1028 1584,-1880 2675,-2404 765,-367 1612,-577 2502,-577l20787 0zm-34863 31683c-1275,-1147 -2385,-2145 -2385,-3720 0,-655 166,-1173 436,-1613 267,-434 635,-791 1045,-1134l1213 -1208c162,-159 300,-271 438,-382 145,-117 293,-235 461,-406l790 -796 6755 -6332c687,-640 1511,-976 2340,-984 811,-7 1628,299 2332,941 1103,1007 1048,2738 992,4464l-23 1011 19942 0c1030,0 1883,114 2658,380 776,266 1474,687 2193,1299l193 172c1220,1132 1886,2678 1970,4262 84,1584 -411,3207 -1508,4496l-177 199c-507,547 -1247,1116 -2117,1518 -717,330 -1526,548 -2369,548l-20787 0 0 3271c0,842 -372,1634 -952,2213 -580,582 -1373,952 -2214,952 -1385,0 -1713,-308 -2490,-1034l-139 -130c-117,-108 -182,-154 -251,-203l-216 -165c-198,-166 -376,-345 -582,-552 -277,-279 -608,-613 -1107,-1030l-5393 -5062c-347,-343 -705,-665 -1050,-975z"/>
 </g>
</svg>
