<?xml version="1.0" encoding="UTF-8"?>
<!DOCTYPE svg PUBLIC "-//W3C//DTD SVG 1.0//EN" "http://www.w3.org/TR/2001/REC-SVG-20010904/DTD/svg10.dtd">
<!-- Creator: CorelDRAW -->
<svg xmlns="http://www.w3.org/2000/svg" xml:space="preserve" width="9mm" height="8.0156mm" version="1.0" style="shape-rendering:geometricPrecision; text-rendering:geometricPrecision; image-rendering:optimizeQuality; fill-rule:evenodd; clip-rule:evenodd"
viewBox="0 0 42392 37756"
 xmlns:xlink="http://www.w3.org/1999/xlink"
 xmlns:xodm="http://www.corel.com/coreldraw/odm/2003">
 <defs>
  <style type="text/css">
   <![CDATA[
    .fil0 {fill:#00A0E3}
   ]]>
  </style>
 </defs>
 <g id="Layer_x0020_1">
  <metadata id="CorelCorpID_0Corel-Layer"/>
  <path class="fil0" d="M29228 1407l0 3975 -17553 0c-345,0 -762,283 -917,491 -200,269 -325,599 -325,1082l0 6292c0,954 563,1656 1490,1656l17305 0 0 3974c0,1228 1410,1763 2338,930l10020 -8361c166,-147 223,-163 370,-293 243,-215 393,-498 437,-805l0 -366c-43,-310 -195,-625 -473,-900 -233,-230 -454,-397 -711,-613l-7408 -6171c-504,-439 -985,-801 -1490,-1242 -355,-309 -1195,-1058 -1674,-1058 -777,0 -1407,619 -1407,1407zm-29228 26164c0,788 266,933 839,1396 147,118 191,179 355,308 536,422 958,823 1490,1242 1617,1271 3534,3027 5145,4293l2252 1887c355,309 1195,1058 1674,1058 777,0 1407,-619 1407,-1407l0 -3975 17553 0c427,0 727,-285 940,-550 238,-297 302,-690 302,-1188l0 -6127c0,-954 -562,-1656 -1490,-1656l-17305 0 0 -3974c0,-1092 -1261,-1835 -2339,-931l-9656 8063c-591,479 -1171,797 -1171,1561z"/>
 </g>
</svg>
