<?xml version="1.0" encoding="UTF-8"?>
<!DOCTYPE svg PUBLIC "-//W3C//DTD SVG 1.0//EN" "http://www.w3.org/TR/2001/REC-SVG-20010904/DTD/svg10.dtd">
<!-- Creator: CorelDRAW -->
<svg xmlns="http://www.w3.org/2000/svg" xml:space="preserve" width="8.0432mm" height="6.3732mm" version="1.0" style="shape-rendering:geometricPrecision; text-rendering:geometricPrecision; image-rendering:optimizeQuality; fill-rule:evenodd; clip-rule:evenodd"
viewBox="0 0 20733 16428"
 xmlns:xlink="http://www.w3.org/1999/xlink"
 xmlns:xodm="http://www.corel.com/coreldraw/odm/2003">
 <defs>
  <style type="text/css">
   <![CDATA[
    .fil0 {fill:#00A0E3;fill-rule:nonzero}
   ]]>
  </style>
 </defs>
 <g id="Layer_x0020_1">
  <metadata id="CorelCorpID_0Corel-Layer"/>
  <path class="fil0" d="M682 16428c-377,0 -682,-305 -682,-682 0,-377 305,-682 682,-682l4698 0 0 -3622c0,-377 305,-682 682,-682l3622 0 0 -3622c0,-377 305,-682 682,-682l3622 0 0 -3622c0,-377 305,-682 682,-682l5380 0c377,0 682,305 682,682 0,377 -305,682 -682,682l-4698 0 0 3622c0,377 -305,682 -682,682l-3622 0 0 3622c0,377 -305,682 -682,682l-3622 0 0 3622c0,377 -305,682 -682,682l-5380 0zm3146 -15885l4294 -536c57,-8 116,-9 175,-1 374,45 640,386 594,759l-536 4285c-14,153 -80,302 -197,419 -266,266 -698,266 -965,0l-594 -594 -2746 2746c-266,266 -698,266 -965,0l-1614 -1614c-266,-266 -266,-698 0,-965l2746 -2746 -594 -594c-104,-104 -175,-243 -194,-400 -45,-374 221,-714 594,-759z"/>
 </g>
</svg>
