<?xml version="1.0" encoding="UTF-8"?>
<!DOCTYPE svg PUBLIC "-//W3C//DTD SVG 1.0//EN" "http://www.w3.org/TR/2001/REC-SVG-20010904/DTD/svg10.dtd">
<!-- Creator: CorelDRAW -->
<svg xmlns="http://www.w3.org/2000/svg" xml:space="preserve" width="9.1109mm" height="6.3403mm" version="1.0" style="shape-rendering:geometricPrecision; text-rendering:geometricPrecision; image-rendering:optimizeQuality; fill-rule:evenodd; clip-rule:evenodd"
viewBox="0 0 23652 16459"
 xmlns:xlink="http://www.w3.org/1999/xlink"
 xmlns:xodm="http://www.corel.com/coreldraw/odm/2003">
 <defs>
  <style type="text/css">
   <![CDATA[
    .fil0 {fill:#00A0E3}
   ]]>
  </style>
 </defs>
 <g id="Layer_x0020_1">
  <metadata id="CorelCorpID_0Corel-Layer"/>
  <path class="fil0" d="M0 16459l1010 0 0 -9161 -1010 0 0 9161zm7895 -13059c-829,841 -1921,1309 -2922,1902 844,65 1700,19 2545,15 285,0 312,172 83,313 -305,187 -688,278 -1038,278 -1061,4 -2115,50 -3173,-75 -255,-31 -58,-229 46,-298 962,-643 2093,-1065 2953,-1845 -818,-144 -1659,-15 -2488,0 -289,4 -312,-171 -84,-312 305,-187 685,-274 1038,-277 1002,-16 1994,-165 2979,76 145,37 160,121 61,224zm8523 -645c-345,218 -783,316 -1189,319 -1236,8 -2488,49 -3709,249 -731,121 -1447,223 -2187,186 -328,-17 -360,-192 -99,-369 1372,-936 3031,-1426 4341,-2447 -1284,-17 -2569,9 -3857,12 -327,0 -359,-203 -98,-368 345,-218 786,-317 1189,-319 1468,-4 2932,-38 4399,0 168,5 423,95 214,281 -1261,1128 -2862,1670 -4297,2512 800,-61 1606,-252 2404,-314 928,-69 1859,-104 2790,-110 331,-4 359,203 99,368zm-10750 7512l0 -3 -32 5c-93,11 -181,0 -288,-22 -38,-5 -79,-11 -117,-14 -39,-3 -77,-3 -115,-3l-87 0 -74 -3 -13 0 -60 -3c-44,-5 -85,-13 -126,-24l-60 -19c-38,-11 -77,-25 -115,-36l-3 0 -57 -16c-41,-8 -82,-13 -126,-13l-38 0c-132,0 -263,-5 -394,-11l-66 -8c-63,-14 -120,-41 -173,-74 -36,-22 -68,-46 -104,-74 -33,-27 -69,-55 -101,-79l-58 -38c-63,-41 -126,-87 -164,-137 -38,-49 -33,-77 -25,-115 3,-22 8,-44 6,-76l-14 -60 -30 -63 -49 -87 -30 -65 -14 -63c-3,-35 5,-68 36,-98 30,-36 77,-25 96,-72l-14 -114c8,-80 55,-132 74,-205 90,-293 408,-523 720,-529 287,-6 594,24 865,126 120,46 241,96 356,145l71 30c96,44 208,142 315,186 60,30 123,60 189,93 -38,-225 205,-411 249,-597 41,-178 41,-403 186,-529 129,-120 367,-194 537,-241 192,-58 416,-66 611,-33 271,55 550,90 821,148l-11 52c-38,359 202,728 397,1027 44,68 85,129 112,181 22,41 41,79 60,123 85,184 148,389 217,605 52,167 107,334 170,496 175,449 257,860 252,1227l-3 46 3 0 -3 41c-8,142 -27,279 -66,410 -27,93 -60,183 -112,290 -44,112 -71,221 -82,326l0 25 -7790 0 0 -1092 309 0c-99,-79 -192,-178 -260,-233l-49 -44 0 -1240 49 -25c202,-145 361,-288 600,-397 197,-74 455,-126 709,-139 77,106 134,216 164,353 11,63 0,132 22,189 25,74 110,170 161,222 107,112 279,200 416,274 131,79 279,90 427,79 268,-16 479,85 736,120 64,8 125,-4 187,-17 57,-12 114,-24 172,-19 90,11 175,30 266,39 107,-25 208,-52 309,-102l33 -17 11 -5 8 -3 3 0zm16591 -170l0 3368c-52,96 -112,181 -159,280 -76,22 -151,33 -227,33 -435,0 -862,-331 -1344,-386 -794,-96 -1468,-24 -2212,216 -912,337 -2018,96 -2908,-265 -745,-312 -1298,-841 -2117,-791 -792,24 -1536,337 -2306,383 -241,22 -1484,85 -1418,-599 5,-66 22,-137 55,-219 52,-107 93,-219 126,-329 49,-181 77,-362 82,-547l0 -8c17,-468 -98,-953 -279,-1413 -142,-364 -233,-767 -394,-1123 -22,-46 -46,-96 -71,-142 -99,-200 -495,-682 -465,-986 5,-63 30,-118 79,-161l3 0 55 -38 11 -5c271,-151 528,0 816,85 350,96 671,96 1040,96 720,0 1427,16 2147,-112 747,-134 7283,939 8803,1323 408,410 578,860 685,1344zm0 4000l0 871 -20865 0 0 -2297 7837 0c36,93 88,178 156,255 247,268 687,405 1311,405 145,0 260,-8 309,-14 397,-25 778,-112 1147,-197 397,-90 769,-175 1161,-186l79 -3c416,0 770,194 1177,419 217,120 438,241 690,348 512,208 1287,455 2081,455 400,0 772,-63 1090,-181 506,-162 964,-238 1440,-238 194,0 394,14 611,38 175,19 359,93 553,173 260,107 531,216 835,216 118,0 230,-16 340,-49l46 -13zm384 2361l1010 0 0 -9161 -1010 0 0 9161z"/>
 </g>
</svg>
