<?xml version="1.0" encoding="UTF-8"?>
<!DOCTYPE svg PUBLIC "-//W3C//DTD SVG 1.0//EN" "http://www.w3.org/TR/2001/REC-SVG-20010904/DTD/svg10.dtd">
<!-- Creator: CorelDRAW -->
<svg xmlns="http://www.w3.org/2000/svg" xml:space="preserve" width="8.9264mm" height="8.9264mm" version="1.0" style="shape-rendering:geometricPrecision; text-rendering:geometricPrecision; image-rendering:optimizeQuality; fill-rule:evenodd; clip-rule:evenodd"
viewBox="0 0 124471 124471"
 xmlns:xlink="http://www.w3.org/1999/xlink"
 xmlns:xodm="http://www.corel.com/coreldraw/odm/2003">
 <defs>
  <style type="text/css">
   <![CDATA[
    .str0 {stroke:#00AFEF;stroke-width:2460;stroke-miterlimit:2.61313}
    .fil0 {fill:#00AFEF;fill-rule:nonzero}
   ]]>
  </style>
 </defs>
 <g id="Layer_x0020_1">
  <metadata id="CorelCorpID_0Corel-Layer"/>
  <path class="fil0 str0" d="M62235 1230c16842,0 32097,6830 43136,17869 11041,11038 17869,26293 17869,43136 0,16842 -6830,32097 -17869,43136 -11040,11040 -26294,17869 -43136,17869 -16843,0 -32098,-6828 -43136,-17869 -11040,-11040 -17869,-26294 -17869,-43136 0,-16843 6828,-32098 17869,-43136 11038,-11041 26293,-17869 43136,-17869zm35743 25263c-9146,-9146 -21785,-14804 -35743,-14804 -13959,0 -26598,5659 -35743,14804 -9146,9145 -14804,21783 -14804,35743 0,13958 5659,26597 14804,35743 9145,9146 21783,14804 35743,14804 13958,0 26597,-5659 35743,-14804 9146,-9146 14804,-21785 14804,-35743 0,-13959 -5659,-26598 -14804,-35743z"/>
 </g>
</svg>
