<?xml version="1.0" encoding="UTF-8"?>
<!DOCTYPE svg PUBLIC "-//W3C//DTD SVG 1.0//EN" "http://www.w3.org/TR/2001/REC-SVG-20010904/DTD/svg10.dtd">
<!-- Creator: CorelDRAW -->
<svg xmlns="http://www.w3.org/2000/svg" xml:space="preserve" width="11.0002mm" height="7.508mm" version="1.0" style="shape-rendering:geometricPrecision; text-rendering:geometricPrecision; image-rendering:optimizeQuality; fill-rule:evenodd; clip-rule:evenodd"
viewBox="0 0 32622 22266"
 xmlns:xlink="http://www.w3.org/1999/xlink"
 xmlns:xodm="http://www.corel.com/coreldraw/odm/2003">
 <defs>
  <style type="text/css">
   <![CDATA[
    .fil0 {fill:#00A0E3;fill-rule:nonzero}
   ]]>
  </style>
 </defs>
 <g id="Layer_x0020_1">
  <metadata id="CorelCorpID_0Corel-Layer"/>
  <path class="fil0" d="M16068 0c3400,30 6545,394 9584,1426 2067,704 4020,1625 5537,3265 571,617 1026,1309 1252,2128 472,1709 -9,3184 -1146,4478 -1111,1267 -2525,2103 -4050,2772 -915,400 -1869,695 -2823,999 -560,178 -1129,301 -1697,439 -61,16 -122,14 -186,25 -68,12 -195,26 -323,64 -39,-11 -87,-11 -147,-1 -605,99 -1210,202 -1821,271 -4514,515 -8961,226 -13301,-1192 -1285,-418 -2513,-975 -3653,-1709 -289,-184 -1247,-910 -1405,-1068 -767,-770 -1426,-1601 -1721,-2666 -397,-1438 -69,-2738 782,-3927 969,-1351 2308,-2236 3774,-2946 2585,-1258 5335,-1863 8164,-2167 1125,-120 2257,-147 3178,-190l3 0zm12759 11333c614,-451 1192,-942 1610,-1589 819,-1264 725,-2576 -253,-3731 -1301,-1537 -3330,-2484 -5206,-3096 -2278,-743 -4628,-1122 -7017,-1228 -2070,-90 -4138,-33 -6190,283 -2380,367 -4692,957 -6828,2106 -1002,542 -1932,1182 -2615,2119 -698,954 -912,1977 -382,3084 202,427 478,807 816,1141 1141,1129 2519,1875 4002,2437 2359,897 4812,1348 7322,1511 3437,223 6828,-12 10153,-960 1150,-329 2268,-735 3356,-1365 57,-22 1131,-635 1233,-712zm-6305 10933c-334,6 -581,-144 -731,-436 -521,-1029 -1035,-2058 -1547,-3090 -201,-402 -98,-1110 439,-1189 482,-63 831,102 1041,515 506,993 1011,1989 1496,2994 273,569 -40,1207 -698,1207zm-12386 0c-590,6 -1011,-551 -761,-1092 499,-1077 1038,-2140 1595,-3193 226,-427 704,-539 1086,-325 388,216 539,662 331,1089 -506,1038 -1026,2067 -1547,3097 -141,283 -388,415 -701,421l-3 3zm5384 -2347c0,-506 -6,-1008 0,-1511 9,-491 352,-851 791,-851 445,0 816,346 822,830 15,1008 15,2016 0,3024 -6,527 -346,855 -825,852 -491,0 -782,-322 -792,-870 -6,-491 0,-984 0,-1477l3 3zm-8877 -10604c-701,-1159 -523,-2179 509,-3021 1065,-870 2341,-1285 3650,-1565 3906,-833 7812,-824 11694,165 1053,268 2070,656 2931,1351 740,596 1192,1330 927,2329 -172,638 -611,1083 -1135,1447 -1128,789 -2419,1177 -3746,1438 -3795,749 -7580,714 -11339,-250 -1180,-301 -2260,-809 -3235,-1547 -133,-171 -216,-289 -256,-349zm9648 1011c1932,6 3843,-168 5714,-671 828,-223 1634,-506 2338,-1014 557,-403 569,-698 36,-1135 -175,-144 -373,-265 -572,-373 -662,-352 -1375,-569 -2095,-770 -307,-87 -493,-24 -707,232 -1526,1814 -3467,2579 -5814,2160 -1477,-262 -2681,-1029 -3608,-2215 -106,-132 -196,-283 -406,-229 -1017,259 -2031,527 -2892,1162 -566,418 -566,722 -3,1152 494,376 1059,617 1643,810 2071,680 4207,876 6368,885l-3 6zm-2979 -4372c1493,1767 4742,1604 5988,0 -2004,-238 -3981,-229 -5988,0z"/>
 </g>
</svg>
