<?xml version="1.0" encoding="UTF-8"?>
<!DOCTYPE svg PUBLIC "-//W3C//DTD SVG 1.0//EN" "http://www.w3.org/TR/2001/REC-SVG-20010904/DTD/svg10.dtd">
<!-- Creator: CorelDRAW -->
<svg xmlns="http://www.w3.org/2000/svg" xml:space="preserve" width="10.0139mm" height="7.1497mm" version="1.0" style="shape-rendering:geometricPrecision; text-rendering:geometricPrecision; image-rendering:optimizeQuality; fill-rule:evenodd; clip-rule:evenodd"
viewBox="0 0 30393 21700"
 xmlns:xlink="http://www.w3.org/1999/xlink"
 xmlns:xodm="http://www.corel.com/coreldraw/odm/2003">
 <defs>
  <style type="text/css">
   <![CDATA[
    .fil0 {fill:#00A0E3;fill-rule:nonzero}
   ]]>
  </style>
 </defs>
 <g id="Layer_x0020_1">
  <metadata id="CorelCorpID_0Corel-Layer"/>
  <path class="fil0" d="M14400 12l-400 -2c-863,2 -1729,4 -2595,-10 -86,-1 -169,2 -247,10 -76,7 -151,20 -223,37 -76,17 -150,40 -219,68 -69,27 -136,60 -199,98 -63,37 -124,81 -182,129 -58,49 -114,103 -165,161 -51,59 -99,121 -142,185 -44,65 -85,136 -123,211 -297,588 -613,1200 -928,1810 -204,397 -1218,2619 -1525,2918l-45 26c-45,13 -63,13 -113,17l-273 -18 0 -99c0,-39 -4,-78 -10,-117 -7,-40 -17,-80 -30,-120 -15,-42 -34,-84 -57,-125 -23,-42 -52,-84 -84,-126l-95 -108 -117 -108c-488,-352 -981,-692 -1473,-1032l-424 -293c-1121,-778 -2247,-1560 -3364,-2304l-102 -70 -110 -63c-45,-22 -92,-41 -141,-55 -48,-14 -102,-24 -160,-28 -90,-14 -134,-3 -222,11 -73,20 -104,31 -175,60l-84 46 -79 58 -76 73 -63 77 -54 85 -49 104 -32 102 -17 112 0 108c3,38 10,76 19,112 9,36 22,73 39,109l52 98 67 89 94 99 91 82 102 81 3313 2266c500,343 993,685 1467,1019l106 75 -94 89c-43,41 -83,86 -118,134 -35,47 -66,99 -92,154 -28,58 -52,121 -70,187 -18,64 -31,133 -39,204l-27 308 -19 282 -13 301 -3 282 4 307 12 293 22 292c10,92 15,225 35,311 11,76 29,148 51,215 23,67 52,130 86,189 36,64 79,123 127,175 46,50 99,97 157,138l17 11c56,38 117,72 181,100 64,28 133,52 204,69 70,17 142,31 215,39 76,9 156,13 238,13l2862 4c583,-2 1168,-15 1750,-11l30 164c40,257 103,507 185,746 83,244 187,478 308,698 124,226 266,439 425,638 158,198 334,382 525,550 192,169 397,320 613,451 215,131 443,243 681,334 232,90 475,160 724,207 244,46 496,72 750,73 276,2 546,-18 806,-59 262,-41 516,-103 759,-186 246,-83 483,-188 707,-312 225,-124 437,-269 634,-431 195,-160 378,-341 544,-538 166,-196 314,-409 444,-634 128,-223 240,-461 332,-713 90,-247 162,-506 214,-776l15 -62c11,-28 19,-50 34,-76l51 -44c337,-143 3841,-24 4482,-24 112,0 216,-6 312,-18 96,-12 185,-30 267,-54 92,-27 177,-63 253,-107 75,-43 143,-97 203,-158 61,-61 112,-130 155,-206 43,-76 78,-161 104,-253 23,-82 41,-171 52,-266 11,-96 17,-201 17,-313l0 -1659c0,-101 -6,-195 -17,-281 -11,-85 -29,-168 -53,-244 -26,-86 -60,-164 -101,-235 -40,-70 -89,-133 -144,-188l-104 -104 105 -72c486,-334 995,-698 1512,-1068 1067,-764 2175,-1556 3191,-2166l10 -7c63,-45 129,-91 206,-152l17 -14c38,-32 74,-69 107,-107 33,-38 63,-78 88,-119 27,-44 50,-90 68,-137 17,-46 30,-95 38,-144l2 -4c7,-50 10,-102 6,-153 -3,-51 -12,-103 -27,-152 -13,-47 -32,-94 -56,-141 -24,-47 -52,-94 -84,-137l-13 -18c-32,-40 -66,-77 -100,-108 -38,-33 -77,-63 -117,-86 -44,-26 -90,-48 -136,-64 -47,-16 -96,-27 -144,-33 -47,-5 -96,-6 -145,-2 -50,4 -100,14 -147,27 -44,12 -90,30 -134,51 -45,21 -90,47 -134,77 -721,489 -1477,1008 -2232,1526l-1629 1117c-512,356 -1065,710 -1557,1088l-90 79c-67,71 -93,103 -151,181l-49 89 -37 100 -23 107c-6,74 -5,142 -6,216 -111,8 -222,17 -333,21 -76,-8 -54,-1 -124,-40 -34,-38 -46,-56 -76,-101 -274,-515 -531,-1044 -795,-1565l-1121 -2186c-175,-338 -348,-673 -490,-960 -33,-67 -70,-131 -110,-191 -40,-60 -84,-116 -129,-167 -47,-53 -98,-102 -151,-145 -54,-45 -111,-84 -169,-118 -57,-33 -117,-63 -181,-88 -63,-25 -130,-47 -199,-64 -64,-15 -130,-26 -198,-33 -71,-7 -146,-11 -222,-11l-3915 0c-246,17 -510,14 -768,11zm15153 6636l-2637 -4 -134 5 -137 17c-52,9 -102,22 -147,37 -43,15 -86,35 -127,59l-13 8c-49,29 -95,66 -134,108 -37,39 -70,86 -96,138 -26,51 -46,108 -59,170 -12,61 -18,128 -16,201 2,69 12,133 27,192 16,60 39,114 67,162 29,49 63,92 101,128 41,39 87,73 137,100l7 5c38,21 79,38 121,52 43,15 91,26 139,34l131 17 125 5 2637 0 134 -6 131 -18c47,-9 94,-22 137,-38 44,-16 86,-36 126,-60 48,-29 94,-64 134,-105 37,-38 70,-82 97,-131 26,-47 47,-101 62,-160 15,-60 24,-127 25,-198 0,-71 -8,-135 -21,-193 -13,-59 -34,-114 -61,-164 -26,-50 -59,-95 -95,-133 -39,-41 -84,-76 -133,-107 -39,-24 -82,-44 -125,-60 -45,-16 -92,-29 -139,-38l-130 -16 -137 -6zm-26273 2111l-2423 0 -128 4 -131 15c-47,8 -94,19 -137,32 -42,13 -84,31 -124,53 -52,28 -99,61 -140,100 -39,37 -73,80 -101,128 -29,49 -52,103 -68,164 -16,60 -25,125 -27,196 -1,74 5,143 19,204 14,62 36,120 64,172 29,53 63,99 102,138 41,42 88,77 140,107 42,24 86,44 131,60 45,16 93,29 141,37l137 17 133 5 2423 0 129 -4 135 -15c48,-8 96,-19 143,-33 45,-14 89,-32 131,-54 54,-29 104,-64 146,-104 40,-38 76,-83 104,-134 30,-53 53,-111 68,-174 15,-63 22,-132 21,-207 -1,-72 -11,-140 -28,-202 -17,-64 -41,-120 -71,-170 -31,-50 -69,-94 -110,-132 -42,-37 -90,-71 -142,-98 -41,-22 -84,-39 -129,-53 -47,-15 -95,-26 -142,-33l-134 -15 -131 -4zm-2202 -2114l-196 0 -131 4 -131 13c-49,7 -96,18 -141,31 -45,14 -89,31 -128,52l-23 13c-49,28 -95,61 -135,99 -39,38 -75,83 -104,135 -29,52 -52,109 -67,169 -14,59 -22,126 -22,200 0,76 9,145 24,206 16,64 41,122 72,174 30,51 67,96 108,133 44,41 94,75 147,102 40,20 84,38 130,52 45,14 94,25 143,33l131 14 131 4 2419 0 140 -6 140 -19c51,-10 100,-24 145,-41 44,-17 87,-38 128,-63l8 -5c49,-30 93,-68 133,-110 37,-40 70,-87 96,-140 25,-50 45,-107 57,-168 12,-61 18,-128 15,-200 -2,-70 -12,-134 -28,-191 -16,-59 -41,-114 -70,-161 -29,-48 -65,-91 -103,-127 -41,-38 -88,-71 -138,-99 -38,-21 -79,-38 -121,-52 -45,-14 -94,-26 -145,-35l-127 -15 -134 -5c-667,0 -1586,-54 -2223,4zm28496 2114l-2673 0 -133 5 -133 18c-47,8 -93,21 -137,36 -43,15 -86,35 -127,59l-9 4c-46,28 -89,61 -128,100 -37,38 -70,82 -97,131 -27,49 -48,103 -63,161 -14,58 -22,122 -23,191l-1 5c0,68 7,130 20,186 14,59 35,114 61,165 26,49 59,94 95,133 38,41 83,77 130,107 40,25 82,46 123,62 45,18 92,32 140,42l129 20 141 6 2673 0 144 -7 131 -22c48,-10 96,-26 143,-46 42,-17 83,-39 120,-64 49,-33 92,-71 128,-112 35,-40 66,-85 90,-135 24,-50 43,-105 55,-164 12,-58 17,-123 16,-191 -1,-66 -10,-130 -24,-186 -14,-56 -35,-107 -59,-153 -26,-47 -58,-91 -93,-128 -36,-38 -80,-72 -126,-101 -37,-24 -78,-43 -120,-59 -44,-17 -89,-30 -134,-39l-128 -19 -131 -5zm-18625 5085l-40 -80 -62 -90 -75 -83 -85 -72 -94 -60 -107 -51 -108 -35 -110 -20 -117 -5 -122 12 -111 28 -105 43 -112 64c-121,81 -208,168 -293,252l-15 17c-570,641 -1241,1289 -1901,1926l-18 17c-371,358 -741,715 -1071,1047l-99 113 -81 114c-29,46 -55,95 -76,147 -20,48 -36,97 -46,148 -13,64 -19,130 -17,195 2,61 13,125 33,188 19,61 47,122 83,181 35,57 80,114 134,169l4 6c46,46 94,86 143,118 50,33 103,62 157,83 61,25 122,42 182,52 59,9 120,12 181,8 59,-4 117,-15 172,-31 57,-17 115,-41 168,-70 49,-26 98,-57 146,-92 47,-35 94,-75 138,-118l3012 -3013 104 -110 112 -141 59 -95 49 -103 39 -114c21,-105 32,-129 28,-230l-25 -144 -21 -75 -36 -94zm6143 2090l29 102 87 246 493 1198c381,930 764,1861 1161,2783l43 81 64 95c31,41 63,79 97,113 32,33 68,65 106,94 40,30 83,58 127,80 42,22 88,41 134,55l15 5c47,13 97,23 148,27 47,5 97,4 147,-1 48,-5 97,-15 148,-30 50,-15 101,-35 150,-59l7 -3c45,-23 89,-50 128,-79 42,-30 80,-63 114,-97 37,-37 71,-78 100,-120 29,-42 54,-87 74,-134 20,-46 36,-96 46,-147 10,-51 16,-105 17,-160 0,-48 -4,-100 -12,-151 -8,-49 -21,-99 -37,-147l-109 -289c-225,-538 -509,-1140 -687,-1675 -286,-705 -573,-1412 -884,-2115l-70 -158 -48 -91c-53,-84 -80,-121 -142,-200l-96 -90c-35,-29 -73,-55 -111,-77 -38,-22 -77,-42 -116,-56l-17 -6c-38,-14 -80,-25 -125,-33 -44,-9 -91,-14 -140,-15 -42,0 -85,4 -128,11 -44,7 -89,18 -133,32l-12 3c-49,16 -95,36 -138,58 -43,22 -84,49 -121,78 -41,32 -79,67 -112,105 -32,38 -62,78 -86,119l-2 6c-22,39 -42,82 -59,127 -16,44 -30,90 -40,137l-18 133 -4 147 15 98zm-3846 -536c-17,-42 -38,-83 -61,-121 -27,-45 -59,-86 -92,-123 -32,-36 -70,-70 -110,-99 -37,-28 -78,-52 -120,-73 -42,-21 -89,-39 -138,-55 -52,-16 -103,-28 -152,-34 -50,-7 -102,-9 -151,-7 -53,2 -104,10 -153,22 -50,12 -100,30 -148,52l-8 2c-43,20 -85,46 -124,74 -40,29 -80,64 -116,101l-3 5c-33,35 -65,74 -94,116 -29,42 -55,86 -77,131l-43 92c-53,114 -108,231 -152,342 -150,364 -326,765 -504,1171l-22 49c-391,893 -794,1813 -1073,2686l-7 23c-12,49 -21,97 -25,141 -4,45 -5,93 -1,140 3,49 12,97 23,143 12,46 29,93 49,138 19,42 42,83 68,120 27,39 58,76 91,110 33,33 68,65 104,92l122 80c46,25 93,47 140,63 46,16 92,27 137,34 54,8 105,11 154,9 50,-2 98,-9 145,-19 46,-11 91,-27 134,-46 44,-19 86,-43 127,-70 40,-26 78,-56 112,-85 35,-31 69,-65 98,-98l11 -13c52,-62 91,-122 122,-180 32,-59 59,-123 85,-185l5 -11c171,-411 324,-764 478,-1117l43 -100c380,-876 770,-1775 1063,-2601l59 -164 66 -237 11 -89 -7 -139 -22 -133c-11,-46 -25,-92 -42,-134zm2796 3158l0 -2146 -7 -149 -22 -144c-11,-54 -26,-109 -46,-161 -19,-49 -42,-97 -69,-141 -35,-57 -77,-110 -125,-157 -46,-45 -99,-84 -158,-117 -53,-30 -114,-55 -180,-72 -67,-18 -139,-29 -215,-32l-39 -2c-72,0 -138,8 -199,21 -64,14 -124,36 -180,64 -62,30 -118,67 -167,109 -51,43 -96,94 -134,148 -29,42 -54,86 -75,130 -23,49 -41,100 -56,150 -13,46 -23,96 -30,147 -7,53 -12,107 -13,159l-7 2217 8 2261c3,52 10,104 19,154 10,51 23,100 38,145 18,49 40,98 65,143 25,45 53,87 84,125 40,48 85,91 134,128 48,36 102,68 159,93 54,23 111,42 171,54 58,12 119,18 184,18l62 -3c75,-5 144,-17 207,-35 66,-19 129,-47 185,-79 55,-32 104,-71 148,-115 46,-46 87,-99 120,-156 25,-42 47,-89 65,-137 19,-50 34,-103 44,-156l19 -137 5 -157c-22,-458 -15,-949 -8,-1431l0 -220c-1,-172 -2,-348 13,-519zm3867 -5140c-80,35 -113,53 -188,99l-84 68 -80 83 -63 88 -56 105c-36,98 -41,120 -62,223l-7 115 7 95c14,77 24,111 47,186l37 83c87,174 202,293 309,402 313,326 637,646 953,971 329,338 661,681 992,1012 332,332 664,654 991,951l123 118 85 67 103 65c45,25 89,47 130,64 43,17 85,31 126,40 47,11 95,18 144,21 47,2 95,2 141,-4l9 -1c48,-6 93,-16 138,-30 46,-14 92,-33 135,-55 40,-21 80,-46 118,-74 39,-30 76,-62 110,-97 36,-36 68,-75 95,-113 29,-41 53,-82 72,-122l2 -3c21,-46 39,-93 51,-140 12,-47 20,-96 23,-144 3,-49 2,-97 -3,-144 -5,-47 -15,-95 -29,-142 -13,-44 -30,-88 -49,-129 -20,-43 -45,-86 -71,-127l-14 -19c-506,-669 -1431,-1544 -2254,-2322l-21 -19c-327,-310 -637,-604 -929,-898 -63,-61 -122,-110 -192,-165l-80 -52 -103 -51c-36,-15 -75,-29 -117,-39 -42,-11 -87,-19 -131,-23 -40,-4 -85,-5 -130,-2 -104,14 -178,25 -279,59zm1082 -7754l-11758 0c626,-1226 1375,-2952 2091,-4058 1110,-127 2714,-13 3878,-10 1185,-2 2595,-75 3752,-4 54,3 80,6 114,30 30,22 42,43 61,80l26 49c285,568 561,1108 831,1633l1179 2280 -174 0zm-14253 1576c5719,0 11438,13 17157,-3l-3 109c-4,155 -2,316 -1,473l1 141c1,107 2,217 -3,323l-4 98 -148 6c-1721,0 -3670,16 -5629,32l-70 1c-3808,31 -7643,62 -11385,-32l-148 -3 2 -106c4,-154 2,-311 0,-466l-2 -316 4 -84c12,-75 6,-60 42,-128l182 -182 0 141 5 0zm6662 2736l4581 -7 -30 130c-29,124 -68,247 -115,366 -47,120 -104,239 -169,353 -81,142 -175,277 -280,403 -107,127 -224,246 -349,352 -126,107 -263,204 -407,289 -142,83 -292,155 -446,213 -152,56 -311,101 -473,131 -159,29 -321,45 -483,45 -167,0 -333,-15 -495,-42 -164,-28 -326,-71 -483,-127 -158,-56 -310,-126 -454,-207 -146,-82 -283,-177 -410,-280 -127,-103 -245,-219 -353,-344 -107,-124 -203,-256 -284,-395 -69,-117 -130,-241 -181,-370 -50,-125 -90,-256 -120,-389l-29 -131 982 10zm5961 -5526l-69 -164 -287 -540c-200,-395 -403,-856 -630,-1228l-52 -67 -62 -63c-28,-25 -60,-48 -93,-67 -30,-18 -64,-34 -100,-46 -37,-12 -76,-21 -115,-25 -39,-4 -81,-5 -126,-2 -124,17 -170,41 -274,104l-63 53 -56 64 -47 74 -33 75 -22 81 -10 82 3 87c12,87 28,136 63,216l924 1796 51 80 61 72 77 67 86 51c31,14 64,26 98,34 32,8 68,13 103,15l99 -4c88,-19 110,-23 193,-56l80 -48 70 -60 60 -73 42 -72 32 -80 21 -78c11,-61 13,-79 14,-140 -8,-61 -12,-83 -39,-141z"/>
 </g>
</svg>
