<?xml version="1.0" encoding="UTF-8"?>
<!DOCTYPE svg PUBLIC "-//W3C//DTD SVG 1.0//EN" "http://www.w3.org/TR/2001/REC-SVG-20010904/DTD/svg10.dtd">
<!-- Creator: CorelDRAW -->
<svg xmlns="http://www.w3.org/2000/svg" xml:space="preserve" width="10.2642mm" height="5.8318mm" version="1.0" style="shape-rendering:geometricPrecision; text-rendering:geometricPrecision; image-rendering:optimizeQuality; fill-rule:evenodd; clip-rule:evenodd"
viewBox="0 0 36305 20627"
 xmlns:xlink="http://www.w3.org/1999/xlink"
 xmlns:xodm="http://www.corel.com/coreldraw/odm/2003">
 <defs>
  <style type="text/css">
   <![CDATA[
    .fil0 {fill:#00A0E3;fill-rule:nonzero}
   ]]>
  </style>
 </defs>
 <g id="Layer_x0020_1">
  <metadata id="CorelCorpID_0Corel-Layer"/>
  <path class="fil0" d="M35804 157c162,100 299,247 390,429 90,180 124,377 106,569 -18,193 -89,380 -209,538l-3537 4714c-99,132 -228,238 -372,310 -108,56 -225,91 -346,106 -903,1955 -2454,3419 -4682,4400 -2280,1005 -5271,1502 -9002,1502 -3732,0 -6723,-497 -9002,-1502 -2228,-982 -3779,-2446 -4681,-4400 -121,-15 -238,-50 -346,-104 -144,-74 -273,-180 -372,-312l-3537 -4716c-69,-92 -122,-193 -157,-299 -37,-109 -56,-221 -56,-335 0,-290 119,-555 310,-746 193,-193 457,-312 747,-312l34189 0c202,1 395,57 557,157zm-27062 11228c215,-58 451,-47 670,42l23 0 110 64c252,146 422,381 491,642 58,217 46,452 -43,671l0 18c-753,1308 -1609,2997 -2427,4206 -147,251 -384,419 -645,488 -261,68 -549,36 -800,-111 -251,-147 -419,-383 -488,-645 -67,-260 -36,-547 110,-798l2357 -4084c147,-253 381,-423 641,-492zm18826 0c261,72 495,244 638,496l2356 4082c46,81 82,166 105,252 25,89 37,182 37,274 0,290 -118,554 -309,746 -190,192 -455,310 -747,310 -186,2 -368,-49 -527,-140 -158,-90 -294,-224 -388,-387 -687,-1190 -1828,-2915 -2364,-4094 -143,-253 -171,-540 -100,-800 72,-261 243,-496 496,-639 254,-143 542,-172 802,-99zm-10163 2721c191,-191 456,-310 748,-310 291,0 556,119 747,310 191,191 310,456 310,747l0 4716c0,290 -119,555 -310,746 -193,193 -457,312 -747,312 -290,0 -555,-119 -746,-310 -193,-193 -312,-457 -312,-748l0 -4716c0,-291 119,-556 310,-747zm-6955 -4631c1950,760 4511,1135 7703,1135 3192,0 5753,-375 7703,-1135 1594,-623 2779,-1502 3565,-2645l-22537 0c786,1143 1971,2022 3566,2645zm-5329 -4759l26063 0 1951 -2601 -29964 0 1951 2601z"/>
 </g>
</svg>
