<?xml version="1.0" encoding="UTF-8"?>
<!DOCTYPE svg PUBLIC "-//W3C//DTD SVG 1.0//EN" "http://www.w3.org/TR/2001/REC-SVG-20010904/DTD/svg10.dtd">
<!-- Creator: CorelDRAW -->
<svg xmlns="http://www.w3.org/2000/svg" xml:space="preserve" width="9mm" height="9mm" version="1.0" style="shape-rendering:geometricPrecision; text-rendering:geometricPrecision; image-rendering:optimizeQuality; fill-rule:evenodd; clip-rule:evenodd"
viewBox="0 0 32540 32540"
 xmlns:xlink="http://www.w3.org/1999/xlink"
 xmlns:xodm="http://www.corel.com/coreldraw/odm/2003">
 <defs>
  <style type="text/css">
   <![CDATA[
    .fil0 {fill:#00A0E3}
   ]]>
  </style>
 </defs>
 <g id="Layer_x0020_1">
  <metadata id="CorelCorpID_0Corel-Layer"/>
  <path class="fil0" d="M2493 0l27554 0c334,0 655,68 948,190 305,127 580,312 808,541l6 6c228,228 414,503 541,808 123,293 190,614 190,948l0 27554c0,334 -68,655 -190,948 -86,207 -200,401 -336,576l17 17 -221 221c-228,228 -503,414 -810,541 -295,122 -618,190 -953,190l-27554 0c-335,0 -657,-68 -952,-190 -307,-127 -582,-313 -811,-541 -228,-228 -414,-503 -541,-810 -122,-296 -190,-618 -190,-953l0 -27554c0,-335 68,-657 190,-952 127,-307 313,-582 541,-811l89 -82 82 -67c219,-184 473,-331 747,-431 264,-97 550,-150 844,-150zm27554 2155l-27554 0c-92,0 -177,38 -238,100 -61,61 -100,146 -100,238l0 27554c0,93 38,178 99,239 61,61 146,99 239,99l27554 0c92,0 177,-39 238,-100 61,-61 100,-146 100,-238l0 -27554c0,-93 -38,-178 -98,-238 -61,-62 -146,-100 -239,-100zm-24316 2498l22157 0 0 23234 -23234 0 0 -23234 1077 0zm20001 2155l-18924 0 0 18924 18924 0 0 -18924z"/>
 </g>
</svg>
