<?xml version="1.0" encoding="UTF-8"?>
<!DOCTYPE svg PUBLIC "-//W3C//DTD SVG 1.0//EN" "http://www.w3.org/TR/2001/REC-SVG-20010904/DTD/svg10.dtd">
<!-- Creator: CorelDRAW -->
<svg xmlns="http://www.w3.org/2000/svg" xml:space="preserve" width="9mm" height="5.5811mm" version="1.0" style="shape-rendering:geometricPrecision; text-rendering:geometricPrecision; image-rendering:optimizeQuality; fill-rule:evenodd; clip-rule:evenodd"
viewBox="0 0 19230 11925"
 xmlns:xlink="http://www.w3.org/1999/xlink"
 xmlns:xodm="http://www.corel.com/coreldraw/odm/2003">
 <defs>
  <style type="text/css">
   <![CDATA[
    .fil0 {fill:#00AFEF;fill-rule:nonzero}
   ]]>
  </style>
 </defs>
 <g id="Layer_x0020_1">
  <metadata id="CorelCorpID_0Corel-Layer"/>
  <path class="fil0" d="M18389 3105c-126,785 -510,1486 -1059,2013 -645,618 -1517,999 -2473,999l-10485 0c-956,0 -1828,-381 -2473,-999 -549,-526 -932,-1227 -1059,-2013 -115,-72 -222,-157 -318,-253 -322,-323 -523,-769 -523,-1259l0 -927c0,-368 298,-666 666,-666l17898 0c368,0 666,298 666,666l0 927c0,491 -201,936 -523,1259 -96,96 -202,180 -318,253zm-2783 4762c-270,-248 -288,-669 -39,-939 248,-270 669,-288 939,-39l2053 1894c270,248 288,669 39,939 -248,270 -669,288 -939,39l-2053 -1894zm-3388 717c-129,-343 44,-727 388,-856 343,-129 727,44 856,388l989 2612c129,343 -44,727 -388,856 -343,129 -727,-44 -856,-388l-989 -2612zm-9494 -1696c270,-248 691,-231 939,39 248,270 231,691 -39,939l-2053 1894c-270,248 -691,231 -939,-39 -248,-270 -231,-691 39,-939l2053 -1894zm3044 1227c129,-344 513,-517 856,-388 343,129 517,513 388,856l-989 2612c-129,344 -513,517 -856,388 -343,-129 -517,-513 -388,-856l990 -2612zm3180 349c0,-368 298,-666 666,-666 368,0 666,298 666,666l0 2793c0,368 -298,666 -666,666 -368,0 -666,-298 -666,-666l0 -2793zm-7223 -6426l56 3 15666 0 56 -3 22 -4 44 -10c74,-21 141,-62 194,-115 82,-82 133,-194 133,-317l0 -261 -16565 0 0 261c0,123 51,236 132,317 69,69 160,116 261,129zm14684 2121c229,-220 413,-487 534,-785l-14657 0c121,298 305,565 534,785 403,386 951,624 1552,624l10485 0c602,0 1149,-238 1552,-624z"/>
 </g>
</svg>
