<?xml version="1.0" encoding="UTF-8"?>
<!DOCTYPE svg PUBLIC "-//W3C//DTD SVG 1.0//EN" "http://www.w3.org/TR/2001/REC-SVG-20010904/DTD/svg10.dtd">
<!-- Creator: CorelDRAW -->
<svg xmlns="http://www.w3.org/2000/svg" xml:space="preserve" width="9mm" height="7.9873mm" version="1.0" style="shape-rendering:geometricPrecision; text-rendering:geometricPrecision; image-rendering:optimizeQuality; fill-rule:evenodd; clip-rule:evenodd"
viewBox="0 0 48647 43173"
 xmlns:xlink="http://www.w3.org/1999/xlink"
 xmlns:xodm="http://www.corel.com/coreldraw/odm/2003">
 <defs>
  <style type="text/css">
   <![CDATA[
    .fil0 {fill:#00AFEF}
   ]]>
  </style>
 </defs>
 <g id="Layer_x0020_1">
  <metadata id="CorelCorpID_0Corel-Layer"/>
  <path class="fil0" d="M0 18399l48647 0 0 6375 -48647 0 0 -6375zm39396 13301c-691,-691 -691,-1813 0,-2504 692,-692 1813,-692 2505,0l4277 4277c691,691 691,1813 0,2504 -691,691 -1813,691 -2504,0l-4278 -4277zm-8158 3159c-351,-910 101,-1932 1010,-2284 909,-351 1932,101 2283,1010l2154 5590c352,909 -101,1932 -1010,2284 -909,351 -1932,-101 -2283,-1010l-2154 -5590zm-8680 593c-8,-975 776,-1771 1750,-1779 974,-8 1771,776 1778,1751l53 5971c8,974 -776,1771 -1750,1778 -974,8 -1771,-776 -1779,-1750l-52 -5971zm-8443 -1867c351,-909 1374,-1362 2283,-1010 910,351 1362,1374 1010,2284l-2153 5590c-351,909 -1374,1362 -2284,1010 -909,-351 -1362,-1375 -1010,-2284l2153 -5590zm-7370 -4391c691,-691 1813,-691 2505,0 691,691 691,1813 0,2504l-4278 4277c-691,691 -1813,691 -2504,0 -691,-691 -691,-1813 0,-2504l4277 -4277zm35156 -15216c-691,691 -1813,691 -2505,0 -691,-692 -691,-1813 0,-2505l4278 -4277c691,-691 1813,-691 2504,0 691,691 691,1813 0,2504l-4277 4277zm-7369 -4391c-351,909 -1374,1362 -2283,1010 -910,-351 -1362,-1374 -1010,-2283l2154 -5591c351,-909 1374,-1362 2283,-1010 910,352 1362,1375 1010,2284l-2154 5590zm-8444 -1838c-8,974 -804,1758 -1778,1750 -974,-8 -1758,-804 -1750,-1778l52 -5971c8,-974 805,-1758 1779,-1750 974,8 1758,804 1750,1778l-53 5971zm-8679 565c351,910 -101,1932 -1010,2284 -909,351 -1932,-101 -2283,-1010l-2153 -5590c-352,-909 101,-1932 1010,-2284 910,-351 1932,101 2284,1010l2153 5590zm-8159 3160c691,691 691,1813 0,2504 -691,691 -1813,691 -2505,0l-4277 -4277c-691,-691 -691,-1813 0,-2504 691,-691 1813,-691 2504,0l4278 4277z"/>
 </g>
</svg>
