<?xml version="1.0" encoding="UTF-8"?>
<!DOCTYPE svg PUBLIC "-//W3C//DTD SVG 1.0//EN" "http://www.w3.org/TR/2001/REC-SVG-20010904/DTD/svg10.dtd">
<!-- Creator: CorelDRAW -->
<svg xmlns="http://www.w3.org/2000/svg" xml:space="preserve" width="7.477mm" height="6.887mm" version="1.0" style="shape-rendering:geometricPrecision; text-rendering:geometricPrecision; image-rendering:optimizeQuality; fill-rule:evenodd; clip-rule:evenodd"
viewBox="0 0 3157 2908"
 xmlns:xlink="http://www.w3.org/1999/xlink"
 xmlns:xodm="http://www.corel.com/coreldraw/odm/2003">
 <defs>
  <style type="text/css">
   <![CDATA[
    .fil0 {fill:#00AFEF}
   ]]>
  </style>
 </defs>
 <g id="Layer_x0020_1">
  <metadata id="CorelCorpID_0Corel-Layer"/>
  <g id="_2099553866032">
   <path class="fil0" d="M79 166l129 0 0 166 -129 0c-41,0 -79,-36 -79,-86 0,-42 33,-80 79,-80z"/>
   <path class="fil0" d="M2952 166l126 0c41,0 80,36 80,86 0,44 -33,86 -80,86l-129 0 0 -172 3 0z"/>
   <polygon class="fil0" points="1657,166 1503,166 1503,332 1657,332 "/>
   <path class="fil0" d="M2900 2822c0,44 -55,86 -107,86 -52,0 -85,-24 -99,-56 -3,-9 -5,-18 -5,-30 0,9 -3,21 -8,30 -22,33 -71,56 -121,56 -49,0 -101,-24 -121,-56 -5,-9 -8,-18 -8,-30 0,9 -3,21 -8,30 -22,33 -71,56 -121,56 -49,0 -102,-24 -121,-56 -5,-9 -8,-18 -8,-30 0,9 -3,21 -8,30 -22,33 -71,56 -121,56 -49,0 -102,-24 -121,-56 -5,-9 -8,-18 -8,-30 0,9 -3,21 -5,30 -14,33 -47,56 -99,56 -49,0 -85,-24 -99,-56 -3,-9 -5,-18 -5,-30l0 -2280c16,9 36,15 52,15l14 0c27,-3 47,-18 66,-36l8 9c19,21 41,33 71,33l14 0c27,-3 47,-18 66,-36l8 9c3,15 30,27 55,27l14 0c27,-3 47,-18 66,-36l8 9c19,18 41,30 69,30l14 0c27,-3 47,-18 66,-36l8 9c19,21 41,33 71,33l14 0c27,-3 47,-18 66,-36l8 9c19,21 41,33 71,33l14 0c27,-3 47,-18 66,-36 0,-3 3,0 3,3 19,21 41,33 71,33l14 0c27,-3 47,-18 66,-36l8 9c19,21 41,33 71,33l14 0c14,-3 27,-6 38,-15l0 2253zm-330 -273c0,0 -3,-27 -3,-40l0 -1601c0,-13 3,-40 3,-53 0,-13 3,-13 3,-27l0 -13c5,-27 13,-53 20,-53 15,0 26,66 26,133l0 1601c0,79 -13,132 -26,132 -10,0 -20,-40 -23,-79zm-315 0c0,0 -3,-27 -3,-40l0 -1601c0,-13 3,-40 3,-53 0,-13 3,-13 3,-27l0 -13c5,-27 13,-53 20,-53 15,0 26,66 26,133l0 1601c0,79 -13,132 -26,132 -10,0 -20,-40 -23,-79zm-315 0c0,0 -3,-27 -3,-40l0 -1601c0,-13 3,-40 3,-53 0,-13 3,-13 3,-27l0 -13c5,-27 13,-53 20,-53 15,0 26,66 26,133l0 1601c0,79 -13,132 -26,132 -10,0 -20,-40 -23,-79z"/>
   <path class="fil0" d="M1451 2822c0,44 -55,86 -104,86 -49,0 -85,-24 -99,-56 -3,-9 -5,-18 -5,-30 0,9 -3,21 -8,30 -22,33 -71,56 -121,56 -49,0 -101,-24 -121,-56 -5,-9 -8,-18 -8,-30 0,9 -3,21 -8,30 -22,33 -71,56 -121,56 -49,0 -101,-24 -121,-56 -5,-9 -8,-18 -8,-30 0,9 -3,21 -8,30 -22,33 -71,56 -121,56 -49,0 -102,-24 -121,-56 -5,-9 -8,-18 -8,-30 0,9 -3,21 -6,30 -14,33 -47,56 -99,56 -49,0 -85,-24 -99,-56 -3,-9 -5,-18 -5,-30l0 -2280c16,9 36,15 52,15l14 0c27,-3 47,-18 66,-36l8 9c19,21 41,33 71,33l14 0c27,-3 47,-18 66,-36l8 9c3,15 30,27 55,27l14 0c27,-3 47,-18 66,-36l8 9c19,18 41,30 69,30l14 0c27,-3 47,-18 66,-36l8 9c19,21 41,33 71,33l14 0c27,-3 47,-18 66,-36l8 9c19,21 41,33 71,33l14 0c27,-3 47,-18 66,-36 0,-3 3,0 3,3 19,21 41,33 71,33l14 0c27,-3 47,-18 66,-36l8 9c19,21 41,33 71,33l14 0c14,-3 27,-6 38,-15l0 12 -3 2241zm-291 -273c0,0 -3,-27 -3,-40l0 -1601c0,-13 3,-40 3,-53 0,-13 3,-13 3,-27l0 -13c5,-27 13,-53 20,-53 15,0 26,66 26,133l0 1601c0,79 -13,132 -26,132 -10,0 -20,-40 -23,-79zm-315 0c0,0 -3,-27 -3,-40l0 -1601c0,-13 3,-40 3,-53 0,-13 3,-13 3,-27l0 -13c5,-27 13,-53 20,-53 15,0 26,66 26,133l0 1601c0,79 -13,132 -26,132 -10,0 -20,-40 -23,-79zm-315 0c0,0 -3,-27 -3,-40l0 -1601c0,-13 3,-40 3,-53 0,-13 3,-13 3,-27l0 -13c5,-27 13,-53 20,-53 15,0 26,66 26,133l0 1601c0,79 -13,132 -26,132 -10,0 -20,-40 -23,-79z"/>
   <path class="fil0" d="M2845 0c27,0 47,21 49,44l0 403c0,33 -25,57 -49,57 -25,0 -52,-27 -52,-57l0 -394c3,-27 27,-53 52,-53z"/>
   <path class="fil0" d="M2691 0c27,0 47,21 49,44l0 403c0,33 -25,57 -49,57 -25,0 -52,-27 -52,-57l0 -394c3,-27 25,-53 52,-53z"/>
   <path class="fil0" d="M2537 0c27,0 47,21 49,44l0 403c0,33 -25,57 -49,57 -25,0 -52,-27 -52,-57l0 -394c0,-27 22,-53 52,-53z"/>
   <path class="fil0" d="M2381 0c27,0 47,21 49,44l0 403c0,33 -25,57 -49,57 -27,0 -52,-27 -52,-57l0 -394c0,-27 25,-53 52,-53z"/>
   <path class="fil0" d="M2227 0c27,0 47,21 49,44l0 403c0,33 -25,57 -49,57 -27,0 -52,-27 -52,-57l0 -394c0,-27 22,-53 52,-53z"/>
   <path class="fil0" d="M2071 0c27,0 47,21 49,44l0 403c0,33 -25,57 -49,57 -30,0 -52,-27 -52,-57l0 -394c0,-27 22,-53 52,-53z"/>
   <path class="fil0" d="M1915 0c27,0 47,21 49,44l0 403c0,33 -25,57 -49,57 -27,0 -52,-27 -52,-57l0 -394c0,-27 25,-53 52,-53z"/>
   <path class="fil0" d="M1761 0c27,0 47,21 49,44l0 403c0,33 -25,57 -49,57 -30,0 -52,-27 -52,-57l0 -394c0,-27 22,-53 52,-53z"/>
   <path class="fil0" d="M1402 0c27,0 47,21 49,44l0 403c0,33 -25,57 -49,57 -25,0 -52,-27 -52,-57l0 -394c0,-27 25,-53 52,-53z"/>
   <path class="fil0" d="M1248 0c27,0 47,21 49,44l0 403c0,33 -25,57 -49,57 -27,0 -52,-27 -52,-57l0 -394c0,-27 22,-53 52,-53z"/>
   <path class="fil0" d="M1092 0c27,0 47,21 49,44l0 403c0,33 -25,57 -49,57 -27,0 -52,-27 -52,-57l0 -394c0,-27 25,-53 52,-53z"/>
   <path class="fil0" d="M935 0c27,0 47,21 49,44l0 403c0,33 -25,57 -49,57 -25,0 -52,-27 -52,-57l0 -394c3,-27 25,-53 52,-53z"/>
   <path class="fil0" d="M782 0c27,0 47,21 49,44l0 403c0,33 -25,57 -49,57 -25,0 -52,-27 -52,-57l0 -394c0,-27 22,-53 52,-53z"/>
   <path class="fil0" d="M625 0c27,0 47,21 49,44l0 403c0,33 -25,57 -49,57 -27,0 -52,-27 -52,-57l0 -394c0,-27 25,-53 52,-53z"/>
   <path class="fil0" d="M472 0c27,0 47,21 49,44l0 403c0,33 -25,57 -49,57 -27,0 -52,-27 -52,-57l0 -394c0,-27 22,-53 52,-53z"/>
   <path class="fil0" d="M315 0c27,0 47,21 49,44l0 403c0,33 -25,57 -49,57 -25,0 -52,-27 -52,-57l0 -394c0,-27 22,-53 52,-53z"/>
  </g>
 </g>
</svg>
