<?xml version="1.0" encoding="UTF-8"?>
<!DOCTYPE svg PUBLIC "-//W3C//DTD SVG 1.0//EN" "http://www.w3.org/TR/2001/REC-SVG-20010904/DTD/svg10.dtd">
<!-- Creator: CorelDRAW -->
<svg xmlns="http://www.w3.org/2000/svg" xml:space="preserve" width="7.471mm" height="6.879mm" version="1.0" style="shape-rendering:geometricPrecision; text-rendering:geometricPrecision; image-rendering:optimizeQuality; fill-rule:evenodd; clip-rule:evenodd"
viewBox="0 0 3152 2903"
 xmlns:xlink="http://www.w3.org/1999/xlink"
 xmlns:xodm="http://www.corel.com/coreldraw/odm/2003">
 <defs>
  <style type="text/css">
   <![CDATA[
    .fil0 {fill:#00AFEF}
   ]]>
  </style>
 </defs>
 <g id="Layer_x0020_1">
  <metadata id="CorelCorpID_0Corel-Layer"/>
  <g id="_2101397786560">
   <path class="fil0" d="M311 524c-28,0 -51,-26 -51,-57l0 -410c0,-31 23,-57 51,-57 25,0 46,20 51,49l0 418c0,31 -23,57 -51,57z"/>
   <path class="fil0" d="M467 524c-28,0 -51,-26 -51,-57l0 -410c0,-31 23,-57 51,-57 25,0 46,20 51,49l0 418c0,31 -23,57 -51,57z"/>
   <path class="fil0" d="M622 524c-28,0 -51,-26 -51,-57l0 -410c-2,-31 23,-57 51,-57 26,0 46,20 51,49l0 418c0,31 -23,57 -51,57z"/>
   <path class="fil0" d="M778 524c-28,0 -51,-26 -51,-57l0 -410c-3,-31 20,-57 51,-57 25,0 46,20 51,49l0 418c0,31 -23,57 -51,57z"/>
   <path class="fil0" d="M931 524c-28,0 -51,-26 -51,-57l0 -410c0,-31 23,-57 51,-57 25,0 46,20 51,49l0 418c0,31 -23,57 -51,57z"/>
   <path class="fil0" d="M1087 524c-28,0 -51,-26 -51,-57l0 -410c0,-31 23,-57 51,-57 25,0 46,20 51,49l0 418c0,31 -23,57 -51,57z"/>
   <path class="fil0" d="M1242 524c-28,0 -51,-26 -51,-57l0 -410c0,-31 23,-57 51,-57 26,0 46,20 51,49l0 418c0,31 -23,57 -51,57z"/>
   <path class="fil0" d="M1398 524c-28,0 -51,-26 -51,-57l0 -410c-3,-31 20,-57 51,-57 25,0 46,20 51,49l0 418c0,31 -23,57 -51,57z"/>
   <path class="fil0" d="M1760 524c-28,0 -51,-26 -51,-57l0 -410c-3,-31 21,-57 51,-57 25,0 46,20 51,49l0 418c0,31 -23,57 -51,57z"/>
   <path class="fil0" d="M1913 524c-28,0 -51,-26 -51,-57l0 -410c0,-31 23,-57 51,-57 25,0 46,20 51,49l0 418c0,31 -23,57 -51,57z"/>
   <path class="fil0" d="M2068 524c-28,0 -51,-26 -51,-57l0 -410c0,-31 23,-57 51,-57 25,0 46,20 51,49l0 418c0,31 -23,57 -51,57z"/>
   <path class="fil0" d="M2224 524c-28,0 -51,-26 -51,-57l0 -410c0,-31 23,-57 51,-57 25,0 46,20 51,49l0 418c0,31 -23,57 -51,57z"/>
   <path class="fil0" d="M2380 524c-28,0 -51,-26 -51,-57l0 -410c0,-31 23,-57 51,-57 26,0 46,20 51,49l0 418c0,31 -23,57 -51,57z"/>
   <path class="fil0" d="M2535 524c-28,0 -51,-26 -51,-57l0 -410c-3,-31 20,-57 51,-57 26,0 46,20 51,49l0 418c0,31 -23,57 -51,57z"/>
   <path class="fil0" d="M2688 524c-28,0 -51,-26 -51,-57l0 -410c0,-31 23,-57 51,-57 25,0 46,20 51,49l0 418c0,31 -23,57 -51,57z"/>
   <path class="fil0" d="M2844 524c-28,0 -51,-26 -51,-57l0 -410c0,-31 23,-57 51,-57 25,0 46,20 51,49l0 418c0,31 -23,57 -51,57z"/>
   <path class="fil0" d="M2688 1857c-3,0 -8,0 -10,-3 -3,0 -3,-3 -5,-3 -5,-3 -8,-9 -10,-14 0,-3 -3,-6 -3,-9 0,-14 8,-26 21,-29l212 0c15,0 26,14 26,29 2,12 -3,23 -13,26 -3,0 -8,3 -10,3l-207 0z"/>
   <path class="fil0" d="M2902 1739c0,0 -5,3 -8,3l-309 0c-3,0 -8,-3 -10,-3 -3,0 -3,-3 -5,-3l-3 0c-5,-6 -10,-14 -10,-23 0,-17 13,-29 26,-29l309 0c15,0 25,14 25,29 0,11 -8,23 -15,26z"/>
   <path class="fil0" d="M3152 258c0,49 -36,86 -77,86l-130 0 0 -172 130 0c43,0 77,40 77,86z"/>
   <path class="fil0" d="M77 172l130 0 0 175 -130 0c-43,0 -77,-40 -77,-86 0,-49 36,-89 77,-89z"/>
   <polygon class="fil0" points="1500,347 1500,172 1655,172 1655,347 "/>
   <path class="fil0" d="M2497 2728c20,-206 61,-533 138,-774 5,-17 10,-34 18,-52 10,6 23,9 36,9l207 0 0 991 -411 0c0,-26 3,-66 8,-118 3,-17 3,-37 5,-57zm185 -58c76,-329 33,-265 66,-490 16,88 26,152 16,253 -6,58 -25,155 -58,206l-25 31z"/>
   <path class="fil0" d="M258 1799l212 0c13,3 21,14 21,29 0,3 0,6 -3,9 -3,6 -5,12 -10,14 -2,0 -2,3 -5,3 -3,0 -8,3 -10,3l-207 0c0,0 -3,0 -8,-3 -10,-6 -15,-14 -15,-26 0,-17 13,-29 26,-29z"/>
   <path class="fil0" d="M258 1682l309 0c15,0 25,14 25,29 0,9 -2,17 -10,23l-3 0c-2,0 -2,3 -5,3 -3,0 -8,3 -10,3l-311 0c-3,0 -8,-3 -10,-3 -10,-6 -15,-14 -15,-26 5,-14 18,-29 31,-29z"/>
   <path class="fil0" d="M464 1914c13,0 26,-3 36,-9 87,244 133,599 156,822 3,20 3,40 5,57 5,51 8,92 10,117l-411 0 0 -988 204 0zm13 762c-76,-329 -33,-265 -66,-490 -16,88 -26,152 -16,253 6,58 25,155 58,206l25 31z"/>
   <path class="fil0" d="M1425 573c-8,3 -15,3 -26,3 -5,0 -8,0 -13,-3 -25,-3 -49,-17 -64,-37l-8 9c-18,20 -43,31 -71,31 -5,0 -8,0 -13,-3 -26,-3 -49,-17 -64,-37 -3,3 -5,6 -8,9 -18,20 -43,31 -71,31 -5,0 -8,0 -13,-3 -25,-3 -48,-17 -64,-37 -3,3 -5,6 -8,9 -18,20 -43,31 -71,31 -5,0 -8,0 -13,-3 -25,-3 -49,-17 -64,-37l-8 9c-18,20 -43,31 -71,31 -5,0 -8,0 -13,-3 -25,-3 -49,-17 -64,-37 -3,3 -5,6 -8,9 -18,20 -43,31 -71,31 -5,0 -8,0 -13,-3 -25,-3 -48,-17 -64,-37 -3,3 -5,6 -8,9 -5,6 -13,12 -18,14 -15,8 -33,17 -51,17 -5,0 -8,0 -13,-3 -25,-3 -49,-17 -64,-37l-8 9c-18,20 -43,31 -71,31 -5,0 -8,0 -13,-3 -13,-3 -28,-6 -38,-14l0 1063 258 0 51 0c28,0 51,14 64,40 148,-40 270,-112 370,-206 231,-212 363,-560 421,-882zm-958 914c107,-241 163,-484 126,-780l-126 780zm213 43c87,-44 219,-223 277,-349 62,-136 116,-343 89,-516 -30,160 -81,328 -141,465 -96,218 -158,267 -224,401z"/>
   <path class="fil0" d="M1737 576c8,3 15,3 25,3 5,0 8,0 13,-3 25,-3 49,-17 64,-37l8 9c18,20 43,31 71,31 5,0 8,0 13,-3 26,-3 49,-17 64,-37 3,3 5,6 8,9 18,20 43,31 71,31 5,0 8,0 13,-3 25,-3 48,-17 64,-37 3,3 5,6 8,9 18,20 43,31 71,31 5,0 8,0 13,-3 25,-3 49,-17 64,-37l8 9c18,20 43,31 71,31 5,0 8,0 13,-3 25,-3 49,-17 64,-37 3,3 5,6 8,9 18,20 43,31 71,31 5,0 8,0 13,-3 25,-3 48,-17 64,-37 3,3 5,6 8,9 5,6 13,12 18,14 15,8 33,17 51,17 5,0 8,0 13,-3 25,-3 49,-17 64,-37l8 9c18,20 43,31 71,31 5,0 8,0 13,-3 13,-3 28,-6 38,-14l0 1063 -258 0 -51 0c-28,0 -51,14 -64,40 -148,-40 -270,-112 -370,-206 -231,-212 -363,-560 -421,-882zm958 914c-107,-241 -163,-484 -126,-780l126 780zm-214 43c-87,-44 -219,-223 -276,-349 -62,-136 -116,-343 -89,-516 30,160 81,328 141,465 96,218 158,267 224,401z"/>
  </g>
 </g>
</svg>
